<svg width="30" height="30" viewBox="0 0 30 30" fill="none" xmlns="http://www.w3.org/2000/svg">
<path d="M22.5022 7.5C21.7397 7.5 21.0397 7.0625 20.6897 6.3875L19.7897 4.575C19.2147 3.4375 17.7147 2.5 16.4397 2.5H13.5772C12.2897 2.5 10.7897 3.4375 10.2147 4.575L9.31466 6.3875C8.96466 7.0625 8.26466 7.5 7.50216 7.5C4.78966 7.5 2.63966 9.7875 2.81466 12.4875L3.46466 22.8125C3.61466 25.3875 5.00216 27.5 8.45216 27.5H21.5522C25.0022 27.5 26.3772 25.3875 26.5397 22.8125L27.1897 12.4875C27.3647 9.7875 25.2147 7.5 22.5022 7.5ZM13.1272 9.0625H16.8772C17.3897 9.0625 17.8147 9.4875 17.8147 10C17.8147 10.5125 17.3897 10.9375 16.8772 10.9375H13.1272C12.6147 10.9375 12.1897 10.5125 12.1897 10C12.1897 9.4875 12.6147 9.0625 13.1272 9.0625ZM15.0022 22.65C12.6772 22.65 10.7772 20.7625 10.7772 18.425C10.7772 16.0875 12.6647 14.2 15.0022 14.2C17.3397 14.2 19.2272 16.0875 19.2272 18.425C19.2272 20.7625 17.3272 22.65 15.0022 22.65Z" fill="#0070F4"/>
</svg>
