<svg width="54" height="42" viewBox="0 0 54 42" fill="none" xmlns="http://www.w3.org/2000/svg">
<path d="M49.251 4.03701C52.341 7.31901 54 11 54 16.967C54 27.467 46.629 36.878 35.91 41.531L33.231 37.397C43.236 31.985 45.192 24.962 45.972 20.534C44.361 21.368 42.252 21.659 40.185 21.467C34.773 20.966 30.507 16.523 30.507 11C30.507 8.21524 31.6132 5.54452 33.5824 3.57539C35.5515 1.60625 38.2222 0.500008 41.007 0.500008C42.547 0.51347 44.069 0.833115 45.4843 1.44034C46.8996 2.04757 48.18 2.93026 49.251 4.03701ZM19.251 4.03701C22.341 7.31901 24 11 24 16.967C24 27.467 16.629 36.878 5.91 41.531L3.231 37.397C13.236 31.985 15.192 24.962 15.972 20.534C14.361 21.368 12.252 21.659 10.185 21.467C4.773 20.966 0.507004 16.523 0.507004 11C0.507 8.21524 1.61325 5.54452 3.58238 3.57539C5.55151 1.60625 8.22223 0.500008 11.007 0.500008C12.547 0.51347 14.069 0.833115 15.4843 1.44034C16.8996 2.04757 18.18 2.93026 19.251 4.03701Z" fill="#EC1887"/>
</svg>
