<svg width="64" height="64" viewBox="0 0 64 64" fill="none" xmlns="http://www.w3.org/2000/svg">
<path d="M47.2419 10.8909C48.4604 10.3017 49.3043 9.05831 49.3043 7.61517C49.3043 6.65102 48.9213 5.72637 48.2395 5.04462C47.5578 4.36286 46.6331 3.97986 45.669 3.97986C44.7048 3.97986 43.7802 4.36286 43.0984 5.04462C42.4167 5.72637 42.0337 6.65102 42.0337 7.61517C42.0337 9.07828 42.8976 10.3317 44.1409 10.9109C42.7028 18.7009 40.4957 24.4984 32.2812 25.7368C32.2812 25.7368 34.4934 36.7975 44.84 36.7975C55.1867 36.7975 56.2353 25.8466 56.2353 25.8466C47.8412 26.2761 47.1321 15.7247 47.2419 10.8909Z" fill="#F19534"/>
<path d="M17.3907 10.8909C16.1723 10.3017 15.3284 9.05831 15.3284 7.61517C15.3284 6.65102 15.7114 5.72637 16.3932 5.04462C17.0749 4.36286 17.9996 3.97986 18.9637 3.97986C19.9279 3.97986 20.8525 4.36286 21.5343 5.04462C22.216 5.72637 22.599 6.65102 22.599 7.61517C22.599 9.07828 21.7351 10.3317 20.4917 10.9109C21.9299 18.7009 24.137 24.4984 32.3514 25.7368C32.3514 25.7368 30.1393 36.7975 19.7926 36.7975C9.446 36.7975 8.40234 25.8516 8.40234 25.8516C16.7915 26.2761 17.5006 15.7247 17.3907 10.8909Z" fill="#F19534"/>
<path d="M44.6992 36.7975C44.7442 36.7975 44.7891 36.8025 44.834 36.8025C47.6854 36.8025 49.8276 35.9686 51.4355 34.7651L44.6992 36.7975Z" fill="#FFCA28"/>
<path d="M59.5869 8.42042C57.9241 8.19571 56.3361 9.77867 56.0465 11.9459C55.8667 13.2991 56.2313 14.5625 56.9354 15.3764L55.7369 20.345C55.7369 20.345 53.9043 32.0849 44.6462 34.4019C37.2458 36.2545 34.5642 22.707 33.9151 18.5224C35.3232 17.8233 36.297 16.3752 36.297 14.6923C36.297 12.3304 34.3845 10.4178 32.0225 10.4178C29.6605 10.4178 27.748 12.3304 27.748 14.6923C27.748 16.3851 28.7367 17.8483 30.1699 18.5374C29.6556 22.667 27.3885 35.7651 19.3988 34.3969C11.2893 33.0037 7.74883 19.3463 6.92988 15.6311C7.90363 14.8321 8.44792 13.424 8.24818 11.9109C7.95855 9.73872 6.24077 8.18073 4.41313 8.42542C2.58549 8.6701 1.34209 10.6276 1.63172 12.7948C1.84145 14.3727 2.8102 15.6261 4.02363 16.1005L10.3754 55.5646C10.3754 55.5646 15.9183 59.9439 32.0225 59.9439C48.1267 59.9439 53.6696 55.5646 53.6696 55.5646L60.0364 15.9956C61.065 15.4563 61.874 14.2429 62.0737 12.7548C62.3683 10.5826 61.2548 8.64513 59.5869 8.42042Z" fill="#FFCA28"/>
<path d="M32.2192 49.8906C34.9054 49.8906 37.0829 47.2949 37.0829 44.0931C37.0829 40.8912 34.9054 38.2955 32.2192 38.2955C29.533 38.2955 27.3555 40.8912 27.3555 44.0931C27.3555 47.2949 29.533 49.8906 32.2192 49.8906Z" fill="#1B3A4B"/>
<path d="M32.2228 39.7275C32.4126 39.9373 32.5823 40.3218 32.2228 41.0708C31.8633 41.8198 29.9258 42.8335 29.5712 43.0383C29.2167 43.248 28.982 43.1531 28.8721 43.0682C28.3478 42.6488 28.5475 41.7 28.8871 41.1207C29.6162 39.8674 31.1592 38.574 32.2228 39.7275Z" fill="#006466"/>
<path d="M31.8608 46.253C31.3115 46.5177 29.5088 47.3217 30.103 48.2754C30.4526 48.8397 31.1767 49.0794 31.8408 49.1094C32.5049 49.1393 33.1591 48.9296 33.7483 48.625C36.5447 47.1768 36.7694 43.3718 36.2251 43.0821C35.6659 42.7825 35.2864 43.5565 34.9967 43.8861C34.1161 44.8724 33.0507 45.6765 31.8608 46.253Z" fill="#144552"/>
<path d="M59.009 39.3493C59.788 35.0399 56.8918 33.9613 56.8918 33.9613C56.8918 33.9613 55.0242 33.6217 54.1453 38.4705C53.2665 43.3142 55.134 43.6538 55.134 43.6538C55.134 43.6538 58.2251 43.6588 59.009 39.3493Z" fill="#1B3A4B"/>
<path d="M57.7232 35.4332C58.4023 36.342 57.5983 37.6853 56.295 38.5791C55.9105 38.8438 55.4012 38.7439 55.3263 38.5242C55.1165 37.895 55.2064 37.1809 55.4861 36.5767C56.315 34.7641 57.3786 34.9738 57.7232 35.4332Z" fill="#006466"/>
<path d="M4.91567 39.4792C4.13168 35.1748 7.03294 34.0912 7.03294 34.0912C7.03294 34.0912 8.90053 33.7516 9.7794 38.6004C10.6583 43.4441 8.79067 43.7837 8.79067 43.7837C8.79067 43.7837 5.69467 43.7887 4.91567 39.4792Z" fill="#1B3A4B"/>
<path d="M7.92214 35.5544C8.59128 36.0538 8.31663 36.7079 7.81228 37.1623C7.23803 37.6867 6.79859 38.2609 6.30922 38.8552C6.23432 38.945 6.14943 39.0449 6.02958 39.0699C5.79988 39.1198 5.61512 38.8851 5.54022 38.6604C5.32549 38.0312 5.36544 37.2922 5.68503 36.7129C6.59386 35.0601 7.66248 35.3597 7.92214 35.5544Z" fill="#006466"/>
<path d="M49.9705 43.5224C49.626 45.4849 48.053 46.8481 46.4501 46.5685C44.8471 46.2888 44.6274 44.616 44.972 42.6535C45.3165 40.6911 46.0905 39.188 47.6885 39.4676C49.2914 39.7473 50.3151 41.5649 49.9705 43.5224Z" fill="#4D194D"/>
<path d="M15.2369 43.5224C15.5815 45.4849 17.1544 46.8481 18.7574 46.5685C20.3603 46.2888 20.58 44.616 20.2355 42.6535C19.8909 40.6911 19.1169 39.188 17.519 39.4676C15.921 39.7473 14.8974 41.5649 15.2369 43.5224Z" fill="#4D194D"/>
<path d="M17.561 42.2157C17.1964 42.6252 16.3076 43.4491 15.993 42.8199C15.5636 41.961 16.1578 40.6627 16.8369 40.2333C17.516 39.8038 18.0703 40.1434 18.1652 40.5279C18.28 41.0173 17.8856 41.8462 17.561 42.2157Z" fill="#FFA8A4" fill-opacity="0.1"/>
<path d="M45.9743 43.4693C45.4799 43.3944 45.425 41.6916 46.7533 40.3533C47.3875 39.7141 48.2963 40.4731 48.0666 41.4968C47.8469 42.4706 46.8781 43.6091 45.9743 43.4693Z" fill="#FFA8A4" fill-opacity="0.1"/>
<path d="M54.5452 49.0417C51.554 50.5398 44.6929 54.5297 32.0242 54.5297C19.3556 54.5297 12.4944 50.5398 9.5033 49.0417C9.5033 49.0417 8.42969 49.616 8.42969 50.2152V54.8143C8.42969 55.4285 8.75427 55.9928 9.28359 56.3074C11.6206 57.6856 18.7414 60.9414 32.0292 60.9414C45.3171 60.9414 52.4379 57.6856 54.7749 56.3074C55.0347 56.1542 55.2501 55.9359 55.3998 55.6741C55.5496 55.4123 55.6285 55.1159 55.6288 54.8143V50.2152C55.6188 49.616 54.5452 49.0417 54.5452 49.0417Z" fill="#FFCA28"/>
<path d="M19.8149 55.3494C21.2131 55.624 21.6375 55.7439 21.5426 56.5229C21.3479 58.0559 18.167 57.6914 16.2844 57.197C12.3945 56.1733 11.6055 55.0947 11.6055 54.131C11.6055 53.2471 12.2846 53.1422 13.3332 53.5118C14.5866 53.9562 16.5241 54.7052 19.8149 55.3494Z" fill="#FFF59D"/>
<path d="M54.5458 50.0504C54.5458 50.0504 46.2715 54.7344 32.0248 54.7344C17.7782 54.7344 9.50391 50.0504 9.50391 50.0504" stroke="#F19534" stroke-width="3.77982" stroke-miterlimit="10" stroke-linecap="round"/>
<path d="M13.5116 24.7517C16.1682 22.8542 17.5963 19.4536 17.7212 14.0406C17.7312 13.5512 17.871 13.4064 18.1357 13.3764C18.5601 13.3315 18.63 13.716 18.625 13.9906C18.5052 19.8331 17.7611 23.4834 14.8149 25.5407C14.6701 25.6406 13.6365 26.2698 13.197 25.8353C12.6727 25.326 13.3418 24.8716 13.5116 24.7517Z" fill="#FFCA28"/>
<path d="M15.9406 7.75803C15.8557 6.85419 16.0655 5.2263 18.4374 4.48725C19.1315 4.27253 19.561 4.61209 19.6408 4.87675C19.8406 5.5359 19.2613 5.79556 18.9967 5.88045C17.174 6.46969 17.0841 7.37852 16.7096 7.95777C16.3351 8.53702 15.9706 8.03267 15.9406 7.75803Z" fill="#FFCA28"/>
<path d="M39.1041 23.5551C41.506 21.4229 43.099 19.0409 44.1476 13.6179C44.2425 13.1386 44.3823 13.0087 44.642 13.0187C45.0665 13.0287 45.0864 13.4232 45.0415 13.6928C44.1526 19.4754 43.3087 21.1233 40.3475 24.404C40.013 24.7735 39.199 25.1081 38.7396 24.7236C38.3252 24.3791 38.8045 23.8248 39.1041 23.5551Z" fill="#FFCA28"/>
<path d="M42.6359 7.80295C42.551 6.89912 42.7608 5.27122 45.1327 4.53217C45.8268 4.31745 46.2563 4.65701 46.3362 4.92167C46.5359 5.58082 45.9567 5.84048 45.692 5.92537C43.8693 6.51461 43.7795 7.42344 43.4049 8.00269C43.0354 8.58195 42.6659 8.0776 42.6359 7.80295Z" fill="#FFCA28"/>
<path d="M15.818 35.7636C10.0155 33.132 8.30773 26.2659 7.39891 23.2847C7.27906 22.8903 7.33898 22.5157 7.73347 22.3959C8.12797 22.276 8.36266 22.5307 8.4875 22.9252C9.14665 25.0874 11.7083 32.3081 16.9965 34.3605C17.381 34.5103 17.9803 34.8748 17.6557 35.499C17.4409 35.9035 16.7518 36.1881 15.818 35.7636Z" fill="#FFF59D"/>
<path d="M6.37007 12.2985C6.09044 11.7193 5.97558 11.17 4.45255 10.5358C4.06804 10.376 3.81337 10.0215 3.91824 9.622C4.0231 9.22252 4.42259 8.9229 5.00184 9.02277C6.88441 9.34736 7.29388 11.2599 7.37378 11.924C7.44868 12.5632 6.65471 12.8778 6.37007 12.2985Z" fill="#FFF59D"/>
<path d="M48.4111 35.7636C54.2136 33.132 55.9214 26.2659 56.8302 23.2847C56.9501 22.8903 56.8902 22.5157 56.4957 22.3959C56.1012 22.276 55.8665 22.5307 55.7416 22.9252C55.0825 25.0874 52.5208 32.3081 47.2326 34.3605C46.8481 34.5103 46.2489 34.8748 46.5735 35.499C46.7882 35.9035 47.4773 36.1881 48.4111 35.7636Z" fill="#FFF59D"/>
<path d="M57.8563 12.2985C58.1359 11.7193 58.2508 11.17 59.7738 10.5358C60.1583 10.376 60.413 10.0215 60.3081 9.622C60.2033 9.22252 59.8038 8.9229 59.2245 9.02277C57.342 9.34736 56.9325 11.2599 56.8526 11.924C56.7777 12.5632 57.5767 12.8778 57.8563 12.2985Z" fill="#FFF59D"/>
<path d="M29.6928 14.7561C29.9974 14.1319 30.5317 13.278 32.2744 12.9185C32.9436 12.7787 33.1383 12.4891 33.0784 12.0496C32.9586 11.1358 31.82 11.2007 31.2058 11.3455C29.1585 11.8249 28.704 13.6426 28.6192 14.3616C28.5343 15.0458 29.3932 15.3803 29.6928 14.7561Z" fill="#FFF59D"/>
</svg>
