<svg width="48" height="48" viewBox="0 0 48 48" fill="none" xmlns="http://www.w3.org/2000/svg">
<path d="M43.5209 31.84L30.7209 8.8C29.0009 5.7 26.6209 4 24.0009 4C21.3809 4 19.0009 5.7 17.2809 8.8L4.48093 31.84C2.86093 34.78 2.68093 37.6 3.98093 39.82C5.28093 42.04 7.84093 43.26 11.2009 43.26H36.8009C40.1609 43.26 42.7209 42.04 44.0209 39.82C45.3209 37.6 45.1409 34.76 43.5209 31.84ZM22.5009 18C22.5009 17.18 23.1809 16.5 24.0009 16.5C24.8209 16.5 25.5009 17.18 25.5009 18V28C25.5009 28.82 24.8209 29.5 24.0009 29.5C23.1809 29.5 22.5009 28.82 22.5009 28V18ZM25.4209 35.42C25.3209 35.5 25.2209 35.58 25.1209 35.66C25.0009 35.74 24.8809 35.8 24.7609 35.84C24.6409 35.9 24.5209 35.94 24.3809 35.96C24.2609 35.98 24.1209 36 24.0009 36C23.8809 36 23.7409 35.98 23.6009 35.96C23.4809 35.94 23.3609 35.9 23.2409 35.84C23.1209 35.8 23.0009 35.74 22.8809 35.66C22.7809 35.58 22.6809 35.5 22.5809 35.42C22.2209 35.04 22.0009 34.52 22.0009 34C22.0009 33.48 22.2209 32.96 22.5809 32.58C22.6809 32.5 22.7809 32.42 22.8809 32.34C23.0009 32.26 23.1209 32.2 23.2409 32.16C23.3609 32.1 23.4809 32.06 23.6009 32.04C23.8609 31.98 24.1409 31.98 24.3809 32.04C24.5209 32.06 24.6409 32.1 24.7609 32.16C24.8809 32.2 25.0009 32.26 25.1209 32.34C25.2209 32.42 25.3209 32.5 25.4209 32.58C25.7809 32.96 26.0009 33.48 26.0009 34C26.0009 34.52 25.7809 35.04 25.4209 35.42Z" fill="#E53D3E"/>
</svg>
