<svg width="383" height="41" viewBox="0 0 383 41" fill="none" xmlns="http://www.w3.org/2000/svg">
<path d="M43.595 1.06V2.16C42.3483 2.19666 41.395 2.34333 40.735 2.6C40.1117 2.82 39.69 3.26 39.47 3.92C39.25 4.54333 39.14 5.53333 39.14 6.89V34.17C39.14 35.49 39.25 36.48 39.47 37.14C39.69 37.8 40.1117 38.24 40.735 38.46C41.395 38.68 42.3483 38.8267 43.595 38.9V40C42.7517 39.9267 41.6883 39.89 40.405 39.89C39.1583 39.8533 37.8933 39.835 36.61 39.835C35.18 39.835 33.8417 39.8533 32.595 39.89C31.3483 39.89 30.34 39.9267 29.57 40V38.9C30.8167 38.8267 31.7517 38.68 32.375 38.46C33.035 38.24 33.475 37.8 33.695 37.14C33.915 36.48 34.025 35.49 34.025 34.17V3.92L34.245 4.085L20.77 40.275H19.89L6.03 4.58V33.62C6.03 34.94 6.14 35.985 6.36 36.755C6.61667 37.4883 7.09333 38.02 7.79 38.35C8.52333 38.6433 9.605 38.8267 11.035 38.9V40C10.375 39.9267 9.51333 39.89 8.45 39.89C7.38667 39.8533 6.37833 39.835 5.425 39.835C4.50833 39.835 3.57333 39.8533 2.62 39.89C1.70333 39.89 0.933334 39.9267 0.31 40V38.9C1.55667 38.8267 2.49167 38.6433 3.115 38.35C3.775 38.02 4.215 37.4883 4.435 36.755C4.655 35.985 4.765 34.94 4.765 33.62V6.89C4.765 5.53333 4.655 4.54333 4.435 3.92C4.215 3.26 3.775 2.82 3.115 2.6C2.49167 2.34333 1.55667 2.19666 0.31 2.16V1.06C0.933334 1.09667 1.70333 1.13333 2.62 1.17C3.57333 1.20666 4.50833 1.225 5.425 1.225C6.23167 1.225 7.05667 1.20666 7.9 1.17C8.78 1.13333 9.51333 1.09667 10.1 1.06L22.585 33.95L21.65 34.39L34.025 1.225C34.465 1.225 34.8867 1.225 35.29 1.225C35.73 1.225 36.17 1.225 36.61 1.225C37.8933 1.225 39.1583 1.20666 40.405 1.17C41.6883 1.13333 42.7517 1.09667 43.595 1.06ZM80.0114 0.289997C83.4948 0.289997 86.5381 1.07833 89.1414 2.655C91.7814 4.23166 93.8164 6.505 95.2464 9.475C96.7131 12.4083 97.4464 15.9833 97.4464 20.2C97.4464 24.3067 96.6948 27.9 95.1914 30.98C93.7248 34.06 91.6714 36.4617 89.0314 38.185C86.3914 39.9083 83.3664 40.77 79.9564 40.77C76.4731 40.77 73.4114 39.9817 70.7714 38.405C68.1681 36.8283 66.1331 34.555 64.6664 31.585C63.2364 28.615 62.5214 25.04 62.5214 20.86C62.5214 16.7533 63.2731 13.16 64.7764 10.08C66.2798 7 68.3331 4.59833 70.9364 2.875C73.5764 1.15166 76.6014 0.289997 80.0114 0.289997ZM79.7914 1.28C77.4081 1.28 75.3364 2.105 73.5764 3.755C71.8164 5.405 70.4414 7.67833 69.4514 10.575C68.4981 13.4717 68.0214 16.8267 68.0214 20.64C68.0214 24.5267 68.5531 27.9183 69.6164 30.815C70.7164 33.675 72.1831 35.8933 74.0164 37.47C75.8864 39.01 77.9398 39.78 80.1764 39.78C82.5598 39.78 84.6314 38.955 86.3914 37.305C88.1514 35.655 89.5081 33.3817 90.4614 30.485C91.4514 27.5517 91.9464 24.1967 91.9464 20.42C91.9464 16.4967 91.3964 13.105 90.2964 10.245C89.2331 7.385 87.7848 5.185 85.9514 3.645C84.1181 2.06833 82.0648 1.28 79.7914 1.28ZM131.394 1.06C137.958 1.06 142.834 2.71 146.024 6.01C149.214 9.27333 150.809 13.9667 150.809 20.09C150.809 24.0867 150.021 27.5883 148.444 30.595C146.904 33.565 144.649 35.875 141.679 37.525C138.709 39.175 135.116 40 130.899 40C130.349 40 129.616 39.9817 128.699 39.945C127.783 39.9083 126.829 39.89 125.839 39.89C124.886 39.8533 124.006 39.835 123.199 39.835C121.916 39.835 120.651 39.8533 119.404 39.89C118.158 39.89 117.149 39.9267 116.379 40V38.9C117.626 38.8267 118.561 38.68 119.184 38.46C119.844 38.24 120.284 37.8 120.504 37.14C120.724 36.48 120.834 35.49 120.834 34.17V6.89C120.834 5.53333 120.724 4.54333 120.504 3.92C120.284 3.26 119.844 2.82 119.184 2.6C118.561 2.34333 117.626 2.19666 116.379 2.16V1.06C117.149 1.09667 118.158 1.15167 119.404 1.225C120.651 1.26166 121.879 1.26166 123.089 1.225C124.373 1.18833 125.821 1.15167 127.434 1.115C129.048 1.07833 130.368 1.06 131.394 1.06ZM130.019 2.05C128.333 2.05 127.233 2.36166 126.719 2.985C126.206 3.60833 125.949 4.87333 125.949 6.78V34.28C125.949 36.1867 126.206 37.4517 126.719 38.075C127.269 38.6983 128.388 39.01 130.074 39.01C134.071 39.01 137.169 38.295 139.369 36.865C141.569 35.3983 143.109 33.2717 143.989 30.485C144.869 27.6983 145.309 24.3067 145.309 20.31C145.309 16.2033 144.814 12.8117 143.824 10.135C142.871 7.42166 141.276 5.405 139.039 4.085C136.839 2.72833 133.833 2.05 130.019 2.05ZM197.267 1.06C197.12 2.34333 197.01 3.59 196.937 4.8C196.9 6.01 196.882 6.92666 196.882 7.55C196.882 8.21 196.9 8.85167 196.937 9.475C196.973 10.0617 197.01 10.5567 197.047 10.96H195.782C195.562 8.79667 195.25 7.09167 194.847 5.845C194.443 4.56167 193.747 3.66333 192.757 3.15C191.803 2.6 190.355 2.325 188.412 2.325H183.847C182.6 2.325 181.647 2.435 180.987 2.655C180.363 2.83833 179.942 3.26 179.722 3.92C179.502 4.54333 179.392 5.53333 179.392 6.89V34.17C179.392 35.49 179.502 36.48 179.722 37.14C179.942 37.8 180.363 38.24 180.987 38.46C181.647 38.6433 182.6 38.735 183.847 38.735H187.862C190.172 38.735 191.913 38.4233 193.087 37.8C194.297 37.1767 195.158 36.1683 195.672 34.775C196.222 33.345 196.625 31.42 196.882 29H198.147C198.037 29.99 197.982 31.31 197.982 32.96C197.982 33.6567 198 34.665 198.037 35.985C198.11 37.2683 198.22 38.6067 198.367 40C196.497 39.9267 194.388 39.89 192.042 39.89C189.695 39.8533 187.605 39.835 185.772 39.835C184.965 39.835 183.92 39.835 182.637 39.835C181.39 39.835 180.033 39.8533 178.567 39.89C177.1 39.89 175.615 39.9083 174.112 39.945C172.608 39.945 171.178 39.9633 169.822 40V38.9C171.068 38.8267 172.003 38.68 172.627 38.46C173.287 38.24 173.727 37.8 173.947 37.14C174.167 36.48 174.277 35.49 174.277 34.17V6.89C174.277 5.53333 174.167 4.54333 173.947 3.92C173.727 3.26 173.287 2.82 172.627 2.6C172.003 2.34333 171.068 2.19666 169.822 2.16V1.06C171.178 1.09667 172.608 1.13333 174.112 1.17C175.615 1.17 177.1 1.18833 178.567 1.225C180.033 1.225 181.39 1.225 182.637 1.225C183.92 1.225 184.965 1.225 185.772 1.225C187.458 1.225 189.365 1.225 191.492 1.225C193.655 1.18833 195.58 1.13333 197.267 1.06ZM187.807 19.87C187.807 19.87 187.807 20.0533 187.807 20.42C187.807 20.7867 187.807 20.97 187.807 20.97H177.742C177.742 20.97 177.742 20.7867 177.742 20.42C177.742 20.0533 177.742 19.87 177.742 19.87H187.807ZM189.402 12.61C189.255 14.7 189.182 16.295 189.182 17.395C189.218 18.495 189.237 19.5033 189.237 20.42C189.237 21.3367 189.255 22.345 189.292 23.445C189.328 24.545 189.42 26.14 189.567 28.23H188.302C188.155 27.0567 187.972 25.92 187.752 24.82C187.568 23.6833 187.128 22.7667 186.432 22.07C185.772 21.3367 184.635 20.97 183.022 20.97V19.87C184.232 19.87 185.148 19.6317 185.772 19.155C186.432 18.6417 186.908 18 187.202 17.23C187.495 16.46 187.697 15.6717 187.807 14.865C187.917 14.0217 188.027 13.27 188.137 12.61H189.402ZM231.059 1.06V2.16C229.812 2.19666 228.859 2.34333 228.199 2.6C227.575 2.82 227.154 3.26 226.934 3.92C226.714 4.54333 226.604 5.53333 226.604 6.89V34.17C226.604 35.49 226.714 36.48 226.934 37.14C227.154 37.8 227.575 38.24 228.199 38.46C228.859 38.6433 229.812 38.735 231.059 38.735H235.074C236.797 38.735 238.19 38.5517 239.254 38.185C240.354 37.8183 241.215 37.25 241.839 36.48C242.499 35.6733 242.994 34.61 243.324 33.29C243.654 31.97 243.91 30.3567 244.094 28.45H245.359C245.249 29.5867 245.194 31.09 245.194 32.96C245.194 33.6567 245.212 34.665 245.249 35.985C245.322 37.2683 245.432 38.6067 245.579 40C243.709 39.9267 241.6 39.89 239.254 39.89C236.907 39.8533 234.817 39.835 232.984 39.835C232.177 39.835 231.132 39.835 229.849 39.835C228.602 39.835 227.245 39.8533 225.779 39.89C224.312 39.89 222.827 39.9083 221.324 39.945C219.82 39.945 218.39 39.9633 217.034 40V38.9C218.28 38.8267 219.215 38.68 219.839 38.46C220.499 38.24 220.939 37.8 221.159 37.14C221.379 36.48 221.489 35.49 221.489 34.17V6.89C221.489 5.53333 221.379 4.54333 221.159 3.92C220.939 3.26 220.499 2.82 219.839 2.6C219.215 2.34333 218.28 2.19666 217.034 2.16V1.06C217.804 1.09667 218.812 1.13333 220.059 1.17C221.305 1.20666 222.644 1.225 224.074 1.225C225.357 1.225 226.622 1.20666 227.869 1.17C229.152 1.13333 230.215 1.09667 231.059 1.06ZM277.089 1.06V2.16C275.842 2.19666 274.889 2.34333 274.229 2.6C273.606 2.82 273.184 3.26 272.964 3.92C272.744 4.54333 272.634 5.53333 272.634 6.89V34.17C272.634 35.49 272.744 36.48 272.964 37.14C273.184 37.8 273.606 38.24 274.229 38.46C274.889 38.68 275.842 38.8267 277.089 38.9V40C276.246 39.9267 275.182 39.89 273.899 39.89C272.652 39.8533 271.387 39.835 270.104 39.835C268.674 39.835 267.336 39.8533 266.089 39.89C264.842 39.89 263.834 39.9267 263.064 40V38.9C264.311 38.8267 265.246 38.68 265.869 38.46C266.529 38.24 266.969 37.8 267.189 37.14C267.409 36.48 267.519 35.49 267.519 34.17V6.89C267.519 5.53333 267.409 4.54333 267.189 3.92C266.969 3.26 266.529 2.82 265.869 2.6C265.246 2.34333 264.311 2.19666 263.064 2.16V1.06C263.834 1.09667 264.842 1.13333 266.089 1.17C267.336 1.20666 268.674 1.225 270.104 1.225C271.387 1.225 272.652 1.20666 273.899 1.17C275.182 1.13333 276.246 1.09667 277.089 1.06ZM329.938 1.06V2.16C328.691 2.19666 327.738 2.38 327.078 2.71C326.455 3.04 326.033 3.57166 325.813 4.305C325.593 5.03833 325.483 6.08333 325.483 7.44V40.275C325.263 40.275 325.043 40.275 324.823 40.275C324.64 40.275 324.438 40.275 324.218 40.275L301.118 4.58V33.62C301.118 34.94 301.228 35.985 301.448 36.755C301.705 37.4883 302.181 38.02 302.878 38.35C303.611 38.6433 304.693 38.8267 306.123 38.9V40C305.463 39.9267 304.601 39.89 303.538 39.89C302.475 39.8533 301.466 39.835 300.513 39.835C299.596 39.835 298.661 39.8533 297.708 39.89C296.791 39.89 296.021 39.9267 295.398 40V38.9C296.645 38.8267 297.58 38.6433 298.203 38.35C298.863 38.02 299.303 37.4883 299.523 36.755C299.743 35.985 299.853 34.94 299.853 33.62V6.89C299.853 5.53333 299.743 4.54333 299.523 3.92C299.303 3.26 298.863 2.82 298.203 2.6C297.58 2.34333 296.645 2.19666 295.398 2.16V1.06C296.021 1.09667 296.791 1.13333 297.708 1.17C298.661 1.20666 299.596 1.225 300.513 1.225C301.32 1.225 302.09 1.20666 302.823 1.17C303.556 1.13333 304.216 1.09667 304.803 1.06L324.218 30.98V7.44C324.218 6.08333 324.09 5.03833 323.833 4.305C323.613 3.57166 323.136 3.04 322.403 2.71C321.706 2.38 320.643 2.19666 319.213 2.16V1.06C319.873 1.09667 320.735 1.13333 321.798 1.17C322.898 1.20666 323.906 1.225 324.823 1.225C325.776 1.225 326.711 1.20666 327.628 1.17C328.581 1.13333 329.351 1.09667 329.938 1.06ZM366.297 0.289997C368.681 0.289997 370.606 0.656664 372.072 1.39C373.539 2.08667 374.914 2.91167 376.197 3.865C376.674 4.23167 377.041 4.415 377.297 4.415C377.994 4.415 378.452 3.29667 378.672 1.06H379.937C379.864 2.41667 379.809 4.06667 379.772 6.01C379.736 7.95333 379.717 10.52 379.717 13.71H378.452C378.196 12.17 377.884 10.685 377.517 9.255C377.151 7.825 376.546 6.59666 375.702 5.57C374.639 4.21333 373.246 3.16833 371.522 2.435C369.799 1.665 368.021 1.28 366.187 1.28C364.354 1.28 362.686 1.73833 361.182 2.655C359.716 3.535 358.451 4.81833 357.387 6.505C356.324 8.19167 355.499 10.2267 354.912 12.61C354.362 14.9567 354.087 17.615 354.087 20.585C354.087 27.185 355.151 32.025 357.277 35.105C359.404 38.1483 362.704 39.67 367.177 39.67C368.497 39.67 369.634 39.4867 370.587 39.12C371.577 38.7167 372.347 38.3317 372.897 37.965C373.594 37.4883 374.034 37.0483 374.217 36.645C374.401 36.205 374.492 35.6367 374.492 34.94V29.66C374.492 28.1567 374.346 27.0383 374.052 26.305C373.759 25.5717 373.209 25.0767 372.402 24.82C371.632 24.5633 370.477 24.4167 368.937 24.38V23.28C369.597 23.3167 370.367 23.3533 371.247 23.39C372.127 23.39 373.044 23.4083 373.997 23.445C374.987 23.445 375.886 23.445 376.692 23.445C377.902 23.445 378.984 23.4267 379.937 23.39C380.927 23.3533 381.752 23.3167 382.412 23.28V24.38C381.606 24.4167 381.001 24.545 380.597 24.765C380.194 24.985 379.919 25.425 379.772 26.085C379.662 26.745 379.607 27.7533 379.607 29.11V40H378.507C378.471 39.3767 378.324 38.6983 378.067 37.965C377.847 37.2317 377.499 36.865 377.022 36.865C376.802 36.865 376.582 36.92 376.362 37.03C376.142 37.14 375.757 37.3967 375.207 37.8C373.997 38.7167 372.714 39.45 371.357 40C370.001 40.5133 368.424 40.77 366.627 40.77C362.851 40.77 359.606 40 356.892 38.46C354.216 36.8833 352.162 34.6283 350.732 31.695C349.302 28.7617 348.587 25.26 348.587 21.19C348.587 16.9 349.357 13.1967 350.897 10.08C352.437 6.96333 354.527 4.56167 357.167 2.875C359.844 1.15166 362.887 0.289997 366.297 0.289997Z" fill="white"/>
</svg>
