<svg width="10" height="7" viewBox="0 0 10 7" fill="none" xmlns="http://www.w3.org/2000/svg">
<path d="M8.2 0.75713C8.39257 0.612701 8.63078 0.542582 8.87089 0.559646C9.111 0.57671 9.3369 0.679811 9.50711 0.850023C9.67732 1.02023 9.78042 1.24613 9.79749 1.48624C9.81455 1.72635 9.74443 1.96456 9.6 2.15713L5.6 6.15713C5.41307 6.34036 5.16175 6.44299 4.9 6.44299C4.63825 6.44299 4.38693 6.34036 4.2 6.15713L0.200002 2.15713C0.0555725 1.96456 -0.014547 1.72635 0.00251711 1.48624C0.0195812 1.24613 0.122683 1.02023 0.292895 0.850023C0.463106 0.679811 0.689003 0.57671 0.929112 0.559646C1.16922 0.542582 1.40743 0.612701 1.6 0.75713L4.9 4.04713L8.2 0.74713V0.75713Z" fill="#0070F4"/>
</svg>
