<svg width="34" height="34" viewBox="0 0 34 34" fill="none" xmlns="http://www.w3.org/2000/svg">
<rect x="1" y="1" width="32" height="32" rx="16" stroke="#3C3C43" stroke-opacity="0.6"/>
<path d="M16.9981 14.6657C15.7128 14.6657 14.6638 15.7146 14.6638 17C14.6638 18.2854 15.7128 19.3343 16.9981 19.3343C18.2835 19.3343 19.3324 18.2854 19.3324 17C19.3324 15.7146 18.2835 14.6657 16.9981 14.6657ZM23.9992 17C23.9992 16.0333 24.008 15.0754 23.9537 14.1105C23.8994 12.9898 23.6437 11.9951 22.8242 11.1756C22.0029 10.3543 21.01 10.1003 19.8893 10.0461C18.9226 9.99176 17.9648 10.0005 16.9999 10.0005C16.0332 10.0005 15.0754 9.99176 14.1105 10.0461C12.9897 10.1003 11.9951 10.356 11.1755 11.1756C10.3543 11.9969 10.1003 12.9898 10.0461 14.1105C9.99177 15.0772 10.0005 16.0351 10.0005 17C10.0005 17.9649 9.99177 18.9246 10.0461 19.8895C10.1003 21.0102 10.356 22.0049 11.1755 22.8244C11.9968 23.6457 12.9897 23.8997 14.1105 23.9539C15.0771 24.0082 16.035 23.9995 16.9999 23.9995C17.9665 23.9995 18.9244 24.0082 19.8893 23.9539C21.01 23.8997 22.0047 23.644 22.8242 22.8244C23.6455 22.0031 23.8994 21.0102 23.9537 19.8895C24.0097 18.9246 23.9992 17.9667 23.9992 17ZM16.9981 20.5917C15.0106 20.5917 13.4065 18.9876 13.4065 17C13.4065 15.0124 15.0106 13.4083 16.9981 13.4083C18.9857 13.4083 20.5897 15.0124 20.5897 17C20.5897 18.9876 18.9857 20.5917 16.9981 20.5917ZM20.7368 14.1C20.2728 14.1 19.898 13.7253 19.898 13.2612C19.898 12.7972 20.2728 12.4224 20.7368 12.4224C21.2009 12.4224 21.5756 12.7972 21.5756 13.2612C21.5758 13.3714 21.5542 13.4806 21.5121 13.5824C21.47 13.6842 21.4082 13.7767 21.3303 13.8547C21.2523 13.9326 21.1598 13.9944 21.058 14.0365C20.9562 14.0786 20.847 14.1002 20.7368 14.1Z" fill="#3C3C43" fill-opacity="0.6"/>
</svg>
