<svg width="34" height="34" viewBox="0 0 34 34" fill="none" xmlns="http://www.w3.org/2000/svg">
<rect x="1" y="1" width="32" height="32" rx="16" stroke="#3C3C43" stroke-opacity="0.6"/>
<path d="M8.00439 12.198L17.001 16.8623L25.9976 12.198C25.9643 11.6035 25.7131 11.0447 25.2954 10.6361C24.8778 10.2275 24.3252 9.99989 23.751 10H10.251C9.6768 9.99989 9.12427 10.2275 8.70659 10.6361C8.28892 11.0447 8.0377 11.6035 8.00439 12.198Z" fill="#3C3C43" fill-opacity="0.6"/>
<path d="M26 14.8044L17 19.471L8 14.8044V21.6667C8 22.2855 8.23705 22.879 8.65901 23.3166C9.08097 23.7542 9.65326 24 10.25 24H23.75C24.3467 24 24.919 23.7542 25.341 23.3166C25.7629 22.879 26 22.2855 26 21.6667V14.8044Z" fill="#3C3C43" fill-opacity="0.6"/>
</svg>
