<svg width="21" height="21" viewBox="0 0 21 21" fill="none" xmlns="http://www.w3.org/2000/svg">
<path d="M16.625 7.87488C16.625 9.14363 16.2488 10.3074 15.6013 11.2786C14.6563 12.6786 13.16 13.6674 11.4188 13.9211C11.1213 13.9736 10.815 13.9999 10.5 13.9999C10.185 13.9999 9.87875 13.9736 9.58125 13.9211C7.84 13.6674 6.34375 12.6786 5.39875 11.2786C4.75125 10.3074 4.375 9.14363 4.375 7.87488C4.375 4.48863 7.11375 1.74988 10.5 1.74988C13.8863 1.74988 16.625 4.48863 16.625 7.87488Z" fill="#D3D3D3"/>
<path d="M18.5961 16.1612L17.1524 16.5025C16.8286 16.5812 16.5749 16.8262 16.5049 17.15L16.1986 18.4362C16.0324 19.1362 15.1399 19.3462 14.6761 18.795L10.5024 14L6.32864 18.8037C5.86489 19.355 4.97239 19.145 4.80614 18.445L4.49989 17.1587C4.42114 16.835 4.16739 16.5812 3.85239 16.5112L2.40864 16.17C1.74364 16.0125 1.50739 15.1812 1.98864 14.7L5.40114 11.2875C6.34614 12.6875 7.84239 13.6762 9.58364 13.93C9.88114 13.9825 10.1874 14.0087 10.5024 14.0087C10.8174 14.0087 11.1236 13.9825 11.4211 13.93C13.1624 13.6762 14.6586 12.6875 15.6036 11.2875L19.0161 14.7C19.4974 15.1725 19.2611 16.0037 18.5961 16.1612Z" fill="#0070F4"/>
<path d="M11.0092 5.2325L11.5254 6.26499C11.5954 6.40499 11.7792 6.545 11.9454 6.57125L12.8817 6.72874C13.4767 6.82499 13.6167 7.2625 13.1879 7.69125L12.4617 8.41749C12.3392 8.53999 12.2692 8.77625 12.3129 8.95125L12.5229 9.8525C12.6892 10.5612 12.3129 10.8412 11.6829 10.465L10.8079 9.94874C10.6504 9.85249 10.3879 9.85249 10.2304 9.94874L9.35543 10.465C8.72543 10.8325 8.34918 10.5612 8.51543 9.8525L8.72544 8.95125C8.76044 8.785 8.69919 8.53999 8.57669 8.41749L7.85044 7.69125C7.42169 7.2625 7.56168 6.83374 8.15668 6.72874L9.09294 6.57125C9.25044 6.545 9.43418 6.40499 9.50418 6.26499L10.0204 5.2325C10.2742 4.6725 10.7292 4.6725 11.0092 5.2325Z" fill="#0070F4"/>
</svg>
