<svg width="30" height="30" viewBox="0 0 30 30" fill="none" xmlns="http://www.w3.org/2000/svg">
<path d="M23.9016 11.4C23.4141 11.4 23.0266 11.7875 23.0266 12.275V14.25C23.0266 18.675 19.4266 22.275 15.0016 22.275C10.5766 22.275 6.97656 18.675 6.97656 14.25V12.2625C6.97656 11.775 6.58906 11.3875 6.10156 11.3875C5.61406 11.3875 5.22656 11.775 5.22656 12.2625V14.2375C5.22656 19.325 9.13906 23.5125 14.1266 23.9625V26.625C14.1266 27.1125 14.5141 27.5 15.0016 27.5C15.4891 27.5 15.8766 27.1125 15.8766 26.625V23.9625C20.8516 23.525 24.7766 19.325 24.7766 14.2375V12.2625C24.7641 11.7875 24.3766 11.4 23.9016 11.4Z" fill="#0070F4"/>
<path d="M14.9938 2.5C11.9437 2.5 9.46875 4.975 9.46875 8.025V14.425C9.46875 17.475 11.9437 19.95 14.9938 19.95C18.0437 19.95 20.5188 17.475 20.5188 14.425V8.025C20.5188 4.975 18.0437 2.5 14.9938 2.5ZM16.6313 11.1875C16.5438 11.5125 16.2562 11.725 15.9313 11.725C15.8688 11.725 15.8063 11.7125 15.7438 11.7C15.2563 11.5625 14.7438 11.5625 14.2562 11.7C13.8562 11.8125 13.4687 11.575 13.3687 11.1875C13.2562 10.8 13.4937 10.4 13.8812 10.3C14.6187 10.1 15.3937 10.1 16.1312 10.3C16.5062 10.4 16.7313 10.8 16.6313 11.1875ZM17.2938 8.7625C17.1813 9.0625 16.9062 9.2375 16.6062 9.2375C16.5188 9.2375 16.4438 9.225 16.3563 9.2C15.4813 8.875 14.5062 8.875 13.6312 9.2C13.2562 9.3375 12.8312 9.1375 12.6937 8.7625C12.5562 8.3875 12.7563 7.9625 13.1313 7.8375C14.3313 7.4 15.6562 7.4 16.8562 7.8375C17.2312 7.975 17.4313 8.3875 17.2938 8.7625Z" fill="#0070F4"/>
</svg>
