<svg width="209" height="23" viewBox="0 0 209 23" fill="none" xmlns="http://www.w3.org/2000/svg">
<path d="M23.87 0.76V1.36C23.19 1.38 22.67 1.46 22.31 1.6C21.97 1.72 21.74 1.96 21.62 2.32C21.5 2.66 21.44 3.2 21.44 3.94V18.82C21.44 19.54 21.5 20.08 21.62 20.44C21.74 20.8 21.97 21.04 22.31 21.16C22.67 21.28 23.19 21.36 23.87 21.4V22C23.41 21.96 22.83 21.94 22.13 21.94C21.45 21.92 20.76 21.91 20.06 21.91C19.28 21.91 18.55 21.92 17.87 21.94C17.19 21.94 16.64 21.96 16.22 22V21.4C16.9 21.36 17.41 21.28 17.75 21.16C18.11 21.04 18.35 20.8 18.47 20.44C18.59 20.08 18.65 19.54 18.65 18.82V2.32L18.77 2.41L11.42 22.15H10.94L3.38 2.68V18.52C3.38 19.24 3.44 19.81 3.56 20.23C3.7 20.63 3.96 20.92 4.34 21.1C4.74 21.26 5.33 21.36 6.11 21.4V22C5.75 21.96 5.28 21.94 4.7 21.94C4.12 21.92 3.57 21.91 3.05 21.91C2.55 21.91 2.04 21.92 1.52 21.94C1.02 21.94 0.6 21.96 0.26 22V21.4C0.94 21.36 1.45 21.26 1.79 21.1C2.15 20.92 2.39 20.63 2.51 20.23C2.63 19.81 2.69 19.24 2.69 18.52V3.94C2.69 3.2 2.63 2.66 2.51 2.32C2.39 1.96 2.15 1.72 1.79 1.6C1.45 1.46 0.94 1.38 0.26 1.36V0.76C0.6 0.78 1.02 0.799999 1.52 0.819999C2.04 0.839999 2.55 0.849999 3.05 0.849999C3.49 0.849999 3.94 0.839999 4.4 0.819999C4.88 0.799999 5.28 0.78 5.6 0.76L12.41 18.7L11.9 18.94L18.65 0.849999C18.89 0.849999 19.12 0.849999 19.34 0.849999C19.58 0.849999 19.82 0.849999 20.06 0.849999C20.76 0.849999 21.45 0.839999 22.13 0.819999C22.83 0.799999 23.41 0.78 23.87 0.76ZM43.7335 0.339998C45.6335 0.339998 47.2935 0.769999 48.7135 1.63C50.1535 2.49 51.2635 3.73 52.0435 5.35C52.8435 6.95 53.2435 8.9 53.2435 11.2C53.2435 13.44 52.8335 15.4 52.0135 17.08C51.2135 18.76 50.0935 20.07 48.6535 21.01C47.2135 21.95 45.5635 22.42 43.7035 22.42C41.8035 22.42 40.1335 21.99 38.6935 21.13C37.2735 20.27 36.1635 19.03 35.3635 17.41C34.5835 15.79 34.1935 13.84 34.1935 11.56C34.1935 9.32 34.6035 7.36 35.4235 5.68C36.2435 4 37.3635 2.69 38.7835 1.75C40.2235 0.809999 41.8735 0.339998 43.7335 0.339998ZM43.6135 0.879998C42.3135 0.879998 41.1835 1.33 40.2235 2.23C39.2635 3.13 38.5135 4.37 37.9735 5.95C37.4535 7.53 37.1935 9.36 37.1935 11.44C37.1935 13.56 37.4835 15.41 38.0635 16.99C38.6635 18.55 39.4635 19.76 40.4635 20.62C41.4835 21.46 42.6035 21.88 43.8235 21.88C45.1235 21.88 46.2535 21.43 47.2135 20.53C48.1735 19.63 48.9135 18.39 49.4335 16.81C49.9735 15.21 50.2435 13.38 50.2435 11.32C50.2435 9.18 49.9435 7.33 49.3435 5.77C48.7635 4.21 47.9735 3.01 46.9735 2.17C45.9735 1.31 44.8535 0.879998 43.6135 0.879998ZM71.7605 0.76C75.3405 0.76 78.0005 1.66 79.7405 3.46C81.4805 5.24 82.3505 7.8 82.3505 11.14C82.3505 13.32 81.9205 15.23 81.0605 16.87C80.2205 18.49 78.9905 19.75 77.3705 20.65C75.7505 21.55 73.7905 22 71.4905 22C71.1905 22 70.7905 21.99 70.2905 21.97C69.7905 21.95 69.2705 21.94 68.7305 21.94C68.2105 21.92 67.7305 21.91 67.2905 21.91C66.5905 21.91 65.9005 21.92 65.2205 21.94C64.5405 21.94 63.9905 21.96 63.5705 22V21.4C64.2505 21.36 64.7605 21.28 65.1005 21.16C65.4605 21.04 65.7005 20.8 65.8205 20.44C65.9405 20.08 66.0005 19.54 66.0005 18.82V3.94C66.0005 3.2 65.9405 2.66 65.8205 2.32C65.7005 1.96 65.4605 1.72 65.1005 1.6C64.7605 1.46 64.2505 1.38 63.5705 1.36V0.76C63.9905 0.78 64.5405 0.809999 65.2205 0.849999C65.9005 0.869998 66.5705 0.869998 67.2305 0.849999C67.9305 0.829999 68.7205 0.809999 69.6005 0.789999C70.4805 0.77 71.2005 0.76 71.7605 0.76ZM71.0105 1.3C70.0905 1.3 69.4905 1.47 69.2105 1.81C68.9305 2.15 68.7905 2.84 68.7905 3.88V18.88C68.7905 19.92 68.9305 20.61 69.2105 20.95C69.5105 21.29 70.1205 21.46 71.0405 21.46C73.2205 21.46 74.9105 21.07 76.1105 20.29C77.3105 19.49 78.1505 18.33 78.6305 16.81C79.1105 15.29 79.3505 13.44 79.3505 11.26C79.3505 9.02 79.0805 7.17 78.5405 5.71C78.0205 4.23 77.1505 3.13 75.9305 2.41C74.7305 1.67 73.0905 1.3 71.0105 1.3ZM107.691 0.76C107.611 1.46 107.551 2.14 107.511 2.8C107.491 3.46 107.481 3.96 107.481 4.3C107.481 4.66 107.491 5.01 107.511 5.35C107.531 5.67 107.551 5.94 107.571 6.16H106.881C106.761 4.98 106.591 4.05 106.371 3.37C106.151 2.67 105.771 2.18 105.231 1.9C104.711 1.6 103.921 1.45 102.861 1.45H100.371C99.6909 1.45 99.1709 1.51 98.8109 1.63C98.4709 1.73 98.2409 1.96 98.1209 2.32C98.0009 2.66 97.9409 3.2 97.9409 3.94V18.82C97.9409 19.54 98.0009 20.08 98.1209 20.44C98.2409 20.8 98.4709 21.04 98.8109 21.16C99.1709 21.26 99.6909 21.31 100.371 21.31H102.561C103.821 21.31 104.771 21.14 105.411 20.8C106.071 20.46 106.541 19.91 106.821 19.15C107.121 18.37 107.341 17.32 107.481 16H108.171C108.111 16.54 108.081 17.26 108.081 18.16C108.081 18.54 108.091 19.09 108.111 19.81C108.151 20.51 108.211 21.24 108.291 22C107.271 21.96 106.121 21.94 104.841 21.94C103.561 21.92 102.421 21.91 101.421 21.91C100.981 21.91 100.411 21.91 99.7109 21.91C99.0309 21.91 98.2909 21.92 97.4909 21.94C96.6909 21.94 95.8809 21.95 95.0609 21.97C94.2409 21.97 93.4609 21.98 92.7209 22V21.4C93.4009 21.36 93.9109 21.28 94.2509 21.16C94.6109 21.04 94.8509 20.8 94.9709 20.44C95.0909 20.08 95.1509 19.54 95.1509 18.82V3.94C95.1509 3.2 95.0909 2.66 94.9709 2.32C94.8509 1.96 94.6109 1.72 94.2509 1.6C93.9109 1.46 93.4009 1.38 92.7209 1.36V0.76C93.4609 0.78 94.2409 0.799999 95.0609 0.819999C95.8809 0.819999 96.6909 0.829999 97.4909 0.849999C98.2909 0.849999 99.0309 0.849999 99.7109 0.849999C100.411 0.849999 100.981 0.849999 101.421 0.849999C102.341 0.849999 103.381 0.849999 104.541 0.849999C105.721 0.829999 106.771 0.799999 107.691 0.76ZM102.531 11.02C102.531 11.02 102.531 11.12 102.531 11.32C102.531 11.52 102.531 11.62 102.531 11.62H97.0409C97.0409 11.62 97.0409 11.52 97.0409 11.32C97.0409 11.12 97.0409 11.02 97.0409 11.02H102.531ZM103.401 7.06C103.321 8.2 103.281 9.07 103.281 9.67C103.301 10.27 103.311 10.82 103.311 11.32C103.311 11.82 103.321 12.37 103.341 12.97C103.361 13.57 103.411 14.44 103.491 15.58H102.801C102.721 14.94 102.621 14.32 102.501 13.72C102.401 13.1 102.161 12.6 101.781 12.22C101.421 11.82 100.801 11.62 99.9209 11.62V11.02C100.581 11.02 101.081 10.89 101.421 10.63C101.781 10.35 102.041 10 102.201 9.58C102.361 9.16 102.471 8.73 102.531 8.29C102.591 7.83 102.651 7.42 102.711 7.06H103.401ZM126.123 0.76V1.36C125.443 1.38 124.923 1.46 124.563 1.6C124.223 1.72 123.993 1.96 123.873 2.32C123.753 2.66 123.693 3.2 123.693 3.94V18.82C123.693 19.54 123.753 20.08 123.873 20.44C123.993 20.8 124.223 21.04 124.563 21.16C124.923 21.26 125.443 21.31 126.123 21.31H128.313C129.253 21.31 130.013 21.21 130.593 21.01C131.193 20.81 131.663 20.5 132.003 20.08C132.363 19.64 132.633 19.06 132.813 18.34C132.993 17.62 133.133 16.74 133.233 15.7H133.923C133.863 16.32 133.833 17.14 133.833 18.16C133.833 18.54 133.843 19.09 133.863 19.81C133.903 20.51 133.963 21.24 134.043 22C133.023 21.96 131.873 21.94 130.593 21.94C129.313 21.92 128.173 21.91 127.173 21.91C126.733 21.91 126.163 21.91 125.463 21.91C124.783 21.91 124.043 21.92 123.243 21.94C122.443 21.94 121.633 21.95 120.813 21.97C119.993 21.97 119.213 21.98 118.473 22V21.4C119.153 21.36 119.663 21.28 120.003 21.16C120.363 21.04 120.603 20.8 120.723 20.44C120.843 20.08 120.903 19.54 120.903 18.82V3.94C120.903 3.2 120.843 2.66 120.723 2.32C120.603 1.96 120.363 1.72 120.003 1.6C119.663 1.46 119.153 1.38 118.473 1.36V0.76C118.893 0.78 119.443 0.799999 120.123 0.819999C120.803 0.839999 121.533 0.849999 122.313 0.849999C123.013 0.849999 123.703 0.839999 124.383 0.819999C125.083 0.799999 125.663 0.78 126.123 0.76ZM151.23 0.76V1.36C150.55 1.38 150.03 1.46 149.67 1.6C149.33 1.72 149.1 1.96 148.98 2.32C148.86 2.66 148.8 3.2 148.8 3.94V18.82C148.8 19.54 148.86 20.08 148.98 20.44C149.1 20.8 149.33 21.04 149.67 21.16C150.03 21.28 150.55 21.36 151.23 21.4V22C150.77 21.96 150.19 21.94 149.49 21.94C148.81 21.92 148.12 21.91 147.42 21.91C146.64 21.91 145.91 21.92 145.23 21.94C144.55 21.94 144 21.96 143.58 22V21.4C144.26 21.36 144.77 21.28 145.11 21.16C145.47 21.04 145.71 20.8 145.83 20.44C145.95 20.08 146.01 19.54 146.01 18.82V3.94C146.01 3.2 145.95 2.66 145.83 2.32C145.71 1.96 145.47 1.72 145.11 1.6C144.77 1.46 144.26 1.38 143.58 1.36V0.76C144 0.78 144.55 0.799999 145.23 0.819999C145.91 0.839999 146.64 0.849999 147.42 0.849999C148.12 0.849999 148.81 0.839999 149.49 0.819999C150.19 0.799999 150.77 0.78 151.23 0.76ZM180.057 0.76V1.36C179.377 1.38 178.857 1.48 178.497 1.66C178.157 1.84 177.927 2.13 177.807 2.53C177.687 2.93 177.627 3.5 177.627 4.24V22.15C177.507 22.15 177.387 22.15 177.267 22.15C177.167 22.15 177.057 22.15 176.937 22.15L164.337 2.68V18.52C164.337 19.24 164.397 19.81 164.517 20.23C164.657 20.63 164.917 20.92 165.297 21.1C165.697 21.26 166.287 21.36 167.067 21.4V22C166.707 21.96 166.237 21.94 165.657 21.94C165.077 21.92 164.527 21.91 164.007 21.91C163.507 21.91 162.997 21.92 162.477 21.94C161.977 21.94 161.557 21.96 161.217 22V21.4C161.897 21.36 162.407 21.26 162.747 21.1C163.107 20.92 163.347 20.63 163.467 20.23C163.587 19.81 163.647 19.24 163.647 18.52V3.94C163.647 3.2 163.587 2.66 163.467 2.32C163.347 1.96 163.107 1.72 162.747 1.6C162.407 1.46 161.897 1.38 161.217 1.36V0.76C161.557 0.78 161.977 0.799999 162.477 0.819999C162.997 0.839999 163.507 0.849999 164.007 0.849999C164.447 0.849999 164.867 0.839999 165.267 0.819999C165.667 0.799999 166.027 0.78 166.347 0.76L176.937 17.08V4.24C176.937 3.5 176.867 2.93 176.727 2.53C176.607 2.13 176.347 1.84 175.947 1.66C175.567 1.48 174.987 1.38 174.207 1.36V0.76C174.567 0.78 175.037 0.799999 175.617 0.819999C176.217 0.839999 176.767 0.849999 177.267 0.849999C177.787 0.849999 178.297 0.839999 178.797 0.819999C179.317 0.799999 179.737 0.78 180.057 0.76ZM199.889 0.339998C201.189 0.339998 202.239 0.539999 203.039 0.939999C203.839 1.32 204.589 1.77 205.289 2.29C205.549 2.49 205.749 2.59 205.889 2.59C206.269 2.59 206.519 1.98 206.639 0.76H207.329C207.289 1.5 207.259 2.4 207.239 3.46C207.219 4.52 207.209 5.92 207.209 7.66H206.519C206.379 6.82 206.209 6.01 206.009 5.23C205.809 4.45 205.479 3.78 205.019 3.22C204.439 2.48 203.679 1.91 202.739 1.51C201.799 1.09 200.829 0.879998 199.829 0.879998C198.829 0.879998 197.919 1.13 197.099 1.63C196.299 2.11 195.609 2.81 195.029 3.73C194.449 4.65 193.999 5.76 193.679 7.06C193.379 8.34 193.229 9.79 193.229 11.41C193.229 15.01 193.809 17.65 194.969 19.33C196.129 20.99 197.929 21.82 200.369 21.82C201.089 21.82 201.709 21.72 202.229 21.52C202.769 21.3 203.189 21.09 203.489 20.89C203.869 20.63 204.109 20.39 204.209 20.17C204.309 19.93 204.359 19.62 204.359 19.24V16.36C204.359 15.54 204.279 14.93 204.119 14.53C203.959 14.13 203.659 13.86 203.219 13.72C202.799 13.58 202.169 13.5 201.329 13.48V12.88C201.689 12.9 202.109 12.92 202.589 12.94C203.069 12.94 203.569 12.95 204.089 12.97C204.629 12.97 205.119 12.97 205.559 12.97C206.219 12.97 206.809 12.96 207.329 12.94C207.869 12.92 208.319 12.9 208.679 12.88V13.48C208.239 13.5 207.909 13.57 207.689 13.69C207.469 13.81 207.319 14.05 207.239 14.41C207.179 14.77 207.149 15.32 207.149 16.06V22H206.549C206.529 21.66 206.449 21.29 206.309 20.89C206.189 20.49 205.999 20.29 205.739 20.29C205.619 20.29 205.499 20.32 205.379 20.38C205.259 20.44 205.049 20.58 204.749 20.8C204.089 21.3 203.389 21.7 202.649 22C201.909 22.28 201.049 22.42 200.069 22.42C198.009 22.42 196.239 22 194.759 21.16C193.299 20.3 192.179 19.07 191.399 17.47C190.619 15.87 190.229 13.96 190.229 11.74C190.229 9.4 190.649 7.38 191.489 5.68C192.329 3.98 193.469 2.67 194.909 1.75C196.369 0.809999 198.029 0.339998 199.889 0.339998Z" fill="black"/>
</svg>
