<svg width="34" height="34" viewBox="0 0 34 34" fill="none" xmlns="http://www.w3.org/2000/svg">
<rect x="1" y="1" width="32" height="32" rx="16" stroke="#3C3C43" stroke-opacity="0.6"/>
<path d="M12 17.5C12 18.163 11.7366 18.7989 11.2678 19.2678C10.7989 19.7366 10.163 20 9.5 20C8.83696 20 8.20107 19.7366 7.73223 19.2678C7.26339 18.7989 7 18.163 7 17.5C7 16.837 7.26339 16.2011 7.73223 15.7322C8.20107 15.2634 8.83696 15 9.5 15C10.163 15 10.7989 15.2634 11.2678 15.7322C11.7366 16.2011 12 16.837 12 17.5ZM19.5 17.5C19.5 18.163 19.2366 18.7989 18.7678 19.2678C18.2989 19.7366 17.663 20 17 20C16.337 20 15.7011 19.7366 15.2322 19.2678C14.7634 18.7989 14.5 18.163 14.5 17.5C14.5 16.837 14.7634 16.2011 15.2322 15.7322C15.7011 15.2634 16.337 15 17 15C17.663 15 18.2989 15.2634 18.7678 15.7322C19.2366 16.2011 19.5 16.837 19.5 17.5ZM24.5 20C25.163 20 25.7989 19.7366 26.2678 19.2678C26.7366 18.7989 27 18.163 27 17.5C27 16.837 26.7366 16.2011 26.2678 15.7322C25.7989 15.2634 25.163 15 24.5 15C23.837 15 23.2011 15.2634 22.7322 15.7322C22.2634 16.2011 22 16.837 22 17.5C22 18.163 22.2634 18.7989 22.7322 19.2678C23.2011 19.7366 23.837 20 24.5 20Z" fill="#3C3C43" fill-opacity="0.6"/>
</svg>
