<svg width="116" height="119" viewBox="0 0 116 119" fill="none" xmlns="http://www.w3.org/2000/svg">
<path d="M80.751 62.1135C80.1577 62.1135 79.6014 61.9281 79.0823 61.5572C77.8585 60.6301 77.5989 58.8872 78.526 57.6635C84.3481 49.9131 84.3481 39.0847 78.526 31.3343C77.5989 30.1106 77.8585 28.3676 79.0823 27.4406C80.306 26.5135 82.0489 26.7731 82.976 27.9968C90.2443 37.7126 90.2443 51.2852 82.976 61.001C82.4198 61.7426 81.6039 62.1135 80.751 62.1135Z" fill="#C8C8CD"/>
<path d="M87.5323 71.3846C86.9389 71.3846 86.3827 71.1992 85.8635 70.8284C84.6398 69.9013 84.3802 68.1584 85.3073 66.9346C95.2085 53.733 95.2085 35.2655 85.3073 22.0638C84.3802 20.8401 84.6398 19.0971 85.8635 18.1701C87.0873 17.243 88.8302 17.5026 89.7573 18.7263C101.142 33.8934 101.142 55.1051 89.7573 70.2721C89.2381 71.0138 88.3852 71.3846 87.5323 71.3846Z" fill="#C8C8CD"/>
<path d="M65.996 14.0183C61.8427 11.7192 56.5398 12.3125 51.1256 15.6871L40.2973 22.4733C39.5556 22.9183 38.7027 23.1779 37.8498 23.1779H34.401H32.5469C23.5727 23.1779 18.6406 28.11 18.6406 37.0842V51.9175C18.6406 60.8917 23.5727 65.8238 32.5469 65.8238H34.401H37.8498C38.7027 65.8238 39.5556 66.0833 40.2973 66.5283L51.1256 73.3146C54.389 75.3542 57.5781 76.3554 60.5448 76.3554C62.4731 76.3554 64.3273 75.9104 65.996 74.9833C70.1123 72.6842 72.4115 67.9004 72.4115 61.5221V27.4796C72.4115 21.1013 70.1123 16.3175 65.996 14.0183Z" fill="#C8C8CD"/>
<path d="M8.61913 108.6H5.78713V105.8H4.07513V108.6H1.24313V110.2H4.07513V113H5.78713V110.2H8.61913V108.6ZM19.0385 115.16C22.1105 115.16 23.5665 113.624 23.5665 111.832C23.5665 107.72 16.9265 109.272 16.9265 106.888C16.9265 106.04 17.6305 105.368 19.3585 105.368C20.3345 105.368 21.4385 105.656 22.4465 106.248L23.1025 104.632C22.1265 103.992 20.7185 103.64 19.3745 103.64C16.3025 103.64 14.8625 105.176 14.8625 106.984C14.8625 111.144 21.5185 109.56 21.5185 111.976C21.5185 112.808 20.7825 113.432 19.0385 113.432C17.6625 113.432 16.2385 112.92 15.3425 112.2L14.6225 113.816C15.5505 114.616 17.2945 115.16 19.0385 115.16ZM33.469 110.776C33.469 108.104 31.645 106.36 29.149 106.36C26.605 106.36 24.733 108.184 24.733 110.728C24.733 113.272 26.589 115.112 29.453 115.112C30.925 115.112 32.125 114.632 32.893 113.72L31.821 112.488C31.213 113.112 30.461 113.416 29.501 113.416C28.013 113.416 26.973 112.616 26.733 111.368H33.437C33.453 111.176 33.469 110.936 33.469 110.776ZM29.149 107.96C30.461 107.96 31.405 108.808 31.565 110.04H26.717C26.909 108.792 27.853 107.96 29.149 107.96ZM35.3901 115H37.3901V103.128H35.3901V115ZM48.0471 110.776C48.0471 108.104 46.2231 106.36 43.7271 106.36C41.1831 106.36 39.3111 108.184 39.3111 110.728C39.3111 113.272 41.1671 115.112 44.0311 115.112C45.5031 115.112 46.7031 114.632 47.4711 113.72L46.3991 112.488C45.7911 113.112 45.0391 113.416 44.0791 113.416C42.5911 113.416 41.5511 112.616 41.3111 111.368H48.0151C48.0311 111.176 48.0471 110.936 48.0471 110.776ZM43.7271 107.96C45.0391 107.96 45.9831 108.808 46.1431 110.04H41.2951C41.4871 108.792 42.4311 107.96 43.7271 107.96ZM53.8883 115.112C55.5523 115.112 56.8802 114.392 57.5363 113.112L56.0003 112.216C55.4883 113.032 54.7203 113.4 53.8723 113.4C52.4003 113.4 51.2803 112.392 51.2803 110.728C51.2803 109.08 52.4003 108.056 53.8723 108.056C54.7203 108.056 55.4883 108.424 56.0003 109.24L57.5363 108.344C56.8802 107.048 55.5523 106.36 53.8883 106.36C51.1843 106.36 49.2643 108.168 49.2643 110.728C49.2643 113.288 51.1843 115.112 53.8883 115.112ZM63.9505 113.112C63.6465 113.352 63.2465 113.464 62.8305 113.464C62.0625 113.464 61.6465 113.016 61.6465 112.184V108.12H63.9345V106.52H61.6465V104.568H59.6465V106.52H58.2385V108.12H59.6465V112.232C59.6465 114.12 60.7185 115.112 62.5905 115.112C63.3105 115.112 64.0305 114.92 64.5105 114.536L63.9505 113.112ZM73.8416 106.36C72.4656 106.36 71.1376 106.712 70.2256 107.416L71.0096 108.872C71.6496 108.344 72.6416 108.024 73.6016 108.024C75.0256 108.024 75.7296 108.712 75.7296 109.88V110.008H73.5216C70.9296 110.008 69.9696 111.128 69.9696 112.552C69.9696 114.04 71.2016 115.112 73.1536 115.112C74.4336 115.112 75.3616 114.696 75.8416 113.96V115H77.7296V109.992C77.7296 107.528 76.3056 106.36 73.8416 106.36ZM73.5696 113.656C72.5456 113.656 71.9376 113.192 71.9376 112.472C71.9376 111.848 72.3056 111.336 73.6656 111.336H75.7296V112.328C75.3936 113.208 74.5456 113.656 73.5696 113.656ZM86.5684 106.456V110.776C86.5684 112.488 85.6244 113.352 84.2324 113.352C82.9684 113.352 82.2324 112.616 82.2324 111.064V106.456H80.2324V111.336C80.2324 113.912 81.7204 115.112 83.9124 115.112C85.0164 115.112 86.0244 114.696 86.6644 113.912V115H88.5684V106.456H86.5684ZM97.555 103.128V107.512C96.883 106.728 95.907 106.36 94.803 106.36C92.323 106.36 90.483 108.072 90.483 110.728C90.483 113.384 92.323 115.112 94.803 115.112C95.971 115.112 96.963 114.712 97.635 113.896V115H99.555V103.128H97.555ZM95.043 113.4C93.603 113.4 92.499 112.36 92.499 110.728C92.499 109.096 93.603 108.056 95.043 108.056C96.483 108.056 97.587 109.096 97.587 110.728C97.587 112.36 96.483 113.4 95.043 113.4ZM103.179 105.048C103.931 105.048 104.459 104.504 104.459 103.8C104.459 103.144 103.915 102.648 103.179 102.648C102.443 102.648 101.899 103.176 101.899 103.848C101.899 104.52 102.443 105.048 103.179 105.048ZM102.171 115H104.171V106.456H102.171V115ZM110.636 115.112C113.292 115.112 115.196 113.288 115.196 110.728C115.196 108.168 113.292 106.36 110.636 106.36C108.012 106.36 106.092 108.168 106.092 110.728C106.092 113.288 108.012 115.112 110.636 115.112ZM110.636 113.4C109.196 113.4 108.108 112.36 108.108 110.728C108.108 109.096 109.196 108.056 110.636 108.056C112.092 108.056 113.18 109.096 113.18 110.728C113.18 112.36 112.092 113.4 110.636 113.4Z" fill="#0070F4"/>
</svg>
