<svg width="106" height="95" viewBox="0 0 106 95" fill="none" xmlns="http://www.w3.org/2000/svg">
<path d="M10.3994 48.0547L0.762136 64.8898C-0.894266 67.7809 0.238124 71.0456 3.29795 72.184L60.4769 93.4461C62.0474 93.9656 63.7481 93.9336 65.2979 93.3553C66.8477 92.777 68.1537 91.6871 68.9999 90.2658L78.6371 73.4308L10.3994 48.0547Z" fill="url(#paint0_linear_2105_42114)"/>
<path d="M101.563 21.6312C104.616 22.7696 105.779 26.0342 104.092 28.9254L78.644 73.4254L10.4062 48.0433L35.8546 3.54327C36.7028 2.12258 38.0103 1.03372 39.561 0.456581C41.1117 -0.120558 42.8129 -0.151443 44.3836 0.369011L101.563 21.6312Z" fill="url(#paint1_linear_2105_42114)"/>
<path style="mix-blend-mode:overlay" d="M101.562 21.6312L44.3827 0.369011C42.8121 -0.151443 41.1109 -0.120558 39.5602 0.456581C38.0094 1.03372 36.702 2.12258 35.8538 3.54327L10.4054 48.0433L10.6765 48.1577L10.3994 48.0553L0.762136 64.8904C-0.894266 67.7815 0.238124 71.0462 3.29795 72.1846L60.4769 93.4467C62.0474 93.9663 63.7481 93.9342 65.2979 93.3559C66.8476 92.7777 68.1536 91.6878 68.9999 90.2665L78.6371 73.4314L78.5468 73.4013H78.6431L104.091 28.9013C105.748 26.0342 104.616 22.7696 101.562 21.6312ZM103.935 28.829L78.4805 73.329L78.5709 73.2929L78.5227 73.4555L78.4805 73.341L68.8433 90.2062C68.2099 91.2671 67.3117 92.1451 66.2368 92.7544C65.1619 93.3636 63.9471 93.6831 62.7116 93.6816C61.9739 93.6861 61.2413 93.5576 60.5492 93.3022L3.37023 72.04C2.70888 71.8124 2.10583 71.4418 1.60403 70.9546C1.10223 70.4673 0.714009 69.8755 0.467001 69.2211C0.226705 68.5279 0.14365 67.79 0.223868 67.0607C0.304086 66.3315 0.545559 65.6292 0.930787 65.0048L10.4777 48.3023L10.6042 48.3505L10.7427 48.0011L10.6704 47.971L36.0104 3.65772C36.6416 2.59353 37.5387 1.71187 38.6138 1.09937C39.6889 0.486862 40.9048 0.16459 42.1421 0.164222C42.8818 0.159265 43.6164 0.287816 44.3104 0.543692L101.489 21.8059C102.15 22.0346 102.753 22.4056 103.254 22.8927C103.756 23.3798 104.145 23.971 104.393 24.6248C104.629 25.3163 104.711 26.0513 104.631 26.7778C104.552 27.5043 104.315 28.2046 103.935 28.829Z" fill="url(#paint2_linear_2105_42114)"/>
<g style="mix-blend-mode:multiply" opacity="0.8">
<g style="mix-blend-mode:multiply" filter="url(#filter0_f_2105_42114)">
<path d="M69.1005 24.2325C60.3312 21.0129 49.3622 25.052 44.6129 33.2531C39.8636 41.4542 43.1188 50.7206 51.894 53.9402C60.6692 57.1598 71.6382 53.1265 76.3875 44.9196C81.1368 36.7126 77.8757 27.4579 69.1005 24.2325Z" fill="#6F648B"/>
</g>
</g>
<path d="M58.7586 27.7879L59.2946 28.9925C59.235 28.9127 59.1534 28.852 59.0597 28.8179C58.9375 28.7846 58.8085 28.7846 58.6863 28.8179L58.1562 27.6132C58.276 27.5768 58.4039 27.5768 58.5237 27.6132C58.6176 27.6437 58.6997 27.7026 58.7586 27.7819" fill="#70166B"/>
<path d="M58.1589 27.5938L58.6889 28.7984L58.5926 28.8285L58.0625 27.6239H58.1589" fill="#74176F"/>
<path d="M58.0627 27.6172L58.5927 28.8218L58.5205 28.852L57.9844 27.6473L58.0627 27.6172Z" fill="#781873"/>
<path d="M57.9842 27.6467L58.5203 28.8513L58.454 28.8814L57.918 27.6768L57.9842 27.6406" fill="#7D1977"/>
<path d="M57.9175 27.6875L58.4536 28.8922L58.3933 28.9343L57.8633 27.7296L57.9175 27.6875Z" fill="#811A7B"/>
<path d="M57.861 27.7266L58.3911 28.9312L58.3369 28.9794L57.8008 27.7748L57.861 27.7326" fill="#851B7F"/>
<path d="M57.8003 27.7716L58.3364 28.9763L58.2822 29.0305L57.7461 27.8258L57.8003 27.7656" fill="#8A1C83"/>
<path d="M57.7477 27.8281L58.2838 29.0328C58.2619 29.0574 58.2417 29.0836 58.2236 29.1111L57.6875 27.9064C57.7061 27.8792 57.7262 27.8531 57.7477 27.8281Z" fill="#8E1C87"/>
<path d="M57.6875 27.9102L58.2236 29.1148V29.1449L57.6935 27.9403" fill="#921D8B"/>
<path d="M75.9442 28.3L76.4803 29.5047C75.667 27.7175 74.5008 26.1132 73.0516 24.7883C71.6025 23.4634 69.9004 22.4452 68.0477 21.7949C64.6209 20.5613 60.9164 20.315 57.3564 21.0841L56.8203 19.8795C60.3808 19.1165 64.0835 19.3627 67.5116 20.5902C69.3657 21.2397 71.0689 22.2582 72.5182 23.5844C73.9676 24.9106 75.1331 26.5168 75.9442 28.306" fill="#616B85"/>
<path d="M56.7963 19.8732L57.3323 21.0779C56.3914 21.2707 55.4639 21.5242 54.5556 21.8368L54.0195 20.6321C54.9276 20.3175 55.8552 20.062 56.7963 19.8672" fill="#656F8A"/>
<path d="M54.0212 20.6406L54.5573 21.8453C53.8044 22.1103 53.0636 22.4115 52.3408 22.7488L51.8047 21.5441C52.5261 21.2018 53.2661 20.9001 54.0212 20.6406Z" fill="#69738F"/>
<path d="M51.779 21.5391L52.3151 22.7437C51.6586 23.0569 51.0141 23.4003 50.3876 23.7737L49.8516 22.569C50.4539 22.1956 51.1225 21.8523 51.779 21.5451" fill="#6C7794"/>
<path d="M49.8742 22.5664L50.4103 23.7711C49.802 24.1317 49.213 24.5237 48.6455 24.9456L48.1094 23.7409C48.7117 23.3193 49.2659 22.9278 49.8742 22.5664Z" fill="#707B99"/>
<path d="M48.1102 23.7404L48.6463 24.945C48.0612 25.3697 47.4983 25.8241 46.9597 26.3063L46.4297 25.1017C46.9605 24.6182 47.5153 24.1619 48.0921 23.7344" fill="#747F9E"/>
<path d="M46.4491 25.0998L46.9791 26.3044C46.4 26.8293 45.8529 27.3885 45.3408 27.9789L44.8047 26.7743C45.3204 26.1833 45.8694 25.6222 46.4491 25.0938" fill="#7883A3"/>
<path d="M44.805 26.7891L45.3411 27.9937C44.7053 28.722 44.1255 29.4971 43.6064 30.3127L43.0703 29.108C43.5898 28.2947 44.1697 27.5216 44.805 26.7951" fill="#7B87A8"/>
<path d="M43.0692 29.0998L43.6053 30.3044C43.4427 30.5514 43.2921 30.8104 43.1415 31.0694C41.4836 33.8608 40.7284 37.0962 40.9792 40.3332L40.4491 39.1285C40.1996 35.8905 40.9524 32.6541 42.6055 29.8587C42.7561 29.5997 42.9126 29.3467 43.0692 29.0938" fill="#7F8BAD"/>
<path d="M40.4492 39.1367L40.9793 40.3414C41.056 41.2015 41.2133 42.0525 41.4491 42.8832L40.913 41.6785C40.6793 40.8476 40.524 39.9966 40.4492 39.1367Z" fill="#7B87A8"/>
<path d="M40.9375 41.6797L41.4736 42.8843C41.6457 43.4885 41.8591 44.0802 42.112 44.6552L41.576 43.4505C41.3239 42.8751 41.1106 42.2835 40.9375 41.6797Z" fill="#7883A3"/>
<path d="M40.9375 41.6758L41.4736 42.8804C41.6457 43.4846 41.8591 44.0763 42.112 44.6513L41.576 43.4466C41.3239 42.8712 41.1106 42.2796 40.9375 41.6758Z" fill="#7883A3"/>
<path d="M57.6778 27.9297L58.2078 29.1464L51.1004 41.5724L50.5703 40.3557L57.6778 27.9297Z" fill="#9D1F95"/>
<path d="M50.5748 40.3594L51.1048 41.564C51.0477 41.6602 51.0224 41.7719 51.0326 41.8833L50.4965 40.6786C50.4925 40.567 50.5196 40.4565 50.5748 40.3594Z" fill="#921D8B"/>
<path d="M50.4922 40.6797L51.0283 41.8843C51.0232 41.9122 51.0232 41.9408 51.0283 41.9687L50.4922 40.764V40.6797Z" fill="#8E1C87"/>
<path d="M50.5117 40.7656L51.0478 41.9703V42.0305L50.5177 40.8259C50.5144 40.8059 50.5144 40.7856 50.5177 40.7656" fill="#8A1C83"/>
<path d="M51.1396 41.1233L51.6697 42.3279C51.5625 42.3469 51.4521 42.3365 51.3504 42.2978C51.2868 42.2754 51.2285 42.2404 51.1788 42.1948C51.1291 42.1493 51.0891 42.0942 51.0613 42.0328L50.5312 40.8281C50.5581 40.8908 50.5977 40.9473 50.6474 40.9939C50.6972 41.0406 50.7561 41.0764 50.8204 41.0992C50.9228 41.1345 51.0323 41.1448 51.1396 41.1293" fill="#767385"/>
<path d="M66.58 38.2334L67.11 39.4441L59.2978 29.0058L58.7617 27.7891L66.58 38.2334Z" fill="#6C1667"/>
<path d="M66.6323 38.3542L67.1624 39.5588C67.1503 39.5237 67.1319 39.491 67.1082 39.4625L66.5781 38.2578L66.6323 38.3482" fill="#70166B"/>
<path d="M66.0542 39.1406L66.5903 40.3513L51.6707 42.333L51.1406 41.1223L66.0542 39.1406Z" fill="#7C798C"/>
<path d="M66.631 38.3516L67.161 39.5562C67.1644 39.5762 67.1644 39.5965 67.161 39.6165L66.625 38.4118V38.3516" fill="#918DA3"/>
<path d="M66.6523 38.3828L67.1884 39.5875C67.1918 39.6155 67.1918 39.6438 67.1884 39.6718L66.6584 38.4671V38.3828" fill="#9592A8"/>
<path d="M66.6685 38.4688L67.1985 39.6734C67.2064 39.7946 67.1747 39.9151 67.1082 40.0167L66.5781 38.8121C66.642 38.7093 66.6735 38.5897 66.6685 38.4688Z" fill="#9A96AD"/>
<path d="M66.578 38.8107L67.108 40.0154C67.0899 40.0429 67.0697 40.0691 67.0478 40.0937L66.5117 38.889C66.537 38.8636 66.5593 38.8353 66.578 38.8047" fill="#9592A8"/>
<path d="M66.5113 38.8945L67.0473 40.0992L66.9931 40.1594L66.457 38.9548L66.5113 38.8945Z" fill="#918DA3"/>
<path d="M66.4587 38.9531L66.9947 40.1578L66.9345 40.206L66.3984 39.0013L66.4587 38.9592" fill="#8C899E"/>
<path d="M66.3962 38.9961L66.9322 40.2007L66.872 40.2429L66.3359 39.0383L66.3962 38.9961Z" fill="#888599"/>
<path d="M66.3397 39.0362L66.8758 40.2408H66.8095L66.2734 39.0362L66.3397 39" fill="#838094"/>
<path d="M66.2715 39.0742L66.8076 40.2789L66.7353 40.309L66.1992 39.1043L66.2715 39.0742Z" fill="#7F7C8F"/>
<path d="M66.1979 39.1016L66.734 40.3062L66.6316 40.3363L66.1016 39.1317H66.1979" fill="#7A778A"/>
<path d="M66.1029 39.1289L66.6329 40.3336H66.5908L66.0547 39.1289H66.1029Z" fill="#767385"/>
<path d="M76.1116 41.7366C76.232 41.4796 76.3464 41.2206 76.4549 40.9596C76.497 40.8572 76.5392 40.7548 76.5753 40.6464C76.7139 40.3031 76.8344 39.9537 76.9428 39.6043C77.0512 39.255 77.1415 38.8996 77.2259 38.5503C77.2259 38.4479 77.268 38.3455 77.2921 38.2371C77.3483 37.9761 77.3965 37.7171 77.4367 37.4601C77.4367 37.3577 77.4728 37.2553 77.4848 37.1529C77.533 36.8096 77.5752 36.4662 77.5993 36.1229C77.5993 35.7796 77.5993 35.4362 77.5993 35.0929C77.5993 34.9905 77.5993 34.8881 77.5993 34.7857C77.5993 34.5327 77.5993 34.2858 77.5632 34.0328C77.5632 33.9726 77.5632 33.9063 77.5632 33.8461C77.5632 33.7859 77.5632 33.7798 77.5632 33.7437C77.527 33.3642 77.4728 32.9908 77.4065 32.6234L77.3704 32.4186C77.3041 32.0933 77.2319 31.7741 77.1415 31.4549C77.133 31.4039 77.1209 31.3536 77.1054 31.3043C77.1072 31.2722 77.1072 31.24 77.1054 31.2079C77.0512 31.0152 76.9909 30.8284 76.9247 30.6056C76.8946 30.5152 76.8645 30.4249 76.8283 30.3285C76.732 30.0514 76.6235 29.7804 76.5031 29.5093L75.967 28.3047C76.0874 28.5757 76.1959 28.8528 76.2983 29.1299L76.3886 29.4069C76.4549 29.5937 76.5151 29.7864 76.5753 29.9792C76.5753 30.0575 76.6175 30.1418 76.6356 30.2201C76.7259 30.5393 76.7982 30.8646 76.8645 31.1898C76.8645 31.2561 76.8644 31.3223 76.9066 31.3886C76.9729 31.762 77.021 32.1355 77.0572 32.5089C77.0572 32.6053 77.0572 32.7077 77.0572 32.8041C77.0572 33.051 77.0572 33.304 77.0934 33.557C77.0934 33.6594 77.0934 33.7558 77.0934 33.8582C77.0934 34.2015 77.0934 34.5448 77.0934 34.8942C77.0934 35.2315 77.0271 35.5748 76.9849 35.9181L76.9307 36.2313C76.8865 36.4883 76.8384 36.7473 76.7862 37.0083C76.7862 37.1107 76.744 37.2131 76.7199 37.3215C76.6356 37.6709 76.5452 38.0202 76.4368 38.3756C76.3344 38.725 76.2079 39.0683 76.0754 39.4176L75.9489 39.7308C75.8405 39.9899 75.7321 40.2428 75.6116 40.5018L75.4671 40.815C75.2924 41.1584 75.1177 41.5077 74.9189 41.851C74.7202 42.1944 74.6118 42.369 74.4552 42.622C74.2202 42.9894 73.9733 43.3388 73.7203 43.6881C73.6601 43.7604 73.6059 43.8327 73.5517 43.911C73.2987 44.2423 73.0337 44.5736 72.7566 44.8868L72.5819 45.0855C72.4072 45.2843 72.2265 45.4831 72.0398 45.6879L71.7928 45.9348C71.6121 46.1215 71.4194 46.3022 71.2267 46.4829L71.0098 46.6817C70.787 46.8865 70.552 47.0853 70.3232 47.284L70.2569 47.3443C69.9979 47.5551 69.7329 47.7599 69.4679 47.9466L69.2028 48.1333L68.6547 48.5188L68.3415 48.7236L67.8175 49.0549L67.4922 49.2476L66.8899 49.5849L66.5888 49.7476L65.8418 50.121L65.6853 50.1993C65.36 50.3499 65.0347 50.4945 64.7035 50.633L64.4204 50.7414L63.6735 51.0245L63.3783 51.1269C62.9808 51.2594 62.5772 51.3859 62.1737 51.5003L61.9749 51.5485C61.6015 51.6509 61.228 51.7413 60.8486 51.8196L60.6498 51.8617C60.2583 51.9461 59.8667 52.0123 59.4451 52.0665L59.1801 52.1027C58.8307 52.1448 58.4754 52.187 58.126 52.2111H57.9393C57.5418 52.2412 57.1442 52.2532 56.7346 52.2593H56.4516C56.0902 52.2593 55.7288 52.2593 55.3674 52.2292H55.2288C54.8313 52.2292 54.4338 52.1629 54.0242 52.1147L53.7411 52.0786C53.3676 52.0244 53.0002 51.9641 52.6268 51.8858H52.5485C52.157 51.8015 51.7715 51.7051 51.386 51.5967L51.1089 51.5184C50.7234 51.404 50.3379 51.2835 49.9585 51.145C47.1254 50.1323 44.6618 48.292 42.8871 45.8625C42.3478 45.1077 41.8858 44.3005 41.5078 43.4532L42.0439 44.6579C42.8548 46.4466 44.0203 48.0521 45.4697 49.3773C46.9192 50.7026 48.6225 51.7199 50.4765 52.3677C50.856 52.5062 51.2354 52.6327 51.6209 52.7471L51.904 52.8255C52.2895 52.9339 52.675 53.0302 53.0605 53.1085H53.1448C53.5122 53.1808 53.8856 53.2411 54.2591 53.2953L54.5422 53.3374C54.9337 53.3856 55.3252 53.4278 55.7469 53.4519H55.8914C56.2528 53.4519 56.6142 53.482 56.9756 53.482H57.2527C57.6502 53.482 58.0477 53.482 58.4573 53.4338H58.6441C58.9934 53.4037 59.3427 53.3676 59.6921 53.3194L59.9632 53.2832C60.3647 53.227 60.7663 53.1607 61.1678 53.0844H61.2341L61.3726 53.0543C61.752 52.97 62.1255 52.8797 62.4989 52.7833L62.6977 52.7291C63.1013 52.6207 63.4988 52.4942 63.9024 52.3556L64.0228 52.3255L64.1975 52.2532C64.4505 52.1689 64.6974 52.0725 64.9444 51.9762L65.2275 51.8617C65.5588 51.7232 65.89 51.5847 66.2153 51.428L66.3478 51.3618C66.6008 51.2413 66.8538 51.1148 67.1007 50.9823L67.4019 50.8197L68.0042 50.4884L68.1669 50.3981C68.2209 50.3604 68.2772 50.3262 68.3355 50.2957L68.8595 49.9584L69.1727 49.7536L69.7208 49.3681L69.9256 49.2235L69.9798 49.1814C70.2509 48.9826 70.5159 48.7778 70.7689 48.579L70.8352 48.5248C71.0701 48.3321 71.2989 48.1333 71.5278 47.9225L71.5941 47.8623L71.7447 47.7177C71.9374 47.543 72.1242 47.3563 72.3109 47.1756L72.5518 46.9226C72.7385 46.7299 72.9192 46.5372 73.0999 46.3203L73.2384 46.1757L73.2746 46.1276C73.5517 45.8083 73.8107 45.4831 74.0697 45.1458L74.2323 44.9229C74.4913 44.5796 74.7382 44.2242 74.9671 43.8628C75.1237 43.6098 75.2803 43.3569 75.4309 43.0979C75.6237 42.7485 75.8043 42.4052 75.973 42.0558C76.0212 41.9655 76.0634 41.839 76.1116 41.7366Z" fill="url(#paint3_linear_2105_42114)"/>
<path d="M67.4882 20.5848C58.5738 17.272 47.4367 21.4281 42.6061 29.8667C37.7754 38.3053 41.0942 47.8402 50.0026 51.159C58.9111 54.4778 70.0602 50.3157 74.8908 41.8711C79.7215 33.4265 76.4027 23.8976 67.4882 20.5848Z" fill="url(#paint4_radial_2105_42114)"/>
<path style="mix-blend-mode:overlay" d="M67.4882 20.5848C58.5738 17.272 47.4367 21.4281 42.6061 29.8667C37.7754 38.3053 41.0942 47.8402 50.0026 51.159C58.9111 54.4778 70.0602 50.3157 74.8908 41.8711C79.7215 33.4265 76.4027 23.8976 67.4882 20.5848ZM74.7162 41.7808C71.1022 48.057 63.9767 52.1107 56.4957 52.1107C54.3045 52.1283 52.1277 51.7529 50.0689 51.0024C48.0908 50.322 46.2873 49.2135 44.787 47.7558C43.2866 46.2982 42.1265 44.5274 41.3894 42.5698C39.9377 38.5583 40.4256 34.089 42.7687 29.9932C46.3826 23.7169 53.5082 19.6633 60.9891 19.6633C63.1876 19.641 65.3723 20.0123 67.44 20.7595C69.4186 21.4402 71.2228 22.5488 72.724 24.0064C74.2253 25.4639 75.3867 27.2345 76.1256 29.1921C77.5591 33.2157 77.0773 37.6849 74.7282 41.7808H74.7162Z" fill="url(#paint5_linear_2105_42114)"/>
<path d="M58.5239 27.6201C58.6178 27.6506 58.6999 27.7095 58.7588 27.7888L66.5891 38.2331C66.836 38.5704 66.5529 39.0704 66.065 39.1426L51.1514 41.1243C51.0441 41.1398 50.9346 41.1295 50.8321 41.0942C50.7614 41.0697 50.6972 41.0294 50.6443 40.9764C50.5914 40.9234 50.5513 40.8591 50.5269 40.7883C50.5026 40.7175 50.4946 40.6421 50.5036 40.5678C50.5127 40.4935 50.5385 40.4222 50.5792 40.3593L57.6866 27.9333C57.7708 27.7948 57.8992 27.6886 58.051 27.6318C58.2029 27.575 58.3694 27.5708 58.5239 27.6201Z" fill="url(#paint6_linear_2105_42114)"/>
<path d="M105.219 28.674L105.273 28.4632C105.322 28.2286 105.356 27.9912 105.376 27.7524C105.394 27.5179 105.394 27.2823 105.376 27.0477V26.9694C105.367 26.8703 105.353 26.7718 105.334 26.6743C105.334 26.6381 105.334 26.602 105.334 26.5599C105.306 26.4054 105.27 26.2525 105.225 26.1021C105.228 26.0902 105.228 26.0778 105.225 26.0659C105.171 25.8704 105.103 25.6791 105.02 25.4937L104.49 24.2891C104.569 24.4761 104.637 24.6671 104.695 24.8613C104.743 25.0236 104.781 25.1885 104.81 25.3552V25.4696C104.81 25.5901 104.84 25.7166 104.852 25.8431C104.864 26.0778 104.864 26.313 104.852 26.5478C104.83 26.7867 104.794 27.0241 104.743 27.2585C104.743 27.3308 104.707 27.4031 104.689 27.4754C104.646 27.6553 104.592 27.8323 104.527 28.0054C104.527 28.0777 104.478 28.15 104.448 28.2223C104.348 28.4686 104.231 28.7081 104.099 28.939L78.6445 73.427L79.1806 74.6316L104.629 30.1317C104.762 29.9019 104.876 29.6622 104.972 29.4149C105.002 29.3486 105.027 29.2763 105.057 29.2041C105.117 29.0294 105.171 28.8547 105.219 28.674Z" fill="url(#paint7_linear_2105_42114)"/>
<path opacity="0.03" d="M51.2903 80.9143L25.7516 71.4156C25.2707 71.2579 24.7504 71.2686 24.2764 71.446C23.8024 71.6233 23.4029 71.9567 23.1435 72.3914C23.0208 72.5827 22.9432 72.7995 22.9166 73.0253C22.8899 73.2511 22.915 73.48 22.9899 73.6947C23.0647 73.9094 23.1874 74.1042 23.3486 74.2645C23.5098 74.4248 23.7054 74.5464 23.9205 74.62L49.4592 84.1307C49.9395 84.2889 50.4593 84.2791 50.9332 84.1029C51.4071 83.9267 51.8071 83.5945 52.0673 83.161C52.1936 82.9691 52.2741 82.7508 52.3026 82.5228C52.3311 82.2949 52.3069 82.0635 52.2318 81.8464C52.1567 81.6293 52.0328 81.4323 51.8696 81.2707C51.7063 81.1091 51.5081 80.9872 51.2903 80.9143Z" fill="#012B7E"/>
<path opacity="0.06" d="M51.2747 80.8586L25.742 71.3599C25.2604 71.1995 24.7383 71.2089 24.2627 71.3864C23.7871 71.564 23.3867 71.8989 23.1279 72.3357C23.0052 72.527 22.9276 72.7438 22.9009 72.9696C22.8743 73.1954 22.8994 73.4243 22.9742 73.639C23.0491 73.8537 23.1718 74.0485 23.333 74.2088C23.4942 74.3691 23.6898 74.4907 23.9049 74.5643L49.4436 84.057C49.9237 84.2174 50.4443 84.2087 50.9188 84.0323C51.3932 83.8559 51.793 83.5224 52.0517 83.0872C52.1756 82.8961 52.2542 82.6792 52.2815 82.4531C52.3087 82.227 52.2839 81.9977 52.2089 81.7826C52.1339 81.5676 52.0108 81.3725 51.8489 81.2124C51.6869 81.0522 51.4905 80.9312 51.2747 80.8586Z" fill="#012B7E"/>
<path opacity="0.09" d="M51.2601 80.7964L25.7214 71.2977C25.2395 71.1407 24.7187 71.1517 24.2439 71.329C23.7691 71.5062 23.3685 71.8391 23.1073 72.2734C22.9847 72.4652 22.9073 72.6824 22.8811 72.9085C22.8549 73.1346 22.8804 73.3637 22.9559 73.5785C23.0313 73.7932 23.1547 73.988 23.3166 74.148C23.4785 74.308 23.6747 74.4291 23.8903 74.502L49.423 84.0008C49.9032 84.1601 50.4233 84.1508 50.8975 83.9745C51.3717 83.7982 51.7716 83.4653 52.0311 83.031C52.1551 82.8398 52.2339 82.6229 52.2615 82.3967C52.2892 82.1706 52.2649 81.9411 52.1906 81.7256C52.1163 81.5102 51.9938 81.3146 51.8326 81.1536C51.6714 80.9926 51.4756 80.8704 51.2601 80.7964Z" fill="#012B7E"/>
<path opacity="0.12" d="M51.2427 80.7386L25.7041 71.2459C25.2239 71.0866 24.7037 71.0958 24.2295 71.2722C23.7553 71.4485 23.3554 71.7813 23.096 72.2157C22.972 72.4067 22.8935 72.6236 22.8662 72.8497C22.839 73.0759 22.8638 73.3052 22.9387 73.5202C23.0137 73.7353 23.1369 73.9303 23.2988 74.0905C23.4607 74.2507 23.6571 74.3717 23.873 74.4443L49.4117 83.943C49.8919 84.1023 50.412 84.0931 50.8863 83.9167C51.3605 83.7404 51.7603 83.4076 52.0198 82.9732C52.1437 82.7817 52.2222 82.5644 52.2495 82.3379C52.2767 82.1114 52.2519 81.8816 52.177 81.6662C52.1021 81.4507 51.979 81.2551 51.8171 81.0944C51.6552 80.9337 51.4588 80.812 51.2427 80.7386Z" fill="#012B7E"/>
<path opacity="0.15" d="M51.2239 80.6811L25.6852 71.1824C25.2043 71.0236 24.6837 71.0338 24.2094 71.2112C23.7351 71.3887 23.3356 71.7228 23.0771 72.1582C22.9544 72.3496 22.8768 72.5664 22.8502 72.7922C22.8235 73.0179 22.8486 73.2468 22.9235 73.4615C22.9983 73.6762 23.121 73.8711 23.2822 74.0314C23.4434 74.1917 23.639 74.3132 23.8541 74.3868L49.3687 83.8855C49.8491 84.0426 50.3684 84.0322 50.8421 83.8561C51.3158 83.68 51.7158 83.3485 51.9768 82.9158C52.1012 82.7258 52.1807 82.51 52.2096 82.2848C52.2384 82.0596 52.2157 81.8307 52.1432 81.6156C52.0707 81.4004 51.9503 81.2045 51.7911 81.0426C51.6318 80.8807 51.4379 80.7571 51.2239 80.6811Z" fill="#012B7E"/>
<path opacity="0.18" d="M51.2072 80.6219L25.6745 71.1292C25.1934 70.9694 24.6723 70.9785 24.1971 71.1548C23.7219 71.3311 23.3209 71.6641 23.0604 72.0989C22.9378 72.2907 22.8604 72.5079 22.8342 72.734C22.808 72.9601 22.8336 73.1892 22.909 73.404C22.9845 73.6187 23.1078 73.8135 23.2697 73.9735C23.4316 74.1335 23.6278 74.2546 23.8434 74.3275L49.3701 83.8262C49.8502 83.9867 50.3708 83.978 50.8453 83.8016C51.3197 83.6252 51.7195 83.2917 51.9782 82.8565C52.1022 82.6653 52.181 82.4484 52.2087 82.2222C52.2363 81.996 52.212 81.7665 52.1377 81.5511C52.0634 81.3357 51.941 81.1401 51.7797 80.9791C51.6185 80.818 51.4227 80.6959 51.2072 80.6219Z" fill="#012B7E"/>
<path opacity="0.21" d="M51.177 80.5718L25.6383 71.073C25.1575 70.9143 24.6368 70.9244 24.1625 71.1019C23.6882 71.2793 23.2888 71.6134 23.0303 72.0488C22.9075 72.2402 22.8299 72.457 22.8033 72.6828C22.7767 72.9086 22.8017 73.1375 22.8766 73.3521C22.9514 73.5668 23.0741 73.7617 23.2353 73.922C23.3966 74.0823 23.5921 74.2038 23.8072 74.2774L49.37 83.7761C49.8504 83.9332 50.3698 83.9229 50.8434 83.7467C51.3171 83.5706 51.7171 83.2391 51.9781 82.8064C52.1016 82.6133 52.1792 82.3944 52.2049 82.1666C52.2306 81.9388 52.2037 81.7081 52.1264 81.4923C52.049 81.2765 51.9232 81.0814 51.7586 80.9218C51.5941 80.7622 51.3951 80.6424 51.177 80.5718Z" fill="#012B7E"/>
<path opacity="0.24" d="M51.177 80.512L25.6383 71.0193C25.1581 70.86 24.638 70.8693 24.1637 71.0456C23.6895 71.2219 23.2897 71.5548 23.0303 71.9891C22.9075 72.1805 22.8299 72.3973 22.8033 72.6231C22.7767 72.8489 22.8017 73.0778 22.8766 73.2924C22.9514 73.5071 23.0741 73.702 23.2353 73.8623C23.3966 74.0226 23.5921 74.1441 23.8072 74.2177L49.37 83.7104C49.8503 83.8686 50.3701 83.8588 50.844 83.6826C51.318 83.5063 51.7179 83.1742 51.9781 82.7407C52.1004 82.5477 52.177 82.3293 52.2021 82.1023C52.2272 81.8752 52.2 81.6454 52.1228 81.4304C52.0455 81.2154 51.9201 81.0209 51.7562 80.8617C51.5923 80.7026 51.3942 80.583 51.177 80.512Z" fill="#012B7E"/>
<path opacity="0.26" d="M51.1753 80.4562L25.6426 70.9575C25.1609 70.7972 24.6389 70.8066 24.1633 70.9841C23.6878 71.1616 23.2873 71.4966 23.0285 71.9333C22.9047 72.1248 22.8263 72.342 22.7995 72.5685C22.7726 72.7949 22.7979 73.0245 22.8735 73.2396C22.9491 73.4547 23.0729 73.6497 23.2355 73.8096C23.3981 73.9694 23.5951 74.09 23.8115 74.1619L49.3442 83.6546C49.8243 83.8151 50.3449 83.8064 50.8194 83.6299C51.2938 83.4535 51.6936 83.12 51.9523 82.6848C52.0762 82.4938 52.1548 82.2769 52.182 82.0508C52.2093 81.8247 52.1845 81.5953 52.1095 81.3803C52.0345 81.1652 51.9114 80.9702 51.7494 80.81C51.5875 80.6499 51.3911 80.5288 51.1753 80.4562Z" fill="#012B7E"/>
<path opacity="0.29" d="M51.1752 80.3933L25.6064 70.8765C25.1254 70.7189 24.6052 70.7296 24.1312 70.9069C23.6572 71.0843 23.2576 71.4177 22.9983 71.8523C22.8744 72.0434 22.7958 72.2603 22.7685 72.4864C22.7413 72.7125 22.7661 72.9418 22.8411 73.1569C22.9161 73.3719 23.0392 73.567 23.2011 73.7271C23.3631 73.8873 23.5594 74.0083 23.7753 74.0809L49.314 83.5796C49.7942 83.7378 50.314 83.728 50.788 83.5518C51.2619 83.3756 51.6618 83.0434 51.9221 82.6099C52.0431 82.4208 52.1201 82.207 52.1475 81.9842C52.1748 81.7613 52.1518 81.5352 52.0801 81.3225C52.0084 81.1098 51.8899 80.9159 51.7333 80.755C51.5767 80.5942 51.386 80.4706 51.1752 80.3933Z" fill="#012B7E"/>
<path opacity="0.32" d="M51.1301 80.3386L25.5914 70.8399C25.1107 70.68 24.5896 70.6896 24.115 70.8671C23.6405 71.0446 23.2411 71.3794 22.9834 71.8157C22.8606 72.0071 22.783 72.2238 22.7564 72.4496C22.7298 72.6754 22.7548 72.9043 22.8297 73.119C22.9045 73.3337 23.0272 73.5285 23.1885 73.6888C23.3497 73.8491 23.5452 73.9707 23.7603 74.0443L49.2991 83.5249C49.7792 83.6843 50.2994 83.675 50.7736 83.4987C51.2478 83.3223 51.6477 82.9895 51.9072 82.5552C52.0287 82.3644 52.1054 82.1486 52.1314 81.9239C52.1574 81.6992 52.132 81.4716 52.0572 81.2581C51.9824 81.0447 51.86 80.851 51.6994 80.6917C51.5389 80.5324 51.3442 80.4117 51.1301 80.3386Z" fill="#012B7E"/>
<path opacity="0.35" d="M51.1106 80.2792L25.5779 70.7805C25.0962 70.6213 24.5746 70.6313 24.0993 70.8087C23.624 70.9861 23.2234 71.3204 22.9638 71.7563C22.8411 71.9477 22.7635 72.1645 22.7369 72.3903C22.7103 72.616 22.7353 72.845 22.8102 73.0596C22.885 73.2743 23.0077 73.4692 23.1689 73.6295C23.3301 73.7898 23.5257 73.9113 23.7408 73.9849L49.2795 83.4836C49.7597 83.643 50.2799 83.6337 50.7541 83.4574C51.2283 83.281 51.6282 82.9482 51.8876 82.5139C52.0115 82.3223 52.0901 82.105 52.1173 81.8785C52.1446 81.652 52.1198 81.4223 52.0449 81.2068C51.97 80.9913 51.8469 80.7958 51.685 80.635C51.5231 80.4743 51.3266 80.3526 51.1106 80.2792Z" fill="#012B7E"/>
<path opacity="0.38" d="M51.0939 80.2195L25.5612 70.7268C25.0802 70.5671 24.559 70.5761 24.0838 70.7524C23.6086 70.9287 23.2076 71.2617 22.9471 71.6966C22.8245 71.8884 22.7472 72.1055 22.7209 72.3317C22.6947 72.5578 22.7203 72.7869 22.7957 73.0016C22.8712 73.2164 22.9945 73.4112 23.1564 73.5712C23.3183 73.7312 23.5145 73.8523 23.7302 73.9252L49.2628 83.4239C49.743 83.5844 50.2635 83.5757 50.738 83.3993C51.2125 83.2228 51.6123 82.8893 51.8709 82.4542C51.996 82.2629 52.0756 82.0455 52.1035 81.8187C52.1313 81.5919 52.1068 81.3617 52.0318 81.1458C51.9567 80.93 51.8331 80.7342 51.6705 80.5736C51.5079 80.413 51.3107 80.2919 51.0939 80.2195Z" fill="#012B7E"/>
<path opacity="0.41" d="M51.0794 80.1655L25.5407 70.6668C25.0598 70.508 24.5392 70.5182 24.0649 70.6956C23.5906 70.8731 23.1911 71.2071 22.9326 71.6426C22.8098 71.8339 22.7323 72.0507 22.7056 72.2765C22.679 72.5023 22.7041 72.7312 22.7789 72.9459C22.8538 73.1606 22.9764 73.3554 23.1377 73.5157C23.2989 73.676 23.4945 73.7976 23.7096 73.8712L49.2483 83.3699C49.7286 83.527 50.248 83.5166 50.7217 83.3405C51.1954 83.1644 51.5954 82.8329 51.8564 82.4001C51.9803 82.2086 52.0588 81.9913 52.0861 81.7648C52.1133 81.5383 52.0886 81.3085 52.0136 81.0931C51.9387 80.8776 51.8156 80.682 51.6537 80.5213C51.4918 80.3606 51.2954 80.2389 51.0794 80.1655Z" fill="#012B7E"/>
<path opacity="0.44" d="M51.0631 80.1058L25.5243 70.6131C25.0442 70.4538 24.524 70.463 24.0498 70.6393C23.5756 70.8157 23.1757 71.1485 22.9163 71.5829C22.7924 71.7739 22.7138 71.9908 22.6865 72.2169C22.6593 72.443 22.6841 72.6724 22.759 72.8874C22.834 73.1025 22.9572 73.2975 23.1191 73.4577C23.281 73.6178 23.4774 73.7388 23.6933 73.8115L49.232 83.3102C49.7142 83.4679 50.2358 83.4559 50.7102 83.2762C51.1847 83.0965 51.5833 82.7599 51.84 82.3224C51.9604 82.1313 52.0362 81.9156 52.0615 81.6912C52.0869 81.4668 52.0613 81.2396 51.9866 81.0265C51.9119 80.8134 51.79 80.6199 51.6301 80.4605C51.4702 80.3011 51.2764 80.1798 51.0631 80.1058Z" fill="#012B7E"/>
<path opacity="0.47" d="M51.0432 80.0488L25.5105 70.5501C25.0287 70.3909 24.5071 70.4008 24.0318 70.5782C23.5565 70.7556 23.1559 71.0899 22.8964 71.5258C22.7737 71.7176 22.6964 71.9348 22.6701 72.1609C22.6439 72.387 22.6695 72.6161 22.745 72.8309C22.8204 73.0457 22.9438 73.2404 23.1057 73.4004C23.2676 73.5604 23.4637 73.6815 23.6794 73.7544L49.2121 83.2471C49.6915 83.4081 50.2116 83.4003 50.686 83.225C51.1604 83.0497 51.5606 82.7175 51.8202 82.2834C51.944 82.0919 52.0226 81.8746 52.0498 81.6481C52.0771 81.4215 52.0523 81.1918 51.9774 80.9763C51.9025 80.7609 51.7794 80.5653 51.6175 80.4046C51.4556 80.2438 51.2592 80.1221 51.0432 80.0488Z" fill="#012B7E"/>
<path opacity="0.5" d="M51.0343 79.9916L25.4955 70.4928C25.0109 70.3316 24.4856 70.3418 24.0075 70.5216C23.5295 70.7014 23.1277 71.04 22.8694 71.4807C22.7455 71.6717 22.6669 71.8886 22.6396 72.1147C22.6124 72.3408 22.6372 72.5702 22.7122 72.7852C22.7871 73.0003 22.9103 73.1953 23.0722 73.3555C23.2342 73.5156 23.4305 73.6367 23.6464 73.7093L49.1851 83.208C49.6654 83.3662 50.1852 83.3564 50.6591 83.1802C51.133 83.0039 51.533 82.6718 51.7932 82.2382C51.9198 82.0475 52.001 81.8304 52.0307 81.6034C52.0604 81.3764 52.0378 81.1457 51.9645 80.9288C51.8913 80.712 51.7694 80.5148 51.6081 80.3523C51.4469 80.1898 51.2506 80.0664 51.0343 79.9916Z" fill="#012B7E"/>
<path opacity="0.53" d="M51.0129 79.9128L25.4743 70.4141C24.9935 70.2542 24.4724 70.2638 23.9978 70.4413C23.5233 70.6189 23.1239 70.9536 22.8662 71.3899C22.7434 71.5813 22.6658 71.7981 22.6392 72.0238C22.6126 72.2496 22.6376 72.4785 22.7125 72.6932C22.7873 72.9079 22.91 73.1027 23.0713 73.263C23.2325 73.4233 23.428 73.5449 23.6432 73.6185L49.1819 83.1112C49.6621 83.2705 50.1822 83.2613 50.6564 83.0849C51.1307 82.9086 51.5305 82.5758 51.79 82.1414C51.9139 81.9504 51.9924 81.7335 52.0197 81.5074C52.0469 81.2813 52.0221 81.0519 51.9472 80.8369C51.8722 80.6218 51.7491 80.4267 51.5871 80.2666C51.4252 80.1064 51.2288 79.9854 51.0129 79.9128Z" fill="#012B7E"/>
<path opacity="0.56" d="M50.9973 79.8757L25.4647 70.377C24.9829 70.2189 24.4616 70.2294 23.9866 70.4067C23.5115 70.584 23.1109 70.9176 22.8505 71.3527C22.7278 71.5441 22.6502 71.7609 22.6236 71.9867C22.597 72.2125 22.6221 72.4414 22.6969 72.6561C22.7718 72.8708 22.8944 73.0656 23.0556 73.2259C23.2169 73.3862 23.4124 73.5077 23.6276 73.5813L49.1662 83.0801C49.6464 83.2394 50.1666 83.2301 50.6408 83.0538C51.115 82.8775 51.5149 82.5447 51.7743 82.1103C51.8982 81.9188 51.9768 81.7015 52.0041 81.475C52.0313 81.2485 52.0065 81.0187 51.9316 80.8032C51.8567 80.5878 51.7336 80.3922 51.5717 80.2315C51.4098 80.0707 51.2134 79.9491 50.9973 79.8757Z" fill="#012B7E"/>
<path opacity="0.59" d="M50.9827 79.8232L25.444 70.3245C24.963 70.1647 24.4418 70.1738 23.9666 70.3501C23.4914 70.5264 23.0904 70.8594 22.8299 71.2942C22.7073 71.4865 22.63 71.7041 22.6038 71.9306C22.5775 72.1571 22.6031 72.3866 22.6785 72.6018C22.7539 72.817 22.8772 73.0123 23.039 73.1729C23.2009 73.3334 23.3972 73.4552 23.6129 73.5289L49.1456 83.0216C49.6257 83.182 50.1463 83.1733 50.6208 82.9969C51.0953 82.8205 51.4951 82.487 51.7537 82.0518C51.879 81.8614 51.9588 81.6449 51.9871 81.4188C52.0153 81.1927 51.9913 80.9631 51.9168 80.7477C51.8423 80.5324 51.7194 80.337 51.5574 80.1767C51.3955 80.0164 51.1988 79.8955 50.9827 79.8232Z" fill="#012B7E"/>
<path opacity="0.62" d="M50.9661 79.7628L25.4274 70.2762C24.9465 70.1174 24.4259 70.1275 23.9516 70.305C23.4773 70.4824 23.0778 70.8165 22.8193 71.2519C22.6966 71.4433 22.619 71.6601 22.5924 71.8859C22.5657 72.1117 22.5908 72.3406 22.6656 72.5553C22.7405 72.7699 22.8632 72.9648 23.0244 73.1251C23.1856 73.2854 23.3812 73.407 23.5963 73.4806L49.135 82.9793C49.6153 83.1363 50.1347 83.126 50.6084 82.9499C51.0821 82.7737 51.4821 82.4423 51.7431 82.0095C51.8694 81.8176 51.9499 81.5993 51.9784 81.3714C52.0069 81.1434 51.9827 80.912 51.9076 80.6949C51.8325 80.4778 51.7086 80.2809 51.5453 80.1193C51.3821 79.9577 51.1839 79.8357 50.9661 79.7628Z" fill="#012B7E"/>
<path opacity="0.65" d="M50.9498 79.6995L25.4111 70.2069C24.9309 70.0475 24.4107 70.0568 23.9365 70.2331C23.4623 70.4094 23.0624 70.7423 22.803 71.1766C22.6791 71.3677 22.6005 71.5846 22.5732 71.8107C22.546 72.0368 22.5708 72.2661 22.6458 72.4812C22.7207 72.6962 22.8439 72.8913 23.0058 73.0514C23.1677 73.2116 23.3641 73.3326 23.58 73.4052L49.1187 82.922C49.5989 83.0813 50.1191 83.0721 50.5933 82.8957C51.0675 82.7194 51.4673 82.3866 51.7268 81.9523C51.8542 81.7602 51.9357 81.5413 51.9649 81.3127C51.9941 81.0841 51.9701 80.8518 51.895 80.6339C51.8198 80.416 51.6954 80.2183 51.5315 80.0563C51.3676 79.8943 51.1685 79.7722 50.9498 79.6995Z" fill="#012B7E"/>
<path opacity="0.68" d="M50.9299 79.6503L25.3972 70.1516C24.9155 69.9924 24.3938 70.0024 23.9185 70.1798C23.4432 70.3572 23.0427 70.6915 22.7831 71.1274C22.6605 71.3192 22.5831 71.5363 22.5569 71.7625C22.5306 71.9886 22.5562 72.2177 22.6317 72.4324C22.7071 72.6472 22.8305 72.842 22.9924 73.002C23.1543 73.162 23.3505 73.283 23.5661 73.356L49.0988 82.8547C49.579 83.0129 50.0988 83.0031 50.5728 82.8269C51.0467 82.6507 51.4466 82.3185 51.7069 81.885C51.8308 81.6934 51.9093 81.4761 51.9366 81.2496C51.9638 81.0231 51.9391 80.7934 51.8641 80.5779C51.7892 80.3624 51.6661 80.1669 51.5042 80.0061C51.3423 79.8454 51.1459 79.7237 50.9299 79.6503Z" fill="#012B7E"/>
<path opacity="0.71" d="M50.9192 79.5862L25.3805 70.0936C24.9003 69.9342 24.3801 69.9435 23.9059 70.1198C23.4317 70.2961 23.0319 70.629 22.7724 71.0633C22.6497 71.2547 22.5721 71.4715 22.5455 71.6973C22.5188 71.9231 22.5439 72.152 22.6188 72.3666C22.6936 72.5813 22.8163 72.7762 22.9775 72.9365C23.1387 73.0968 23.3343 73.2183 23.5494 73.2919L49.0882 82.7906C49.5684 82.9488 50.0882 82.939 50.5621 82.7628C51.036 82.5866 51.436 82.2544 51.6962 81.8209C51.8201 81.6293 51.8987 81.412 51.9259 81.1855C51.9532 80.959 51.9284 80.7293 51.8535 80.5138C51.7786 80.2983 51.6555 80.1028 51.4936 79.942C51.3317 79.7813 51.1352 79.6596 50.9192 79.5862Z" fill="#012B7E"/>
<path opacity="0.74" d="M50.8997 79.5327L25.361 70.034C24.8801 69.8752 24.3594 69.8853 23.8852 70.0628C23.4109 70.2402 23.0114 70.5743 22.7529 71.0098C22.6302 71.2011 22.5526 71.4179 22.5259 71.6437C22.4993 71.8695 22.5244 72.0984 22.5992 72.3131C22.6741 72.5278 22.7968 72.7226 22.958 72.8829C23.1192 73.0432 23.3148 73.1648 23.5299 73.2384L49.0686 82.7311C49.5481 82.8909 50.0678 82.8826 50.542 82.7074C51.0161 82.5322 51.4163 82.2006 51.6767 81.7673C51.8006 81.5758 51.8791 81.3585 51.9064 81.132C51.9336 80.9055 51.9088 80.6757 51.8339 80.4602C51.759 80.2448 51.6359 80.0492 51.474 79.8885C51.3121 79.7278 51.1157 79.6061 50.8997 79.5327Z" fill="#012B7E"/>
<path opacity="0.76" d="M50.8823 79.4733L25.3496 69.9746C24.8678 69.8166 24.3466 69.8271 23.8716 70.0044C23.3965 70.1817 22.9959 70.5153 22.7355 70.9504C22.6117 71.1419 22.5334 71.3591 22.5065 71.5856C22.4796 71.812 22.505 72.0416 22.5805 72.2567C22.6561 72.4718 22.78 72.6668 22.9425 72.8267C23.1051 72.9866 23.3022 73.1071 23.5186 73.179L49.0512 82.6777C49.5301 82.8381 50.0493 82.8307 50.5234 82.6566C50.9974 82.4825 51.398 82.1522 51.6593 81.72C51.7856 81.5281 51.8661 81.3098 51.8946 81.0819C51.9231 80.8539 51.8989 80.6225 51.8238 80.4054C51.7487 80.1883 51.6248 79.9914 51.4615 79.8298C51.2983 79.6682 51.1001 79.5462 50.8823 79.4733Z" fill="#012B7E"/>
<path opacity="0.79" d="M50.8717 79.4167L25.333 69.918C24.8522 69.7581 24.3311 69.7677 23.8566 69.9452C23.382 70.1228 22.9826 70.4575 22.7249 70.8938C22.601 71.0849 22.5224 71.3018 22.4951 71.5279C22.4679 71.754 22.4927 71.9833 22.5676 72.1984C22.6426 72.4134 22.7658 72.6085 22.9277 72.7686C23.0896 72.9288 23.286 73.0498 23.5019 73.1224L49.0406 82.6151C49.5198 82.7752 50.0394 82.7662 50.5129 82.5898C50.9863 82.4133 51.3851 82.08 51.6426 81.6453C51.7679 81.455 51.8477 81.2384 51.876 81.0123C51.9043 80.7862 51.8802 80.5566 51.8057 80.3412C51.7312 80.1259 51.6083 79.9306 51.4463 79.7703C51.2844 79.61 51.0878 79.489 50.8717 79.4167Z" fill="#012B7E"/>
<path opacity="0.82" d="M50.8528 79.3596L25.3141 69.8609C24.8332 69.7032 24.3129 69.714 23.8389 69.8913C23.3649 70.0686 22.9653 70.4021 22.706 70.8367C22.5833 71.0281 22.5057 71.2448 22.4791 71.4706C22.4524 71.6964 22.4775 71.9253 22.5523 72.14C22.6272 72.3547 22.7499 72.5495 22.9111 72.7098C23.0723 72.8701 23.2679 72.9917 23.483 73.0653L49.0217 82.564C49.502 82.7222 50.0218 82.7124 50.4957 82.5362C50.9696 82.3599 51.3696 82.0278 51.6298 81.5943C51.7537 81.4027 51.8323 81.1854 51.8595 80.9589C51.8868 80.7324 51.862 80.5026 51.7871 80.2872C51.7122 80.0717 51.589 79.8761 51.4271 79.7154C51.2652 79.5547 51.0688 79.433 50.8528 79.3596Z" fill="#012B7E"/>
<path opacity="0.85" d="M50.8332 79.3097L25.2765 69.805C24.7954 69.6452 24.2743 69.6542 23.799 69.8305C23.3238 70.0068 22.9228 70.3399 22.6623 70.7747C22.5384 70.9658 22.4599 71.1827 22.4326 71.4088C22.4054 71.6349 22.4302 71.8642 22.5051 72.0793C22.5801 72.2943 22.7033 72.4894 22.8652 72.6495C23.0271 72.8097 23.2235 72.9307 23.4394 73.0033L48.9781 82.502C49.4582 82.6614 49.9784 82.6521 50.4526 82.4758C50.9268 82.2995 51.3267 81.9666 51.5861 81.5323C51.7082 81.3426 51.7859 81.1279 51.8134 80.9041C51.841 80.6803 51.8178 80.4531 51.7454 80.2395C51.673 80.0259 51.5535 79.8314 51.3955 79.6704C51.2376 79.5094 51.0454 79.3861 50.8332 79.3097Z" fill="#012B7E"/>
<path opacity="0.88" d="M50.8148 79.2441L25.2761 69.7454C24.7944 69.5862 24.2728 69.5961 23.7974 69.7735C23.3221 69.9509 22.9216 70.2852 22.662 70.7211C22.5394 70.9129 22.462 71.1301 22.4358 71.3562C22.4095 71.5823 22.4351 71.8114 22.5106 72.0262C22.586 72.241 22.7094 72.4357 22.8713 72.5957C23.0332 72.7558 23.2294 72.8768 23.445 72.9498L48.9777 82.4485C49.4579 82.6067 49.9777 82.5969 50.4517 82.4206C50.9256 82.2444 51.3255 81.9123 51.5858 81.4787C51.711 81.2879 51.7908 81.0709 51.8191 80.8444C51.8474 80.6179 51.8233 80.3879 51.7489 80.1721C51.6744 79.9563 51.5515 79.7605 51.3896 79.5996C51.2277 79.4388 51.0311 79.3171 50.8148 79.2441Z" fill="#012B7E"/>
<path opacity="0.91" d="M50.8049 79.1864L25.2783 69.6756C24.7981 69.5163 24.2779 69.5255 23.8037 69.7018C23.3295 69.8782 22.9296 70.211 22.6702 70.6453C22.5463 70.8364 22.4677 71.0533 22.4404 71.2794C22.4132 71.5055 22.438 71.7349 22.513 71.9499C22.588 72.165 22.7111 72.36 22.873 72.5202C23.0349 72.6803 23.2314 72.8013 23.4472 72.874L48.9859 82.3727C49.4661 82.532 49.9863 82.5227 50.4605 82.3464C50.9347 82.1701 51.3345 81.8373 51.594 81.4029C51.7142 81.2111 51.7894 80.9946 51.814 80.7696C51.8386 80.5446 51.8119 80.3169 51.736 80.1037C51.66 79.8904 51.5369 79.6971 51.3756 79.5382C51.2144 79.3794 51.0193 79.2591 50.8049 79.1864Z" fill="#012B7E"/>
<path opacity="0.94" d="M50.7836 79.1304L25.275 69.6316C24.7942 69.4728 24.2735 69.483 23.7993 69.6605C23.325 69.8379 22.9255 70.172 22.6669 70.6074C22.5442 70.7988 22.4666 71.0156 22.44 71.2414C22.4134 71.4672 22.4384 71.6961 22.5133 71.9108C22.5881 72.1254 22.7108 72.3203 22.872 72.4806C23.0333 72.6409 23.2289 72.7624 23.444 72.836L48.9525 82.3227C49.4329 82.4798 49.9523 82.4694 50.4259 82.2933C50.8996 82.1172 51.2996 81.7857 51.5606 81.353C51.6822 81.1617 51.7589 80.9455 51.7849 80.7204C51.8109 80.4953 51.7855 80.2672 51.7107 80.0534C51.636 79.8395 51.5137 79.6453 51.3531 79.4854C51.1925 79.3256 50.9978 79.2042 50.7836 79.1304Z" fill="#012B7E"/>
<path opacity="0.97" d="M50.7658 79.0672L25.2331 69.5745C24.752 69.4148 24.2309 69.4238 23.7557 69.6001C23.2804 69.7764 22.8795 70.1094 22.619 70.5442C22.4964 70.736 22.419 70.9532 22.3928 71.1793C22.3666 71.4054 22.3921 71.6345 22.4676 71.8493C22.543 72.0641 22.6664 72.2588 22.8283 72.4188C22.9902 72.5789 23.1864 72.6999 23.402 72.7729L48.9347 82.2716C49.4149 82.4309 49.935 82.4216 50.4093 82.2453C50.8835 82.069 51.2833 81.7362 51.5428 81.3018C51.6667 81.1103 51.7453 80.893 51.7725 80.6665C51.7998 80.44 51.775 80.2102 51.7 79.9947C51.6251 79.7793 51.502 79.5837 51.3401 79.423C51.1782 79.2622 50.9818 79.1406 50.7658 79.0672Z" fill="#012B7E"/>
<path d="M50.7545 79.0144L25.2158 69.5157C24.735 69.3557 24.2139 69.3653 23.7394 69.5429C23.2648 69.7204 22.8654 70.0552 22.6077 70.4914C22.4838 70.6825 22.4052 70.8994 22.3779 71.1255C22.3507 71.3516 22.3755 71.581 22.4505 71.796C22.5254 72.0111 22.6486 72.2061 22.8105 72.3663C22.9724 72.5264 23.1688 72.6474 23.3847 72.7201L48.9234 82.2127C49.4036 82.3721 49.9238 82.3628 50.398 82.1865C50.8722 82.0102 51.272 81.6773 51.5315 81.243C51.6554 81.0519 51.734 80.835 51.7612 80.6089C51.7885 80.3828 51.7637 80.1535 51.6887 79.9384C51.6137 79.7234 51.4906 79.5283 51.3286 79.3682C51.1667 79.208 50.9703 79.087 50.7545 79.0144Z" fill="#012B7E"/>
<path d="M51.7776 80.5445C51.7836 80.4663 51.7836 80.3878 51.7776 80.3096C51.7776 80.3096 51.7776 80.2614 51.7776 80.2373V80.1349V80.0446C51.7592 79.9811 51.7371 79.9188 51.7114 79.8579L51.1753 78.6532C51.2149 78.7437 51.2432 78.8388 51.2596 78.9363V79.0387C51.2716 79.1407 51.2716 79.2438 51.2596 79.3459C51.2513 79.4561 51.231 79.5652 51.1994 79.6711V79.7555C51.1635 79.868 51.1171 79.9769 51.0608 80.0807C51 80.1769 50.9337 80.2694 50.8621 80.3578V80.3939C50.7863 80.4767 50.7059 80.5552 50.6212 80.6288L50.5669 80.671C50.4815 80.7401 50.3908 80.8025 50.2959 80.8577H50.2537C50.1657 80.9048 50.0753 80.947 49.9827 80.9842H49.9224C49.8119 81.0227 49.6993 81.0548 49.5851 81.0806H49.537L49.2478 81.1107H49.1454C49.0653 81.1169 48.9847 81.1169 48.9045 81.1107H48.8021C48.6913 81.0926 48.5825 81.0644 48.4769 81.0264L22.8659 71.5337C22.5686 71.4281 22.3103 71.2349 22.125 70.9795C22.0668 70.9014 22.0182 70.8164 21.9805 70.7266L22.5105 71.9312C22.5974 72.1193 22.721 72.2882 22.8741 72.4278C23.0272 72.5675 23.2067 72.6751 23.402 72.7444L48.9346 82.237C49.0424 82.2763 49.1532 82.3065 49.2659 82.3274H49.3623H49.6092H49.7116C49.8087 82.3263 49.9055 82.3162 50.0007 82.2973H50.061C50.1589 82.2747 50.2554 82.2466 50.3501 82.213H50.4163L50.5549 82.1588L50.6814 82.0865H50.7296C50.794 82.0498 50.8564 82.0096 50.9163 81.966C50.9336 81.9467 50.9539 81.9304 50.9765 81.9178L51.0247 81.8757L51.091 81.8215C51.1502 81.7662 51.2065 81.7079 51.2596 81.6468V81.6046C51.313 81.5444 51.3614 81.48 51.4042 81.4119C51.4225 81.3851 51.4386 81.3569 51.4524 81.3275C51.5141 81.2256 51.5626 81.1163 51.5969 81.0023C51.5995 80.9762 51.5995 80.95 51.5969 80.924C51.6742 80.8063 51.735 80.6786 51.7776 80.5445Z" fill="url(#paint8_linear_2105_42114)"/>
<path d="M50.2363 77.8284L24.6735 68.3297C24.1926 68.172 23.6723 68.1827 23.1983 68.3601C22.7243 68.5374 22.3247 68.8708 22.0654 69.3054C21.9427 69.4968 21.8651 69.7136 21.8384 69.9394C21.8118 70.1652 21.8369 70.3941 21.9117 70.6088C21.9866 70.8234 22.1093 71.0183 22.2705 71.1786C22.4317 71.3389 22.6273 71.4604 22.8424 71.534L48.3811 81.0327C48.8613 81.1909 49.3811 81.1811 49.8551 81.0049C50.329 80.8287 50.7289 80.4965 50.9892 80.063C51.1135 79.873 51.1931 79.6573 51.2219 79.432C51.2508 79.2068 51.2281 78.978 51.1556 78.7628C51.0831 78.5476 50.9627 78.3517 50.8034 78.1898C50.6442 78.028 50.4502 77.9044 50.2363 77.8284Z" fill="url(#paint9_linear_2105_42114)"/>
<path style="mix-blend-mode:overlay" d="M50.2363 77.8284L24.6735 68.3297C24.1926 68.172 23.6723 68.1827 23.1983 68.3601C22.7243 68.5374 22.3247 68.8708 22.0654 69.3054C21.9427 69.4968 21.8651 69.7136 21.8384 69.9394C21.8118 70.1652 21.8369 70.3941 21.9117 70.6088C21.9866 70.8234 22.1093 71.0183 22.2705 71.1786C22.4317 71.3389 22.6273 71.4604 22.8424 71.534L48.3811 81.0327C48.8613 81.1909 49.3811 81.1811 49.8551 81.0049C50.329 80.8287 50.7289 80.4965 50.9892 80.063C51.1135 79.873 51.1931 79.6573 51.2219 79.432C51.2508 79.2068 51.2281 78.978 51.1556 78.7628C51.0831 78.5476 50.9627 78.3517 50.8034 78.1898C50.6442 78.028 50.4502 77.9044 50.2363 77.8284ZM50.8386 79.9666C50.6539 80.2698 50.3949 80.5208 50.086 80.6958C49.7772 80.8707 49.4288 80.9639 49.0738 80.9665C48.8682 80.9663 48.6642 80.9296 48.4715 80.8581L22.9327 71.3594C22.7477 71.2954 22.579 71.1916 22.4385 71.0552C22.298 70.9189 22.1891 70.7533 22.1196 70.5703C22.0525 70.3781 22.0296 70.1732 22.0525 69.9709C22.0755 69.7686 22.1437 69.5741 22.2521 69.4018C22.435 69.097 22.6937 68.8448 23.0029 68.6696C23.3122 68.4944 23.6615 68.4022 24.0169 68.4019C24.2225 68.4021 24.4265 68.4388 24.6192 68.5104L50.158 78.003C50.3426 78.0677 50.511 78.1718 50.6514 78.3081C50.7918 78.4443 50.9009 78.6095 50.9711 78.7921C51.0371 78.9849 51.0606 79.1898 51.0398 79.3926C51.019 79.5954 50.9545 79.7912 50.8507 79.9666H50.8386Z" fill="url(#paint10_linear_2105_42114)"/>
<path d="M78.6387 73.4311L69.0015 90.2662C68.9352 90.3866 68.8569 90.5011 68.7846 90.6095C68.6271 90.8548 68.4519 91.0883 68.2606 91.3082L68.1763 91.3985C68.0377 91.5491 67.8992 91.6937 67.7547 91.8322L67.5679 91.9948C67.4595 92.0912 67.3451 92.1876 67.2246 92.2779L67.0198 92.4285C66.8993 92.5189 66.7789 92.5972 66.6524 92.6755L66.4536 92.8019C66.2729 92.9043 66.0922 93.0007 65.9055 93.0911L65.8452 93.1272C65.6224 93.2296 65.3935 93.3199 65.1586 93.4043L64.99 93.4585C64.7309 93.5428 64.472 93.6151 64.2069 93.6753H64.1166C63.8478 93.7282 63.5764 93.7664 63.3034 93.7898H63.1107C62.8519 93.8048 62.5925 93.8048 62.3337 93.7898H62.2734C62.0026 93.7688 61.7331 93.7326 61.4663 93.6813L61.2736 93.6392C61.0036 93.5812 60.738 93.5047 60.4785 93.4103L3.29954 72.1481C2.9629 72.0208 2.63835 71.8636 2.32978 71.6783C1.47708 71.1713 0.803425 70.4113 0.402344 69.5039L0.932377 70.7086C1.21305 71.3223 1.61494 71.8729 2.11385 72.3273C2.61277 72.7817 3.19842 73.1305 3.8356 73.3528L61.0146 94.615C61.2723 94.7086 61.5359 94.7851 61.8036 94.8438L62.0024 94.88C62.2687 94.9343 62.5383 94.9705 62.8095 94.9884H62.8697C63.1265 95.0035 63.384 95.0035 63.6407 94.9884H63.8395C64.1124 94.965 64.3839 94.9268 64.6526 94.874H64.7189C64.9817 94.8185 65.2411 94.7481 65.4959 94.6631L65.6043 94.633H65.6706C65.9029 94.5547 66.1302 94.4622 66.3512 94.356L66.4114 94.3198C66.5996 94.2342 66.7826 94.1377 66.9596 94.0307L67.0138 94.0006L67.1584 93.9042L67.5258 93.6633L67.6161 93.597C67.6568 93.5703 67.6951 93.5401 67.7305 93.5067L68.0739 93.2296L68.1883 93.1332L68.2546 93.0609C68.4041 92.9275 68.5449 92.7847 68.6762 92.6333C68.7038 92.6087 68.7299 92.5826 68.7545 92.555C68.941 92.3327 69.114 92.0994 69.2725 91.8563L69.3327 91.772L69.4954 91.513L79.1326 74.6779L78.6387 73.4311Z" fill="url(#paint11_linear_2105_42114)"/>
<path opacity="0.03" d="M65.59 79.2501L17.9579 61.4754C17.4771 61.3166 16.9564 61.3268 16.4821 61.5042C16.0079 61.6816 15.6084 62.0157 15.3499 62.4512C15.226 62.6422 15.1474 62.8591 15.1201 63.0852C15.0929 63.3113 15.1177 63.5407 15.1926 63.7557C15.2676 63.9708 15.3908 64.1658 15.5527 64.326C15.7146 64.4861 15.911 64.6071 16.1269 64.6798L63.759 82.4545C64.2392 82.6138 64.7593 82.6045 65.2335 82.4282C65.7078 82.2519 66.1076 81.9191 66.367 81.4847C66.4909 81.2931 66.5695 81.0759 66.5968 80.8493C66.624 80.6228 66.5992 80.3931 66.5243 80.1776C66.4494 79.9622 66.3263 79.7666 66.1644 79.6059C66.0025 79.4451 65.8061 79.3234 65.59 79.2501Z" fill="#012B7E"/>
<path opacity="0.06" d="M65.5804 79.1904L17.9423 61.4217C17.4622 61.2624 16.942 61.2716 16.4678 61.4479C15.9936 61.6243 15.5937 61.9571 15.3343 62.3915C15.2103 62.5825 15.1317 62.7994 15.1045 63.0255C15.0772 63.2516 15.102 63.481 15.177 63.696C15.252 63.9111 15.3752 64.1061 15.5371 64.2663C15.699 64.4264 15.8954 64.5474 16.1113 64.6201L63.7494 82.3948C64.2296 82.5541 64.7497 82.5448 65.2239 82.3685C65.6982 82.1922 66.098 81.8594 66.3575 81.425C66.4814 81.2335 66.5599 81.0161 66.5872 80.7896C66.6144 80.5631 66.5896 80.3334 66.5147 80.1179C66.4398 79.9024 66.3167 79.7069 66.1548 79.5462C65.9929 79.3854 65.7965 79.2637 65.5804 79.1904Z" fill="#012B7E"/>
<path opacity="0.09" d="M65.5616 79.1372L17.9295 61.3626C17.4478 61.2034 16.9262 61.2133 16.4508 61.3907C15.9755 61.5681 15.575 61.9024 15.3154 62.3383C15.1927 62.5297 15.1151 62.7465 15.0884 62.9723C15.0618 63.1981 15.0869 63.427 15.1617 63.6417C15.2366 63.8563 15.3592 64.0512 15.5205 64.2115C15.6817 64.3718 15.8773 64.4933 16.0924 64.5669L63.7305 82.3236C64.2109 82.4806 64.7302 82.4703 65.2039 82.2942C65.6776 82.118 66.0776 81.7866 66.3386 81.3538C66.459 81.1628 66.5347 80.947 66.5601 80.7227C66.5855 80.4983 66.5599 80.2711 66.4852 80.058C66.4105 79.8449 66.2886 79.6514 66.1287 79.492C65.9688 79.3326 65.7749 79.2113 65.5616 79.1372Z" fill="#012B7E"/>
<path opacity="0.12" d="M65.541 79.0775L17.9089 61.3089C17.4279 61.1491 16.9067 61.1582 16.4315 61.3345C15.9562 61.5108 15.5553 61.8438 15.2948 62.2786C15.1722 62.4704 15.0948 62.6876 15.0686 62.9137C15.0424 63.1398 15.0679 63.3689 15.1434 63.5837C15.2189 63.7984 15.3422 63.9932 15.5041 64.1532C15.666 64.3132 15.8622 64.4343 16.0778 64.5072L63.7099 82.2819C64.19 82.4424 64.7106 82.4337 65.1851 82.2573C65.6596 82.0808 66.0594 81.7473 66.318 81.3122C66.4419 81.1206 66.5205 80.9033 66.5477 80.6768C66.575 80.4503 66.5502 80.2206 66.4752 80.0051C66.4003 79.7896 66.2772 79.5941 66.1153 79.4333C65.9534 79.2726 65.757 79.1509 65.541 79.0775Z" fill="#012B7E"/>
<path opacity="0.15" d="M65.5303 79.019L17.8922 61.2383C17.4114 61.0784 16.8904 61.088 16.4158 61.2655C15.9413 61.4431 15.5419 61.7779 15.2841 62.2141C15.1614 62.4055 15.0838 62.6223 15.0572 62.8481C15.0306 63.0739 15.0556 63.3027 15.1305 63.5174C15.2053 63.7321 15.328 63.927 15.4892 64.0873C15.6505 64.2476 15.846 64.3691 16.0612 64.4427L63.6933 82.2114C64.1727 82.3724 64.6928 82.3646 65.1672 82.1893C65.6416 82.014 66.0418 81.6817 66.3013 81.2477C66.4253 81.057 66.5042 80.8405 66.5318 80.6147C66.5595 80.3889 66.5352 80.1598 66.4608 79.9448C66.3865 79.7298 66.264 79.5347 66.1027 79.3743C65.9415 79.2138 65.7457 79.0923 65.5303 79.019Z" fill="#012B7E"/>
<path opacity="0.18" d="M65.5108 78.9598L17.8727 61.1851C17.3918 61.0275 16.8715 61.0382 16.3975 61.2155C15.9235 61.3929 15.5239 61.7263 15.2646 62.1609C15.1419 62.3523 15.0643 62.5691 15.0377 62.7948C15.011 63.0206 15.0361 63.2495 15.1109 63.4642C15.1858 63.6789 15.3085 63.8738 15.4697 64.0341C15.6309 64.1944 15.8265 64.3159 16.0416 64.3895L63.6797 82.1642C64.16 82.3224 64.6798 82.3126 65.1537 82.1364C65.6277 81.9601 66.0276 81.628 66.2878 81.1945C66.4117 81.0029 66.4903 80.7856 66.5175 80.5591C66.5448 80.3326 66.52 80.1029 66.4451 79.8874C66.3701 79.6719 66.247 79.4763 66.0851 79.3156C65.9232 79.1549 65.7268 79.0332 65.5108 78.9598Z" fill="#012B7E"/>
<path opacity="0.21" d="M65.4941 78.9039L17.862 61.1292C17.3809 60.9694 16.8598 60.9785 16.3846 61.1548C15.9093 61.3311 15.5084 61.6641 15.2479 62.0989C15.1253 62.2912 15.048 62.5088 15.0217 62.7353C14.9955 62.9618 15.0211 63.1913 15.0965 63.4065C15.1719 63.6217 15.2952 63.8169 15.457 63.9775C15.6189 64.1381 15.8152 64.2599 16.0309 64.3336L63.663 82.1022C64.1432 82.2616 64.6634 82.2523 65.1376 82.076C65.6118 81.8997 66.0117 81.5668 66.2711 81.1325C66.395 80.9414 66.4736 80.7245 66.5009 80.4984C66.5281 80.2723 66.5033 80.043 66.4283 79.8279C66.3534 79.6129 66.2302 79.4178 66.0683 79.2577C65.9064 79.0975 65.71 78.9765 65.4941 78.9039Z" fill="#012B7E"/>
<path opacity="0.24" d="M65.4774 78.8477L17.8453 61.073C17.3645 60.9142 16.8438 60.9244 16.3696 61.1019C15.8953 61.2793 15.4958 61.6134 15.2373 62.0488C15.1146 62.2402 15.0369 62.457 15.0103 62.6828C14.9837 62.9086 15.0088 63.1375 15.0836 63.3521C15.1585 63.5668 15.2811 63.7617 15.4424 63.922C15.6036 64.0823 15.7992 64.2038 16.0143 64.2774L63.6464 82.0521C64.1266 82.2115 64.6467 82.2022 65.1209 82.0259C65.5952 81.8495 65.995 81.5167 66.2545 81.0824C66.3784 80.8908 66.4569 80.6735 66.4842 80.447C66.5114 80.2205 66.4866 79.9908 66.4117 79.7753C66.3368 79.5598 66.2137 79.3643 66.0518 79.2035C65.8899 79.0428 65.6935 78.9211 65.4774 78.8477Z" fill="#012B7E"/>
<path opacity="0.26" d="M65.4632 78.7941L17.8251 61.0193C17.345 60.86 16.8248 60.8693 16.3506 61.0456C15.8764 61.2219 15.4765 61.5547 15.2171 61.9891C15.0931 62.1802 15.0145 62.3971 14.9873 62.6232C14.96 62.8493 14.9849 63.0786 15.0599 63.2937C15.1348 63.5087 15.258 63.7038 15.4199 63.8639C15.5818 64.0241 15.7782 64.1451 15.9941 64.2177L63.6322 81.9924C64.1124 82.1517 64.6325 82.1425 65.1068 81.9662C65.581 81.7898 65.9808 81.457 66.2403 81.0227C66.3642 80.8316 66.4428 80.6147 66.47 80.3886C66.4973 80.1625 66.4725 79.9331 66.3975 79.7181C66.3225 79.503 66.1994 79.308 66.0374 79.1478C65.8755 78.9877 65.6791 78.8667 65.4632 78.7941Z" fill="#012B7E"/>
<path opacity="0.29" d="M65.4444 78.7076L17.8123 60.9329C17.3306 60.7737 16.809 60.7836 16.3337 60.961C15.8583 61.1384 15.4578 61.4727 15.1982 61.9086C15.0755 62.1 14.9979 62.3168 14.9713 62.5426C14.9446 62.7684 14.9697 62.9973 15.0446 63.212C15.1194 63.4267 15.2421 63.6215 15.4033 63.7818C15.5645 63.9421 15.7601 64.0637 15.9752 64.1373L63.6133 81.912C64.0937 82.069 64.6131 82.0587 65.0867 81.8825C65.5604 81.7064 65.9604 81.3749 66.2214 80.9422C66.3453 80.7506 66.4239 80.5333 66.4511 80.3068C66.4784 80.0803 66.4536 79.8506 66.3787 79.6351C66.3037 79.4196 66.1807 79.2241 66.0188 79.0634C65.8569 78.9026 65.6604 78.7809 65.4444 78.7076Z" fill="#012B7E"/>
<path opacity="0.32" d="M65.4277 78.6713L17.7956 60.9026C17.3146 60.7429 16.7934 60.7519 16.3182 60.9282C15.843 61.1045 15.442 61.4375 15.1815 61.8724C15.0589 62.0641 14.9815 62.2813 14.9553 62.5074C14.9291 62.7336 14.9547 62.9627 15.0301 63.1774C15.1056 63.3922 15.2289 63.587 15.3908 63.747C15.5527 63.907 15.7489 64.028 15.9645 64.101L63.5966 81.8757C64.0767 82.0362 64.5973 82.0275 65.0718 81.851C65.5463 81.6746 65.9461 81.3411 66.2047 80.9059C66.3286 80.7144 66.4072 80.4971 66.4344 80.2706C66.4617 80.0441 66.4369 79.8143 66.362 79.5988C66.287 79.3834 66.1639 79.1878 66.002 79.0271C65.8402 78.8663 65.6437 78.7447 65.4277 78.6713Z" fill="#012B7E"/>
<path opacity="0.35" d="M65.4171 78.6173L17.7789 60.8426C17.2981 60.6838 16.7774 60.6939 16.3032 60.8714C15.8289 61.0488 15.4294 61.3829 15.1708 61.8183C15.0481 62.0097 14.9705 62.2265 14.9439 62.4523C14.9173 62.6781 14.9424 62.907 15.0172 63.1217C15.0921 63.3364 15.2147 63.5312 15.3759 63.6915C15.5372 63.8518 15.7328 63.9734 15.9479 64.047L63.586 81.8217C64.0654 81.9795 64.5842 81.9694 65.0571 81.7932C65.53 81.6169 65.9288 81.285 66.188 80.8519C66.3132 80.6611 66.3931 80.4441 66.4213 80.2176C66.4496 79.9911 66.4256 79.7611 66.3511 79.5453C66.2767 79.3295 66.1538 79.1337 65.9919 78.9728C65.83 78.8119 65.6333 78.6903 65.4171 78.6173Z" fill="#012B7E"/>
<path opacity="0.38" d="M65.3975 78.5575L17.7594 60.7828C17.2785 60.6251 16.7582 60.6358 16.2842 60.8132C15.8102 60.9905 15.4107 61.3239 15.1513 61.7585C15.0286 61.9499 14.951 62.1667 14.9244 62.3925C14.8978 62.6183 14.9228 62.8472 14.9977 63.0619C15.0725 63.2766 15.1952 63.4714 15.3564 63.6317C15.5177 63.792 15.7132 63.9136 15.9283 63.9872L63.5664 81.7619C64.0467 81.9201 64.5665 81.9102 65.0404 81.734C65.5144 81.5578 65.9143 81.2256 66.1745 80.7921C66.2984 80.6005 66.377 80.3833 66.4042 80.1568C66.4315 79.9302 66.4067 79.7005 66.3318 79.485C66.2568 79.2696 66.1338 79.074 65.9719 78.9133C65.81 78.7525 65.6135 78.6308 65.3975 78.5575Z" fill="#012B7E"/>
<path opacity="0.41" d="M65.3809 78.5057L17.7488 60.731C17.2671 60.5706 16.7451 60.58 16.2695 60.7575C15.7939 60.935 15.3934 61.27 15.1346 61.7067C15.012 61.8985 14.9347 62.1157 14.9084 62.3418C14.8822 62.5679 14.9078 62.797 14.9832 63.0118C15.0587 63.2265 15.1821 63.4213 15.344 63.5813C15.5059 63.7414 15.7021 63.8624 15.9177 63.9354L63.5498 81.7221C64.0299 81.8814 64.5501 81.8722 65.0243 81.6958C65.4985 81.5195 65.8984 81.1867 66.1578 80.7524C66.2853 80.5608 66.3669 80.3424 66.396 80.1141C66.4252 79.8859 66.4013 79.6539 66.326 79.4365C66.2508 79.219 66.1264 79.0219 65.9625 78.8604C65.7985 78.6989 65.5995 78.5775 65.3809 78.5057Z" fill="#012B7E"/>
<path opacity="0.44" d="M65.3603 78.4403L17.7282 60.6656C17.2472 60.5079 16.727 60.5186 16.253 60.696C15.7789 60.8733 15.3794 61.2068 15.1201 61.6414C14.9974 61.8328 14.9197 62.0495 14.8931 62.2753C14.8665 62.5011 14.8916 62.73 14.9664 62.9447C15.0413 63.1594 15.164 63.3542 15.3252 63.5145C15.4864 63.6748 15.682 63.7964 15.8971 63.87L63.5292 81.6447C64.0094 81.804 64.5296 81.7948 65.0038 81.6184C65.478 81.4421 65.8778 81.1093 66.1373 80.6749C66.2624 80.4837 66.3419 80.2663 66.3698 80.0395C66.3977 79.8127 66.3732 79.5824 66.2981 79.3666C66.2231 79.1507 66.0995 78.955 65.9369 78.7944C65.7743 78.6338 65.577 78.5127 65.3603 78.4403Z" fill="#012B7E"/>
<path opacity="0.47" d="M65.3499 78.3871L17.7118 60.6365C17.2316 60.4772 16.7114 60.4865 16.2372 60.6628C15.763 60.8391 15.3632 61.1719 15.1037 61.6063C14.9798 61.7978 14.9013 62.0152 14.874 62.2417C14.8468 62.4682 14.8716 62.6979 14.9465 62.9134C15.0214 63.1289 15.1445 63.3244 15.3064 63.4851C15.4683 63.6459 15.6647 63.7676 15.8807 63.8409L63.5188 81.6096C63.999 81.7689 64.5192 81.7597 64.9934 81.5833C65.4676 81.407 65.8675 81.0742 66.1269 80.6398C66.2556 80.4481 66.3381 80.2292 66.368 80.0002C66.3978 79.7712 66.3741 79.5385 66.2988 79.3202C66.2235 79.1019 66.0987 78.9041 65.934 78.7422C65.7694 78.5803 65.5695 78.4587 65.3499 78.3871Z" fill="#012B7E"/>
<path opacity="0.5" d="M65.33 78.3287L17.6979 60.554C17.2162 60.3948 16.6946 60.4047 16.2193 60.5821C15.744 60.7595 15.3434 61.0938 15.0839 61.5297C14.9612 61.7215 14.8839 61.9387 14.8576 62.1648C14.8314 62.3909 14.857 62.62 14.9325 62.8348C15.0079 63.0496 15.1312 63.2443 15.2931 63.4043C15.455 63.5644 15.6512 63.6854 15.8669 63.7584L63.499 81.5331C63.9792 81.6913 64.499 81.6814 64.973 81.5052C65.4469 81.329 65.8468 80.9968 66.107 80.5633C66.2309 80.3717 66.3095 80.1544 66.3368 79.9279C66.364 79.7014 66.3392 79.4717 66.2643 79.2562C66.1894 79.0407 66.0663 78.8452 65.9044 78.6845C65.7425 78.5237 65.5461 78.402 65.33 78.3287Z" fill="#012B7E"/>
<path opacity="0.53" d="M65.3127 78.2685L17.6806 60.4998C17.2004 60.3405 16.6803 60.3497 16.2061 60.5261C15.7318 60.7024 15.332 61.0352 15.0725 61.4696C14.9486 61.6607 14.87 61.8775 14.8428 62.1036C14.8155 62.3298 14.8403 62.5591 14.9153 62.7742C14.9903 62.9892 15.1134 63.1843 15.2754 63.3444C15.4373 63.5046 15.6337 63.6256 15.8495 63.6982L63.4816 81.4729C63.9617 81.6334 64.4823 81.6247 64.9568 81.4482C65.4313 81.2718 65.8311 80.9383 66.0897 80.5031C66.2136 80.3116 66.2922 80.0943 66.3194 79.8678C66.3467 79.6413 66.3219 79.4115 66.247 79.196C66.172 78.9806 66.0489 78.785 65.887 78.6243C65.7251 78.4636 65.5287 78.3419 65.3127 78.2685Z" fill="#012B7E"/>
<path opacity="0.56" d="M65.2999 78.2149L17.6617 60.4402C17.1809 60.2814 16.6603 60.2916 16.186 60.469C15.7117 60.6465 15.3122 60.9806 15.0537 61.416C14.931 61.6074 14.8533 61.8242 14.8267 62.05C14.8001 62.2758 14.8252 62.5047 14.9 62.7193C14.9749 62.934 15.0975 63.1289 15.2588 63.2892C15.42 63.4495 15.6156 63.571 15.8307 63.6446L63.4688 81.4193C63.9491 81.5764 64.4685 81.566 64.9422 81.3899C65.4159 81.2138 65.8158 80.8823 66.0769 80.4496C66.2008 80.258 66.2794 80.0407 66.3066 79.8142C66.3339 79.5877 66.3091 79.358 66.2341 79.1425C66.1592 78.927 66.0361 78.7315 65.8742 78.5707C65.7123 78.41 65.5159 78.2883 65.2999 78.2149Z" fill="#012B7E"/>
<path opacity="0.59" d="M65.2836 78.1518L17.6515 60.3831C17.1704 60.2233 16.6493 60.2324 16.1741 60.4087C15.6988 60.585 15.2979 60.918 15.0374 61.3528C14.9135 61.5439 14.8349 61.7608 14.8076 61.9869C14.7804 62.213 14.8052 62.4424 14.8801 62.6574C14.9551 62.8725 15.0783 63.0675 15.2402 63.2277C15.4021 63.3878 15.5985 63.5088 15.8144 63.5815L63.4525 81.3561C63.9327 81.5155 64.4529 81.5062 64.9271 81.3299C65.4013 81.1536 65.8011 80.8207 66.0606 80.3864C66.1845 80.1948 66.263 79.9775 66.2903 79.751C66.3175 79.5245 66.2928 79.2948 66.2178 79.0793C66.1429 78.8638 66.0198 78.6683 65.8579 78.5075C65.696 78.3468 65.4996 78.2251 65.2836 78.1518Z" fill="#012B7E"/>
<path opacity="0.62" d="M65.2651 78.106L17.633 60.3313C17.1544 60.1761 16.6373 60.1875 16.1659 60.3636C15.6946 60.5396 15.2967 60.87 15.037 61.301C14.9144 61.4928 14.837 61.71 14.8108 61.9361C14.7845 62.1622 14.8101 62.3913 14.8856 62.6061C14.961 62.8208 15.0844 63.0156 15.2463 63.1756C15.4082 63.3356 15.6044 63.4567 15.82 63.5296L63.4521 81.3043C63.9324 81.4614 64.4518 81.451 64.9255 81.2749C65.3992 81.0988 65.7992 80.7673 66.0602 80.3346C66.1826 80.142 66.2594 79.924 66.2849 79.6973C66.3103 79.4705 66.2837 79.241 66.2071 79.026C66.1304 78.8111 66.0057 78.6165 65.8424 78.4571C65.6792 78.2977 65.4818 78.1776 65.2651 78.106Z" fill="#012B7E"/>
<path opacity="0.65" d="M65.2541 78.0415L17.616 60.2668C17.1391 60.1168 16.6256 60.1314 16.1581 60.3084C15.6905 60.4853 15.296 60.8144 15.038 61.2426C14.9153 61.434 14.8377 61.6508 14.8111 61.8766C14.7845 62.1024 14.8095 62.3313 14.8844 62.5459C14.9592 62.7606 15.0819 62.9555 15.2431 63.1158C15.4044 63.2761 15.5999 63.3976 15.815 63.4712L63.4471 81.2459C63.9273 81.4053 64.4475 81.396 64.9217 81.2197C65.3959 81.0433 65.7958 80.7105 66.0552 80.2762C66.1787 80.083 66.2563 79.8642 66.282 79.6364C66.3077 79.4086 66.2808 79.1779 66.2035 78.9621C66.1261 78.7463 66.0003 78.5511 65.8357 78.3916C65.6711 78.232 65.4722 78.1122 65.2541 78.0415Z" fill="#012B7E"/>
<path opacity="0.68" d="M65.2335 77.9857L17.5953 60.211C17.1146 60.051 16.5935 60.0606 16.1189 60.2382C15.6444 60.4157 15.245 60.7505 14.9873 61.1868C14.8645 61.3781 14.7869 61.5949 14.7603 61.8207C14.7337 62.0465 14.7587 62.2754 14.8336 62.4901C14.9084 62.7048 15.0311 62.8996 15.1924 63.0599C15.3536 63.2202 15.5492 63.3418 15.7643 63.4154L63.4024 81.184C63.8826 81.3434 64.4027 81.3341 64.8769 81.1578C65.3512 80.9815 65.751 80.6486 66.0105 80.2143C66.1344 80.0232 66.213 79.8063 66.2402 79.5802C66.2675 79.3541 66.2427 79.1248 66.1677 78.9097C66.0927 78.6947 65.9696 78.4996 65.8076 78.3395C65.6457 78.1793 65.4493 78.0583 65.2335 77.9857Z" fill="#012B7E"/>
<path opacity="0.71" d="M65.2168 77.9251L17.5847 60.1504C17.1029 59.9923 16.5816 60.0028 16.1066 60.1802C15.6315 60.3575 15.231 60.6911 14.9706 61.1262C14.848 61.318 14.7706 61.5351 14.7444 61.7612C14.7181 61.9874 14.7437 62.2165 14.8192 62.4312C14.8946 62.646 15.018 62.8408 15.1799 63.0008C15.3418 63.1608 15.538 63.2819 15.7536 63.3548L63.3857 81.1174C63.866 81.2756 64.3857 81.2658 64.8597 81.0896C65.3336 80.9134 65.7335 80.5812 65.9938 80.1477C66.1153 79.9565 66.192 79.7402 66.218 79.5151C66.244 79.2901 66.2186 79.062 66.1439 78.8481C66.0691 78.6342 65.9468 78.4401 65.7863 78.2802C65.6257 78.1203 65.431 77.9989 65.2168 77.9251Z" fill="#012B7E"/>
<path opacity="0.74" d="M65.1994 77.8722L17.5673 60.0975C17.0872 59.9381 16.567 59.9474 16.0928 60.1237C15.6186 60.3 15.2187 60.6329 14.9593 61.0672C14.8353 61.2583 14.7567 61.4752 14.7295 61.7013C14.7022 61.9274 14.727 62.1567 14.802 62.3718C14.877 62.5868 15.0002 62.7819 15.1621 62.9421C15.324 63.1022 15.5204 63.2232 15.7362 63.2958L63.3683 81.0705C63.8485 81.231 64.369 81.2223 64.8435 81.0459C65.318 80.8695 65.7178 80.5359 65.9764 80.1008C66.1004 79.9097 66.179 79.6928 66.2062 79.4667C66.2335 79.2406 66.2087 79.0112 66.1337 78.7962C66.0587 78.5812 65.9355 78.3861 65.7736 78.2259C65.6117 78.0658 65.4153 77.9448 65.1994 77.8722Z" fill="#012B7E"/>
<path opacity="0.76" d="M65.1866 77.8087L17.5485 60.034C17.0676 59.8752 16.547 59.8854 16.0727 60.0628C15.5984 60.2402 15.1989 60.5743 14.9404 61.0097C14.8177 61.2011 14.7401 61.4179 14.7134 61.6437C14.6868 61.8695 14.7119 62.0984 14.7867 62.3131C14.8616 62.5278 14.9842 62.7226 15.1455 62.8829C15.3067 63.0432 15.5023 63.1648 15.7174 63.2384L63.3555 81.0131C63.8358 81.1713 64.3555 81.1614 64.8295 80.9852C65.3034 80.809 65.7034 80.4769 65.9636 80.0433C66.0875 79.8518 66.1661 79.6345 66.1933 79.408C66.2206 79.1815 66.1958 78.9517 66.1209 78.7362C66.0459 78.5208 65.9228 78.3252 65.761 78.1645C65.5991 78.0037 65.4026 77.8821 65.1866 77.8087Z" fill="#012B7E"/>
<path opacity="0.79" d="M65.1703 77.7494L17.5382 59.9807C17.0572 59.821 16.536 59.83 16.0608 60.0063C15.5855 60.1826 15.1846 60.5157 14.9241 60.9505C14.8002 61.1416 14.7216 61.3584 14.6943 61.5846C14.6671 61.8107 14.6919 62.04 14.7669 62.2551C14.8418 62.4701 14.965 62.6652 15.1269 62.8253C15.2888 62.9855 15.4852 63.1065 15.7011 63.1791L63.3392 80.9538C63.8194 81.1131 64.3396 81.1039 64.8138 80.9276C65.288 80.7512 65.6879 80.4184 65.9473 79.984C66.0712 79.7925 66.1498 79.5752 66.177 79.3487C66.2043 79.1222 66.1795 78.8925 66.1045 78.677C66.0296 78.4615 65.9065 78.2659 65.7446 78.1052C65.5827 77.9445 65.3863 77.8228 65.1703 77.7494Z" fill="#012B7E"/>
<path opacity="0.82" d="M65.1504 77.6959L17.5183 59.9211C17.0365 59.762 16.5149 59.7719 16.0396 59.9493C15.5643 60.1267 15.1638 60.461 14.9042 60.8969C14.7816 61.0887 14.7042 61.3059 14.678 61.532C14.6517 61.7581 14.6773 61.9872 14.7527 62.202C14.8282 62.4167 14.9516 62.6115 15.1135 62.7715C15.2754 62.9315 15.4716 63.0526 15.6872 63.1255L63.3193 80.9002C63.7996 81.0573 64.319 81.047 64.7926 80.8708C65.2663 80.6947 65.6663 80.3632 65.9273 79.9305C66.0512 79.7389 66.1298 79.5216 66.1571 79.2951C66.1843 79.0686 66.1595 78.8389 66.0846 78.6234C66.0097 78.4079 65.8866 78.2124 65.7247 78.0516C65.5628 77.8909 65.3664 77.7692 65.1504 77.6959Z" fill="#012B7E"/>
<path opacity="0.85" d="M65.1397 77.6357L17.5016 59.867C17.0214 59.7077 16.5013 59.7169 16.0271 59.8933C15.5528 60.0696 15.153 60.4024 14.8935 60.8367C14.7708 61.0281 14.6932 61.2449 14.6666 61.4707C14.6399 61.6965 14.665 61.9254 14.7399 62.1401C14.8147 62.3548 14.9374 62.5496 15.0986 62.7099C15.2599 62.8702 15.4554 62.9918 15.6705 63.0654L63.3087 80.8401C63.7879 81.0001 64.3075 80.9912 64.781 80.8148C65.2544 80.6383 65.6531 80.305 65.9107 79.8703C66.0347 79.6791 66.1135 79.4622 66.1412 79.2361C66.1688 79.0099 66.1446 78.7804 66.0702 78.565C65.9959 78.3496 65.8735 78.1539 65.7123 77.9929C65.551 77.8319 65.3552 77.7097 65.1397 77.6357Z" fill="#012B7E"/>
<path opacity="0.88" d="M65.1202 77.5833L17.4821 59.8086C17.0013 59.6487 16.4802 59.6583 16.0057 59.8359C15.5311 60.0134 15.1317 60.3482 14.874 60.7844C14.7513 60.9758 14.6737 61.1926 14.647 61.4184C14.6204 61.6442 14.6455 61.8731 14.7203 62.0878C14.7952 62.3024 14.9178 62.4973 15.0791 62.6576C15.2403 62.8179 15.4359 62.9394 15.651 63.013L63.2891 80.7817C63.7686 80.9416 64.2883 80.9332 64.7625 80.758C65.2366 80.5828 65.6368 80.2512 65.8972 79.818C66.0211 79.6264 66.0996 79.4091 66.1269 79.1826C66.1541 78.9561 66.1294 78.7264 66.0545 78.5109C65.9795 78.2954 65.8564 78.0998 65.6945 77.9391C65.5326 77.7784 65.3362 77.6567 65.1202 77.5833Z" fill="#012B7E"/>
<path opacity="0.91" d="M65.1041 77.5008L17.448 59.7442C16.9662 59.5861 16.4449 59.5966 15.9699 59.7739C15.4949 59.9512 15.0942 60.2848 14.8339 60.7199C14.7112 60.9117 14.6339 61.1289 14.6076 61.355C14.5814 61.5811 14.607 61.8102 14.6825 62.025C14.7579 62.2398 14.8813 62.4345 15.0432 62.5945C15.2051 62.7545 15.4013 62.8756 15.6169 62.9485L63.249 80.7232C63.7292 80.8815 64.249 80.8716 64.7229 80.6954C65.1969 80.5192 65.5968 80.187 65.8571 79.7535C65.9849 79.563 66.0674 79.3457 66.0982 79.1184C66.1289 78.891 66.1071 78.6597 66.0343 78.4421C65.9616 78.2245 65.8399 78.0265 65.6787 77.8633C65.5174 77.7001 65.3209 77.5761 65.1041 77.5008Z" fill="#012B7E"/>
<path opacity="0.94" d="M65.085 77.4662L17.4469 59.6914C16.9661 59.5315 16.4451 59.5411 15.9705 59.7187C15.4959 59.8962 15.0965 60.231 14.8388 60.6672C14.7161 60.8586 14.6385 61.0754 14.6119 61.3012C14.5853 61.527 14.6103 61.7559 14.6852 61.9706C14.76 62.1852 14.8827 62.3801 15.0439 62.5404C15.2052 62.7007 15.4007 62.8222 15.6158 62.8958L63.2479 80.6645C63.728 80.825 64.2486 80.8163 64.7231 80.6399C65.1976 80.4634 65.5974 80.1299 65.856 79.6948C65.9812 79.5044 66.0611 79.2878 66.0894 79.0617C66.1177 78.8356 66.0936 78.606 66.0191 78.3907C65.9446 78.1753 65.8216 77.98 65.6597 77.8197C65.4977 77.6594 65.3011 77.5384 65.085 77.4662Z" fill="#012B7E"/>
<path opacity="0.97" d="M65.073 77.4063L17.4469 59.6316C16.9661 59.4728 16.4454 59.483 15.9711 59.6605C15.4968 59.8379 15.0974 60.172 14.8388 60.6074C14.7161 60.7988 14.6385 61.0156 14.6119 61.2414C14.5853 61.4672 14.6103 61.6961 14.6852 61.9108C14.76 62.1254 14.8827 62.3203 15.0439 62.4806C15.2052 62.6409 15.4007 62.7624 15.6158 62.836L63.2238 80.6107C63.7041 80.7689 64.2239 80.7591 64.6978 80.5829C65.1718 80.4067 65.5717 80.0745 65.8319 79.641C65.9562 79.4506 66.0355 79.2345 66.0639 79.0089C66.0923 78.7834 66.0691 78.5543 65.996 78.3391C65.9229 78.1238 65.8018 77.928 65.6419 77.7664C65.482 77.6048 65.2875 77.4817 65.073 77.4063Z" fill="#012B7E"/>
<path d="M65.0312 77.3531L17.4473 59.5784C16.9662 59.4187 16.4451 59.4277 15.9698 59.604C15.4946 59.7803 15.0936 60.1133 14.8332 60.5482C14.7093 60.7396 14.631 60.9569 14.6042 61.1833C14.5773 61.4098 14.6026 61.6393 14.6782 61.8545C14.7538 62.0696 14.8776 62.2645 15.0402 62.4244C15.2028 62.5843 15.3998 62.7048 15.6162 62.7768L63.2242 80.5515C63.7044 80.7108 64.2246 80.7015 64.6988 80.5252C65.173 80.3489 65.5728 80.0161 65.8323 79.5817C65.9558 79.3891 66.0334 79.1706 66.0591 78.9432C66.0848 78.7158 66.0579 78.4855 65.9805 78.2701C65.9031 78.0548 65.7772 77.8601 65.6126 77.7011C65.448 77.5421 65.2491 77.423 65.0312 77.3531Z" fill="#012B7E"/>
<path d="M66.1514 78.8547C66.1575 78.7745 66.1575 78.6939 66.1514 78.6137C66.1486 78.5917 66.1486 78.5695 66.1514 78.5475V78.4451V78.3487C66.1514 78.2885 66.1093 78.2222 66.0852 78.162L65.5491 76.9573C65.5863 77.0467 65.6145 77.1395 65.6335 77.2344V77.3368C65.6424 77.439 65.6424 77.5418 65.6335 77.644C65.6201 77.754 65.5979 77.8628 65.5672 77.9692C65.5698 77.9953 65.5698 78.0215 65.5672 78.0475C65.5329 78.1616 65.4843 78.2709 65.4227 78.3728C65.3689 78.4721 65.3043 78.565 65.2299 78.6499V78.692C65.1557 78.7763 65.0751 78.8548 64.989 78.9269L64.9348 78.9691C64.8503 79.0367 64.7618 79.0991 64.6697 79.1558H64.6215C64.5347 79.2052 64.4441 79.2475 64.3505 79.2823H64.2903C64.1824 79.3227 64.0717 79.3549 63.959 79.3787H63.8265C63.7308 79.3947 63.6343 79.4047 63.5374 79.4088H63.429C63.3488 79.4148 63.2682 79.4148 63.188 79.4088H63.0856C62.9746 79.392 62.8655 79.3638 62.7603 79.3245L15.1042 61.604C14.9047 61.5276 14.721 61.4153 14.5621 61.2727C14.4164 61.1391 14.2996 60.9772 14.2188 60.7969L14.7548 62.0015C14.8393 62.1885 14.9607 62.3564 15.1118 62.4952C15.263 62.6339 15.4407 62.7405 15.6342 62.8086L63.2964 80.5352C63.4031 80.5696 63.5117 80.5978 63.6217 80.6195H63.7241C63.8043 80.6257 63.8848 80.6257 63.965 80.6195H64.0674C64.1665 80.6138 64.265 80.6017 64.3626 80.5833H64.4288C64.5268 80.5636 64.6234 80.5375 64.7179 80.505H64.754H64.8143L64.9528 80.4508L65.0854 80.3785H65.1275C65.1919 80.3419 65.2543 80.3017 65.3142 80.2581L65.3745 80.2099L65.4286 80.1617L65.4889 80.1135L65.6636 79.9389V79.8967C65.7165 79.8361 65.7648 79.7717 65.8081 79.7039L65.8563 79.6256C65.9145 79.5219 65.9628 79.413 66.0009 79.3004C66.0009 79.2703 66.0009 79.2462 66.0009 79.2161C66.0662 79.1025 66.1168 78.981 66.1514 78.8547Z" fill="url(#paint12_linear_2105_42114)"/>
<path d="M64.6152 76.1404C64.8313 76.2127 65.0279 76.3337 65.1899 76.494C65.3518 76.6543 65.4748 76.8496 65.5493 77.065C65.6238 77.2803 65.6478 77.5099 65.6195 77.736C65.5912 77.9621 65.5114 78.1787 65.3862 78.3691C65.1285 78.8053 64.729 79.1401 64.2545 79.3176C63.7799 79.4952 63.2589 79.5048 62.7781 79.3448L15.1219 61.6244C14.9064 61.5503 14.7106 61.4281 14.5494 61.2671C14.3881 61.1061 14.2657 60.9105 14.1914 60.6951C14.1171 60.4797 14.0928 60.2502 14.1204 60.024C14.1481 59.7978 14.2269 59.5809 14.3509 59.3897C14.61 58.9564 15.0085 58.6239 15.4812 58.4466C15.954 58.2693 16.4729 58.2578 16.953 58.4139L64.6152 76.1404Z" fill="url(#paint13_linear_2105_42114)"/>
<path style="mix-blend-mode:overlay" d="M64.6152 76.1404L16.953 58.4139C16.4729 58.2578 15.954 58.2693 15.4812 58.4466C15.0085 58.6239 14.61 58.9564 14.3509 59.3897C14.2269 59.5809 14.1481 59.7978 14.1204 60.024C14.0928 60.2502 14.1171 60.4797 14.1914 60.6951C14.2657 60.9105 14.3881 61.1061 14.5494 61.2671C14.7106 61.4281 14.9064 61.5503 15.1219 61.6244L62.7781 79.3448C63.2589 79.5048 63.7799 79.4952 64.2545 79.3176C64.729 79.1401 65.1285 78.8053 65.3862 78.3691C65.5114 78.1787 65.5912 77.9621 65.6195 77.736C65.6478 77.5099 65.6238 77.2803 65.5493 77.065C65.4748 76.8496 65.3518 76.6543 65.1899 76.494C65.0279 76.3337 64.8313 76.2127 64.6152 76.1404ZM65.2175 78.2787C65.0319 78.5824 64.7718 78.8336 64.4619 79.0085C64.152 79.1835 63.8026 79.2765 63.4467 79.2786C63.2411 79.2784 63.0371 79.2417 62.8443 79.1702L15.1882 61.4436C15.0044 61.3821 14.8367 61.2804 14.6971 61.146C14.5575 61.0116 14.4496 60.8479 14.381 60.6666C14.3099 60.469 14.2849 60.2578 14.3079 60.049C14.3309 59.8402 14.4012 59.6394 14.5136 59.462C14.6962 59.1565 14.9546 58.9034 15.2638 58.7272C15.573 58.5509 15.9225 58.4576 16.2784 58.4561C16.484 58.4563 16.6879 58.493 16.8807 58.5645L64.5489 76.2971C64.7338 76.3597 64.9025 76.4623 65.0431 76.5977C65.1836 76.733 65.2925 76.8977 65.3621 77.0801C65.4292 77.2774 65.4521 77.487 65.4292 77.6942C65.4063 77.9013 65.3382 78.1009 65.2296 78.2787H65.2175Z" fill="url(#paint14_linear_2105_42114)"/>
<defs>
<filter id="filter0_f_2105_42114" x="38.6297" y="19.325" width="43.7406" height="39.5219" filterUnits="userSpaceOnUse" color-interpolation-filters="sRGB">
<feFlood flood-opacity="0" result="BackgroundImageFix"/>
<feBlend mode="normal" in="SourceGraphic" in2="BackgroundImageFix" result="shape"/>
<feGaussianBlur stdDeviation="1.9" result="effect1_foregroundBlur_2105_42114"/>
</filter>
<linearGradient id="paint0_linear_2105_42114" x1="46.6656" y1="109.366" x2="33.7878" y2="41.6278" gradientUnits="userSpaceOnUse">
<stop offset="0.07" stop-color="#005BC3"/>
<stop offset="0.27" stop-color="#2075D1"/>
<stop offset="0.71" stop-color="#6FB8F4"/>
<stop offset="0.82" stop-color="#83C8FD"/>
</linearGradient>
<linearGradient id="paint1_linear_2105_42114" x1="39.2517" y1="3.04334" x2="76.9816" y2="71.7328" gradientUnits="userSpaceOnUse">
<stop stop-color="#F2F9FF"/>
<stop offset="0.23" stop-color="#EEF1FF"/>
<stop offset="0.58" stop-color="#E1DCFF"/>
<stop offset="1" stop-color="#CEB9FF"/>
</linearGradient>
<linearGradient id="paint2_linear_2105_42114" x1="48.1834" y1="-1.91984" x2="56.2847" y2="91.17" gradientUnits="userSpaceOnUse">
<stop offset="0.08" stop-color="white"/>
<stop offset="1" stop-color="white" stop-opacity="0"/>
</linearGradient>
<linearGradient id="paint3_linear_2105_42114" x1="46.7963" y1="52.3496" x2="76.738" y2="32.2078" gradientUnits="userSpaceOnUse">
<stop stop-color="#A81C69"/>
<stop offset="0.08" stop-color="#89125A"/>
<stop offset="0.13" stop-color="#7A0D52"/>
<stop offset="0.28" stop-color="#700D52"/>
<stop offset="0.58" stop-color="#610D52"/>
<stop offset="0.66" stop-color="#670E53"/>
<stop offset="0.76" stop-color="#761157"/>
<stop offset="0.86" stop-color="#90155E"/>
<stop offset="0.98" stop-color="#B41B67"/>
<stop offset="1" stop-color="#BC1C69"/>
</linearGradient>
<radialGradient id="paint4_radial_2105_42114" cx="0" cy="0" r="1" gradientUnits="userSpaceOnUse" gradientTransform="translate(63.0491 73.8186) scale(59.3715)">
<stop offset="0.34" stop-color="#DA334F"/>
<stop offset="0.68" stop-color="#FF597D"/>
<stop offset="0.99" stop-color="#FFA19A"/>
</radialGradient>
<linearGradient id="paint5_linear_2105_42114" x1="21543" y1="10903.5" x2="22204.8" y2="12661.5" gradientUnits="userSpaceOnUse">
<stop offset="0.08" stop-color="white"/>
<stop offset="1" stop-color="white" stop-opacity="0"/>
</linearGradient>
<linearGradient id="paint6_linear_2105_42114" x1="51.6814" y1="29.1922" x2="65.9626" y2="50.6893" gradientUnits="userSpaceOnUse">
<stop stop-color="#F2F9FF"/>
<stop offset="0.96" stop-color="#D0BCFF"/>
<stop offset="1" stop-color="#CEB9FF"/>
</linearGradient>
<linearGradient id="paint7_linear_2105_42114" x1="111.014" y1="33.9865" x2="29.5608" y2="99.6463" gradientUnits="userSpaceOnUse">
<stop stop-color="#E0D4FF"/>
<stop offset="0.02" stop-color="#C9BBF5"/>
<stop offset="0.03" stop-color="#BBABEF"/>
<stop offset="0.04" stop-color="#B6A5ED"/>
<stop offset="0.18" stop-color="#A696E2"/>
<stop offset="0.44" stop-color="#7B6EC5"/>
<stop offset="0.53" stop-color="#6B5FBA"/>
<stop offset="0.72" stop-color="#6D61BB"/>
<stop offset="0.78" stop-color="#7468BF"/>
<stop offset="0.83" stop-color="#7F73C6"/>
<stop offset="0.87" stop-color="#9084D0"/>
<stop offset="0.9" stop-color="#A69ADD"/>
<stop offset="0.93" stop-color="#C1B5ED"/>
<stop offset="0.96" stop-color="#E0D4FF"/>
</linearGradient>
<linearGradient id="paint8_linear_2105_42114" x1="23.2875" y1="80.1108" x2="50.2959" y2="72.5034" gradientUnits="userSpaceOnUse">
<stop stop-color="#E07CEC"/>
<stop offset="0.02" stop-color="#C86CDA"/>
<stop offset="0.06" stop-color="#A453BF"/>
<stop offset="0.1" stop-color="#8A41AC"/>
<stop offset="0.14" stop-color="#7A36A0"/>
<stop offset="0.16" stop-color="#74329C"/>
<stop offset="0.62" stop-color="#74329C"/>
<stop offset="0.69" stop-color="#74329C"/>
<stop offset="0.8" stop-color="#74329C"/>
<stop offset="0.82" stop-color="#74329C"/>
<stop offset="0.85" stop-color="#79359F"/>
<stop offset="0.89" stop-color="#863FAA"/>
<stop offset="0.93" stop-color="#9D4EBB"/>
<stop offset="0.96" stop-color="#BD64D2"/>
<stop offset="1" stop-color="#E07CEC"/>
</linearGradient>
<linearGradient id="paint9_linear_2105_42114" x1="29.6065" y1="102.446" x2="36.5152" y2="74.8288" gradientUnits="userSpaceOnUse">
<stop offset="0.28" stop-color="#CB25DF"/>
<stop offset="0.99" stop-color="#E07CEC"/>
</linearGradient>
<linearGradient id="paint10_linear_2105_42114" x1="16600" y1="5391.75" x2="16573.5" y2="5637.84" gradientUnits="userSpaceOnUse">
<stop offset="0.08" stop-color="white"/>
<stop offset="1" stop-color="white" stop-opacity="0"/>
</linearGradient>
<linearGradient id="paint11_linear_2105_42114" x1="77.2232" y1="59.698" x2="8.0278" y2="94.8197" gradientUnits="userSpaceOnUse">
<stop stop-color="#32A5FC"/>
<stop offset="0.02" stop-color="#2B97EE"/>
<stop offset="0.07" stop-color="#1874CD"/>
<stop offset="0.12" stop-color="#0B5BB5"/>
<stop offset="0.17" stop-color="#034CA6"/>
<stop offset="0.21" stop-color="#0047A1"/>
<stop offset="0.25" stop-color="#00429B"/>
<stop offset="0.3" stop-color="#00368C"/>
<stop offset="0.35" stop-color="#00287B"/>
<stop offset="0.51" stop-color="#002D81"/>
<stop offset="0.71" stop-color="#003990"/>
<stop offset="0.86" stop-color="#0047A1"/>
<stop offset="0.89" stop-color="#034DA6"/>
<stop offset="0.92" stop-color="#0B5CB6"/>
<stop offset="0.95" stop-color="#1976CF"/>
<stop offset="0.99" stop-color="#2C9AF2"/>
<stop offset="1" stop-color="#32A5FC"/>
</linearGradient>
<linearGradient id="paint12_linear_2105_42114" x1="15.5077" y1="76.2345" x2="66.0912" y2="64.5434" gradientUnits="userSpaceOnUse">
<stop stop-color="#2BF3A6"/>
<stop offset="0.01" stop-color="#1EDA96"/>
<stop offset="0.02" stop-color="#14C689"/>
<stop offset="0.04" stop-color="#11BB84"/>
<stop offset="0.08" stop-color="#0BA579"/>
<stop offset="0.13" stop-color="#069471"/>
<stop offset="0.19" stop-color="#02896B"/>
<stop offset="0.27" stop-color="#018268"/>
<stop offset="0.5" stop-color="#008067"/>
<stop offset="0.8" stop-color="#008067"/>
<stop offset="0.84" stop-color="#008067"/>
<stop offset="0.86" stop-color="#018569"/>
<stop offset="0.88" stop-color="#069471"/>
<stop offset="0.91" stop-color="#0DAC7D"/>
<stop offset="0.93" stop-color="#14C689"/>
<stop offset="0.94" stop-color="#17CC8B"/>
<stop offset="0.97" stop-color="#21DC92"/>
<stop offset="0.99" stop-color="#31F79C"/>
<stop offset="1" stop-color="#36FF9F"/>
</linearGradient>
<linearGradient id="paint13_linear_2105_42114" x1="38.7813" y1="94.8668" x2="40.6486" y2="50.1922" gradientUnits="userSpaceOnUse">
<stop stop-color="#08BF8C"/>
<stop offset="0.41" stop-color="#20E5A0"/>
<stop offset="0.67" stop-color="#31FFAE"/>
<stop offset="0.99" stop-color="#6EFFCD"/>
</linearGradient>
<linearGradient id="paint14_linear_2105_42114" x1="29106.8" y1="8344.97" x2="29133.9" y2="9316.01" gradientUnits="userSpaceOnUse">
<stop offset="0.08" stop-color="white"/>
<stop offset="1" stop-color="white" stop-opacity="0"/>
</linearGradient>
</defs>
</svg>
