<svg width="30" height="30" viewBox="0 0 30 30" fill="none" xmlns="http://www.w3.org/2000/svg">
<path d="M22.5881 10.6358L11.8881 5.28584C4.70057 1.68584 1.75057 4.63584 5.35057 11.8233L6.43807 13.9983C6.75057 14.6358 6.75057 15.3733 6.43807 16.0108L5.35057 18.1733C1.75057 25.3608 4.68807 28.3108 11.8881 24.7108L22.5881 19.3608C27.3881 16.9608 27.3881 13.0358 22.5881 10.6358ZM18.5506 15.9358H11.8006C11.2881 15.9358 10.8631 15.5108 10.8631 14.9983C10.8631 14.4858 11.2881 14.0608 11.8006 14.0608H18.5506C19.0631 14.0608 19.4881 14.4858 19.4881 14.9983C19.4881 15.5108 19.0631 15.9358 18.5506 15.9358Z" fill="#0070F4"/>
</svg>
