<svg width="25" height="24" viewBox="0 0 25 24" fill="none" xmlns="http://www.w3.org/2000/svg">
<path d="M7.98047 22H4.98047C4.45004 22 3.94133 21.7893 3.56626 21.4142C3.19118 21.0391 2.98047 20.5304 2.98047 20V13C2.98047 12.4696 3.19118 11.9609 3.56626 11.5858C3.94133 11.2107 4.45004 11 4.98047 11H7.98047M14.9805 9V5C14.9805 4.20435 14.6644 3.44129 14.1018 2.87868C13.5392 2.31607 12.7761 2 11.9805 2L7.98047 11V22H19.2605C19.7428 22.0055 20.2108 21.8364 20.5784 21.524C20.9459 21.2116 21.1881 20.7769 21.2605 20.3L22.6405 11.3C22.684 11.0134 22.6646 10.7207 22.5838 10.4423C22.503 10.1638 22.3626 9.90629 22.1723 9.68751C21.9821 9.46873 21.7465 9.29393 21.482 9.17522C21.2175 9.0565 20.9304 8.99672 20.6405 9H14.9805Z" stroke="#8991A0" stroke-width="2" stroke-linecap="round" stroke-linejoin="round"/>
</svg>
