<svg width="201" height="23" viewBox="0 0 201 23" fill="none" xmlns="http://www.w3.org/2000/svg">
<path d="M17.76 0.76C17.68 1.52 17.62 2.26 17.58 2.98C17.56 3.68 17.55 4.22 17.55 4.6C17.55 5.08 17.56 5.53 17.58 5.95C17.6 6.37 17.62 6.74 17.64 7.06H16.95C16.81 5.66 16.62 4.56 16.38 3.76C16.14 2.94 15.72 2.35 15.12 1.99C14.52 1.63 13.59 1.45 12.33 1.45H10.71V18.52C10.71 19.32 10.78 19.92 10.92 20.32C11.08 20.72 11.38 20.99 11.82 21.13C12.26 21.27 12.9 21.36 13.74 21.4V22C13.22 21.96 12.56 21.94 11.76 21.94C10.96 21.92 10.15 21.91 9.33 21.91C8.43 21.91 7.58 21.92 6.78 21.94C6 21.94 5.37 21.96 4.89 22V21.4C5.73 21.36 6.37 21.27 6.81 21.13C7.25 20.99 7.54 20.72 7.68 20.32C7.84 19.92 7.92 19.32 7.92 18.52V1.45H6.3C5.06 1.45 4.13 1.63 3.51 1.99C2.91 2.35 2.49 2.94 2.25 3.76C2.01 4.56 1.82 5.66 1.68 7.06H0.99C1.03 6.74 1.05 6.37 1.05 5.95C1.07 5.53 1.08 5.08 1.08 4.6C1.08 4.22 1.06 3.68 1.02 2.98C1 2.26 0.95 1.52 0.87 0.76C1.71 0.78 2.62 0.799999 3.6 0.819999C4.6 0.839999 5.6 0.849999 6.6 0.849999C7.6 0.849999 8.51 0.849999 9.33 0.849999C10.15 0.849999 11.05 0.849999 12.03 0.849999C13.03 0.849999 14.03 0.839999 15.03 0.819999C16.03 0.799999 16.94 0.78 17.76 0.76ZM37.7428 0.76V1.36C37.3628 1.44 36.9528 1.67 36.5128 2.05C36.0928 2.43 35.7128 3.07 35.3728 3.97L28.3228 22.15C28.2828 22.15 28.2428 22.15 28.2028 22.15C28.1628 22.15 28.1228 22.15 28.0828 22.15C28.0428 22.15 28.0028 22.15 27.9628 22.15C27.9228 22.15 27.8828 22.15 27.8428 22.15L20.5228 3.28C20.2228 2.52 19.8828 2.02 19.5028 1.78C19.1228 1.52 18.7728 1.38 18.4528 1.36V0.76C18.8528 0.78 19.3428 0.799999 19.9228 0.819999C20.5228 0.839999 21.1028 0.849999 21.6628 0.849999C22.4428 0.849999 23.1728 0.839999 23.8528 0.819999C24.5328 0.799999 25.0828 0.78 25.5028 0.76V1.36C24.8228 1.38 24.3028 1.46 23.9428 1.6C23.6028 1.74 23.4128 1.99 23.3728 2.35C23.3528 2.69 23.4728 3.2 23.7328 3.88L29.3128 18.67L28.8328 19.18L34.0528 5.62C34.4728 4.54 34.6728 3.7 34.6528 3.1C34.6328 2.48 34.4028 2.04 33.9628 1.78C33.5228 1.52 32.8828 1.38 32.0428 1.36V0.76C32.6228 0.78 33.2128 0.799999 33.8128 0.819999C34.4128 0.839999 34.9728 0.849999 35.4928 0.849999C36.0128 0.849999 36.4428 0.839999 36.7828 0.819999C37.1228 0.799999 37.4428 0.78 37.7428 0.76ZM52.6392 0.609998L59.9592 19.48C60.2592 20.24 60.5992 20.75 60.9792 21.01C61.3592 21.25 61.7092 21.38 62.0292 21.4V22C61.6292 21.96 61.1392 21.94 60.5592 21.94C59.9792 21.92 59.3992 21.91 58.8192 21.91C58.0392 21.91 57.3092 21.92 56.6292 21.94C55.9492 21.94 55.3992 21.96 54.9792 22V21.4C55.9992 21.36 56.6492 21.19 56.9292 20.89C57.2092 20.57 57.1492 19.9 56.7492 18.88L51.1692 3.97L51.6492 3.58L46.4292 17.14C46.1092 17.94 45.9192 18.62 45.8592 19.18C45.7992 19.72 45.8492 20.15 46.0092 20.47C46.1892 20.79 46.4792 21.02 46.8792 21.16C47.2992 21.3 47.8192 21.38 48.4392 21.4V22C47.8792 21.96 47.2892 21.94 46.6692 21.94C46.0692 21.92 45.5092 21.91 44.9892 21.91C44.4892 21.91 44.0592 21.92 43.6992 21.94C43.3592 21.94 43.0392 21.96 42.7392 22V21.4C43.1392 21.3 43.5492 21.07 43.9692 20.71C44.3892 20.33 44.7692 19.69 45.1092 18.79L52.1592 0.609998C52.2392 0.609998 52.3192 0.609998 52.3992 0.609998C52.4792 0.609998 52.5592 0.609998 52.6392 0.609998ZM56.2992 13.36V13.96H47.3592L47.6592 13.36H56.2992ZM81.4957 0.76V1.36C80.8157 1.38 80.2957 1.48 79.9357 1.66C79.5957 1.84 79.3657 2.13 79.2457 2.53C79.1257 2.93 79.0657 3.5 79.0657 4.24V13.27C79.0657 14.67 78.9757 15.89 78.7957 16.93C78.6157 17.97 78.2957 18.87 77.8357 19.63C77.3357 20.47 76.6057 21.15 75.6457 21.67C74.6857 22.17 73.5857 22.42 72.3457 22.42C71.3857 22.42 70.4657 22.3 69.5857 22.06C68.7257 21.84 67.9657 21.42 67.3057 20.8C66.7257 20.24 66.2657 19.65 65.9257 19.03C65.6057 18.41 65.3857 17.65 65.2657 16.75C65.1457 15.85 65.0857 14.72 65.0857 13.36V3.94C65.0857 3.2 65.0257 2.66 64.9057 2.32C64.7857 1.96 64.5457 1.72 64.1857 1.6C63.8457 1.46 63.3357 1.38 62.6557 1.36V0.76C63.0757 0.78 63.6257 0.799999 64.3057 0.819999C64.9857 0.839999 65.7157 0.849999 66.4957 0.849999C67.1957 0.849999 67.8857 0.839999 68.5657 0.819999C69.2657 0.799999 69.8457 0.78 70.3057 0.76V1.36C69.6257 1.38 69.1057 1.46 68.7457 1.6C68.4057 1.72 68.1757 1.96 68.0557 2.32C67.9357 2.66 67.8757 3.2 67.8757 3.94V13.87C67.8757 14.89 67.9257 15.86 68.0257 16.78C68.1257 17.68 68.3257 18.48 68.6257 19.18C68.9457 19.86 69.4257 20.4 70.0657 20.8C70.7057 21.18 71.5557 21.37 72.6157 21.37C74.1357 21.37 75.3057 21.04 76.1257 20.38C76.9657 19.7 77.5457 18.77 77.8657 17.59C78.2057 16.41 78.3757 15.08 78.3757 13.6V4.24C78.3757 3.5 78.2857 2.93 78.1057 2.53C77.9457 2.13 77.6657 1.84 77.2657 1.66C76.8657 1.48 76.3257 1.38 75.6457 1.36V0.76C76.0057 0.78 76.4757 0.799999 77.0557 0.819999C77.6557 0.839999 78.2057 0.849999 78.7057 0.849999C79.2257 0.849999 79.7357 0.839999 80.2357 0.819999C80.7557 0.799999 81.1757 0.78 81.4957 0.76ZM91.7449 0.76C95.3249 0.76 97.9849 1.66 99.7249 3.46C101.465 5.24 102.335 7.8 102.335 11.14C102.335 13.32 101.905 15.23 101.045 16.87C100.205 18.49 98.9749 19.75 97.3549 20.65C95.7349 21.55 93.7749 22 91.4749 22C91.1749 22 90.7749 21.99 90.2749 21.97C89.7749 21.95 89.2549 21.94 88.7149 21.94C88.1949 21.92 87.7149 21.91 87.2749 21.91C86.5749 21.91 85.8849 21.92 85.2049 21.94C84.5249 21.94 83.9749 21.96 83.5549 22V21.4C84.2349 21.36 84.7449 21.28 85.0849 21.16C85.4449 21.04 85.6849 20.8 85.8049 20.44C85.9249 20.08 85.9849 19.54 85.9849 18.82V3.94C85.9849 3.2 85.9249 2.66 85.8049 2.32C85.6849 1.96 85.4449 1.72 85.0849 1.6C84.7449 1.46 84.2349 1.38 83.5549 1.36V0.76C83.9749 0.78 84.5249 0.809999 85.2049 0.849999C85.8849 0.869998 86.5549 0.869998 87.2149 0.849999C87.9149 0.829999 88.7049 0.809999 89.5849 0.789999C90.4649 0.77 91.1849 0.76 91.7449 0.76ZM90.9949 1.3C90.0749 1.3 89.4749 1.47 89.1949 1.81C88.9149 2.15 88.7749 2.84 88.7749 3.88V18.88C88.7749 19.92 88.9149 20.61 89.1949 20.95C89.4949 21.29 90.1049 21.46 91.0249 21.46C93.2049 21.46 94.8949 21.07 96.0949 20.29C97.2949 19.49 98.1349 18.33 98.6149 16.81C99.0949 15.29 99.3349 13.44 99.3349 11.26C99.3349 9.02 99.0649 7.17 98.5249 5.71C98.0049 4.23 97.1349 3.13 95.9149 2.41C94.7149 1.67 93.0749 1.3 90.9949 1.3ZM112.621 0.76V1.36C111.941 1.38 111.421 1.46 111.061 1.6C110.721 1.72 110.491 1.96 110.371 2.32C110.251 2.66 110.191 3.2 110.191 3.94V18.82C110.191 19.54 110.251 20.08 110.371 20.44C110.491 20.8 110.721 21.04 111.061 21.16C111.421 21.28 111.941 21.36 112.621 21.4V22C112.161 21.96 111.581 21.94 110.881 21.94C110.201 21.92 109.511 21.91 108.811 21.91C108.031 21.91 107.301 21.92 106.621 21.94C105.941 21.94 105.391 21.96 104.971 22V21.4C105.651 21.36 106.161 21.28 106.501 21.16C106.861 21.04 107.101 20.8 107.221 20.44C107.341 20.08 107.401 19.54 107.401 18.82V3.94C107.401 3.2 107.341 2.66 107.221 2.32C107.101 1.96 106.861 1.72 106.501 1.6C106.161 1.46 105.651 1.38 104.971 1.36V0.76C105.391 0.78 105.941 0.799999 106.621 0.819999C107.301 0.839999 108.031 0.849999 108.811 0.849999C109.511 0.849999 110.201 0.839999 110.881 0.819999C111.581 0.799999 112.161 0.78 112.621 0.76ZM131.637 0.76C131.557 1.52 131.497 2.26 131.457 2.98C131.437 3.68 131.427 4.22 131.427 4.6C131.427 5.08 131.437 5.53 131.457 5.95C131.477 6.37 131.497 6.74 131.517 7.06H130.827C130.687 5.66 130.497 4.56 130.257 3.76C130.017 2.94 129.597 2.35 128.997 1.99C128.397 1.63 127.467 1.45 126.207 1.45H124.587V18.52C124.587 19.32 124.657 19.92 124.797 20.32C124.957 20.72 125.257 20.99 125.697 21.13C126.137 21.27 126.777 21.36 127.617 21.4V22C127.097 21.96 126.437 21.94 125.637 21.94C124.837 21.92 124.027 21.91 123.207 21.91C122.307 21.91 121.457 21.92 120.657 21.94C119.877 21.94 119.247 21.96 118.767 22V21.4C119.607 21.36 120.247 21.27 120.687 21.13C121.127 20.99 121.417 20.72 121.557 20.32C121.717 19.92 121.797 19.32 121.797 18.52V1.45H120.177C118.937 1.45 118.007 1.63 117.387 1.99C116.787 2.35 116.367 2.94 116.127 3.76C115.887 4.56 115.697 5.66 115.557 7.06H114.867C114.907 6.74 114.927 6.37 114.927 5.95C114.947 5.53 114.957 5.08 114.957 4.6C114.957 4.22 114.937 3.68 114.897 2.98C114.877 2.26 114.827 1.52 114.747 0.76C115.587 0.78 116.497 0.799999 117.477 0.819999C118.477 0.839999 119.477 0.849999 120.477 0.849999C121.477 0.849999 122.387 0.849999 123.207 0.849999C124.027 0.849999 124.927 0.849999 125.907 0.849999C126.907 0.849999 127.907 0.839999 128.907 0.819999C129.907 0.799999 130.817 0.78 131.637 0.76ZM141.42 0.76V1.36C140.74 1.38 140.22 1.46 139.86 1.6C139.52 1.72 139.29 1.96 139.17 2.32C139.05 2.66 138.99 3.2 138.99 3.94V18.82C138.99 19.54 139.05 20.08 139.17 20.44C139.29 20.8 139.52 21.04 139.86 21.16C140.22 21.28 140.74 21.36 141.42 21.4V22C140.96 21.96 140.38 21.94 139.68 21.94C139 21.92 138.31 21.91 137.61 21.91C136.83 21.91 136.1 21.92 135.42 21.94C134.74 21.94 134.19 21.96 133.77 22V21.4C134.45 21.36 134.96 21.28 135.3 21.16C135.66 21.04 135.9 20.8 136.02 20.44C136.14 20.08 136.2 19.54 136.2 18.82V3.94C136.2 3.2 136.14 2.66 136.02 2.32C135.9 1.96 135.66 1.72 135.3 1.6C134.96 1.46 134.45 1.38 133.77 1.36V0.76C134.19 0.78 134.74 0.799999 135.42 0.819999C136.1 0.839999 136.83 0.849999 137.61 0.849999C138.31 0.849999 139 0.839999 139.68 0.819999C140.38 0.799999 140.96 0.78 141.42 0.76ZM153.571 0.339998C155.471 0.339998 157.131 0.769999 158.551 1.63C159.991 2.49 161.101 3.73 161.881 5.35C162.681 6.95 163.081 8.9 163.081 11.2C163.081 13.44 162.671 15.4 161.851 17.08C161.051 18.76 159.931 20.07 158.491 21.01C157.051 21.95 155.401 22.42 153.541 22.42C151.641 22.42 149.971 21.99 148.531 21.13C147.111 20.27 146.001 19.03 145.201 17.41C144.421 15.79 144.031 13.84 144.031 11.56C144.031 9.32 144.441 7.36 145.261 5.68C146.081 4 147.201 2.69 148.621 1.75C150.061 0.809999 151.711 0.339998 153.571 0.339998ZM153.451 0.879998C152.151 0.879998 151.021 1.33 150.061 2.23C149.101 3.13 148.351 4.37 147.811 5.95C147.291 7.53 147.031 9.36 147.031 11.44C147.031 13.56 147.321 15.41 147.901 16.99C148.501 18.55 149.301 19.76 150.301 20.62C151.321 21.46 152.441 21.88 153.661 21.88C154.961 21.88 156.091 21.43 157.051 20.53C158.011 19.63 158.751 18.39 159.271 16.81C159.811 15.21 160.081 13.38 160.081 11.32C160.081 9.18 159.781 7.33 159.181 5.77C158.601 4.21 157.811 3.01 156.811 2.17C155.811 1.31 154.691 0.879998 153.451 0.879998ZM184.543 0.76V1.36C183.863 1.38 183.343 1.48 182.983 1.66C182.643 1.84 182.413 2.13 182.293 2.53C182.173 2.93 182.113 3.5 182.113 4.24V22.15C181.993 22.15 181.873 22.15 181.753 22.15C181.653 22.15 181.543 22.15 181.423 22.15L168.823 2.68V18.52C168.823 19.24 168.883 19.81 169.003 20.23C169.143 20.63 169.403 20.92 169.783 21.1C170.183 21.26 170.773 21.36 171.553 21.4V22C171.193 21.96 170.723 21.94 170.143 21.94C169.563 21.92 169.013 21.91 168.493 21.91C167.993 21.91 167.483 21.92 166.963 21.94C166.463 21.94 166.043 21.96 165.703 22V21.4C166.383 21.36 166.893 21.26 167.233 21.1C167.593 20.92 167.833 20.63 167.953 20.23C168.073 19.81 168.133 19.24 168.133 18.52V3.94C168.133 3.2 168.073 2.66 167.953 2.32C167.833 1.96 167.593 1.72 167.233 1.6C166.893 1.46 166.383 1.38 165.703 1.36V0.76C166.043 0.78 166.463 0.799999 166.963 0.819999C167.483 0.839999 167.993 0.849999 168.493 0.849999C168.933 0.849999 169.353 0.839999 169.753 0.819999C170.153 0.799999 170.513 0.78 170.833 0.76L181.423 17.08V4.24C181.423 3.5 181.353 2.93 181.213 2.53C181.093 2.13 180.833 1.84 180.433 1.66C180.053 1.48 179.473 1.38 178.693 1.36V0.76C179.053 0.78 179.523 0.799999 180.103 0.819999C180.703 0.839999 181.253 0.849999 181.753 0.849999C182.273 0.849999 182.783 0.839999 183.283 0.819999C183.803 0.799999 184.223 0.78 184.543 0.76ZM193.305 0.429999C194.305 0.429999 195.065 0.549999 195.585 0.789999C196.105 1.01 196.565 1.26 196.965 1.54C197.205 1.68 197.395 1.79 197.535 1.87C197.695 1.93 197.845 1.96 197.985 1.96C198.185 1.96 198.325 1.85 198.405 1.63C198.505 1.41 198.585 1.08 198.645 0.64H199.335C199.315 0.979999 199.285 1.39 199.245 1.87C199.225 2.33 199.205 2.95 199.185 3.73C199.185 4.49 199.185 5.5 199.185 6.76H198.495C198.435 5.8 198.225 4.88 197.865 4C197.505 3.12 196.975 2.4 196.275 1.84C195.595 1.28 194.695 0.999999 193.575 0.999999C192.515 0.999999 191.635 1.32 190.935 1.96C190.255 2.6 189.915 3.44 189.915 4.48C189.915 5.38 190.145 6.14 190.605 6.76C191.065 7.36 191.675 7.91 192.435 8.41C193.215 8.89 194.055 9.41 194.955 9.97C195.995 10.61 196.915 11.25 197.715 11.89C198.535 12.51 199.175 13.2 199.635 13.96C200.115 14.72 200.355 15.64 200.355 16.72C200.355 18 200.065 19.06 199.485 19.9C198.905 20.74 198.135 21.37 197.175 21.79C196.215 22.21 195.155 22.42 193.995 22.42C192.935 22.42 192.095 22.3 191.475 22.06C190.855 21.82 190.325 21.57 189.885 21.31C189.445 21.03 189.105 20.89 188.865 20.89C188.665 20.89 188.515 21 188.415 21.22C188.335 21.44 188.265 21.77 188.205 22.21H187.515C187.555 21.79 187.575 21.3 187.575 20.74C187.595 20.16 187.605 19.41 187.605 18.49C187.625 17.57 187.635 16.41 187.635 15.01H188.325C188.405 16.21 188.625 17.33 188.985 18.37C189.365 19.41 189.935 20.25 190.695 20.89C191.475 21.51 192.505 21.82 193.785 21.82C194.445 21.82 195.065 21.69 195.645 21.43C196.245 21.15 196.735 20.72 197.115 20.14C197.495 19.54 197.685 18.77 197.685 17.83C197.685 17.01 197.485 16.3 197.085 15.7C196.705 15.08 196.165 14.51 195.465 13.99C194.765 13.45 193.945 12.9 193.005 12.34C192.065 11.76 191.185 11.17 190.365 10.57C189.545 9.97 188.885 9.28 188.385 8.5C187.905 7.7 187.665 6.74 187.665 5.62C187.665 4.44 187.925 3.47 188.445 2.71C188.985 1.93 189.685 1.36 190.545 0.999999C191.405 0.619999 192.325 0.429999 193.305 0.429999Z" fill="black"/>
</svg>
