<svg width="34" height="34" viewBox="0 0 34 34" fill="none" xmlns="http://www.w3.org/2000/svg">
<rect x="1" y="1" width="32" height="32" rx="16" stroke="#3C3C43" stroke-opacity="0.6"/>
<path d="M25 12.5C24.4 12.8 23.8 12.9 23.1 13C23.8 12.6 24.3 12 24.5 11.2C23.9 11.6 23.2 11.8 22.4 12C21.8 11.4 20.9 11 20 11C18.3 11 16.8 12.5 16.8 14.3C16.8 14.6 16.8 14.8 16.9 15C14.2 14.9 11.7 13.6 10.1 11.6C9.8 12.1 9.7 12.6 9.7 13.3C9.7 14.4 10.3 15.4 11.2 16C10.7 16 10.2 15.8 9.7 15.6C9.7 17.2 10.8 18.5 12.3 18.8C12 18.9 11.7 18.9 11.4 18.9C11.2 18.9 11 18.9 10.8 18.8C11.2 20.1 12.4 21.1 13.9 21.1C12.8 22 11.4 22.5 9.8 22.5C9.5 22.5 9.3 22.5 9 22.5C10.5 23.4 12.2 24 14 24C20 24 23.3 19 23.3 14.7C23.3 14.6 23.3 14.4 23.3 14.3C24 13.8 24.6 13.2 25 12.5Z" fill="#3C3C43" fill-opacity="0.6"/>
</svg>
