<svg width="115" height="119" viewBox="0 0 115 119" fill="none" xmlns="http://www.w3.org/2000/svg">
<path d="M67.6225 7.41675H47.375V23.5851H67.6225V7.41675Z" fill="#C8C8CD"/>
<path d="M73.1875 7.41675V23.5851H94.1025C92.2113 13.3872 84.6833 7.45383 73.1875 7.41675Z" fill="#C8C8CD"/>
<path d="M20.4141 29.1475V60.0379C20.4141 73.5362 28.4611 81.5833 41.9595 81.5833H73.0353C86.5337 81.5833 94.5807 73.5362 94.5807 60.0379V29.1475H20.4141ZM66.5457 60.0008L58.8324 64.4508C57.2007 65.3779 55.6062 65.86 54.1228 65.86C53.0103 65.86 52.0091 65.6004 51.082 65.0812C48.9312 63.8575 47.7445 61.3358 47.7445 58.0725V49.1725C47.7445 45.9091 48.9312 43.3875 51.082 42.1637C53.2328 40.9029 55.977 41.1254 58.8324 42.7941L66.5457 47.2441C69.4012 48.8758 70.9587 51.175 70.9587 53.6595C70.9587 56.1441 69.3641 58.332 66.5457 60.0008Z" fill="#C8C8CD"/>
<path d="M41.8134 7.41675C30.3176 7.45383 22.7897 13.3872 20.8984 23.5851H41.8134V7.41675Z" fill="#C8C8CD"/>
<path d="M8.82225 108.6H5.99025V105.8H4.27825V108.6H1.44625V110.2H4.27825V113H5.99025V110.2H8.82225V108.6ZM19.2416 115.16C22.3136 115.16 23.7696 113.624 23.7696 111.832C23.7696 107.72 17.1296 109.272 17.1296 106.888C17.1296 106.04 17.8336 105.368 19.5616 105.368C20.5376 105.368 21.6416 105.656 22.6496 106.248L23.3056 104.632C22.3296 103.992 20.9216 103.64 19.5776 103.64C16.5056 103.64 15.0656 105.176 15.0656 106.984C15.0656 111.144 21.7216 109.56 21.7216 111.976C21.7216 112.808 20.9856 113.432 19.2416 113.432C17.8656 113.432 16.4416 112.92 15.5456 112.2L14.8256 113.816C15.7536 114.616 17.4976 115.16 19.2416 115.16ZM33.6721 110.776C33.6721 108.104 31.8481 106.36 29.3521 106.36C26.8081 106.36 24.9361 108.184 24.9361 110.728C24.9361 113.272 26.7921 115.112 29.6561 115.112C31.1281 115.112 32.3281 114.632 33.0961 113.72L32.0241 112.488C31.4161 113.112 30.6641 113.416 29.7041 113.416C28.2161 113.416 27.1761 112.616 26.9361 111.368H33.6401C33.6561 111.176 33.6721 110.936 33.6721 110.776ZM29.3521 107.96C30.6641 107.96 31.6081 108.808 31.7681 110.04H26.9201C27.1121 108.792 28.0561 107.96 29.3521 107.96ZM35.5933 115H37.5933V103.128H35.5933V115ZM48.2503 110.776C48.2503 108.104 46.4263 106.36 43.9303 106.36C41.3863 106.36 39.5143 108.184 39.5143 110.728C39.5143 113.272 41.3703 115.112 44.2343 115.112C45.7063 115.112 46.9062 114.632 47.6743 113.72L46.6023 112.488C45.9943 113.112 45.2423 113.416 44.2823 113.416C42.7943 113.416 41.7543 112.616 41.5143 111.368H48.2183C48.2343 111.176 48.2503 110.936 48.2503 110.776ZM43.9303 107.96C45.2423 107.96 46.1863 108.808 46.3463 110.04H41.4983C41.6903 108.792 42.6343 107.96 43.9303 107.96ZM54.0914 115.112C55.7554 115.112 57.0834 114.392 57.7394 113.112L56.2034 112.216C55.6914 113.032 54.9234 113.4 54.0754 113.4C52.6034 113.4 51.4834 112.392 51.4834 110.728C51.4834 109.08 52.6034 108.056 54.0754 108.056C54.9234 108.056 55.6914 108.424 56.2034 109.24L57.7394 108.344C57.0834 107.048 55.7554 106.36 54.0914 106.36C51.3874 106.36 49.4674 108.168 49.4674 110.728C49.4674 113.288 51.3874 115.112 54.0914 115.112ZM64.1536 113.112C63.8496 113.352 63.4496 113.464 63.0336 113.464C62.2656 113.464 61.8496 113.016 61.8496 112.184V108.12H64.1376V106.52H61.8496V104.568H59.8496V106.52H58.4416V108.12H59.8496V112.232C59.8496 114.12 60.9216 115.112 62.7936 115.112C63.5136 115.112 64.2336 114.92 64.7136 114.536L64.1536 113.112ZM76.8608 106.456L74.1248 112.792L71.4688 106.456H69.3887L73.0528 115H75.1168L78.7808 106.456H76.8608ZM81.0388 105.048C81.7908 105.048 82.3188 104.504 82.3188 103.8C82.3188 103.144 81.7748 102.648 81.0388 102.648C80.3028 102.648 79.7588 103.176 79.7588 103.848C79.7588 104.52 80.3028 105.048 81.0388 105.048ZM80.0308 115H82.0308V106.456H80.0308V115ZM91.0238 103.128V107.512C90.3518 106.728 89.3758 106.36 88.2718 106.36C85.7918 106.36 83.9518 108.072 83.9518 110.728C83.9518 113.384 85.7918 115.112 88.2718 115.112C89.4398 115.112 90.4318 114.712 91.1038 113.896V115H93.0238V103.128H91.0238ZM88.5118 113.4C87.0718 113.4 85.9678 112.36 85.9678 110.728C85.9678 109.096 87.0718 108.056 88.5118 108.056C89.9518 108.056 91.0558 109.096 91.0558 110.728C91.0558 112.36 89.9518 113.4 88.5118 113.4ZM103.672 110.776C103.672 108.104 101.848 106.36 99.3521 106.36C96.8081 106.36 94.9361 108.184 94.9361 110.728C94.9361 113.272 96.7921 115.112 99.6561 115.112C101.128 115.112 102.328 114.632 103.096 113.72L102.024 112.488C101.416 113.112 100.664 113.416 99.7041 113.416C98.2161 113.416 97.1761 112.616 96.9361 111.368H103.64C103.656 111.176 103.672 110.936 103.672 110.776ZM99.3521 107.96C100.664 107.96 101.608 108.808 101.768 110.04H96.9201C97.1121 108.792 98.0561 107.96 99.3521 107.96ZM109.433 115.112C112.089 115.112 113.993 113.288 113.993 110.728C113.993 108.168 112.089 106.36 109.433 106.36C106.809 106.36 104.889 108.168 104.889 110.728C104.889 113.288 106.809 115.112 109.433 115.112ZM109.433 113.4C107.993 113.4 106.905 112.36 106.905 110.728C106.905 109.096 107.993 108.056 109.433 108.056C110.889 108.056 111.977 109.096 111.977 110.728C111.977 112.36 110.889 113.4 109.433 113.4Z" fill="#0070F4"/>
</svg>
