<svg width="46" height="46" viewBox="0 0 46 46" fill="none" xmlns="http://www.w3.org/2000/svg">
<g clip-path="url(#clip0_1_117)">
<g filter="url(#filter0_ii_1_117)">
<circle cx="22.9996" cy="23" r="23" fill="#5C88F9"/>
</g>
<g filter="url(#filter1_dii_1_117)">
<path d="M33.1979 12.3095C32.9526 12.1466 32.6698 12.0443 32.3742 12.0115C32.0786 11.9787 31.7792 12.0163 31.5021 12.1212C29.8979 12.7303 26.6437 13.738 23 13.738C19.3562 13.738 16.1021 12.7303 14.4979 12.1212C14.2202 12.0168 13.9203 11.9794 13.6242 12.0122C13.3282 12.0451 13.0449 12.1472 12.7988 12.3097C12.5528 12.4722 12.3515 12.6903 12.2123 12.9449C12.0731 13.1996 12.0002 13.4832 12 13.7712V19.9394C12 23.9039 13.1115 27.6358 15.1167 30.4597C17.1219 33.2835 19.9979 35 23 35C26.0021 35 28.8094 33.3943 30.8833 30.4597C32.9573 27.5251 34 23.9039 34 19.9394V13.7712C34.0005 13.4827 33.9275 13.1985 33.7877 12.9436C33.6478 12.6887 33.4453 12.4709 33.1979 12.3095V12.3095ZM17.5115 23.1841C17.4318 23.2714 17.335 23.3427 17.2268 23.3939C17.1186 23.445 17.0009 23.4751 16.8807 23.4823C16.7604 23.4895 16.6399 23.4737 16.5259 23.4358C16.412 23.398 16.3069 23.3388 16.2167 23.2616C16.1271 23.1838 16.0543 23.0897 16.0024 22.9847C15.9505 22.8797 15.9204 22.7659 15.9141 22.6497C15.9077 22.5335 15.925 22.4172 15.9652 22.3075C16.0053 22.1978 16.0674 22.0968 16.1479 22.0102C16.4898 21.6374 16.9097 21.3389 17.3798 21.1344C17.8499 20.93 18.3595 20.8243 18.875 20.8243C19.3905 20.8243 19.9001 20.93 20.3702 21.1344C20.8403 21.3389 21.2602 21.6374 21.6021 22.0102C21.6826 22.0968 21.7447 22.1978 21.7848 22.3075C21.825 22.4172 21.8423 22.5335 21.8359 22.6497C21.8296 22.7659 21.7995 22.8797 21.7476 22.9847C21.6957 23.0897 21.6229 23.1838 21.5333 23.2616C21.3651 23.4037 21.1495 23.4823 20.926 23.4831C20.7961 23.4832 20.6675 23.4566 20.549 23.4051C20.4305 23.3535 20.3247 23.2782 20.2385 23.1841C20.0666 22.9992 19.8564 22.8514 19.6214 22.7502C19.3865 22.6489 19.1322 22.5966 18.875 22.5966C18.6178 22.5966 18.3635 22.6489 18.1286 22.7502C17.8936 22.8514 17.6834 22.9992 17.5115 23.1841V23.1841ZM26.5521 28.6546C25.4979 29.3266 24.2628 29.6849 23 29.6849C21.7372 29.6849 20.5021 29.3266 19.4479 28.6546C19.2482 28.5221 19.1101 28.3193 19.0629 28.0896C19.0158 27.8599 19.0635 27.6216 19.1958 27.4254C19.2619 27.3278 19.3472 27.2437 19.447 27.1781C19.5467 27.1124 19.6589 27.0664 19.777 27.0428C19.8952 27.0191 20.017 27.0182 20.1356 27.0402C20.2541 27.0621 20.367 27.1065 20.4677 27.1707C21.2174 27.6545 22.0986 27.9126 23 27.9126C23.9014 27.9126 24.7826 27.6545 25.5323 27.1707C25.633 27.1065 25.7459 27.0621 25.8644 27.0402C25.9829 27.0182 26.1048 27.0191 26.223 27.0428C26.3411 27.0664 26.4533 27.1124 26.553 27.1781C26.6528 27.2437 26.7381 27.3278 26.8042 27.4254C26.9365 27.6216 26.9842 27.8599 26.937 28.0896C26.8899 28.3193 26.7518 28.5221 26.5521 28.6546V28.6546ZM29.7833 23.2616C29.6151 23.4037 29.3995 23.4823 29.176 23.4831C29.0461 23.4832 28.9175 23.4566 28.799 23.4051C28.6805 23.3535 28.5746 23.2782 28.4885 23.1841C28.3166 22.9992 28.1064 22.8514 27.8714 22.7502C27.6365 22.6489 27.3822 22.5966 27.125 22.5966C26.8678 22.5966 26.6135 22.6489 26.3786 22.7502C26.1436 22.8514 25.9334 22.9992 25.7615 23.1841C25.6818 23.2714 25.585 23.3427 25.4768 23.3939C25.3686 23.445 25.2509 23.4751 25.1307 23.4823C25.0104 23.4895 24.8899 23.4737 24.7759 23.4358C24.662 23.398 24.5569 23.3388 24.4667 23.2616C24.3771 23.1838 24.3043 23.0897 24.2524 22.9847C24.2005 22.8797 24.1704 22.7659 24.1641 22.6497C24.1577 22.5335 24.175 22.4172 24.2152 22.3075C24.2553 22.1978 24.3174 22.0968 24.3979 22.0102C24.7398 21.6374 25.1597 21.3389 25.6298 21.1344C26.0999 20.93 26.6095 20.8243 27.125 20.8243C27.6405 20.8243 28.1501 20.93 28.6202 21.1344C29.0903 21.3389 29.5102 21.6374 29.8521 22.0102C29.9326 22.0968 29.9947 22.1978 30.0348 22.3075C30.075 22.4172 30.0923 22.5335 30.0859 22.6497C30.0796 22.7659 30.0495 22.8797 29.9976 22.9847C29.9457 23.0897 29.8729 23.1838 29.7833 23.2616V23.2616Z" fill="white"/>
</g>
</g>
<defs>
<filter id="filter0_ii_1_117" x="-0.000396729" y="-9" width="46" height="55" filterUnits="userSpaceOnUse" color-interpolation-filters="sRGB">
<feFlood flood-opacity="0" result="BackgroundImageFix"/>
<feBlend mode="normal" in="SourceGraphic" in2="BackgroundImageFix" result="shape"/>
<feColorMatrix in="SourceAlpha" type="matrix" values="0 0 0 0 0 0 0 0 0 0 0 0 0 0 0 0 0 0 127 0" result="hardAlpha"/>
<feOffset dy="-3.5"/>
<feGaussianBlur stdDeviation="2.36"/>
<feComposite in2="hardAlpha" operator="arithmetic" k2="-1" k3="1"/>
<feColorMatrix type="matrix" values="0 0 0 0 1 0 0 0 0 1 0 0 0 0 1 0 0 0 0.25 0"/>
<feBlend mode="normal" in2="shape" result="effect1_innerShadow_1_117"/>
<feColorMatrix in="SourceAlpha" type="matrix" values="0 0 0 0 0 0 0 0 0 0 0 0 0 0 0 0 0 0 127 0" result="hardAlpha"/>
<feOffset dy="-9"/>
<feGaussianBlur stdDeviation="5.5"/>
<feComposite in2="hardAlpha" operator="arithmetic" k2="-1" k3="1"/>
<feColorMatrix type="matrix" values="0 0 0 0 0.0705882 0 0 0 0 0.137255 0 0 0 0 0.717647 0 0 0 0.35 0"/>
<feBlend mode="normal" in2="effect1_innerShadow_1_117" result="effect2_innerShadow_1_117"/>
</filter>
<filter id="filter1_dii_1_117" x="-10.38" y="1.83" width="66.76" height="67.76" filterUnits="userSpaceOnUse" color-interpolation-filters="sRGB">
<feFlood flood-opacity="0" result="BackgroundImageFix"/>
<feColorMatrix in="SourceAlpha" type="matrix" values="0 0 0 0 0 0 0 0 0 0 0 0 0 0 0 0 0 0 127 0" result="hardAlpha"/>
<feOffset dy="12.21"/>
<feGaussianBlur stdDeviation="11.19"/>
<feComposite in2="hardAlpha" operator="out"/>
<feColorMatrix type="matrix" values="0 0 0 0 0 0 0 0 0 0.0431373 0 0 0 0 0.45098 0 0 0 0.25 0"/>
<feBlend mode="normal" in2="BackgroundImageFix" result="effect1_dropShadow_1_117"/>
<feBlend mode="normal" in="SourceGraphic" in2="effect1_dropShadow_1_117" result="shape"/>
<feColorMatrix in="SourceAlpha" type="matrix" values="0 0 0 0 0 0 0 0 0 0 0 0 0 0 0 0 0 0 127 0" result="hardAlpha"/>
<feOffset dy="-8.14"/>
<feGaussianBlur stdDeviation="5.085"/>
<feComposite in2="hardAlpha" operator="arithmetic" k2="-1" k3="1"/>
<feColorMatrix type="matrix" values="0 0 0 0 0.690196 0 0 0 0 0.776471 0 0 0 0 1 0 0 0 1 0"/>
<feBlend mode="normal" in2="shape" result="effect2_innerShadow_1_117"/>
<feColorMatrix in="SourceAlpha" type="matrix" values="0 0 0 0 0 0 0 0 0 0 0 0 0 0 0 0 0 0 127 0" result="hardAlpha"/>
<feOffset dy="-0.05"/>
<feComposite in2="hardAlpha" operator="arithmetic" k2="-1" k3="1"/>
<feColorMatrix type="matrix" values="0 0 0 0 1 0 0 0 0 1 0 0 0 0 1 0 0 0 0.75 0"/>
<feBlend mode="normal" in2="effect2_innerShadow_1_117" result="effect3_innerShadow_1_117"/>
</filter>
<clipPath id="clip0_1_117">
<rect width="46" height="46" fill="white" transform="translate(-0.000396729)"/>
</clipPath>
</defs>
</svg>
