<svg width="46" height="46" viewBox="0 0 46 46" fill="none" xmlns="http://www.w3.org/2000/svg">
<g clip-path="url(#clip0_1_122)">
<g filter="url(#filter0_ii_1_122)">
<circle cx="22.9996" cy="23" r="23" fill="#5C88F9"/>
</g>
<g filter="url(#filter1_dii_1_122)">
<path fill-rule="evenodd" clip-rule="evenodd" d="M21.6161 34C16.3058 34 11.9996 29.7926 11.9996 24.6042C12.0033 19.4157 16.3058 15.2119 21.6125 15.2083C22.5397 15.1654 23.4815 15.2764 24.3794 15.5342C25.1967 15.7669 25.9773 16.1178 26.6956 16.5833C27.282 13.5039 29.7521 12 32.6363 12H32.8708C33.175 12.0107 33.4609 12.1396 33.6734 12.3509C33.8823 12.5658 33.9996 12.8522 33.9996 13.1458C33.9996 13.443 33.8823 13.7259 33.6698 13.9408C33.5672 14.0446 33.4462 14.1305 33.3143 14.1878C33.175 14.2487 33.0248 14.2845 32.8708 14.2917H32.6399C30.8259 14.2917 29.0924 15.8958 29.0924 17.5C29.0924 18.2663 29.3489 19.0111 29.8254 19.6162L29.796 19.5625C30.6829 21.1058 31.174 22.8353 31.2327 24.6042C31.2327 29.7926 26.9265 34 21.6161 34ZM20.6413 23.9668C20.513 24.1566 20.4434 24.3786 20.4434 24.6042C20.4434 24.9085 20.568 25.1986 20.7879 25.4134C20.9418 25.5674 21.1434 25.6712 21.3559 25.7214C21.4402 25.7393 21.5245 25.75 21.6125 25.75C21.847 25.75 22.0742 25.682 22.2685 25.5566C22.459 25.4313 22.6093 25.2523 22.7009 25.0446C22.7889 24.8333 22.8109 24.6042 22.7669 24.3822C22.7229 24.1602 22.6093 23.9561 22.4444 23.7949C22.2831 23.6338 22.0742 23.5264 21.847 23.4798C21.6198 23.4368 21.3816 23.4583 21.169 23.5479C21.0444 23.598 20.9308 23.666 20.8319 23.752C20.7586 23.8164 20.6963 23.888 20.6413 23.9668ZM14.9645 23.1468C14.5687 23.5335 14.3451 24.0563 14.3451 24.6042C14.3451 25.152 14.5687 25.6784 14.9645 26.0615C15.3603 26.4482 15.8953 26.6667 16.4524 26.6667C17.0131 26.6667 17.5482 26.4482 17.944 26.0615C18.3398 25.6748 18.5597 25.152 18.5597 24.6042C18.5597 24.0599 18.3398 23.5371 17.944 23.1504C17.5482 22.7637 17.0131 22.5452 16.4524 22.5452C15.8953 22.5452 15.3603 22.7637 14.9645 23.1468ZM25.2846 23.1468C24.8888 23.5335 24.6653 24.0563 24.6653 24.6042C24.6653 25.152 24.8888 25.6784 25.2846 26.0615C25.6804 26.4482 26.2155 26.6667 26.7725 26.6667C27.0951 26.6667 27.4066 26.5951 27.6888 26.4626C27.9013 26.3623 28.0956 26.2262 28.2641 26.0615C28.6599 25.6748 28.8798 25.152 28.8798 24.6042C28.8798 24.0599 28.6599 23.5371 28.2641 23.1504C27.8683 22.7637 27.3333 22.5452 26.7725 22.5452C26.2155 22.5452 25.6804 22.7637 25.2846 23.1468ZM19.8607 28.5C19.6298 28.8402 19.5052 29.2376 19.5052 29.6458C19.5052 30.1937 19.7287 30.7165 20.1209 31.1032C20.3444 31.3216 20.6083 31.4827 20.8978 31.5866C21.125 31.6654 21.3669 31.7083 21.6125 31.7083C22.0339 31.7083 22.4407 31.5866 22.7889 31.361C23.137 31.1354 23.4082 30.8132 23.5658 30.4336C23.6574 30.2152 23.7087 29.986 23.7197 29.7533C23.7307 29.585 23.7197 29.4131 23.6868 29.2448C23.6061 28.8438 23.4046 28.4749 23.1077 28.1885C22.8145 27.8984 22.4371 27.7015 22.0266 27.6227C21.6198 27.5439 21.1947 27.5833 20.8099 27.7409C20.7109 27.7803 20.6156 27.8268 20.524 27.8805C20.2601 28.0345 20.0329 28.2458 19.8607 28.5ZM19.6664 18.7747C19.5602 19.0254 19.5052 19.2904 19.5052 19.5625C19.5052 20.1104 19.7287 20.6331 20.1209 21.0199C20.3811 21.2741 20.7036 21.4567 21.0554 21.5498C21.235 21.5999 21.4219 21.625 21.6125 21.625C22.1732 21.625 22.7082 21.4066 23.1041 21.0199C23.4999 20.6331 23.7197 20.1104 23.7197 19.5661C23.7197 19.2939 23.6684 19.0254 23.5622 18.7747C23.5145 18.6637 23.4559 18.5563 23.3899 18.4525C23.3093 18.3271 23.214 18.2126 23.1041 18.1087C23.0124 18.0192 22.9135 17.9368 22.8072 17.8652C22.6863 17.7829 22.558 17.7148 22.4224 17.6611C22.1659 17.5573 21.891 17.5036 21.6125 17.5036C21.3376 17.5036 21.0627 17.5573 20.8062 17.6611C20.5533 17.765 20.3188 17.9154 20.1245 18.1051C19.9266 18.2985 19.7727 18.5241 19.6664 18.7747Z" fill="white"/>
</g>
</g>
<defs>
<filter id="filter0_ii_1_122" x="-0.000396729" y="-9" width="46" height="55" filterUnits="userSpaceOnUse" color-interpolation-filters="sRGB">
<feFlood flood-opacity="0" result="BackgroundImageFix"/>
<feBlend mode="normal" in="SourceGraphic" in2="BackgroundImageFix" result="shape"/>
<feColorMatrix in="SourceAlpha" type="matrix" values="0 0 0 0 0 0 0 0 0 0 0 0 0 0 0 0 0 0 127 0" result="hardAlpha"/>
<feOffset dy="-3.5"/>
<feGaussianBlur stdDeviation="2.36"/>
<feComposite in2="hardAlpha" operator="arithmetic" k2="-1" k3="1"/>
<feColorMatrix type="matrix" values="0 0 0 0 1 0 0 0 0 1 0 0 0 0 1 0 0 0 0.25 0"/>
<feBlend mode="normal" in2="shape" result="effect1_innerShadow_1_122"/>
<feColorMatrix in="SourceAlpha" type="matrix" values="0 0 0 0 0 0 0 0 0 0 0 0 0 0 0 0 0 0 127 0" result="hardAlpha"/>
<feOffset dy="-9"/>
<feGaussianBlur stdDeviation="5.5"/>
<feComposite in2="hardAlpha" operator="arithmetic" k2="-1" k3="1"/>
<feColorMatrix type="matrix" values="0 0 0 0 0.0705882 0 0 0 0 0.137255 0 0 0 0 0.717647 0 0 0 0.35 0"/>
<feBlend mode="normal" in2="effect1_innerShadow_1_122" result="effect2_innerShadow_1_122"/>
</filter>
<filter id="filter1_dii_1_122" x="2.21907" y="7.55549" width="41.5611" height="41.5611" filterUnits="userSpaceOnUse" color-interpolation-filters="sRGB">
<feFlood flood-opacity="0" result="BackgroundImageFix"/>
<feColorMatrix in="SourceAlpha" type="matrix" values="0 0 0 0 0 0 0 0 0 0 0 0 0 0 0 0 0 0 127 0" result="hardAlpha"/>
<feOffset dy="5.33603"/>
<feGaussianBlur stdDeviation="4.89027"/>
<feComposite in2="hardAlpha" operator="out"/>
<feColorMatrix type="matrix" values="0 0 0 0 0 0 0 0 0 0.0431373 0 0 0 0 0.45098 0 0 0 0.25 0"/>
<feBlend mode="normal" in2="BackgroundImageFix" result="effect1_dropShadow_1_122"/>
<feBlend mode="normal" in="SourceGraphic" in2="effect1_dropShadow_1_122" result="shape"/>
<feColorMatrix in="SourceAlpha" type="matrix" values="0 0 0 0 0 0 0 0 0 0 0 0 0 0 0 0 0 0 127 0" result="hardAlpha"/>
<feOffset dy="-3.55735"/>
<feGaussianBlur stdDeviation="2.22225"/>
<feComposite in2="hardAlpha" operator="arithmetic" k2="-1" k3="1"/>
<feColorMatrix type="matrix" values="0 0 0 0 0.690196 0 0 0 0 0.776471 0 0 0 0 1 0 0 0 1 0"/>
<feBlend mode="normal" in2="shape" result="effect2_innerShadow_1_122"/>
<feColorMatrix in="SourceAlpha" type="matrix" values="0 0 0 0 0 0 0 0 0 0 0 0 0 0 0 0 0 0 127 0" result="hardAlpha"/>
<feOffset dy="-0.0218511"/>
<feComposite in2="hardAlpha" operator="arithmetic" k2="-1" k3="1"/>
<feColorMatrix type="matrix" values="0 0 0 0 1 0 0 0 0 1 0 0 0 0 1 0 0 0 0.75 0"/>
<feBlend mode="normal" in2="effect2_innerShadow_1_122" result="effect3_innerShadow_1_122"/>
</filter>
<clipPath id="clip0_1_122">
<rect width="46" height="46" fill="white" transform="translate(-0.000396729)"/>
</clipPath>
</defs>
</svg>
