<svg width="46" height="46" viewBox="0 0 46 46" fill="none" xmlns="http://www.w3.org/2000/svg">
<g clip-path="url(#clip0_1_85)">
<g filter="url(#filter0_ii_1_85)">
<circle cx="23" cy="23" r="23" fill="#5C88F9"/>
</g>
<g filter="url(#filter1_dii_1_85)">
<path d="M23 12C24.4587 12 25.8576 12.5795 26.8891 13.6109C27.9205 14.6424 28.5 16.0413 28.5 17.5C28.5 18.9587 27.9205 20.3576 26.8891 21.3891C25.8576 22.4205 24.4587 23 23 23C21.5413 23 20.1424 22.4205 19.1109 21.3891C18.0795 20.3576 17.5 18.9587 17.5 17.5C17.5 16.0413 18.0795 14.6424 19.1109 13.6109C20.1424 12.5795 21.5413 12 23 12V12ZM23 34C23 34 34 34 34 31.25C34 27.95 28.6375 24.375 23 24.375C17.3625 24.375 12 27.95 12 31.25C12 34 23 34 23 34Z" fill="white"/>
</g>
</g>
<defs>
<filter id="filter0_ii_1_85" x="0" y="-9" width="46" height="55" filterUnits="userSpaceOnUse" color-interpolation-filters="sRGB">
<feFlood flood-opacity="0" result="BackgroundImageFix"/>
<feBlend mode="normal" in="SourceGraphic" in2="BackgroundImageFix" result="shape"/>
<feColorMatrix in="SourceAlpha" type="matrix" values="0 0 0 0 0 0 0 0 0 0 0 0 0 0 0 0 0 0 127 0" result="hardAlpha"/>
<feOffset dy="-3.5"/>
<feGaussianBlur stdDeviation="2.36"/>
<feComposite in2="hardAlpha" operator="arithmetic" k2="-1" k3="1"/>
<feColorMatrix type="matrix" values="0 0 0 0 1 0 0 0 0 1 0 0 0 0 1 0 0 0 0.25 0"/>
<feBlend mode="normal" in2="shape" result="effect1_innerShadow_1_85"/>
<feColorMatrix in="SourceAlpha" type="matrix" values="0 0 0 0 0 0 0 0 0 0 0 0 0 0 0 0 0 0 127 0" result="hardAlpha"/>
<feOffset dy="-9"/>
<feGaussianBlur stdDeviation="5.5"/>
<feComposite in2="hardAlpha" operator="arithmetic" k2="-1" k3="1"/>
<feColorMatrix type="matrix" values="0 0 0 0 0.0705882 0 0 0 0 0.137255 0 0 0 0 0.717647 0 0 0 0.35 0"/>
<feBlend mode="normal" in2="effect1_innerShadow_1_85" result="effect2_innerShadow_1_85"/>
</filter>
<filter id="filter1_dii_1_85" x="2.10115" y="7.50173" width="41.7977" height="41.7977" filterUnits="userSpaceOnUse" color-interpolation-filters="sRGB">
<feFlood flood-opacity="0" result="BackgroundImageFix"/>
<feColorMatrix in="SourceAlpha" type="matrix" values="0 0 0 0 0 0 0 0 0 0 0 0 0 0 0 0 0 0 127 0" result="hardAlpha"/>
<feOffset dy="5.40058"/>
<feGaussianBlur stdDeviation="4.94942"/>
<feComposite in2="hardAlpha" operator="out"/>
<feColorMatrix type="matrix" values="0 0 0 0 0 0 0 0 0 0.0431373 0 0 0 0 0.45098 0 0 0 0.25 0"/>
<feBlend mode="normal" in2="BackgroundImageFix" result="effect1_dropShadow_1_85"/>
<feBlend mode="normal" in="SourceGraphic" in2="effect1_dropShadow_1_85" result="shape"/>
<feColorMatrix in="SourceAlpha" type="matrix" values="0 0 0 0 0 0 0 0 0 0 0 0 0 0 0 0 0 0 127 0" result="hardAlpha"/>
<feOffset dy="-3.60038"/>
<feGaussianBlur stdDeviation="2.24913"/>
<feComposite in2="hardAlpha" operator="arithmetic" k2="-1" k3="1"/>
<feColorMatrix type="matrix" values="0 0 0 0 0.690196 0 0 0 0 0.776471 0 0 0 0 1 0 0 0 1 0"/>
<feBlend mode="normal" in2="shape" result="effect2_innerShadow_1_85"/>
<feColorMatrix in="SourceAlpha" type="matrix" values="0 0 0 0 0 0 0 0 0 0 0 0 0 0 0 0 0 0 127 0" result="hardAlpha"/>
<feOffset dy="-0.0221154"/>
<feComposite in2="hardAlpha" operator="arithmetic" k2="-1" k3="1"/>
<feColorMatrix type="matrix" values="0 0 0 0 1 0 0 0 0 1 0 0 0 0 1 0 0 0 0.75 0"/>
<feBlend mode="normal" in2="effect2_innerShadow_1_85" result="effect3_innerShadow_1_85"/>
</filter>
<clipPath id="clip0_1_85">
<rect width="46" height="46" fill="white"/>
</clipPath>
</defs>
</svg>
