<svg width="46" height="46" viewBox="0 0 46 46" fill="none" xmlns="http://www.w3.org/2000/svg">
<g clip-path="url(#clip0_1_83)">
<g filter="url(#filter0_ii_1_83)">
<circle cx="23" cy="23" r="23" fill="#5C88F9"/>
</g>
<g filter="url(#filter1_dii_1_83)">
<path fill-rule="evenodd" clip-rule="evenodd" d="M21.6165 34C16.3062 34 12 29.7926 12 24.6042C12.0037 19.4157 16.3062 15.2119 21.6129 15.2083C22.5401 15.1654 23.4819 15.2764 24.3798 15.5342C25.1971 15.7669 25.9777 16.1178 26.696 16.5833C27.2824 13.5039 29.7525 12 32.6367 12H32.8712C33.1754 12.0107 33.4613 12.1396 33.6738 12.3509C33.8827 12.5658 34 12.8522 34 13.1458C34 13.443 33.8827 13.7259 33.6702 13.9408C33.5675 14.0446 33.4466 14.1305 33.3147 14.1878C33.1754 14.2487 33.0252 14.2845 32.8712 14.2917H32.6403C30.8263 14.2917 29.0928 15.8958 29.0928 17.5C29.0928 18.2663 29.3493 19.0111 29.8258 19.6162L29.7964 19.5625C30.6833 21.1058 31.1744 22.8353 31.233 24.6042C31.233 29.7926 26.9269 34 21.6165 34ZM20.6417 23.9668C20.5134 24.1566 20.4438 24.3786 20.4438 24.6042C20.4438 24.9085 20.5684 25.1986 20.7883 25.4134C20.9422 25.5674 21.1438 25.6712 21.3563 25.7214C21.4406 25.7393 21.5249 25.75 21.6129 25.75C21.8474 25.75 22.0746 25.682 22.2689 25.5566C22.4594 25.4313 22.6097 25.2523 22.7013 25.0446C22.7893 24.8333 22.8113 24.6042 22.7673 24.3822C22.7233 24.1602 22.6097 23.9561 22.4448 23.7949C22.2835 23.6338 22.0746 23.5264 21.8474 23.4798C21.6202 23.4368 21.382 23.4583 21.1694 23.5479C21.0448 23.598 20.9312 23.666 20.8323 23.752C20.759 23.8164 20.6967 23.888 20.6417 23.9668ZM14.9649 23.1468C14.569 23.5335 14.3455 24.0563 14.3455 24.6042C14.3455 25.152 14.569 25.6784 14.9649 26.0615C15.3607 26.4482 15.8957 26.6667 16.4528 26.6667C17.0135 26.6667 17.5486 26.4482 17.9444 26.0615C18.3402 25.6748 18.5601 25.152 18.5601 24.6042C18.5601 24.0599 18.3402 23.5371 17.9444 23.1504C17.5486 22.7637 17.0135 22.5452 16.4528 22.5452C15.8957 22.5452 15.3607 22.7637 14.9649 23.1468ZM25.285 23.1468C24.8892 23.5335 24.6657 24.0563 24.6657 24.6042C24.6657 25.152 24.8892 25.6784 25.285 26.0615C25.6808 26.4482 26.2159 26.6667 26.7729 26.6667C27.0955 26.6667 27.407 26.5951 27.6892 26.4626C27.9017 26.3623 28.096 26.2262 28.2645 26.0615C28.6603 25.6748 28.8802 25.152 28.8802 24.6042C28.8802 24.0599 28.6603 23.5371 28.2645 23.1504C27.8687 22.7637 27.3337 22.5452 26.7729 22.5452C26.2159 22.5452 25.6808 22.7637 25.285 23.1468ZM19.8611 28.5C19.6302 28.8402 19.5056 29.2376 19.5056 29.6458C19.5056 30.1937 19.7291 30.7165 20.1213 31.1032C20.3448 31.3216 20.6087 31.4827 20.8982 31.5866C21.1254 31.6654 21.3673 31.7083 21.6129 31.7083C22.0343 31.7083 22.4411 31.5866 22.7893 31.361C23.1374 31.1354 23.4086 30.8132 23.5662 30.4336C23.6578 30.2152 23.7091 29.986 23.7201 29.7533C23.7311 29.585 23.7201 29.4131 23.6872 29.2448C23.6065 28.8438 23.405 28.4749 23.1081 28.1885C22.8149 27.8984 22.4374 27.7015 22.027 27.6227C21.6202 27.5439 21.1951 27.5833 20.8103 27.7409C20.7113 27.7803 20.616 27.8268 20.5244 27.8805C20.2605 28.0345 20.0333 28.2458 19.8611 28.5ZM19.6668 18.7747C19.5606 19.0254 19.5056 19.2904 19.5056 19.5625C19.5056 20.1104 19.7291 20.6331 20.1213 21.0199C20.3815 21.2741 20.704 21.4567 21.0558 21.5498C21.2354 21.5999 21.4223 21.625 21.6129 21.625C22.1736 21.625 22.7086 21.4066 23.1044 21.0199C23.5002 20.6331 23.7201 20.1104 23.7201 19.5661C23.7201 19.2939 23.6688 19.0254 23.5626 18.7747C23.5149 18.6637 23.4563 18.5563 23.3903 18.4525C23.3097 18.3271 23.2144 18.2126 23.1044 18.1087C23.0128 18.0192 22.9139 17.9368 22.8076 17.8652C22.6867 17.7829 22.5584 17.7148 22.4228 17.6611C22.1663 17.5573 21.8914 17.5036 21.6129 17.5036C21.338 17.5036 21.0631 17.5573 20.8066 17.6611C20.5537 17.765 20.3192 17.9154 20.1249 18.1051C19.927 18.2985 19.7731 18.5241 19.6668 18.7747Z" fill="white"/>
</g>
</g>
<defs>
<filter id="filter0_ii_1_83" x="0" y="-9" width="46" height="55" filterUnits="userSpaceOnUse" color-interpolation-filters="sRGB">
<feFlood flood-opacity="0" result="BackgroundImageFix"/>
<feBlend mode="normal" in="SourceGraphic" in2="BackgroundImageFix" result="shape"/>
<feColorMatrix in="SourceAlpha" type="matrix" values="0 0 0 0 0 0 0 0 0 0 0 0 0 0 0 0 0 0 127 0" result="hardAlpha"/>
<feOffset dy="-3.5"/>
<feGaussianBlur stdDeviation="2.36"/>
<feComposite in2="hardAlpha" operator="arithmetic" k2="-1" k3="1"/>
<feColorMatrix type="matrix" values="0 0 0 0 1 0 0 0 0 1 0 0 0 0 1 0 0 0 0.25 0"/>
<feBlend mode="normal" in2="shape" result="effect1_innerShadow_1_83"/>
<feColorMatrix in="SourceAlpha" type="matrix" values="0 0 0 0 0 0 0 0 0 0 0 0 0 0 0 0 0 0 127 0" result="hardAlpha"/>
<feOffset dy="-9"/>
<feGaussianBlur stdDeviation="5.5"/>
<feComposite in2="hardAlpha" operator="arithmetic" k2="-1" k3="1"/>
<feColorMatrix type="matrix" values="0 0 0 0 0.0705882 0 0 0 0 0.137255 0 0 0 0 0.717647 0 0 0 0.35 0"/>
<feBlend mode="normal" in2="effect1_innerShadow_1_83" result="effect2_innerShadow_1_83"/>
</filter>
<filter id="filter1_dii_1_83" x="2.21946" y="7.55549" width="41.5611" height="41.5611" filterUnits="userSpaceOnUse" color-interpolation-filters="sRGB">
<feFlood flood-opacity="0" result="BackgroundImageFix"/>
<feColorMatrix in="SourceAlpha" type="matrix" values="0 0 0 0 0 0 0 0 0 0 0 0 0 0 0 0 0 0 127 0" result="hardAlpha"/>
<feOffset dy="5.33603"/>
<feGaussianBlur stdDeviation="4.89027"/>
<feComposite in2="hardAlpha" operator="out"/>
<feColorMatrix type="matrix" values="0 0 0 0 0 0 0 0 0 0.0431373 0 0 0 0 0.45098 0 0 0 0.25 0"/>
<feBlend mode="normal" in2="BackgroundImageFix" result="effect1_dropShadow_1_83"/>
<feBlend mode="normal" in="SourceGraphic" in2="effect1_dropShadow_1_83" result="shape"/>
<feColorMatrix in="SourceAlpha" type="matrix" values="0 0 0 0 0 0 0 0 0 0 0 0 0 0 0 0 0 0 127 0" result="hardAlpha"/>
<feOffset dy="-3.55735"/>
<feGaussianBlur stdDeviation="2.22225"/>
<feComposite in2="hardAlpha" operator="arithmetic" k2="-1" k3="1"/>
<feColorMatrix type="matrix" values="0 0 0 0 0.690196 0 0 0 0 0.776471 0 0 0 0 1 0 0 0 1 0"/>
<feBlend mode="normal" in2="shape" result="effect2_innerShadow_1_83"/>
<feColorMatrix in="SourceAlpha" type="matrix" values="0 0 0 0 0 0 0 0 0 0 0 0 0 0 0 0 0 0 127 0" result="hardAlpha"/>
<feOffset dy="-0.0218511"/>
<feComposite in2="hardAlpha" operator="arithmetic" k2="-1" k3="1"/>
<feColorMatrix type="matrix" values="0 0 0 0 1 0 0 0 0 1 0 0 0 0 1 0 0 0 0.75 0"/>
<feBlend mode="normal" in2="effect2_innerShadow_1_83" result="effect3_innerShadow_1_83"/>
</filter>
<clipPath id="clip0_1_83">
<rect width="46" height="46" fill="white"/>
</clipPath>
</defs>
</svg>
