<svg width="46" height="46" viewBox="0 0 46 46" fill="none" xmlns="http://www.w3.org/2000/svg">
<g clip-path="url(#clip0_1_82)">
<g filter="url(#filter0_ii_1_82)">
<circle cx="23" cy="23" r="23" fill="#5C88F9"/>
</g>
<g filter="url(#filter1_dii_1_82)">
<path d="M23.0004 28.3841C22.8728 28.3841 22.7473 28.3491 22.6365 28.2827L16.2174 24.4342C16.1616 24.4005 16.0983 24.3827 16.0339 24.3827C15.9695 24.3827 15.9062 24.4006 15.8505 24.4344C15.7947 24.4682 15.7484 24.5168 15.7163 24.5754C15.6841 24.6339 15.6673 24.7003 15.6674 24.7679V28.3841C15.6673 28.5214 15.7022 28.6562 15.7685 28.7746C15.8348 28.8929 15.9302 28.9905 16.0446 29.0572L22.6443 32.9032C22.7532 32.9667 22.8758 33 23.0004 33C23.125 33 23.2476 32.9667 23.3565 32.9032L29.9563 29.0572C30.0707 28.9905 30.166 28.8929 30.2323 28.7746C30.2987 28.6562 30.3336 28.5214 30.3335 28.3841V24.7679C30.3336 24.7003 30.3167 24.6339 30.2846 24.5754C30.2524 24.5168 30.2061 24.4682 30.1504 24.4344C30.0946 24.4006 30.0314 24.3827 29.967 24.3827C29.9026 24.3827 29.8393 24.4005 29.7835 24.4342L23.3643 28.2827C23.2535 28.3491 23.1281 28.3841 23.0004 28.3841Z" fill="white"/>
<path d="M33.9963 19.8507V19.8454C33.9845 19.7235 33.945 19.6063 33.8812 19.5036C33.8175 19.4009 33.7312 19.3157 33.6297 19.2551L23.3634 13.1014C23.2526 13.035 23.1272 13 22.9995 13C22.8719 13 22.7464 13.035 22.6356 13.1014L12.3693 19.2551C12.2571 19.3224 12.1639 19.4196 12.099 19.5368C12.0342 19.6541 12 19.7873 12 19.9228C12 20.0584 12.0342 20.1916 12.099 20.3088C12.1639 20.4261 12.2571 20.5233 12.3693 20.5906L22.6356 26.7443C22.7464 26.8107 22.8719 26.8457 22.9995 26.8457C23.1272 26.8457 23.2526 26.8107 23.3634 26.7443L32.3959 21.3305C32.4099 21.322 32.4257 21.3176 32.4418 21.3176C32.4579 21.3176 32.4738 21.3221 32.4877 21.3306C32.5017 21.3391 32.5132 21.3513 32.5212 21.3659C32.5293 21.3806 32.5335 21.3972 32.5334 21.4141V28.3625C32.5334 28.7764 32.8368 29.1317 33.2314 29.1524C33.3306 29.1574 33.4296 29.1412 33.5227 29.1049C33.6157 29.0685 33.7007 29.0127 33.7726 28.9409C33.8444 28.8691 33.9016 28.7827 33.9407 28.687C33.9798 28.5913 34 28.4882 34 28.3841V19.9228C33.9999 19.8987 33.9987 19.8747 33.9963 19.8507Z" fill="white"/>
</g>
</g>
<defs>
<filter id="filter0_ii_1_82" x="0" y="-9" width="46" height="55" filterUnits="userSpaceOnUse" color-interpolation-filters="sRGB">
<feFlood flood-opacity="0" result="BackgroundImageFix"/>
<feBlend mode="normal" in="SourceGraphic" in2="BackgroundImageFix" result="shape"/>
<feColorMatrix in="SourceAlpha" type="matrix" values="0 0 0 0 0 0 0 0 0 0 0 0 0 0 0 0 0 0 127 0" result="hardAlpha"/>
<feOffset dy="-3.5"/>
<feGaussianBlur stdDeviation="2.36"/>
<feComposite in2="hardAlpha" operator="arithmetic" k2="-1" k3="1"/>
<feColorMatrix type="matrix" values="0 0 0 0 1 0 0 0 0 1 0 0 0 0 1 0 0 0 0.25 0"/>
<feBlend mode="normal" in2="shape" result="effect1_innerShadow_1_82"/>
<feColorMatrix in="SourceAlpha" type="matrix" values="0 0 0 0 0 0 0 0 0 0 0 0 0 0 0 0 0 0 127 0" result="hardAlpha"/>
<feOffset dy="-9"/>
<feGaussianBlur stdDeviation="5.5"/>
<feComposite in2="hardAlpha" operator="arithmetic" k2="-1" k3="1"/>
<feColorMatrix type="matrix" values="0 0 0 0 0.0705882 0 0 0 0 0.137255 0 0 0 0 0.717647 0 0 0 0.35 0"/>
<feBlend mode="normal" in2="effect1_innerShadow_1_82" result="effect2_innerShadow_1_82"/>
</filter>
<filter id="filter1_dii_1_82" x="2.21946" y="8.55549" width="41.5611" height="39.5611" filterUnits="userSpaceOnUse" color-interpolation-filters="sRGB">
<feFlood flood-opacity="0" result="BackgroundImageFix"/>
<feColorMatrix in="SourceAlpha" type="matrix" values="0 0 0 0 0 0 0 0 0 0 0 0 0 0 0 0 0 0 127 0" result="hardAlpha"/>
<feOffset dy="5.33603"/>
<feGaussianBlur stdDeviation="4.89027"/>
<feComposite in2="hardAlpha" operator="out"/>
<feColorMatrix type="matrix" values="0 0 0 0 0 0 0 0 0 0.0431373 0 0 0 0 0.45098 0 0 0 0.25 0"/>
<feBlend mode="normal" in2="BackgroundImageFix" result="effect1_dropShadow_1_82"/>
<feBlend mode="normal" in="SourceGraphic" in2="effect1_dropShadow_1_82" result="shape"/>
<feColorMatrix in="SourceAlpha" type="matrix" values="0 0 0 0 0 0 0 0 0 0 0 0 0 0 0 0 0 0 127 0" result="hardAlpha"/>
<feOffset dy="-3.55735"/>
<feGaussianBlur stdDeviation="2.22225"/>
<feComposite in2="hardAlpha" operator="arithmetic" k2="-1" k3="1"/>
<feColorMatrix type="matrix" values="0 0 0 0 0.690196 0 0 0 0 0.776471 0 0 0 0 1 0 0 0 1 0"/>
<feBlend mode="normal" in2="shape" result="effect2_innerShadow_1_82"/>
<feColorMatrix in="SourceAlpha" type="matrix" values="0 0 0 0 0 0 0 0 0 0 0 0 0 0 0 0 0 0 127 0" result="hardAlpha"/>
<feOffset dy="-0.0218511"/>
<feComposite in2="hardAlpha" operator="arithmetic" k2="-1" k3="1"/>
<feColorMatrix type="matrix" values="0 0 0 0 1 0 0 0 0 1 0 0 0 0 1 0 0 0 0.75 0"/>
<feBlend mode="normal" in2="effect2_innerShadow_1_82" result="effect3_innerShadow_1_82"/>
</filter>
<clipPath id="clip0_1_82">
<rect width="46" height="46" fill="white"/>
</clipPath>
</defs>
</svg>
