<svg width="46" height="46" viewBox="0 0 46 46" fill="none" xmlns="http://www.w3.org/2000/svg">
<g clip-path="url(#clip0_1_81)">
<g filter="url(#filter0_ii_1_81)">
<circle cx="23" cy="23" r="23" fill="#5C88F9"/>
</g>
<g filter="url(#filter1_dii_1_81)">
<path d="M34 19.0209C34 16.1771 31.6944 13.8722 28.8513 13.8722C26.6923 13.8722 24.8465 15.2025 24.0813 17.0868C23.6039 14.2022 21.1051 12 18.0848 12C14.7247 12 12 14.7247 12 18.0848C12 21.3372 14.5531 23.9856 17.7629 24.1539C17.6716 24.2987 17.6166 24.4656 17.6166 24.6383V27.6801L14.3401 26.0422V33.0639L17.6478 31.4099C17.7504 31.8048 18.1171 32.1271 18.5531 32.1271H21.3614V34H25.5744V32.1274H27.9148C28.4281 32.1274 28.8509 31.6797 28.8509 31.1917V26.9787L31.1913 27.4466V24.17L28.8509 24.6379C28.8509 24.4685 28.7974 24.3057 28.7097 24.1627C28.757 24.1642 28.8029 24.17 28.8509 24.17C31.6944 24.17 34 21.8648 34 19.0209ZM33.0357 19.7708C33.028 20.0787 32.9003 20.3715 32.6798 20.5865C32.4592 20.8016 32.1634 20.922 31.8554 20.922C31.5473 20.922 31.2515 20.8016 31.031 20.5865C30.8105 20.3715 30.6827 20.0787 30.6751 19.7708C30.6827 19.4628 30.8105 19.1701 31.031 18.955C31.2515 18.7399 31.5473 18.6195 31.8554 18.6195C32.1634 18.6195 32.4592 18.7399 32.6798 18.955C32.9003 19.1701 33.028 19.4628 33.0357 19.7708M30.6754 15.2369C30.8304 15.2369 30.9838 15.2674 31.1269 15.3267C31.27 15.386 31.4001 15.4729 31.5096 15.5825C31.6192 15.692 31.7061 15.8221 31.7654 15.9652C31.8247 16.1083 31.8552 16.2618 31.8552 16.4167C31.8552 16.5716 31.8247 16.725 31.7654 16.8682C31.7061 17.0113 31.6192 17.1413 31.5096 17.2509C31.4001 17.3604 31.27 17.4473 31.1269 17.5066C30.9838 17.5659 30.8304 17.5964 30.6754 17.5964C30.3626 17.5964 30.0626 17.4722 29.8414 17.2509C29.6201 17.0297 29.4959 16.7297 29.4959 16.4169C29.4958 16.2619 29.5262 16.1085 29.5855 15.9653C29.6447 15.8221 29.7316 15.692 29.8411 15.5824C29.9507 15.4729 30.0807 15.3859 30.2239 15.3267C30.367 15.2674 30.5205 15.2369 30.6754 15.2369M29.9065 19.1995C29.9065 19.2778 29.8754 19.3529 29.8201 19.4082C29.7647 19.4636 29.6896 19.4947 29.6114 19.4947C29.5331 19.4947 29.458 19.4636 29.4027 19.4082C29.3473 19.3529 29.3162 19.2778 29.3162 19.1995C29.3162 19.1212 29.3473 19.0461 29.4027 18.9908C29.458 18.9354 29.5331 18.9043 29.6114 18.9043C29.6896 18.9043 29.7647 18.9354 29.8201 18.9908C29.8754 19.0461 29.9065 19.1212 29.9065 19.1995ZM29.3166 18.0658C29.3553 18.0658 29.3937 18.0734 29.4295 18.0883C29.4653 18.1032 29.4978 18.1249 29.5252 18.1523C29.5526 18.1798 29.5743 18.2123 29.5892 18.2481C29.604 18.284 29.6116 18.3224 29.6116 18.3611C29.6115 18.3999 29.6039 18.4383 29.589 18.4741C29.5742 18.5099 29.5524 18.5424 29.525 18.5698C29.4975 18.5972 29.465 18.6189 29.4292 18.6337C29.3933 18.6485 29.355 18.6561 29.3162 18.6561C29.2379 18.6561 29.1629 18.6249 29.1075 18.5695C29.0522 18.5141 29.0212 18.439 29.0212 18.3608C29.0213 18.2825 29.0524 18.2074 29.1078 18.1521C29.1632 18.0968 29.2383 18.0657 29.3166 18.0658M28.8604 19.4947C28.9189 19.4947 28.9761 19.512 29.0247 19.5445C29.0733 19.577 29.1112 19.6232 29.1335 19.6773C29.1559 19.7313 29.1617 19.7908 29.1502 19.8481C29.1388 19.9055 29.1106 19.9581 29.0691 19.9994C29.0277 20.0407 28.975 20.0688 28.9176 20.0801C28.8603 20.0915 28.8008 20.0855 28.7468 20.063C28.6928 20.0405 28.6467 20.0026 28.6144 19.9539C28.582 19.9052 28.5648 19.8479 28.5649 19.7895C28.5651 19.7112 28.5963 19.6362 28.6517 19.581C28.7071 19.5257 28.7822 19.4947 28.8604 19.4947ZM28.6995 18.3609C28.6996 18.3996 28.692 18.438 28.6773 18.4738C28.6626 18.5096 28.6409 18.5422 28.6136 18.5696C28.5863 18.597 28.5539 18.6188 28.5182 18.6337C28.4824 18.6486 28.4441 18.6564 28.4054 18.6565C28.3667 18.6566 28.3283 18.649 28.2925 18.6343C28.2567 18.6196 28.2242 18.5979 28.1967 18.5706C28.1693 18.5433 28.1475 18.5109 28.1326 18.4752C28.1177 18.4394 28.11 18.4011 28.1099 18.3624C28.1097 18.2842 28.1405 18.2092 28.1957 18.1537C28.2508 18.0983 28.3257 18.0671 28.4039 18.0669C28.4821 18.0667 28.5572 18.0975 28.6126 18.1527C28.668 18.2078 28.6993 18.2827 28.6995 18.3609M28.4039 19.1995C28.404 19.2382 28.3964 19.2766 28.3815 19.3124C28.3667 19.3482 28.345 19.3807 28.3177 19.4081C28.2903 19.4355 28.2578 19.4573 28.222 19.4721C28.1862 19.487 28.1479 19.4946 28.1091 19.4947C28.0704 19.4947 28.032 19.4871 27.9962 19.4723C27.9604 19.4575 27.9279 19.4358 27.9005 19.4084C27.8731 19.381 27.8513 19.3485 27.8365 19.3127C27.8216 19.277 27.814 19.2386 27.814 19.1999C27.8139 19.1216 27.845 19.0466 27.9002 18.9912C27.9555 18.9359 28.0305 18.9047 28.1088 18.9047C28.187 18.9047 28.2621 18.9357 28.3174 18.991C28.3728 19.0463 28.4039 19.1213 28.4039 19.1995M20.2412 13.6126C20.4276 13.6074 20.6131 13.6396 20.7869 13.7073C20.9606 13.775 21.119 13.8768 21.2527 14.0068C21.3864 14.1368 21.4926 14.2923 21.5652 14.464C21.6378 14.6358 21.6752 14.8204 21.6752 15.0068C21.6752 15.1933 21.6378 15.3779 21.5652 15.5497C21.4926 15.7214 21.3864 15.8769 21.2527 16.0069C21.119 16.1369 20.9606 16.2387 20.7869 16.3064C20.6131 16.3741 20.4276 16.4063 20.2412 16.4011C19.8782 16.3909 19.5335 16.2395 19.2803 15.9792C19.0272 15.7188 18.8856 15.37 18.8856 15.0068C18.8856 14.6437 19.0272 14.2949 19.2803 14.0345C19.5335 13.7742 19.8782 13.6228 20.2412 13.6126ZM19.3322 18.296C19.3281 18.3857 19.2896 18.4704 19.2246 18.5325C19.1597 18.5945 19.0733 18.6291 18.9835 18.6291C18.8937 18.6291 18.8074 18.5945 18.7424 18.5325C18.6775 18.4704 18.6389 18.3857 18.6348 18.296C18.6348 18.2036 18.6716 18.1149 18.737 18.0495C18.8024 17.9841 18.8911 17.9473 18.9835 17.9473C19.076 17.9473 19.1647 17.9841 19.2301 18.0495C19.2955 18.1149 19.3322 18.2036 19.3322 18.296M18.6348 16.9562C18.7274 16.9564 18.816 16.9933 18.8814 17.0588C18.9467 17.1243 18.9833 17.2131 18.9832 17.3057C18.983 17.3982 18.9461 17.4869 18.8806 17.5522C18.8151 17.6175 18.7263 17.6541 18.6337 17.654C18.5412 17.6539 18.4525 17.617 18.3872 17.5514C18.3219 17.4859 18.2853 17.3971 18.2854 17.3046C18.2855 17.212 18.3224 17.1234 18.388 17.058C18.4535 16.9927 18.5423 16.9561 18.6348 16.9562ZM18.0962 18.6444C18.142 18.6445 18.1873 18.6536 18.2295 18.6712C18.2717 18.6889 18.3101 18.7146 18.3424 18.7471C18.3746 18.7795 18.4002 18.818 18.4176 18.8604C18.435 18.9027 18.4439 18.948 18.4438 18.9938C18.4437 19.0396 18.4345 19.0849 18.4169 19.1271C18.3993 19.1693 18.3735 19.2077 18.3411 19.24C18.3086 19.2722 18.2701 19.2978 18.2278 19.3152C18.1855 19.3326 18.1401 19.3415 18.0944 19.3414C18.0019 19.3412 17.9134 19.3042 17.8482 19.2387C17.783 19.1731 17.7465 19.0844 17.7468 18.992C17.747 18.8995 17.784 18.811 17.8495 18.7458C17.915 18.6806 18.0038 18.6441 18.0962 18.6444ZM17.9055 17.3049C17.907 17.3517 17.899 17.3983 17.8821 17.4419C17.8652 17.4855 17.8396 17.5253 17.807 17.5589C17.7744 17.5924 17.7354 17.6191 17.6923 17.6373C17.6492 17.6555 17.6029 17.6648 17.5561 17.6647C17.5093 17.6647 17.463 17.6552 17.4199 17.6369C17.3769 17.6185 17.338 17.5918 17.3055 17.5581C17.273 17.5244 17.2476 17.4846 17.2308 17.4409C17.214 17.3972 17.2062 17.3506 17.2078 17.3038C17.2108 17.2133 17.249 17.1274 17.3142 17.0645C17.3794 17.0016 17.4666 16.9665 17.5572 16.9666C17.6478 16.9668 17.7348 17.0021 17.7998 17.0653C17.8648 17.1284 17.9027 17.2144 17.9055 17.3049M17.5572 18.296C17.5543 18.3866 17.5162 18.4725 17.4511 18.5355C17.386 18.5985 17.2989 18.6338 17.2083 18.6338C17.1177 18.6338 17.0306 18.5985 16.9655 18.5355C16.9004 18.4725 16.8624 18.3866 16.8594 18.296C16.8594 18.2035 16.8962 18.1148 16.9616 18.0493C17.027 17.9839 17.1158 17.9471 17.2083 17.9471C17.3008 17.9471 17.3896 17.9839 17.455 18.0493C17.5204 18.1148 17.5572 18.2035 17.5572 18.296M14.5344 20.3655C14.1646 20.3655 13.8099 20.2186 13.5484 19.9571C13.2869 19.6956 13.14 19.3409 13.14 18.9711C13.14 18.6012 13.2869 18.2466 13.5484 17.9851C13.8099 17.7235 14.1646 17.5766 14.5344 17.5766C14.9042 17.5766 15.2589 17.7235 15.5204 17.9851C15.7819 18.2466 15.9288 18.6012 15.9288 18.9711C15.9288 19.3409 15.7819 19.6956 15.5204 19.9571C15.2589 20.2186 14.9042 20.3655 14.5344 20.3655ZM14.5344 15.007C14.5344 14.6372 14.6813 14.2824 14.9429 14.0209C15.2044 13.7593 15.5591 13.6124 15.929 13.6124C16.2989 13.6124 16.6536 13.7593 16.9152 14.0209C17.1767 14.2824 17.3236 14.6372 17.3236 15.007C17.3236 15.3769 17.1767 15.7316 16.9152 15.9932C16.6536 16.2547 16.2989 16.4017 15.929 16.4017C15.5591 16.4017 15.2044 16.2547 14.9429 15.9932C14.6813 15.7316 14.5344 15.3769 14.5344 15.007ZM18.0848 23.1544C17.9017 23.1543 17.7203 23.1182 17.5511 23.0481C17.3819 22.9779 17.2282 22.8751 17.0987 22.7456C16.9692 22.616 16.8665 22.4622 16.7964 22.293C16.7264 22.1238 16.6904 21.9424 16.6904 21.7592C16.6904 21.576 16.7266 21.3947 16.7967 21.2255C16.8669 21.0563 16.9696 20.9025 17.0992 20.773C17.2287 20.6435 17.3825 20.5409 17.5518 20.4708C17.721 20.4007 17.9024 20.3647 18.0856 20.3648C18.4555 20.3649 18.8102 20.5119 19.0717 20.7736C19.3332 21.0352 19.4801 21.39 19.48 21.7599C19.4799 22.1299 19.3329 22.4846 19.0712 22.7461C18.8096 23.0076 18.4548 23.1545 18.0848 23.1544M21.6356 17.5766C22.0055 17.5767 22.3601 17.7237 22.6217 17.9851C22.8832 18.2466 23.0302 18.6012 23.0304 18.9711C23.0304 19.341 22.8835 19.6958 22.6219 19.9573C22.3603 20.2189 22.0056 20.3659 21.6356 20.3659C21.2657 20.3659 20.9109 20.2189 20.6494 19.9573C20.3878 19.6958 20.2408 19.341 20.2408 18.9711C20.2409 18.6012 20.3879 18.2465 20.6495 17.985C20.9111 17.7235 21.2658 17.5766 21.6356 17.5766M20.4264 23.7018C21.2114 23.3724 21.9189 22.8823 22.5031 22.2631C23.0874 21.6438 23.5355 20.9091 23.8188 20.1063C24.1638 21.7112 25.2568 23.0348 26.7147 23.7018H20.4264M25.8468 20.9514C25.5339 20.9514 25.2337 20.8271 25.0125 20.6058C24.7912 20.3846 24.6669 20.0844 24.6669 19.7715C24.6669 19.4586 24.7912 19.1584 25.0125 18.9372C25.2337 18.7159 25.5339 18.5916 25.8468 18.5916C26.1597 18.5916 26.4599 18.7159 26.6811 18.9372C26.9024 19.1584 27.0267 19.4586 27.0267 19.7715C27.0267 20.0844 26.9024 20.3846 26.6811 20.6058C26.4599 20.8271 26.1597 20.9514 25.8468 20.9514M25.8468 16.4165C25.8468 16.2615 25.8773 16.108 25.9366 15.9648C25.9959 15.8216 26.0828 15.6915 26.1924 15.5819C26.302 15.4723 26.4322 15.3854 26.5754 15.3262C26.7186 15.2669 26.8721 15.2365 27.0271 15.2366C27.34 15.2366 27.6401 15.3609 27.8613 15.5821C28.0826 15.8034 28.2069 16.1034 28.2069 16.4163C28.2069 16.7292 28.0826 17.0293 27.8613 17.2505C27.6401 17.4718 27.34 17.5961 27.0271 17.5961C26.8721 17.5963 26.7186 17.5659 26.5754 17.5067C26.4321 17.4475 26.302 17.3606 26.1923 17.2511C26.0827 17.1415 25.9958 17.0114 25.9365 16.8682C25.8772 16.725 25.8467 16.5715 25.8468 16.4165M27.671 22.131C27.671 21.976 27.7015 21.8226 27.7608 21.6794C27.8202 21.5363 27.9071 21.4062 28.0167 21.2967C28.1263 21.1871 28.2564 21.1002 28.3996 21.041C28.5428 20.9818 28.6963 20.9513 28.8513 20.9514C29.0846 20.9515 29.3127 21.0208 29.5067 21.1505C29.7007 21.2802 29.8519 21.4645 29.9412 21.6802C30.0304 21.8958 30.0537 22.133 30.0081 22.3619C29.9625 22.5908 29.85 22.801 29.685 22.966C29.5199 23.1309 29.3096 23.2432 29.0807 23.2887C28.8518 23.3342 28.6146 23.3107 28.399 23.2213C28.1834 23.132 27.9992 22.9807 27.8696 22.7866C27.74 22.5925 27.6709 22.3644 27.671 22.131" fill="white"/>
</g>
</g>
<defs>
<filter id="filter0_ii_1_81" x="0" y="-9" width="46" height="55" filterUnits="userSpaceOnUse" color-interpolation-filters="sRGB">
<feFlood flood-opacity="0" result="BackgroundImageFix"/>
<feBlend mode="normal" in="SourceGraphic" in2="BackgroundImageFix" result="shape"/>
<feColorMatrix in="SourceAlpha" type="matrix" values="0 0 0 0 0 0 0 0 0 0 0 0 0 0 0 0 0 0 127 0" result="hardAlpha"/>
<feOffset dy="-3.5"/>
<feGaussianBlur stdDeviation="2.36"/>
<feComposite in2="hardAlpha" operator="arithmetic" k2="-1" k3="1"/>
<feColorMatrix type="matrix" values="0 0 0 0 1 0 0 0 0 1 0 0 0 0 1 0 0 0 0.25 0"/>
<feBlend mode="normal" in2="shape" result="effect1_innerShadow_1_81"/>
<feColorMatrix in="SourceAlpha" type="matrix" values="0 0 0 0 0 0 0 0 0 0 0 0 0 0 0 0 0 0 127 0" result="hardAlpha"/>
<feOffset dy="-9"/>
<feGaussianBlur stdDeviation="5.5"/>
<feComposite in2="hardAlpha" operator="arithmetic" k2="-1" k3="1"/>
<feColorMatrix type="matrix" values="0 0 0 0 0.0705882 0 0 0 0 0.137255 0 0 0 0 0.717647 0 0 0 0.35 0"/>
<feBlend mode="normal" in2="effect1_innerShadow_1_81" result="effect2_innerShadow_1_81"/>
</filter>
<filter id="filter1_dii_1_81" x="9.82425" y="11.0113" width="26.3515" height="26.3515" filterUnits="userSpaceOnUse" color-interpolation-filters="sRGB">
<feFlood flood-opacity="0" result="BackgroundImageFix"/>
<feColorMatrix in="SourceAlpha" type="matrix" values="0 0 0 0 0 0 0 0 0 0 0 0 0 0 0 0 0 0 127 0" result="hardAlpha"/>
<feOffset dy="1.18704"/>
<feGaussianBlur stdDeviation="1.08787"/>
<feComposite in2="hardAlpha" operator="out"/>
<feColorMatrix type="matrix" values="0 0 0 0 0 0 0 0 0 0.0431373 0 0 0 0 0.45098 0 0 0 0.25 0"/>
<feBlend mode="normal" in2="BackgroundImageFix" result="effect1_dropShadow_1_81"/>
<feBlend mode="normal" in="SourceGraphic" in2="effect1_dropShadow_1_81" result="shape"/>
<feColorMatrix in="SourceAlpha" type="matrix" values="0 0 0 0 0 0 0 0 0 0 0 0 0 0 0 0 0 0 127 0" result="hardAlpha"/>
<feOffset dy="-0.791357"/>
<feGaussianBlur stdDeviation="0.494355"/>
<feComposite in2="hardAlpha" operator="arithmetic" k2="-1" k3="1"/>
<feColorMatrix type="matrix" values="0 0 0 0 0.690196 0 0 0 0 0.776471 0 0 0 0 1 0 0 0 1 0"/>
<feBlend mode="normal" in2="shape" result="effect2_innerShadow_1_81"/>
<feColorMatrix in="SourceAlpha" type="matrix" values="0 0 0 0 0 0 0 0 0 0 0 0 0 0 0 0 0 0 127 0" result="hardAlpha"/>
<feOffset dy="-0.00486092"/>
<feComposite in2="hardAlpha" operator="arithmetic" k2="-1" k3="1"/>
<feColorMatrix type="matrix" values="0 0 0 0 1 0 0 0 0 1 0 0 0 0 1 0 0 0 0.75 0"/>
<feBlend mode="normal" in2="effect2_innerShadow_1_81" result="effect3_innerShadow_1_81"/>
</filter>
<clipPath id="clip0_1_81">
<rect width="46" height="46" fill="white"/>
</clipPath>
</defs>
</svg>
