<svg width="525" height="166" viewBox="0 0 525 166" fill="none" xmlns="http://www.w3.org/2000/svg">
<g filter="url(#filter0_d_1_409)">
<path d="M50.9336 107H34.249L61.1934 34.4844H71.752L70.2578 48.2305L50.9336 107ZM66.7217 48.2305L65.0781 34.4844H75.6865L102.78 107H86.0957L66.7217 48.2305ZM85.5977 92.5566H47.1484V79.9062H85.5977V92.5566ZM139.337 53.1113H154.378V107H140.283L139.337 94.001V53.1113ZM145.363 82.7451C145.363 87.5928 144.616 91.9258 143.122 95.7441C141.661 99.5293 139.437 102.518 136.448 104.709C133.493 106.9 129.758 107.996 125.242 107.996C119.93 107.996 115.613 106.452 112.293 103.364C109.006 100.243 107.362 95.1133 107.362 87.9746V53.1113H122.403V88.0742C122.403 89.9004 122.702 91.3945 123.3 92.5566C123.931 93.6855 124.794 94.5156 125.89 95.0469C127.019 95.5449 128.297 95.7939 129.725 95.7939C132.613 95.7939 134.871 95.2295 136.498 94.1006C138.158 92.9717 139.32 91.4277 139.984 89.4688C140.682 87.5098 141.03 85.3018 141.03 82.8447L145.363 82.7451ZM196.562 30.5H211.703V107H198.106L196.562 94.9971V30.5ZM162.745 79.6572C162.745 74.1787 163.559 69.3809 165.186 65.2637C166.846 61.1133 169.236 57.8926 172.357 55.6016C175.512 53.2773 179.347 52.1152 183.862 52.1152C188.079 52.1152 191.599 53.3271 194.421 55.751C197.276 58.1416 199.518 61.4287 201.145 65.6123C202.805 69.7627 203.95 74.4775 204.581 79.7568V81.002C203.95 86.0156 202.805 90.5645 201.145 94.6484C199.518 98.7324 197.276 101.986 194.421 104.41C191.599 106.801 188.046 107.996 183.763 107.996C179.313 107.996 175.512 106.817 172.357 104.46C169.236 102.069 166.846 98.8154 165.186 94.6982C163.559 90.5811 162.745 85.916 162.745 80.7031V79.6572ZM177.786 80.7031C177.786 83.4922 178.102 86.0322 178.732 88.3232C179.363 90.6143 180.393 92.4404 181.82 93.8018C183.248 95.1299 185.174 95.7939 187.598 95.7939C189.988 95.7939 191.947 95.2627 193.475 94.2002C195.002 93.1045 196.164 91.5938 196.961 89.668C197.758 87.7422 198.223 85.5176 198.355 82.9941V77.8145C198.289 75.6562 198.007 73.7471 197.509 72.0869C197.044 70.3936 196.38 68.9824 195.517 67.8535C194.687 66.6914 193.607 65.8115 192.279 65.2139C190.984 64.6162 189.457 64.3174 187.697 64.3174C185.307 64.3174 183.381 64.998 181.92 66.3594C180.459 67.6875 179.396 69.5137 178.732 71.8379C178.102 74.1289 177.786 76.7354 177.786 79.6572V80.7031ZM238.398 107H223.308V53.1113H238.398V107ZM222.411 39.2158C222.411 36.958 223.175 35.1152 224.702 33.6875C226.229 32.2266 228.271 31.4961 230.828 31.4961C233.385 31.4961 235.41 32.2266 236.904 33.6875C238.432 35.1152 239.195 36.958 239.195 39.2158C239.195 41.4404 238.432 43.2832 236.904 44.7441C235.41 46.2051 233.385 46.9355 230.828 46.9355C228.271 46.9355 226.229 46.2051 224.702 44.7441C223.175 43.2832 222.411 41.4404 222.411 39.2158ZM276.897 64.0684H245.072V53.1113H276.897V64.0684ZM267.783 39.8135V90.166C267.783 91.627 267.966 92.7559 268.331 93.5527C268.729 94.3496 269.344 94.8975 270.174 95.1963C271.004 95.4951 272.033 95.6445 273.262 95.6445C274.158 95.6445 274.955 95.6113 275.652 95.5449C276.35 95.4785 276.947 95.3955 277.445 95.2959L277.396 106.651C276.167 107.083 274.822 107.415 273.361 107.647C271.934 107.88 270.323 107.996 268.53 107.996C265.31 107.996 262.504 107.465 260.113 106.402C257.756 105.307 255.93 103.58 254.635 101.223C253.373 98.832 252.742 95.7109 252.742 91.8594V39.8135H267.783ZM300.455 107H285.364V53.1113H300.455V107ZM284.468 39.2158C284.468 36.958 285.231 35.1152 286.759 33.6875C288.286 32.2266 290.328 31.4961 292.885 31.4961C295.441 31.4961 297.467 32.2266 298.961 33.6875C300.488 35.1152 301.252 36.958 301.252 39.2158C301.252 41.4404 300.488 43.2832 298.961 44.7441C297.467 46.2051 295.441 46.9355 292.885 46.9355C290.328 46.9355 288.286 46.2051 286.759 44.7441C285.231 43.2832 284.468 41.4404 284.468 39.2158ZM309.769 79.5576C309.769 74.3115 310.765 69.6299 312.757 65.5127C314.749 61.3623 317.654 58.0918 321.473 55.7012C325.291 53.3105 329.923 52.1152 335.368 52.1152C340.88 52.1152 345.545 53.3105 349.363 55.7012C353.215 58.0918 356.12 61.3623 358.079 65.5127C360.071 69.6299 361.067 74.3115 361.067 79.5576V80.6035C361.067 85.8164 360.071 90.498 358.079 94.6484C356.12 98.7988 353.231 102.069 349.413 104.46C345.595 106.817 340.946 107.996 335.468 107.996C329.989 107.996 325.324 106.817 321.473 104.46C317.654 102.069 314.749 98.7988 312.757 94.6484C310.765 90.498 309.769 85.8164 309.769 80.6035V79.5576ZM324.859 80.6035C324.859 83.4258 325.191 85.999 325.855 88.3232C326.553 90.6475 327.665 92.4902 329.192 93.8516C330.753 95.2129 332.845 95.8936 335.468 95.8936C338.058 95.8936 340.116 95.2129 341.644 93.8516C343.204 92.4902 344.316 90.6475 344.98 88.3232C345.678 85.999 346.026 83.4258 346.026 80.6035V79.5576C346.026 76.8018 345.678 74.2617 344.98 71.9375C344.316 69.5801 343.204 67.7041 341.644 66.3096C340.116 64.915 338.024 64.2178 335.368 64.2178C332.778 64.2178 330.703 64.915 329.143 66.3096C327.615 67.7041 326.52 69.5801 325.855 71.9375C325.191 74.2617 324.859 76.8018 324.859 79.5576V80.6035ZM384.376 107H369.335V53.1113H383.479L384.376 64.6162V107ZM378.2 78.4619C378.2 73.0166 379.08 68.335 380.84 64.417C382.6 60.4658 385.073 57.4277 388.261 55.3027C391.448 53.1777 395.15 52.1152 399.367 52.1152C402.754 52.1152 405.709 52.7793 408.232 54.1074C410.789 55.4355 412.781 57.6104 414.209 60.6318C415.67 63.6201 416.4 67.6875 416.4 72.834V107H401.31V72.7344C401.31 70.5098 400.978 68.7998 400.313 67.6045C399.683 66.376 398.753 65.5293 397.524 65.0645C396.296 64.5664 394.785 64.3174 392.992 64.3174C391.166 64.3174 389.572 64.666 388.211 65.3633C386.883 66.0273 385.771 66.9902 384.874 68.252C384.011 69.5137 383.363 71.0078 382.932 72.7344C382.5 74.4277 382.284 76.2705 382.284 78.2627L378.2 78.4619ZM455.846 91.959C455.846 90.9629 455.547 90.0996 454.949 89.3691C454.385 88.6387 453.322 87.958 451.762 87.3271C450.201 86.6963 447.943 86.0654 444.988 85.4346C441.369 84.6377 438.099 83.5586 435.177 82.1973C432.288 80.8359 430.014 79.0762 428.354 76.918C426.693 74.7266 425.863 72.0869 425.863 68.999C425.863 65.9775 426.727 63.1885 428.453 60.6318C430.18 58.0752 432.653 56.0166 435.874 54.4561C439.128 52.8955 443.013 52.1152 447.528 52.1152C452.243 52.1152 456.311 52.8623 459.73 54.3564C463.15 55.8506 465.773 57.9092 467.6 60.5322C469.426 63.1553 470.339 66.1602 470.339 69.5469H455.298C455.298 67.5215 454.667 65.8779 453.405 64.6162C452.177 63.3213 450.201 62.6738 447.479 62.6738C446.018 62.6738 444.739 62.9229 443.644 63.4209C442.548 63.9189 441.701 64.583 441.104 65.4131C440.539 66.21 440.257 67.1562 440.257 68.252C440.257 69.248 440.572 70.1279 441.203 70.8916C441.834 71.6553 442.863 72.3193 444.291 72.8838C445.719 73.4482 447.628 73.9463 450.019 74.3779C453.837 75.1084 457.29 76.1211 460.378 77.416C463.466 78.6777 465.923 80.4209 467.749 82.6455C469.575 84.8369 470.488 87.7588 470.488 91.4111C470.488 94.5986 469.542 97.4541 467.649 99.9775C465.79 102.468 463.134 104.427 459.681 105.854C456.261 107.282 452.227 107.996 447.578 107.996C442.498 107.996 438.215 107.083 434.729 105.257C431.242 103.431 428.603 101.123 426.81 98.334C425.017 95.5117 424.12 92.6396 424.12 89.7178H438.364C438.464 91.5107 438.945 92.9717 439.809 94.1006C440.705 95.2295 441.851 96.0596 443.245 96.5908C444.673 97.1221 446.233 97.3877 447.927 97.3877C449.653 97.3877 451.098 97.1719 452.26 96.7402C453.455 96.2754 454.352 95.6445 454.949 94.8477C455.547 94.0176 455.846 93.0547 455.846 91.959Z" fill="#5956E9"/>
</g>
<defs>
<filter id="filter0_d_1_409" x="0.249023" y="0.5" width="524.239" height="165.496" filterUnits="userSpaceOnUse" color-interpolation-filters="sRGB">
<feFlood flood-opacity="0" result="BackgroundImageFix"/>
<feColorMatrix in="SourceAlpha" type="matrix" values="0 0 0 0 0 0 0 0 0 0 0 0 0 0 0 0 0 0 127 0" result="hardAlpha"/>
<feOffset dx="10" dy="14"/>
<feGaussianBlur stdDeviation="22"/>
<feComposite in2="hardAlpha" operator="out"/>
<feColorMatrix type="matrix" values="0 0 0 0 0.34902 0 0 0 0 0.337255 0 0 0 0 0.913725 0 0 0 0.28 0"/>
<feBlend mode="normal" in2="BackgroundImageFix" result="effect1_dropShadow_1_409"/>
<feBlend mode="normal" in="SourceGraphic" in2="effect1_dropShadow_1_409" result="shape"/>
</filter>
</defs>
</svg>
