<svg width="97" height="97" viewBox="0 0 97 97" fill="none" xmlns="http://www.w3.org/2000/svg">
<g clip-path="url(#clip0_1_188)">
<path d="M14.1881 82.8077C-4.72938 63.8902 -4.72938 33.1057 14.1881 14.1881C33.1057 -4.72938 63.8902 -4.72938 82.8077 14.1881C101.725 33.1057 101.725 63.8902 82.8077 82.8077C63.8902 101.725 33.1057 101.725 14.1881 82.8077V82.8077ZM77.1001 19.8999C59.7535 2.55743 34.3906 -0.298437 17.044 17.044C-0.298437 34.3865 2.55743 59.7535 19.8999 77.096C37.2423 94.4384 62.6094 97.2943 79.9518 79.9518C97.2943 62.6094 94.4384 37.2423 77.096 19.8999H77.1001Z" fill="#5956E9"/>
<path d="M32.3732 36.5769C32.4609 36.6277 32.5576 36.6606 32.658 36.6738C32.7584 36.687 32.8604 36.6802 32.9582 36.6538C33.0559 36.6274 33.1475 36.5819 33.2276 36.52C33.3077 36.458 33.3747 36.3809 33.4249 36.2929C33.629 35.9392 33.9236 35.6462 34.2783 35.4439C34.6331 35.2415 35.0353 35.1372 35.4436 35.1415H47.8249C48.0285 35.1415 48.2237 35.0606 48.3677 34.9167C48.5116 34.7727 48.5925 34.5775 48.5925 34.3739C48.5925 34.1703 48.5116 33.9751 48.3677 33.8311C48.2237 33.6872 48.0285 33.6063 47.8249 33.6063H35.4436C34.7699 33.6063 34.1081 33.7837 33.5247 34.1205C32.9413 34.4574 32.4568 34.9419 32.1199 35.5253C32.0148 35.6985 31.9824 35.9063 32.0299 36.1033C32.0773 36.3003 32.2008 36.4706 32.3732 36.5769V36.5769Z" fill="#5956E9"/>
<path d="M31.6056 58.1694V58.937C31.6056 59.1406 31.6864 59.3359 31.8304 59.4798C31.9743 59.6238 32.1696 59.7046 32.3732 59.7046C32.5767 59.7046 32.772 59.6238 32.9159 59.4798C33.0599 59.3359 33.1407 59.1406 33.1407 58.937V58.1694C33.1407 57.9659 33.0599 57.7706 32.9159 57.6267C32.772 57.4827 32.5767 57.4019 32.3732 57.4019C32.1696 57.4019 31.9743 57.4827 31.8304 57.6267C31.6864 57.7706 31.6056 57.9659 31.6056 58.1694Z" fill="#5956E9"/>
<path d="M60.0067 55.099C59.8031 55.099 59.6079 55.1799 59.4639 55.3238C59.32 55.4678 59.2391 55.663 59.2391 55.8666V69.6833C59.2391 69.8869 59.1582 70.0821 59.0143 70.2261C58.8703 70.37 58.6751 70.4509 58.4715 70.4509H35.4437C35.0405 70.4498 34.6447 70.3429 34.2958 70.1408C33.9469 69.9388 33.6572 69.6487 33.4556 69.2995C33.4052 69.2118 33.338 69.1349 33.2579 69.0731C33.1778 69.0114 33.0863 68.9661 32.9886 68.9397C32.891 68.9133 32.7891 68.9064 32.6888 68.9194C32.5885 68.9324 32.4917 68.9651 32.404 69.0155C32.3163 69.0659 32.2394 69.1331 32.1776 69.2132C32.1159 69.2933 32.0706 69.3848 32.0442 69.4825C31.9909 69.6797 32.0182 69.89 32.12 70.0671C32.4568 70.6505 32.9413 71.135 33.5247 71.4719C34.1082 71.8087 34.77 71.9861 35.4437 71.9861H58.4715C59.0822 71.9861 59.6679 71.7435 60.0998 71.3116C60.5317 70.8797 60.7743 70.294 60.7743 69.6833V55.8666C60.7743 55.663 60.6934 55.4678 60.5495 55.3238C60.4055 55.1799 60.2103 55.099 60.0067 55.099Z" fill="#5956E9"/>
<path d="M31.6056 46.6555V47.4231C31.6056 47.6267 31.6864 47.8219 31.8304 47.9659C31.9743 48.1099 32.1696 48.1907 32.3732 48.1907C32.5767 48.1907 32.772 48.1099 32.9159 47.9659C33.0599 47.8219 33.1407 47.6267 33.1407 47.4231V46.6555C33.1407 46.452 33.0599 46.2567 32.9159 46.1128C32.772 45.9688 32.5767 45.8879 32.3732 45.8879C32.1696 45.8879 31.9743 45.9688 31.8304 46.1128C31.6864 46.2567 31.6056 46.452 31.6056 46.6555Z" fill="#5956E9"/>
<path d="M30.0704 44.3527H34.6759C35.4903 44.3527 36.2712 44.0292 36.847 43.4534C37.4228 42.8776 37.7463 42.0966 37.7463 41.2823C37.7463 40.468 37.4228 39.687 36.847 39.1112C36.2712 38.5354 35.4903 38.2119 34.6759 38.2119H30.0704C29.2561 38.2119 28.4751 38.5354 27.8993 39.1112C27.3235 39.687 27 40.468 27 41.2823C27 42.0966 27.3235 42.8776 27.8993 43.4534C28.4751 44.0292 29.2561 44.3527 30.0704 44.3527V44.3527ZM30.0704 39.7471H34.6759C35.0831 39.7471 35.4736 39.9088 35.7615 40.1967C36.0494 40.4847 36.2111 40.8751 36.2111 41.2823C36.2111 41.6894 36.0494 42.0799 35.7615 42.3678C35.4736 42.6557 35.0831 42.8175 34.6759 42.8175H30.0704C29.6632 42.8175 29.2727 42.6557 28.9848 42.3678C28.6969 42.0799 28.5352 41.6894 28.5352 41.2823C28.5352 40.8751 28.6969 40.4847 28.9848 40.1967C29.2727 39.9088 29.6632 39.7471 30.0704 39.7471V39.7471Z" fill="#5956E9"/>
<path d="M30.0704 55.8666H34.6759C35.4903 55.8666 36.2712 55.5431 36.847 54.9673C37.4228 54.3915 37.7463 53.6105 37.7463 52.7962C37.7463 51.9819 37.4228 51.2009 36.847 50.6251C36.2712 50.0493 35.4903 49.7258 34.6759 49.7258H30.0704C29.2561 49.7258 28.4751 50.0493 27.8993 50.6251C27.3235 51.2009 27 51.9819 27 52.7962C27 53.6105 27.3235 54.3915 27.8993 54.9673C28.4751 55.5431 29.2561 55.8666 30.0704 55.8666V55.8666ZM30.0704 51.261H34.6759C35.0831 51.261 35.4736 51.4228 35.7615 51.7107C36.0494 51.9986 36.2111 52.389 36.2111 52.7962C36.2111 53.2034 36.0494 53.5938 35.7615 53.8818C35.4736 54.1697 35.0831 54.3314 34.6759 54.3314H30.0704C29.6632 54.3314 29.2727 54.1697 28.9848 53.8818C28.6969 53.5938 28.5352 53.2034 28.5352 52.7962C28.5352 52.389 28.6969 51.9986 28.9848 51.7107C29.2727 51.4228 29.6632 51.261 30.0704 51.261V51.261Z" fill="#5956E9"/>
<path d="M37.7463 64.3101C37.7463 63.4958 37.4228 62.7148 36.847 62.139C36.2712 61.5632 35.4903 61.2397 34.6759 61.2397H30.0704C29.2561 61.2397 28.4751 61.5632 27.8993 62.139C27.3235 62.7148 27 63.4958 27 64.3101C27 65.1244 27.3235 65.9054 27.8993 66.4812C28.4751 67.057 29.2561 67.3805 30.0704 67.3805H34.6759C35.4903 67.3805 36.2712 67.057 36.847 66.4812C37.4228 65.9054 37.7463 65.1244 37.7463 64.3101ZM28.5352 64.3101C28.5352 63.903 28.6969 63.5125 28.9848 63.2246C29.2727 62.9367 29.6632 62.7749 30.0704 62.7749H34.6759C35.0831 62.7749 35.4736 62.9367 35.7615 63.2246C36.0494 63.5125 36.2111 63.903 36.2111 64.3101C36.2111 64.7173 36.0494 65.1078 35.7615 65.3957C35.4736 65.6836 35.0831 65.8453 34.6759 65.8453H30.0704C29.6632 65.8453 29.2727 65.6836 28.9848 65.3957C28.6969 65.1078 28.5352 64.7173 28.5352 64.3101Z" fill="#5956E9"/>
<path d="M53.8658 45.8879H41.5843C41.3807 45.8879 41.1855 45.9688 41.0415 46.1128C40.8976 46.2567 40.8167 46.452 40.8167 46.6555C40.8167 46.8591 40.8976 47.0544 41.0415 47.1983C41.1855 47.3423 41.3807 47.4231 41.5843 47.4231H53.8658C54.0694 47.4231 54.2646 47.3423 54.4086 47.1983C54.5525 47.0544 54.6334 46.8591 54.6334 46.6555C54.6334 46.452 54.5525 46.2567 54.4086 46.1128C54.2646 45.9688 54.0694 45.8879 53.8658 45.8879Z" fill="#5956E9"/>
<path d="M53.8658 48.9583H41.5843C41.3807 48.9583 41.1855 49.0391 41.0415 49.1831C40.8976 49.327 40.8167 49.5223 40.8167 49.7258C40.8167 49.9294 40.8976 50.1247 41.0415 50.2686C41.1855 50.4126 41.3807 50.4934 41.5843 50.4934H53.8658C54.0694 50.4934 54.2646 50.4126 54.4086 50.2686C54.5525 50.1247 54.6334 49.9294 54.6334 49.7258C54.6334 49.5223 54.5525 49.327 54.4086 49.1831C54.2646 49.0391 54.0694 48.9583 53.8658 48.9583V48.9583Z" fill="#5956E9"/>
<path d="M53.8658 52.0287H41.5843C41.3807 52.0287 41.1855 52.1096 41.0415 52.2535C40.8976 52.3975 40.8167 52.5927 40.8167 52.7963C40.8167 52.9999 40.8976 53.1951 41.0415 53.3391C41.1855 53.483 41.3807 53.5639 41.5843 53.5639H53.8658C54.0694 53.5639 54.2646 53.483 54.4086 53.3391C54.5525 53.1951 54.6334 52.9999 54.6334 52.7963C54.6334 52.5927 54.5525 52.3975 54.4086 52.2535C54.2646 52.1096 54.0694 52.0287 53.8658 52.0287Z" fill="#5956E9"/>
<path d="M53.8658 55.099H41.5843C41.3807 55.099 41.1855 55.1799 41.0415 55.3238C40.8976 55.4678 40.8167 55.663 40.8167 55.8666C40.8167 56.0702 40.8976 56.2654 41.0415 56.4094C41.1855 56.5533 41.3807 56.6342 41.5843 56.6342H53.8658C54.0694 56.6342 54.2646 56.5533 54.4086 56.4094C54.5525 56.2654 54.6334 56.0702 54.6334 55.8666C54.6334 55.663 54.5525 55.4678 54.4086 55.3238C54.2646 55.1799 54.0694 55.099 53.8658 55.099Z" fill="#5956E9"/>
<path d="M53.8658 58.1694H41.5843C41.3807 58.1694 41.1855 58.2503 41.0415 58.3943C40.8976 58.5382 40.8167 58.7334 40.8167 58.937C40.8167 59.1406 40.8976 59.3358 41.0415 59.4798C41.1855 59.6238 41.3807 59.7046 41.5843 59.7046H53.8658C54.0694 59.7046 54.2646 59.6238 54.4086 59.4798C54.5525 59.3358 54.6334 59.1406 54.6334 58.937C54.6334 58.7334 54.5525 58.5382 54.4086 58.3943C54.2646 58.2503 54.0694 58.1694 53.8658 58.1694Z" fill="#5956E9"/>
<path d="M69.9851 35.3565C69.842 32.8746 68.7707 30.5373 66.9838 28.8089C66.84 28.666 66.6454 28.5857 66.4426 28.5857C66.2398 28.5857 66.0453 28.666 65.9015 28.8089C65.8295 28.8803 65.7724 28.9652 65.7335 29.0587C65.6945 29.1523 65.6744 29.2526 65.6744 29.3539C65.6744 29.4553 65.6945 29.5556 65.7335 29.6491C65.7724 29.7427 65.8295 29.8276 65.9015 29.8989C67.4206 31.358 68.3311 33.338 68.4499 35.441C68.5359 36.9936 68.1916 38.5398 67.4548 39.9091C66.7179 41.2785 65.6173 42.4177 64.2742 43.2013C63.683 43.5372 63.1904 44.0224 62.8456 44.6083C62.5008 45.1943 62.3158 45.8605 62.3091 46.5404V47.4231H57.7036V46.5404C57.6985 45.862 57.5158 45.1968 57.1737 44.611C56.8317 44.0252 56.3421 43.5392 55.7539 43.2013C54.479 42.4581 53.4211 41.3937 52.6858 40.1142C51.9504 38.8348 51.5632 37.3849 51.5628 35.9092C51.5618 34.77 51.7913 33.6424 52.2376 32.5943C52.6838 31.5462 53.3375 30.5992 54.1594 29.8103C54.9812 29.0215 55.9542 28.4071 57.0197 28.0041C58.0852 27.6012 59.2213 27.418 60.3594 27.4657C61.4645 27.5052 62.5503 27.7662 63.5526 28.2332C63.6441 28.2783 63.7437 28.3047 63.8455 28.3109C63.9474 28.317 64.0494 28.3028 64.1457 28.2691C64.2419 28.2354 64.3305 28.1828 64.4062 28.1144C64.482 28.0461 64.5433 27.9633 64.5867 27.871C64.63 27.7786 64.6545 27.6786 64.6588 27.5767C64.663 27.4747 64.6469 27.373 64.6114 27.2774C64.5759 27.1817 64.5216 27.0941 64.4519 27.0197C64.3821 26.9453 64.2982 26.8855 64.2051 26.8439C61.8877 25.8251 59.2697 25.725 56.8814 26.5641C54.493 27.4031 52.5129 29.1186 51.3419 31.3629C50.1709 33.6073 49.8967 36.2127 50.5748 38.6517C51.2529 41.0906 52.8326 43.1807 54.994 44.4986C55.3554 44.7017 55.6553 44.9986 55.862 45.3579C56.0687 45.7173 56.1745 46.1258 56.1684 46.5404V49.7259C56.1684 50.7438 56.5727 51.72 57.2925 52.4397C58.0123 53.1595 58.9885 53.5639 60.0063 53.5639C61.0242 53.5639 62.0004 53.1595 62.7202 52.4397C63.44 51.72 63.8443 50.7438 63.8443 49.7259V46.5404C63.8453 46.1266 63.9578 45.7208 64.1698 45.3656C64.3819 45.0104 64.6857 44.7188 65.0494 44.5216C66.6359 43.5961 67.9362 42.2507 68.807 40.6336C69.6779 39.0165 70.0855 37.1905 69.9851 35.3565V35.3565ZM62.3091 49.7259C62.3091 50.3366 62.0665 50.9223 61.6347 51.3542C61.2028 51.7861 60.6171 52.0287 60.0063 52.0287C59.3956 52.0287 58.8099 51.7861 58.378 51.3542C57.9462 50.9223 57.7036 50.3366 57.7036 49.7259V48.9583H62.3091V49.7259Z" fill="#5956E9"/>
<path d="M62.3093 35.1416C62.3093 35.3452 62.2285 35.5404 62.0845 35.6844C61.9406 35.8283 61.7453 35.9092 61.5417 35.9092C61.3382 35.9092 61.1429 35.8283 60.999 35.6844C60.855 35.5404 60.7741 35.3452 60.7741 35.1416C60.7741 34.938 60.6933 34.7428 60.5493 34.5988C60.4054 34.4549 60.2101 34.374 60.0066 34.374C59.803 34.374 59.6077 34.4549 59.4638 34.5988C59.3198 34.7428 59.239 34.938 59.239 35.1416C59.239 35.3452 59.1581 35.5404 59.0141 35.6844C58.8702 35.8283 58.6749 35.9092 58.4714 35.9092C58.2678 35.9092 58.0725 35.8283 57.9286 35.6844C57.7846 35.5404 57.7038 35.3452 57.7038 35.1416C57.7038 34.938 57.6229 34.7428 57.4789 34.5988C57.335 34.4549 57.1398 34.374 56.9362 34.374C56.7326 34.374 56.5374 34.4549 56.3934 34.5988C56.2495 34.7428 56.1686 34.938 56.1686 35.1416C56.168 35.5864 56.2962 36.0219 56.5378 36.3953C56.7794 36.7688 57.124 37.0643 57.5299 37.2462C57.9358 37.428 58.3857 37.4884 58.8252 37.4201C59.2647 37.3517 59.675 37.1576 60.0066 36.861C60.3381 37.1576 60.7484 37.3517 61.1879 37.4201C61.6274 37.4884 62.0773 37.428 62.4832 37.2462C62.8891 37.0643 63.2337 36.7688 63.4753 36.3953C63.7169 36.0219 63.8451 35.5864 63.8445 35.1416C63.8445 34.938 63.7637 34.7428 63.6197 34.5988C63.4757 34.4549 63.2805 34.374 63.0769 34.374C62.8734 34.374 62.6781 34.4549 62.5342 34.5988C62.3902 34.7428 62.3093 34.938 62.3093 35.1416Z" fill="#5956E9"/>
</g>
<defs>
<clipPath id="clip0_1_188">
<rect width="97" height="97" fill="white"/>
</clipPath>
</defs>
</svg>
