<svg width="97" height="97" viewBox="0 0 97 97" fill="none" xmlns="http://www.w3.org/2000/svg">
<g clip-path="url(#clip0_1_211)">
<path d="M14.1881 82.8077C-4.72938 63.8902 -4.72938 33.1057 14.1881 14.1881C33.1057 -4.72938 63.8902 -4.72938 82.8077 14.1881C101.725 33.1057 101.725 63.8902 82.8077 82.8077C63.8902 101.725 33.1057 101.725 14.1881 82.8077V82.8077ZM77.1001 19.8999C59.7535 2.55743 34.3906 -0.298437 17.044 17.044C-0.298437 34.3865 2.55743 59.7535 19.8999 77.096C37.2423 94.4384 62.6094 97.2943 79.9518 79.9518C97.2943 62.6094 94.4384 37.2423 77.096 19.8999H77.1001Z" fill="#5956E9"/>
<path d="M71.6754 55.0287L68.5295 54.1299C68.3937 54.0911 68.2989 53.9654 68.2989 53.8241V52.774C68.5548 52.5967 68.799 52.3982 69.0272 52.1767C70.1332 51.1034 70.7423 49.6638 70.7423 48.1229V46.6739L71.0465 46.0656C71.3803 45.3978 71.5567 44.6502 71.5567 43.9038V39.9784C71.5567 39.5577 71.2157 39.2166 70.795 39.2166H63.4649C60.7995 39.2166 58.631 41.3852 58.631 44.0506V44.096C58.631 44.7168 58.7777 45.3384 59.0553 45.8936L59.4454 46.6738V47.9179C59.4454 49.8896 60.417 51.6588 61.8888 52.7233L61.889 53.8239C61.889 53.9936 61.889 54.0639 61.26 54.2436L59.725 54.6822L55.2846 53.0675C55.3005 52.858 55.2298 52.6449 55.077 52.4844L53.658 50.9936V48.4911C53.8081 48.3675 53.9559 48.2406 54.0992 48.1063C55.8893 46.4285 56.9159 44.0597 56.9159 41.6072V39.6087C57.4564 38.4325 57.7303 37.1878 57.7303 35.906V27.7617C57.7303 27.341 57.3892 27 56.9686 27H45.5663C41.5535 27 38.289 30.2646 38.289 34.2773V35.9062C38.289 37.188 38.5629 38.4327 39.1034 39.6089V41.3284C39.1034 44.1758 40.3695 46.7411 42.3612 48.4323V50.9937L40.9423 52.4845C40.7895 52.645 40.7188 52.8581 40.7347 53.0676L36.0481 54.7718C35.7085 54.8953 35.3929 55.0625 35.1064 55.2651L34.3705 54.8972C36.5612 53.9436 37.2552 52.6025 37.2885 52.5359C37.3958 52.3215 37.3958 52.069 37.2885 51.8546C36.7394 50.7563 36.6728 48.7432 36.6194 47.1257C36.6016 46.5872 36.5848 46.0785 36.5526 45.6255C36.2929 41.9719 33.5154 39.2166 30.0917 39.2166C26.668 39.2166 23.8904 41.9718 23.6308 45.6255C23.5986 46.0786 23.5817 46.5873 23.564 47.1259C23.5105 48.7433 23.4439 50.7562 22.8949 51.8545C22.7876 52.0689 22.7876 52.3214 22.8949 52.5358C22.9282 52.6024 23.6207 53.9408 25.8158 54.8955L23.7717 55.9175C22.6788 56.4643 22 57.5627 22 58.7844V64.4119C22 64.8325 22.341 65.1736 22.7617 65.1736C23.1824 65.1736 23.5234 64.8325 23.5234 64.4119V58.7844C23.5234 58.1433 23.8796 57.567 24.4529 57.2803L26.9984 56.0076L27.8838 56.849C28.5029 57.4374 29.2972 57.7314 30.0917 57.7314C30.886 57.7314 31.6806 57.4372 32.2996 56.849L33.1849 56.0077L34.0148 56.4227C33.624 57.048 33.4022 57.7813 33.4022 58.5494V64.4121C33.4022 64.8327 33.7433 65.1738 34.1639 65.1738C34.5846 65.1738 34.9257 64.8327 34.9257 64.4121V58.5494C34.9257 57.5037 35.5859 56.561 36.5687 56.2036L41.51 54.4068L43.5669 57.4924C43.8298 57.8869 44.2512 58.1399 44.723 58.1866C44.7756 58.1918 44.8279 58.1943 44.8801 58.1943C45.2963 58.1943 45.6949 58.0305 45.9929 57.7326L47.2478 56.4777V64.4122C47.2478 64.8328 47.5889 65.1739 48.0095 65.1739C48.4302 65.1739 48.7713 64.8328 48.7713 64.4122V56.4777L50.0262 57.7326C50.3241 58.0306 50.7227 58.1944 51.139 58.1944C51.1911 58.1944 51.2435 58.1919 51.296 58.1867C51.7679 58.14 52.1893 57.887 52.4522 57.4925L54.5092 54.407L59.4504 56.2038C60.4331 56.5612 61.0934 57.5039 61.0934 58.5496V64.4123C61.0934 64.8329 61.4345 65.174 61.8552 65.174C62.2758 65.174 62.6169 64.8329 62.6169 64.4123V58.5496C62.6169 57.4905 62.1961 56.4972 61.4902 55.7626L61.6784 55.7089C61.8683 55.6546 62.1272 55.5804 62.3872 55.4529L64.3321 57.3978V64.4123C64.3321 64.8329 64.6731 65.174 65.0938 65.174C65.5145 65.174 65.8555 64.8329 65.8555 64.4123V57.3978L67.7868 55.4664C67.8895 55.5187 67.9974 55.5627 68.1109 55.5951L71.2569 56.494C71.9749 56.6991 72.4766 57.364 72.4766 58.1109V64.4123C72.4766 64.8329 72.8176 65.174 73.2383 65.174C73.659 65.174 74 64.8329 74 64.4123V58.1109C74 56.6872 73.0441 55.4198 71.6754 55.0287ZM26.8867 53.6833C25.4619 53.1706 24.7472 52.4871 24.4421 52.1139C24.6501 51.5701 24.7849 50.9473 24.8762 50.2899C25.2963 51.2971 25.9998 52.1569 26.8867 52.7704V53.6833ZM31.2503 55.7448C30.6006 56.3621 29.5829 56.362 28.9334 55.7447L28.225 55.0716C28.3445 54.8476 28.4102 54.5937 28.4102 54.3277V53.5158C28.9416 53.6819 29.5065 53.7715 30.0919 53.7715C30.6766 53.7715 31.2412 53.6815 31.7735 53.5163L31.7734 54.3276C31.7734 54.5937 31.839 54.8477 31.9586 55.0718L31.2503 55.7448ZM30.0921 52.248C27.8175 52.248 25.9671 50.3976 25.9671 48.1231C25.9671 47.7024 25.6261 47.3614 25.2054 47.3614C25.1628 47.3614 25.1211 47.3657 25.0804 47.3725C25.0826 47.307 25.0848 47.2414 25.087 47.1765C25.104 46.6527 25.1203 46.158 25.1505 45.7337C25.2478 44.3651 25.7947 43.1039 26.6905 42.1823C27.5943 41.2524 28.8023 40.7403 30.0919 40.7403C31.3815 40.7403 32.5894 41.2524 33.4933 42.1823C34.3891 43.1039 34.936 44.3651 35.0333 45.7337C35.0634 46.1579 35.0798 46.6525 35.0971 47.1762C35.0986 47.2212 35.1001 47.2668 35.1017 47.3121C34.2729 46.0353 32.993 45.0943 31.3393 44.5629C29.8115 44.072 28.4975 44.1024 28.442 44.1038C28.2425 44.1094 28.0532 44.1929 27.9148 44.3365L26.5405 45.7618C26.2485 46.0647 26.2572 46.5469 26.5601 46.8389C26.8629 47.1309 27.3451 47.1221 27.6371 46.8193L28.7807 45.6334C29.7656 45.6815 32.934 46.05 34.1663 48.7634C33.8562 50.763 32.1376 52.248 30.0921 52.248ZM33.2967 53.6859L33.2968 52.7774C34.1829 52.1673 34.8875 51.3091 35.3078 50.2943C35.3991 50.9502 35.5339 51.5715 35.7415 52.1141C35.4381 52.4838 34.7201 53.1734 33.2967 53.6859ZM40.6269 41.3283V39.4385C40.6269 39.3238 40.601 39.2106 40.5511 39.1073C40.061 38.0923 39.8124 37.0153 39.8124 35.9062V34.2774C39.8124 31.1046 42.3936 28.5235 45.5663 28.5235H56.2069V35.9063C56.2069 37.0154 55.9583 38.0924 55.4682 39.1074C55.4183 39.2107 55.3924 39.3239 55.3924 39.4386V41.6074C55.3924 43.6703 54.5632 45.5836 53.0574 46.995C52.8694 47.1711 52.6743 47.3363 52.4726 47.4901C52.4681 47.4932 52.4639 47.4965 52.4595 47.4997C51.0489 48.5707 49.3211 49.0912 47.5168 48.9743C43.6532 48.7241 40.6269 45.3657 40.6269 41.3283ZM44.9158 56.6552C44.9105 56.6605 44.8982 56.673 44.8733 56.6704C44.8485 56.6679 44.8388 56.6534 44.8346 56.6471L42.4657 53.0936L43.228 52.2926L46.8218 54.7491L44.9158 56.6552ZM48.0096 53.7157L43.8847 50.8961V49.4743C44.952 50.0512 46.1471 50.4121 47.4181 50.4944C47.6189 50.5074 47.8185 50.5138 48.0175 50.5138C49.474 50.5138 50.8757 50.1656 52.1346 49.5047V50.8961L48.0096 53.7157ZM51.1847 56.6473C51.1805 56.6536 51.1708 56.6681 51.146 56.6706C51.1211 56.6737 51.1089 56.6606 51.1035 56.6554L49.1975 54.7494L52.7913 52.2928L53.5537 53.0938L51.1847 56.6473ZM65.0938 56.0046L63.3652 54.2761C63.3954 54.1391 63.4124 53.9891 63.4123 53.8237L63.4122 53.5022C63.8919 53.6596 64.3975 53.7531 64.9206 53.7687C64.9793 53.7706 65.0375 53.7714 65.096 53.7714C65.6741 53.7714 66.2384 53.684 66.7755 53.5174V53.8241C66.7755 53.976 66.7945 54.1249 66.8305 54.268L65.0938 56.0046ZM67.9663 51.0835C67.159 51.867 66.0924 52.2807 64.9664 52.246C62.7621 52.1799 60.9688 50.2383 60.9688 47.9181V46.4941C60.9688 46.3758 60.9413 46.2592 60.8884 46.1535L60.4178 45.2124C60.2455 44.8676 60.1544 44.4816 60.1544 44.0961V44.0507C60.1544 42.2252 61.6395 40.7402 63.4649 40.7402H70.0333V43.9039C70.0333 44.4151 69.9124 44.9271 69.6838 45.3844L69.2993 46.1535C69.2464 46.2593 69.2188 46.3758 69.2188 46.4941V48.123C69.2188 49.2483 68.774 50.2997 67.9663 51.0835Z" fill="#5956E9"/>
</g>
<defs>
<clipPath id="clip0_1_211">
<rect width="97" height="97" fill="white"/>
</clipPath>
</defs>
</svg>
