<svg width="22" height="22" viewBox="0 0 22 22" fill="none" xmlns="http://www.w3.org/2000/svg">
<path d="M11 5.52344C7.97999 5.52344 5.52295 7.98039 5.52295 11.0004C5.52295 14.0204 7.97999 16.4774 11 16.4774C14.0201 16.4774 16.4771 14.0204 16.4771 11.0004C16.4771 7.98039 14.0201 5.52344 11 5.52344ZM11 15.1883C8.69078 15.1883 6.81201 13.3096 6.81201 11.0004C6.81201 8.69118 8.69078 6.8125 11 6.8125C13.3094 6.8125 15.1881 8.69118 15.1881 11.0004C15.1881 13.3096 13.3094 15.1883 11 15.1883Z" fill="white"/>
<path d="M16.1777 0H5.82227C2.61186 0 0 2.61186 0 5.82227V16.1777C0 19.3881 2.61186 22 5.82227 22H16.1777C19.3881 22 22 19.3881 22 16.1777V5.82227C22 2.61186 19.3881 0 16.1777 0ZM20.7109 16.1777C20.7109 18.6774 18.6774 20.7109 16.1777 20.7109H5.82227C3.32264 20.7109 1.28906 18.6774 1.28906 16.1777V5.82227C1.28906 3.32264 3.32264 1.28906 5.82227 1.28906H16.1777C18.6774 1.28906 20.7109 3.32264 20.7109 5.82227V16.1777Z" fill="white"/>
<path d="M17.1274 4.22852C16.9577 4.22852 16.7919 4.29727 16.672 4.41758C16.5517 4.53746 16.4829 4.70332 16.4829 4.87305C16.4829 5.04277 16.5517 5.20906 16.672 5.32895C16.7919 5.44883 16.9577 5.51758 17.1274 5.51758C17.2972 5.51758 17.4635 5.44883 17.5833 5.32895C17.7032 5.20906 17.772 5.04277 17.772 4.87305C17.772 4.70375 17.7032 4.53746 17.5833 4.41758C17.4635 4.29727 17.2972 4.22852 17.1274 4.22852Z" fill="white"/>
</svg>
