<svg width="97" height="97" viewBox="0 0 97 97" fill="none" xmlns="http://www.w3.org/2000/svg">
<path d="M14.1881 82.8077C-4.72938 63.8902 -4.72938 33.1057 14.1881 14.1881C33.1057 -4.72938 63.8902 -4.72938 82.8077 14.1881C101.725 33.1057 101.725 63.8902 82.8077 82.8077C63.8902 101.725 33.1057 101.725 14.1881 82.8077V82.8077ZM77.1001 19.8999C59.7535 2.55743 34.3906 -0.298437 17.044 17.044C-0.298437 34.3865 2.55743 59.7535 19.8999 77.096C37.2423 94.4384 62.6094 97.2943 79.9518 79.9518C97.2943 62.6094 94.4384 37.2423 77.096 19.8999H77.1001Z" fill="#5956E9"/>
<path d="M74.0767 60.5709H22.9233C22.4155 60.5709 22 60.1554 22 59.6476V55.2247C22 54.7169 22.4155 54.3014 22.9233 54.3014H74.0767C74.5845 54.3014 75 54.7169 75 55.2247V59.6476C75 60.1554 74.5937 60.5709 74.0767 60.5709ZM23.8467 58.7242H73.1533V56.1481H23.8467V58.7242Z" fill="#5956E9"/>
<path d="M71.4365 72.4912H25.5647C25.0569 72.4912 24.6414 72.0757 24.6414 71.5678V59.6475C24.6414 59.1396 25.0569 58.7241 25.5647 58.7241H71.4365C71.9444 58.7241 72.3599 59.1396 72.3599 59.6475V71.5678C72.3599 72.0849 71.9444 72.4912 71.4365 72.4912ZM26.4881 70.6445H70.5132V60.5708H26.4881V70.6445Z" fill="#5956E9"/>
<path d="M55.6924 72.2514C55.5631 72.2514 55.4338 72.2237 55.3138 72.1683C54.8521 71.9559 54.649 71.4111 54.8521 70.9402L62.0634 55.1233C62.2112 54.8001 62.5344 54.5878 62.8945 54.5878C63.2638 54.6062 63.5777 54.7817 63.7347 55.1048L71.5277 70.9217C71.7493 71.3834 71.5647 71.9282 71.103 72.159C70.6506 72.3806 70.0965 72.196 69.8657 71.7343L62.9406 57.6625L56.5326 71.7158C56.3849 72.0575 56.0432 72.2514 55.6924 72.2514V72.2514Z" fill="#5956E9"/>
<path d="M71.8042 49.2505H54.5931C54.0853 49.2505 53.6698 48.8349 53.6698 48.3271V36.7114C53.6698 36.2036 54.0853 35.7881 54.5931 35.7881H71.8042C72.3121 35.7881 72.7276 36.2036 72.7276 36.7114V48.3271C72.7276 48.8349 72.3121 49.2505 71.8042 49.2505ZM55.5164 47.4038H70.8809V37.6348H55.5164V47.4038Z" fill="#5956E9"/>
<path d="M66.4683 53.2117H59.9311C59.4232 53.2117 59.0077 52.7962 59.0077 52.2884V48.318C59.0077 47.8102 59.4232 47.3947 59.9311 47.3947H66.4683C66.9762 47.3947 67.3917 47.8102 67.3917 48.318V52.2884C67.3917 52.8055 66.9762 53.2117 66.4683 53.2117ZM60.8544 51.365H65.545V49.2413H60.8544V51.365Z" fill="#5956E9"/>
<path d="M62.9954 56.73C62.4875 56.73 62.072 56.3145 62.072 55.8066V52.8242C62.072 52.3164 62.4875 51.9009 62.9954 51.9009C63.5032 51.9009 63.9187 52.3164 63.9187 52.8242V55.8066C63.9187 56.3145 63.5032 56.73 62.9954 56.73Z" fill="#5956E9"/>
<path d="M65.5164 46.1852H57.4741C56.9662 46.1852 56.5507 45.7697 56.5507 45.2619V39.4171C56.5507 38.9093 56.9662 38.4938 57.4741 38.4938H65.5164C66.0242 38.4938 66.4397 38.9093 66.4397 39.4171V45.2619C66.4397 45.7697 66.0242 46.1852 65.5164 46.1852ZM58.3974 44.3385H64.5931V40.3405H58.3974V44.3385Z" fill="#5956E9"/>
<path d="M68.5753 42.6124C67.5966 42.6124 66.8025 41.8183 66.8025 40.8396C66.8025 39.8608 67.5966 39.0668 68.5753 39.0668C69.5541 39.0668 70.3482 39.8608 70.3482 40.8396C70.3482 41.8183 69.5541 42.6124 68.5753 42.6124ZM68.5753 40.7657C68.5384 40.7657 68.5015 40.8027 68.5015 40.8396C68.5015 40.9227 68.6584 40.9227 68.6584 40.8396C68.6584 40.8027 68.6215 40.7657 68.5753 40.7657Z" fill="#5956E9"/>
<path d="M68.5753 46.0747C67.5966 46.0747 66.8025 45.2806 66.8025 44.3019C66.8025 43.3231 67.5966 42.5291 68.5753 42.5291C69.5541 42.5291 70.3482 43.3231 70.3482 44.3019C70.3482 45.2806 69.5541 46.0747 68.5753 46.0747ZM68.5753 44.228C68.5384 44.228 68.5015 44.2649 68.5015 44.3019C68.5015 44.385 68.6584 44.385 68.6584 44.3019C68.6584 44.2649 68.6215 44.228 68.5753 44.228Z" fill="#5956E9"/>
<path d="M66.8653 37.6351H59.5247C59.2108 37.6351 58.9153 37.4782 58.7491 37.2104C58.5829 36.9426 58.5552 36.6195 58.6845 36.3332L60.4111 32.4829C60.5589 32.1505 60.8913 31.9381 61.2514 31.9381H65.1387C65.4988 31.9381 65.8312 32.1505 65.9789 32.4829L67.7148 36.3332C67.8441 36.6195 67.8164 36.9519 67.6502 37.2104C67.484 37.4689 67.1793 37.6351 66.8653 37.6351V37.6351ZM60.9559 35.7885H65.4434L64.5477 33.7848H61.8608L60.9559 35.7885Z" fill="#5956E9"/>
<path d="M39.6644 39.7311C35.0477 39.7311 31.2989 35.9731 31.2989 31.3656C31.2989 26.7581 35.0569 23.0001 39.6644 23.0001C44.2719 23.0001 48.0299 26.7581 48.0299 31.3656C48.0299 35.9731 44.2811 39.7311 39.6644 39.7311V39.7311ZM39.6644 24.8376C36.0726 24.8376 33.1456 27.7646 33.1456 31.3564C33.1456 34.9482 36.0726 37.8752 39.6644 37.8752C43.2562 37.8752 46.1832 34.9482 46.1832 31.3564C46.1832 27.7646 43.2654 24.8376 39.6644 24.8376Z" fill="#5956E9"/>
<path d="M52.7477 56.5452H26.5894C26.0816 56.5452 25.666 56.1297 25.666 55.6218C25.666 47.9026 31.9448 41.6239 39.664 41.6239C47.3831 41.6239 53.6619 47.9026 53.6619 55.6218C53.6711 56.1297 53.2556 56.5452 52.7477 56.5452ZM27.5497 54.6985H51.7875C51.3166 48.429 46.0627 43.4706 39.6732 43.4706C33.2836 43.4706 28.0206 48.4197 27.5497 54.6985V54.6985Z" fill="#5956E9"/>
</svg>
