<svg width="24" height="24" viewBox="0 0 24 24" fill="none" xmlns="http://www.w3.org/2000/svg">
<g clip-path="url(#clip0_0_471)">
<path d="M12.326 0.000488281C5.747 0.00148828 2.25 4.21649 2.25 8.81249C2.25 10.9435 3.441 13.6025 5.348 14.4455C5.892 14.6905 5.82 14.3915 6.288 12.6015C6.325 12.4525 6.306 12.3235 6.186 12.1845C3.46 9.03149 5.654 2.54949 11.937 2.54949C21.03 2.54949 19.331 15.1315 13.519 15.1315C12.021 15.1315 10.905 13.9555 11.258 12.5005C11.686 10.7675 12.524 8.90449 12.524 7.65549C12.524 4.50749 7.834 4.97449 7.834 9.14549C7.834 10.4345 8.29 11.3045 8.29 11.3045C8.29 11.3045 6.781 17.4005 6.501 18.5395C6.027 20.4675 6.565 23.5885 6.612 23.8575C6.641 24.0055 6.807 24.0525 6.9 23.9305C7.049 23.7355 8.873 21.1335 9.384 19.2525C9.57 18.5675 10.333 15.7875 10.333 15.7875C10.836 16.6955 12.286 17.4555 13.831 17.4555C18.427 17.4555 21.749 13.4155 21.749 8.40249C21.733 3.59649 17.62 0.000488281 12.326 0.000488281V0.000488281Z" fill="white"/>
</g>
<defs>
<clipPath id="clip0_0_471">
<rect width="24" height="24" fill="white" transform="translate(0 0.000488281)"/>
</clipPath>
</defs>
</svg>
