<svg width="22" height="23" viewBox="0 0 22 23" fill="none" xmlns="http://www.w3.org/2000/svg">
<g clip-path="url(#clip0_97_1066)">
<path d="M21.2337 6.26898C20.9879 5.35543 20.2676 4.63532 19.3542 4.38932C17.6854 3.93262 11.0102 3.93262 11.0102 3.93262C11.0102 3.93262 4.3351 3.93262 2.66629 4.37191C1.77046 4.61775 1.03262 5.35559 0.786783 6.26898C0.347656 7.93763 0.347656 11.3983 0.347656 11.3983C0.347656 11.3983 0.347656 14.8763 0.786783 16.5275C1.03278 17.4409 1.75289 18.1612 2.66645 18.4072C4.35267 18.8639 11.0103 18.8639 11.0103 18.8639C11.0103 18.8639 17.6854 18.8639 19.3542 18.4246C20.2678 18.1788 20.9879 17.4585 21.2339 16.5451C21.673 14.8763 21.673 11.4158 21.673 11.4158C21.673 11.4158 21.6906 7.93763 21.2337 6.26898Z" fill="white"/>
<path d="M8.88477 14.5953L14.4356 11.3982L8.88477 8.20117V14.5953Z" fill="#5956E9"/>
</g>
<defs>
<clipPath id="clip0_97_1066">
<rect width="21.3255" height="21.3255" fill="white" transform="translate(0.347656 0.725586)"/>
</clipPath>
</defs>
</svg>
