<svg width="188" height="36" viewBox="0 0 188 36" fill="none" xmlns="http://www.w3.org/2000/svg">
<path d="M0.769531 25.7409V8.87244H3.26018L9.6 17.6576H8.35468L14.5813 8.87244H17.0719V25.7409H14.4228V12.0197L15.4191 12.2914L9.05659 20.986H8.78488L2.55827 12.2914L3.44132 12.0197V25.7409H0.769531Z" fill="white"/>
<path d="M23.0727 26.0126C22.2424 26.0126 21.5104 25.8692 20.8764 25.5824C20.2575 25.2805 19.7744 24.8729 19.4273 24.3597C19.0801 23.8314 18.9065 23.2125 18.9065 22.5031C18.9065 21.8389 19.0499 21.2426 19.3367 20.7143C19.6386 20.186 20.099 19.7407 20.7179 19.3784C21.3368 19.0162 22.1141 18.7595 23.05 18.6086L27.3068 17.9067V19.9218L23.5482 20.5785C22.8689 20.6992 22.3708 20.9181 22.0538 21.2351C21.7368 21.537 21.5783 21.9295 21.5783 22.4125C21.5783 22.8804 21.7519 23.2654 22.099 23.5672C22.4613 23.854 22.9217 23.9974 23.4802 23.9974C24.1746 23.9974 24.7784 23.8465 25.2916 23.5446C25.8199 23.2427 26.2275 22.8427 26.5143 22.3446C26.8011 21.8313 26.9445 21.2653 26.9445 20.6464V17.4991C26.9445 16.8953 26.7181 16.4048 26.2652 16.0274C25.8275 15.6349 25.2388 15.4387 24.4991 15.4387C23.8199 15.4387 23.2236 15.6198 22.7104 15.9821C22.2123 16.3293 21.8424 16.7821 21.6009 17.3406L19.4725 16.2764C19.699 15.6727 20.0688 15.1443 20.582 14.6915C21.0952 14.2236 21.6915 13.8613 22.3708 13.6047C23.0651 13.3481 23.7972 13.2197 24.5671 13.2197C25.5331 13.2197 26.386 13.4009 27.1256 13.7632C27.8804 14.1254 28.4615 14.6311 28.8691 15.2802C29.2917 15.9142 29.5031 16.6538 29.5031 17.4991V25.7409H27.0577V23.522L27.5785 23.5899C27.2917 24.088 26.9218 24.5182 26.469 24.8805C26.0313 25.2428 25.5256 25.522 24.952 25.7183C24.3935 25.9145 23.767 26.0126 23.0727 26.0126Z" fill="white"/>
<path d="M31.589 25.7409V13.4915H34.0343V15.8915L33.74 15.5745C34.0419 14.8047 34.5249 14.2236 35.1891 13.8311C35.8533 13.4235 36.6231 13.2197 37.4986 13.2197C38.4043 13.2197 39.2043 13.416 39.8987 13.8084C40.593 14.2009 41.1365 14.7443 41.5289 15.4387C41.9214 16.133 42.1176 16.9331 42.1176 17.8388V25.7409H39.5817V18.518C39.5817 17.8991 39.4685 17.3784 39.2421 16.9557C39.0156 16.518 38.6911 16.1859 38.2684 15.9595C37.8609 15.7179 37.3929 15.5972 36.8646 15.5972C36.3363 15.5972 35.8608 15.7179 35.4382 15.9595C35.0306 16.1859 34.7136 16.518 34.4872 16.9557C34.2608 17.3935 34.1475 17.9142 34.1475 18.518V25.7409H31.589Z" fill="white"/>
<path d="M43.9502 25.7409V13.4915H46.5088V25.7409H43.9502ZM43.9502 11.8159V8.87244H46.5088V11.8159H43.9502Z" fill="white"/>
<path d="M48.5945 25.7409V8.60073H51.1531V25.7409H48.5945Z" fill="white"/>
<path d="M56.9069 26.0126C56.0767 26.0126 55.3446 25.8692 54.7106 25.5824C54.0917 25.2805 53.6087 24.8729 53.2615 24.3597C52.9143 23.8314 52.7407 23.2125 52.7407 22.5031C52.7407 21.8389 52.8841 21.2426 53.1709 20.7143C53.4728 20.186 53.9332 19.7407 54.5521 19.3784C55.171 19.0162 55.9484 18.7595 56.8842 18.6086L61.141 17.9067V19.9218L57.3824 20.5785C56.7031 20.6992 56.205 20.9181 55.888 21.2351C55.571 21.537 55.4125 21.9295 55.4125 22.4125C55.4125 22.8804 55.5861 23.2654 55.9333 23.5672C56.2955 23.854 56.7559 23.9974 57.3144 23.9974C58.0088 23.9974 58.6126 23.8465 59.1258 23.5446C59.6541 23.2427 60.0617 22.8427 60.3485 22.3446C60.6353 21.8313 60.7787 21.2653 60.7787 20.6464V17.4991C60.7787 16.8953 60.5523 16.4048 60.0994 16.0274C59.6617 15.6349 59.073 15.4387 58.3333 15.4387C57.6541 15.4387 57.0578 15.6198 56.5446 15.9821C56.0465 16.3293 55.6767 16.7821 55.4351 17.3406L53.3068 16.2764C53.5332 15.6727 53.903 15.1443 54.4162 14.6915C54.9295 14.2236 55.5257 13.8613 56.205 13.6047C56.8993 13.3481 57.6314 13.2197 58.4013 13.2197C59.3673 13.2197 60.2202 13.4009 60.9598 13.7632C61.7146 14.1254 62.2957 14.6311 62.7033 15.2802C63.126 15.9142 63.3373 16.6538 63.3373 17.4991V25.7409H60.8919V23.522L61.4127 23.5899C61.1259 24.088 60.7561 24.5182 60.3032 24.8805C59.8655 25.2428 59.3598 25.522 58.7862 25.7183C58.2277 25.9145 57.6013 26.0126 56.9069 26.0126Z" fill="white"/>
<path d="M115.392 34.8695V33.3986H116.462V34.8695H115.392Z" fill="white"/>
<path d="M122.147 35.03C121.442 35.03 120.823 34.8651 120.288 34.5352C119.753 34.2054 119.334 33.7597 119.031 33.198C118.728 32.6275 118.576 31.9857 118.576 31.2725C118.576 30.5593 118.728 29.9219 119.031 29.3603C119.334 28.7987 119.753 28.3574 120.288 28.0365C120.823 27.7066 121.442 27.5417 122.147 27.5417C122.592 27.5417 123.011 27.6219 123.404 27.7824C123.796 27.9429 124.143 28.1613 124.447 28.4376C124.75 28.7051 124.977 29.0171 125.129 29.3737L124.219 29.8417C124.041 29.4584 123.769 29.1463 123.404 28.9057C123.038 28.665 122.619 28.5446 122.147 28.5446C121.674 28.5446 121.246 28.665 120.863 28.9057C120.488 29.1374 120.19 29.4628 119.967 29.8818C119.753 30.2919 119.646 30.7599 119.646 31.2859C119.646 31.8029 119.753 32.2709 119.967 32.6899C120.19 33.1 120.488 33.4254 120.863 33.6661C121.246 33.9068 121.674 34.0271 122.147 34.0271C122.619 34.0271 123.034 33.9068 123.39 33.6661C123.756 33.4254 124.032 33.1044 124.219 32.7033L125.129 33.198C124.977 33.5457 124.75 33.8577 124.447 34.1341C124.143 34.4104 123.796 34.6288 123.404 34.7893C123.011 34.9498 122.592 35.03 122.147 35.03Z" fill="white"/>
<path d="M130.245 35.03C129.567 35.03 128.952 34.8695 128.399 34.5486C127.847 34.2188 127.405 33.773 127.076 33.2114C126.755 32.6409 126.594 31.9946 126.594 31.2725C126.594 30.5593 126.755 29.9219 127.076 29.3603C127.397 28.7987 127.829 28.3574 128.373 28.0365C128.925 27.7066 129.549 27.5417 130.245 27.5417C130.94 27.5417 131.56 27.7022 132.103 28.0231C132.656 28.344 133.088 28.7853 133.401 29.3469C133.721 29.9085 133.882 30.5504 133.882 31.2725C133.882 32.0035 133.717 32.6542 133.387 33.2248C133.057 33.7864 132.616 34.2277 132.063 34.5486C131.52 34.8695 130.913 35.03 130.245 35.03ZM130.245 34.0271C130.726 34.0271 131.158 33.9068 131.542 33.6661C131.934 33.4254 132.242 33.0955 132.464 32.6765C132.696 32.2575 132.812 31.7895 132.812 31.2725C132.812 30.7554 132.696 30.2919 132.464 29.8818C132.242 29.4717 131.934 29.1463 131.542 28.9057C131.158 28.665 130.726 28.5446 130.245 28.5446C129.763 28.5446 129.327 28.665 128.934 28.9057C128.551 29.1463 128.243 29.4717 128.012 29.8818C127.78 30.2919 127.664 30.7554 127.664 31.2725C127.664 31.7895 127.78 32.2575 128.012 32.6765C128.243 33.0955 128.551 33.4254 128.934 33.6661C129.327 33.9068 129.763 34.0271 130.245 34.0271Z" fill="white"/>
<path d="M135.651 34.8695V27.7022H136.654V29.0661L136.493 28.8655C136.689 28.4465 136.979 28.1212 137.362 27.8894C137.754 27.6576 138.182 27.5417 138.646 27.5417C139.199 27.5417 139.698 27.6977 140.144 28.0097C140.589 28.3217 140.906 28.7274 141.093 29.2266L140.812 29.2399C140.991 28.6872 141.298 28.2683 141.735 27.983C142.181 27.6888 142.671 27.5417 143.206 27.5417C143.687 27.5417 144.128 27.6576 144.53 27.8894C144.94 28.1212 145.265 28.4421 145.506 28.8522C145.755 29.2533 145.88 29.708 145.88 30.2161V34.8695H144.877V30.6039C144.877 30.1671 144.797 29.7971 144.637 29.494C144.485 29.1909 144.276 28.9591 144.008 28.7987C143.741 28.6293 143.433 28.5446 143.085 28.5446C142.747 28.5446 142.439 28.6293 142.163 28.7987C141.886 28.9591 141.668 29.1954 141.508 29.5074C141.347 29.8105 141.267 30.176 141.267 30.6039V34.8695H140.264V30.6039C140.264 30.1671 140.184 29.7971 140.023 29.494C139.872 29.1909 139.662 28.9591 139.395 28.7987C139.127 28.6293 138.82 28.5446 138.472 28.5446C138.124 28.5446 137.812 28.6293 137.536 28.7987C137.269 28.9591 137.055 29.1954 136.894 29.5074C136.734 29.8105 136.654 30.176 136.654 30.6039V34.8695H135.651Z" fill="white"/>
<path d="M64.9317 25.7459V8.8723H67.4231L73.7648 17.6602H72.5191L78.7476 8.8723H81.239V25.7459H78.5891V12.0205L79.5856 12.2923L73.2212 20.9896H72.9495L66.721 12.2923L67.6043 12.0205V25.7459H64.9317Z" fill="url(#paint0_linear_1_2)"/>
<path d="M89.7103 26.0177C88.5326 26.0177 87.453 25.7383 86.4715 25.1797C85.5051 24.621 84.7351 23.8585 84.1613 22.8921C83.5875 21.9257 83.3006 20.831 83.3006 19.608C83.3006 18.3698 83.5875 17.2751 84.1613 16.3239C84.7351 15.3575 85.5051 14.6025 86.4715 14.0589C87.4379 13.5003 88.5175 13.2209 89.7103 13.2209C90.9183 13.2209 91.9979 13.5003 92.9491 14.0589C93.9155 14.6025 94.678 15.3575 95.2367 16.3239C95.8105 17.2751 96.0974 18.3698 96.0974 19.608C96.0974 20.8461 95.8105 21.9484 95.2367 22.9147C94.6629 23.8811 93.8929 24.6436 92.9265 25.2023C91.9601 25.7459 90.8881 26.0177 89.7103 26.0177ZM89.7103 23.6395C90.4351 23.6395 91.0768 23.4659 91.6355 23.1186C92.1942 22.7713 92.6321 22.2957 92.9491 21.6917C93.2813 21.0726 93.4474 20.378 93.4474 19.608C93.4474 18.8379 93.2813 18.1509 92.9491 17.5469C92.6321 16.9429 92.1942 16.4673 91.6355 16.12C91.0768 15.7727 90.4351 15.5991 89.7103 15.5991C89.0006 15.5991 88.3589 15.7727 87.7851 16.12C87.2265 16.4673 86.781 16.9429 86.4489 17.5469C86.1318 18.1509 85.9732 18.8379 85.9732 19.608C85.9732 20.378 86.1318 21.0726 86.4489 21.6917C86.781 22.2957 87.2265 22.7713 87.7851 23.1186C88.3589 23.4659 89.0006 23.6395 89.7103 23.6395Z" fill="url(#paint1_linear_1_2)"/>
<path d="M103.579 26.0177C102.401 26.0177 101.344 25.7383 100.408 25.1797C99.4869 24.6059 98.7546 23.8358 98.211 22.8694C97.6825 21.9031 97.4183 20.8159 97.4183 19.608C97.4183 18.4 97.6901 17.3129 98.2336 16.3465C98.7772 15.3801 99.5095 14.6176 100.431 14.0589C101.352 13.5003 102.394 13.2209 103.556 13.2209C104.538 13.2209 105.406 13.4172 106.161 13.8098C106.916 14.2024 107.512 14.746 107.95 15.4405L107.565 16.0294V8.60051H110.102V25.7459H107.678V23.2545L107.973 23.7301C107.55 24.47 106.946 25.0362 106.161 25.4288C105.376 25.8214 104.515 26.0177 103.579 26.0177ZM103.828 23.6395C104.538 23.6395 105.172 23.4659 105.73 23.1186C106.304 22.7713 106.75 22.2957 107.067 21.6917C107.399 21.0726 107.565 20.378 107.565 19.608C107.565 18.8379 107.399 18.1509 107.067 17.5469C106.75 16.9429 106.304 16.4673 105.73 16.12C105.172 15.7727 104.538 15.5991 103.828 15.5991C103.118 15.5991 102.477 15.7727 101.903 16.12C101.329 16.4673 100.884 16.9429 100.566 17.5469C100.249 18.1509 100.091 18.8379 100.091 19.608C100.091 20.378 100.249 21.0726 100.566 21.6917C100.884 22.2957 101.321 22.7713 101.88 23.1186C102.454 23.4659 103.103 23.6395 103.828 23.6395Z" fill="url(#paint2_linear_1_2)"/>
<path d="M118.163 26.0177C116.94 26.0177 115.853 25.7383 114.902 25.1797C113.965 24.6059 113.233 23.8358 112.705 22.8694C112.176 21.888 111.912 20.7933 111.912 19.5853C111.912 18.3472 112.176 17.2525 112.705 16.3012C113.248 15.3499 113.973 14.6025 114.879 14.0589C115.785 13.5003 116.812 13.2209 117.959 13.2209C118.88 13.2209 119.703 13.3795 120.428 13.6966C121.153 14.0136 121.764 14.4515 122.263 15.0102C122.761 15.5538 123.138 16.1804 123.395 16.8901C123.667 17.5998 123.803 18.3547 123.803 19.155C123.803 19.3513 123.795 19.5551 123.78 19.7665C123.765 19.9779 123.735 20.1742 123.689 20.3554H113.928V18.317H122.24L121.017 19.2456C121.168 18.5057 121.115 17.8489 120.858 17.2751C120.617 16.6862 120.239 16.2257 119.726 15.8935C119.228 15.5462 118.639 15.3726 117.959 15.3726C117.28 15.3726 116.676 15.5462 116.147 15.8935C115.619 16.2257 115.211 16.7089 114.924 17.3431C114.637 17.9621 114.524 18.7171 114.585 19.608C114.509 20.4384 114.622 21.1632 114.924 21.7823C115.241 22.4014 115.679 22.8845 116.238 23.2318C116.812 23.5791 117.461 23.7528 118.186 23.7528C118.926 23.7528 119.552 23.5867 120.066 23.2545C120.594 22.9223 121.009 22.492 121.311 21.9635L123.395 22.9827C123.153 23.5565 122.776 24.0774 122.263 24.5455C121.764 24.9985 121.16 25.3609 120.451 25.6326C119.756 25.8893 118.994 26.0177 118.163 26.0177Z" fill="url(#paint3_linear_1_2)"/>
<path d="M125.621 25.7459V8.60051H128.18V25.7459H125.621Z" fill="url(#paint4_linear_1_2)"/>
<path d="M130.493 25.7459V13.4927H133.053V25.7459H130.493ZM130.493 11.8167V8.8723H133.053V11.8167H130.493Z" fill="url(#paint5_linear_1_2)"/>
<path d="M135.365 25.7459V13.4927H137.812V15.8935L137.517 15.5764C137.819 14.8064 138.302 14.225 138.967 13.8325C139.631 13.4248 140.401 13.2209 141.277 13.2209C142.183 13.2209 142.983 13.4172 143.678 13.8098C144.372 14.2024 144.916 14.746 145.308 15.4405C145.701 16.1351 145.897 16.9354 145.897 17.8413V25.7459H143.361V18.5208C143.361 17.9017 143.247 17.3808 143.021 16.958C142.794 16.5201 142.47 16.188 142.047 15.9615C141.639 15.7199 141.171 15.5991 140.643 15.5991C140.114 15.5991 139.639 15.7199 139.216 15.9615C138.808 16.188 138.491 16.5201 138.265 16.958C138.038 17.3959 137.925 17.9168 137.925 18.5208V25.7459H135.365Z" fill="url(#paint6_linear_1_2)"/>
<path d="M153.868 30.7287C152.977 30.7287 152.155 30.5852 151.4 30.2984C150.645 30.0115 149.995 29.6113 149.452 29.098C148.908 28.5997 148.5 28.0108 148.229 27.3313L150.584 26.3574C150.796 26.9312 151.181 27.4068 151.739 27.7843C152.313 28.1618 153.015 28.3505 153.846 28.3505C154.495 28.3505 155.076 28.2222 155.59 27.9655C156.103 27.7239 156.511 27.3615 156.813 26.8783C157.115 26.4103 157.266 25.844 157.266 25.1797V22.4165L157.719 22.9374C157.296 23.7226 156.707 24.319 155.952 24.7267C155.212 25.1344 154.374 25.3382 153.438 25.3382C152.306 25.3382 151.286 25.074 150.38 24.5455C149.474 24.017 148.757 23.2922 148.229 22.3712C147.715 21.4501 147.459 20.4158 147.459 19.2682C147.459 18.1056 147.715 17.0713 148.229 16.1653C148.757 15.2594 149.467 14.5421 150.358 14.0136C151.249 13.4852 152.268 13.2209 153.415 13.2209C154.352 13.2209 155.182 13.4248 155.907 13.8325C156.897 14.7162 159.202 16.7345 159.802 17.2653V25.1797C159.802 26.2366 159.546 27.1803 159.032 28.0108C158.534 28.8564 157.839 29.5207 156.949 30.0039C156.058 30.4871 155.031 30.7287 153.868 30.7287ZM153.732 22.96C154.412 22.96 155.016 22.8015 155.544 22.4844C156.073 22.1522 156.488 21.7143 156.79 21.1708C157.107 20.6121 157.266 19.9855 157.266 19.2909C157.266 18.5963 157.107 17.9697 156.79 17.411C156.473 16.8523 156.05 16.4145 155.522 16.0974C154.993 15.7652 154.397 15.5991 153.732 15.5991C153.038 15.5991 152.419 15.7652 151.875 16.0974C151.332 16.4145 150.901 16.8523 150.584 17.411C150.282 17.9546 150.131 18.5812 150.131 19.2909C150.131 19.9704 150.282 20.5894 150.584 21.1481C150.901 21.7068 151.332 22.1522 151.875 22.4844C152.419 22.8015 153.038 22.96 153.732 22.96Z" fill="url(#paint7_linear_1_2)"/>
<path d="M176.77 18.8487L187.743 11.5288H176.03L174.244 0.00878906L168.221 11.5288H156.508L164.807 18.819L158.834 30.7287L169.966 23.3559L178.364 30.7287L176.77 18.8487Z" fill="url(#paint8_linear_1_2)"/>
<defs>
<linearGradient id="paint0_linear_1_2" x1="79" y1="39" x2="182.849" y2="11.2596" gradientUnits="userSpaceOnUse">
<stop stop-color="#FFA724"/>
<stop offset="0.531335" stop-color="#FFB23F"/>
<stop offset="1" stop-color="#FFBF74"/>
</linearGradient>
<linearGradient id="paint1_linear_1_2" x1="79" y1="39" x2="182.849" y2="11.2596" gradientUnits="userSpaceOnUse">
<stop stop-color="#FFA724"/>
<stop offset="0.531335" stop-color="#FFB23F"/>
<stop offset="1" stop-color="#FFBF74"/>
</linearGradient>
<linearGradient id="paint2_linear_1_2" x1="79" y1="39" x2="182.849" y2="11.2596" gradientUnits="userSpaceOnUse">
<stop stop-color="#FFA724"/>
<stop offset="0.531335" stop-color="#FFB23F"/>
<stop offset="1" stop-color="#FFBF74"/>
</linearGradient>
<linearGradient id="paint3_linear_1_2" x1="79" y1="39" x2="182.849" y2="11.2596" gradientUnits="userSpaceOnUse">
<stop stop-color="#FFA724"/>
<stop offset="0.531335" stop-color="#FFB23F"/>
<stop offset="1" stop-color="#FFBF74"/>
</linearGradient>
<linearGradient id="paint4_linear_1_2" x1="79" y1="39" x2="182.849" y2="11.2596" gradientUnits="userSpaceOnUse">
<stop stop-color="#FFA724"/>
<stop offset="0.531335" stop-color="#FFB23F"/>
<stop offset="1" stop-color="#FFBF74"/>
</linearGradient>
<linearGradient id="paint5_linear_1_2" x1="79" y1="39" x2="182.849" y2="11.2596" gradientUnits="userSpaceOnUse">
<stop stop-color="#FFA724"/>
<stop offset="0.531335" stop-color="#FFB23F"/>
<stop offset="1" stop-color="#FFBF74"/>
</linearGradient>
<linearGradient id="paint6_linear_1_2" x1="79" y1="39" x2="182.849" y2="11.2596" gradientUnits="userSpaceOnUse">
<stop stop-color="#FFA724"/>
<stop offset="0.531335" stop-color="#FFB23F"/>
<stop offset="1" stop-color="#FFBF74"/>
</linearGradient>
<linearGradient id="paint7_linear_1_2" x1="79" y1="39" x2="182.849" y2="11.2596" gradientUnits="userSpaceOnUse">
<stop stop-color="#FFA724"/>
<stop offset="0.531335" stop-color="#FFB23F"/>
<stop offset="1" stop-color="#FFBF74"/>
</linearGradient>
<linearGradient id="paint8_linear_1_2" x1="79" y1="39" x2="182.849" y2="11.2596" gradientUnits="userSpaceOnUse">
<stop stop-color="#FFA724"/>
<stop offset="0.531335" stop-color="#FFB23F"/>
<stop offset="1" stop-color="#FFBF74"/>
</linearGradient>
</defs>
</svg>
