<svg width="187" height="36" viewBox="0 0 187 36" fill="none" xmlns="http://www.w3.org/2000/svg">
<path d="M0 25.7321V8.86365H2.49065L8.83047 17.6488H7.58515L13.8118 8.86365H16.3024V25.7321H13.6533V12.0109L14.6495 12.2826L8.28706 20.9772H8.01535L1.78874 12.2826L2.67178 12.0109V25.7321H0Z" fill="#050505"/>
<path d="M22.3031 26.0038C21.4729 26.0038 20.7408 25.8604 20.1068 25.5736C19.4879 25.2717 19.0049 24.8642 18.6577 24.3509C18.3106 23.8226 18.137 23.2037 18.137 22.4943C18.137 21.8301 18.2804 21.2339 18.5672 20.7055C18.8691 20.1772 19.3295 19.7319 19.9483 19.3696C20.5672 19.0074 21.3446 18.7508 22.2805 18.5998L26.5372 17.8979V19.9131L22.7786 20.5697C22.0994 20.6904 21.6012 20.9093 21.2842 21.2263C20.9672 21.5282 20.8087 21.9207 20.8087 22.4037C20.8087 22.8716 20.9823 23.2566 21.3295 23.5585C21.6918 23.8453 22.1522 23.9887 22.7107 23.9887C23.4051 23.9887 24.0088 23.8377 24.5221 23.5358C25.0504 23.2339 25.458 22.8339 25.7448 22.3358C26.0316 21.8226 26.175 21.2565 26.175 20.6376V17.4903C26.175 16.8865 25.9485 16.396 25.4957 16.0186C25.0579 15.6261 24.4692 15.4299 23.7296 15.4299C23.0503 15.4299 22.4541 15.611 21.9409 15.9733C21.4427 16.3205 21.0729 16.7733 20.8314 17.3318L18.703 16.2677C18.9294 15.6639 19.2993 15.1355 19.8125 14.6827C20.3257 14.2148 20.922 13.8525 21.6012 13.5959C22.2956 13.3393 23.0277 13.211 23.7975 13.211C24.7636 13.211 25.6164 13.3921 26.3561 13.7544C27.1108 14.1166 27.692 14.6223 28.0995 15.2714C28.5222 15.9054 28.7335 16.645 28.7335 17.4903V25.7321H26.2882V23.5132L26.8089 23.5811C26.5221 24.0792 26.1523 24.5094 25.6995 24.8717C25.2617 25.234 24.756 25.5132 24.1824 25.7095C23.6239 25.9057 22.9975 26.0038 22.3031 26.0038Z" fill="#050505"/>
<path d="M30.8194 25.7321V13.4827H33.2648V15.8827L32.9705 15.5657C33.2724 14.7959 33.7554 14.2148 34.4196 13.8223C35.0837 13.4147 35.8536 13.211 36.7291 13.211C37.6348 13.211 38.4348 13.4072 39.1291 13.7997C39.8235 14.1921 40.3669 14.7355 40.7594 15.4299C41.1519 16.1243 41.3481 16.9243 41.3481 17.83V25.7321H38.8122V18.5092C38.8122 17.8904 38.6989 17.3696 38.4725 16.9469C38.2461 16.5092 37.9216 16.1771 37.4989 15.9507C37.0913 15.7091 36.6234 15.5884 36.0951 15.5884C35.5668 15.5884 35.0913 15.7091 34.6686 15.9507C34.2611 16.1771 33.9441 16.5092 33.7177 16.9469C33.4912 17.3847 33.378 17.9054 33.378 18.5092V25.7321H30.8194Z" fill="#050505"/>
<path d="M43.1807 25.7321V13.4827H45.7393V25.7321H43.1807ZM43.1807 11.8071V8.86365H45.7393V11.8071H43.1807Z" fill="#050505"/>
<path d="M47.825 25.7321V8.59194H50.3836V25.7321H47.825Z" fill="#050505"/>
<path d="M56.1374 26.0038C55.3071 26.0038 54.575 25.8604 53.9411 25.5736C53.3222 25.2717 52.8391 24.8642 52.492 24.3509C52.1448 23.8226 51.9712 23.2037 51.9712 22.4943C51.9712 21.8301 52.1146 21.2339 52.4014 20.7055C52.7033 20.1772 53.1637 19.7319 53.7826 19.3696C54.4014 19.0074 55.1788 18.7508 56.1147 18.5998L60.3715 17.8979V19.9131L56.6128 20.5697C55.9336 20.6904 55.4354 20.9093 55.1185 21.2263C54.8015 21.5282 54.643 21.9207 54.643 22.4037C54.643 22.8716 54.8166 23.2566 55.1637 23.5585C55.526 23.8453 55.9864 23.9887 56.5449 23.9887C57.2393 23.9887 57.8431 23.8377 58.3563 23.5358C58.8846 23.2339 59.2922 22.8339 59.579 22.3358C59.8658 21.8226 60.0092 21.2565 60.0092 20.6376V17.4903C60.0092 16.8865 59.7828 16.396 59.3299 16.0186C58.8922 15.6261 58.3035 15.4299 57.5638 15.4299C56.8845 15.4299 56.2883 15.611 55.7751 15.9733C55.277 16.3205 54.9071 16.7733 54.6656 17.3318L52.5372 16.2677C52.7637 15.6639 53.1335 15.1355 53.6467 14.6827C54.1599 14.2148 54.7562 13.8525 55.4354 13.5959C56.1298 13.3393 56.8619 13.211 57.6317 13.211C58.5978 13.211 59.4507 13.3921 60.1903 13.7544C60.9451 14.1166 61.5262 14.6223 61.9338 15.2714C62.3564 15.9054 62.5678 16.645 62.5678 17.4903V25.7321H60.1224V23.5132L60.6432 23.5811C60.3564 24.0792 59.9865 24.5094 59.5337 24.8717C59.0959 25.234 58.5903 25.5132 58.0167 25.7095C57.4582 25.9057 56.8317 26.0038 56.1374 26.0038Z" fill="#050505"/>
<path d="M114.622 34.8607V33.3898H115.692V34.8607H114.622Z" fill="white"/>
<path d="M121.377 35.0212C120.673 35.0212 120.053 34.8563 119.518 34.5264C118.983 34.1966 118.564 33.7509 118.261 33.1892C117.958 32.6187 117.807 31.9769 117.807 31.2637C117.807 30.5505 117.958 29.9131 118.261 29.3515C118.564 28.7899 118.983 28.3486 119.518 28.0277C120.053 27.6978 120.673 27.5329 121.377 27.5329C121.823 27.5329 122.242 27.6132 122.634 27.7736C123.026 27.9341 123.374 28.1525 123.677 28.4288C123.98 28.6963 124.207 29.0083 124.359 29.3649L123.45 29.8329C123.271 29.4496 122.999 29.1376 122.634 28.8969C122.268 28.6562 121.85 28.5358 121.377 28.5358C120.905 28.5358 120.477 28.6562 120.093 28.8969C119.719 29.1286 119.42 29.454 119.197 29.873C118.983 30.2831 118.876 30.7511 118.876 31.2771C118.876 31.7941 118.983 32.2621 119.197 32.6811C119.42 33.0912 119.719 33.4166 120.093 33.6573C120.477 33.898 120.905 34.0183 121.377 34.0183C121.85 34.0183 122.264 33.898 122.621 33.6573C122.986 33.4166 123.262 33.0956 123.45 32.6945L124.359 33.1892C124.207 33.5369 123.98 33.8489 123.677 34.1253C123.374 34.4016 123.026 34.62 122.634 34.7805C122.242 34.941 121.823 35.0212 121.377 35.0212Z" fill="white"/>
<path d="M129.475 35.0212C128.798 35.0212 128.183 34.8607 127.63 34.5398C127.077 34.21 126.636 33.7642 126.306 33.2026C125.985 32.6321 125.825 31.9858 125.825 31.2637C125.825 30.5505 125.985 29.9131 126.306 29.3515C126.627 28.7899 127.059 28.3486 127.603 28.0277C128.156 27.6978 128.78 27.5329 129.475 27.5329C130.171 27.5329 130.79 27.6934 131.334 28.0143C131.887 28.3352 132.319 28.7765 132.631 29.3381C132.952 29.8998 133.112 30.5416 133.112 31.2637C133.112 31.9947 132.947 32.6455 132.618 33.216C132.288 33.7776 131.846 34.2189 131.294 34.5398C130.75 34.8607 130.144 35.0212 129.475 35.0212ZM129.475 34.0183C129.957 34.0183 130.389 33.898 130.772 33.6573C131.165 33.4166 131.472 33.0867 131.695 32.6677C131.927 32.2488 132.043 31.7807 132.043 31.2637C132.043 30.7466 131.927 30.2831 131.695 29.873C131.472 29.4629 131.165 29.1376 130.772 28.8969C130.389 28.6562 129.957 28.5358 129.475 28.5358C128.994 28.5358 128.557 28.6562 128.165 28.8969C127.781 29.1376 127.474 29.4629 127.242 29.873C127.01 30.2831 126.894 30.7466 126.894 31.2637C126.894 31.7807 127.01 32.2488 127.242 32.6677C127.474 33.0867 127.781 33.4166 128.165 33.6573C128.557 33.898 128.994 34.0183 129.475 34.0183Z" fill="white"/>
<path d="M134.881 34.8607V27.6934H135.884V29.0573L135.724 28.8567C135.92 28.4378 136.209 28.1124 136.593 27.8806C136.985 27.6488 137.413 27.5329 137.876 27.5329C138.429 27.5329 138.928 27.6889 139.374 28.0009C139.82 28.313 140.136 28.7186 140.323 29.2178L140.043 29.2312C140.221 28.6785 140.529 28.2595 140.965 27.9742C141.411 27.68 141.901 27.5329 142.436 27.5329C142.918 27.5329 143.359 27.6488 143.76 27.8806C144.17 28.1124 144.496 28.4333 144.736 28.8434C144.986 29.2445 145.111 29.6992 145.111 30.2073V34.8607H144.108V30.5951C144.108 30.1583 144.028 29.7883 143.867 29.4852C143.715 29.1821 143.506 28.9503 143.239 28.7899C142.971 28.6205 142.664 28.5358 142.316 28.5358C141.977 28.5358 141.67 28.6205 141.393 28.7899C141.117 28.9503 140.898 29.1866 140.738 29.4986C140.578 29.8017 140.497 30.1672 140.497 30.5951V34.8607H139.494V30.5951C139.494 30.1583 139.414 29.7883 139.254 29.4852C139.102 29.1821 138.893 28.9503 138.625 28.7899C138.358 28.6205 138.05 28.5358 137.703 28.5358C137.355 28.5358 137.043 28.6205 136.767 28.7899C136.499 28.9503 136.285 29.1866 136.125 29.4986C135.964 29.8017 135.884 30.1672 135.884 30.5951V34.8607H134.881Z" fill="white"/>
<path d="M64.1621 25.7371V8.86351H66.6535L72.9953 17.6514H71.7496L77.9781 8.86351H80.4695V25.7371H77.8195V12.0117L78.8161 12.2835L72.4517 20.9808H72.1799L65.9514 12.2835L66.8347 12.0117V25.7371H64.1621Z" fill="url(#paint0_linear_1_2)"/>
<path d="M88.9408 26.0089C87.763 26.0089 86.6834 25.7295 85.702 25.1709C84.7356 24.6122 83.9655 23.8497 83.3918 22.8833C82.818 21.9169 82.5311 20.8222 82.5311 19.5992C82.5311 18.361 82.818 17.2663 83.3918 16.3151C83.9655 15.3487 84.7356 14.5937 85.702 14.0502C86.6683 13.4915 87.7479 13.2121 88.9408 13.2121C90.1487 13.2121 91.2283 13.4915 92.1796 14.0502C93.146 14.5937 93.9085 15.3487 94.4672 16.3151C95.0409 17.2663 95.3278 18.361 95.3278 19.5992C95.3278 20.8373 95.0409 21.9396 94.4672 22.906C93.8934 23.8723 93.1233 24.6348 92.157 25.1935C91.1906 25.7371 90.1185 26.0089 88.9408 26.0089ZM88.9408 23.6307C89.6656 23.6307 90.3073 23.4571 90.866 23.1098C91.4246 22.7625 91.8625 22.2869 92.1796 21.6829C92.5118 21.0638 92.6779 20.3693 92.6779 19.5992C92.6779 18.8291 92.5118 18.1421 92.1796 17.5381C91.8625 16.9341 91.4246 16.4585 90.866 16.1112C90.3073 15.7639 89.6656 15.5903 88.9408 15.5903C88.2311 15.5903 87.5894 15.7639 87.0156 16.1112C86.4569 16.4585 86.0115 16.9341 85.6793 17.5381C85.3622 18.1421 85.2037 18.8291 85.2037 19.5992C85.2037 20.3693 85.3622 21.0638 85.6793 21.6829C86.0115 22.2869 86.4569 22.7625 87.0156 23.1098C87.5894 23.4571 88.2311 23.6307 88.9408 23.6307Z" fill="url(#paint1_linear_1_2)"/>
<path d="M102.809 26.0089C101.632 26.0089 100.575 25.7295 99.6384 25.1709C98.7174 24.5971 97.985 23.827 97.4415 22.8607C96.913 21.8943 96.6487 20.8071 96.6487 19.5992C96.6487 18.3912 96.9205 17.3041 97.4641 16.3377C98.0077 15.3714 98.74 14.6088 99.6611 14.0502C100.582 13.4915 101.624 13.2121 102.787 13.2121C103.768 13.2121 104.636 13.4084 105.391 13.801C106.146 14.1936 106.743 14.7372 107.181 15.4318L106.796 16.0206V8.59172H109.332V25.7371H106.909V23.2457L107.203 23.7213C106.78 24.4612 106.176 25.0274 105.391 25.42C104.606 25.8126 103.745 26.0089 102.809 26.0089ZM103.058 23.6307C103.768 23.6307 104.402 23.4571 104.961 23.1098C105.535 22.7625 105.98 22.2869 106.297 21.6829C106.629 21.0638 106.796 20.3693 106.796 19.5992C106.796 18.8291 106.629 18.1421 106.297 17.5381C105.98 16.9341 105.535 16.4585 104.961 16.1112C104.402 15.7639 103.768 15.5903 103.058 15.5903C102.349 15.5903 101.707 15.7639 101.133 16.1112C100.559 16.4585 100.114 16.9341 99.797 17.5381C99.4799 18.1421 99.3213 18.8291 99.3213 19.5992C99.3213 20.3693 99.4799 21.0638 99.797 21.6829C100.114 22.2869 100.552 22.7625 101.111 23.1098C101.684 23.4571 102.334 23.6307 103.058 23.6307Z" fill="url(#paint2_linear_1_2)"/>
<path d="M117.394 26.0089C116.17 26.0089 115.083 25.7295 114.132 25.1709C113.196 24.5971 112.464 23.827 111.935 22.8607C111.407 21.8792 111.142 20.7845 111.142 19.5765C111.142 18.3384 111.407 17.2437 111.935 16.2924C112.479 15.3412 113.203 14.5937 114.109 14.0502C115.015 13.4915 116.042 13.2121 117.19 13.2121C118.111 13.2121 118.934 13.3707 119.658 13.6878C120.383 14.0049 120.995 14.4427 121.493 15.0014C121.991 15.545 122.369 16.1716 122.625 16.8813C122.897 17.591 123.033 18.3459 123.033 19.1462C123.033 19.3425 123.026 19.5463 123.011 19.7577C122.995 19.9691 122.965 20.1654 122.92 20.3466H113.158V18.3082H121.47L120.247 19.2368C120.398 18.4969 120.345 17.8401 120.089 17.2663C119.847 16.6775 119.47 16.2169 118.956 15.8847C118.458 15.5374 117.869 15.3638 117.19 15.3638C116.51 15.3638 115.906 15.5374 115.378 15.8847C114.849 16.2169 114.442 16.7001 114.155 17.3343C113.868 17.9534 113.755 18.7083 113.815 19.5992C113.739 20.4297 113.853 21.1544 114.155 21.7735C114.472 22.3926 114.91 22.8758 115.468 23.223C116.042 23.5703 116.691 23.744 117.416 23.744C118.156 23.744 118.783 23.5779 119.296 23.2457C119.825 22.9135 120.24 22.4832 120.542 21.9547L122.625 22.9739C122.384 23.5477 122.006 24.0686 121.493 24.5367C120.995 24.9897 120.391 25.3521 119.681 25.6239C118.987 25.8805 118.224 26.0089 117.394 26.0089Z" fill="url(#paint3_linear_1_2)"/>
<path d="M124.851 25.7371V8.59172H127.411V25.7371H124.851Z" fill="url(#paint4_linear_1_2)"/>
<path d="M129.724 25.7371V13.4839H132.283V25.7371H129.724ZM129.724 11.8079V8.86351H132.283V11.8079H129.724Z" fill="url(#paint5_linear_1_2)"/>
<path d="M134.596 25.7371V13.4839H137.042V15.8847L136.748 15.5676C137.05 14.7976 137.533 14.2163 138.197 13.8237C138.861 13.416 139.632 13.2121 140.507 13.2121C141.413 13.2121 142.214 13.4084 142.908 13.801C143.603 14.1936 144.146 14.7372 144.539 15.4318C144.931 16.1263 145.128 16.9266 145.128 17.8326V25.7371H142.591V18.512C142.591 17.893 142.478 17.372 142.251 16.9492C142.025 16.5114 141.7 16.1792 141.277 15.9527C140.87 15.7111 140.402 15.5903 139.873 15.5903C139.345 15.5903 138.869 15.7111 138.446 15.9527C138.039 16.1792 137.721 16.5114 137.495 16.9492C137.268 17.3871 137.155 17.9081 137.155 18.512V25.7371H134.596Z" fill="url(#paint6_linear_1_2)"/>
<path d="M153.099 30.7199C152.208 30.7199 151.385 30.5765 150.63 30.2896C149.875 30.0027 149.226 29.6025 148.682 29.0892C148.139 28.5909 147.731 28.002 147.459 27.3225L149.815 26.3486C150.026 26.9224 150.411 27.398 150.97 27.7755C151.544 28.153 152.246 28.3417 153.076 28.3417C153.725 28.3417 154.307 28.2134 154.82 27.9567C155.334 27.7151 155.741 27.3527 156.043 26.8696C156.345 26.4015 156.496 25.8352 156.496 25.1709V22.4077L156.949 22.9286C156.526 23.7138 155.937 24.3102 155.183 24.7179C154.443 25.1256 153.605 25.3294 152.668 25.3294C151.536 25.3294 150.517 25.0652 149.611 24.5367C148.705 24.0082 147.988 23.2834 147.459 22.3624C146.946 21.4413 146.689 20.407 146.689 19.2595C146.689 18.0968 146.946 17.0625 147.459 16.1565C147.988 15.2506 148.697 14.5333 149.588 14.0049C150.479 13.4764 151.498 13.2121 152.646 13.2121C153.582 13.2121 154.412 13.416 155.137 13.8237C156.127 14.7074 158.433 16.7257 159.033 17.2566V25.1709C159.033 26.2278 158.776 27.1715 158.263 28.002C157.765 28.8476 157.07 29.5119 156.179 29.9951C155.288 30.4783 154.261 30.7199 153.099 30.7199ZM152.963 22.9513C153.642 22.9513 154.246 22.7927 154.775 22.4756C155.303 22.1434 155.719 21.7056 156.021 21.162C156.338 20.6033 156.496 19.9767 156.496 19.2821C156.496 18.5875 156.338 17.9609 156.021 17.4022C155.703 16.8435 155.281 16.4057 154.752 16.0886C154.224 15.7564 153.627 15.5903 152.963 15.5903C152.268 15.5903 151.649 15.7564 151.106 16.0886C150.562 16.4057 150.132 16.8435 149.815 17.4022C149.513 17.9458 149.362 18.5724 149.362 19.2821C149.362 19.9616 149.513 20.5807 149.815 21.1393C150.132 21.698 150.562 22.1434 151.106 22.4756C151.649 22.7927 152.268 22.9513 152.963 22.9513Z" fill="url(#paint7_linear_1_2)"/>
<path d="M176 18.8399L186.974 11.52H175.261L173.475 0L167.452 11.52H155.739L164.037 18.8102L158.064 30.7199L169.197 23.3471L177.594 30.7199L176 18.8399Z" fill="url(#paint8_linear_1_2)"/>
<defs>
<linearGradient id="paint0_linear_1_2" x1="78.2305" y1="38.9912" x2="182.079" y2="11.2508" gradientUnits="userSpaceOnUse">
<stop stop-color="#FFA724"/>
<stop offset="0.531335" stop-color="#FFB23F"/>
<stop offset="1" stop-color="#FFBF74"/>
</linearGradient>
<linearGradient id="paint1_linear_1_2" x1="78.2305" y1="38.9912" x2="182.079" y2="11.2508" gradientUnits="userSpaceOnUse">
<stop stop-color="#FFA724"/>
<stop offset="0.531335" stop-color="#FFB23F"/>
<stop offset="1" stop-color="#FFBF74"/>
</linearGradient>
<linearGradient id="paint2_linear_1_2" x1="78.2305" y1="38.9912" x2="182.079" y2="11.2508" gradientUnits="userSpaceOnUse">
<stop stop-color="#FFA724"/>
<stop offset="0.531335" stop-color="#FFB23F"/>
<stop offset="1" stop-color="#FFBF74"/>
</linearGradient>
<linearGradient id="paint3_linear_1_2" x1="78.2305" y1="38.9912" x2="182.079" y2="11.2508" gradientUnits="userSpaceOnUse">
<stop stop-color="#FFA724"/>
<stop offset="0.531335" stop-color="#FFB23F"/>
<stop offset="1" stop-color="#FFBF74"/>
</linearGradient>
<linearGradient id="paint4_linear_1_2" x1="78.2305" y1="38.9912" x2="182.079" y2="11.2508" gradientUnits="userSpaceOnUse">
<stop stop-color="#FFA724"/>
<stop offset="0.531335" stop-color="#FFB23F"/>
<stop offset="1" stop-color="#FFBF74"/>
</linearGradient>
<linearGradient id="paint5_linear_1_2" x1="78.2305" y1="38.9912" x2="182.079" y2="11.2508" gradientUnits="userSpaceOnUse">
<stop stop-color="#FFA724"/>
<stop offset="0.531335" stop-color="#FFB23F"/>
<stop offset="1" stop-color="#FFBF74"/>
</linearGradient>
<linearGradient id="paint6_linear_1_2" x1="78.2305" y1="38.9912" x2="182.079" y2="11.2508" gradientUnits="userSpaceOnUse">
<stop stop-color="#FFA724"/>
<stop offset="0.531335" stop-color="#FFB23F"/>
<stop offset="1" stop-color="#FFBF74"/>
</linearGradient>
<linearGradient id="paint7_linear_1_2" x1="78.2305" y1="38.9912" x2="182.079" y2="11.2508" gradientUnits="userSpaceOnUse">
<stop stop-color="#FFA724"/>
<stop offset="0.531335" stop-color="#FFB23F"/>
<stop offset="1" stop-color="#FFBF74"/>
</linearGradient>
<linearGradient id="paint8_linear_1_2" x1="78.2305" y1="38.9912" x2="182.079" y2="11.2508" gradientUnits="userSpaceOnUse">
<stop stop-color="#FFA724"/>
<stop offset="0.531335" stop-color="#FFB23F"/>
<stop offset="1" stop-color="#FFBF74"/>
</linearGradient>
</defs>
</svg>
