<svg width="86" height="86" viewBox="0 0 86 86" fill="none" xmlns="http://www.w3.org/2000/svg">
<path d="M55.1481 18.6666L60.2005 28.7715C60.8813 30.169 62.7089 31.4949 64.2497 31.7815L73.3873 33.2865C79.2281 34.254 80.5897 38.4824 76.3972 42.7107L69.2663 49.8416C68.0838 51.0241 67.4031 53.3532 67.7973 55.0374L69.8397 63.8524C71.4522 70.8041 67.7256 73.5274 61.5981 69.8724L53.0338 64.784C51.493 63.8524 48.9131 63.8524 47.3722 64.784L38.808 69.8724C32.6805 73.4915 28.9539 70.8041 30.5664 63.8524L32.6089 55.0374C33.0031 53.389 32.3222 51.0599 31.1397 49.8416L24.0089 42.7107C19.8164 38.5182 21.1781 34.2898 27.0189 33.2865L36.1564 31.7815C37.6972 31.5307 39.5247 30.169 40.2056 28.7715L45.2581 18.6666C47.9456 13.1841 52.3889 13.1841 55.1481 18.6666Z" stroke="#F29913" stroke-width="6" stroke-linecap="round" stroke-linejoin="round"/>
<path opacity="0.4" d="M28.667 17.918H7.16699" stroke="#292D32" stroke-width="6" stroke-linecap="round" stroke-linejoin="round"/>
<path opacity="0.4" d="M17.917 68.082H7.16699" stroke="#292D32" stroke-width="6" stroke-linecap="round" stroke-linejoin="round"/>
<path opacity="0.4" d="M10.7503 43H7.16699" stroke="#292D32" stroke-width="6" stroke-linecap="round" stroke-linejoin="round"/>
</svg>
