<svg width="86" height="86" viewBox="0 0 86 86" fill="none" xmlns="http://www.w3.org/2000/svg">
<path d="M75.5389 30.7464V55.2563C75.5389 59.2696 73.3889 62.9964 69.913 65.0389L48.628 77.3298C45.1522 79.3364 40.8522 79.3364 37.3405 77.3298L16.0555 65.0389C12.5797 63.0323 10.4297 59.3055 10.4297 55.2563V30.7464C10.4297 26.7331 12.5797 23.0063 16.0555 20.9638L37.3405 8.67297C40.8164 6.6663 45.1164 6.6663 48.628 8.67297L69.913 20.9638C73.3889 23.0063 75.5389 26.6973 75.5389 30.7464Z" stroke="#292D32" stroke-width="4" stroke-linecap="round" stroke-linejoin="round"/>
<path d="M43.0054 39.417C47.6165 39.417 51.3546 35.6789 51.3546 31.0678C51.3546 26.4566 47.6165 22.7188 43.0054 22.7188C38.3943 22.7188 34.6562 26.4566 34.6562 31.0678C34.6562 35.6789 38.3943 39.417 43.0054 39.417Z" stroke="#F29913" stroke-width="4" stroke-linecap="round" stroke-linejoin="round"/>
<path d="M57.3346 59.6971C57.3346 53.2471 50.9205 48.0156 43.0013 48.0156C35.0821 48.0156 28.668 53.2471 28.668 59.6971" stroke="#F29913" stroke-width="4" stroke-linecap="round" stroke-linejoin="round"/>
</svg>
