<svg width="50" height="50" viewBox="0 0 50 50" fill="none" xmlns="http://www.w3.org/2000/svg">
<path opacity="0.4" d="M33.7305 4.16602H16.2721C8.6888 4.16602 4.16797 8.68685 4.16797 16.2702V33.7077C4.16797 41.3119 8.6888 45.8327 16.2721 45.8327H33.7096C41.293 45.8327 45.8138 41.3119 45.8138 33.7285V16.2702C45.8346 8.68685 41.3138 4.16602 33.7305 4.16602Z" fill="#0070F4"/>
<path d="M32.2917 21.1029C34.4548 21.1029 36.2083 19.3493 36.2083 17.1862C36.2083 15.0231 34.4548 13.2695 32.2917 13.2695C30.1286 13.2695 28.375 15.0231 28.375 17.1862C28.375 19.3493 30.1286 21.1029 32.2917 21.1029Z" fill="#0070F4"/>
<path d="M17.7096 21.1029C19.8728 21.1029 21.6263 19.3493 21.6263 17.1862C21.6263 15.0231 19.8728 13.2695 17.7096 13.2695C15.5465 13.2695 13.793 15.0231 13.793 17.1862C13.793 19.3493 15.5465 21.1029 17.7096 21.1029Z" fill="#0070F4"/>
<path d="M32.5013 26.916H17.5013C16.043 26.916 14.8555 28.1035 14.8555 29.5827C14.8555 35.1868 19.418 39.7493 25.0221 39.7493C30.6263 39.7493 35.1888 35.1868 35.1888 29.5827C35.168 28.1243 33.9596 26.916 32.5013 26.916Z" fill="#0070F4"/>
</svg>
