<svg xmlns="http://www.w3.org/2000/svg" width="21.429" height="20" viewBox="0 0 21.429 20">
  <g id="user-admin" transform="translate(-2.25 -2.25)">
    <path id="Path_360" data-name="Path 360" d="M10.625,3.679A3.571,3.571,0,1,1,7.054,7.25a3.571,3.571,0,0,1,3.571-3.571m0-1.429a5,5,0,1,0,5,5A5,5,0,0,0,10.625,2.25Z" transform="translate(-1.232)" fill="#2c8bed"/>
    <path id="Path_361" data-name="Path 361" d="M16.536,28.821H15.107V25.25a3.571,3.571,0,0,0-3.571-3.571H7.25A3.571,3.571,0,0,0,3.679,25.25v3.571H2.25V25.25a5,5,0,0,1,5-5h4.286a5,5,0,0,1,5,5Z" transform="translate(0 -6.571)" fill="#2c8bed"/>
    <path id="Path_362" data-name="Path 362" d="M26.482,15.907l-1.85-1.85-1.007,1.007,2.857,2.857,5-5-1.007-1.007Z" transform="translate(-7.804 -3.528)" fill="#2c8bed"/>
  </g>
</svg>
