<svg xmlns="http://www.w3.org/2000/svg" width="31.5" height="31.5" viewBox="0 0 31.5 31.5">
  <path id="add-user" d="M15.75,4.5a7.878,7.878,0,0,0-4.394,14.415A11.275,11.275,0,0,0,4.5,29.25H6.75a8.983,8.983,0,0,1,9-9A8.857,8.857,0,0,1,20,21.341a9.125,9.125,0,1,0,1.724-1.62,11.425,11.425,0,0,0-1.582-.808A7.877,7.877,0,0,0,15.75,4.5Zm0,2.25a5.625,5.625,0,1,1-5.625,5.625A5.608,5.608,0,0,1,15.75,6.75ZM27,20.25A6.75,6.75,0,1,1,20.25,27,6.732,6.732,0,0,1,27,20.25ZM25.875,22.5v3.375H22.5v2.25h3.375V31.5h2.25V28.125H31.5v-2.25H28.125V22.5Z" transform="translate(-4.5 -4.5)" fill="#2c8bed"/>
</svg>
