<svg width="15" height="15" viewBox="0 0 15 15" fill="none" xmlns="http://www.w3.org/2000/svg">
<path fill-rule="evenodd" clip-rule="evenodd" d="M7.5 0C8.09173 0 8.57143 0.479695 8.57143 1.07143V6.42857H13.9286C14.5203 6.42857 15 6.90827 15 7.5C15 8.09173 14.5203 8.57143 13.9286 8.57143H8.57143V13.9286C8.57143 14.5203 8.09173 15 7.5 15C6.90827 15 6.42857 14.5203 6.42857 13.9286V8.57143H1.07143C0.479695 8.57143 0 8.09173 0 7.5C0 6.90827 0.479695 6.42857 1.07143 6.42857L6.42857 6.42857V1.07143C6.42857 0.479695 6.90827 0 7.5 0Z" fill="#0070F4"/>
</svg>
