<svg xmlns="http://www.w3.org/2000/svg" width="24.799" height="29.509" viewBox="0 0 24.799 29.509">
  <path id="apple" d="M21.015,17.845a6.15,6.15,0,0,1,3.295-5.586A7.08,7.08,0,0,0,18.73,9.32c-2.339-.185-4.895,1.363-5.831,1.363-.989,0-3.254-1.3-5.034-1.3C4.188,9.444.281,12.317.281,18.16a16.427,16.427,0,0,0,.948,5.349c.843,2.417,3.887,8.348,7.063,8.248,1.66-.039,2.833-1.18,4.994-1.18,2.1,0,3.182,1.18,5.034,1.18,3.2-.046,5.956-5.436,6.76-7.86a6.531,6.531,0,0,1-4.065-6.055ZM17.286,7.027A6.205,6.205,0,0,0,18.867,2.25a6.982,6.982,0,0,0-4.473,2.3,6.3,6.3,0,0,0-1.687,4.737,5.533,5.533,0,0,0,4.579-2.26Z" transform="translate(-0.281 -2.25)"/>
</svg>
