<svg xmlns="http://www.w3.org/2000/svg" width="14.489" height="16.904" viewBox="0 0 14.489 16.904">
  <g id="file-earmark-text-fill" transform="translate(-4.5 -2.25)">
    <path id="Path_222" data-name="Path 222" d="M4.5,4.665A2.415,2.415,0,0,1,6.915,2.25h6.391a1.207,1.207,0,0,1,.854.354L18.636,7.08a1.207,1.207,0,0,1,.354.854v8.806a2.415,2.415,0,0,1-2.415,2.415H6.915A2.415,2.415,0,0,1,4.5,16.739ZM12.952,7.08V3.457l4.83,4.83H14.16A1.207,1.207,0,0,1,12.952,7.08ZM7.519,10.7a.6.6,0,0,0,0,1.207h8.452a.6.6,0,0,0,0-1.207Zm-.6,3.019a.6.6,0,0,1,.6-.6h8.452a.6.6,0,0,1,0,1.207H7.519A.6.6,0,0,1,6.915,13.721Zm0,2.415a.6.6,0,0,1,.6-.6h4.83a.6.6,0,1,1,0,1.207H7.519A.6.6,0,0,1,6.915,16.136Z" fill="#1a2d40" fill-rule="evenodd"/>
  </g>
</svg>
