<svg xmlns="http://www.w3.org/2000/svg" width="19.429" height="17" viewBox="0 0 19.429 17">
  <g id="archive" transform="translate(0 -2.25)">
    <path id="Path_365" data-name="Path 365" d="M3.464,11.25v9.107a1.741,1.741,0,0,0,1.648,1.821H16.388a1.741,1.741,0,0,0,1.648-1.821V11.25h1.214v9.107a2.953,2.953,0,0,1-2.862,3.036H5.112A2.953,2.953,0,0,1,2.25,20.357V11.25Z" transform="translate(-1.036 -4.143)" fill="#2c8bed" fill-rule="evenodd"/>
    <path id="Path_366" data-name="Path 366" d="M6.679,10.143a.607.607,0,0,1,.607-.607h4.857a.607.607,0,1,1,0,1.214H7.286A.607.607,0,0,1,6.679,10.143ZM18.214,3.464h-17V5.893h17Zm-17-1.214A1.214,1.214,0,0,0,0,3.464V5.893A1.214,1.214,0,0,0,1.214,7.107h17a1.214,1.214,0,0,0,1.214-1.214V3.464A1.214,1.214,0,0,0,18.214,2.25Z" transform="translate(0 0)" fill="#2c8bed" fill-rule="evenodd"/>
  </g>
</svg>

