<svg width="50" height="50" viewBox="0 0 50 50" fill="none" xmlns="http://www.w3.org/2000/svg">
<path d="M43.9367 14.5417C42.1658 12.5833 39.2075 11.6042 34.9158 11.6042H34.4158V11.5208C34.4158 8.02083 34.4158 3.6875 26.5825 3.6875H23.4158C15.5825 3.6875 15.5825 8.04167 15.5825 11.5208V11.625H15.0825C10.77 11.625 7.83252 12.6042 6.06168 14.5625C3.99918 16.8542 4.06168 19.9375 4.27002 22.0417L4.29085 22.1875L4.49918 24.375C4.52002 24.3958 4.56168 24.4375 4.60335 24.4583C5.29085 24.9167 5.99918 25.375 6.74918 25.7917C7.04085 25.9792 7.35335 26.1458 7.66585 26.3125C11.2283 28.2708 15.145 29.5833 19.1242 30.2292C19.3117 32.1875 20.1658 34.4792 24.7283 34.4792C29.2908 34.4792 30.1867 32.2083 30.3325 30.1875C34.5825 29.5 38.6867 28.0208 42.395 25.8542C42.52 25.7917 42.6033 25.7292 42.7075 25.6667C43.6658 25.125 44.5617 24.5417 45.4367 23.8958C45.4783 23.875 45.52 23.8333 45.5409 23.7917L45.6242 23.0417L45.7284 22.0625C45.7492 21.9375 45.7492 21.8333 45.77 21.6875C45.9367 19.5833 45.895 16.7083 43.9367 14.5417ZM27.27 28.8125C27.27 31.0208 27.27 31.3542 24.7075 31.3542C22.145 31.3542 22.145 30.9583 22.145 28.8333V26.2083H27.27V28.8125ZM18.5617 11.6042V11.5208C18.5617 7.97917 18.5617 6.66667 23.4158 6.66667H26.5825C31.4367 6.66667 31.4367 8 31.4367 11.5208V11.625H18.5617V11.6042Z" fill="#E53D3E"/>
<path opacity="0.4" d="M42.7083 25.625C42.6042 25.6875 42.5 25.75 42.3958 25.8125C38.6875 27.9792 34.5833 29.4375 30.3333 30.1458C30.1667 32.1458 29.2917 34.4375 24.7292 34.4375C20.1667 34.4375 19.2917 32.1667 19.125 30.1875C15.1458 29.5625 11.2292 28.25 7.66667 26.2708C7.35417 26.1042 7.04167 25.9375 6.75 25.75C6 25.3333 5.29167 24.875 4.60417 24.4167C4.5625 24.3958 4.52083 24.3542 4.5 24.3333L5.77083 37.8958C6.20833 42.0417 7.91667 46.3125 17.0833 46.3125H32.9583C42.125 46.3125 43.8333 42.0417 44.2708 37.875L45.5833 23.75C45.5625 23.7917 45.5208 23.8333 45.4792 23.8542C44.5833 24.5 43.6667 25.1042 42.7083 25.625Z" fill="#E53D3E"/>
</svg>
