<svg width="50" height="50" viewBox="0 0 50 50" fill="none" xmlns="http://www.w3.org/2000/svg">
<path opacity="0.4" d="M33.7292 4.16602H16.2917C8.70833 4.16602 4.1875 8.68684 4.1875 16.2702V33.7077C4.1875 41.291 8.70833 45.8118 16.2917 45.8118H33.7292C41.3125 45.8118 45.8333 41.291 45.8333 33.7077V16.2702C45.8333 8.68684 41.3125 4.16602 33.7292 4.16602Z" fill="#FF8E3B"/>
<path d="M32.5417 14.7909L27.7709 13.2077C26.5625 12.791 25.3334 12.9576 24.3959 13.6242C23.4584 14.2909 22.9375 15.416 22.9375 16.6868V17.9576V26.6659C22.1042 26.2076 21.1666 25.9368 20.1458 25.9368C16.9375 25.9368 14.3125 28.5618 14.3125 31.7701C14.3125 34.9784 16.9375 37.6034 20.1458 37.6034C23.3541 37.6034 25.9791 34.9784 25.9791 31.7701V22.291C25.9999 22.3118 26.0417 22.3117 26.0625 22.3325L30.8333 23.9159C31.2708 24.0617 31.7292 24.1452 32.1667 24.1452C32.9167 24.1452 33.625 23.9368 34.2083 23.4993C35.1458 22.8327 35.6667 21.7076 35.6667 20.4368V19.166C35.6667 17.2701 34.3333 15.3951 32.5417 14.7909ZM20.1458 34.5618C18.6041 34.5618 17.3751 33.3118 17.3751 31.791C17.3751 30.2493 18.625 28.9992 20.1458 28.9992C21.6875 28.9992 22.9375 30.2493 22.9375 31.791C22.9375 33.3118 21.6875 34.5618 20.1458 34.5618Z" fill="#FF8E3B"/>
</svg>
