<svg width="16" height="16" viewBox="0 0 16 16" fill="none" xmlns="http://www.w3.org/2000/svg">
<path d="M6.33398 7.16667V12.1667M9.66732 7.16667V12.1667M1.33398 3.83333H14.6673M13.834 3.83333L13.1115 13.9517C13.0816 14.3722 12.8934 14.7657 12.5849 15.053C12.2764 15.3403 11.8705 15.5 11.449 15.5H4.55232C4.13077 15.5 3.72487 15.3403 3.41639 15.053C3.1079 14.7657 2.91975 14.3722 2.88982 13.9517L2.16732 3.83333H13.834ZM10.5007 3.83333V1.33333C10.5007 1.11232 10.4129 0.900358 10.2566 0.744078C10.1003 0.587797 9.88833 0.5 9.66732 0.5H6.33398C6.11297 0.5 5.90101 0.587797 5.74473 0.744078C5.58845 0.900358 5.50065 1.11232 5.50065 1.33333V3.83333H10.5007Z" stroke="#A1A1AA" stroke-linecap="round" stroke-linejoin="round"/>
</svg>
