<svg width="24" height="24" viewBox="0 0 24 24" fill="none" xmlns="http://www.w3.org/2000/svg">
<path d="M21.5599 10.7386L20.1999 9.15859C19.9399 8.85859 19.7299 8.29859 19.7299 7.89859V6.19859C19.7299 5.13859 18.8599 4.26859 17.7999 4.26859H16.0999C15.7099 4.26859 15.1399 4.05859 14.8399 3.79859L13.2599 2.43859C12.5699 1.84859 11.4399 1.84859 10.7399 2.43859L9.16988 3.80859C8.86988 4.05859 8.29988 4.26859 7.90988 4.26859H6.17988C5.11988 4.26859 4.24988 5.13859 4.24988 6.19859V7.90859C4.24988 8.29859 4.03988 8.85859 3.78988 9.15859L2.43988 10.7486C1.85988 11.4386 1.85988 12.5586 2.43988 13.2486L3.78988 14.8386C4.03988 15.1386 4.24988 15.6986 4.24988 16.0886V17.7986C4.24988 18.8586 5.11988 19.7286 6.17988 19.7286H7.90988C8.29988 19.7286 8.86988 19.9386 9.16988 20.1986L10.7499 21.5586C11.4399 22.1486 12.5699 22.1486 13.2699 21.5586L14.8499 20.1986C15.1499 19.9386 15.7099 19.7286 16.1099 19.7286H17.8099C18.8699 19.7286 19.7399 18.8586 19.7399 17.7986V16.0986C19.7399 15.7086 19.9499 15.1386 20.2099 14.8386L21.5699 13.2586C22.1499 12.5686 22.1499 11.4286 21.5599 10.7386ZM16.1599 10.1086L11.3299 14.9386C11.1899 15.0786 10.9999 15.1586 10.7999 15.1586C10.5999 15.1586 10.4099 15.0786 10.2699 14.9386L7.84988 12.5186C7.55988 12.2286 7.55988 11.7486 7.84988 11.4586C8.13988 11.1686 8.61988 11.1686 8.90988 11.4586L10.7999 13.3486L15.0999 9.04859C15.3899 8.75859 15.8699 8.75859 16.1599 9.04859C16.4499 9.33859 16.4499 9.81859 16.1599 10.1086Z" fill="#0070F4"/>
</svg>
