<svg id="calendar-week" xmlns="http://www.w3.org/2000/svg" width="28" height="28" viewBox="0 0 28 28">
  <path id="Path_440" data-name="Path 440" d="M1.75,7.5V25A1.75,1.75,0,0,0,3.5,26.75h21A1.75,1.75,0,0,0,26.25,25V7.5ZM3.5,2.25A3.5,3.5,0,0,0,0,5.75V25a3.5,3.5,0,0,0,3.5,3.5h21A3.5,3.5,0,0,0,28,25V5.75a3.5,3.5,0,0,0-3.5-3.5Z" transform="translate(0 -0.5)" fill="#2c8bed" fill-rule="evenodd"/>
  <path id="Path_441" data-name="Path 441" d="M7.625,0A.875.875,0,0,1,8.5.875V1.75a.875.875,0,0,1-1.75,0V.875A.875.875,0,0,1,7.625,0Zm15.75,0a.875.875,0,0,1,.875.875V1.75a.875.875,0,0,1-1.75,0V.875A.875.875,0,0,1,23.375,0Z" transform="translate(-1.5 0)" fill="#2c8bed" fill-rule="evenodd"/>
  <path id="Path_442" data-name="Path 442" d="M20.75,14.375a.875.875,0,0,1,.875-.875h1.75a.875.875,0,0,1,.875.875v1.75a.875.875,0,0,1-.875.875h-1.75a.875.875,0,0,1-.875-.875Zm-5.25,0a.875.875,0,0,1,.875-.875h1.75a.875.875,0,0,1,.875.875v1.75a.875.875,0,0,1-.875.875h-1.75a.875.875,0,0,1-.875-.875Zm-8.75,5.25a.875.875,0,0,1,.875-.875h1.75a.875.875,0,0,1,.875.875v1.75a.875.875,0,0,1-.875.875H7.625a.875.875,0,0,1-.875-.875Zm5.25,0a.875.875,0,0,1,.875-.875h1.75a.875.875,0,0,1,.875.875v1.75a.875.875,0,0,1-.875.875h-1.75A.875.875,0,0,1,12,21.375Z" transform="translate(-1.5 -3)" fill="#2c8bed"/>
</svg>
