<svg width="13" height="13" viewBox="0 0 13 13" fill="none" xmlns="http://www.w3.org/2000/svg">
<path d="M8.45453 0.325002V4.16002C8.45453 4.44603 8.11653 4.58903 7.90853 4.40053L6.77102 3.35402C6.64752 3.23702 6.45252 3.23702 6.32902 3.35402L5.19151 4.39403C4.98351 4.58903 4.64551 4.43953 4.64551 4.16002V0.325002C4.64551 0.143001 4.78851 0 4.97051 0H8.12953C8.31153 0 8.45453 0.143001 8.45453 0.325002Z" fill="#191919"/>
<path d="M9.78725 0.0379018C9.59875 0.0119016 9.42975 0.174403 9.42975 0.362904V4.27593C9.42975 4.76993 9.13724 5.21843 8.68224 5.41993C8.22724 5.61493 7.70074 5.53043 7.33673 5.19243L6.77123 4.67243C6.64773 4.55543 6.45923 4.55543 6.32923 4.67243L5.76372 5.19243C5.52972 5.41343 5.22422 5.52393 4.91872 5.52393C4.74972 5.52393 4.58072 5.49143 4.41822 5.41993C3.96321 5.21843 3.67071 4.76993 3.67071 4.27593V0.362904C3.67071 0.174403 3.50171 0.0119016 3.31321 0.0379018C1.4932 0.265403 0.700195 1.49391 0.700195 3.24892V9.74896C0.700195 11.699 1.6752 12.999 3.95021 12.999H9.15024C11.4253 12.999 12.4003 11.699 12.4003 9.74896V3.24892C12.4003 1.49391 11.6073 0.265403 9.78725 0.0379018ZM10.1252 10.8865H4.60022C4.33372 10.8865 4.11272 10.6655 4.11272 10.399C4.11272 10.1325 4.33372 9.91146 4.60022 9.91146H10.1252C10.3918 9.91146 10.6128 10.1325 10.6128 10.399C10.6128 10.6655 10.3918 10.8865 10.1252 10.8865ZM10.1252 8.28645H7.36273C7.09623 8.28645 6.87523 8.06545 6.87523 7.79895C6.87523 7.53245 7.09623 7.31144 7.36273 7.31144H10.1252C10.3918 7.31144 10.6128 7.53245 10.6128 7.79895C10.6128 8.06545 10.3918 8.28645 10.1252 8.28645Z" fill="#191919"/>
</svg>
