<svg xmlns="http://www.w3.org/2000/svg" width="23.56" height="23.56" viewBox="0 0 23.56 23.56">
  <path id="chat" d="M20.615,19.142V23.56q-.161-.092-.46-.276a12.741,12.741,0,0,1-1.242-1.012,18.994,18.994,0,0,1-1.887-1.933,9.637,9.637,0,0,1-2.3.276,13.064,13.064,0,0,1-3.095-.345,9.142,9.142,0,0,1-2.312-.851,7.3,7.3,0,0,1-1.53-1.128,4.507,4.507,0,0,1-.9-1.15,2.169,2.169,0,0,1-.264-.943H8.835a12.8,12.8,0,0,0,5.28-1.035,8.5,8.5,0,0,0,3.67-3.06,8.3,8.3,0,0,0,1.357-4.739q4.417,2.232,4.417,6.258a6.7,6.7,0,0,1-2.945,5.522ZM19.142,7.362ZM8.835,14.725a9.637,9.637,0,0,1-2.3-.276,20.021,20.021,0,0,1-1.841,1.91,9.556,9.556,0,0,1-1.334,1.058l-.414.253V13.252A6.7,6.7,0,0,1,0,7.731,6.866,6.866,0,0,1,1.185,3.854a8.3,8.3,0,0,1,3.22-2.819A9.651,9.651,0,0,1,8.846,0a9.651,9.651,0,0,1,4.44,1.035A8.214,8.214,0,0,1,16.5,3.854,6.9,6.9,0,0,1,17.67,7.731a6.058,6.058,0,0,1-1.2,3.7,7.489,7.489,0,0,1-3.2,2.45A11.378,11.378,0,0,1,8.835,14.725Zm0-13.252a8.69,8.69,0,0,0-3.693.782,6.727,6.727,0,0,0-2.68,2.14,4.911,4.911,0,0,0,0,5.913,6.818,6.818,0,0,0,2.681,2.151,8.6,8.6,0,0,0,3.692.794,8.556,8.556,0,0,0,3.693-.794,6.837,6.837,0,0,0,2.68-2.151,4.911,4.911,0,0,0,0-5.913,6.769,6.769,0,0,0-2.68-2.14A8.633,8.633,0,0,0,8.835,1.472Z" fill="#2c8bed"/>
</svg>
