<svg xmlns="http://www.w3.org/2000/svg" width="127.205" height="123.916" viewBox="0 0 127.205 123.916">
  <g id="_9273259881579531380" data-name="9273259881579531380" transform="translate(-42.244 0)">
    <path id="Path_425" data-name="Path 425" d="M127.521,214.537a15.892,15.892,0,0,0-18.565,0L107.44,215.7,59.018,176.484v72.24c0,3.424,3.458,6.2,7.724,6.2H172.31c4.267,0,7.724-2.775,7.724-6.2v-72.24l-51,39.219Z" transform="translate(-12.648 -133.075)" fill="#2c8bed"/>
    <path id="Path_426" data-name="Path 426" d="M409.035,182.1v66.3a6.193,6.193,0,0,1-6.188,6.2h6.188a6.193,6.193,0,0,0,6.188-6.2v-72.24Z" transform="translate(-247.837 -132.829)" fill="#066dd8"/>
    <path id="Path_427" data-name="Path 427" d="M56.82,182.1v66.3a6.193,6.193,0,0,0,6.188,6.2H56.82a6.193,6.193,0,0,1-6.188-6.2v-72.24Z" transform="translate(-6.325 -132.829)" fill="#fff"/>
    <path id="Path_428" data-name="Path 428" d="M173.64,50.845,121.845,89.2l-1.48-1.19a15.766,15.766,0,0,0-18.483-.312l-1.541,1.141L50.582,48.771l0-.081,48.485-35.9c7.983-5.91,20.327-5.7,27.994.473l46.579,37.506" transform="translate(-6.287 -6.4)" fill="#b2d8ff"/>
    <path id="Path_429" data-name="Path 429" d="M217.811,125.482a16.5,16.5,0,1,0-16.5,16.531,16.517,16.517,0,0,0,16.5-16.531" transform="translate(-95.463 -82.153)" fill="#00da6c"/>
    <path id="Path_430" data-name="Path 430" d="M242.413,108.951a16.586,16.586,0,0,0-3.094.3,16.528,16.528,0,0,1,0,32.462,16.525,16.525,0,1,0,3.094-32.762" transform="translate(-134.634 -82.153)" fill="#00ad55"/>
    <g id="Group_2446" data-name="Group 2446" transform="translate(42.244 0)">
      <path id="Path_431" data-name="Path 431" d="M48.413,43.369l46.766,36.4a18.542,18.542,0,0,1,21.337,0l46.763-36.4-45.3-35.262a20.515,20.515,0,0,0-24.261,0ZM95.176,84.7a2.9,2.9,0,0,1-1.763-.574L43.028,44.9a1.909,1.909,0,0,1-.784-1.492,2.064,2.064,0,0,1,.784-1.572L90.2,5.124c8.78-6.831,22.525-6.831,31.3,0l47.17,36.712a1.893,1.893,0,0,1,0,3.064L118.279,84.121a2.989,2.989,0,0,1-3.521,0l-1.5-1.165a12.533,12.533,0,0,0-14.825,0l-1.5,1.165a2.883,2.883,0,0,1-1.761.575Z" transform="translate(-42.244 0)" fill="#1a2d40"/>
      <path id="Path_432" data-name="Path 432" d="M56.562,353.865a6.222,6.222,0,0,0,1.168.109H165.336a6.222,6.222,0,0,0,1.168-.109l-46.847-36.206v0l-.661-.512a12.7,12.7,0,0,0-14.929,0Zm108.774,4.242H57.73a11.56,11.56,0,0,1-7.179-2.374,1.8,1.8,0,0,1,.023-2.965l49.947-38.6a18.733,18.733,0,0,1,22.023,0l.661.512,49.286,38.093a1.8,1.8,0,0,1,.023,2.965,11.563,11.563,0,0,1-7.18,2.374Z" transform="translate(-47.93 -234.192)" fill="#1a2d40"/>
      <path id="Path_433" data-name="Path 433" d="M194.987,104.682a14.464,14.464,0,1,0,14.439,14.464,14.469,14.469,0,0,0-14.439-14.464m0,33.061a18.6,18.6,0,1,1,18.564-18.6,18.6,18.6,0,0,1-18.564,18.6" transform="translate(-131.384 -75.817)" fill="#1a2d40"/>
      <path id="Path_434" data-name="Path 434" d="M224.54,159.082a2.056,2.056,0,0,1-1.458-.605l-4.125-4.133a2.064,2.064,0,0,1,2.917-2.922l2.529,2.533,8.865-10.66a2.065,2.065,0,1,1,3.172,2.645l-10.313,12.4a2.07,2.07,0,0,1-1.494.742c-.031,0-.062,0-.092,0" transform="translate(-162.706 -107.488)" fill="#1a2d40"/>
      <path id="Path_435" data-name="Path 435" d="M46.371,304.236a2.063,2.063,0,1,1-2.063-2.066,2.065,2.065,0,0,1,2.063,2.066" transform="translate(-42.246 -227.847)" fill="#1a2d40"/>
      <path id="Path_436" data-name="Path 436" d="M159.274,250.658H52.422c-5.612,0-10.176-3.707-10.176-8.265V211.4a2.6,2.6,0,0,1,5.088,0v30.995c0,2.279,2.282,4.133,5.088,4.133H159.274c2.806,0,5.088-1.854,5.088-4.133v-67.4l-46.081,35.869a2.989,2.989,0,0,1-3.521,0l-1.5-1.165a12.54,12.54,0,0,0-14.827,0l-1.5,1.165a2.99,2.99,0,0,1-3.524,0L47.334,174.994v19.874a2.6,2.6,0,0,1-5.088,0V170.152a2.1,2.1,0,0,1,1.544-1.9,3.014,3.014,0,0,1,2.76.407l48.63,37.855a18.537,18.537,0,0,1,21.335,0l48.63-37.853a3.013,3.013,0,0,1,2.76-.407,2.1,2.1,0,0,1,1.544,1.9v72.24c0,4.558-4.564,8.265-10.177,8.265" transform="translate(-42.246 -126.743)" fill="#1a2d40"/>
    </g>
  </g>
</svg>
