<svg width="255" height="240" viewBox="0 0 255 240" fill="none" xmlns="http://www.w3.org/2000/svg">
<path d="M21.2089 211.358C20.8904 211.697 20.6112 211.943 20.3713 212.095C20.1314 212.247 19.8833 212.274 19.6271 212.178C19.3935 212.079 19.2292 211.999 19.1343 211.937C19.0394 211.876 18.8444 211.673 18.5492 211.328C18.2752 210.96 18.1013 210.733 18.0275 210.647C16.7805 209.298 15.241 208.683 13.4089 208.803C11.5995 208.922 9.93039 209.622 8.40165 210.904C6.89405 212.161 5.71627 213.772 4.86831 215.735C4.02036 217.699 3.66388 219.71 3.79889 221.768C3.96505 224.301 4.93766 226.316 6.71673 227.812C8.51842 229.307 10.8103 229.963 13.5923 229.78C16.3969 229.596 18.7998 228.655 20.8009 226.957C21.1239 226.685 21.462 226.3 21.8154 225.8C22.1914 225.298 22.5084 224.936 22.7664 224.715C23.0471 224.492 23.3126 224.384 23.5629 224.39C23.8358 224.395 24.2142 224.45 24.6981 224.554C23.8501 226.518 22.3188 228.106 20.1041 229.319C17.9105 230.508 15.3775 231.197 12.505 231.385C9.6325 231.573 7.14839 230.93 5.05267 229.455C2.95694 227.979 1.80894 225.715 1.60866 222.662C1.48404 220.762 1.68052 218.909 2.19811 217.103C2.71421 215.275 3.4819 213.646 4.50117 212.216C5.54157 210.762 6.87194 209.573 8.49226 208.649C10.1352 207.723 11.9406 207.196 13.9083 207.067C17.4141 206.837 19.8477 208.268 21.2089 211.358ZM27.4215 209.826C27.2746 207.587 26.8706 206.103 26.2095 205.374C26.4753 204.925 26.9701 204.677 27.6939 204.63C27.8296 204.621 27.9774 204.622 28.1372 204.635C28.7397 205.163 29.13 206.784 29.3081 209.498C29.4045 210.968 29.4486 212.681 29.4405 214.635C29.3916 218.045 29.4191 220.542 29.523 222.125C29.8034 226.4 30.7691 228.483 32.4203 228.375C32.4203 228.375 32.8335 228.268 33.66 228.055C33.8635 228.042 34.0391 228.121 34.1867 228.293C34.1722 229.112 33.5317 229.563 32.2651 229.646C31.0211 229.728 30.0354 229.417 29.3079 228.716C28.5789 227.991 28.0868 227.069 27.8317 225.95C27.5977 224.807 27.4562 223.862 27.4073 223.116C27.3583 222.37 27.3162 221.555 27.281 220.671C27.2443 219.765 27.2615 218.469 27.3326 216.783C27.472 213.367 27.5016 211.048 27.4215 209.826ZM36.9954 222.657C36.9798 223.113 36.9772 223.42 36.9876 223.578C37.0766 224.935 37.5527 225.96 38.416 226.653C39.3018 227.344 40.3101 227.653 41.4411 227.579C42.572 227.505 43.4776 227.286 44.158 226.924C44.861 226.56 45.359 226.186 45.6519 225.804C46.3994 224.732 47.1124 224.174 47.7909 224.13C48.0397 224.114 48.3382 224.162 48.6864 224.276C48.5329 225.399 47.7402 226.473 46.3082 227.498C44.8974 228.499 43.0724 229.073 40.8332 229.22C39.2499 229.324 37.8489 228.916 36.6301 227.997C35.4324 227.053 34.7765 225.71 34.6622 223.969C34.548 222.227 34.7767 220.52 35.3485 218.847C35.9413 217.15 36.8445 215.682 38.0581 214.444C39.2928 213.182 40.5774 212.507 41.9119 212.42C43.2689 212.331 44.3731 212.542 45.2245 213.054C46.097 213.542 46.5681 214.318 46.6378 215.381C46.7669 217.348 45.9916 219.035 44.3119 220.44C42.6534 221.821 40.8403 222.576 38.8725 222.705C38.3523 222.739 37.7266 222.723 36.9954 222.657ZM39.5004 221.369C40.5635 221.299 41.4912 220.897 42.2835 220.164C43.0759 219.43 43.6172 218.679 43.9075 217.911C44.2205 217.141 44.3569 216.45 44.3168 215.84C44.2768 215.229 44.0044 214.713 43.4998 214.292C42.9937 213.848 42.4239 213.647 41.7906 213.688C40.6597 213.762 39.6592 214.612 38.789 216.236C37.9414 217.859 37.3689 219.521 37.0716 221.221C38.0801 221.36 38.8897 221.409 39.5004 221.369ZM61.8328 218.132L61.919 222.045C62.0481 224.013 62.3611 225.321 62.858 225.97C63.159 226.404 63.5471 226.606 64.0221 226.575C64.1578 226.566 64.3478 226.519 64.5921 226.435C65.0582 226.268 65.4585 226.31 65.7929 226.561C65.6865 227.363 64.9209 227.811 63.4959 227.904C62.5234 227.968 61.852 227.603 61.482 226.81C61.1931 226.215 60.9625 225.469 60.79 224.572C60.6161 223.652 60.4841 223.025 60.394 222.69C59.1078 225.591 57.7949 227.392 56.4552 228.093C55.7748 228.456 54.971 228.668 54.0436 228.729C53.1163 228.789 52.3636 228.396 51.7855 227.548C51.2286 226.676 50.8937 225.38 50.781 223.661C50.6682 221.942 50.833 220.126 51.2753 218.211C51.7161 216.274 52.4371 214.625 53.4382 213.265C54.4378 211.882 55.5823 211.148 56.8715 211.064C58.7262 210.942 60.0093 211.63 60.7209 213.128C61.3271 214.406 61.6978 216.074 61.8328 218.132ZM53.4494 217.592C53.2129 218.834 53.0518 220.014 52.9662 221.133C52.879 222.229 52.8637 223.207 52.9201 224.066C52.9749 224.903 53.1921 225.616 53.5714 226.204C53.9733 226.791 54.457 227.066 55.0225 227.029C56.2439 226.949 57.3443 225.718 58.3239 223.337C59.3035 220.956 59.728 218.77 59.5974 216.779C59.5129 215.49 59.1039 214.449 58.3704 213.657C57.8825 213.144 57.2653 212.912 56.5189 212.961C55.7951 213.008 55.1561 213.482 54.6018 214.381C54.0686 215.257 53.6845 216.327 53.4494 217.592ZM80.8751 225.742C80.4962 226.198 80.0466 226.444 79.5264 226.478C78.5538 226.542 77.7959 226.069 77.2527 225.06C76.7095 224.05 76.3437 222.802 76.1553 221.315C75.9895 219.827 75.8464 218.337 75.7258 216.846C75.6053 215.355 75.3978 214.096 75.1034 213.071C74.8316 212.043 74.4016 211.549 73.8136 211.588C73.0219 211.64 72.3901 212.397 71.9181 213.859C71.4688 215.319 71.1881 216.928 71.0762 218.684C70.7618 223.589 70.3299 226.354 69.7804 226.981C69.3866 227.211 69.0427 227.336 68.7487 227.355C68.4547 227.374 68.2036 227.357 67.9956 227.302C67.3842 225.253 66.8437 221.688 66.3742 216.607C66.1628 214.077 66.01 212.44 65.9158 211.697C66.37 211.349 66.7667 211.164 67.106 211.142C67.4453 211.12 67.7189 211.136 67.9269 211.19C68.1038 212.155 68.2909 214.142 68.4882 217.15C68.7082 220.157 68.8443 221.886 68.8966 222.337C68.9785 221.854 69.0638 221.076 69.1524 220.003C69.2636 218.928 69.3648 218.047 69.456 217.359C69.5457 216.649 69.7072 215.821 69.9404 214.874C70.1736 213.928 70.4533 213.171 70.7796 212.605C71.1044 212.015 71.5708 211.508 72.1789 211.082C72.7855 210.633 73.4847 210.383 74.2763 210.331C75.3393 210.261 76.1402 210.697 76.679 211.638C77.2389 212.556 77.5882 213.725 77.7269 215.147C77.8656 216.569 77.9832 218.015 78.0796 219.486C78.1987 220.954 78.4679 222.288 78.8873 223.487C79.3293 224.685 79.9919 225.436 80.8751 225.742ZM89.5892 201.626C89.828 201.11 90.3093 200.829 91.033 200.782C91.1914 200.771 91.3512 200.783 91.5125 200.818C91.6363 202.014 91.8785 205.36 92.239 210.856C92.2602 210.832 92.3553 210.724 92.5244 210.531C92.716 210.337 92.833 210.215 92.8753 210.167C92.9176 210.119 93.024 210.01 93.1945 209.84C93.3636 209.647 93.4919 209.525 93.5794 209.474C93.688 209.398 93.8291 209.298 94.0027 209.173C94.1747 209.026 94.3271 208.925 94.4598 208.871C94.5911 208.794 94.745 208.716 94.9215 208.636C95.2533 208.501 95.6454 208.418 96.0978 208.388C97.7715 208.279 99.1633 208.892 100.273 210.227C101.381 211.54 101.992 213.056 102.105 214.775C102.217 216.494 102.065 218.151 101.647 219.746C101.228 221.318 100.513 222.716 99.503 223.941C98.493 225.166 97.2642 225.825 95.8167 225.92C94.3917 226.014 93.1581 225.561 92.1158 224.562C91.0961 223.561 90.5418 222.382 90.4528 221.025C90.3623 219.645 90.2753 217.107 90.1918 213.41C90.1068 209.69 90.0116 207.027 89.9063 205.421C89.7995 203.793 89.6938 202.528 89.5892 201.626ZM95.9451 224.242C96.8272 224.185 97.5914 223.714 98.2377 222.831C99.5543 221.087 100.113 218.699 99.9144 215.668C99.8076 214.04 99.3968 212.624 98.6819 211.422C97.9655 210.197 97.0305 209.622 95.877 209.698C95.2211 209.741 94.6658 210.106 94.2113 210.795C93.7552 211.461 93.4263 212.334 93.2246 213.415C92.8365 215.462 92.7232 217.719 92.8849 220.184C93.0214 222.265 93.535 223.515 94.4256 223.933C94.825 224.134 95.3315 224.237 95.9451 224.242ZM116.202 214.566L116.289 218.479C116.418 220.446 116.731 221.755 117.227 222.403C117.529 222.838 117.917 223.04 118.392 223.009C118.527 223 118.717 222.953 118.962 222.869C119.428 222.702 119.828 222.744 120.162 222.995C120.056 223.797 119.29 224.244 117.865 224.338C116.893 224.402 116.222 224.037 115.851 223.243C115.563 222.649 115.332 221.903 115.16 221.006C114.986 220.086 114.854 219.459 114.764 219.124C113.477 222.025 112.164 223.826 110.825 224.527C110.144 224.89 109.34 225.101 108.413 225.162C107.486 225.223 106.733 224.83 106.155 223.982C105.598 223.109 105.263 221.814 105.15 220.095C105.038 218.376 105.202 216.559 105.645 214.645C106.086 212.708 106.807 211.059 107.808 209.699C108.807 208.316 109.952 207.582 111.241 207.497C113.096 207.376 114.379 208.064 115.09 209.562C115.697 210.84 116.067 212.508 116.202 214.566ZM107.819 214.025C107.582 215.267 107.421 216.448 107.336 217.567C107.249 218.663 107.233 219.64 107.29 220.5C107.344 221.337 107.562 222.049 107.941 222.638C108.343 223.225 108.827 223.5 109.392 223.463C110.613 223.382 111.714 222.152 112.693 219.771C113.673 217.389 114.097 215.204 113.967 213.213C113.882 211.924 113.473 210.883 112.74 210.091C112.252 209.578 111.635 209.346 110.888 209.394C110.165 209.442 109.526 209.915 108.971 210.815C108.438 211.69 108.054 212.761 107.819 214.025ZM131.928 210.57C131.526 211.028 131.111 211.271 130.681 211.299C130.251 211.327 129.889 211.169 129.594 210.825C129.32 210.457 129.089 210.063 128.903 209.644C128.715 209.202 128.394 208.814 127.941 208.48C127.508 208.123 126.975 207.964 126.342 208.006C125.466 208.154 124.705 208.84 124.058 210.064C123.41 211.265 122.962 212.578 122.715 214.002C122.467 215.427 122.385 216.761 122.466 218.005C122.546 219.227 122.955 220.267 123.693 221.128C124.452 221.964 125.42 222.343 126.596 222.266C127.953 222.177 129.008 221.631 129.76 220.627C130.072 220.198 130.362 219.77 130.629 219.344C131.291 218.346 131.916 217.828 132.504 217.79C132.707 217.776 133.005 217.814 133.397 217.901C133.452 218.738 132.755 219.897 131.308 221.378C129.882 222.834 128.275 223.621 126.488 223.738C124.701 223.855 123.251 223.383 122.136 222.32C121.042 221.233 120.436 219.785 120.318 217.976C120.165 215.646 120.578 213.279 121.556 210.875C122.047 209.707 122.755 208.73 123.68 207.942C124.604 207.132 125.665 206.688 126.864 206.609C128.063 206.53 129.05 206.874 129.828 207.641C130.626 208.384 131.326 209.36 131.928 210.57ZM137.601 197.693C137.728 199.275 137.817 200.461 137.869 201.253C137.919 202.022 137.958 202.792 137.986 203.562C138.036 204.331 138.1 205.826 138.178 208.047C138.254 210.246 138.323 211.99 138.385 213.281C139.206 212.637 140.176 211.664 141.294 210.364C142.412 209.042 143.427 207.908 144.342 206.962C145.79 205.481 146.859 204.991 147.551 205.49C147.813 205.678 147.905 205.865 147.826 206.052C147.631 206.541 147.149 207.152 146.379 207.884C145.632 208.615 144.744 209.445 143.714 210.376C142.685 211.307 141.877 212.155 141.292 212.92C142.958 213.038 144.342 213.879 145.444 215.442C145.922 216.16 146.39 216.879 146.846 217.599C148.015 219.498 149.234 220.758 150.501 221.379C150.078 221.861 149.573 222.122 148.985 222.16C148.397 222.199 147.79 221.955 147.165 221.428C146.563 220.9 146.02 220.242 145.537 219.456C145.076 218.669 144.604 217.882 144.121 217.096C143.019 215.192 141.824 214.282 140.535 214.367C139.924 214.407 139.417 214.644 139.014 215.08C138.61 215.492 138.421 215.914 138.45 216.343C138.628 219.058 138.714 221.074 138.71 222.391C138.422 222.842 138.096 223.079 137.734 223.103C137.621 223.11 137.495 223.096 137.357 223.059C136.846 222.888 136.57 222.486 136.528 221.853C136.509 221.218 136.451 219.291 136.353 216.072C136.064 207.845 135.844 202.59 135.694 200.305C135.624 199.242 135.679 198.523 135.859 198.148C136.062 197.771 136.31 197.573 136.604 197.554C136.92 197.533 137.253 197.58 137.601 197.693ZM156.834 204.677C158.893 204.542 160.373 205.285 161.274 206.907C161.762 207.761 162.167 208.575 162.49 209.349C162.814 210.123 163.066 211.197 163.247 212.57C163.521 214.665 163.746 217.058 163.922 219.75C164.097 222.418 163.592 224.587 162.407 226.255C161.245 227.944 159.432 228.869 156.967 229.031C154.524 229.191 152.436 228.533 150.704 227.056C151.127 226.574 151.598 226.316 152.118 226.282C152.661 226.246 153.411 226.424 154.368 226.816C155.349 227.229 156.371 227.4 157.434 227.33C158.498 227.261 159.363 226.954 160.032 226.41C160.702 225.889 161.178 225.177 161.459 224.272C161.922 222.675 162.079 220.734 161.929 218.449C161.907 218.11 161.79 216.857 161.58 214.69C161.091 216.585 160.321 218.18 159.27 219.475C158.218 220.748 156.979 221.432 155.554 221.525C154.13 221.618 153.036 221.054 152.275 219.832C151.534 218.586 151.11 217.148 151.004 215.52C150.897 213.891 151.019 212.293 151.371 210.726C151.721 209.135 152.368 207.753 153.313 206.578C154.258 205.403 155.432 204.769 156.834 204.677ZM153.576 210.07C153.348 211.084 153.194 212.037 153.117 212.928C153.039 213.819 153.029 214.717 153.089 215.622C153.147 216.504 153.392 217.476 153.825 218.538C154.281 219.598 154.871 220.105 155.594 220.057C157.019 219.964 158.216 218.818 159.185 216.619C160.152 214.397 160.565 212.201 160.423 210.03C160.374 209.283 159.968 208.469 159.206 207.588C158.465 206.683 157.575 206.264 156.534 206.332C155.81 206.38 155.188 206.761 154.667 207.477C154.169 208.191 153.805 209.055 153.576 210.07ZM170.921 217.451L171.149 219.378C171.182 219.875 171.058 220.236 170.777 220.458C170.518 220.657 170.241 220.766 169.947 220.785C169.675 220.803 169.39 220.777 169.09 220.705C168.42 218.114 167.821 214.871 167.293 210.976C166.788 207.079 166.495 204.873 166.416 204.355C166.734 204.016 167.075 203.835 167.436 203.811C167.821 203.786 168.163 203.809 168.463 203.88C168.597 204.53 168.759 205.973 168.952 208.21C169.144 210.446 169.292 211.844 169.397 212.405C169.589 210.485 170.038 208.672 170.744 206.968C171.136 206.011 171.676 205.237 172.364 204.647C173.073 204.032 173.846 203.698 174.683 203.643C175.542 203.586 176.348 203.92 177.1 204.643C177.872 205.342 178.279 205.996 178.319 206.607C178.334 206.833 178.21 207.023 177.947 207.177C177.683 207.307 177.382 207.384 177.042 207.406C176.726 207.427 176.469 207.319 176.271 207.082C176.074 206.845 175.932 206.582 175.845 206.292C175.756 205.98 175.591 205.707 175.348 205.473C175.106 205.239 174.792 205.135 174.408 205.16C173.39 205.227 172.579 206.2 171.976 208.079C171.047 210.889 170.695 214.013 170.921 217.451ZM181.429 205.96C182.467 204.12 184.072 203.129 186.243 202.987C188.414 202.844 190.202 203.613 191.607 205.292C193.035 206.971 193.823 208.941 193.971 211.202C194.118 213.442 193.53 215.388 192.208 217.042C190.885 218.696 189.127 219.595 186.933 219.739C184.739 219.883 183.104 219.377 182.029 218.221C180.952 217.042 180.34 215.333 180.193 213.094C180.002 210.177 180.414 207.798 181.429 205.96ZM183.04 207.66C182.804 208.562 182.635 209.459 182.535 210.351C182.457 211.242 182.443 212.072 182.494 212.841C182.543 213.588 182.645 214.274 182.799 214.9C182.952 215.503 183.185 216.101 183.496 216.694C183.806 217.264 184.244 217.712 184.811 218.039C185.376 218.342 186.032 218.47 186.778 218.421C188.294 218.321 189.519 217.616 190.456 216.305C191.414 214.993 191.836 213.455 191.72 211.691C191.605 209.927 191.018 208.25 189.959 206.661C188.922 205.048 187.725 204.286 186.368 204.375C185.554 204.429 184.86 204.758 184.286 205.364C183.713 205.969 183.297 206.735 183.04 207.66ZM199.57 202.93C199.054 204.077 198.869 205.748 199.013 207.941C199.229 211.244 200.024 213.838 201.397 215.724C202.196 216.83 203.094 217.351 204.089 217.285C205.107 217.218 205.886 216.634 206.427 215.53C207.065 214.171 207.308 212.338 207.157 210.031C206.967 207.136 206.42 205.025 205.515 203.699C205.11 203.067 204.864 202.606 204.777 202.316C204.712 202.025 204.777 201.805 204.972 201.656C205.167 201.507 205.501 201.417 205.976 201.386C207.356 201.295 208.354 202.661 208.971 205.482C209.159 206.265 209.278 207.052 209.33 207.844C209.465 209.902 209.193 211.987 208.514 214.099C207.546 217.002 205.818 218.535 203.33 218.698C202.018 218.784 200.866 218.371 199.875 217.459C198.012 215.719 196.958 212.983 196.713 209.251C196.606 207.622 196.638 206.371 196.808 205.497C196.978 204.622 197.133 204.055 197.275 203.796C197.416 203.514 197.592 203.253 197.803 203.012C198.015 202.771 198.257 202.664 198.532 202.692C198.829 202.718 199.175 202.797 199.57 202.93ZM227.252 216.141C226.873 216.597 226.423 216.842 225.903 216.877C224.931 216.94 224.173 216.468 223.63 215.458C223.086 214.449 222.721 213.201 222.532 211.714C222.366 210.226 222.223 208.736 222.103 207.245C221.982 205.753 221.775 204.495 221.48 203.469C221.208 202.442 220.778 201.948 220.19 201.987C219.399 202.038 218.767 202.795 218.295 204.257C217.846 205.718 217.565 207.327 217.453 209.083C217.139 213.987 216.707 216.753 216.157 217.38C215.764 217.61 215.42 217.735 215.126 217.754C214.832 217.773 214.581 217.756 214.372 217.701C213.761 215.651 213.221 212.086 212.751 207.006C212.54 204.476 212.387 202.839 212.293 202.096C212.747 201.748 213.144 201.563 213.483 201.541C213.822 201.518 214.096 201.534 214.304 201.589C214.481 202.554 214.668 204.541 214.865 207.549C215.085 210.556 215.221 212.285 215.273 212.735C215.355 212.253 215.441 211.475 215.529 210.402C215.64 209.327 215.742 208.446 215.833 207.758C215.923 207.048 216.084 206.22 216.317 205.273C216.55 204.326 216.83 203.57 217.156 203.003C217.481 202.414 217.948 201.907 218.556 201.48C219.162 201.032 219.862 200.781 220.653 200.73C221.716 200.66 222.517 201.096 223.056 202.037C223.616 202.954 223.965 204.124 224.104 205.546C224.242 206.968 224.36 208.414 224.456 209.884C224.576 211.353 224.845 212.687 225.264 213.886C225.706 215.084 226.369 215.835 227.252 216.141ZM240.48 188.935C240.13 196.772 240.065 202.353 240.283 205.677C240.5 208.98 241.022 212.262 241.849 215.524C241.426 216.006 241.045 216.258 240.706 216.28C240.367 216.303 240.081 216.276 239.849 216.2C239.264 214.558 238.862 212.756 238.642 210.794C238.156 211.689 237.789 212.326 237.541 212.706C237.316 213.084 236.91 213.645 236.323 214.387C235.258 215.82 233.934 216.588 232.351 216.692C231.152 216.771 230.245 216.274 229.63 215.201C229.035 214.104 228.681 212.685 228.567 210.944C228.451 209.179 228.533 207.493 228.814 205.884C229.116 204.252 229.715 202.827 230.612 201.61C231.507 200.37 232.668 199.703 234.093 199.61C234.952 199.553 235.756 199.682 236.503 199.997C237.251 200.311 237.78 200.765 238.092 201.358C238.097 200.744 238.08 199.802 238.043 198.533C238.005 197.263 237.977 196.141 237.958 195.165C237.961 194.165 237.996 193.152 238.065 192.125C238.172 189.938 238.655 188.816 239.514 188.759C239.808 188.74 240.13 188.799 240.48 188.935ZM237.391 202.63C237.087 202.15 236.69 201.813 236.201 201.618C235.709 201.4 235.068 201.317 234.276 201.369C233.507 201.42 232.812 201.908 232.192 202.835C230.971 204.664 230.47 207.23 230.686 210.532C230.756 211.595 230.995 212.647 231.404 213.688C231.812 214.706 232.343 215.193 232.999 215.15C233.949 215.088 234.836 214.405 235.659 213.102C236.482 211.799 237.09 210.328 237.482 208.689C237.873 207.028 238.026 205.553 237.941 204.264C237.901 203.653 237.718 203.108 237.391 202.63Z" fill="#191919"/>
<path d="M204.063 5.40484C208.361 5.26091 212.527 5.04031 217.268 4.88967C216.229 2.25681 214.149 1.13453 212.114 1.00809C206.008 0.628755 199.826 0.381677 193.68 0.68477C190.164 0.843044 189.044 3.71849 190.949 6.67912C194.065 11.6668 197.464 16.4666 200.787 21.3988C200.975 21.6844 201.19 22.0745 201.426 22.1233C202.292 22.4511 203.206 22.5421 204.148 22.7376C204.263 21.9229 204.794 20.997 204.522 20.398C203.623 18.2875 202.544 16.3371 201.569 14.3588C201.054 13.2653 200.463 12.304 200.534 10.4934C202.087 11.309 203.743 12.0968 205.296 12.9124C236.65 31.1604 255.831 85.0667 247.414 120.466C243.302 141.5 219.652 170.496 218.302 175.001C217.836 176.582 217.474 178.134 217.008 179.715C217.299 179.973 217.666 180.098 217.958 180.356C218.807 179.793 220.024 179.355 220.451 178.456C222.014 175.574 247.414 141.5 249.777 128.455C261.509 97.5419 248.578 43.3046 223.259 20.1922C218.408 15.7815 212.791 12.248 207.533 8.39416C206.423 7.57183 205.265 6.98627 204.079 6.29622C203.92 6.11508 203.939 5.77385 204.063 5.40484Z" fill="#191919"/>
</svg>
