<svg width="21" height="16" viewBox="0 0 21 16" fill="none" xmlns="http://www.w3.org/2000/svg">
<path d="M15.5856 8.47501C16.3254 8.47251 17.052 8.27965 17.6956 7.915C16.7895 10.2605 15.2866 12.3287 13.3356 13.915C13.224 14.0069 13.1316 14.1199 13.0636 14.2476C12.9957 14.3752 12.9535 14.515 12.9396 14.6589C12.9257 14.8029 12.9402 14.9481 12.9824 15.0864C13.0247 15.2247 13.0937 15.3534 13.1856 15.465C13.2775 15.5766 13.3906 15.6691 13.5182 15.737C13.6458 15.805 13.7856 15.8471 13.9296 15.861C14.0735 15.8749 14.2188 15.8604 14.3571 15.8182C14.4954 15.776 14.624 15.7069 14.7356 15.615C18.7356 12.365 20.5156 7.865 20.5156 5.075C20.5087 4.08851 20.2148 3.12537 19.6696 2.30318C19.1244 1.48098 18.3516 0.835314 17.4456 0.445005C16.8593 0.160955 16.2171 0.0106691 15.5656 0.00500436C14.9922 -0.0228696 14.419 0.066012 13.8809 0.266262C13.3428 0.466511 12.851 0.773957 12.4353 1.16996C12.0196 1.56595 11.6886 2.04226 11.4625 2.56998C11.2364 3.09771 11.1198 3.66587 11.1198 4.24001C11.1198 4.81414 11.2364 5.3823 11.4625 5.91003C11.6886 6.43775 12.0196 6.91406 12.4353 7.31005C12.851 7.70605 13.3428 8.0135 13.8809 8.21375C14.419 8.414 14.9922 8.50288 15.5656 8.47501L15.5856 8.47501Z" fill="#191919"/>
<path d="M4.44562 8.47501C5.18548 8.47341 5.91235 8.2805 6.55563 7.915C5.64984 10.258 4.15087 12.3256 2.20563 13.915C2.08387 14.0028 1.98136 14.1145 1.90441 14.2434C1.82746 14.3722 1.7777 14.5155 1.75818 14.6643C1.73866 14.8131 1.7498 14.9643 1.79092 15.1087C1.83204 15.253 1.90226 15.3874 1.99726 15.5036C2.09227 15.6198 2.21004 15.7154 2.34335 15.7843C2.47665 15.8533 2.62265 15.8943 2.77238 15.9047C2.9221 15.9151 3.07238 15.8948 3.21396 15.845C3.35554 15.7952 3.48543 15.7169 3.59562 15.615C7.59562 12.365 9.37562 7.865 9.37562 5.075C9.37089 4.09968 9.08548 3.14635 8.5535 2.32887C8.02152 1.51139 7.26546 0.864343 6.37562 0.465006C5.77442 0.172644 5.11414 0.0221151 4.44562 0.0250058C3.87216 -0.00286815 3.29902 0.0860134 2.76093 0.286263C2.22285 0.486513 1.73104 0.793956 1.31533 1.18996C0.899611 1.58595 0.56865 2.06226 0.342513 2.58999C0.116376 3.11771 -0.000228043 3.68587 -0.000227993 4.26001C-0.000227943 4.83414 0.116376 5.4023 0.342513 5.93003C0.56865 6.45775 0.899612 6.93406 1.31533 7.33006C1.73104 7.72605 2.22285 8.0335 2.76093 8.23375C3.29902 8.434 3.87217 8.52288 4.44562 8.49501L4.44562 8.47501Z" fill="#191919"/>
</svg>
