<svg width="50" height="50" viewBox="0 0 50 50" fill="none" xmlns="http://www.w3.org/2000/svg">
<path d="M4.16797 27.0221V14.5638C4.16797 8.8138 8.83464 4.16797 14.5846 4.16797H35.418C41.168 4.16797 45.8346 8.8138 45.8346 14.5638V29.1055C45.8346 34.8346 41.168 39.4805 35.418 39.4805H32.293C31.6471 39.4805 31.0221 39.793 30.6263 40.3138L27.5013 44.4596C26.1263 46.293 23.8763 46.293 22.5013 44.4596L19.3763 40.3138C19.043 39.8555 18.293 39.4805 17.7096 39.4805H14.5846C8.83464 39.4805 4.16797 34.8346 4.16797 29.1055V27.0221Z" fill="#FF8E3B"/>
<path d="M25.0013 24.9987C23.8346 24.9987 22.918 24.0612 22.918 22.9154C22.918 21.7695 23.8555 20.832 25.0013 20.832C26.1471 20.832 27.0846 21.7695 27.0846 22.9154C27.0846 24.0612 26.168 24.9987 25.0013 24.9987Z" fill="#F0F0F1"/>
<path d="M33.3333 24.9987C32.1667 24.9987 31.25 24.0612 31.25 22.9154C31.25 21.7695 32.1875 20.832 33.3333 20.832C34.4792 20.832 35.4167 21.7695 35.4167 22.9154C35.4167 24.0612 34.5 24.9987 33.3333 24.9987Z" fill="#F0F0F1"/>
<path d="M16.6654 24.9987C15.4987 24.9987 14.582 24.0612 14.582 22.9154C14.582 21.7695 15.5195 20.832 16.6654 20.832C17.8112 20.832 18.7487 21.7695 18.7487 22.9154C18.7487 24.0612 17.832 24.9987 16.6654 24.9987Z" fill="#F0F0F1"/>
</svg>
