<svg width="50" height="50" viewBox="0 0 50 50" fill="none" xmlns="http://www.w3.org/2000/svg">
<path d="M34.6875 42.086V42.6901C31.6042 44.6693 27.9167 45.836 23.9583 45.836C19.9375 45.836 16.1875 44.6276 13.0625 42.5651V42.086C13.0625 37.2319 17.9167 33.2734 23.875 33.2734C29.8542 33.2734 34.6875 37.2319 34.6875 42.086Z" fill="#733DE5"/>
<path opacity="0.4" d="M43.7513 26.0417C43.7513 33.0208 40.1471 39.1458 34.6888 42.6875V42.0834C34.6888 37.2292 29.8555 33.2708 23.8763 33.2708C17.918 33.2708 13.0638 37.2292 13.0638 42.0834V42.5625C7.70964 39.0208 4.16797 32.9583 4.16797 26.0417C4.16797 15.1042 13.0221 6.25 23.9596 6.25C26.6888 6.25 29.293 6.79165 31.668 7.79165C31.3971 8.62498 31.2513 9.5 31.2513 10.4167C31.2513 11.9792 31.6888 13.4583 32.4596 14.7083C32.8763 15.4167 33.418 16.0624 34.043 16.6041C35.5013 17.9374 37.4388 18.75 39.5846 18.75C40.5013 18.75 41.3763 18.6041 42.1888 18.3125C43.1888 20.6875 43.7513 23.3125 43.7513 26.0417Z" fill="#733DE5"/>
<path d="M45.7708 4.85681C44.2708 3.14847 42.0417 2.08594 39.5833 2.08594C37.25 2.08594 35.125 3.04432 33.6042 4.60682C32.7292 5.50265 32.0625 6.58592 31.6667 7.79425C31.3958 8.62758 31.25 9.5026 31.25 10.4193C31.25 11.9818 31.6875 13.4609 32.4583 14.7109C32.875 15.4193 33.4167 16.065 34.0417 16.6067C35.5 17.94 37.4375 18.7526 39.5833 18.7526C40.5 18.7526 41.375 18.6067 42.1875 18.3151C44.1042 17.7109 45.7083 16.3984 46.7083 14.7109C47.1458 14.0026 47.4792 13.1901 47.6667 12.3568C47.8333 11.7318 47.9167 11.0859 47.9167 10.4193C47.9167 8.29427 47.1042 6.33597 45.7708 4.85681ZM42.6875 11.9401H41.1458V13.5651C41.1458 14.4193 40.4375 15.1276 39.5833 15.1276C38.7292 15.1276 38.0208 14.4193 38.0208 13.5651V11.9401H36.4792C35.625 11.9401 34.9167 11.2317 34.9167 10.3776C34.9167 9.5234 35.625 8.81506 36.4792 8.81506H38.0208V7.33598C38.0208 6.48181 38.7292 5.77348 39.5833 5.77348C40.4375 5.77348 41.1458 6.48181 41.1458 7.33598V8.81506H42.6875C43.5417 8.81506 44.25 9.5234 44.25 10.3776C44.25 11.2317 43.5625 11.9401 42.6875 11.9401Z" fill="#733DE5"/>
<path d="M23.8776 30.6849C27.1108 30.6849 29.7318 28.0639 29.7318 24.8307C29.7318 21.5976 27.1108 18.9766 23.8776 18.9766C20.6444 18.9766 18.0234 21.5976 18.0234 24.8307C18.0234 28.0639 20.6444 30.6849 23.8776 30.6849Z" fill="#733DE5"/>
</svg>
