<svg width="50" height="50" viewBox="0 0 50 50" fill="none" xmlns="http://www.w3.org/2000/svg">
<path opacity="0.4" d="M43.75 14.5827V35.416C43.75 41.666 40.625 45.8327 33.3333 45.8327H16.6667C9.375 45.8327 6.25 41.666 6.25 35.416V14.5827C6.25 8.33268 9.375 4.16602 16.6667 4.16602H33.3333C40.625 4.16602 43.75 8.33268 43.75 14.5827Z" fill="#E72E9D"/>
<path d="M32.2904 4.16602V20.541C32.2904 21.4577 31.207 21.916 30.5403 21.3119L25.7071 16.8535C25.3113 16.4785 24.6861 16.4785 24.2903 16.8535L19.4571 21.3119C18.7904 21.9369 17.707 21.4577 17.707 20.541V4.16602H32.2904Z" fill="#E72E9D"/>
<path d="M36.4596 30.7305H27.6055C26.7513 30.7305 26.043 30.0221 26.043 29.168C26.043 28.3138 26.7513 27.6055 27.6055 27.6055H36.4596C37.3138 27.6055 38.0221 28.3138 38.0221 29.168C38.0221 30.0221 37.3138 30.7305 36.4596 30.7305Z" fill="#E72E9D"/>
<path d="M36.4583 39.0625H18.75C17.8958 39.0625 17.1875 38.3542 17.1875 37.5C17.1875 36.6458 17.8958 35.9375 18.75 35.9375H36.4583C37.3125 35.9375 38.0208 36.6458 38.0208 37.5C38.0208 38.3542 37.3125 39.0625 36.4583 39.0625Z" fill="#E72E9D"/>
</svg>
