<svg width="24" height="24" viewBox="0 0 24 24" fill="none" xmlns="http://www.w3.org/2000/svg">
<path d="M20.7495 16.5039V7.50391C21.9395 7.00391 22.7495 5.83391 22.7495 4.50391C22.7495 2.71391 21.2895 1.25391 19.4995 1.25391C18.1795 1.25391 16.9995 2.06391 16.4995 3.25391H7.49951C6.99951 2.06391 5.82951 1.25391 4.49951 1.25391C2.70951 1.25391 1.24951 2.71391 1.24951 4.50391C1.24951 5.82391 2.05951 7.00391 3.24951 7.50391V16.5039C2.05951 17.0039 1.24951 18.1739 1.24951 19.5039C1.24951 21.2939 2.70951 22.7539 4.49951 22.7539C5.81951 22.7539 6.99951 21.9439 7.49951 20.7539H16.4995C16.9995 21.9439 18.1695 22.7539 19.4995 22.7539C21.2895 22.7539 22.7495 21.2939 22.7495 19.5039C22.7495 18.1839 21.9395 17.0039 20.7495 16.5039ZM19.1595 16.2739C19.0495 16.2839 18.9495 16.3039 18.8395 16.3239C18.5695 16.3739 18.3095 16.4639 18.0595 16.5939C17.9995 16.6239 17.9395 16.6539 17.8795 16.6939C17.3795 16.9739 16.9695 17.3839 16.6895 17.8839C16.6495 17.9439 16.6195 18.0039 16.5895 18.0639C16.4595 18.3139 16.3695 18.5739 16.3195 18.8439C16.2995 18.9539 16.2795 19.0539 16.2695 19.1639C16.2595 19.1939 16.2595 19.2239 16.2595 19.2539H7.73951C7.71951 19.0039 7.66951 18.7639 7.59951 18.5339C7.57951 18.4539 7.54951 18.3639 7.50951 18.2839C7.47951 18.2139 7.44951 18.1439 7.40951 18.0639C7.37951 18.0039 7.34951 17.9439 7.30951 17.8839C7.02951 17.3839 6.61951 16.9739 6.11951 16.6939C6.05951 16.6539 5.99951 16.6239 5.93951 16.5939C5.85951 16.5539 5.78951 16.5239 5.71951 16.4939C5.63951 16.4539 5.54951 16.4239 5.46951 16.4039C5.23951 16.3339 4.99951 16.2839 4.74951 16.2639V7.74391C5.00951 7.72391 5.24951 7.67391 5.48951 7.59391C5.57951 7.57391 5.67951 7.53391 5.76951 7.49391C5.81951 7.47391 5.87951 7.44391 5.93951 7.41391C5.99951 7.38391 6.05951 7.35391 6.11951 7.31391C6.61951 7.03391 7.02951 6.62391 7.30951 6.12391C7.34951 6.06391 7.37951 6.00391 7.40951 5.94391C7.43951 5.88391 7.46951 5.82391 7.48951 5.77391C7.52951 5.68391 7.56951 5.58391 7.58951 5.49391C7.66951 5.25391 7.71951 5.01391 7.73951 4.75391H16.2595C16.2795 5.02391 16.3295 5.27391 16.4195 5.52391C16.4395 5.60391 16.4695 5.69391 16.5095 5.77391C16.5295 5.83391 16.5595 5.88391 16.5895 5.94391C16.6195 6.00391 16.6495 6.06391 16.6895 6.12391C16.9695 6.62391 17.3795 7.03391 17.8795 7.31391C17.9395 7.35391 17.9995 7.38391 18.0595 7.41391C18.1195 7.44391 18.1695 7.47391 18.2295 7.49391C18.3095 7.53391 18.3995 7.56391 18.4795 7.58391C18.7295 7.67391 18.9795 7.72391 19.2495 7.74391V16.2639C19.2195 16.2639 19.1895 16.2639 19.1595 16.2739Z" fill="#0070F4"/>
</svg>
