<svg xmlns="http://www.w3.org/2000/svg" width="19.196" height="15.083" viewBox="0 0 19.196 15.083">
  <path id="dashboard" d="M4.113,9.6a1.321,1.321,0,0,0-.4-.969,1.321,1.321,0,0,0-.969-.4,1.321,1.321,0,0,0-.969.4,1.37,1.37,0,0,0,0,1.939,1.323,1.323,0,0,0,.97.4,1.321,1.321,0,0,0,.969-.4A1.321,1.321,0,0,0,4.113,9.6ZM6.17,4.8A1.371,1.371,0,0,0,4.8,3.428,1.371,1.371,0,0,0,3.428,4.8,1.371,1.371,0,0,0,4.8,6.17,1.371,1.371,0,0,0,6.17,4.8Zm4.585,5.153L11.837,5.86a.7.7,0,0,0-.492-.836.637.637,0,0,0-.514.07.674.674,0,0,0-.322.423L9.427,9.609a2.036,2.036,0,0,0-1.146.466,2.051,2.051,0,0,0-.461,2.619,1.968,1.968,0,0,0,1.253.953,2,2,0,0,0,1.564-.214,2.059,2.059,0,0,0,.889-2.506,2.04,2.04,0,0,0-.771-.975Zm7.07-.354a1.371,1.371,0,1,0-.4.969,1.321,1.321,0,0,0,.4-.969ZM10.969,2.742a1.321,1.321,0,0,0-.4-.969,1.37,1.37,0,0,0-1.939,0,1.323,1.323,0,0,0-.4.97,1.321,1.321,0,0,0,.4.969,1.371,1.371,0,0,0,1.939,0,1.321,1.321,0,0,0,.4-.969Zm4.8,2.057a1.371,1.371,0,1,0-2.34.969,1.371,1.371,0,0,0,2.34-.969ZM19.2,9.6a9.465,9.465,0,0,1-1.511,5.174.652.652,0,0,1-.579.311H2.089a.652.652,0,0,1-.579-.311,9.577,9.577,0,0,1-.75-8.9A9.429,9.429,0,0,1,5.87.76a9.518,9.518,0,0,1,7.456,0,9.429,9.429,0,0,1,5.11,5.11A9.385,9.385,0,0,1,19.2,9.6Z" fill="#1a2d40"/>
</svg>
