<svg width="160" height="19" viewBox="0 0 160 19" fill="none" xmlns="http://www.w3.org/2000/svg">
<path d="M8.24457 0.743477C9.42787 0.743477 10.4797 0.965347 11.4 1.40909C12.3204 1.85283 13.0928 2.47735 13.7173 3.28265C14.3583 4.07152 14.8349 4.99187 15.1472 6.0437C15.4759 7.07909 15.6402 8.18843 15.6402 9.37174C15.6402 10.9659 15.3526 12.4204 14.7774 13.7352C14.2022 15.0335 13.364 16.0689 12.2629 16.8413C11.1782 17.6138 9.83874 18 8.24457 18H2.3527C1.92539 18 1.56383 17.8603 1.268 17.5809C0.988609 17.2851 0.848913 16.9235 0.848913 16.4962V2.24726C0.848913 1.81996 0.988609 1.46661 1.268 1.18722C1.56383 0.89139 1.92539 0.743477 2.3527 0.743477H8.24457ZM7.99804 15.165C9.03344 15.165 9.87983 14.902 10.5372 14.3761C11.1946 13.8338 11.6712 13.1271 11.967 12.256C12.2793 11.3686 12.4354 10.4071 12.4354 9.37174C12.4354 8.5993 12.345 7.86796 12.1643 7.1777C11.9999 6.471 11.737 5.8547 11.3754 5.32878C11.0138 4.78643 10.5537 4.35913 9.99487 4.04687C9.43609 3.73461 8.77048 3.57848 7.99804 3.57848H3.68391L3.93043 3.35661V15.4362L3.78252 15.165H7.99804ZM21.5529 16.4962C21.5529 16.9235 21.3968 17.2851 21.0845 17.5809C20.7722 17.8603 20.4107 18 19.9998 18C19.5396 18 19.1698 17.8603 18.8905 17.5809C18.6111 17.2851 18.4714 16.9235 18.4714 16.4962V2.24726C18.4714 1.81996 18.6193 1.46661 18.9151 1.18722C19.2109 0.89139 19.5889 0.743477 20.0491 0.743477C20.4435 0.743477 20.7887 0.89139 21.0845 1.18722C21.3968 1.46661 21.5529 1.81996 21.5529 2.24726V16.4962ZM30.8071 18.2465C29.6566 18.2465 28.6213 18.1068 27.7009 17.8274C26.7806 17.5316 25.9013 17.0221 25.0631 16.299C24.8495 16.1182 24.6851 15.9128 24.5701 15.6827C24.455 15.4526 24.3975 15.2225 24.3975 14.9924C24.3975 14.6144 24.529 14.2857 24.792 14.0063C25.0713 13.7105 25.4165 13.5626 25.8273 13.5626C26.1396 13.5626 26.419 13.6612 26.6655 13.8584C27.29 14.3679 27.9063 14.7541 28.5144 15.0171C29.139 15.28 29.9032 15.4115 30.8071 15.4115C31.4152 15.4115 31.974 15.3211 32.4834 15.1403C32.9929 14.9431 33.4038 14.6884 33.716 14.3761C34.0283 14.0474 34.1844 13.6777 34.1844 13.2668C34.1844 12.7737 34.0365 12.3547 33.7407 12.0095C33.4449 11.6644 32.9929 11.3768 32.3848 11.1467C31.7767 10.9002 31.0043 10.7112 30.0675 10.5797C29.18 10.4482 28.3994 10.251 27.7256 9.98804C27.0517 9.70865 26.4847 9.36352 26.0246 8.95265C25.5808 8.52535 25.2439 8.0323 25.0138 7.47352C24.7837 6.8983 24.6687 6.25735 24.6687 5.55065C24.6687 4.48239 24.9399 3.57026 25.4822 2.81426C26.041 2.05826 26.7888 1.48304 27.7256 1.08861C28.6623 0.694173 29.6977 0.496956 30.8317 0.496956C31.9 0.496956 32.8861 0.661303 33.79 0.989999C34.7103 1.30226 35.4581 1.70491 36.0333 2.19796C36.51 2.57596 36.7483 3.01148 36.7483 3.50452C36.7483 3.86609 36.6086 4.19478 36.3292 4.49061C36.0498 4.78643 35.7211 4.93435 35.3431 4.93435C35.0966 4.93435 34.8747 4.86039 34.6775 4.71248C34.4145 4.48239 34.0612 4.26874 33.6174 4.07152C33.1737 3.85787 32.7053 3.6853 32.2123 3.55383C31.7192 3.40591 31.259 3.33196 30.8317 3.33196C30.125 3.33196 29.5252 3.42235 29.0321 3.60313C28.5555 3.78391 28.194 4.03043 27.9474 4.3427C27.7009 4.65496 27.5776 5.01652 27.5776 5.42739C27.5776 5.92043 27.7173 6.3313 27.9967 6.66C28.2926 6.97226 28.7116 7.227 29.254 7.42422C29.7963 7.605 30.4455 7.76935 31.2015 7.91726C32.1876 8.09804 33.0504 8.31169 33.79 8.55822C34.546 8.80474 35.1705 9.12522 35.6636 9.51965C36.1566 9.89765 36.5264 10.3825 36.7729 10.9741C37.0194 11.5493 37.1427 12.256 37.1427 13.0942C37.1427 14.1625 36.8469 15.0828 36.2552 15.8553C35.6636 16.6277 34.8829 17.2193 33.9133 17.6302C32.96 18.0411 31.9246 18.2465 30.8071 18.2465ZM52.0494 1.58165C52.4767 1.7953 52.7232 2.13222 52.7889 2.59239C52.8711 3.05257 52.7561 3.47165 52.4438 3.84965C52.2301 4.14548 51.9508 4.30982 51.6056 4.3427C51.2769 4.37556 50.94 4.30982 50.5949 4.14548C50.2004 3.9647 49.7814 3.825 49.3376 3.72639C48.9103 3.62778 48.4584 3.57848 47.9817 3.57848C47.0943 3.57848 46.2972 3.71817 45.5905 3.99756C44.9002 4.27696 44.3086 4.67961 43.8155 5.20552C43.3225 5.715 42.9445 6.32309 42.6815 7.02978C42.435 7.73648 42.3117 8.51713 42.3117 9.37174C42.3117 10.3743 42.4514 11.2453 42.7308 11.9849C43.0267 12.7244 43.4293 13.3407 43.9388 13.8338C44.4483 14.3268 45.0481 14.6966 45.7384 14.9431C46.4287 15.1732 47.1764 15.2883 47.9817 15.2883C48.4255 15.2883 48.8692 15.2472 49.313 15.165C49.7567 15.0828 50.184 14.9349 50.5949 14.7213C50.94 14.5569 51.2769 14.4994 51.6056 14.5487C51.9508 14.598 52.2384 14.7706 52.4684 15.0664C52.7971 15.4773 52.9122 15.9046 52.8136 16.3483C52.7314 16.7756 52.4849 17.0879 52.074 17.2851C51.6467 17.4987 51.203 17.6795 50.7428 17.8274C50.2991 17.9589 49.8471 18.0575 49.3869 18.1233C48.9268 18.2054 48.4584 18.2465 47.9817 18.2465C46.7984 18.2465 45.6727 18.0575 44.6044 17.6795C43.5526 17.3015 42.6076 16.7427 41.7694 16.0032C40.9477 15.2636 40.2985 14.3433 39.8219 13.2421C39.3453 12.1246 39.107 10.8344 39.107 9.37174C39.107 8.10626 39.3206 6.93939 39.7479 5.87113C40.1917 4.80287 40.808 3.88252 41.5968 3.11009C42.4021 2.32122 43.3471 1.71313 44.4318 1.28583C45.5165 0.842086 46.6998 0.620216 47.9817 0.620216C48.7049 0.620216 49.4116 0.70239 50.1018 0.866738C50.7921 1.03109 51.4413 1.26939 52.0494 1.58165ZM71.3016 9.37174C71.3016 10.6043 71.0961 11.7548 70.6852 12.823C70.2744 13.8913 69.6909 14.8363 68.9349 15.658C68.1954 16.4633 67.3079 17.0961 66.2725 17.5563C65.2536 18.0164 64.136 18.2465 62.9198 18.2465C61.7036 18.2465 60.5861 18.0164 59.5671 17.5563C58.5482 17.0961 57.6607 16.4633 56.9047 15.658C56.1651 14.8363 55.5899 13.8913 55.179 12.823C54.7682 11.7548 54.5627 10.6043 54.5627 9.37174C54.5627 8.13913 54.7682 6.9887 55.179 5.92043C55.5899 4.85217 56.1651 3.91539 56.9047 3.11009C57.6607 2.28835 58.5482 1.64739 59.5671 1.18722C60.5861 0.727042 61.7036 0.496956 62.9198 0.496956C64.136 0.496956 65.2536 0.727042 66.2725 1.18722C67.3079 1.64739 68.1954 2.28835 68.9349 3.11009C69.6909 3.91539 70.2744 4.85217 70.6852 5.92043C71.0961 6.9887 71.3016 8.13913 71.3016 9.37174ZM68.0968 9.37174C68.0968 8.27061 67.8749 7.2763 67.4312 6.38883C66.9874 5.48491 66.3793 4.77 65.6069 4.24409C64.8345 3.71817 63.9388 3.45522 62.9198 3.45522C61.9009 3.45522 61.0052 3.71817 60.2327 4.24409C59.4603 4.77 58.8522 5.47669 58.4085 6.36417C57.9812 7.25165 57.7675 8.25417 57.7675 9.37174C57.7675 10.4729 57.9812 11.4754 58.4085 12.3793C58.8522 13.2668 59.4603 13.9735 60.2327 14.4994C61.0052 15.0253 61.9009 15.2883 62.9198 15.2883C63.9388 15.2883 64.8345 15.0253 65.6069 14.4994C66.3793 13.9735 66.9874 13.2668 67.4312 12.3793C67.8749 11.4754 68.0968 10.4729 68.0968 9.37174ZM86.4638 0.694173C86.8747 0.694173 87.228 0.833869 87.5238 1.11326C87.8361 1.37622 87.9922 1.71313 87.9922 2.124C87.9922 2.33765 87.9429 2.55952 87.8443 2.78961L81.7552 17.0386C81.6073 17.3673 81.3937 17.6138 81.1143 17.7781C80.8513 17.926 80.5801 18 80.3007 18C80.0378 17.9836 79.7831 17.9014 79.5365 17.7535C79.29 17.5891 79.101 17.359 78.9695 17.0632L72.8804 2.76496C72.8311 2.66635 72.7983 2.56774 72.7818 2.46913C72.7654 2.35409 72.7572 2.24726 72.7572 2.14865C72.7572 1.67204 72.9297 1.31048 73.2749 1.06396C73.62 0.800999 73.9487 0.669521 74.261 0.669521C74.8855 0.669521 75.3374 0.99 75.6168 1.63096L81.0157 14.3268L80.1528 14.3515L85.1079 1.63096C85.3873 1.00643 85.8393 0.694173 86.4638 0.694173ZM92.0779 0.743477H100.336C100.764 0.743477 101.117 0.883173 101.396 1.16256C101.692 1.42552 101.84 1.77065 101.84 2.19796C101.84 2.60882 101.692 2.94574 101.396 3.2087C101.117 3.45522 100.764 3.57848 100.336 3.57848H93.4338L93.6557 3.15939V7.96657L93.4585 7.76935H99.2271C99.6544 7.76935 100.008 7.90904 100.287 8.18843C100.583 8.45139 100.731 8.79652 100.731 9.22383C100.731 9.6347 100.583 9.97161 100.287 10.2346C100.008 10.4811 99.6544 10.6043 99.2271 10.6043H93.5324L93.6557 10.4071V15.3869L93.4585 15.165H100.336C100.764 15.165 101.117 15.3129 101.396 15.6087C101.692 15.8881 101.84 16.2168 101.84 16.5948C101.84 17.0057 101.692 17.3426 101.396 17.6056C101.117 17.8685 100.764 18 100.336 18H92.0779C91.6506 18 91.2891 17.8603 90.9932 17.5809C90.7139 17.2851 90.5742 16.9235 90.5742 16.4962V2.24726C90.5742 1.81996 90.7139 1.46661 90.9932 1.18722C91.2891 0.89139 91.6506 0.743477 92.0779 0.743477ZM106.457 18C105.997 18 105.586 17.8603 105.224 17.5809C104.863 17.2851 104.682 16.9235 104.682 16.4962V2.24726C104.682 1.81996 104.821 1.46661 105.101 1.18722C105.397 0.89139 105.758 0.743477 106.186 0.743477H113.285C114.14 0.743477 114.937 0.973564 115.677 1.43374C116.433 1.87748 117.041 2.502 117.501 3.3073C117.961 4.09617 118.191 5.0083 118.191 6.0437C118.191 6.66822 118.06 7.2763 117.797 7.86796C117.55 8.45961 117.205 8.99374 116.761 9.47035C116.334 9.94696 115.849 10.3167 115.307 10.5797L115.331 10.0127C115.792 10.2592 116.17 10.555 116.465 10.9002C116.778 11.2289 117.016 11.5904 117.18 11.9849C117.361 12.3629 117.468 12.7737 117.501 13.2175C117.567 13.6283 117.608 13.9899 117.624 14.3022C117.657 14.6144 117.706 14.8774 117.772 15.091C117.854 15.3047 118.002 15.469 118.216 15.5841C118.577 15.7977 118.799 16.11 118.881 16.5209C118.98 16.9153 118.89 17.2687 118.61 17.5809C118.429 17.7946 118.199 17.9343 117.92 18C117.641 18.0493 117.361 18.0493 117.082 18C116.802 17.9343 116.572 17.8521 116.392 17.7535C116.112 17.5891 115.833 17.3508 115.553 17.0386C115.274 16.7099 115.044 16.2743 114.863 15.732C114.699 15.1897 114.617 14.4912 114.617 13.6366C114.617 13.3572 114.567 13.1024 114.469 12.8723C114.37 12.6258 114.23 12.4204 114.05 12.256C113.869 12.0753 113.639 11.9438 113.359 11.8616C113.08 11.763 112.751 11.7137 112.373 11.7137H107.393L107.763 11.1467V16.4962C107.763 16.9235 107.648 17.2851 107.418 17.5809C107.188 17.8603 106.868 18 106.457 18ZM107.418 9.17452H113.162C113.458 9.17452 113.746 9.04304 114.025 8.78009C114.304 8.50069 114.534 8.13091 114.715 7.67074C114.896 7.19413 114.986 6.67643 114.986 6.11765C114.986 5.39452 114.789 4.79465 114.395 4.31804C114.017 3.825 113.606 3.57848 113.162 3.57848H107.467L107.763 2.78961V9.76617L107.418 9.17452ZM133.488 18C133.028 18 132.658 17.811 132.379 17.433L126.684 9.93874L128.928 7.64609L134.82 15.4362C135.05 15.7484 135.165 16.0853 135.165 16.4469C135.165 16.9071 134.992 17.2851 134.647 17.5809C134.302 17.8603 133.916 18 133.488 18ZM133.784 0.620216C134.179 0.620216 134.499 0.784564 134.746 1.11326C135.009 1.42552 135.14 1.746 135.14 2.07469C135.14 2.41983 134.992 2.7403 134.696 3.03613L124.367 12.9217L124.244 9.39639L132.576 1.18722C132.954 0.809216 133.357 0.620216 133.784 0.620216ZM123.134 18C122.674 18 122.305 17.8603 122.025 17.5809C121.746 17.2851 121.606 16.9235 121.606 16.4962V2.24726C121.606 1.81996 121.754 1.46661 122.05 1.18722C122.346 0.89139 122.724 0.743477 123.184 0.743477C123.644 0.743477 124.006 0.89139 124.268 1.18722C124.548 1.46661 124.688 1.81996 124.688 2.24726V16.4962C124.688 16.9235 124.548 17.2851 124.268 17.5809C123.989 17.8603 123.611 18 123.134 18ZM140.841 16.4962C140.841 16.9235 140.685 17.2851 140.373 17.5809C140.061 17.8603 139.699 18 139.288 18C138.828 18 138.458 17.8603 138.179 17.5809C137.9 17.2851 137.76 16.9235 137.76 16.4962V2.24726C137.76 1.81996 137.908 1.46661 138.204 1.18722C138.5 0.89139 138.878 0.743477 139.338 0.743477C139.732 0.743477 140.077 0.89139 140.373 1.18722C140.685 1.46661 140.841 1.81996 140.841 2.24726V16.4962ZM151.945 0.743477C153.128 0.743477 154.18 0.965347 155.1 1.40909C156.02 1.85283 156.793 2.47735 157.417 3.28265C158.058 4.07152 158.535 4.99187 158.847 6.0437C159.176 7.07909 159.34 8.18843 159.34 9.37174C159.34 10.9659 159.053 12.4204 158.477 13.7352C157.902 15.0335 157.064 16.0689 155.963 16.8413C154.878 17.6138 153.539 18 151.945 18H146.053C145.625 18 145.264 17.8603 144.968 17.5809C144.689 17.2851 144.549 16.9235 144.549 16.4962V2.24726C144.549 1.81996 144.689 1.46661 144.968 1.18722C145.264 0.89139 145.625 0.743477 146.053 0.743477H151.945ZM151.698 15.165C152.733 15.165 153.58 14.902 154.237 14.3761C154.895 13.8338 155.371 13.1271 155.667 12.256C155.979 11.3686 156.135 10.4071 156.135 9.37174C156.135 8.5993 156.045 7.86796 155.864 7.1777C155.7 6.471 155.437 5.8547 155.075 5.32878C154.714 4.78643 154.254 4.35913 153.695 4.04687C153.136 3.73461 152.471 3.57848 151.698 3.57848H147.384L147.63 3.35661V15.4362L147.483 15.165H151.698Z" fill="#414242"/>
</svg>
