<svg width="20" height="20" viewBox="0 0 20 20" fill="none" xmlns="http://www.w3.org/2000/svg">
<path fill-rule="evenodd" clip-rule="evenodd" d="M10 20C15.5228 20 20 15.5228 20 10C20 4.47715 15.5228 0 10 0C4.47715 0 0 4.47715 0 10C0 15.5228 4.47715 20 10 20ZM2.91473 7.53426C3.38178 6.19201 4.21947 5.0233 5.30526 4.1507C5.64012 4.66208 6.21812 4.99989 6.87502 4.99989C7.91055 4.99989 8.75002 5.83935 8.75002 6.87489V7.49989C8.75002 8.8806 9.86931 9.99989 11.25 9.99989C12.6307 9.99989 13.75 8.8806 13.75 7.49989C13.75 6.32474 14.5608 5.33897 15.6535 5.07149C16.8035 6.38951 17.5 8.11337 17.5 9.9999C17.5 10.4259 17.4645 10.8435 17.3963 11.2501H16.25C14.8693 11.2501 13.75 12.3694 13.75 13.7501V16.4966C12.6468 17.1347 11.3659 17.4999 9.99989 17.4999V15C9.99989 13.6193 8.88061 12.5 7.49989 12.5C6.11918 12.5 4.99989 11.3807 4.99989 10C4.99989 8.76061 4.09801 7.73187 2.91473 7.53426Z" fill="#3C3C43" fill-opacity="0.6"/>
</svg>
