<svg width="43" height="35" viewBox="0 0 43 35" fill="none" xmlns="http://www.w3.org/2000/svg">
<path d="M6.63627 26.326V22.9846H16.0401V19.121H6.63627V16.0407H17.3108V12.0465H0.709961V30.3192H17.7038V26.325L6.63627 26.326Z" fill="#262626"/>
<path d="M15.4901 12.9945H19.6802L24.0604 0.296875L29.3694 13.1152H42.6489L31.4823 21.3243L35.9824 34.0644L24.0174 26.5701L12.8961 34.0644L16.1995 22.9846H19.2981L18.1047 27.2802L24.0174 22.7707L30.0633 27.2802L27.8223 20.5461L33.6897 16.0413H26.2685L24.0604 10.0854L21.7853 16.0413H15.4901V12.9945Z" fill="#0E80CA"/>
<path d="M17.2757 16.0416H6.62372L0.709961 12.0484H17.2757V16.0416Z" fill="#262626"/>
</svg>
