<svg width="200" height="39" viewBox="0 0 200 39" fill="none" xmlns="http://www.w3.org/2000/svg">
<path d="M4.74678 23.4395V20.3393H12.279V16.7545H4.74678V13.8965H13.2968V10.1906H0V27.1446H13.6115V23.4386L4.74678 23.4395ZM28.3567 27.1455L23.3429 20.4127L28.1869 14.0185H23.319L20.897 17.3363L18.5723 14.0185H13.3896L18.2336 20.5824L13.2446 27.1464H18.2336L20.7529 23.7074L23.1024 27.1464L28.3567 27.1455ZM36.8094 13.8001C36.0899 13.7424 35.3668 13.85 34.6952 14.1145C34.0236 14.379 33.4214 14.7935 32.9345 15.3264V14.0212H28.5504V31.8471H33.1485V25.9862C33.6305 26.4553 34.2041 26.8199 34.8334 27.0574C35.4626 27.2949 36.1341 27.4002 36.8059 27.3665C40.3659 27.3665 43.2486 24.7509 43.2486 20.5851C43.2486 16.4193 40.3739 13.7992 36.8138 13.7992L36.8094 13.8001ZM35.8367 23.7039C34.2866 23.7039 33.076 22.5659 33.076 20.5798C33.076 18.5937 34.2875 17.4557 35.8367 17.4557C37.3859 17.4557 38.5974 18.5937 38.5974 20.5798C38.5974 22.5659 37.3948 23.7057 35.8446 23.7057L35.8367 23.7039ZM44.1683 27.1428H48.7664V9.17188H44.1683V27.1428ZM57.1254 27.3612C61.4583 27.3612 64.5365 24.5316 64.5365 20.5524C64.5365 16.6041 61.461 13.7948 57.1254 13.7948C52.8385 13.7948 49.7144 16.6041 49.7144 20.5524C49.7188 24.5289 52.8473 27.363 57.1343 27.363L57.1254 27.3612ZM57.1254 23.7039C55.5753 23.7039 54.3647 22.5659 54.3647 20.555C54.3647 18.569 55.5762 17.4548 57.1254 17.4548C58.6994 17.4548 59.8861 18.569 59.8861 20.555C59.8949 22.5667 58.7082 23.7057 57.1343 23.7057L57.1254 23.7039ZM69.8412 15.5899V14.0159H65.457V27.1428H70.0552V21.1121C70.0552 18.813 71.3391 17.8669 73.204 17.8669C73.5524 17.8694 73.9003 17.8936 74.2457 17.9394V13.7975C73.4244 13.7397 72.6008 13.8715 71.8385 14.1826C71.0762 14.4937 70.3955 14.9758 69.8491 15.5917L69.8412 15.5899ZM88.2242 20.6037C88.2242 16.2708 85.0753 13.7948 81.2005 13.7948C77.0585 13.7948 73.9831 16.6041 73.9831 20.5524C73.9831 24.4759 77.0108 27.3612 81.685 27.3612C84.1796 27.3612 86.0179 26.6344 87.2798 25.2302L84.8578 22.7109C84.4532 23.091 83.9773 23.3872 83.4577 23.5826C82.938 23.7779 82.3849 23.8684 81.8301 23.8489C81.1321 23.9252 80.4294 23.7568 79.8418 23.3725C79.2543 22.9882 78.8184 22.4118 78.6087 21.7417H88.1517C88.1844 21.3801 88.2321 20.9441 88.2321 20.6054L88.2242 20.6037ZM81.2243 17.0666C81.873 17.0374 82.509 17.2525 83.0068 17.6695C83.5045 18.0865 83.8277 18.6751 83.9125 19.3188H78.5459C78.6349 18.6775 78.9591 18.0921 79.4556 17.6763C79.952 17.2606 80.5852 17.0442 81.2323 17.0693L81.2243 17.0666Z" fill="#262626"/>
<path d="M149.567 14.5161H173.52L178.57 0L184.69 14.6541H200.001L187.126 24.0388L192.315 38.6035L178.52 30.0359L165.698 38.6035L169.947 24.0388H173.52L171.703 30.8476L178.52 25.6924L185.491 30.8476L182.907 23.1492L189.671 17.9993H181.115L178.57 11.1904L175.947 17.9993H149.567V14.5161Z" fill="#0E80CA"/>
<path d="M90.7519 27.1437H95.5472V13.992H100.73V10.1897H85.5453V13.992H90.7528L90.7519 27.1437ZM106.059 13.7984C104.025 13.7638 102.022 14.292 100.27 15.3246L101.82 18.4487C102.859 17.7072 104.104 17.3092 105.38 17.3107C107.197 17.3107 108.093 18.0614 108.166 19.394H105.55C101.482 19.394 99.7139 20.8973 99.7139 23.3175C99.7139 25.5945 101.458 27.3621 104.607 27.3621C106.52 27.3621 107.828 26.7078 108.481 25.4486V27.1437H112.768V19.8565C112.767 15.688 110.322 13.7984 106.059 13.7984H106.059ZM105.89 24.4547C104.799 24.4547 104.17 23.8976 104.17 23.1229C104.17 22.3271 104.7 21.7912 106.18 21.7912H108.166V22.9293C108.005 23.397 107.695 23.7993 107.284 24.0747C106.873 24.3501 106.383 24.4835 105.89 24.4547ZM114.467 27.1428H119.065V9.17188H114.467V27.1428ZM134.254 20.5993C134.254 16.2663 131.105 13.7904 127.231 13.7904C123.089 13.7904 120.013 16.5997 120.013 20.548C120.013 24.4715 123.041 27.3568 127.715 27.3568C130.21 27.3568 132.048 26.63 133.31 25.2257L130.888 22.7065C130.483 23.0866 130.007 23.3828 129.488 23.5781C128.968 23.7735 128.415 23.864 127.86 23.8445C127.162 23.9208 126.459 23.7524 125.872 23.3681C125.284 22.9838 124.848 22.4073 124.639 21.7373H134.178C134.202 21.3792 134.251 20.9432 134.251 20.6046L134.254 20.5993ZM127.254 17.0622C127.903 17.0329 128.539 17.2481 129.037 17.6651C129.535 18.0821 129.858 18.6706 129.943 19.3144H124.563C124.653 18.6734 124.977 18.0886 125.474 17.6735C125.971 17.2585 126.604 17.0428 127.251 17.0684L127.254 17.0622ZM143.724 13.7904C142.954 13.7657 142.187 13.8991 141.47 14.1823C140.754 14.4655 140.103 14.8925 139.558 15.4369V14.0203H135.174V27.1472H139.772V20.8018C139.772 18.622 140.91 17.7015 142.388 17.7015C143.719 17.7015 144.544 18.4974 144.544 20.3897V27.1472H149.142V19.6389C149.146 15.5669 146.797 13.7984 143.72 13.7984L143.724 13.7904ZM158.737 23.3935C158.32 23.667 157.831 23.8104 157.332 23.8056C157.138 23.814 156.944 23.7799 156.764 23.7056C156.584 23.6312 156.423 23.5185 156.292 23.3753C156.16 23.2321 156.062 23.0618 156.003 22.8765C155.944 22.6911 155.927 22.4952 155.951 22.3024V11.089H151.353V22.351C151.353 25.7174 153.315 27.3648 156.682 27.3648C157.796 27.4069 158.9 27.1475 159.879 26.614L158.737 23.3935Z" fill="#0E80CA"/>
</svg>
