<svg id="url" xmlns="http://www.w3.org/2000/svg" width="41" height="41" viewBox="0 0 41 41">
  <path id="Path_414" data-name="Path 414" d="M0,5.125A5.075,5.075,0,0,1,5.125,0h30.75A5.075,5.075,0,0,1,41,5.125v30.75A5.075,5.075,0,0,1,35.875,41H5.125A5.075,5.075,0,0,1,0,35.875Z" fill="#4a4a4a" fill-rule="evenodd"/>
  <path id="Path_415" data-name="Path 415" d="M42.418,27.714A12.417,12.417,0,1,0,54.834,40.133,12.42,12.42,0,0,0,42.418,27.714Zm4.43,8.424a.978.978,0,0,1,.7-.194c.178.049.323.113.113.259-.1.063-.242,0-.356.03.146.033.356.1.291.241.42.243-.129.533-.4.5.13.016-.274.257-.274.241-.146.079-.339.079-.453.227-.13.178.048.484-.194.418-.1.21-.469.1-.631.323.178.194-.178.467-.355.224-.162.063-.081.243-.243.339.065.1.081.194-.032.257.032-.016.226.145.275.161a.206.206,0,0,1-.18.145c.079.21-.1.437-.243.566a3.729,3.729,0,0,1-.582.291c-.292.276-.487.681.033.793.016,0,.016.533.03.549.033.194.112.76-.227.549-.164-.079-.26-.533-.309-.711a.9.9,0,0,0-.194-.388c-.21.243-.243.065-.421-.049-.178-.1-.437-.063-.536-.161-.243.178-.421.131-.47-.145-.066.13.063.324.046.372-.082.161-.227.13-.355.033-.21-.161-.664.113-.907,0,.016,0,.08.066.128.1-.049.194-.161.082-.259.148s-.21.242-.306.323c.21.4-.016.793,0,1.228a1.445,1.445,0,0,0,.517,1.066,1.424,1.424,0,0,0,.776.048c.227-.1.194-.273.275-.467a.42.42,0,0,1,.421-.324c.7-.033.161.533.081.825-.049.21-.065.451-.1.645a.61.61,0,0,0,.243.016c0-.066.048-.146.048-.194.1.161.421.21.517.016.112.194.339.339.372.566s.242.468-.066.468c-.226,0,.033.452.066.533a.563.563,0,0,0,.791.291c0,.128-.048.484-.226.517s-.47-.306-.4-.484a.255.255,0,0,1-.115.145c-.163-.194-.437-.291-.582-.485-.033-.049-.47-.712-.372-.743a1.368,1.368,0,0,1-.891-.178c-.339-.178-.388-.648-.809-.582-.29.049-.372.161-.711.033a6.793,6.793,0,0,1-.647-.355c-.259-.145-.711-.292-.809-.615a4.658,4.658,0,0,0-.21-.808c-.1-.161-.388-.485-.6-.485.194,0-.178-.485-.227-.533-.178-.21-.824-.776-.694-1.1.032-.049-.324-.178-.388-.194a4.13,4.13,0,0,0,.161.484c.081.161.178.306.275.468a1.8,1.8,0,0,1,.388,1c-.21.064-.145-.243-.21-.372-.112-.21-.418-.21-.5-.437.033-.016.049-.016.082-.033.016-.274-.388-.5-.324-.694-.226-.178-.226-.518-.388-.743a2.078,2.078,0,0,0-.6-.454c-.079-.048-.661-.792-.452-.84-.324.079-.487-.681-.437-.875,0,0-.033,0-.033-.016.065-.194-.049-1.2.21-1.212-.178.016-.227-.419-.178-.5.032-.064.274.178.29.21a.279.279,0,0,0,.161-.29c-.048-.128-.226-.242-.339-.339-.049-.033-.695-.453-.711-.437a.229.229,0,0,0-.049-.307c-.308.242-.145-.227-.308-.276a.451.451,0,0,1-.194-.131,10.51,10.51,0,0,1,3.8-3.589,2.359,2.359,0,0,1,.355-.016c.291.033.453.276.663.421.033-.081-.033-.21-.08-.291.048-.131.242-.161.355-.194a.967.967,0,0,1,.485.016,3.958,3.958,0,0,0-.324-.4.415.415,0,0,0-.08.08c-.178-.146-.518.048-.679.112a3.931,3.931,0,0,1-.372.194.272.272,0,0,1-.194.016,9.84,9.84,0,0,1,1.52-.663c.1.066.194.178.34.291-.1-.081-.1.291-.066.355.178.243.566.081.809.081-.016,0,.712.1.566-.082.114.161.114.4.26.549.145-.145-.066-.308.033-.453.03-.064.323-.145.418-.194.114-.08-.08-.194-.128-.227-.161-.1-.793-.145-.485-.517.114-.129.518-.066.648.016.178.1.372.275.128.436.112.016.645.161.566.372.049-.1.128-.243.257-.243.145.016.178.355.242.435.227.4.615-.4.681-.372-.292-.112.258-.258.4-.21.113.049.291.437.082.421.178.161.194.517-.128.5-.227-.016-.487-.323-.7-.079-.145.161-.21.4-.355.549a.915.915,0,0,1-.809.178c.115.016-.241.388-.273.454a.9.9,0,0,0-.194.372,1.773,1.773,0,0,1-.082.5c.276-.08.421.421.307.437a1.828,1.828,0,0,1,.938.065c.227.08.566.178.661.421.065-.1.372-.049.469-.016.194.1.21.306.26.484.066.241.276.645.549.517.049-.033.4-.194.276-.292-.128-.114-.273-.4-.145-.566.131-.178.437-.227.519-.453.13-.372-.388-.323-.388-.6,0-.161.21-.21.194-.4,0-.161-.242-.484-.048-.6a2.062,2.062,0,0,1,1.082.161c.146.1.6.227.631.372h-.082c.13.112.243.355.016.421.146-.033.566.128.275.227.1-.049.178-.016.276-.079.113-.066.178-.178.323-.1.033.016.21-.339.308-.323.146.014.178.225.243.323.065.145.243.194.307.339.114.275.065.533.437.631.112.033.42-.145.4.1a.336.336,0,0,0,.1-.128c.016.227.113.487.388.454a1.5,1.5,0,0,1-.033.355c-.1.145-.339.113-.485.194-.049.016-.437.355-.388.4a.811.811,0,0,0-.825-.178,3.693,3.693,0,0,0-.842.194,1.053,1.053,0,0,0-.355.243c-.049.064-.131.355-.21.372.161-.033.241-.21.372-.308ZM44.212,50.317c-.016-.081-.032-.242-.032-.259-.016-.259.259-.437.242-.679-.178-.049-.226-.226-.194-.42a1.169,1.169,0,0,1,.469-.647.916.916,0,0,0,.194-.776c-.082-.388-.082-.792-.148-1.18.016.1.29.065.339.194a3.281,3.281,0,0,1,.178-.372c.063-.1.178-.13.273-.21.161-.1.5-.469.694-.242.161.194-.243.4-.033.582.063-.131,0-.325.128-.454.257-.292.435.033.694.112a1.35,1.35,0,0,1,.582.355c-.066-.066.257-.178.29-.194.306-.066.435.112.645.273.227.161.582.273.549.6a2.153,2.153,0,0,1,.388.128c.128.063.306.033.4.128A10.276,10.276,0,0,1,44.2,50.312Z" transform="translate(-21.8 -20.139)" fill="#fff" fill-rule="evenodd"/>
</svg>
