<svg xmlns="http://www.w3.org/2000/svg" width="41" height="41" viewBox="0 0 41 41">
  <g id="fb" transform="translate(0 -0.286)">
    <rect id="Rectangle_2177" data-name="Rectangle 2177" width="31.57" height="36.353" rx="8" transform="translate(4.783 4.933)" fill="#fff"/>
    <path id="Path_411" data-name="Path 411" d="M33.313.286H7.687A7.689,7.689,0,0,0,0,7.973V33.6a7.69,7.69,0,0,0,7.687,7.687h14.2V25.4h-5.34V19.211h5.338V14.647c0-5.286,3.257-8.168,7.981-8.168a42.661,42.661,0,0,1,4.751.24v5.526l-3.257.026c-2.59,0-3.07,1.2-3.07,2.99v3.951h6.113l-.8,6.194H28.294V41.286h5.018A7.69,7.69,0,0,0,41,33.6V7.973A7.689,7.689,0,0,0,33.313.286Z" fill="#3b579d" fill-rule="evenodd"/>
  </g>
</svg>
