<svg stroke="currentColor" fill="currentColor" width="336" height="192" viewBox="0 0 336 192" xmlns="http://www.w3.org/2000/svg">
<path d="M100.771 10.6067L102.302 10.585C102.913 10.5627 103.39 10.5793 103.732 10.6349L104.655 10.7374C105.133 10.788 105.558 10.9426 105.93 11.2012C105.784 12.1592 105.054 12.6621 103.74 12.71L94.7259 12.7662C93.7519 12.8017 92.587 12.8895 91.2312 13.0297C91.3665 15.497 91.5109 18.8373 91.6644 23.0505C94.2384 22.7299 96.3862 22.5383 98.1077 22.4755C101.437 22.3542 103.114 22.622 103.138 23.2789C103.169 24.117 102.663 24.5551 101.621 24.593C101.259 24.6062 100.861 24.5867 100.428 24.5344C98.6992 24.3933 97.2005 24.3458 95.932 24.392C94.6635 24.4382 93.2511 24.5804 91.6948 24.8186C91.6767 25.5678 91.6634 26.759 91.6549 28.3924C91.6455 30.0032 91.6281 31.0812 91.6026 31.6265C91.5997 32.1709 91.5911 32.5568 91.5767 32.7842C91.5623 33.0115 91.5382 33.2846 91.5045 33.6034C91.4934 33.9213 91.4576 34.1834 91.3971 34.3898C91.3592 34.5953 91.2991 34.813 91.2167 35.0428C91.094 35.4102 90.8547 35.6911 90.4989 35.8855C90.3873 35.9349 90.2862 35.9613 90.1956 35.9646C89.9011 35.9753 89.5694 35.8967 89.2004 35.7287C89.1913 35.4795 89.1653 34.766 89.1224 33.5881C89.0794 32.4102 89.0902 29.9035 89.1546 26.0679C89.2181 22.2097 89.214 19.2953 89.1422 17.3246C89.0704 15.3539 88.9669 13.7586 88.8317 12.5387C88.8119 11.9951 89.3529 11.5898 90.4545 11.3228C91.6686 11.0291 92.8307 10.862 93.9406 10.8215C95.0724 10.7576 95.9327 10.7149 96.5216 10.6935L100.771 10.6067ZM110.934 31.3304L111.106 33.2634C111.124 33.7617 110.99 34.1182 110.703 34.3328C110.438 34.5239 110.158 34.6248 109.863 34.6356C109.591 34.6455 109.307 34.6105 109.009 34.5306C108.415 31.9212 107.91 28.662 107.496 24.7532C107.104 20.8436 106.876 18.6291 106.812 18.1097C107.14 17.7802 107.485 17.6089 107.847 17.5957C108.233 17.5816 108.574 17.6146 108.872 17.6944C108.986 18.348 109.107 19.7953 109.234 22.0361C109.361 24.277 109.469 25.6793 109.557 26.2431C109.805 24.3288 110.307 22.5301 111.062 20.8468C111.481 19.9016 112.043 19.1439 112.748 18.5739C113.475 17.9803 114.258 17.6683 115.096 17.6378C115.957 17.6064 116.752 17.963 117.482 18.7076C118.234 19.4287 118.622 20.095 118.644 20.7066C118.652 20.9331 118.523 21.1193 118.256 21.2651C117.988 21.3883 117.685 21.456 117.345 21.4684C117.028 21.48 116.774 21.3645 116.584 21.1219C116.393 20.8793 116.259 20.6121 116.18 20.3201C116.101 20.0054 115.943 19.7276 115.708 19.4867C115.472 19.2458 115.162 19.1324 114.777 19.1464C113.757 19.1835 112.919 20.1327 112.261 21.9939C111.25 24.7752 110.808 27.8874 110.934 31.3304ZM121.772 20.1504C122.863 18.3414 124.495 17.3974 126.67 17.3181C128.844 17.2389 130.61 18.0592 131.965 19.779C133.343 21.4979 134.074 23.49 134.156 25.7551C134.238 27.9977 133.594 29.9264 132.223 31.5414C130.853 33.1563 129.07 34.0038 126.873 34.0839C124.675 34.1639 123.056 33.6105 122.015 32.4236C120.973 31.2141 120.411 29.4881 120.329 27.2456C120.223 24.3235 120.704 21.9585 121.772 20.1504ZM123.332 21.8967C123.07 22.7908 122.876 23.6825 122.749 24.5717C122.646 25.4601 122.608 26.2893 122.636 27.0595C122.663 27.807 122.745 28.4958 122.881 29.1259C123.017 29.7334 123.232 30.338 123.526 30.9396C123.819 31.5187 124.244 31.9795 124.801 32.3221C125.357 32.6421 126.009 32.7885 126.756 32.7612C128.274 32.7059 129.52 32.0368 130.494 30.7538C131.49 29.47 131.956 27.9447 131.892 26.1779C131.828 24.411 131.29 22.7182 130.278 21.0993C129.288 19.4569 128.114 18.6605 126.755 18.71C125.939 18.7397 125.236 19.0488 124.645 19.6374C124.054 20.226 123.617 20.9791 123.332 21.8967ZM151.717 32.226C151.325 32.6713 150.869 32.9034 150.348 32.9223C149.374 32.9578 148.63 32.4633 148.116 31.4386C147.603 30.414 147.273 29.1558 147.128 27.6641C147.006 26.1716 146.906 24.6782 146.829 23.184C146.752 21.6898 146.581 20.4259 146.316 19.3922C146.075 18.3576 145.659 17.8511 145.07 17.8725C144.277 17.9014 143.624 18.6397 143.11 20.0874C142.618 21.5342 142.291 23.1339 142.128 24.8863C141.671 29.7795 141.159 32.5313 140.591 33.1417C140.191 33.3605 139.844 33.4752 139.549 33.4859C139.255 33.4966 139.004 33.4717 138.798 33.4112C138.246 31.3446 137.81 27.7655 137.488 22.6738C137.35 20.1385 137.245 18.4979 137.173 17.752C137.637 17.4176 138.039 17.2441 138.378 17.2318C138.718 17.2194 138.991 17.2434 139.198 17.304C139.346 18.2739 139.476 20.2651 139.585 23.2778C139.718 26.2897 139.804 28.0217 139.843 28.4739C139.939 27.9941 140.047 27.219 140.166 26.1486C140.309 25.0773 140.436 24.1995 140.547 23.515C140.657 22.8078 140.843 21.9845 141.103 21.0451C141.364 20.1056 141.665 19.3575 142.008 18.8006C142.35 18.2211 142.831 17.7273 143.451 17.3191C144.07 16.8883 144.777 16.6584 145.569 16.6295C146.634 16.5907 147.422 17.0497 147.933 18.0064C148.466 18.9396 148.781 20.1189 148.878 21.5443C148.976 22.9697 149.051 24.4186 149.105 25.8909C149.181 27.3625 149.412 28.7036 149.796 29.9144C150.203 31.1244 150.843 31.895 151.717 32.226ZM153.462 18.8596C152.442 18.8968 151.742 18.6728 151.362 18.1876C151.349 17.8252 151.486 17.5367 151.773 17.3221C152.082 17.1067 152.418 16.9697 152.778 16.9112C153.138 16.8301 153.725 16.752 154.539 16.677C154.585 16.0629 154.59 15.2802 154.555 14.3288C154.543 13.354 154.535 12.5264 154.533 11.846C154.536 10.054 154.768 8.94551 155.228 8.52045C155.426 8.33181 155.638 8.23336 155.864 8.22511C156.113 8.21603 156.329 8.23084 156.512 8.26954C156.639 9.89798 156.709 10.8821 156.722 11.2219L156.704 16.3259C156.75 16.3469 156.875 16.3537 157.079 16.3463L159.521 16.1552C161.288 16.0908 162.181 16.3305 162.201 16.8741C162.229 17.6443 161.929 18.1088 161.299 18.2679C161.007 18.3465 160.657 18.3933 160.25 18.4082C159.865 18.4222 159.353 18.3955 158.716 18.328C158.1 18.237 157.656 18.1965 157.385 18.2064C157.113 18.2163 156.932 18.2342 156.842 18.2602C156.798 18.9195 156.788 19.5777 156.812 20.2346C156.835 20.8688 156.876 21.6725 156.934 22.6457C157.014 23.5954 157.146 24.736 157.331 26.0675C157.538 27.3982 157.909 28.5415 158.442 29.4973C158.975 30.4306 159.627 30.8831 160.397 30.8551C160.782 30.841 161.23 30.6773 161.74 30.3638C162.25 30.0277 162.64 29.8547 162.912 29.8448C163.206 29.8341 163.458 29.893 163.667 30.0215C163.898 30.1265 164.016 30.2582 164.022 30.4168C164.039 30.8925 163.569 31.3746 162.611 31.8631C161.676 32.3282 160.868 32.5731 160.188 32.5978C157.697 32.6886 156.059 30.3894 155.276 25.7001C155.045 24.3476 154.824 22.0194 154.613 18.7156C154.253 18.7968 153.869 18.8448 153.462 18.8596ZM176.346 32.5195C175.938 32.5343 175.609 29.11 175.359 22.2466C175.253 19.3472 175.178 17.5921 175.133 16.9813L174.454 17.0061C174.136 17.0176 173.887 17.0267 173.706 17.0333C173.524 17.0173 173.286 17.0146 172.991 17.0253C172.719 17.0126 172.491 16.9869 172.308 16.9481C172.148 16.9086 171.976 16.8582 171.792 16.7968C171.447 16.6733 171.269 16.4416 171.257 16.1019C171.241 15.6715 171.935 15.4307 173.34 15.3795C173.951 15.3573 174.507 15.3597 175.007 15.3868C175.013 14.933 175.003 14.355 174.978 13.6528C174.974 12.9271 174.977 12.3713 174.985 11.9854C174.993 11.5768 174.998 11.089 175 10.5219C175.025 9.95393 175.065 9.51016 175.121 9.19057C175.201 8.87014 175.301 8.51491 175.423 8.12488C175.544 7.7122 175.714 7.3998 175.933 7.18769C176.152 6.97557 176.405 6.76221 176.692 6.54762C177.199 6.14356 178.053 5.91966 179.254 5.87591C180.477 5.83135 181.383 6.10454 181.971 6.6955C182.582 7.26299 183.139 8.252 183.644 9.66255C183.319 10.0827 182.93 10.301 182.477 10.3175C182.319 10.3233 182.159 10.3064 181.999 10.2669C181.552 9.19443 181.151 8.47187 180.797 8.09917C180.466 7.72565 180.018 7.5492 179.451 7.56983C178.885 7.59047 178.458 7.70808 178.171 7.92267C177.907 8.13644 177.701 8.40478 177.554 8.72768C177.239 9.41961 177.129 11.068 177.224 13.673C177.228 13.7862 177.236 13.9901 177.246 14.2846C177.257 14.579 177.267 14.8509 177.276 15.1L180.154 14.723C181.287 14.6817 181.863 14.9216 181.882 15.4426C181.894 15.7823 181.63 16.0188 181.091 16.1518C180.551 16.2849 179.863 16.378 179.026 16.4312C178.211 16.4836 177.647 16.5722 177.334 16.697C177.312 17.3329 177.32 18.1718 177.358 19.2138C177.395 20.2331 177.511 21.862 177.706 24.1003C177.9 26.3161 178.019 28.0129 178.062 29.1908C178.105 30.3687 178.011 31.2113 177.78 31.7187C177.571 32.2253 177.093 32.4922 176.346 32.5195ZM194.223 21.8314L194.195 25.745C194.267 27.7157 194.542 29.0326 195.02 29.6956C195.308 30.1388 195.69 30.3517 196.166 30.3343C196.302 30.3294 196.493 30.2884 196.74 30.2114C197.21 30.0581 197.609 30.1116 197.936 30.3719C197.807 31.1705 197.028 31.5958 195.601 31.6478C194.627 31.6833 193.967 31.299 193.62 30.4951C193.349 29.8926 193.14 29.1404 192.993 28.2385C192.846 27.3139 192.733 26.6829 192.652 26.3456C191.282 29.2081 189.918 30.9703 188.558 31.6322C187.867 31.9749 187.058 32.1632 186.129 32.197C185.2 32.2309 184.459 31.8156 183.906 30.9511C183.375 30.0632 183.078 28.7585 183.015 27.037C182.952 25.3155 183.17 23.5043 183.668 21.6036C184.165 19.6802 184.933 18.0532 185.973 16.7224C187.013 15.369 188.178 14.6688 189.469 14.6217C191.327 14.5541 192.589 15.2792 193.257 16.7973C193.826 18.0921 194.148 19.7701 194.223 21.8314ZM185.859 21.0475C185.586 22.2822 185.391 23.4574 185.273 24.5731C185.154 25.6662 185.11 26.6431 185.141 27.5039C185.172 28.342 185.368 29.0606 185.73 29.6599C186.115 30.2582 186.591 30.5471 187.157 30.5265C188.38 30.4819 189.516 29.2838 190.564 26.932C191.613 24.5803 192.101 22.4078 192.028 20.4144C191.981 19.1233 191.602 18.071 190.892 17.2577C190.419 16.7306 189.809 16.4806 189.062 16.5078C188.337 16.5342 187.684 16.989 187.104 17.872C186.546 18.7316 186.131 19.7901 185.859 21.0475ZM210.058 18.2945C209.643 18.7406 209.221 18.9715 208.79 18.9871C208.36 19.0028 208.002 18.8344 207.717 18.4819C207.454 18.1059 207.235 17.7056 207.061 17.281C206.886 16.8337 206.577 16.4367 206.133 16.09C205.711 15.7197 205.183 15.5462 204.549 15.5693C203.669 15.6921 202.888 16.3556 202.206 17.5599C201.523 18.7416 201.038 20.0408 200.749 21.4576C200.46 22.8743 200.339 24.2057 200.384 25.4515C200.429 26.6747 200.807 27.7269 201.52 28.6082C202.254 29.4661 203.211 29.8735 204.388 29.8306C205.747 29.7811 206.817 29.2658 207.598 28.2847C207.923 27.8646 208.225 27.4453 208.505 27.0269C209.195 26.0491 209.835 25.5495 210.424 25.528C210.628 25.5206 210.924 25.5665 211.313 25.6657C211.344 26.5038 210.614 27.6418 209.124 29.0797C207.656 30.4941 206.027 31.2339 204.238 31.2991C202.448 31.3643 201.012 30.8496 199.929 29.7549C198.867 28.6368 198.304 27.1717 198.238 25.3596C198.153 23.0265 198.634 20.6727 199.681 18.2983C200.206 17.1451 200.943 16.1884 201.89 15.428C202.837 14.645 203.911 14.2317 205.111 14.1879C206.312 14.1442 207.289 14.5168 208.044 15.3059C208.82 16.0714 209.492 17.0677 210.058 18.2945ZM215.771 5.80422C215.767 6.32603 215.777 6.90406 215.8 7.53831C215.823 8.17256 215.881 8.82822 215.974 9.50529C215.67 9.87927 215.246 10.0762 214.702 10.096C214.023 10.1207 213.663 9.58947 213.624 8.50219C213.622 8.45689 213.616 8.287 213.605 7.99253C213.594 7.69806 213.585 7.43757 213.577 7.21105C213.59 6.96106 213.625 6.67626 213.682 6.35666C213.82 5.80724 214.162 5.52263 214.705 5.50283C215.249 5.48302 215.604 5.58348 215.771 5.80422ZM214.203 22.5324C214.041 18.0927 214.174 15.5248 214.603 14.8287C214.752 14.5738 214.94 14.4422 215.167 14.4339C215.393 14.4257 215.772 14.5367 216.302 14.7668C216.259 16.6964 216.278 18.7937 216.361 21.0589C216.361 21.0589 216.475 23.561 216.702 28.5654C216.728 29.2676 216.587 29.7717 216.281 30.0777C215.997 30.3603 215.718 30.5065 215.447 30.5164C215.197 30.5255 214.934 30.467 214.658 30.341C214.437 27.4004 214.286 24.7976 214.203 22.5324ZM235.002 29.1915C234.61 29.6367 234.153 29.8689 233.632 29.8878C232.658 29.9233 231.914 29.4288 231.401 28.4041C230.887 27.3795 230.558 26.1213 230.413 24.6296C230.29 23.137 230.191 21.6437 230.113 20.1495C230.036 18.6553 229.865 17.3914 229.601 16.3577C229.359 15.3231 228.944 14.8166 228.355 14.838C227.562 14.8669 226.908 15.6052 226.394 17.0529C225.903 18.4997 225.575 20.0994 225.412 21.8518C224.955 26.745 224.443 29.4968 223.876 30.1072C223.476 30.326 223.128 30.4407 222.834 30.4514C222.539 30.4621 222.289 30.4372 222.082 30.3767C221.531 28.3101 221.094 24.7309 220.773 19.6393C220.635 17.1039 220.53 15.4634 220.457 14.7175C220.921 14.383 221.323 14.2096 221.663 14.1972C222.003 14.1849 222.276 14.2089 222.482 14.2695C222.631 15.2394 222.76 17.2306 222.87 20.2433C223.002 23.2552 223.088 24.9872 223.127 25.4394C223.223 24.9596 223.331 24.1845 223.451 23.1141C223.593 22.0428 223.72 21.165 223.831 20.4805C223.942 19.7733 224.127 18.95 224.388 18.0106C224.648 17.0711 224.95 16.323 225.293 15.7661C225.634 15.1866 226.115 14.6928 226.736 14.2846C227.355 13.8538 228.061 13.6239 228.854 13.595C229.919 13.5562 230.706 14.0152 231.218 14.9719C231.751 15.9051 232.066 17.0844 232.163 18.5098C232.26 19.9352 232.336 21.3841 232.389 22.8564C232.466 24.328 232.696 25.6691 233.08 26.8799C233.487 28.0899 234.128 28.8604 235.002 29.1915ZM242.558 12.8575C244.619 12.7824 246.077 13.5686 246.931 15.2159C247.393 16.0836 247.775 16.9089 248.076 17.6918C248.376 18.4748 248.597 19.5554 248.738 20.9339C248.951 23.0355 249.106 25.4341 249.205 28.1297C249.302 30.8026 248.734 32.9553 247.501 34.588C246.291 36.2425 244.451 37.1147 241.982 37.2047C239.536 37.2938 237.468 36.5753 235.78 35.0491C236.216 34.5795 236.695 34.3353 237.216 34.3163C237.76 34.2965 238.504 34.4962 239.449 34.9154C240.418 35.3564 241.435 35.5575 242.499 35.5187C243.564 35.4799 244.438 35.1986 245.122 34.6747C245.807 34.1734 246.303 33.4749 246.611 32.5791C247.12 30.9955 247.333 29.0598 247.25 26.7719C247.237 26.4322 247.158 25.1762 247.01 23.0042C246.467 24.8839 245.651 26.456 244.563 27.7204C243.474 28.9622 242.216 29.6091 240.789 29.6611C239.362 29.7131 238.285 29.1172 237.56 27.8735C236.856 26.6063 236.474 25.1572 236.414 23.5263C236.355 21.8954 236.524 20.3015 236.921 18.7447C237.317 17.1652 238.004 15.802 238.983 14.6549C239.962 13.5078 241.154 12.9087 242.558 12.8575ZM239.145 18.1533C238.886 19.1607 238.706 20.1086 238.602 20.997C238.498 21.8854 238.463 22.7826 238.496 23.6886C238.528 24.5721 238.745 25.5508 239.147 26.6249C239.572 27.6981 240.147 28.2215 240.871 28.1951C242.298 28.1431 243.528 27.0323 244.561 24.8626C245.592 22.6703 246.068 20.4868 245.989 18.3122C245.962 17.5647 245.58 16.7394 244.844 15.8363C244.13 14.9097 243.252 14.4654 242.21 14.5033C241.485 14.5297 240.852 14.893 240.31 15.5932C239.791 16.2926 239.403 17.1459 239.145 18.1533ZM262.656 28.0819C262.79 29.9142 263.111 32.4995 263.619 35.8379C263.204 36.284 262.702 36.5178 262.113 36.5392C262 36.5434 261.875 36.5366 261.738 36.5189C261.683 35.6363 261.44 33.6378 261.009 30.5234C260.601 27.4082 260.367 25.0238 260.306 23.3703C260.245 21.6941 260.294 20.2406 260.454 19.01C260.613 17.7794 260.922 16.6227 261.382 15.5399C262.321 13.3056 264.161 12.1385 266.902 12.0386C268.601 11.9767 270.028 12.8547 271.183 14.6725C272.338 16.4903 272.96 18.6337 273.05 21.1028C273.121 23.0508 272.549 24.7841 271.335 26.3027C270.12 27.8213 268.391 28.6214 266.148 28.7031C264.767 28.7534 263.602 28.5464 262.656 28.0819ZM266.697 13.8833C264.772 13.9534 263.528 14.9967 262.967 17.0132C262.485 18.7319 262.299 21.0862 262.408 24.0762C262.447 25.1635 262.488 25.9672 262.529 26.4874C264.561 26.8443 265.939 27.0096 266.664 26.9832C267.978 26.9353 269.001 26.3764 269.733 25.3063C270.465 24.2136 270.803 22.9085 270.747 21.3908C270.666 19.1483 270.259 17.3259 269.527 15.9236C268.819 14.5205 267.875 13.8404 266.697 13.8833ZM276.664 21.5835L276.415 6.35045C276.372 5.17256 276.275 4.37091 276.124 3.94548C276.518 3.5682 277.134 3.36429 277.973 3.33375C278.401 5.74509 278.684 8.8535 278.823 12.659C278.864 13.7916 278.858 16.4229 278.804 20.5529C279.66 14.7832 281.458 11.8485 284.199 11.7486C285.173 11.7131 285.94 12.2069 286.498 13.2299C287.079 14.2294 287.464 15.4628 287.654 16.9303C287.844 18.3977 288.01 19.8659 288.155 21.3349C288.51 24.8603 289.209 26.6041 290.251 26.5661C290.273 26.5653 290.486 26.4895 290.889 26.3387C291.785 26.0339 292.292 25.9474 292.41 26.0791C292.419 26.3283 292.08 26.6582 291.392 27.0689C290.703 27.4569 290.064 27.6616 289.475 27.6831C288.478 27.7194 287.689 27.2378 287.109 26.2383C286.55 25.2153 286.175 23.9701 285.986 22.5027C285.819 21.0345 285.675 19.5767 285.554 18.1295C285.455 16.6588 285.263 15.4183 284.976 14.4081C284.689 13.3752 284.251 12.8695 283.662 12.8909C282.937 12.9173 282.298 13.7345 281.744 15.3424C281.212 16.9268 280.811 18.6766 280.541 20.5917C280.27 22.5068 279.915 24.2662 279.474 25.87C279.055 27.4503 278.597 28.2495 278.098 28.2677C277.306 28.2966 276.828 26.0685 276.664 21.5835ZM293.949 13.877C295.039 12.0681 296.672 11.124 298.847 11.0448C301.021 10.9656 302.786 11.7859 304.142 13.5056C305.52 15.2246 306.25 17.2167 306.333 19.4818C306.415 21.7243 305.77 23.6531 304.4 25.268C303.03 26.883 301.246 27.7305 299.049 27.8106C296.852 27.8906 295.233 27.3372 294.192 26.1503C293.15 24.9408 292.588 23.2148 292.506 20.9723C292.399 18.0502 292.88 15.6851 293.949 13.877ZM295.509 15.6234C295.247 16.5175 295.053 17.4092 294.926 18.2984C294.822 19.1867 294.785 20.016 294.813 20.7862C294.84 21.5337 294.922 22.2225 295.058 22.8526C295.194 23.4601 295.408 24.0646 295.703 24.6663C295.996 25.2454 296.421 25.7062 296.978 26.0488C297.534 26.3688 298.186 26.5151 298.933 26.4879C300.451 26.4326 301.696 25.7635 302.67 24.4805C303.667 23.1967 304.133 21.6714 304.069 19.9045C304.004 18.1377 303.466 16.4448 302.455 14.8259C301.465 13.1836 300.291 12.3871 298.931 12.4366C298.116 12.4664 297.413 12.7755 296.822 13.3641C296.231 13.9527 295.793 14.7057 295.509 15.6234ZM309.479 13.1751C308.46 13.2122 307.76 12.9882 307.379 12.5031C307.366 12.1407 307.503 11.8522 307.79 11.6376C308.1 11.4221 308.435 11.2852 308.796 11.2267C309.156 11.1455 309.743 11.0674 310.557 10.9924C310.602 10.3783 310.608 9.59562 310.573 8.64425C310.56 7.6694 310.553 6.84179 310.551 6.16142C310.553 4.36946 310.785 3.26095 311.246 2.83589C311.443 2.64725 311.655 2.5488 311.882 2.54055C312.131 2.53147 312.347 2.54628 312.53 2.58498C312.657 4.21343 312.727 5.19753 312.739 5.53731L312.721 10.6414C312.767 10.6624 312.892 10.6691 313.096 10.6617L315.539 10.4706C317.306 10.4063 318.199 10.6459 318.219 11.1895C318.247 11.9597 317.946 12.4243 317.317 12.5833C317.025 12.662 316.675 12.7088 316.267 12.7236C315.882 12.7376 315.371 12.7109 314.733 12.6434C314.118 12.5524 313.674 12.5119 313.402 12.5218C313.13 12.5317 312.949 12.5496 312.86 12.5756C312.816 13.235 312.806 13.8931 312.83 14.55C312.853 15.1842 312.893 15.988 312.951 16.9612C313.031 17.9109 313.164 19.0515 313.348 20.383C313.556 21.7136 313.926 22.8569 314.46 23.8128C314.993 24.746 315.644 25.1986 316.415 25.1705C316.8 25.1565 317.247 24.9927 317.758 24.6793C318.267 24.3432 318.658 24.1702 318.93 24.1603C319.224 24.1495 319.476 24.2084 319.684 24.3369C319.915 24.4419 320.033 24.5737 320.039 24.7322C320.056 25.2079 319.586 25.69 318.629 26.1786C317.693 26.6436 316.886 26.8885 316.206 26.9133C313.714 27.004 312.077 24.7048 311.294 20.0156C311.063 18.6631 310.842 16.3349 310.631 13.0311C310.271 13.1122 309.887 13.1602 309.479 13.1751ZM322.783 12.8264C323.874 11.0175 325.507 10.0734 327.681 9.99422C329.856 9.91499 331.621 10.7353 332.976 12.455C334.354 14.174 335.085 16.1661 335.167 18.4312C335.249 20.6737 334.605 22.6025 333.235 24.2174C331.865 25.8324 330.081 26.6799 327.884 26.76C325.686 26.84 324.067 26.2866 323.026 25.0997C321.984 23.8902 321.422 22.1642 321.34 19.9217C321.234 16.9996 321.715 14.6345 322.783 12.8264ZM324.344 14.5728C324.081 15.4669 323.887 16.3586 323.761 17.2478C323.657 18.1361 323.619 18.9654 323.647 19.7356C323.674 20.4831 323.756 21.1719 323.892 21.802C324.028 22.4095 324.243 23.014 324.537 23.6157C324.83 24.1948 325.255 24.6556 325.812 24.9982C326.368 25.3182 327.02 25.4645 327.767 25.4373C329.285 25.382 330.531 24.7129 331.505 23.4299C332.501 22.1461 332.967 20.6208 332.903 18.854C332.839 17.0871 332.301 15.3943 331.289 13.7754C330.299 12.133 329.125 11.3365 327.766 11.3861C326.95 11.4158 326.247 11.7249 325.656 12.3135C325.065 12.9021 324.628 13.6552 324.344 14.5728Z" fill="#191919"/>
<path d="M49.8179 190.348C52.5469 187.253 55.2759 184.158 58.5036 180.474C56.8155 180.063 55.6772 179.728 54.4075 179.614C27.9945 176.297 8.69333 157.747 2.33205 129.666C-1.65258 111.598 0.893689 94.5437 6.76497 77.6458C13.3732 58.7557 25.4835 44.865 40.8217 34.0474C48.7267 28.4916 57.6728 26.188 67.0349 25.4364C69.4964 25.295 71.8923 25.2642 74.7187 26.01C73.4345 26.6714 72.1234 27.6281 70.7881 27.6247C38.1216 28.8337 8.68624 65.6492 6.03108 105.414C4.95393 120.994 8.30363 135.626 16.5131 148.83C26.1845 164.328 45.162 174.162 61.8187 172.137C58.2941 166.81 51.1769 164.281 50.7608 155.971C57.3234 160.936 63.3241 165.346 69.1546 169.792C71.0762 171.311 71.9884 173.529 70.2833 175.149C64.5382 180.822 58.6496 186.235 52.7221 191.463C52.3549 191.832 51.2822 191.386 50.5622 191.347C50.2873 191.31 50.0003 190.792 49.8179 190.348Z" fill="#191919"/>
</svg>
