<svg width="80" height="80" viewBox="0 0 80 80" fill="none" xmlns="http://www.w3.org/2000/svg">
<path d="M56.666 73.334H23.3327C13.3327 73.334 6.66602 68.334 6.66602 56.6673V40.0007C6.66602 28.334 13.3327 23.334 23.3327 23.334H56.666C66.666 23.334 73.3327 28.334 73.3327 40.0007V56.6673C73.3327 68.334 66.666 73.334 56.666 73.334Z" stroke="#191919" stroke-width="3" stroke-miterlimit="10" stroke-linecap="round" stroke-linejoin="round"/>
<path d="M20 15H60" stroke="#191919" stroke-width="3" stroke-miterlimit="10" stroke-linecap="round" stroke-linejoin="round"/>
<path d="M30 6.66602H50" stroke="#191919" stroke-width="3" stroke-miterlimit="10" stroke-linecap="round" stroke-linejoin="round"/>
<path d="M53.5869 55.6457L49.2039 46.4295C47.7196 43.3028 44.9889 43.1767 43.1545 46.1521L40.5079 50.4513C39.1636 52.6325 36.657 52.8216 34.9206 50.8674L34.6126 50.5144C32.8062 48.4719 30.2576 48.7241 28.9553 51.0565L26.5467 55.4062C24.8523 58.432 27.3029 62 31.0558 62H48.9238C52.5647 62 55.0152 58.659 53.5869 55.6457Z" stroke="#0070F4" stroke-width="3" stroke-linecap="round" stroke-linejoin="round"/>
<path d="M33 44C35.7614 44 38 41.7614 38 39C38 36.2386 35.7614 34 33 34C30.2386 34 28 36.2386 28 39C28 41.7614 30.2386 44 33 44Z" stroke="#0070F4" stroke-width="3" stroke-linecap="round" stroke-linejoin="round"/>
</svg>
