<svg xmlns="http://www.w3.org/2000/svg" width="32.091" height="24.068" viewBox="0 0 32.091 24.068">
  <g id="_16983312581574338606" data-name="16983312581574338606" transform="translate(0 -64)">
    <rect id="Rectangle_2165" data-name="Rectangle 2165" width="24" height="24" transform="translate(4.045 64.034)" fill="#eceff1"/>
    <path id="Path_407" data-name="Path 407" d="M256,157.93l12.034,9.5V148.672Z" transform="translate(-239.954 -79.365)" fill="#cfd8dc"/>
    <path id="Path_408" data-name="Path 408" d="M29.083,64h-1L16.046,73.5,4.011,64h-1A3.01,3.01,0,0,0,0,67.009V85.06a3.01,3.01,0,0,0,3.009,3.009h1V69.307l12.034,9.256L28.08,69.305V88.068h1a3.01,3.01,0,0,0,3.009-3.009V67.009A3.01,3.01,0,0,0,29.083,64Z" fill="#f44336"/>
  </g>
</svg>
