<svg width="449" height="76" viewBox="0 0 449 76" fill="none" xmlns="http://www.w3.org/2000/svg">
<path fill-rule="evenodd" clip-rule="evenodd" d="M205.315 61.0378C193.245 62.1372 181.323 63.3402 169.701 64.5834C153.248 66.3427 136.803 68.1333 120.486 70.4729C115.35 71.2109 110.125 71.7788 105.027 72.6338C101.827 73.1699 97.5855 73.9177 97.0309 74.0571C96.7412 74.1354 96.6182 74.2369 96.5785 74.2707C96.2994 74.5071 96.3633 74.718 96.5357 74.8759C96.6051 74.9438 96.7805 75.1095 97.2437 75.1096C128.23 75.1566 159.668 70.3797 190.592 68.4699C244.219 65.1645 299.617 64.6096 353.099 66.8345C353.566 66.8504 354.008 66.6295 354.057 66.3333C354.12 66.0445 353.77 65.7845 353.304 65.7687C299.731 63.5404 244.242 64.092 190.512 67.4106C161.692 69.1893 132.429 73.4665 103.506 73.9889C104.165 73.876 104.812 73.7636 105.402 73.6621C110.479 72.8081 115.683 72.2493 120.798 71.5123C137.08 69.1745 153.492 67.3856 169.923 65.6354C190.31 63.4533 211.596 61.3841 233.077 59.8288C240.773 59.5078 248.444 59.1882 256.115 58.8843C272.711 58.2287 289.403 57.9332 305.988 57.8335C310.982 57.809 315.976 57.7924 320.969 57.7442C322.625 57.7312 326.895 57.7198 327.488 57.6737C328.223 57.6203 328.345 57.2332 328.355 57.1693C328.386 57.0248 328.351 56.8283 327.981 56.6805C327.941 56.6587 327.704 56.5914 327.186 56.5702C296.955 55.3024 264.805 56.4734 233.048 58.7669C199.5 60.1837 165.831 61.7732 132.375 63.3439C131.896 63.3684 131.518 63.6258 131.529 63.9188C131.541 64.2118 131.939 64.4296 132.418 64.4131C156.643 63.2733 180.99 62.1272 205.315 61.0378Z" fill="black"/>
<path d="M1.90337 22.8645C2.60852 22.3591 3.23706 22.1971 3.78899 22.3786C4.06448 22.458 4.17665 22.7029 4.12549 23.1134C3.63062 27.6255 3.41814 30.7309 3.48804 32.4295C3.55702 34.1054 3.70773 35.5624 3.94018 36.8006C4.19434 38.0151 4.57586 39.2925 5.08473 40.6327C5.61532 41.9494 6.39611 43.0062 7.42708 43.8031C8.45713 44.5774 9.68555 44.9352 11.1123 44.8765C13.1053 44.7944 14.7993 43.511 16.1943 41.0262C17.611 38.5178 18.249 35.5538 18.1083 32.134C17.9666 28.6916 17.0242 25.3615 15.2811 22.1438C15.7399 21.7166 16.1505 21.4955 16.5128 21.4806C16.8978 21.4648 17.1936 21.4866 17.4003 21.5462C19.3193 24.0761 20.3645 27.4246 20.536 31.5917C20.6768 35.0115 19.9282 38.3204 18.2903 41.5185C17.4903 43.026 16.4078 44.2842 15.0428 45.2932C13.6769 46.2795 12.2239 46.8044 10.6839 46.8678C9.16648 46.9302 7.86253 46.6663 6.772 46.076C5.70318 45.4621 4.84299 44.6808 4.19143 43.7321C3.56158 42.7598 3.02712 41.6249 2.58805 40.3272C1.83807 38.0894 1.40761 35.6231 1.29669 32.928C1.13264 28.942 1.33487 25.5876 1.90337 22.8645ZM32.5362 31.5402C32.311 31.0277 31.9092 30.6359 31.3309 30.3648C30.7526 30.0936 30.0444 29.9753 29.2065 30.0098C28.3685 30.0443 27.5861 30.3261 26.8592 30.8551C26.155 31.3831 25.8202 32.0661 25.8547 32.9041C25.8891 33.7421 26.2564 34.3962 26.9563 34.8665C27.6779 35.3132 28.5308 35.641 29.5149 35.8501C30.5216 36.0582 31.5293 36.2889 32.5379 36.5424C33.5456 36.7731 34.4027 37.2029 35.1091 37.8317C35.8373 38.4369 36.2228 39.2605 36.2657 40.3022C36.3281 41.8196 35.7415 43.0007 34.5059 43.8456C33.2929 44.6895 31.8032 45.1478 30.0367 45.2206C28.9949 45.2634 27.6131 45.0367 25.8912 44.5404C24.192 44.0432 23.3261 43.3983 23.2934 42.6056C23.2692 42.0168 23.7553 41.7019 24.7518 41.6609C25.0462 41.6487 25.4387 41.8141 25.9292 42.1569C27.4225 43.1616 28.9278 43.6328 30.4452 43.5704C31.2605 43.5368 31.9569 43.372 32.5346 43.076C33.6002 42.5104 34.1093 41.6501 34.0618 40.495C34.0329 39.793 33.6585 39.2412 32.9387 38.8398C32.2416 38.4375 31.3897 38.1322 30.3829 37.9241C29.3988 37.7151 28.4025 37.4839 27.3939 37.2305C26.3853 36.9771 25.5159 36.5251 24.7859 35.8746C24.0776 35.2005 23.7015 34.3312 23.6577 33.2668C23.6009 31.8853 24.1775 30.7386 25.3877 29.8267C26.5979 28.9148 28.1202 28.4211 29.9547 28.3456C31.2003 28.2944 32.3348 28.5766 33.3584 29.1924C34.4036 29.7846 34.9514 30.6922 35.0017 31.9151C35.0353 32.7304 34.5878 33.1572 33.6592 33.1954C33.2742 33.2113 33.011 33.154 32.8695 33.0237C32.7507 32.8925 32.6729 32.6575 32.6363 32.3187C32.6214 31.9564 32.588 31.6969 32.5362 31.5402ZM40.8135 37.9032C40.7868 38.358 40.7768 38.6647 40.7833 38.8232C40.8392 40.1821 41.2902 41.2184 42.1363 41.9322C43.005 42.6451 44.0055 42.9782 45.1379 42.9316C46.2703 42.885 47.181 42.6887 47.87 42.3428C48.5817 41.9959 49.0886 41.6347 49.3907 41.2593C50.1641 40.2066 50.8905 39.6663 51.5699 39.6383C51.819 39.6281 52.1163 39.6839 52.4616 39.8058C52.2808 40.9249 51.4621 41.9794 50.0056 42.9695C48.5708 43.936 46.7323 44.4654 44.4902 44.5576C42.9049 44.6229 41.5142 44.181 40.3182 43.2321C39.1439 42.2595 38.5208 40.9013 38.4491 39.1575C38.3773 37.4136 38.6476 35.7124 39.2599 34.0538C39.8939 32.3717 40.8326 30.9265 42.076 29.7184C43.3411 28.4866 44.6417 27.8433 45.9779 27.7883C47.3367 27.7323 48.4355 27.9707 49.2741 28.5033C50.1344 29.0124 50.5865 29.7991 50.6303 30.8636C50.7114 32.8339 49.8952 34.5009 48.1819 35.8645C46.4902 37.2045 44.6592 37.9151 42.6889 37.9962C42.168 38.0176 41.5429 37.9866 40.8135 37.9032ZM43.3491 36.6759C44.4136 36.6321 45.3508 36.2532 46.1608 35.5393C46.9708 34.8254 47.5303 34.0878 47.8392 33.3264C48.1708 32.5641 48.324 31.8772 48.2989 31.2658C48.2737 30.6543 48.014 30.1319 47.5198 29.6985C47.0246 29.2425 46.4599 29.0275 45.8258 29.0536C44.6934 29.1002 43.6725 29.9249 42.7629 31.5276C41.8761 33.1295 41.2633 34.7767 40.9246 36.4694C41.9295 36.6322 42.7377 36.7011 43.3491 36.6759ZM68.3308 26.6641C70.3917 26.5793 71.853 27.3585 72.7147 29.0018C73.1813 29.8674 73.5668 30.6909 73.8712 31.4724C74.1756 32.2538 74.4015 33.3335 74.549 34.7112C74.7716 36.8118 74.9383 39.2097 75.0492 41.9047C75.1592 44.5771 74.6014 46.7326 73.3757 48.371C72.1736 50.0312 70.3383 50.9121 67.8697 51.0137C65.4238 51.1143 63.3529 50.4056 61.657 48.8874C62.0913 48.4158 62.5689 48.1692 63.0898 48.1478C63.6334 48.1254 64.3787 48.3216 65.3259 48.7364C66.2967 49.1728 67.3143 49.3691 68.3787 49.3253C69.4432 49.2815 70.3162 48.996 70.9977 48.4689C71.6802 47.9644 72.1732 47.2635 72.4765 46.3663C72.9784 44.7803 73.1823 42.8436 73.0881 40.5562C73.0741 40.2165 72.9884 38.961 72.831 36.7896C72.296 38.6719 71.4874 40.2478 70.4054 41.5174C69.3224 42.7643 68.0675 43.4171 66.6407 43.4758C65.2139 43.5346 64.1347 42.9438 63.4031 41.7035C62.6932 40.4396 62.3047 38.9924 62.2376 37.3617C62.1705 35.7311 62.3317 34.1365 62.7212 32.5778C63.1099 30.9965 63.7909 29.63 64.7644 28.4783C65.7379 27.3266 66.9267 26.7219 68.3308 26.6641ZM64.9424 31.976C64.689 32.9846 64.5125 33.9333 64.413 34.8221C64.3134 35.711 64.2823 36.6083 64.3196 37.5142C64.356 38.3975 64.5777 39.3752 64.9848 40.4474C65.4145 41.5186 65.9918 42.0393 66.7165 42.0095C68.1433 41.9508 69.3677 40.8341 70.3898 38.6596C71.411 36.4624 71.8769 34.2767 71.7874 32.1026C71.7566 31.3552 71.3711 30.5317 70.6308 29.632C69.9122 28.7088 69.0321 28.2686 67.9903 28.3115C67.2655 28.3413 66.6341 28.7076 66.0959 29.4103C65.5803 30.1121 65.1958 30.9673 64.9424 31.976ZM79.4842 29.0975C80.5665 27.2835 82.1948 26.3317 84.3689 26.2422C86.5431 26.1528 88.312 26.9647 89.6756 28.6781C91.0618 30.3905 91.8016 32.3791 91.8948 34.6439C91.9871 36.886 91.352 38.8177 89.9895 40.4391C88.627 42.0605 86.8474 42.9164 84.6506 43.0068C82.4537 43.0973 80.8319 42.5515 79.7851 41.3695C78.7374 40.1649 78.1673 38.4416 78.0751 36.1995C77.9548 33.278 78.4245 30.9106 79.4842 29.0975ZM81.053 30.8365C80.795 31.7319 80.6049 32.6244 80.4827 33.5142C80.3831 34.403 80.3492 35.2325 80.3809 36.0025C80.4117 36.7499 80.4967 37.4383 80.6361 38.0677C80.7745 38.6746 80.9921 39.2781 81.2891 39.8784C81.5851 40.4561 82.0123 40.9149 82.5708 41.2549C83.1283 41.5722 83.7807 41.7155 84.5281 41.6848C86.0455 41.6223 87.2881 40.9473 88.256 39.6597C89.2465 38.3713 89.7054 36.8438 89.6327 35.0773C89.56 33.3108 89.014 31.6204 87.9948 30.0063C86.9973 28.3686 85.8191 27.5777 84.4602 27.6337C83.6449 27.6672 82.9432 27.9797 82.355 28.571C81.7668 29.1624 81.3328 29.9175 81.053 30.8365ZM96.1381 28.4121C97.2204 26.5981 98.8486 25.6463 101.023 25.5568C103.197 25.4673 104.966 26.2793 106.329 27.9927C107.716 29.7051 108.455 31.6937 108.549 33.9584C108.641 36.2005 108.006 38.1323 106.643 39.7537C105.281 41.3751 103.501 42.231 101.304 42.3214C99.1076 42.4118 97.4858 41.8661 96.439 40.6841C95.3912 39.4795 94.8212 37.7562 94.7289 35.5141C94.6087 32.5925 95.0784 30.2252 96.1381 28.4121ZM97.7069 30.1511C97.4488 31.0464 97.2587 31.939 97.1365 32.8288C97.037 33.7176 97.0031 34.5471 97.0348 35.3171C97.0655 36.0644 97.1506 36.7529 97.2899 37.3823C97.4283 37.9891 97.646 38.5927 97.9429 39.193C98.2389 39.7707 98.6662 40.2295 99.2246 40.5695C99.7821 40.8868 100.435 41.0301 101.182 40.9993C102.699 40.9369 103.942 40.2619 104.91 38.9743C105.9 37.6858 106.359 36.1583 106.287 34.3918C106.214 32.6253 105.668 30.935 104.649 29.3209C103.651 27.6832 102.473 26.8923 101.114 26.9482C100.299 26.9818 99.597 27.2943 99.0089 27.8856C98.4207 28.477 97.9867 29.2321 97.7069 30.1511ZM123.87 14.1356C123.33 21.9618 123.129 27.5394 123.266 30.8686C123.402 34.1752 123.844 37.4691 124.591 40.7505C124.157 41.2221 123.77 41.4649 123.43 41.4788C123.091 41.4928 122.806 41.4592 122.576 41.3779C122.031 39.7216 121.673 37.9101 121.501 35.9435C120.993 36.8265 120.611 37.4547 120.354 37.8283C120.12 38.2009 119.7 38.7513 119.095 39.4794C117.995 40.8858 116.653 41.6217 115.068 41.6869C113.868 41.7363 112.973 41.2173 112.384 40.13C111.816 39.019 111.497 37.5916 111.425 35.8478C111.352 34.0813 111.476 32.3974 111.795 30.7963C112.137 29.1715 112.771 27.7616 113.697 26.5665C114.622 25.3487 115.798 24.7105 117.225 24.6518C118.086 24.6164 118.886 24.7649 119.626 25.0974C120.365 25.43 120.884 25.8964 121.18 26.4967C121.201 25.8833 121.207 24.9416 121.2 23.6715C121.193 22.4014 121.193 21.2784 121.198 20.3027C121.225 19.3034 121.285 18.2914 121.379 17.2667C121.539 15.0823 122.049 13.9724 122.909 13.937C123.204 13.9248 123.524 13.9911 123.87 14.1356ZM120.449 27.7518C120.157 27.2648 119.769 26.9178 119.284 26.7109C118.798 26.4813 118.159 26.3829 117.366 26.4155C116.596 26.4472 115.889 26.9186 115.246 27.8298C113.982 29.6287 113.418 32.1814 113.554 35.4879C113.598 36.5524 113.811 37.6098 114.195 38.6602C114.577 39.688 115.097 40.1884 115.754 40.1614C116.705 40.1223 117.608 39.4612 118.463 38.1783C119.317 36.8954 119.961 35.4398 120.393 33.8113C120.824 32.1601 121.013 30.6891 120.96 29.3982C120.934 28.7867 120.764 28.2379 120.449 27.7518ZM144.861 25.386C145.759 26.2564 146.361 27.3886 146.668 28.7825C146.998 30.1755 147.199 31.4716 147.271 32.671C147.365 33.8695 147.431 34.9217 147.469 35.8276C147.505 36.7108 147.503 37.7545 147.461 38.9585C147.419 40.1399 147.435 41.6252 147.509 43.4143C147.582 45.2035 147.821 46.6002 148.226 47.6044C147.929 48.1157 147.475 48.3839 146.864 48.4091C146.66 48.4175 146.465 48.3801 146.28 48.297C146.064 46.8993 145.915 45.204 145.833 43.2111L145.719 38.792C145.639 36.8443 145.502 35.1712 145.308 33.7727C144.279 36.8776 143.033 38.8345 141.569 39.6434C140.904 40.0337 140.141 40.2466 139.281 40.282C137.831 40.3417 136.803 39.8849 136.196 38.9117C135.589 37.9385 135.253 36.6819 135.19 35.1419C135.127 33.6019 135.184 32.2497 135.363 31.0853C135.564 29.8974 135.893 28.7836 136.349 27.744C136.804 26.6817 137.461 25.8266 138.319 25.1788C139.177 24.531 140.263 24.18 141.576 24.126C142.89 24.0719 143.985 24.4919 144.861 25.386ZM144.185 27.966C144.164 27.4677 143.837 26.9707 143.204 26.475C142.593 25.9557 141.891 25.7124 141.099 25.745C140.306 25.7776 139.639 26.1113 139.098 26.7461C138.557 27.3809 138.159 28.1799 137.904 29.1432C137.413 31.001 137.196 32.6093 137.252 33.9681C137.376 37.0029 138.028 38.496 139.205 38.4476C140.202 38.4066 141.058 37.9857 141.774 37.1849C142.489 36.3841 143.005 35.3988 143.319 34.2288C143.974 31.9333 144.262 29.8457 144.185 27.966ZM153.792 24.2017C153.249 25.3356 153.023 27.001 153.113 29.1978C153.249 32.5044 153.981 35.1172 155.307 37.0362C156.08 38.1614 156.964 38.7035 157.96 38.6625C158.98 38.6206 159.773 38.0548 160.341 36.9652C161.011 35.6218 161.299 33.7951 161.204 31.4851C161.085 28.5862 160.589 26.4628 159.717 25.1148C159.327 24.473 159.093 24.0062 159.013 23.7146C158.955 23.422 159.026 23.2036 159.224 23.0594C159.422 22.9151 159.759 22.8332 160.235 22.8136C161.616 22.7567 162.581 24.1462 163.128 26.9821C163.297 27.7692 163.397 28.559 163.43 29.3517C163.515 31.4126 163.192 33.4903 162.462 35.5848C161.423 38.4633 159.658 39.9538 157.167 40.0563C155.853 40.1104 154.712 39.6696 153.744 38.734C151.923 36.9486 150.936 34.1876 150.783 30.4507C150.716 28.8201 150.777 27.5698 150.969 26.6999C151.16 25.83 151.329 25.2672 151.478 25.0116C151.625 24.7333 151.807 24.4762 152.024 24.2404C152.241 24.0046 152.487 23.9038 152.76 23.9379C153.057 23.9711 153.401 24.059 153.792 24.2017ZM177.554 29.3829L177.545 33.2966C177.626 35.267 177.907 36.5825 178.388 37.2433C178.678 37.6851 179.061 37.8962 179.537 37.8766C179.672 37.871 179.864 37.8291 180.11 37.7509C180.58 37.5954 180.979 37.6471 181.307 37.9058C181.181 38.705 180.405 39.1339 178.978 39.1927C178.004 39.2327 177.342 38.8517 176.992 38.0494C176.717 37.4482 176.505 36.6969 176.354 35.7957C176.203 34.8718 176.086 34.2414 176.004 33.9045C174.648 36.7734 173.291 38.542 171.935 39.2103C171.246 39.5563 170.437 39.7484 169.509 39.7866C168.58 39.8248 167.837 39.413 167.28 38.5512C166.744 37.6658 166.441 36.3625 166.37 34.6413C166.3 32.9201 166.509 31.1079 166.997 29.2049C167.485 27.2792 168.246 25.6485 169.28 24.3129C170.313 22.9546 171.475 22.2489 172.766 22.1957C174.623 22.1193 175.889 22.8385 176.564 24.3534C177.139 25.6455 177.469 27.322 177.554 29.3829ZM169.186 28.6384C168.919 29.8744 168.729 31.0506 168.617 32.1668C168.503 33.2604 168.464 34.2375 168.499 35.0981C168.533 35.9361 168.733 36.6538 169.098 37.2513C169.486 37.8479 169.962 38.1345 170.529 38.1112C171.752 38.0609 172.882 36.8574 173.919 34.5007C174.956 32.1441 175.434 29.9693 175.352 27.9763C175.299 26.6854 174.915 25.6349 174.201 24.8249C173.726 24.3 173.115 24.053 172.367 24.0837C171.643 24.1136 170.992 24.5714 170.416 25.4571C169.862 26.3193 169.452 27.3798 169.186 28.6384ZM182.767 18.6195C182.675 16.3774 182.307 14.8839 181.664 14.139C181.94 13.6966 182.441 13.4605 183.166 13.4307C183.302 13.4251 183.449 13.4303 183.609 13.4465C184.198 13.9893 184.549 15.6196 184.661 18.3373C184.721 19.8094 184.724 21.5221 184.668 23.4754C184.536 26.8837 184.503 29.3805 184.568 30.9658C184.744 35.2462 185.659 37.3524 187.312 37.2843C187.312 37.2843 187.728 37.1878 188.559 36.9948C188.763 36.9864 188.937 37.07 189.08 37.2456C189.046 38.0637 188.394 38.4989 187.126 38.5511C185.881 38.6023 184.903 38.2683 184.192 37.5489C183.481 36.8068 183.012 35.8733 182.784 34.7484C182.578 33.5999 182.46 32.652 182.429 31.9046C182.398 31.1572 182.376 30.3415 182.362 29.4573C182.348 28.5504 182.396 27.2553 182.509 25.572C182.731 22.1599 182.817 19.8424 182.767 18.6195ZM191.96 13.5451C191.958 14.067 191.971 14.6449 191.997 15.2791C192.023 15.9132 192.084 16.5686 192.18 17.2452C191.878 17.6206 191.455 17.8195 190.911 17.8419C190.232 17.8699 189.87 17.3403 189.825 16.2532C189.823 16.2079 189.816 16.0381 189.804 15.7436C189.792 15.4492 189.781 15.1888 189.772 14.9623C189.784 14.7123 189.818 14.4273 189.873 14.1074C190.009 13.5574 190.349 13.2711 190.892 13.2488C191.436 13.2264 191.792 13.3252 191.96 13.5451ZM190.47 30.2805C190.288 25.8416 190.409 23.2731 190.834 22.5751C190.982 22.3194 191.17 22.1869 191.396 22.1776C191.623 22.1683 192.001 22.2775 192.532 22.5052C192.498 24.4349 192.528 26.5321 192.621 28.7968C192.621 28.7968 192.747 31.2985 192.998 36.3017C193.027 37.0038 192.889 37.5085 192.584 37.816C192.301 38.0999 192.023 38.2474 191.752 38.2586C191.502 38.2689 191.239 38.2116 190.962 38.0869C190.727 35.1474 190.564 32.5453 190.47 30.2805ZM196.826 24.132C195.806 24.1739 195.105 23.9533 194.723 23.4699C194.708 23.1076 194.843 22.8184 195.129 22.6025C195.438 22.3856 195.773 22.247 196.133 22.1868C196.493 22.104 197.079 22.0231 197.893 21.9443C197.935 21.33 197.937 20.5473 197.898 19.5961C197.881 18.6213 197.869 17.7937 197.864 17.1134C197.858 15.3214 198.085 14.2118 198.544 13.7846C198.74 13.595 198.951 13.4956 199.178 13.4863C199.427 13.476 199.643 13.4898 199.826 13.5276C199.961 15.1555 200.036 16.1392 200.05 16.4789L200.056 21.583C200.102 21.6038 200.227 21.61 200.431 21.6016L202.872 21.399C204.639 21.3263 205.533 21.5617 205.556 22.1053C205.587 22.8753 205.289 23.3413 204.66 23.5033C204.369 23.5833 204.019 23.6318 203.611 23.6485C203.226 23.6644 202.715 23.6401 202.077 23.5756C201.461 23.4875 201.017 23.4491 200.745 23.4602C200.474 23.4714 200.293 23.4902 200.203 23.5166C200.162 24.1762 200.155 24.8343 200.182 25.4911C200.208 26.1252 200.253 26.9288 200.316 27.9017C200.4 28.851 200.538 29.991 200.729 31.3216C200.942 32.6513 201.318 33.7928 201.856 34.7461C202.394 35.6768 203.047 36.1263 203.817 36.0946C204.202 36.0788 204.649 35.9129 205.158 35.597C205.666 35.2585 206.056 35.0837 206.328 35.0725C206.622 35.0604 206.874 35.1181 207.083 35.2456C207.314 35.3495 207.433 35.4807 207.44 35.6393C207.459 36.1149 206.992 36.5992 206.036 37.0922C205.103 37.5616 204.296 37.8104 203.617 37.8383C201.126 37.9409 199.477 35.6494 198.672 30.9638C198.435 29.6125 198.203 27.2854 197.976 23.9825C197.617 24.0654 197.233 24.1152 196.826 24.132ZM217.085 23.2642C217.018 21.6336 217.505 20.7968 218.547 20.7539C218.75 20.7455 218.955 20.7598 219.161 20.7967C219.172 21.0685 219.202 21.8045 219.252 23.0048C219.301 24.2052 219.559 26.5993 220.024 30.1872C220.489 33.7751 220.759 36.4636 220.832 38.2527C220.95 41.1063 220.532 43.0972 219.581 44.2253C218.629 45.3534 216.953 45.9668 214.552 46.0656C212.174 46.1635 209.9 45.4857 207.731 44.0324C208.118 43.5174 208.64 43.2463 209.297 43.2193C209.547 43.2317 209.95 43.3853 210.507 43.6799C212.154 44.565 213.509 44.9856 214.574 44.9418C216.159 44.8765 217.26 44.3321 217.876 43.3086C218.491 42.2851 218.751 40.5957 218.654 38.2403C218.631 37.6741 218.49 35.6382 218.232 32.1325C218.212 32.2014 218.145 32.499 218.031 33.0255C217.915 33.5294 217.827 33.8619 217.766 34.0233C217.704 34.1846 217.592 34.4841 217.428 34.9219C217.287 35.3587 217.13 35.6715 216.956 35.8601C216.783 36.0487 216.554 36.2737 216.27 36.5349C215.79 37.0084 215.165 37.2609 214.395 37.2926C213.648 37.3234 213.044 37.2462 212.582 37.061C212.121 36.8758 211.723 36.5746 211.388 36.1573C211.076 35.7392 210.785 35.2974 210.517 34.832C210.271 34.3658 210.065 33.7731 209.899 33.0539C209.732 32.3122 209.591 31.6374 209.476 31.0296C209.382 30.421 209.295 29.6759 209.213 28.7945C209.154 27.9122 209.101 27.1771 209.055 26.5892C209.03 26.0004 209 25.253 208.962 24.3471L208.878 22.3088C209.089 21.9145 209.489 21.7052 210.078 21.681C210.893 21.6474 211.313 21.9251 211.337 22.5139L211.269 25.8175C211.387 28.6937 211.795 31.161 212.492 33.2194C213.189 35.2779 213.866 36.2935 214.523 36.2665C215.021 36.246 215.452 35.9561 215.814 35.3967C216.177 34.8373 216.44 34.0665 216.604 33.0842C216.767 32.0794 216.898 31.1325 216.998 30.2437C217.097 29.3548 217.145 28.3206 217.142 27.1411C217.136 25.3491 217.117 24.0568 217.085 23.2642ZM242.577 26.7068L242.568 30.6205C242.649 32.5908 242.93 33.9064 243.411 34.5672C243.701 35.0089 244.084 35.22 244.56 35.2004C244.696 35.1948 244.887 35.153 245.133 35.0748C245.603 34.9193 246.002 34.9709 246.33 35.2297C246.204 36.0288 245.428 36.4578 244.001 36.5165C243.027 36.5566 242.365 36.1755 242.015 35.3732C241.74 34.772 241.528 34.0208 241.377 33.1195C241.226 32.1957 241.109 31.5653 241.027 31.2283C239.671 34.0972 238.314 35.8658 236.958 36.5342C236.269 36.8801 235.46 37.0722 234.532 37.1104C233.603 37.1486 232.86 36.7368 232.303 35.875C231.767 34.9896 231.464 33.6863 231.393 31.9651C231.323 30.2439 231.532 28.4318 232.02 26.5287C232.508 24.6031 233.269 22.9724 234.303 21.6367C235.336 20.2784 236.498 19.5727 237.789 19.5196C239.646 19.4432 240.912 20.1624 241.587 21.6772C242.162 22.9694 242.492 24.6459 242.577 26.7068ZM234.209 25.9623C233.942 27.1983 233.752 28.3744 233.64 29.4907C233.526 30.5843 233.487 31.5614 233.522 32.422C233.557 33.2599 233.756 33.9777 234.121 34.5752C234.509 35.1717 234.985 35.4584 235.552 35.4351C236.775 35.3847 237.905 34.1812 238.942 31.8246C239.979 29.4679 240.457 27.2931 240.375 25.3001C240.322 24.0092 239.938 22.9588 239.224 22.1488C238.749 21.6239 238.138 21.3768 237.39 21.4076C236.666 21.4374 236.015 21.8952 235.439 22.781C234.885 23.6432 234.475 24.7036 234.209 25.9623ZM261.428 34.7784C261.038 35.2255 260.583 35.4598 260.062 35.4812C259.088 35.5213 258.342 35.0302 257.823 34.008C257.305 32.9858 256.97 31.7292 256.817 30.2382C256.688 28.7462 256.581 27.2534 256.497 25.7596C256.413 24.2658 256.236 23.0026 255.967 21.9702C255.72 20.9368 255.302 20.4322 254.713 20.4564C253.921 20.489 253.271 21.2304 252.763 22.6805C252.278 24.1297 251.959 25.7308 251.804 27.484C251.37 32.3793 250.871 35.1335 250.306 35.7466C249.907 35.9672 249.56 36.0836 249.266 36.0957C248.971 36.1078 248.721 36.0841 248.514 36.0245C247.953 33.9605 247.499 30.3835 247.154 25.2934C247.004 22.7587 246.891 21.1186 246.815 20.3731C247.278 20.0365 247.679 19.8612 248.019 19.8472C248.358 19.8332 248.632 19.856 248.838 19.9156C248.991 20.8848 249.13 22.8754 249.254 25.8875C249.401 28.8987 249.495 30.6303 249.536 31.0823C249.63 30.6021 249.734 29.8265 249.849 28.7555C249.986 27.6836 250.109 26.8052 250.216 26.1201C250.323 25.4125 250.505 24.5883 250.761 23.6476C251.017 22.707 251.316 21.9574 251.656 21.399C251.995 20.8179 252.473 20.3218 253.092 19.9107C253.709 19.4769 254.414 19.2437 255.207 19.2111C256.271 19.1673 257.061 19.6225 257.577 20.5768C258.114 21.5075 258.435 22.6853 258.539 24.1102C258.643 25.5351 258.725 26.9836 258.786 28.4557C258.869 29.9269 259.106 31.267 259.496 32.4759C259.908 33.684 260.552 34.4515 261.428 34.7784ZM275.314 7.90264C274.775 15.7288 274.573 21.3065 274.71 24.6357C274.846 27.9422 275.288 31.2361 276.036 34.5175C275.601 34.9891 275.214 35.2319 274.875 35.2459C274.535 35.2598 274.25 35.2262 274.02 35.1449C273.475 33.4886 273.117 31.6771 272.945 29.7105C272.437 30.5935 272.055 31.2218 271.798 31.5953C271.564 31.9679 271.144 32.5183 270.539 33.2465C269.44 34.6529 268.097 35.3887 266.512 35.4539C265.312 35.5033 264.417 34.9844 263.828 33.897C263.26 32.7861 262.941 31.3587 262.869 29.6148C262.796 27.8483 262.92 26.1645 263.239 24.5633C263.581 22.9385 264.215 21.5286 265.141 20.3335C266.066 19.1158 267.243 18.4775 268.669 18.4188C269.53 18.3834 270.33 18.5319 271.07 18.8645C271.809 19.197 272.328 19.6634 272.625 20.2637C272.645 19.6504 272.651 18.7086 272.644 17.4385C272.637 16.1684 272.637 15.0455 272.642 14.0698C272.669 13.0705 272.729 12.0585 272.823 11.0337C272.983 8.84933 273.493 7.73941 274.353 7.70399C274.648 7.69188 274.968 7.75809 275.314 7.90264ZM271.894 21.5188C271.601 21.0318 271.213 20.6848 270.728 20.4779C270.242 20.2484 269.603 20.1499 268.81 20.1825C268.04 20.2142 267.333 20.6857 266.69 21.5969C265.426 23.3957 264.862 25.9484 264.998 29.255C265.042 30.3194 265.255 31.3768 265.639 32.4273C266.021 33.4551 266.541 33.9555 267.198 33.9284C268.149 33.8893 269.052 33.2283 269.907 31.9454C270.761 30.6625 271.405 29.2068 271.837 27.5783C272.268 25.9272 272.457 24.4562 272.404 23.1653C272.378 22.5538 272.208 22.005 271.894 21.5188ZM287.666 14.3021C287.574 12.06 287.206 10.5665 286.563 9.8217C286.84 9.37928 287.341 9.14316 288.065 9.11333C288.201 9.10774 288.349 9.113 288.508 9.12913C289.098 9.67201 289.448 11.3023 289.56 14.02C289.621 15.4921 289.623 17.2048 289.568 19.158C289.436 22.5664 289.402 25.0632 289.468 26.6485C289.644 30.9289 290.558 33.035 292.212 32.967C292.212 32.967 292.627 32.8705 293.459 32.6775C293.663 32.6691 293.836 32.7527 293.98 32.9283C293.945 33.7464 293.294 34.1815 292.026 34.2337C290.78 34.285 289.802 33.9509 289.092 33.2315C288.381 32.4895 287.911 31.556 287.684 30.4311C287.478 29.2826 287.359 28.3346 287.328 27.5873C287.298 26.8399 287.275 26.0241 287.262 25.1399C287.247 24.2331 287.296 22.938 287.408 21.2546C287.631 17.8426 287.717 15.5251 287.666 14.3021ZM305.808 24.1044L305.799 28.0181C305.88 29.9884 306.161 31.304 306.642 31.9647C306.933 32.4065 307.316 32.6176 307.791 32.598C307.927 32.5924 308.118 32.5505 308.365 32.4723C308.835 32.3169 309.234 32.3685 309.562 32.6272C309.436 33.4264 308.66 33.8554 307.233 33.9141C306.259 33.9542 305.597 33.5731 305.246 32.7708C304.972 32.1696 304.76 31.4184 304.609 30.5171C304.458 29.5932 304.341 28.9628 304.259 28.6259C302.902 31.4948 301.546 33.2634 300.19 33.9317C299.501 34.2777 298.692 34.4698 297.763 34.508C296.835 34.5462 296.092 34.1344 295.535 33.2726C294.999 32.3872 294.696 31.0839 294.625 29.3627C294.554 27.6415 294.763 25.8294 295.252 23.9263C295.74 22.0006 296.501 20.37 297.535 19.0343C298.568 17.676 299.73 16.9703 301.021 16.9172C302.878 16.8407 304.144 17.56 304.819 19.0748C305.394 20.3669 305.724 22.0435 305.808 24.1044ZM297.441 23.3598C297.174 24.5959 296.984 25.772 296.871 26.8882C296.757 27.9819 296.718 28.959 296.754 29.8196C296.788 30.6575 296.988 31.3752 297.353 31.9727C297.74 32.5693 298.217 32.8559 298.783 32.8326C300.006 32.7823 301.136 31.5788 302.174 29.2222C303.211 26.8655 303.689 24.6907 303.607 22.6977C303.553 21.4068 303.17 20.3564 302.456 19.5464C301.981 19.0215 301.369 18.7744 300.622 18.8052C299.897 18.835 299.247 19.2928 298.671 20.1786C298.116 21.0408 297.706 22.1012 297.441 23.3598ZM310.185 19.4665C309.166 19.5084 308.465 19.2877 308.082 18.8044C308.067 18.442 308.202 18.1529 308.488 17.937C308.797 17.7201 309.132 17.5815 309.492 17.5213C309.852 17.4385 310.438 17.3576 311.252 17.2788C311.294 16.6645 311.296 15.8817 311.257 14.9306C311.24 13.9558 311.228 13.1282 311.223 12.4479C311.217 10.6559 311.444 9.54632 311.903 9.11909C312.099 8.92952 312.31 8.83008 312.537 8.82076C312.786 8.8105 313.002 8.82429 313.185 8.86213C313.32 10.49 313.395 11.4737 313.409 11.8134L313.415 16.9175C313.461 16.9383 313.586 16.9445 313.79 16.9361L316.231 16.7335C317.998 16.6608 318.892 16.8962 318.915 17.4398C318.946 18.2098 318.648 18.6758 318.02 18.8378C317.728 18.9178 317.378 18.9663 316.971 18.983C316.586 18.9989 316.074 18.9746 315.436 18.9101C314.82 18.822 314.376 18.7835 314.104 18.7947C313.833 18.8059 313.652 18.8247 313.562 18.8511C313.521 19.5107 313.514 20.1688 313.541 20.8256C313.568 21.4597 313.612 22.2633 313.675 23.2362C313.759 24.1855 313.897 25.3255 314.088 26.6561C314.301 27.9858 314.677 29.1273 315.215 30.0806C315.753 31.0113 316.407 31.4608 317.177 31.4291C317.562 31.4132 318.008 31.2474 318.517 30.9315C319.025 30.593 319.415 30.4182 319.687 30.407C319.981 30.3949 320.233 30.4526 320.442 30.5801C320.674 30.684 320.792 30.8152 320.799 30.9737C320.818 31.4493 320.351 31.9337 319.395 32.4267C318.462 32.8961 317.656 33.1448 316.976 33.1728C314.485 33.2753 312.837 30.9838 312.031 26.2983C311.794 24.9469 311.562 22.6198 311.336 19.317C310.976 19.3999 310.592 19.4497 310.185 19.4665ZM324.361 26.2333C324.334 26.6881 324.324 26.9948 324.33 27.1533C324.386 28.5121 324.837 29.5485 325.683 30.2623C326.552 30.9752 327.553 31.3083 328.685 31.2617C329.817 31.2151 330.728 31.0188 331.417 30.6729C332.129 30.326 332.636 29.9648 332.938 29.5894C333.711 28.5367 334.438 27.9964 335.117 27.9684C335.366 27.9582 335.663 28.014 336.009 28.1359C335.828 29.2549 335.009 30.3095 333.553 31.2996C332.118 32.266 330.279 32.7954 328.037 32.8877C326.452 32.953 325.061 32.5111 323.865 31.5621C322.691 30.5896 322.068 29.2314 321.996 27.4876C321.924 25.7437 322.195 24.0425 322.807 22.3839C323.441 20.7017 324.38 19.2566 325.623 18.0484C326.888 16.8167 328.189 16.1733 329.525 16.1183C330.884 16.0624 331.983 16.3008 332.821 16.8334C333.681 17.3425 334.134 18.1292 334.177 19.1936C334.258 21.164 333.442 22.8309 331.729 24.1945C330.037 25.5346 328.206 26.2451 326.236 26.3262C325.715 26.3477 325.09 26.3167 324.361 26.2333ZM326.896 25.006C327.961 24.9622 328.898 24.5833 329.708 23.8694C330.518 23.1555 331.077 22.4178 331.386 21.6565C331.718 20.8942 331.871 20.2073 331.846 19.5958C331.821 18.9844 331.561 18.4619 331.067 18.0286C330.572 17.5725 330.007 17.3576 329.373 17.3837C328.24 17.4303 327.22 18.255 326.31 19.8577C325.423 21.4595 324.81 23.1068 324.472 24.7995C325.477 24.9623 326.285 25.0311 326.896 25.006ZM346.936 18.6005C346.711 18.088 346.309 17.6962 345.731 17.425C345.152 17.1539 344.444 17.0356 343.606 17.0701C342.768 17.1046 341.986 17.3863 341.259 17.9153C340.555 18.4434 340.22 19.1264 340.255 19.9644C340.289 20.8023 340.656 21.4565 341.356 21.9267C342.078 22.3734 342.931 22.7013 343.915 22.9104C344.921 23.1185 345.929 23.3492 346.938 23.6026C347.945 23.8334 348.803 24.2632 349.509 24.892C350.237 25.4972 350.623 26.3207 350.666 27.3625C350.728 28.8799 350.141 30.061 348.906 30.9059C347.693 31.7498 346.203 32.2081 344.437 32.2808C343.395 32.3237 342.013 32.097 340.291 31.6007C338.592 31.1035 337.726 30.4586 337.693 29.6659C337.669 29.0771 338.155 28.7621 339.152 28.7211C339.446 28.709 339.839 28.8744 340.329 29.2171C341.822 30.2219 343.328 30.6931 344.845 30.6306C345.66 30.5971 346.357 30.4323 346.934 30.1363C348 29.5707 348.509 28.7103 348.462 27.5553C348.433 26.8532 348.058 26.3015 347.339 25.9001C346.641 25.4977 345.79 25.1925 344.783 24.9844C343.799 24.7754 342.802 24.5441 341.794 24.2907C340.785 24.0373 339.916 23.5854 339.186 22.9348C338.477 22.2607 338.101 21.3915 338.058 20.327C338.001 18.9455 338.577 17.7988 339.788 16.887C340.998 15.9751 342.52 15.4814 344.355 15.4059C345.6 15.3547 346.735 15.6369 347.758 16.2527C348.803 16.8449 349.351 17.7524 349.402 18.9754C349.435 19.7907 348.988 20.2175 348.059 20.2557C347.674 20.2715 347.411 20.2143 347.269 20.084C347.151 19.9528 347.073 19.7178 347.036 19.379C347.021 19.0166 346.988 18.7571 346.936 18.6005ZM353.213 17.6956C352.194 17.7375 351.493 17.5168 351.11 17.0335C351.095 16.6711 351.23 16.382 351.516 16.1661C351.825 15.9492 352.16 15.8106 352.52 15.7504C352.88 15.6676 353.466 15.5867 354.28 15.5079C354.322 14.8936 354.324 14.1108 354.285 13.1597C354.268 12.1849 354.256 11.3573 354.251 10.677C354.245 8.88501 354.472 7.77542 354.931 7.34819C355.127 7.15862 355.339 7.05918 355.565 7.04985C355.814 7.0396 356.03 7.05339 356.213 7.09123C356.348 8.71906 356.423 9.70282 356.437 10.0425L356.443 15.1466C356.489 15.1674 356.614 15.1736 356.818 15.1652L359.259 14.9626C361.026 14.8899 361.92 15.1253 361.943 15.6689C361.975 16.4389 361.676 16.9049 361.048 17.0669C360.756 17.1469 360.406 17.1954 359.999 17.2121C359.614 17.228 359.102 17.2037 358.464 17.1392C357.848 17.0511 357.404 17.0126 357.132 17.0238C356.861 17.035 356.68 17.0538 356.59 17.0802C356.549 17.7397 356.542 18.3979 356.569 19.0547C356.596 19.6888 356.64 20.4924 356.703 21.4653C356.787 22.4146 356.925 23.5546 357.116 24.8852C357.329 26.2149 357.705 27.3564 358.243 28.3097C358.781 29.2404 359.435 29.6899 360.205 29.6582C360.59 29.6423 361.037 29.4765 361.545 29.1606C362.053 28.8221 362.443 28.6473 362.715 28.6361C363.009 28.624 363.261 28.6817 363.47 28.8092C363.702 28.9131 363.82 29.0443 363.827 29.2028C363.847 29.6784 363.379 30.1628 362.424 30.6558C361.49 31.1252 360.684 31.3739 360.004 31.4019C357.513 31.5044 355.865 29.2129 355.059 24.5274C354.822 23.176 354.59 20.8489 354.364 17.5461C354.004 17.629 353.62 17.6788 353.213 17.6956ZM375.53 29.9802C375.674 31.8119 376.007 34.3957 376.53 37.7317C376.117 38.1797 375.617 38.4158 375.028 38.4401C374.915 38.4447 374.789 38.4385 374.653 38.4215C374.594 37.5391 374.341 35.5418 373.896 32.4295C373.473 29.3163 373.227 26.933 373.159 25.2798C373.09 23.6039 373.132 22.1502 373.286 20.9189C373.439 19.6875 373.743 18.5294 374.198 17.4444C375.126 15.2057 376.961 14.0299 379.701 13.9171C381.4 13.8472 382.831 14.7184 383.994 16.5308C385.158 18.3432 385.79 20.4836 385.892 22.9522C385.972 24.8999 385.408 26.6359 384.201 28.1601C382.993 29.6844 381.268 30.4927 379.026 30.585C377.645 30.6419 376.479 30.4403 375.53 29.9802ZM379.505 15.7628C377.58 15.842 376.341 16.8911 375.789 18.9102C375.316 20.6312 375.14 22.9864 375.263 25.9758C375.308 27.0629 375.353 27.8664 375.397 28.3864C377.43 28.7337 378.809 28.8925 379.534 28.8627C380.847 28.8086 381.868 28.2448 382.595 27.1714C383.321 26.0752 383.653 24.7685 383.59 23.2511C383.498 21.009 383.083 19.1885 382.345 17.7897C381.629 16.3899 380.683 15.7143 379.505 15.7628ZM389.508 23.4159L389.187 8.18419C389.139 7.00652 389.038 6.20533 388.884 5.78062C389.277 5.40148 389.892 5.19467 390.73 5.16018C391.17 7.56948 391.468 10.6765 391.624 14.4813C391.671 15.6137 391.677 18.245 391.643 22.3752C392.472 16.6016 394.256 13.6584 396.997 13.5456C397.97 13.5055 398.739 13.9957 399.303 15.016C399.888 16.0128 400.279 17.2444 400.476 18.7109C400.672 20.1774 400.846 21.6448 400.997 23.1132C401.369 26.6369 402.076 28.3773 403.118 28.3344C403.14 28.3335 403.353 28.2567 403.755 28.104C404.65 27.7949 405.156 27.706 405.275 27.8373C405.285 28.0864 404.947 28.4179 404.261 28.8318C403.574 29.223 402.936 29.4308 402.347 29.455C401.351 29.496 400.56 29.0182 399.974 28.0214C399.411 27.001 399.03 25.7576 398.834 24.2911C398.66 22.8237 398.509 21.3667 398.382 19.92C398.276 18.4498 398.077 17.2102 397.786 16.2014C397.494 15.1698 397.054 14.6662 396.465 14.6904C395.74 14.7202 395.105 15.5404 394.559 17.1509C394.034 18.7378 393.641 20.4894 393.38 22.4058C393.118 24.3222 392.771 26.0833 392.338 27.6891C391.927 29.2714 391.472 30.0728 390.974 30.0933C390.181 30.1259 389.693 27.9001 389.508 23.4159ZM406.756 15.628C407.838 13.814 409.467 12.8622 411.641 12.7727C413.815 12.6833 415.584 13.4952 416.947 15.2086C418.334 16.921 419.073 18.9096 419.167 21.1744C419.259 23.4165 418.624 25.3482 417.261 26.9696C415.899 28.591 414.119 29.4469 411.922 29.5373C409.726 29.6278 408.104 29.082 407.057 27.9C406.009 26.6954 405.439 24.9721 405.347 22.73C405.227 19.8085 405.696 17.4411 406.756 15.628ZM408.325 17.367C408.067 18.2624 407.877 19.1549 407.754 20.0447C407.655 20.9336 407.621 21.763 407.653 22.533C407.683 23.2804 407.768 23.9688 407.908 24.5983C408.046 25.2051 408.264 25.8086 408.561 26.4089C408.857 26.9866 409.284 27.4454 409.843 27.7854C410.4 28.1027 411.052 28.246 411.8 28.2153C413.317 28.1528 414.56 27.4778 415.528 26.1903C416.518 24.9018 416.977 23.3743 416.904 21.6078C416.832 19.8413 416.286 18.1509 415.267 16.5368C414.269 14.8991 413.091 14.1082 411.732 14.1642C410.917 14.1977 410.215 14.5102 409.627 15.1015C409.039 15.6929 408.605 16.448 408.325 17.367ZM422.283 14.8529C421.264 14.8948 420.563 14.6741 420.18 14.1908C420.165 13.8284 420.301 13.5393 420.587 13.3233C420.896 13.1064 421.23 12.9679 421.591 12.9077C421.95 12.8248 422.537 12.744 423.35 12.6651C423.393 12.0509 423.395 11.2681 423.356 10.3169C423.338 9.34215 423.327 8.51459 423.321 7.83423C423.316 6.04228 423.542 4.93269 424.001 4.50546C424.198 4.3159 424.409 4.21645 424.635 4.20713C424.885 4.19688 425.101 4.21067 425.284 4.24851C425.419 5.87633 425.493 6.8601 425.507 7.19981L425.513 12.3039C425.559 12.3247 425.684 12.3309 425.888 12.3225L428.33 12.1199C430.096 12.0472 430.991 12.2826 431.013 12.8262C431.045 13.5962 430.747 14.0622 430.118 14.2241C429.826 14.3042 429.477 14.3526 429.069 14.3694C428.684 14.3853 428.173 14.3609 427.535 14.2964C426.919 14.2084 426.475 14.1699 426.203 14.1811C425.931 14.1923 425.75 14.2111 425.661 14.2375C425.62 14.897 425.613 15.5552 425.64 16.212C425.666 16.8461 425.71 17.6496 425.773 18.6225C425.858 19.5719 425.995 20.7118 426.186 22.0424C426.4 23.3721 426.776 24.5136 427.314 25.467C427.851 26.3977 428.505 26.8472 429.275 26.8155C429.66 26.7996 430.107 26.6338 430.616 26.3179C431.124 25.9794 431.513 25.8046 431.785 25.7934C432.08 25.7813 432.331 25.839 432.541 25.9664C432.772 26.0704 432.891 26.2016 432.897 26.3601C432.917 26.8357 432.449 27.32 431.494 27.8131C430.56 28.2825 429.754 28.5312 429.075 28.5592C426.583 28.6617 424.935 26.3702 424.13 21.6847C423.893 20.3333 423.661 18.0062 423.434 14.7034C423.074 14.7863 422.691 14.8361 422.283 14.8529ZM435.585 14.4415C436.667 12.6275 438.296 11.6757 440.47 11.5862C442.644 11.4967 444.413 12.3087 445.776 14.0221C447.163 15.7345 447.902 17.7231 447.996 19.9879C448.088 22.23 447.453 24.1617 446.09 25.7831C444.728 27.4045 442.948 28.2604 440.751 28.3508C438.555 28.4412 436.933 27.8955 435.886 26.7135C434.838 25.5089 434.268 23.7856 434.176 21.5435C434.056 18.6219 434.525 16.2546 435.585 14.4415ZM437.154 16.1805C436.896 17.0758 436.706 17.9684 436.584 18.8582C436.484 19.747 436.45 20.5765 436.482 21.3465C436.513 22.0938 436.598 22.7823 436.737 23.4117C436.875 24.0186 437.093 24.6221 437.39 25.2224C437.686 25.8001 438.113 26.2589 438.672 26.5989C439.229 26.9162 439.882 27.0595 440.629 27.0287C442.146 26.9663 443.389 26.2913 444.357 25.0037C445.347 23.7152 445.806 22.1877 445.734 20.4212C445.661 18.6547 445.115 16.9644 444.096 15.3503C443.098 13.7126 441.92 12.9217 440.561 12.9777C439.746 13.0112 439.044 13.3237 438.456 13.915C437.868 14.5064 437.434 15.2615 437.154 16.1805Z" fill="#191919"/>
</svg>
