<svg xmlns="http://www.w3.org/2000/svg" width="20.764" height="20.5" viewBox="0 0 20.764 20.5">
  <g id="_5965097681639584359" data-name="5965097681639584359" transform="translate(-1.522 -1.796)">
    <path id="Path_672" data-name="Path 672" d="M20.667,36.665a1,1,0,0,1,1-1h1.887l-.872,2.907a.334.334,0,0,0,.033.267l1,1.668a.334.334,0,0,0,.572,0l1-1.668a.334.334,0,0,0,.033-.267l-.871-2.907h1.887a1,1,0,0,1,1,1v4.67h.667v-4.67A1.67,1.67,0,0,0,26.338,35H25.153a2.168,2.168,0,1,0-2.3,0H21.668A1.67,1.67,0,0,0,20,36.665v4.67h.667Zm3.975,1.956L24,39.686l-.639-1.065L24,36.492ZM22.5,33.162a1.5,1.5,0,1,1,1.5,1.5A1.5,1.5,0,0,1,22.5,33.162Z" transform="translate(-11.993 -19.289)" fill="#2c8bed" stroke="#2c8bed" stroke-width="0.5"/>
    <path id="Path_673" data-name="Path 673" d="M21.813,6.951l-.4,2.362a.334.334,0,0,0,.484.351L24.006,8.55l2.112,1.115a.334.334,0,0,0,.484-.351l-.4-2.362,1.71-1.673a.334.334,0,0,0-.185-.567l-2.362-.346L24.306,2.217a.347.347,0,0,0-.6,0L22.65,4.366l-2.362.345a.334.334,0,0,0-.185.567ZM22.92,5a.334.334,0,0,0,.251-.183l.835-1.7.834,1.7A.334.334,0,0,0,25.091,5l1.868.273L25.607,6.6a.334.334,0,0,0-.1.295L25.83,8.76l-1.668-.881a.336.336,0,0,0-.312,0l-1.668.881L22.5,6.892a.334.334,0,0,0-.1-.295L21.053,5.273Z" transform="translate(-11.996)" fill="#2c8bed" stroke="#2c8bed" stroke-width="0.5"/>
    <path id="Path_674" data-name="Path 674" d="M50.509,18.936l-1.468-.762-.2-1.648a.334.334,0,0,0-.567-.2L47.09,17.5l-1.625-.311a.334.334,0,0,0-.361.476l.74,1.484-.8,1.456a.334.334,0,0,0,.343.491l1.637-.25,1.13,1.21a.334.334,0,0,0,.573-.173L49,20.242l1.5-.708a.334.334,0,0,0,.011-.6Zm-1.954.777a.334.334,0,0,0-.187.247l-.19,1.144-.788-.844a.334.334,0,0,0-.244-.106.317.317,0,0,0-.05,0l-1.142.174.559-1.016a.334.334,0,0,0,.006-.31L46,17.969l1.134.218a.334.334,0,0,0,.3-.091l.823-.814.142,1.149a.334.334,0,0,0,.177.255l1.026.534Z" transform="translate(-28.654 -9.454)" fill="#2c8bed" stroke="#2c8bed" stroke-width="0.5"/>
    <path id="Path_675" data-name="Path 675" d="M2.194,19.534l1.5.708.272,1.639a.334.334,0,0,0,.573.173l1.13-1.21,1.637.25a.334.334,0,0,0,.343-.491l-.8-1.456.74-1.484a.334.334,0,0,0-.361-.476L5.6,17.5,4.422,16.33a.334.334,0,0,0-.567.2l-.2,1.648-1.468.762a.334.334,0,0,0,.011.6Zm1.92-.849a.334.334,0,0,0,.177-.255l.142-1.149.823.814a.336.336,0,0,0,.3.091l1.134-.218-.517,1.037a.334.334,0,0,0,.006.31l.562,1.016L5.6,20.158a.334.334,0,0,0-.294.1l-.789.844-.19-1.144a.334.334,0,0,0-.187-.247l-1.048-.493Z" transform="translate(0 -9.454)" fill="#2c8bed" stroke="#2c8bed" stroke-width="0.5"/>
  </g>
</svg>
