<svg xmlns="http://www.w3.org/2000/svg" width="72" height="72" viewBox="0 0 72 72">
  <g id="Group_2561" data-name="Group 2561" transform="translate(-189 -335)">
    <rect id="Rectangle_2059" data-name="Rectangle 2059" width="72" height="72" rx="36" transform="translate(189 335)" fill="#2c8bed"/>
    <g id="users-line" transform="translate(201.882 348.143)">
      <path id="Path_345" data-name="Path 345" d="M19.572,20.61A6.505,6.505,0,1,0,13,14.038,6.583,6.583,0,0,0,19.572,20.61Zm-.134-10.327h0a3.892,3.892,0,0,1,3.889,3.889,3.823,3.823,0,0,1-7.645,0,3.866,3.866,0,0,1,3.755-3.889Z" transform="translate(3.412 1.145)" fill="#fff"/>
      <path id="Path_346" data-name="Path 346" d="M35.668,17.556A13.279,13.279,0,0,0,26.28,14.2H25.207A8.942,8.942,0,0,1,24,17.019a13.012,13.012,0,0,1,2.28-.134,11.155,11.155,0,0,1,7.108,2.146v9.657h2.682V17.958l-.4-.4Z" transform="translate(7.165 3.394)" fill="#fff"/>
      <path id="Path_347" data-name="Path 347" d="M23.878,8.994a3.276,3.276,0,0,1,6.035,2.548,3.348,3.348,0,0,1-2.951,2.012,2.282,2.282,0,0,1-.939-.134,9.5,9.5,0,0,1,.134,1.878v.8c.268,0,.536.134.8.134A5.969,5.969,0,0,0,27.1,4.3,5.751,5.751,0,0,0,22,7.251a5.726,5.726,0,0,1,1.878,1.744Z" transform="translate(6.483 0.019)" fill="#fff"/>
      <path id="Path_348" data-name="Path 348" d="M15.071,17.119A8.942,8.942,0,0,1,13.864,14.3H12.791A13.8,13.8,0,0,0,3.4,17.521l-.4.4v10.73H5.682V19a11.4,11.4,0,0,1,7.108-2.146A11.812,11.812,0,0,1,15.071,17.119Z" transform="translate(0 3.428)" fill="#fff"/>
      <path id="Path_349" data-name="Path 349" d="M11.82,16.122a1.7,1.7,0,0,0,.8-.134v-.8a8.248,8.248,0,0,1,.134-1.878,2.282,2.282,0,0,1-.939.134A3.219,3.219,0,0,1,11.82,7a3.388,3.388,0,0,1,3.085,2.012,13.352,13.352,0,0,1,2.012-1.878,5.958,5.958,0,1,0-5.1,8.986Z" transform="translate(0.97)" fill="#fff"/>
      <path id="Path_350" data-name="Path 350" d="M31.593,23.964l-.268-.4A13.536,13.536,0,0,0,20.864,19a13.816,13.816,0,0,0-10.6,4.56l-.268.4V34.157a2.261,2.261,0,0,0,2.28,2.28H29.447a2.35,2.35,0,0,0,2.28-2.28V23.964Zm-2.682,9.791H12.682V24.9a11.446,11.446,0,0,1,8.181-3.219A10.817,10.817,0,0,1,28.911,24.9Z" transform="translate(2.388 5.033)" fill="#fff"/>
    </g>
  </g>
</svg>
