<svg width="16" height="16" viewBox="0 0 16 16" fill="none" xmlns="http://www.w3.org/2000/svg">
<path d="M9.94591 0C11.0179 0 11.5539 0.7296 11.5539 1.5656C11.5539 2.6096 10.6227 3.5752 9.41071 3.5752C8.39551 3.5752 7.80351 2.9752 7.83151 1.9832C7.83151 1.1488 8.53631 0 9.94591 0ZM6.64751 16C5.80111 16 5.18111 15.4784 5.77311 13.1808L6.74431 9.1072C6.91311 8.456 6.94111 8.1944 6.74431 8.1944C6.49071 8.1944 5.39311 8.644 4.74271 9.088L4.32031 8.384C6.37791 6.6352 8.74511 5.6104 9.76111 5.6104C10.6067 5.6104 10.7475 6.6288 10.3251 8.1944L9.21231 12.476C9.01551 13.232 9.09951 13.4928 9.29711 13.4928C9.55071 13.4928 10.3827 13.1792 11.2003 12.5272L11.6803 13.1784C9.67871 15.216 7.49231 16 6.64751 16Z" fill="white"/>
</svg>
