<svg xmlns="http://www.w3.org/2000/svg" width="32.5" height="32.5" viewBox="0 0 32.5 32.5">
  <g id="instagram" transform="translate(-912.843 -3854.5)">
    <path id="facebook-with-circle" d="M16.97.72A16.25,16.25,0,1,0,33.22,16.97,16.249,16.249,0,0,0,16.97.72Z" transform="translate(912.123 3853.78)" fill="#fff"/>
    <g id="logo-instagram" transform="translate(917.957 3859.614)">
      <path id="Path_98" data-name="Path 98" d="M25.18,9.969a.8.8,0,1,1-.8-.8A.8.8,0,0,1,25.18,9.969Z" transform="translate(-9.704 -2.376)"/>
      <path id="Path_99" data-name="Path 99" d="M14.476,11.068a3.408,3.408,0,1,0,3.408,3.408A3.408,3.408,0,0,0,14.476,11.068Zm0,5.62a2.212,2.212,0,1,1,2.212-2.212A2.212,2.212,0,0,1,14.476,16.688Z" transform="translate(-3.339 -3.339)"/>
      <path id="Path_100" data-name="Path 100" d="M11.136,5.7c1.772,0,1.982.006,2.682.039a3.673,3.673,0,0,1,1.232.229,2.2,2.2,0,0,1,1.26,1.26,3.673,3.673,0,0,1,.229,1.232c.032.7.039.91.039,2.682s-.006,1.982-.039,2.681a3.673,3.673,0,0,1-.229,1.232,2.2,2.2,0,0,1-1.26,1.26,3.673,3.673,0,0,1-1.232.229c-.7.032-.91.039-2.682.039s-1.982-.006-2.682-.039a3.673,3.673,0,0,1-1.232-.229,2.2,2.2,0,0,1-1.26-1.26,3.673,3.673,0,0,1-.229-1.232c-.032-.7-.039-.91-.039-2.682s.006-1.982.039-2.682a3.673,3.673,0,0,1,.229-1.232,2.2,2.2,0,0,1,1.26-1.26,3.673,3.673,0,0,1,1.232-.229c.7-.032.91-.039,2.682-.039m0-1.2c-1.8,0-2.029.008-2.737.04a4.871,4.871,0,0,0-1.61.309A3.393,3.393,0,0,0,4.848,6.79,4.87,4.87,0,0,0,4.539,8.4c-.031.708-.039.933-.039,2.736s.008,2.029.04,2.737a4.871,4.871,0,0,0,.309,1.61A3.393,3.393,0,0,0,6.79,17.424a4.87,4.87,0,0,0,1.611.309c.708.032.933.04,2.736.04s2.029-.008,2.737-.04a4.87,4.87,0,0,0,1.611-.309,3.393,3.393,0,0,0,1.941-1.941,4.87,4.87,0,0,0,.308-1.611c.031-.708.039-.933.039-2.736s-.008-2.029-.04-2.737a4.87,4.87,0,0,0-.309-1.61,3.393,3.393,0,0,0-1.941-1.941,4.87,4.87,0,0,0-1.611-.308C13.164,4.507,12.939,4.5,11.136,4.5Z"/>
    </g>
  </g>
</svg>
