<svg id="insta" xmlns="http://www.w3.org/2000/svg" xmlns:xlink="http://www.w3.org/1999/xlink" width="41" height="41" viewBox="0 0 41 41">
  <defs>
    <linearGradient id="linear-gradient" x1="0.297" y1="1" x2="0.297" gradientUnits="objectBoundingBox">
      <stop offset="0" stop-color="#fac367"/>
      <stop offset="0.306" stop-color="#ef5d3e"/>
      <stop offset="0.595" stop-color="#c03289"/>
      <stop offset="1" stop-color="#5a6cb6"/>
    </linearGradient>
  </defs>
  <rect id="Rectangle_2176" data-name="Rectangle 2176" width="41" height="41" rx="12" fill="url(#linear-gradient)"/>
  <path id="Path_410" data-name="Path 410" d="M31.714,26.528a5.176,5.176,0,1,1-5.175-5.176,5.185,5.185,0,0,1,5.175,5.176Zm2.79,0a7.966,7.966,0,1,0-7.966,7.965A7.955,7.955,0,0,0,34.5,26.528Zm2.183-8.289a1.986,1.986,0,1,1,0-.008ZM26.538,13.792c2.265,0,7.116-.182,9.158.627a5.289,5.289,0,0,1,2.952,2.952c.809,2.042.626,6.894.626,9.158s.182,7.116-.626,9.158A5.289,5.289,0,0,1,35.7,38.637c-2.041.809-6.894.626-9.158.626s-7.116.182-9.158-.626a5.289,5.289,0,0,1-2.952-2.952c-.809-2.042-.627-6.894-.627-9.158s-.182-7.116.627-9.16a5.306,5.306,0,0,1,2.952-2.956c2.042-.806,6.894-.624,9.158-.624ZM42.065,26.528c0-2.144.02-4.266-.1-6.409a9.233,9.233,0,0,0-2.507-6.51A9.232,9.232,0,0,0,32.95,11.1c-2.14-.121-4.266-.1-6.406-.1s-4.266-.02-6.406.1a9.234,9.234,0,0,0-6.509,2.507,9.236,9.236,0,0,0-2.506,6.51c-.122,2.143-.1,4.266-.1,6.408s-.021,4.261.1,6.406a9.222,9.222,0,0,0,2.5,6.507,9.233,9.233,0,0,0,6.512,2.5c2.143.12,4.266.1,6.408.1s4.264.019,6.407-.1a9.245,9.245,0,0,0,6.509-2.51,9.238,9.238,0,0,0,2.507-6.51c.12-2.144.1-4.266.1-6.409Z" transform="translate(-5.733 -5.722)" fill="#fff" fill-rule="evenodd"/>
</svg>
