<svg width="50" height="50" viewBox="0 0 50 50" fill="none" xmlns="http://www.w3.org/2000/svg">
<path opacity="0.4" d="M18.7513 4.16602C13.293 4.16602 8.85547 8.60352 8.85547 14.0618C8.85547 19.416 13.043 23.7493 18.5013 23.9368C18.668 23.916 18.8346 23.916 18.9596 23.9368C19.0013 23.9368 19.0221 23.9368 19.0638 23.9368C19.0846 23.9368 19.0846 23.9368 19.1055 23.9368C24.4388 23.7493 28.6263 19.416 28.6471 14.0618C28.6471 8.60352 24.2096 4.16602 18.7513 4.16602Z" fill="#EB3737"/>
<path d="M29.332 29.4805C23.5195 25.6055 14.0404 25.6055 8.1862 29.4805C5.54036 31.2513 4.08203 33.6471 4.08203 36.2096C4.08203 38.7721 5.54036 41.1471 8.16536 42.8971C11.082 44.8555 14.9154 45.8346 18.7487 45.8346C22.582 45.8346 26.4154 44.8555 29.332 42.8971C31.957 41.1263 33.4154 38.7513 33.4154 36.168C33.3945 33.6055 31.957 31.2305 29.332 29.4805Z" fill="#EB3737"/>
<path opacity="0.4" d="M41.6484 15.2917C41.9818 19.3334 39.1068 22.875 35.1276 23.3542C35.1068 23.3542 35.1068 23.3542 35.0859 23.3542H35.0234C34.8984 23.3542 34.7734 23.3542 34.6693 23.3959C32.6484 23.5 30.7943 22.8542 29.3984 21.6667C31.5443 19.75 32.7734 16.875 32.5234 13.75C32.3776 12.0625 31.7943 10.5209 30.9193 9.20838C31.7109 8.81255 32.6276 8.56255 33.5651 8.47921C37.6484 8.12505 41.2943 11.1667 41.6484 15.2917Z" fill="#EB3737"/>
<path d="M45.8112 34.5627C45.6445 36.5835 44.3529 38.3335 42.1862 39.521C40.1029 40.6668 37.4779 41.2085 34.8737 41.146C36.3737 39.7918 37.2487 38.1043 37.4154 36.3127C37.6237 33.7293 36.3945 31.2502 33.9362 29.271C32.5404 28.1668 30.9154 27.2918 29.1445 26.646C33.7487 25.3127 39.5404 26.2085 43.1029 29.0835C45.0195 30.6252 45.9987 32.5627 45.8112 34.5627Z" fill="#EB3737"/>
</svg>
