<svg xmlns="http://www.w3.org/2000/svg" width="19.333" height="20" viewBox="0 0 19.333 20">
  <g id="user-plus" transform="translate(-1.688 -1.125)">
    <path id="Path_340" data-name="Path 340" d="M9.354,1.125A4.672,4.672,0,0,0,4.688,5.792v3.32a3.343,3.343,0,0,0,.407,1.6l1.144,2.1L3.2,14.777a3.322,3.322,0,0,0-1.516,2.8v3.553h12V19.792H3.021V17.572a1.993,1.993,0,0,1,.91-1.677L8,13.251,6.266,10.07a2.006,2.006,0,0,1-.245-.958V5.792a3.333,3.333,0,1,1,6.667,0v3.32a2.006,2.006,0,0,1-.244.958l-1.735,3.18,2.979,1.937V13.6L12.47,12.8l1.144-2.1a3.343,3.343,0,0,0,.408-1.6V5.792A4.672,4.672,0,0,0,9.354,1.125Z" transform="translate(0)" fill="#2c8bed"/>
    <path id="Path_341" data-name="Path 341" d="M27.063,26.292V23.625H25.73v2.667H23.063v1.333H25.73v2.667h1.333V27.625H29.73V26.292Z" transform="translate(-8.708 -9.167)" fill="#2c8bed"/>
  </g>
</svg>
