<svg xmlns="http://www.w3.org/2000/svg" width="21.015" height="16.643" viewBox="0 0 21.015 16.643">
  <g id="mail-notification-outline" transform="translate(-2.75 -4.508)">
    <path id="Path_371" data-name="Path 371" d="M15.756,6.75H5.2A1.821,1.821,0,0,0,3.375,8.571V19.5A1.821,1.821,0,0,0,5.2,21.317H20.433A1.821,1.821,0,0,0,22.254,19.5V13.26" transform="translate(0 -0.791)" fill="none" stroke="#2c8bed" stroke-linecap="round" stroke-linejoin="round" stroke-width="1.25"/>
    <path id="Path_372" data-name="Path 372" d="M7.875,11.25l6.555,5.1,3.96-2.989" transform="translate(-1.587 -2.377)" fill="none" stroke="#2c8bed" stroke-linecap="round" stroke-linejoin="round" stroke-width="1.25"/>
    <path id="Path_373" data-name="Path 373" d="M31.365,7.815a2.183,2.183,0,1,1-2.183-2.183A2.182,2.182,0,0,1,31.365,7.815Z" transform="translate(-8.33 -0.397)" fill="#37c96a"/>
    <path id="Path_374" data-name="Path 374" d="M28.79,10.329A2.911,2.911,0,1,1,31.7,7.419,2.911,2.911,0,0,1,28.79,10.329Zm0-4.365a1.457,1.457,0,1,0,1.454,1.457A1.457,1.457,0,0,0,28.79,5.964Z" transform="translate(-7.935)" fill="#37c96a"/>
  </g>
</svg>
