<svg width="107" height="101" viewBox="0 0 107 101" fill="none" xmlns="http://www.w3.org/2000/svg">
<path d="M57.1775 92.0652C58.6257 92.4009 58.7584 94.2909 57.3478 94.7595L49.0192 97.4907C28.0921 104.214 17.0751 98.5937 10.2751 77.7416L3.52787 56.9944C-3.21938 36.1422 2.36819 25.1121 23.2952 18.389L26.0574 17.4775C28.181 16.7768 30.2477 18.8991 29.6447 21.0456C29.3458 22.1096 29.0582 23.22 28.7774 24.3768L23.6115 46.3845C17.8131 71.1235 26.2999 84.7798 51.1277 90.6626L57.1775 92.0652Z" fill="#191919"/>
<path d="M80.8672 4.08486L72.0642 2.03641C54.458 -2.11302 43.9682 1.30107 37.8007 14.012C36.2193 17.216 34.9542 21.1028 33.9 25.5673L28.7341 47.5751C23.5682 69.5303 30.3682 80.3503 52.3495 85.5502L61.2053 87.6512C64.2626 88.3865 67.1091 88.8592 69.7448 89.0693C86.1912 90.6451 94.9416 82.9765 99.3695 64.0152L104.535 42.06C109.701 20.1048 102.954 9.23225 80.8672 4.08486ZM70.9572 57.2395C70.4828 59.0254 68.9014 60.1809 67.1091 60.1809C66.7929 60.1809 66.4766 60.1284 66.1076 60.0759L50.7681 56.1891C48.6596 55.6638 47.3945 53.5103 47.9216 51.4093C48.4487 49.3084 50.61 48.0478 52.7185 48.573L68.058 52.4598C70.2192 52.9851 71.4843 55.1386 70.9572 57.2395ZM86.4021 39.4863C85.9277 41.2721 84.3463 42.4277 82.554 42.4277C82.2377 42.4277 81.9215 42.3751 81.5525 42.3226L55.9867 35.8621C53.8782 35.3369 52.6131 33.1834 53.1402 31.0824C53.6673 28.9814 55.8286 27.7208 57.9371 28.2461L83.5029 34.7066C85.6641 35.1793 86.9292 37.3328 86.4021 39.4863Z" fill="#191919"/>
</svg>
