<svg width="96" height="100" viewBox="0 0 96 100" fill="none" xmlns="http://www.w3.org/2000/svg">
<path d="M70.5883 99.9999C75.1365 99.9999 78.8236 96.3128 78.8236 91.7646C78.8236 87.2164 75.1365 83.5293 70.5883 83.5293C66.0401 83.5293 62.353 87.2164 62.353 91.7646C62.353 96.3128 66.0401 99.9999 70.5883 99.9999Z" fill="#191919"/>
<path d="M32.9411 99.9999C37.4893 99.9999 41.1764 96.3128 41.1764 91.7646C41.1764 87.2164 37.4893 83.5293 32.9411 83.5293C28.3929 83.5293 24.7058 87.2164 24.7058 91.7646C24.7058 96.3128 28.3929 99.9999 32.9411 99.9999Z" fill="#191919"/>
<path d="M16.8941 12.6588L15.9529 24.1882C15.7647 26.4 17.5059 28.2353 19.7176 28.2353H91.7647C93.7412 28.2353 95.3882 26.7294 95.5294 24.7529C96.1412 16.4235 89.7882 9.64706 81.4588 9.64706H23.6235C23.1529 7.57647 22.2118 5.6 20.7529 3.95294C18.4 1.45882 15.1059 0 11.7176 0H3.52941C1.6 0 0 1.6 0 3.52941C0 5.45882 1.6 7.05882 3.52941 7.05882H11.7176C13.1765 7.05882 14.5412 7.67059 15.5294 8.70588C16.5176 9.78823 16.9882 11.2 16.8941 12.6588Z" fill="#191919"/>
<path d="M90.6355 35.2939H18.4473C16.4708 35.2939 14.8708 36.7998 14.6826 38.7292L12.9885 59.1998C12.3296 67.2469 18.6355 74.1175 26.6826 74.1175H79.012C86.0708 74.1175 92.2826 68.3292 92.8002 61.2704L94.3532 39.2939C94.5414 37.1292 92.8473 35.2939 90.6355 35.2939Z" fill="#191919"/>
</svg>
