<svg width="21" height="21" viewBox="0 0 21 21" fill="none" xmlns="http://www.w3.org/2000/svg">
<path d="M18.3037 9.46736L17.2016 8.17752C16.9976 7.93261 16.8261 7.47545 16.8261 7.14891V5.7611C16.8261 4.89576 16.1159 4.18553 15.2505 4.18553H13.8627C13.5362 4.18553 13.0709 4.01409 12.826 3.81L11.5361 2.70792C10.9728 2.22627 10.0503 2.22627 9.48706 2.70792L8.18089 3.81C7.93598 4.01409 7.47882 4.18553 7.15227 4.18553H5.73997C4.87464 4.18553 4.1644 4.89576 4.1644 5.7611V7.14891C4.1644 7.46729 4.00113 7.92445 3.79704 8.16935L2.69496 9.46736C2.22147 10.0388 2.22147 10.9531 2.69496 11.5083L3.79704 12.8063C4.00113 13.043 4.1644 13.5083 4.1644 13.8267V15.2227C4.1644 16.088 4.87464 16.7983 5.73997 16.7983H7.16044C7.47882 16.7983 7.94414 16.9697 8.18905 17.1738L9.47889 18.2759C10.0422 18.7575 10.9647 18.7575 11.528 18.2759L12.8178 17.1738C13.0627 16.9697 13.5199 16.7983 13.8464 16.7983H15.2342C16.0996 16.7983 16.8098 16.088 16.8098 15.2227V13.8349C16.8098 13.5083 16.9812 13.0512 17.1853 12.8063L18.2874 11.5164C18.7854 10.9613 18.7854 10.0388 18.3037 9.46736ZM12.7933 13.9573L11.9933 12.1613C11.9688 12.1613 11.9443 12.1777 11.9198 12.1777H9.06255C9.03806 12.1777 9.01357 12.1695 8.98908 12.1613L8.18905 13.9573L7.07064 13.4594L9.92789 7.02645H11.0463L13.9036 13.4594L12.7933 13.9573Z" fill="#191919"/>
<path d="M9.53662 10.9553H11.4632L10.4999 8.79199L9.53662 10.9553Z" fill="#191919"/>
</svg>
