<svg xmlns="http://www.w3.org/2000/svg" width="40" height="40" viewBox="0 0 40 40">
  <g id="Page-1" transform="translate(285 -377)">
    <g id="social-icons">
      <path id="Path_412" data-name="Path 412" d="M-285,382a4.951,4.951,0,0,1,5-5h30a4.951,4.951,0,0,1,5,5v30a4.951,4.951,0,0,1-5,5h-30a4.951,4.951,0,0,1-5-5Z" fill="#0077b5"/>
      <path id="Path_413" data-name="Path 413" d="M-274.5,384a3.359,3.359,0,0,1,3.5,3.2,3.359,3.359,0,0,1-3.5,3.2,3.359,3.359,0,0,1-3.5-3.2A3.359,3.359,0,0,1-274.5,384Zm-3,8.8h6v17.7h-6Zm9.3,0h5.2v2.4h.1a5.657,5.657,0,0,1,5.1-2.9c5.4,0,6.5,3.7,6.5,8.4v9.7h-5.4v-8.6c0-2.1,0-4.7-2.8-4.7s-3.2,2.2-3.2,4.6v8.8h-5.4V392.8Z" fill="#fff"/>
    </g>
  </g>
</svg>
