<svg xmlns="http://www.w3.org/2000/svg" width="6.292" height="8.463" viewBox="0 0 6.292 8.463">
  <g id="location-pin" transform="translate(-5.627 -1.238)">
    <path id="Path_213" data-name="Path 213" d="M14.512,8.971a1.158,1.158,0,1,0,1.158,1.158A1.158,1.158,0,0,0,14.512,8.971Zm0,1.737a.579.579,0,1,1,.579-.579.579.579,0,0,1-.579.579Z" transform="translate(-5.739 -5.744)" fill="#777"/>
    <path id="Path_214" data-name="Path 214" d="M11,2.159A3.146,3.146,0,0,0,6.137,6.1L8.324,9.458a.536.536,0,0,0,.9,0L11.409,6.1A3.146,3.146,0,0,0,11,2.159Zm-.074,3.626-2.151,3.3-2.151-3.3a2.567,2.567,0,1,1,4.3,0Z" transform="translate(0 0)" fill="#777"/>
  </g>
</svg>
