<svg id="lock" xmlns="http://www.w3.org/2000/svg" width="13.526" height="17.06" viewBox="0 0 13.526 17.06">
  <path id="Path_385" data-name="Path 385" d="M16.692,10.347H8.084a1.23,1.23,0,0,0-1.23,1.23v6.148a1.23,1.23,0,0,0,1.23,1.23h8.608a1.23,1.23,0,0,0,1.23-1.23V11.577A1.23,1.23,0,0,0,16.692,10.347ZM8.084,9.118a2.459,2.459,0,0,0-2.459,2.459v6.148a2.459,2.459,0,0,0,2.459,2.459h8.608a2.459,2.459,0,0,0,2.459-2.459V11.577a2.459,2.459,0,0,0-2.459-2.459Zm0-1.689a4.3,4.3,0,0,1,8.608,0V9.118h-1.23V7.429a3.074,3.074,0,1,0-6.148,0V9.118H8.084Z" transform="translate(-5.625 -3.125)" fill-rule="evenodd"/>
</svg>
