<svg width="13" height="13" viewBox="0 0 13 13" fill="none" xmlns="http://www.w3.org/2000/svg">
<path d="M9.62479 0H7.93395C5.85292 0 4.55227 1.3 4.55227 3.38V6.0125H7.43971L6.09353 4.667C5.99599 4.5695 5.95046 4.446 5.95046 4.3225C5.95046 4.199 5.99599 4.0755 6.09353 3.978C6.28213 3.7895 6.59429 3.7895 6.78288 3.978L8.96146 6.1555C9.15006 6.344 9.15006 6.656 8.96146 6.8445L6.78288 9.022C6.59429 9.2105 6.28213 9.2105 6.09353 9.022C5.90494 8.8335 5.90494 8.5215 6.09353 8.333L7.43971 6.9875H4.55227V9.62C4.55227 11.7 5.85292 13 7.93395 13H9.61829C11.6993 13 13 11.7 13 9.62V3.38C13.0065 1.3 11.7058 0 9.62479 0Z" fill="#191919"/>
<path d="M0.487743 6.0125C0.22111 6.0125 0 6.2335 0 6.5C0 6.7665 0.22111 6.9875 0.487743 6.9875H4.55227V6.0125H0.487743Z" fill="#191919"/>
</svg>
