<svg width="227" height="47" viewBox="0 0 227 47" fill="none" xmlns="http://www.w3.org/2000/svg">
<path d="M148.725 46.0002C149.567 46.0625 150.409 45.8743 151.144 45.4593C151.879 45.0444 152.475 44.4212 152.857 43.6682L150.783 42.5372C150.593 42.9237 150.298 43.2483 149.93 43.473C149.563 43.6977 149.14 43.8132 148.709 43.8062C148.377 43.8154 148.047 43.7544 147.741 43.6275C147.434 43.5005 147.158 43.3103 146.93 43.0693C146.702 42.8283 146.527 42.5419 146.417 42.2288C146.307 41.9157 146.265 41.5829 146.292 41.2522C146.265 40.9215 146.307 40.5888 146.417 40.2757C146.527 39.9626 146.702 39.6762 146.93 39.4351C147.158 39.1941 147.434 39.0039 147.741 38.8769C148.047 38.75 148.377 38.6891 148.709 38.6982C149.139 38.6948 149.561 38.8119 149.927 39.0362C150.294 39.2605 150.59 39.583 150.783 39.9672L152.857 38.8532C152.482 38.0934 151.888 37.4635 151.151 37.0447C150.415 36.626 149.57 36.4377 148.725 36.5042C145.725 36.5042 143.582 38.4762 143.582 41.2532C143.582 44.0302 145.725 46.0002 148.725 46.0002ZM158.668 46.0002C159.318 46.0446 159.969 45.9546 160.583 45.7357C161.196 45.5168 161.757 45.1738 162.232 44.7281C162.706 44.2824 163.084 43.7436 163.341 43.1453C163.598 42.5471 163.729 41.9023 163.725 41.2512C163.729 40.6001 163.598 39.9553 163.341 39.3571C163.084 38.7588 162.706 38.22 162.232 37.7743C161.757 37.3286 161.196 36.9856 160.583 36.7667C159.969 36.5478 159.318 36.4578 158.668 36.5022C158.017 36.4569 157.364 36.5461 156.749 36.7644C156.135 36.9827 155.571 37.3253 155.095 37.7709C154.618 38.2165 154.239 38.7555 153.98 39.3543C153.721 39.9531 153.588 40.5988 153.59 41.2512C153.588 41.9037 153.721 42.5495 153.98 43.1483C154.239 43.7472 154.619 44.2863 155.095 44.7319C155.572 45.1775 156.135 45.5201 156.75 45.7383C157.365 45.9565 158.018 46.0457 158.669 46.0002H158.668ZM158.668 43.8062C158.34 43.8112 158.014 43.7471 157.712 43.618C157.41 43.4888 157.139 43.2976 156.916 43.0567C156.692 42.8158 156.522 42.5307 156.417 42.2198C156.311 41.9089 156.272 41.5792 156.302 41.2522C156.272 40.9252 156.311 40.5955 156.417 40.2846C156.522 39.9737 156.692 39.6886 156.916 39.4477C157.139 39.2068 157.41 39.0156 157.712 38.8864C158.014 38.7573 158.34 38.6932 158.668 38.6982C158.995 38.6937 159.32 38.7583 159.621 38.8879C159.922 39.0174 160.192 39.209 160.414 39.45C160.635 39.6911 160.804 39.9762 160.908 40.2867C161.012 40.5973 161.049 40.9263 161.017 41.2522C161.049 41.578 161.011 41.9068 160.907 42.2171C160.803 42.5275 160.635 42.8124 160.413 43.0533C160.192 43.2942 159.922 43.4857 159.621 43.6153C159.321 43.7448 158.996 43.8096 158.669 43.8052L158.668 43.8062ZM177.321 36.5062C176.688 36.4872 176.059 36.6133 175.483 36.8748C174.906 37.1364 174.397 37.5265 173.995 38.0152C173.662 37.5234 173.208 37.126 172.677 36.8616C172.145 36.5972 171.554 36.4748 170.961 36.5062C170.42 36.4839 169.88 36.5796 169.379 36.7868C168.878 36.994 168.428 37.3078 168.061 37.7062V36.6432H165.507V45.8662H168.181V41.2372C168.181 39.5912 169.021 38.8202 170.204 38.8202C171.318 38.8202 171.953 39.5062 171.953 40.9972V45.8662H174.627V41.2372C174.627 39.5912 175.467 38.8202 176.667 38.8202C177.747 38.8202 178.416 39.5062 178.416 40.9972V45.8662H181.09V40.5862C181.09 37.7712 179.515 36.5022 177.321 36.5022V36.5062Z" fill="#A1A1AA"/>
<path d="M5.36804 26.507V23.001H13.886V18.947H5.36804V15.715H15.037V11.524H0V30.697H15.393V26.506L5.36804 26.507ZM32.0681 30.698L26.398 23.084L31.876 15.853H26.371L23.632 19.605L21.0031 15.853H15.142L20.62 23.276L14.978 30.699H20.62L23.4691 26.81L26.126 30.699L32.0681 30.698ZM41.627 15.606C40.8134 15.5408 39.9956 15.6624 39.2361 15.9615C38.4767 16.2607 37.7956 16.7294 37.245 17.332V15.856H32.287V36.015H37.487V29.387C38.0321 29.9175 38.6808 30.3299 39.3924 30.5984C40.104 30.867 40.8634 30.986 41.623 30.948C45.649 30.948 48.909 27.99 48.909 23.279C48.909 18.568 45.658 15.605 41.632 15.605L41.627 15.606ZM40.527 26.806C38.774 26.806 37.405 25.519 37.405 23.273C37.405 21.027 38.775 19.74 40.527 19.74C42.279 19.74 43.649 21.027 43.649 23.273C43.649 25.519 42.289 26.808 40.536 26.808L40.527 26.806ZM49.949 30.695H55.149V10.372H49.949V30.695ZM64.602 30.942C69.502 30.942 72.983 27.742 72.983 23.242C72.983 18.777 69.505 15.6 64.602 15.6C59.754 15.6 56.221 18.777 56.221 23.242C56.226 27.739 59.764 30.944 64.612 30.944L64.602 30.942ZM64.602 26.806C62.849 26.806 61.48 25.519 61.48 23.245C61.48 20.999 62.85 19.739 64.602 19.739C66.382 19.739 67.724 20.999 67.724 23.245C67.734 25.52 66.392 26.808 64.612 26.808L64.602 26.806ZM78.982 17.63V15.85H74.024V30.695H79.224V23.875C79.224 21.275 80.676 20.205 82.785 20.205C83.179 20.2078 83.5724 20.2352 83.963 20.287V15.603C83.0342 15.5377 82.1028 15.6867 81.2408 16.0385C80.3787 16.3903 79.609 16.9355 78.991 17.632L78.982 17.63ZM99.771 23.3C99.771 18.4 96.21 15.6 91.828 15.6C87.144 15.6 83.666 18.777 83.666 23.242C83.666 27.679 87.09 30.942 92.376 30.942C95.197 30.942 97.276 30.12 98.703 28.532L95.964 25.683C95.5065 26.1129 94.9683 26.4479 94.3807 26.6688C93.793 26.8897 93.1675 26.992 92.54 26.97C91.7508 27.0563 90.956 26.8659 90.2916 26.4312C89.6271 25.9966 89.1342 25.3447 88.897 24.587H99.689C99.726 24.178 99.78 23.685 99.78 23.302L99.771 23.3ZM91.855 19.3C92.5886 19.2669 93.3079 19.5102 93.8708 19.9818C94.4336 20.4534 94.7991 21.119 94.895 21.847H88.826C88.9267 21.1217 89.2933 20.4597 89.8548 19.9895C90.4162 19.5194 91.1323 19.2747 91.864 19.303L91.855 19.3Z" fill="#A1A1AA"/>
<path d="M169.142 16.416H196.229L201.94 0L208.862 16.572H226.176L211.617 27.185L217.484 43.656L201.884 33.967L187.384 43.656L192.189 27.185H196.229L194.175 34.885L201.884 29.055L209.767 34.885L206.845 26.179L214.495 20.355H204.819L201.94 12.655L198.974 20.355H169.142V16.416Z" fill="#A1A1AA"/>
<path d="M102.628 30.6971H108.051V15.8241H113.912V11.524H96.7402V15.8241H102.629L102.628 30.6971ZM119.938 15.605C117.639 15.566 115.373 16.1633 113.392 17.331L115.145 20.8641C116.32 20.0254 117.728 19.5754 119.171 19.577C121.225 19.577 122.239 20.4261 122.321 21.9331H119.363C114.763 21.9331 112.763 23.633 112.763 26.37C112.763 28.945 114.735 30.9441 118.296 30.9441C120.46 30.9441 121.939 30.2041 122.678 28.7801V30.6971H127.526V22.456C127.525 17.742 124.758 15.605 119.938 15.605ZM119.747 27.6561C118.514 27.6561 117.802 27.026 117.802 26.15C117.802 25.25 118.402 24.6441 120.075 24.6441H122.321V25.9311C122.139 26.46 121.789 26.9149 121.324 27.2264C120.86 27.5378 120.306 27.6887 119.747 27.6561ZM129.447 30.6961H134.647V10.373H129.447V30.6961ZM151.824 23.2961C151.824 18.3961 148.263 15.596 143.881 15.596C139.197 15.596 135.719 18.7731 135.719 23.2381C135.719 27.6751 139.143 30.938 144.429 30.938C147.25 30.938 149.329 30.1161 150.756 28.5281L148.017 25.679C147.56 26.1089 147.022 26.4439 146.434 26.6648C145.846 26.8857 145.221 26.9881 144.593 26.966C143.804 27.0523 143.009 26.8619 142.345 26.4273C141.68 25.9926 141.187 25.3408 140.95 24.5831H151.738C151.765 24.1781 151.82 23.685 151.82 23.302L151.824 23.2961ZM143.908 19.2961C144.642 19.263 145.361 19.5063 145.924 19.9779C146.487 20.4494 146.852 21.115 146.948 21.843H140.864C140.966 21.1181 141.333 20.4568 141.895 19.9874C142.457 19.518 143.173 19.2741 143.904 19.303L143.908 19.2961ZM162.533 15.596C161.662 15.5681 160.795 15.719 159.985 16.0392C159.175 16.3595 158.439 16.8423 157.822 17.4581V15.856H152.864V30.701H158.064V23.525C158.064 21.06 159.351 20.0191 161.022 20.0191C162.528 20.0191 163.46 20.9191 163.46 23.0591V30.701H168.66V22.2101C168.665 17.6051 166.008 15.605 162.529 15.605L162.533 15.596ZM179.511 26.456C179.039 26.7653 178.486 26.9275 177.922 26.9221C177.703 26.9316 177.483 26.893 177.28 26.8089C177.077 26.7249 176.895 26.5974 176.746 26.4354C176.597 26.2734 176.486 26.0809 176.419 25.8713C176.353 25.6617 176.333 25.4401 176.361 25.2221V12.5411H171.161V25.2771C171.161 29.0841 173.38 30.9471 177.187 30.9471C178.447 30.9947 179.696 30.7013 180.802 30.0981L179.511 26.456Z" fill="#A1A1AA"/>
<path d="M142.222 42.498H139.304V45.416H142.222V42.498Z" fill="#A1A1AA"/>
</svg>
