<svg xmlns="http://www.w3.org/2000/svg" width="226.177" height="46" viewBox="0 0 226.177 46">
  <g id="vector-logo" transform="translate(-241.573 -280.349)">
    <path id="explore" d="M-554.058-110.749v-3.506h8.518v-4.054h-8.518v-3.232h9.669v-4.191h-15.037v19.173h15.393v-4.191Zm26.7,4.191-5.67-7.614,5.478-7.231h-5.505l-2.739,3.752-2.629-3.752h-5.861l5.478,7.423-5.642,7.423h5.642l2.849-3.889,2.657,3.889Zm9.559-15.092a5.356,5.356,0,0,0-4.382,1.726V-121.4h-4.958v20.159h5.2v-6.628a5.534,5.534,0,0,0,4.136,1.561c4.026,0,7.286-2.958,7.286-7.669S-513.768-121.651-517.794-121.651Zm-1.1,11.2c-1.753,0-3.122-1.287-3.122-3.533s1.37-3.533,3.122-3.533,3.122,1.287,3.122,3.533S-517.137-110.448-518.89-110.448Zm9.422,3.889h5.2v-20.323h-5.2Zm14.653.247c4.9,0,8.381-3.2,8.381-7.7,0-4.465-3.478-7.642-8.381-7.642-4.848,0-8.381,3.177-8.381,7.642C-503.2-109.517-499.662-106.312-494.814-106.312Zm0-4.136c-1.753,0-3.122-1.287-3.122-3.561,0-2.246,1.37-3.506,3.122-3.506,1.78,0,3.122,1.26,3.122,3.506C-491.692-111.736-493.034-110.448-494.814-110.448Zm14.38-9.176v-1.78h-4.958v14.845h5.2v-6.82c0-2.6,1.452-3.67,3.561-3.67a9.477,9.477,0,0,1,1.178.082v-4.684A6.077,6.077,0,0,0-480.435-119.624Zm20.789,5.67c0-4.9-3.561-7.7-7.943-7.7-4.684,0-8.162,3.177-8.162,7.642,0,4.437,3.424,7.7,8.71,7.7,2.821,0,4.9-.822,6.327-2.41l-2.739-2.849a4.757,4.757,0,0,1-3.424,1.287,3.427,3.427,0,0,1-3.643-2.383h10.792C-459.7-113.078-459.646-113.571-459.646-113.954Zm-7.916-4a2.933,2.933,0,0,1,3.04,2.547H-470.6A2.952,2.952,0,0,1-467.562-117.953Z" transform="translate(801 417.605)" fill="#262626"/>
    <path id="Path_211" data-name="Path 211" d="M-102.665-50.016a4.279,4.279,0,0,0,4.132-2.332l-2.074-1.131a2.269,2.269,0,0,1-2.074,1.269,2.36,2.36,0,0,1-2.417-2.554,2.36,2.36,0,0,1,2.417-2.554,2.3,2.3,0,0,1,2.074,1.269l2.074-1.114a4.237,4.237,0,0,0-4.132-2.349c-3,0-5.143,1.972-5.143,4.749S-105.665-50.016-102.665-50.016Zm9.943,0a4.734,4.734,0,0,0,5.057-4.749,4.734,4.734,0,0,0-5.057-4.749A4.748,4.748,0,0,0-97.8-54.765,4.748,4.748,0,0,0-92.721-50.016Zm0-2.194a2.34,2.34,0,0,1-2.366-2.554,2.34,2.34,0,0,1,2.366-2.554,2.328,2.328,0,0,1,2.349,2.554A2.328,2.328,0,0,1-92.721-52.211Zm18.653-7.3a4.147,4.147,0,0,0-3.326,1.509,3.443,3.443,0,0,0-3.034-1.509,3.735,3.735,0,0,0-2.9,1.2v-1.063h-2.554v9.223h2.674v-4.629c0-1.646.84-2.417,2.023-2.417,1.114,0,1.749.686,1.749,2.177v4.869h2.674v-4.629c0-1.646.84-2.417,2.04-2.417,1.08,0,1.749.686,1.749,2.177v4.869H-70.3v-5.28C-70.3-58.245-71.875-59.514-74.069-59.514Z" transform="translate(492.964 376.365)" fill="#262626"/>
    <path id="Path_207" data-name="Path 207" d="M-5502.43,325.972h27.087l5.711-16.416,6.922,16.572h17.314l-14.559,10.613,5.867,16.471-15.6-9.689-14.5,9.689,4.805-16.471h4.04l-2.054,7.7,7.709-5.83,7.883,5.83-2.922-8.706,7.65-5.824h-9.676l-2.879-7.7-2.966,7.7h-29.832Z" transform="translate(5913.146 -29.207)" fill="#0e80ca"/>
    <path id="Talent" d="M50.434-106.559h5.423v-14.873h5.861v-4.3H44.546v4.3h5.889Zm17.31-15.092a12.474,12.474,0,0,0-6.546,1.726l1.753,3.533a6.916,6.916,0,0,1,4.026-1.287c2.054,0,3.068.849,3.15,2.356H67.169c-4.6,0-6.6,1.7-6.6,4.437,0,2.575,1.972,4.574,5.533,4.574,2.164,0,3.643-.74,4.382-2.164v1.917h4.848V-114.8C75.331-119.514,72.565-121.651,67.745-121.651ZM67.553-109.6c-1.233,0-1.945-.63-1.945-1.506,0-.9.6-1.506,2.273-1.506h2.246v1.287A2.564,2.564,0,0,1,67.553-109.6Zm9.7,3.04h5.2v-20.323h-5.2Zm22.377-7.4c0-4.9-3.561-7.7-7.943-7.7-4.684,0-8.162,3.177-8.162,7.642,0,4.437,3.424,7.7,8.71,7.7,2.821,0,4.9-.822,6.327-2.41l-2.739-2.849a4.757,4.757,0,0,1-3.424,1.287,3.427,3.427,0,0,1-3.643-2.383H99.544C99.571-113.078,99.626-113.571,99.626-113.954Zm-7.916-4a2.933,2.933,0,0,1,3.04,2.547H88.67A2.952,2.952,0,0,1,91.71-117.953Zm18.625-3.7a6.377,6.377,0,0,0-4.711,1.862V-121.4h-4.958v14.845h5.2v-7.176c0-2.465,1.287-3.506,2.958-3.506,1.506,0,2.438.9,2.438,3.04v7.642h5.2v-8.491C116.471-119.651,113.814-121.651,110.335-121.651ZM127.317-110.8a2.848,2.848,0,0,1-1.589.466,1.508,1.508,0,0,1-1.561-1.7v-12.681h-5.2v12.736c0,3.807,2.219,5.67,6.026,5.67a7,7,0,0,0,3.615-.849Z" transform="translate(293.768 417.605)" fill="#0e80ca"/>
    <rect id="Rectangle_1892" data-name="Rectangle 1892" width="2.918" height="2.918" transform="translate(380.878 322.847)" fill="#262626"/>
  </g>
</svg>
