<svg xmlns="http://www.w3.org/2000/svg" width="19.196" height="15.083" viewBox="0 0 19.196 15.083">
  <path id="envelope" d="M19.2,4.864v8.506a1.719,1.719,0,0,1-1.714,1.714H1.714a1.65,1.65,0,0,1-1.21-.5A1.651,1.651,0,0,1,0,13.369V4.864A5.7,5.7,0,0,0,1.082,5.8q3.878,2.635,5.324,3.7.611.45.991.7a6.118,6.118,0,0,0,1.012.514,3.088,3.088,0,0,0,1.178.262h.021a3.088,3.088,0,0,0,1.178-.262,6.118,6.118,0,0,0,1.012-.514q.38-.252.992-.7,1.821-1.318,5.334-3.7A5.9,5.9,0,0,0,19.2,4.863Zm0-3.149a2.831,2.831,0,0,1-.525,1.617,5.093,5.093,0,0,1-1.307,1.318L12.351,8.131q-.107.075-.455.327t-.579.407q-.23.155-.557.348a3.223,3.223,0,0,1-.616.289,1.719,1.719,0,0,1-.535.1H9.587a1.7,1.7,0,0,1-.535-.1,3.267,3.267,0,0,1-.616-.289q-.327-.192-.557-.348T7.3,8.458l-.455-.327Q5.87,7.445,4.039,6.176t-2.2-1.527A5.313,5.313,0,0,1,.589,3.412,2.506,2.506,0,0,1,0,1.949,2.162,2.162,0,0,1,.445.557,1.528,1.528,0,0,1,1.714,0H17.482a1.656,1.656,0,0,1,1.205.5,1.642,1.642,0,0,1,.509,1.21Z" fill="#2c8bed"/>
</svg>
