<svg xmlns="http://www.w3.org/2000/svg" width="19.197" height="15.083" viewBox="0 0 19.197 15.083">
  <g id="camera" transform="translate(-2.249 -5.625)">
    <path id="Path_220" data-name="Path 220" d="M18.985,17.367a2.742,2.742,0,1,1-2.742-2.742A2.742,2.742,0,0,1,18.985,17.367Z" transform="translate(-4.394 -3.515)" fill="#1a2d40"/>
    <path id="Path_221" data-name="Path 221" d="M19.389,8.367H16.862a.623.623,0,0,1-.412-.215L15.338,6.4a.665.665,0,0,0-.059-.079,1.913,1.913,0,0,0-1.461-.694H9.876a1.91,1.91,0,0,0-1.46.695.665.665,0,0,0-.059.079L7.246,8.156a.561.561,0,0,1-.369.215V8.027a.686.686,0,0,0-.686-.686H5.163a.686.686,0,0,0-.686.686V8.37H4.306a2.059,2.059,0,0,0-2.057,2.057v8.224a2.059,2.059,0,0,0,2.057,2.057H19.389a2.059,2.059,0,0,0,2.057-2.057V10.424a2.059,2.059,0,0,0-2.057-2.057Zm-7.542,9.6a4.114,4.114,0,1,1,4.114-4.114,4.114,4.114,0,0,1-4.114,4.114Z" fill="#1a2d40"/>
  </g>
</svg>
