<svg width="50" height="50" viewBox="0 0 50 50" fill="none" xmlns="http://www.w3.org/2000/svg">
<path opacity="0.4" d="M35.418 18.7513C35.418 26.8138 28.418 33.3346 19.793 33.3346L17.8555 35.668L16.7096 37.043C15.7305 38.2097 13.8555 37.9596 13.2096 36.5638L10.418 30.4179C6.6263 27.7513 4.16797 23.5221 4.16797 18.7513C4.16797 10.6888 11.168 4.16797 19.793 4.16797C26.0846 4.16797 31.5221 7.64715 33.9596 12.6472C34.8971 14.5013 35.418 16.5638 35.418 18.7513Z" fill="#E53D6F"/>
<path d="M45.8346 26.7942C45.8346 31.5651 43.3763 35.7943 39.5846 38.461L36.793 44.6067C36.1471 46.0025 34.2721 46.2735 33.2929 45.086L30.2096 41.3776C25.168 41.3776 20.668 39.1484 17.8555 35.6692L19.793 33.3359C28.418 33.3359 35.418 26.8151 35.418 18.7526C35.418 16.5651 34.8971 14.5026 33.9596 12.6484C40.7721 14.2109 45.8346 19.9609 45.8346 26.7942Z" fill="#E53D6F"/>
<path d="M25.0026 20.3125H14.5859C13.7318 20.3125 13.0234 19.6042 13.0234 18.75C13.0234 17.8958 13.7318 17.1875 14.5859 17.1875H25.0026C25.8568 17.1875 26.5651 17.8958 26.5651 18.75C26.5651 19.6042 25.8568 20.3125 25.0026 20.3125Z" fill="#F0F0F1"/>
</svg>
