<svg width="104" height="109" viewBox="0 0 104 109" fill="none" xmlns="http://www.w3.org/2000/svg">
<path fill-rule="evenodd" clip-rule="evenodd" d="M51.744 0.146484C72.55 0.146484 90.5315 11.4051 98.5921 27.5851C101.692 33.5852 103.415 40.2594 103.415 47.3382C103.415 73.4284 80.2662 94.5299 51.744 94.5299L45.3368 102.081L41.5476 106.53C38.3096 110.305 32.1091 109.496 29.9734 104.979L20.7415 85.0915C8.20277 76.4622 0.0732422 62.7766 0.0732422 47.3382C0.0732422 21.2479 23.2217 0.146484 51.744 0.146484ZM29.6014 58.1666C33.6781 58.1666 36.9829 54.9198 36.9829 50.9146C36.9829 46.9094 33.6781 43.6626 29.6014 43.6626C25.5247 43.6626 22.2198 46.9094 22.2198 50.9146C22.2198 54.9198 25.5247 58.1666 29.6014 58.1666ZM59.1225 50.9146C59.1225 54.9198 55.8177 58.1666 51.741 58.1666C47.6643 58.1666 44.3595 54.9198 44.3595 50.9146C44.3595 46.9094 47.6643 43.6626 51.741 43.6626C55.8177 43.6626 59.1225 46.9094 59.1225 50.9146ZM73.8876 58.1666C77.9643 58.1666 81.2691 54.9198 81.2691 50.9146C81.2691 46.9094 77.9643 43.6626 73.8876 43.6626C69.8109 43.6626 66.506 46.9094 66.506 50.9146C66.506 54.9198 69.8109 58.1666 73.8876 58.1666Z" fill="#191919"/>
</svg>
