<svg width="146" height="31" viewBox="0 0 146 31" fill="none" xmlns="http://www.w3.org/2000/svg">
<path d="M33.4551 20.6582C33.0684 20.9805 32.5742 21.1416 31.9727 21.1416C31.3711 21.1416 30.8698 20.9805 30.4688 20.6582C30.0749 20.3288 29.7812 19.8776 29.5879 19.3047C29.4017 18.7246 29.3086 18.0586 29.3086 17.3066V17.0811C29.3086 16.3363 29.4017 15.6774 29.5879 15.1045C29.7812 14.5316 30.0749 14.0804 30.4688 13.751C30.8626 13.4215 31.3568 13.2568 31.9512 13.2568C32.5599 13.2568 33.0612 13.4215 33.4551 13.751C33.849 14.0804 34.1426 14.5316 34.3359 15.1045C34.5293 15.6774 34.626 16.3363 34.626 17.0811V17.3066C34.626 18.0586 34.5293 18.7246 34.3359 19.3047C34.1426 19.8776 33.849 20.3288 33.4551 20.6582Z" fill="white" fill-opacity="0.95"/>
<path d="M45.6689 20.7549C45.2966 20.9769 44.8525 21.0879 44.3369 21.0879C43.4489 21.0879 42.8044 20.7692 42.4033 20.1318C42.0094 19.4945 41.8125 18.6387 41.8125 17.5645V17.3389C41.8125 16.5368 41.902 15.835 42.0811 15.2334C42.2601 14.6247 42.5358 14.152 42.9082 13.8154C43.2878 13.4717 43.7712 13.2998 44.3584 13.2998C44.8597 13.2998 45.2966 13.4215 45.6689 13.665C46.0485 13.9014 46.3564 14.2272 46.5928 14.6426V19.7666C46.3493 20.1963 46.0413 20.5257 45.6689 20.7549Z" fill="white" fill-opacity="0.95"/>
<path d="M59.4297 16.0391H54.9287L54.8965 15.9854C54.9681 15.4554 55.1006 14.9827 55.2939 14.5674C55.4945 14.1449 55.7594 13.8118 56.0889 13.5684C56.4183 13.3249 56.8014 13.2031 57.2383 13.2031C57.7396 13.2031 58.1514 13.3105 58.4736 13.5254C58.8031 13.7402 59.043 14.041 59.1934 14.4277C59.3509 14.8073 59.4297 15.2513 59.4297 15.7598V16.0391Z" fill="white" fill-opacity="0.95"/>
<path d="M98.3809 20.7549C98.0156 20.9769 97.5716 21.0879 97.0488 21.0879C96.1536 21.0879 95.4984 20.7692 95.083 20.1318C94.6748 19.4945 94.4707 18.6387 94.4707 17.5645V17.3389C94.4707 16.5368 94.5602 15.835 94.7393 15.2334C94.9255 14.6247 95.2083 14.152 95.5879 13.8154C95.9746 13.4717 96.4652 13.2998 97.0596 13.2998C97.568 13.2998 98.0085 13.418 98.3809 13.6543C98.7533 13.8835 99.0576 14.2021 99.2939 14.6104V19.7881C99.0576 20.2106 98.7533 20.5329 98.3809 20.7549Z" fill="white" fill-opacity="0.95"/>
<path d="M131.316 16.0391H126.815L126.783 15.9854C126.855 15.4554 126.987 14.9827 127.181 14.5674C127.381 14.1449 127.646 13.8118 127.976 13.5684C128.305 13.3249 128.688 13.2031 129.125 13.2031C129.626 13.2031 130.038 13.3105 130.36 13.5254C130.69 13.7402 130.93 14.041 131.08 14.4277C131.238 14.8073 131.316 15.2513 131.316 15.7598V16.0391Z" fill="white" fill-opacity="0.95"/>
<path fill-rule="evenodd" clip-rule="evenodd" d="M2 0C0.895431 0 0 0.89543 0 2V29C0 30.1046 0.895432 31 2 31H144C145.105 31 146 30.1046 146 29V2C146 0.89543 145.105 0 144 0H2ZM4.77344 21.3457V23H10.8857V21.3457L9.02734 21.0234V17.1992L8.8877 10.6035L8.94141 10.5928L13.9258 22.6455H15.8916L20.7363 10.5283L20.79 10.5391L20.7686 17.3818V21.0234L18.9746 21.3457V23H25.0869V21.3457L23.3789 21.0234V9.34668L25.0869 9.02441V7.35938H19.4473L15 18.6709H14.9355L10.3486 7.35938H4.77344V9.02441L6.4707 9.34668V21.0234L4.77344 21.3457ZM29.0938 22.4736C29.8958 22.9749 30.8555 23.2256 31.9727 23.2256C33.0827 23.2256 34.0352 22.9749 34.8301 22.4736C35.6322 21.9723 36.248 21.2777 36.6777 20.3896C37.1074 19.4945 37.3223 18.4668 37.3223 17.3066V17.0811C37.3223 15.9209 37.1074 14.8968 36.6777 14.0088C36.248 13.1208 35.6322 12.4261 34.8301 11.9248C34.028 11.4163 33.0684 11.1621 31.9512 11.1621C30.8483 11.1621 29.8958 11.4163 29.0938 11.9248C28.2917 12.4333 27.6758 13.1315 27.2461 14.0195C26.8164 14.9076 26.6016 15.9281 26.6016 17.0811V17.3066C26.6016 18.4668 26.8164 19.4945 27.2461 20.3896C27.6758 21.2777 28.2917 21.9723 29.0938 22.4736ZM41.168 22.5166C41.834 22.9893 42.6361 23.2256 43.5742 23.2256C44.2689 23.2256 44.8776 23.0895 45.4004 22.8174C45.9303 22.5381 46.3779 22.1299 46.7432 21.5928L46.958 23H50.9111V21.3457L49.2998 21.0234V6.24219H44.8848V7.90723L46.5928 8.22949V12.6338C46.2347 12.1611 45.805 11.7995 45.3037 11.5488C44.8096 11.291 44.2295 11.1621 43.5635 11.1621C42.6396 11.1621 41.8411 11.4199 41.168 11.9355C40.502 12.4512 39.9899 13.1709 39.6318 14.0947C39.2809 15.0186 39.1055 16.0999 39.1055 17.3389V17.5645C39.1055 18.696 39.2809 19.6878 39.6318 20.54C39.9899 21.3851 40.502 22.0439 41.168 22.5166ZM54.6387 22.4951C55.4551 22.9821 56.4111 23.2256 57.5068 23.2256C58.4521 23.2256 59.2793 23.0931 59.9883 22.8281C60.6973 22.5632 61.2809 22.2373 61.7393 21.8506L60.8906 20.1533C60.4538 20.4684 59.9775 20.7119 59.4619 20.8838C58.9463 21.0557 58.3734 21.1416 57.7432 21.1416C57.1416 21.1416 56.6296 21.0055 56.207 20.7334C55.7917 20.4613 55.4694 20.0889 55.2402 19.6162C55.0182 19.1436 54.8929 18.6029 54.8643 17.9941L54.8857 17.9404H62.0186V16.3936C62.0186 15.305 61.8359 14.374 61.4707 13.6006C61.1055 12.82 60.5648 12.2184 59.8486 11.7959C59.1396 11.3734 58.2588 11.1621 57.2061 11.1621C56.2178 11.1621 55.3369 11.4163 54.5635 11.9248C53.79 12.4261 53.1813 13.1208 52.7373 14.0088C52.3005 14.8896 52.082 15.8958 52.082 17.0273V17.4785C52.082 18.5957 52.304 19.5876 52.748 20.4541C53.1992 21.3206 53.8294 22.001 54.6387 22.4951ZM63.4043 21.3457V23H69.3447V21.3457L67.7227 21.0234V6.24219H63.3076V7.90723L65.0264 8.22949V21.0234L63.4043 21.3457ZM70.4941 21.3457V23H76.4131V21.3457L74.8125 21.0234V11.377H70.3975V13.042L72.1055 13.3643V21.0234L70.4941 21.3457ZM71.998 6.24219V8.74512H74.8125V6.24219H71.998ZM77.5732 21.3457V23H83.3633V21.3457L81.8916 21.0234V14.6211C82.1351 14.2057 82.4502 13.8835 82.8369 13.6543C83.2308 13.418 83.6891 13.2998 84.2119 13.2998C84.9066 13.2998 85.4294 13.486 85.7803 13.8584C86.1312 14.2236 86.3066 14.8467 86.3066 15.7275V21.0234L84.792 21.3457V23H90.625V21.3457L89.0137 21.0234V15.7061C89.0137 14.1449 88.6807 12.999 88.0146 12.2686C87.3486 11.5309 86.4176 11.1621 85.2217 11.1621C84.4912 11.1621 83.8359 11.3304 83.2559 11.667C82.6829 11.9964 82.2031 12.4619 81.8164 13.0635L81.6768 11.377H77.4873V13.042L79.1846 13.3643V21.0234L77.5732 21.3457ZM94.9219 27.458C95.6237 27.6156 96.2611 27.6943 96.834 27.6943C97.9154 27.6943 98.8428 27.4902 99.6162 27.082C100.39 26.681 100.98 26.1081 101.389 25.3633C101.797 24.6257 102.001 23.752 102.001 22.7422V13.34L103.397 13.042V11.377H99.6699L99.4658 12.8379C99.1006 12.3008 98.6566 11.889 98.1338 11.6025C97.611 11.3089 96.9951 11.1621 96.2861 11.1621C95.348 11.1621 94.5387 11.4199 93.8584 11.9355C93.1852 12.4512 92.666 13.1709 92.3008 14.0947C91.9427 15.0186 91.7637 16.0999 91.7637 17.3389V17.5645C91.7637 18.6888 91.9427 19.6771 92.3008 20.5293C92.666 21.3815 93.1888 22.0439 93.8691 22.5166C94.5566 22.9893 95.373 23.2256 96.3184 23.2256C96.9557 23.2256 97.5215 23.1074 98.0156 22.8711C98.5098 22.6276 98.9359 22.2767 99.2939 21.8184V22.7314C99.2939 23.6266 99.0863 24.3177 98.6709 24.8047C98.2627 25.2988 97.6146 25.5459 96.7266 25.5459C96.2324 25.5459 95.7096 25.4814 95.1582 25.3525C94.6068 25.2236 94.1019 25.0553 93.6436 24.8477L93.085 26.8242C93.6149 27.0964 94.2272 27.3076 94.9219 27.458ZM105.148 20.4971V23H107.845V20.4971H105.148ZM109.821 21.3457V23H115.611V21.3457L114.14 21.0234V14.6211C114.383 14.2057 114.698 13.8835 115.085 13.6543C115.479 13.418 115.937 13.2998 116.46 13.2998C117.155 13.2998 117.677 13.486 118.028 13.8584C118.379 14.2236 118.555 14.8467 118.555 15.7275V21.0234L117.04 21.3457V23H122.873V21.3457L121.262 21.0234V15.7061C121.262 14.1449 120.929 12.999 120.263 12.2686C119.597 11.5309 118.666 11.1621 117.47 11.1621C116.739 11.1621 116.084 11.3304 115.504 11.667C114.931 11.9964 114.451 12.4619 114.064 13.0635L113.925 11.377H109.735V13.042L111.433 13.3643V21.0234L109.821 21.3457ZM126.525 22.4951C127.342 22.9821 128.298 23.2256 129.394 23.2256C130.339 23.2256 131.166 23.0931 131.875 22.8281C132.584 22.5632 133.168 22.2373 133.626 21.8506L132.777 20.1533C132.34 20.4684 131.864 20.7119 131.349 20.8838C130.833 21.0557 130.26 21.1416 129.63 21.1416C129.028 21.1416 128.516 21.0055 128.094 20.7334C127.678 20.4613 127.356 20.0889 127.127 19.6162C126.905 19.1436 126.78 18.6029 126.751 17.9941L126.772 17.9404H133.905V16.3936C133.905 15.305 133.723 14.374 133.357 13.6006C132.992 12.82 132.451 12.2184 131.735 11.7959C131.026 11.3734 130.146 11.1621 129.093 11.1621C128.104 11.1621 127.224 11.4163 126.45 11.9248C125.677 12.4261 125.068 13.1208 124.624 14.0088C124.187 14.8896 123.969 15.8958 123.969 17.0273V17.4785C123.969 18.5957 124.191 19.5876 124.635 20.4541C125.086 21.3206 125.716 22.001 126.525 22.4951ZM137.504 22.377C138.055 22.9284 138.825 23.2041 139.813 23.2041C140.186 23.2041 140.573 23.1719 140.974 23.1074C141.382 23.043 141.743 22.9642 142.059 22.8711L141.779 20.9697C141.629 21.0055 141.428 21.0413 141.178 21.0771C140.934 21.113 140.712 21.1309 140.512 21.1309C140.161 21.1309 139.882 21.0199 139.674 20.7979C139.473 20.5687 139.373 20.207 139.373 19.7129V13.3105H141.672V11.377H139.373V8.55176H136.677V11.377H134.979V13.3105H136.677V19.7129C136.677 20.9303 136.952 21.8184 137.504 22.377Z" fill="white" fill-opacity="0.95"/>
</svg>
