<svg xmlns="http://www.w3.org/2000/svg" width="12.733" height="12.733" viewBox="0 0 12.733 12.733">
  <path id="admin-media" d="M10.289,8.874V3.922a.709.709,0,0,0-.707-.707H8.4L7.459,1.8H4.63L3.689,3.215H2.507a.709.709,0,0,0-.707.707V8.874a.709.709,0,0,0,.707.707H9.581A.709.709,0,0,0,10.289,8.874Zm-4.244-4.6A1.769,1.769,0,1,1,4.276,6.044,1.769,1.769,0,0,1,6.044,4.276ZM11,5.337h3.537v7.428a1.769,1.769,0,1,1-1.415-1.733V7.459H11Zm-2.83,5.695v-.743H9.581v2.476a1.769,1.769,0,1,1-1.415-1.733Z" transform="translate(-1.8 -1.8)" fill="#98a9bb"/>
</svg>
