<svg width="50" height="50" viewBox="0 0 50 50" fill="none" xmlns="http://www.w3.org/2000/svg">
<path d="M39.4557 7.28906H10.5391C9.6849 7.28906 8.97656 6.58073 8.97656 5.72656C8.97656 4.8724 9.6849 4.16406 10.5391 4.16406H39.4557C40.3099 4.16406 41.0182 4.8724 41.0182 5.72656C41.0182 6.58073 40.3099 7.28906 39.4557 7.28906Z" fill="#37C96A"/>
<path d="M39.4557 45.8359H10.5391C9.6849 45.8359 8.97656 45.1276 8.97656 44.2734C8.97656 43.4193 9.6849 42.7109 10.5391 42.7109H39.4557C40.3099 42.7109 41.0182 43.4193 41.0182 44.2734C41.0182 45.1276 40.3099 45.8359 39.4557 45.8359Z" fill="#37C96A"/>
<path opacity="0.4" d="M5.73047 15.832V34.1654C5.73047 37.6237 8.52214 40.4154 11.9805 40.4154H38.0221C41.4805 40.4154 44.2721 37.6237 44.2721 34.1654V15.832C44.2721 12.3737 41.4805 9.58203 38.0221 9.58203H11.9805C8.52214 9.58203 5.73047 12.3737 5.73047 15.832Z" fill="#37C96A"/>
</svg>
