<svg width="80" height="81" viewBox="0 0 80 81" fill="none" xmlns="http://www.w3.org/2000/svg">
<path d="M40 80.5833C62.0914 80.5833 80 62.5738 80 40.358C80 18.1423 62.0914 0.132812 40 0.132812C17.9086 0.132812 0 18.1423 0 40.358C0 62.5738 17.9086 80.5833 40 80.5833Z" fill="url(#paint0_linear_553_16505)"/>
<path d="M64 80.5826H16V28.5579C18.2624 28.5554 20.4314 27.6505 22.0312 26.0417C23.6309 24.4329 24.5308 22.2517 24.5333 19.9766H55.4667C55.4643 21.1036 55.6842 22.2199 56.1136 23.261C56.543 24.302 57.1735 25.2471 57.9685 26.0414C58.7584 26.8412 59.6983 27.4754 60.7336 27.9074C61.7689 28.3393 62.8791 28.5604 64 28.5579V80.5826Z" fill="white"/>
<path d="M40.0002 54.8398C47.0694 54.8398 52.8002 49.0768 52.8002 41.9678C52.8002 34.8587 47.0694 29.0957 40.0002 29.0957C32.931 29.0957 27.2002 34.8587 27.2002 41.9678C27.2002 49.0768 32.931 54.8398 40.0002 54.8398Z" fill="#4285F4"/>
<path d="M44.5255 48.0365L40 43.4855L35.4745 48.0365L33.966 46.5195L38.4915 41.9685L33.966 37.4176L35.4745 35.9006L40 40.4515L44.5255 35.9006L46.034 37.4176L41.5085 41.9685L46.034 46.5195L44.5255 48.0365Z" fill="white"/>
<path d="M46.9335 58.0566H33.0668C32.1831 58.0566 31.4668 58.777 31.4668 59.6656C31.4668 60.5543 32.1831 61.2747 33.0668 61.2747H46.9335C47.8171 61.2747 48.5335 60.5543 48.5335 59.6656C48.5335 58.777 47.8171 58.0566 46.9335 58.0566Z" fill="#DFEAFB"/>
<path d="M51.7332 64.4941H28.2665C27.3828 64.4941 26.6665 65.2145 26.6665 66.1031C26.6665 66.9918 27.3828 67.7122 28.2665 67.7122H51.7332C52.6168 67.7122 53.3332 66.9918 53.3332 66.1031C53.3332 65.2145 52.6168 64.4941 51.7332 64.4941Z" fill="#DFEAFB"/>
<defs>
<linearGradient id="paint0_linear_553_16505" x1="40" y1="0.132812" x2="40" y2="80.5833" gradientUnits="userSpaceOnUse">
<stop stop-color="#E3ECFA"/>
<stop offset="1" stop-color="#DAE7FF"/>
</linearGradient>
</defs>
</svg>
