<svg width="349" height="194" viewBox="0 0 349 194" fill="none" xmlns="http://www.w3.org/2000/svg">
<path d="M18.4695 25.048L20.3885 4.05331C20.7779 3.71947 21.1759 3.56817 21.5827 3.59941C21.9895 3.63064 22.3007 3.72274 22.5163 3.8757C22.4437 6.89366 22.3328 9.37445 22.1836 11.3181L20.7071 26.993C20.6724 27.445 20.6394 27.8744 20.6082 28.2812C19.8016 28.7194 19.1497 28.9195 18.6525 28.8813L18.2509 28.7822C18.0336 28.6519 17.8597 28.5476 17.7293 28.4694C17.6198 28.4155 17.4738 28.2452 17.2912 27.9583C17.1069 27.6941 16.9852 27.5029 16.926 27.3847C16.8669 27.2665 16.7278 27.0057 16.5087 26.6025C16.3122 26.2009 16.174 25.9288 16.094 25.7863C16.0157 25.6212 15.4506 24.5434 14.3985 22.553C13.3708 20.5418 12.717 19.2867 12.4371 18.7878C12.1571 18.2889 11.5563 17.2311 10.6347 15.6145C9.73572 13.9996 9.02105 12.7967 8.49071 12.0057C6.92057 9.6573 5.45306 7.74867 4.08817 6.27987C3.97384 9.24916 3.78738 12.4175 3.52881 15.7849C3.27023 19.1524 2.92651 22.7406 2.49762 26.5496C2.19518 26.9356 1.42246 27.0808 0.179454 26.9854C1.15995 14.2163 1.71867 6.34799 1.8556 3.38043C2.31624 3.0066 2.74997 2.8353 3.15677 2.86654C3.56357 2.89777 3.9504 3.04114 4.31724 3.29665C4.87708 3.70337 5.49084 4.2961 6.15851 5.07484C8.37017 7.6544 10.4211 10.5513 12.3112 13.7654C14.2239 16.9813 16.2767 20.7422 18.4695 25.048ZM27.6348 14.2601C28.9227 12.5857 30.6515 11.8319 32.8212 11.9985C34.9908 12.1651 36.652 13.1793 37.8048 15.041C38.9803 16.9044 39.4812 18.9662 39.3077 21.2262C39.1359 23.4636 38.2782 25.3074 36.7347 26.7574C35.1911 28.2075 33.3232 28.8484 31.131 28.6801C28.9388 28.5117 27.3924 27.7792 26.4917 26.4824C25.5927 25.163 25.2291 23.3847 25.4009 21.1472C25.6248 18.2318 26.3694 15.9361 27.6348 14.2601ZM28.9884 16.1713C28.6269 17.0301 28.3333 17.8942 28.1074 18.7635C27.9041 19.6344 27.773 20.4541 27.714 21.2225C27.6567 21.9684 27.6603 22.662 27.7247 23.3035C27.7908 23.9224 27.9361 24.5473 28.1604 25.1783C28.3865 25.7868 28.7568 26.2926 29.2715 26.6959C29.7879 27.0765 30.4189 27.2955 31.1647 27.3527C32.679 27.469 33.9923 26.9447 35.1047 25.7798C36.2398 24.6166 36.875 23.1536 37.0104 21.3908C37.1457 19.628 36.8021 17.8852 35.9796 16.1625C35.1814 14.419 34.1043 13.4951 32.7483 13.391C31.9347 13.3285 31.2011 13.5564 30.5475 14.0745C29.8939 14.5927 29.3742 15.2916 28.9884 16.1713ZM43.1455 15.3147C42.1285 15.2366 41.4583 14.935 41.1349 14.4101C41.1627 14.0485 41.3312 13.7773 41.6407 13.5964C41.9727 13.4173 42.3212 13.319 42.6863 13.3016C43.0531 13.2616 43.6451 13.2502 44.4621 13.2675C44.5768 12.6625 44.6706 11.8854 44.7434 10.9362C44.8407 9.96609 44.9266 9.14292 45.0013 8.46665C45.2062 6.68645 45.5615 5.61117 46.0674 5.24081C46.2847 5.07562 46.5063 5.00171 46.7323 5.01906C46.9809 5.03815 47.1939 5.07724 47.3712 5.13632C47.3141 6.76874 47.2725 7.75445 47.2464 8.09345L46.6526 13.1629C46.696 13.1889 46.8195 13.2098 47.0229 13.2254L49.4715 13.3111C51.2343 13.4465 52.0949 13.7854 52.0532 14.3278C51.9942 15.0962 51.6431 15.5239 50.9999 15.6109C50.7009 15.6561 50.348 15.6631 49.9412 15.6319C49.557 15.6024 49.052 15.5181 48.4261 15.3792C47.8246 15.2193 47.3882 15.129 47.117 15.1081C46.8458 15.0873 46.6641 15.0847 46.572 15.1004C46.4539 15.7506 46.3696 16.4034 46.3193 17.0588C46.2707 17.6916 46.2204 18.4948 46.1684 19.4683C46.1407 20.421 46.1435 21.5692 46.1767 22.913C46.2325 24.2586 46.4717 25.4364 46.8943 26.4464C47.3186 27.4337 47.915 27.9569 48.6834 28.0159C49.0676 28.0454 49.5308 27.9332 50.0732 27.6794C50.6173 27.4029 51.025 27.275 51.2962 27.2959C51.59 27.3184 51.8334 27.4053 52.0263 27.5565C52.2437 27.6869 52.3463 27.8312 52.3341 27.9894C52.2977 28.464 51.7762 28.89 50.7697 29.2673C49.7875 29.6239 48.9574 29.7761 48.2794 29.724C45.7934 29.5331 44.4258 27.0638 44.1765 22.3162C44.0998 20.9463 44.143 18.608 44.3059 15.3015C43.9391 15.3415 43.5523 15.3459 43.1455 15.3147ZM76.7048 7.69566L78.2277 7.8467C78.8379 7.89355 79.3099 7.9639 79.6437 8.05773L80.5486 8.26361C81.018 8.36786 81.4231 8.56946 81.7639 8.86843C81.5102 9.80375 80.7279 10.2211 79.4171 10.1204L70.4544 9.15942C69.4826 9.08479 68.3152 9.04062 66.9523 9.0269C66.8083 11.4938 66.5749 14.829 66.2522 19.0327C68.8459 19.0045 71.0016 19.0564 72.7192 19.1882C76.0415 19.4434 77.6774 19.8986 77.6271 20.554C77.5629 21.3902 77.011 21.7684 75.9714 21.6886C75.6098 21.6608 75.2169 21.5965 74.7927 21.4958C73.0907 21.1605 71.6069 20.9442 70.3413 20.8471C69.0756 20.7499 67.6562 20.7318 66.0829 20.7929C65.9804 21.5352 65.8328 22.7174 65.6401 24.3394C65.4491 25.9388 65.3101 27.008 65.2233 27.5469C65.159 28.0876 65.1069 28.47 65.067 28.6943C65.027 28.9185 64.9723 29.1871 64.9028 29.5001C64.8559 29.8147 64.7908 30.0712 64.7073 30.2694C64.6465 30.4693 64.5622 30.6788 64.4545 30.8979C64.2911 31.249 64.0217 31.5012 63.6462 31.6542C63.5297 31.6907 63.4263 31.7055 63.3359 31.6986C63.0421 31.676 62.7213 31.5604 62.3736 31.3519C62.3927 31.1033 62.4474 30.3914 62.5376 29.2162C62.6278 28.041 62.9213 25.5514 63.418 21.7476C63.9164 17.9212 64.2411 15.0249 64.3921 13.0587C64.5431 11.0925 64.6202 9.49573 64.6235 8.26838C64.6652 7.72597 65.2484 7.38429 66.3731 7.24332C67.6126 7.08843 68.7861 7.0535 69.8935 7.13854C71.0252 7.20271 71.8849 7.25735 72.4725 7.30247L76.7048 7.69566ZM86.534 7.83661C86.4715 8.35468 86.4159 8.93011 86.3674 9.56292C86.3188 10.1957 86.3023 10.8537 86.3181 11.5369C85.9739 11.8742 85.5306 12.0221 84.9882 11.9804C84.3102 11.9284 84.0129 11.3599 84.0962 10.2751C84.0996 10.2299 84.1126 10.0604 84.1352 9.76662C84.1578 9.47282 84.1777 9.21291 84.1951 8.98691C84.2368 8.74005 84.3037 8.46102 84.3958 8.14982C84.5956 7.61956 84.9667 7.37526 85.5091 7.41691C86.0515 7.45856 86.3932 7.59846 86.534 7.83661ZM83.0889 24.2811C83.429 19.8515 83.8511 17.315 84.3552 16.6717C84.5325 16.4353 84.7341 16.3257 84.9601 16.3431C85.1861 16.3604 85.5495 16.5134 86.0502 16.8019C85.7897 18.7142 85.5727 20.8004 85.3991 23.0604C85.3991 23.0604 85.23 25.5595 84.8916 30.5576C84.8378 31.2582 84.6415 31.7432 84.3025 32.0127C83.9879 32.2614 83.695 32.3753 83.4238 32.3544C83.1752 32.3354 82.9205 32.2476 82.6597 32.0912C82.7723 29.1445 82.9153 26.5411 83.0889 24.2811ZM91.6732 12.937C91.845 10.6996 91.6553 9.1733 91.1041 8.35804C91.4309 7.95119 91.9559 7.77554 92.6791 7.83107C92.8147 7.84148 92.9607 7.86406 93.1172 7.89881C93.6388 8.5072 93.7955 10.1674 93.5873 12.8794C93.4745 14.3484 93.2756 16.0495 92.9908 17.9827C92.4593 21.3519 92.1328 23.8275 92.0113 25.4095C91.6833 29.681 92.3442 31.88 93.994 32.0067C93.994 32.0067 94.4182 31.9597 95.2666 31.8657C95.47 31.8813 95.6325 31.9848 95.7543 32.176C95.624 32.9844 94.926 33.34 93.6604 33.2428C92.4174 33.1473 91.4856 32.7007 90.8648 31.9028C90.2458 31.0824 89.8893 30.1002 89.7953 28.9563C89.7256 27.7915 89.7194 26.8363 89.7766 26.0904C89.8339 25.3446 89.9077 24.5319 89.9979 23.6522C90.09 22.75 90.2906 21.4696 90.5998 19.811C91.2217 16.4488 91.5795 14.1575 91.6732 12.937ZM98.2003 19.5422C97.1833 19.4641 96.513 19.1625 96.1896 18.6376C96.2174 18.276 96.386 18.0047 96.6954 17.8239C97.0274 17.6448 97.376 17.5465 97.741 17.5291C98.1078 17.4891 98.6998 17.4777 99.5169 17.4949C99.6315 16.8899 99.7253 16.1128 99.7982 15.1636C99.8954 14.1936 99.9813 13.3704 100.056 12.6941C100.261 10.9139 100.616 9.83864 101.122 9.46829C101.339 9.3031 101.561 9.22919 101.787 9.24654C102.036 9.26563 102.249 9.30472 102.426 9.3638C102.369 10.9962 102.327 11.9819 102.301 12.3209L101.707 17.3903C101.751 17.4164 101.874 17.4373 102.078 17.4529L104.526 17.5386C106.289 17.674 107.15 18.0128 107.108 18.5552C107.049 19.3236 106.698 19.7514 106.055 19.8384C105.756 19.8836 105.403 19.8906 104.996 19.8594C104.612 19.8299 104.107 19.7456 103.481 19.6066C102.879 19.4468 102.443 19.3564 102.172 19.3356C101.901 19.3148 101.719 19.3122 101.627 19.3279C101.509 19.9781 101.424 20.6309 101.374 21.2863C101.325 21.9191 101.275 22.7222 101.223 23.6958C101.195 24.6485 101.198 25.7967 101.231 27.1405C101.287 28.4861 101.526 29.6639 101.949 30.6738C102.373 31.6612 102.97 32.1844 103.738 32.2434C104.122 32.2729 104.586 32.1607 105.128 31.9068C105.672 31.6304 106.08 31.5025 106.351 31.5233C106.645 31.5459 106.888 31.6328 107.081 31.784C107.298 31.9144 107.401 32.0586 107.389 32.2168C107.352 32.6914 106.831 33.1174 105.824 33.4948C104.842 33.8513 104.012 34.0036 103.334 33.9515C100.848 33.7606 99.4805 31.2913 99.2312 26.5436C99.1546 25.1737 99.1977 22.8355 99.3607 19.529C98.9939 19.569 98.6071 19.5734 98.2003 19.5422ZM111.483 27.9277C111.403 28.3762 111.357 28.6796 111.345 28.8378C111.241 30.1938 111.567 31.2759 112.323 32.0842C113.102 32.8942 114.056 33.3426 115.186 33.4294C116.316 33.5162 117.244 33.4283 117.969 33.1656C118.716 32.9048 119.262 32.6057 119.606 32.2684C120.498 31.3139 121.283 30.8626 121.961 30.9147C122.209 30.9338 122.498 31.0241 122.827 31.1858C122.516 32.2758 121.579 33.2269 120.016 34.0389C118.478 34.8302 116.59 35.1399 114.352 34.968C112.77 34.8466 111.441 34.2444 110.365 33.1615C109.313 32.0577 108.854 30.6357 108.987 28.8955C109.121 27.1553 109.589 25.4976 110.392 23.9224C111.22 22.3264 112.322 21.0016 113.698 19.9479C115.099 18.8733 116.467 18.3873 117.8 18.4896C119.156 18.5938 120.219 18.9596 120.989 19.587C121.784 20.1937 122.14 21.0281 122.059 22.0903C121.908 24.0565 120.901 25.616 119.04 26.7689C117.202 27.9008 115.3 28.3913 113.334 28.2404C112.814 28.2005 112.197 28.0962 111.483 27.9277ZM114.145 27.0068C115.207 27.0884 116.183 26.8223 117.071 26.2085C117.959 25.5947 118.601 24.9279 118.998 24.2081C119.416 23.4901 119.649 22.826 119.696 22.2158C119.743 21.6056 119.547 21.0562 119.107 20.5678C118.668 20.0567 118.133 19.7769 117.5 19.7283C116.37 19.6416 115.259 20.3406 114.168 21.8254C113.099 23.3119 112.297 24.8757 111.762 26.5169C112.74 26.7967 113.535 26.96 114.145 27.0068ZM128.826 32.8399L128.779 34.7801C128.741 35.2773 128.567 35.6163 128.258 35.7971C127.973 35.9571 127.683 36.0258 127.39 36.0032C127.118 35.9824 126.839 35.9155 126.552 35.8026C126.257 33.1428 126.123 29.8475 126.152 25.9169C126.204 21.988 126.227 19.7619 126.222 19.2386C126.585 18.9482 126.947 18.8169 127.309 18.8447C127.693 18.8742 128.029 18.9454 128.316 19.0584C128.356 19.7207 128.312 21.1724 128.186 23.4132C128.059 25.6541 128.008 27.0597 128.032 27.6299C128.495 25.7558 129.196 24.025 130.136 22.4377C130.659 21.5458 131.303 20.8564 132.068 20.3696C132.857 19.8618 133.67 19.6401 134.506 19.7043C135.365 19.7702 136.115 20.2143 136.757 21.0365C137.423 21.8378 137.732 22.5436 137.686 23.1538C137.668 23.3798 137.519 23.5502 137.237 23.665C136.957 23.7571 136.648 23.7902 136.309 23.7642C135.992 23.7399 135.753 23.5965 135.592 23.334C135.43 23.0715 135.326 22.7908 135.281 22.4918C135.238 22.1702 135.112 21.8764 134.906 21.6104C134.699 21.3445 134.403 21.1967 134.019 21.1672C133.002 21.0892 132.061 21.9376 131.198 23.7127C129.88 26.3623 129.09 29.4047 128.826 32.8399ZM148.636 23.5514C149.924 21.877 151.653 21.1232 153.822 21.2898C155.992 21.4564 157.653 22.4706 158.806 24.3323C159.982 26.1957 160.482 28.2575 160.309 30.5175C160.137 32.7549 159.279 34.5987 157.736 36.0487C156.192 37.4988 154.324 38.1397 152.132 37.9714C149.94 37.803 148.394 37.0705 147.493 35.7737C146.594 34.4543 146.23 32.676 146.402 30.4385C146.626 27.5231 147.371 25.2274 148.636 23.5514ZM149.99 25.4626C149.628 26.3214 149.334 27.1855 149.109 28.0548C148.905 28.9258 148.774 29.7454 148.715 30.5139C148.658 31.2597 148.661 31.9533 148.726 32.5948C148.792 33.2137 148.937 33.8386 149.162 34.4696C149.388 35.0781 149.758 35.5839 150.273 35.9872C150.789 36.3678 151.42 36.5868 152.166 36.644C153.68 36.7603 154.994 36.236 156.106 35.0711C157.241 33.9079 157.876 32.4449 158.012 30.6821C158.147 28.9193 157.803 27.1765 156.981 25.4538C156.183 23.7103 155.106 22.7864 153.75 22.6823C152.936 22.6198 152.202 22.8477 151.549 23.3658C150.895 23.884 150.375 24.5829 149.99 25.4626ZM166.599 35.7404L166.553 37.6806C166.515 38.1778 166.341 38.5168 166.031 38.6976C165.746 38.8576 165.457 38.9263 165.163 38.9038C164.892 38.8829 164.613 38.816 164.326 38.7031C164.03 36.0433 163.897 32.7481 163.926 28.8174C163.977 24.8885 164 22.6624 163.995 22.1391C164.358 21.8488 164.721 21.7175 165.083 21.7452C165.467 21.7747 165.802 21.846 166.089 21.9589C166.129 22.6213 166.086 24.0729 165.959 26.3138C165.833 28.5546 165.782 29.9602 165.806 30.5304C166.268 28.6563 166.969 26.9256 167.91 25.3382C168.433 24.4463 169.077 23.7569 169.842 23.2701C170.631 22.7623 171.444 22.5406 172.28 22.6048C173.139 22.6707 173.889 23.1148 174.53 23.937C175.196 24.7383 175.506 25.4441 175.459 26.0543C175.442 26.2803 175.292 26.4507 175.011 26.5655C174.731 26.6577 174.421 26.6907 174.082 26.6647C173.766 26.6404 173.527 26.497 173.365 26.2345C173.203 25.972 173.1 25.6913 173.055 25.3923C173.011 25.0707 172.886 24.7769 172.679 24.5109C172.472 24.245 172.177 24.0973 171.792 24.0678C170.775 23.9897 169.835 24.8382 168.971 26.6132C167.654 29.2628 166.863 32.3052 166.599 35.7404ZM195.334 16.8048L200.547 17.3074C202.287 17.4411 203.47 17.7364 204.094 18.1936C203.977 18.8212 203.708 19.221 203.286 19.3932C202.863 19.5654 202.268 19.6219 201.499 19.5629L194.185 18.899C192.331 18.7567 190.768 18.6934 189.493 18.7092C189.148 19.9558 188.884 21.7655 188.701 24.1385L188.618 25.6667C188.568 26.3221 188.503 27.0218 188.423 27.7659C189.449 28.0265 190.798 28.221 192.47 28.3494L196.507 28.6253C198.044 28.7433 198.919 28.8901 199.133 29.0657C199.347 29.2412 199.447 29.4194 199.433 29.6002C199.367 30.459 198.238 30.8042 196.046 30.6359L188.368 29.8077C188.304 30.3484 188.21 31.2732 188.087 32.5823C187.832 35.3134 187.571 37.3736 187.306 38.7626C188.745 38.9641 189.781 39.0891 190.414 39.1377C191.047 39.1863 191.703 39.2253 192.383 39.2548C193.063 39.2842 194.333 39.3136 196.195 39.3429C198.057 39.3722 199.44 39.4216 200.344 39.491C201.271 39.5621 201.898 39.6785 202.227 39.8402C202.557 39.9792 202.706 40.2634 202.673 40.6928C202.652 40.964 202.558 41.1501 202.391 41.2509C202.249 41.3309 202.119 41.4004 202 41.4596C201.884 41.4961 201.733 41.53 201.549 41.5613C201.389 41.5718 201.241 41.5831 201.103 41.5953C200.989 41.6092 200.817 41.6188 200.59 41.624C200.386 41.6084 200.216 41.6067 200.078 41.6189C199.965 41.6102 199.807 41.5981 199.604 41.5825L199.129 41.546C194.684 41.4093 191.84 41.2932 190.597 41.1977C186.868 40.9114 185.043 40.2484 185.123 39.2088C185.239 37.1035 185.37 35.1017 185.516 33.2033C185.997 26.943 186.6 21.7493 187.326 17.6221C187.858 16.9128 189.27 16.5892 191.561 16.6515C192.992 16.6704 194.25 16.7215 195.334 16.8048ZM207.524 42.4635C207.118 42.4322 207.177 38.9927 207.703 32.1448C207.925 29.252 208.048 27.4996 208.073 26.8877L207.395 26.8356C207.078 26.8113 206.83 26.7923 206.649 26.7784C206.47 26.7419 206.233 26.7124 205.939 26.6898C205.67 26.6464 205.447 26.5951 205.269 26.536C205.115 26.4787 204.949 26.4092 204.774 26.3275C204.445 26.1659 204.294 25.9155 204.32 25.5765C204.353 25.1471 205.07 24.9862 206.471 25.0938C207.081 25.1407 207.633 25.2058 208.127 25.2892C208.184 24.8389 208.24 24.2635 208.294 23.5629C208.372 22.8414 208.437 22.2894 208.489 21.907C208.543 21.5019 208.603 21.0177 208.669 20.4545C208.757 19.8929 208.848 19.4566 208.94 19.1454C209.055 18.8359 209.194 18.4943 209.36 18.1205C209.526 17.7241 209.731 17.4329 209.972 17.2468C210.214 17.0608 210.489 16.8774 210.799 16.6965C211.348 16.3522 212.222 16.2261 213.419 16.318C214.64 16.4118 215.509 16.7854 216.027 17.439C216.57 18.0717 217.012 19.1173 217.355 20.5759C216.985 20.9566 216.574 21.1297 216.122 21.0949C215.963 21.0828 215.807 21.0481 215.652 20.9907C215.329 19.8747 215.012 19.1115 214.703 18.7013C214.416 18.2928 213.99 18.0668 213.425 18.0235C212.86 17.9801 212.423 18.0488 212.113 18.2296C211.826 18.4122 211.592 18.6556 211.409 18.9599C211.018 19.6119 210.723 21.2374 210.523 23.8364C210.515 23.9494 210.499 24.1528 210.477 24.4466C210.454 24.7404 210.433 25.0116 210.414 25.2602L213.316 25.2102C214.446 25.297 214.991 25.6003 214.952 26.1201C214.925 26.4591 214.637 26.6643 214.086 26.7356C213.535 26.807 212.84 26.8219 212.002 26.7803C211.187 26.7404 210.617 26.7648 210.292 26.8535C210.198 27.4828 210.111 28.3173 210.031 29.3569C209.953 30.3739 209.885 32.0055 209.826 34.2516C209.769 36.475 209.695 38.1744 209.605 39.3496C209.515 40.5248 209.326 41.3515 209.039 41.8296C208.775 42.3094 208.27 42.5207 207.524 42.4635ZM218.184 43.282C217.778 43.2508 217.837 39.8112 218.363 32.9634C218.585 30.0706 218.708 28.3182 218.733 27.7062L218.055 27.6542C217.738 27.6299 217.49 27.6108 217.309 27.5969C217.13 27.5604 216.893 27.5309 216.599 27.5084C216.33 27.4649 216.107 27.4137 215.929 27.3546C215.775 27.2972 215.609 27.2277 215.434 27.146C215.105 26.9844 214.954 26.7341 214.98 26.3951C215.013 25.9657 215.73 25.8048 217.131 25.9124C217.741 25.9592 218.293 26.0244 218.787 26.1077C218.844 25.6575 218.9 25.082 218.954 24.3814C219.032 23.66 219.097 23.108 219.149 22.7255C219.203 22.3205 219.263 21.8363 219.329 21.273C219.417 20.7115 219.508 20.2751 219.6 19.9639C219.715 19.6545 219.854 19.3128 220.02 18.9391C220.186 18.5427 220.391 18.2514 220.632 18.0654C220.874 17.8793 221.149 17.6959 221.459 17.5151C222.008 17.1708 222.882 17.0446 224.08 17.1366C225.3 17.2303 226.169 17.604 226.687 18.2575C227.23 18.8903 227.672 19.9359 228.015 21.3944C227.645 21.7752 227.234 21.9482 226.782 21.9135C226.624 21.9013 226.467 21.8666 226.312 21.8093C225.989 20.6932 225.672 19.9301 225.363 19.5198C225.076 19.1113 224.65 18.8854 224.085 18.842C223.52 18.7986 223.083 18.8674 222.773 19.0482C222.486 19.2308 222.252 19.4742 222.069 19.7784C221.678 20.4304 221.383 22.0559 221.183 24.6549C221.175 24.7679 221.159 24.9713 221.137 25.2651C221.114 25.5589 221.093 25.8301 221.074 26.0787L223.976 26.0288C225.106 26.1156 225.651 26.4189 225.612 26.9387C225.586 27.2777 225.297 27.4828 224.746 27.5542C224.195 27.6255 223.5 27.6404 222.662 27.5988C221.847 27.5589 221.277 27.5833 220.952 27.672C220.858 28.3014 220.771 29.1359 220.691 30.1755C220.613 31.1925 220.545 32.824 220.486 35.0701C220.429 37.2936 220.355 38.9929 220.265 40.1681C220.175 41.3434 219.986 42.17 219.699 42.6481C219.435 43.128 218.93 43.3393 218.184 43.282ZM227.75 36.8555C227.67 37.304 227.624 37.6074 227.612 37.7656C227.508 39.1216 227.834 40.2037 228.59 41.012C229.369 41.822 230.324 42.2704 231.454 42.3572C232.584 42.444 233.511 42.356 234.236 42.0934C234.983 41.8326 235.529 41.5335 235.873 41.1962C236.765 40.2416 237.55 39.7904 238.228 39.8425C238.477 39.8616 238.765 39.9519 239.094 40.1135C238.783 41.2036 237.846 42.1547 236.283 42.9667C234.745 43.7579 232.857 44.0676 230.619 43.8958C229.037 43.7744 227.708 43.1722 226.632 42.0892C225.58 40.9855 225.121 39.5635 225.254 37.8233C225.388 36.0831 225.856 34.4254 226.659 32.8502C227.487 31.2542 228.589 29.9294 229.965 28.8757C231.366 27.8011 232.734 27.315 234.067 27.4174C235.423 27.5216 236.486 27.8874 237.256 28.5148C238.051 29.1214 238.407 29.9559 238.326 31.0181C238.175 32.9843 237.169 34.5438 235.307 35.6966C233.469 36.8286 231.568 37.3191 229.601 37.1682C229.082 37.1282 228.464 37.024 227.75 36.8555ZM230.412 35.9346C231.474 36.0162 232.45 35.7501 233.338 35.1363C234.226 34.5225 234.868 33.8557 235.265 33.1359C235.684 32.4179 235.916 31.7538 235.963 31.1435C236.01 30.5333 235.814 29.984 235.374 29.4956C234.936 28.9845 234.4 28.7047 233.767 28.6561C232.637 28.5693 231.527 29.2684 230.435 30.7531C229.366 32.2397 228.564 33.8035 228.029 35.4447C229.008 35.7244 229.802 35.8878 230.412 35.9346ZM253.882 32.9969C253.42 33.3933 252.974 33.5751 252.545 33.5421C252.115 33.5091 251.779 33.3014 251.535 32.919C251.316 32.5157 251.144 32.0933 251.019 31.6517C250.895 31.1876 250.633 30.7582 250.231 30.3636C249.854 29.9482 249.349 29.7162 248.716 29.6676C247.828 29.6903 246.977 30.2615 246.163 31.3812C245.352 32.4783 244.723 33.7144 244.276 35.0896C243.829 36.4647 243.558 37.7738 243.463 39.0168C243.369 40.2372 243.627 41.3255 244.235 42.2815C244.868 43.2167 245.772 43.7295 246.947 43.8197C248.303 43.9238 249.425 43.5325 250.311 42.6458C250.681 42.265 251.029 41.8825 251.354 41.4983C252.15 40.6046 252.842 40.1803 253.43 40.2254C253.633 40.2411 253.922 40.3201 254.298 40.4626C254.234 41.2988 253.38 42.3472 251.738 43.6078C250.119 44.8476 248.417 45.3989 246.632 45.2618C244.847 45.1247 243.477 44.4512 242.525 43.2414C241.596 42.0107 241.201 40.4913 241.34 38.6833C241.519 36.3555 242.263 34.0711 243.571 31.83C244.223 30.7434 245.063 29.8758 246.09 29.2272C247.119 28.5561 248.233 28.2665 249.43 28.3584C250.628 28.4504 251.557 28.931 252.218 29.8001C252.903 30.6484 253.458 31.714 253.882 32.9969ZM257.77 31.795C256.753 31.7169 256.082 31.4154 255.759 30.8904C255.787 30.5288 255.955 30.2576 256.265 30.0767C256.597 29.8976 256.945 29.7993 257.31 29.7819C257.677 29.7419 258.269 29.7305 259.086 29.7478C259.201 29.1428 259.295 28.3657 259.368 27.4165C259.465 26.4464 259.551 25.6232 259.625 24.947C259.83 23.1668 260.186 22.0915 260.691 21.7211C260.909 21.5559 261.13 21.482 261.356 21.4994C261.605 21.5185 261.818 21.5575 261.995 21.6166C261.938 23.249 261.897 24.2348 261.87 24.5738L261.277 29.6432C261.32 29.6692 261.444 29.6901 261.647 29.7057L264.096 29.7914C265.858 29.9268 266.719 30.2657 266.677 30.8081C266.618 31.5765 266.267 32.0042 265.624 32.0912C265.325 32.1364 264.972 32.1434 264.565 32.1122C264.181 32.0827 263.676 31.9984 263.05 31.8595C262.449 31.6996 262.012 31.6093 261.741 31.5884C261.47 31.5676 261.288 31.565 261.196 31.5807C261.078 32.2309 260.994 32.8837 260.943 33.5391C260.895 34.1719 260.844 34.9751 260.792 35.9486C260.765 36.9013 260.768 38.0495 260.801 39.3934C260.857 40.7389 261.096 41.9167 261.518 42.9267C261.943 43.914 262.539 44.4372 263.307 44.4962C263.692 44.5257 264.155 44.4136 264.697 44.1597C265.241 43.8832 265.649 43.7553 265.92 43.7762C266.214 43.7987 266.457 43.8856 266.65 44.0368C266.868 44.1672 266.97 44.3115 266.958 44.4697C266.922 44.9443 266.4 45.3703 265.394 45.7477C264.412 46.1042 263.581 46.2564 262.903 46.2043C260.417 46.0134 259.05 43.5441 258.801 38.7965C258.724 37.4266 258.767 35.0883 258.93 31.7818C258.563 31.8218 258.176 31.8262 257.77 31.795ZM278.345 34.0228C278.181 33.4874 277.829 33.0511 277.286 32.7139C276.744 32.3767 276.054 32.176 275.218 32.1118C274.382 32.0476 273.572 32.2354 272.788 32.6754C272.026 33.1171 271.614 33.756 271.549 34.5922C271.485 35.4284 271.773 36.1211 272.413 36.6704C273.077 37.1988 273.885 37.6246 274.838 37.9478C275.813 38.2728 276.787 38.6204 277.759 38.9905C278.732 39.3381 279.533 39.8656 280.161 40.573C280.813 41.2597 281.099 42.1228 281.019 43.1624C280.903 44.6766 280.181 45.7806 278.855 46.4744C277.551 47.17 276.018 47.4501 274.255 47.3147C273.216 47.2349 271.87 46.8474 270.218 46.1522C268.589 45.4588 267.805 44.7166 267.866 43.9256C267.911 43.338 268.431 43.0824 269.425 43.1587C269.719 43.1813 270.089 43.3916 270.536 43.7896C271.901 44.9629 273.341 45.6077 274.855 45.7239C275.668 45.7864 276.379 45.7046 276.988 45.4785C278.113 45.042 278.719 44.2475 278.808 43.0949C278.862 42.3943 278.555 41.8024 277.887 41.3192C277.242 40.8377 276.432 40.4345 275.456 40.1095C274.504 39.7863 273.541 39.4396 272.57 39.0694C271.598 38.6993 270.788 38.1483 270.139 37.4165C269.515 36.6638 269.244 35.7564 269.325 34.6942C269.431 33.3156 270.138 32.2446 271.447 31.4812C272.756 30.7179 274.326 30.4065 276.157 30.5471C277.4 30.6425 278.493 31.0561 279.437 31.7879C280.406 32.4988 280.843 33.4644 280.749 34.6848C280.687 35.4984 280.192 35.8697 279.266 35.7985C278.882 35.769 278.627 35.6812 278.502 35.5352C278.399 35.391 278.349 35.1484 278.353 34.8077C278.381 34.4461 278.378 34.1845 278.345 34.0228Z" fill="#191919"/>
<path d="M306.879 192.801C304.602 190.219 302.325 187.636 299.631 184.561C301.04 184.219 301.99 183.939 303.049 183.844C325.091 181.075 341.198 165.596 346.506 142.162C349.831 127.084 347.706 112.853 342.807 98.7516C337.292 82.988 327.186 71.3962 314.387 62.369C307.79 57.7326 300.324 55.8103 292.512 55.1832C290.458 55.0651 288.458 55.0394 286.1 55.6618C287.171 56.2137 288.265 57.0121 289.38 57.0093C316.64 58.0182 341.203 88.7406 343.419 121.924C344.318 134.926 341.523 147.136 334.672 158.155C326.601 171.087 310.765 179.294 296.865 177.604C299.806 173.159 305.745 171.048 306.092 164.114C300.616 168.257 295.608 171.937 290.743 175.647C289.139 176.915 288.378 178.766 289.801 180.118C294.595 184.851 299.509 189.369 304.456 193.732C304.762 194.039 305.657 193.667 306.258 193.635C306.488 193.603 306.727 193.171 306.879 192.801Z" fill="#191919"/>
</svg>
