<svg width="303" height="179" viewBox="0 0 303 179" fill="none" xmlns="http://www.w3.org/2000/svg">
<path d="M18.7433 26.8898L20.6623 5.89507C21.0517 5.56124 21.4498 5.40994 21.8566 5.44118C22.2634 5.47241 22.5746 5.56451 22.7901 5.71746C22.7175 8.73543 22.6066 11.2162 22.4574 13.1598L20.9809 28.8348C20.9462 29.2868 20.9133 29.7162 20.882 30.123C20.0754 30.5612 19.4235 30.7612 18.9263 30.723L18.5247 30.624C18.3074 30.4936 18.1336 30.3894 18.0032 30.3112C17.8936 30.2573 17.7476 30.0869 17.565 29.8001C17.3807 29.5359 17.259 29.3447 17.1999 29.2265C17.1407 29.1083 17.0016 28.8475 16.7825 28.4442C16.586 28.0427 16.4478 27.7706 16.3678 27.6281C16.2895 27.4629 15.7244 26.3852 14.6724 24.3948C13.6447 22.3835 12.9908 21.1284 12.7109 20.6295C12.4309 20.1307 11.8301 19.0729 10.9085 17.4562C10.0095 15.8413 9.29486 14.6384 8.76453 13.8475C7.19438 11.4991 5.72687 9.59044 4.36198 8.12163C4.24765 11.0909 4.06119 14.2593 3.80262 17.6267C3.54405 20.9941 3.20032 24.5823 2.77144 28.3914C2.469 28.7773 1.69627 28.9226 0.453267 28.8272C1.43376 16.0581 1.99248 8.18975 2.12942 5.22219C2.59006 4.84836 3.02378 4.67707 3.43058 4.70831C3.83738 4.73954 4.22421 4.88291 4.59106 5.13842C5.15089 5.54514 5.76465 6.13787 6.43232 6.9166C8.64398 9.49617 10.6949 12.393 12.585 15.6072C14.4978 18.8231 16.5505 22.5839 18.7433 26.8898ZM27.9086 16.1018C29.1966 14.4275 30.9254 13.6737 33.095 13.8403C35.2646 14.0069 36.9258 15.021 38.0787 16.8827C39.2541 18.7462 39.7551 20.8079 39.5815 23.068C39.4097 25.3054 38.552 27.1491 37.0085 28.5992C35.4649 30.0493 33.5971 30.6902 31.4048 30.5218C29.2126 30.3535 27.6662 29.6209 26.7655 28.3242C25.8665 27.0048 25.5029 25.2264 25.6747 22.989C25.8986 20.0736 26.6432 17.7779 27.9086 16.1018ZM29.2622 18.0131C28.9008 18.8719 28.6071 19.736 28.3812 20.6052C28.1779 21.4762 28.0468 22.2959 27.9878 23.0643C27.9305 23.8101 27.9341 24.5038 27.9985 25.1452C28.0646 25.7641 28.2099 26.3891 28.4342 27.0201C28.6603 27.6285 29.0307 28.1344 29.5453 28.5376C30.0617 28.9183 30.6928 29.1372 31.4386 29.1945C32.9528 29.3108 34.2661 28.7865 35.3786 27.6215C36.5136 26.4584 37.1488 24.9954 37.2842 23.2326C37.4195 21.4697 37.076 19.727 36.2534 18.0043C35.4552 16.2607 34.3781 15.3369 33.0221 15.2328C32.2085 15.1703 31.4749 15.3981 30.8213 15.9163C30.1678 16.4344 29.6481 17.1334 29.2622 18.0131ZM50.6844 24.9435L52.1557 9.77966C52.2459 8.60445 52.2397 7.79694 52.1371 7.35712C52.5717 7.02676 53.2071 6.89368 54.0433 6.95789C54.1966 9.40213 54.1275 12.5227 53.8359 16.3195C53.7491 17.4495 53.4461 20.0633 52.9269 24.1609C54.4282 18.5246 56.5461 15.8115 59.2807 16.0215C60.2525 16.0961 60.9584 16.6732 61.3984 17.7527C61.8627 18.8113 62.1063 20.0804 62.1291 21.5598C62.1519 23.0392 62.1521 24.5169 62.1297 25.9929C62.0849 29.5358 62.5824 31.3472 63.622 31.4271C63.6446 31.4288 63.8645 31.3775 64.2817 31.2731C65.2065 31.0713 65.7202 31.0426 65.8228 31.1869C65.8037 31.4355 65.4291 31.725 64.699 32.0554C63.9707 32.3632 63.3127 32.4945 62.7251 32.4494C61.7307 32.373 61.0013 31.8055 60.537 30.7469C60.097 29.6674 59.8656 28.3879 59.8428 26.9085C59.8426 25.4308 59.8642 23.9661 59.9074 22.5145C59.975 21.042 59.9236 19.7878 59.7531 18.7517C59.5843 17.693 59.2061 17.1411 58.6185 17.0959C57.8953 17.0404 57.1679 17.7802 56.4362 19.3154C55.7288 20.8297 55.1328 22.523 54.648 24.3954C54.1632 26.2678 53.6115 27.9759 52.9928 29.5197C52.3985 31.0427 51.8527 31.785 51.3555 31.7469C50.5645 31.6861 50.3408 29.4183 50.6844 24.9435ZM77.9571 24.2756L77.4883 28.1611C77.3373 30.1273 77.4618 31.4668 77.8617 32.1795C78.0982 32.6523 78.4538 32.907 78.9284 32.9434C79.064 32.9538 79.2587 32.9347 79.5125 32.886C79.9975 32.7868 80.3878 32.885 80.6834 33.1805C80.4644 33.9593 79.6431 34.2941 78.2193 34.1848C77.2475 34.1101 76.6346 33.6539 76.3807 32.816C76.1789 32.1867 76.0562 31.4157 76.0127 30.503C75.9708 29.5677 75.929 28.928 75.8872 28.5838C74.203 31.2734 72.6482 32.8704 71.2227 33.3747C70.4978 33.6373 69.6721 33.733 68.7455 33.6619C67.8189 33.5907 67.1295 33.0945 66.6774 32.1732C66.2496 31.231 66.1017 29.9011 66.2335 28.1835C66.3654 26.4659 66.7859 24.6909 67.4949 22.8584C68.2057 21.0034 69.153 19.4734 70.3367 18.2685C71.5222 17.041 72.759 16.4767 74.0472 16.5757C75.9004 16.718 77.0731 17.5809 77.5653 19.1646C77.9845 20.5153 78.1151 22.219 77.9571 24.2756ZM69.7349 22.553C69.3248 23.7492 68.9981 24.8948 68.7549 25.9901C68.5134 27.0628 68.3597 28.0285 68.2937 28.8873C68.2295 29.7235 68.3435 30.4597 68.6356 31.096C68.9504 31.7339 69.3902 32.0746 69.9552 32.118C71.1756 32.2117 72.4394 31.1493 73.7464 28.9309C75.0534 26.7124 75.7833 24.6088 75.936 22.62C76.0349 21.3318 75.7775 20.2436 75.1637 19.3553C74.7533 18.7782 74.1752 18.461 73.4294 18.4037C72.7062 18.3482 72.0065 18.7264 71.3304 19.5383C70.6786 20.3294 70.1467 21.3343 69.7349 22.553ZM82.8482 20.1841C81.8312 20.106 81.161 19.8044 80.8376 19.2795C80.8653 18.9179 81.0339 18.6466 81.3433 18.4658C81.6754 18.2867 82.0239 18.1884 82.389 18.171C82.7558 18.131 83.3477 18.1196 84.1648 18.1369C84.2795 17.5319 84.3732 16.7548 84.4461 15.8055C84.5433 14.8355 84.6293 14.0123 84.7039 13.336C84.9088 11.5558 85.2642 10.4806 85.77 10.1102C85.9873 9.94501 86.209 9.87109 86.435 9.88845C86.6836 9.90754 86.8965 9.94662 87.0739 10.0057C87.0167 11.6381 86.9751 12.6238 86.9491 12.9628L86.3552 18.0322C86.3987 18.0583 86.5221 18.0792 86.7255 18.0948L89.1742 18.1805C90.937 18.3159 91.7976 18.6547 91.7559 19.1971C91.6969 19.9656 91.3458 20.3933 90.7026 20.4803C90.4036 20.5255 90.0507 20.5325 89.6439 20.5013C89.2597 20.4718 88.7546 20.3875 88.1288 20.2485C87.5272 20.0887 87.0909 19.9983 86.8197 19.9775C86.5485 19.9567 86.3668 19.9541 86.2747 19.9698C86.1565 20.62 86.0723 21.2728 86.022 21.9282C85.9734 22.561 85.9231 23.3641 85.8711 24.3377C85.8434 25.2904 85.8461 26.4386 85.8794 27.7824C85.9352 29.128 86.1744 30.3058 86.5969 31.3157C87.0213 32.3031 87.6176 32.8263 88.386 32.8853C88.7702 32.9148 89.2335 32.8026 89.7759 32.5487C90.32 32.2723 90.7276 32.1444 90.9988 32.1653C91.2926 32.1878 91.536 32.2747 91.729 32.4259C91.9463 32.5563 92.0489 32.7006 92.0368 32.8588C92.0003 33.3334 91.4789 33.7593 90.4723 34.1367C89.4902 34.4932 88.6601 34.6455 87.9821 34.5934C85.496 34.4025 84.1284 31.9332 83.8792 27.1855C83.8025 25.8157 83.8456 23.4774 84.0086 20.1709C83.6418 20.2109 83.255 20.2153 82.8482 20.1841ZM103.424 22.4119C103.26 21.8765 102.907 21.4402 102.365 21.103C101.822 20.7658 101.133 20.5651 100.297 20.5009C99.4605 20.4367 98.6504 20.6245 97.8664 21.0645C97.105 21.5061 96.6922 22.1451 96.628 22.9813C96.5638 23.8175 96.8516 24.5102 97.4915 25.0595C98.1556 25.5879 98.9641 26.0137 99.9168 26.3369C100.892 26.6619 101.866 27.0094 102.838 27.3796C103.811 27.7272 104.612 28.2547 105.239 28.9621C105.891 29.6487 106.178 30.5118 106.098 31.5514C105.981 33.0656 105.26 34.1697 103.934 34.8635C102.63 35.559 101.097 35.8391 99.3339 35.7038C98.2943 35.624 96.9487 35.2365 95.2971 34.5413C93.668 33.8479 92.8839 33.1057 92.9446 32.3147C92.9898 31.7271 93.5095 31.4714 94.5039 31.5478C94.7977 31.5704 95.1681 31.7807 95.6149 32.1787C96.9797 33.352 98.4193 33.9967 99.9335 34.113C100.747 34.1755 101.458 34.0937 102.067 33.8676C103.191 33.4311 103.798 32.6365 103.886 31.4839C103.94 30.7833 103.633 30.1914 102.966 29.7082C102.321 29.2268 101.51 28.8236 100.535 28.4986C99.5824 28.1754 98.6201 27.8287 97.6482 27.4585C96.6764 27.0884 95.8662 26.5374 95.2177 25.8056C94.5935 25.0529 94.3221 24.1455 94.4037 23.0833C94.5096 21.7047 95.217 20.6337 96.5259 19.8703C97.8349 19.107 99.4046 18.7956 101.235 18.9361C102.478 19.0316 103.572 19.4452 104.516 20.1769C105.484 20.8878 105.922 21.8535 105.828 23.0739C105.765 23.8875 105.271 24.2587 104.344 24.1876C103.96 24.1581 103.705 24.0703 103.58 23.9243C103.478 23.78 103.428 23.5375 103.432 23.1968C103.459 22.8352 103.457 22.5736 103.424 22.4119ZM118.519 23.0595C119.807 21.3852 121.536 20.6313 123.705 20.7979C125.875 20.9645 127.536 21.9787 128.689 23.8404C129.864 25.7039 130.365 27.7656 130.192 30.0256C130.02 32.2631 129.162 34.1068 127.619 35.5569C126.075 37.007 124.207 37.6478 122.015 37.4795C119.823 37.3112 118.276 36.5786 117.376 35.2819C116.477 33.9625 116.113 32.1841 116.285 29.9467C116.509 27.0313 117.253 24.7355 118.519 23.0595ZM119.872 24.9707C119.511 25.8296 119.217 26.6936 118.991 27.5629C118.788 28.4339 118.657 29.2536 118.598 30.022C118.541 30.7678 118.544 31.4614 118.609 32.1029C118.675 32.7218 118.82 33.3468 119.044 33.9778C119.271 34.5862 119.641 35.0921 120.156 35.4953C120.672 35.876 121.303 36.0949 122.049 36.1522C123.563 36.2685 124.876 35.7441 125.989 34.5792C127.124 33.416 127.759 31.953 127.894 30.1902C128.03 28.4274 127.686 26.6847 126.864 24.962C126.065 23.2184 124.988 22.2946 123.632 22.1904C122.819 22.128 122.085 22.3558 121.432 22.874C120.778 23.3921 120.258 24.091 119.872 24.9707ZM136.482 35.2486L136.436 37.1887C136.397 37.6859 136.224 38.0249 135.914 38.2058C135.629 38.3657 135.34 38.4345 135.046 38.4119C134.775 38.3911 134.496 38.3242 134.209 38.2112C133.913 35.5514 133.779 32.2562 133.808 28.3256C133.86 24.3966 133.883 22.1705 133.878 21.6473C134.241 21.3569 134.604 21.2256 134.965 21.2534C135.35 21.2829 135.685 21.3541 135.972 21.4671C136.012 22.1294 135.969 23.581 135.842 25.8219C135.716 28.0628 135.664 29.4683 135.689 30.0385C136.151 28.1644 136.852 26.4337 137.793 24.8464C138.316 23.9545 138.96 23.2651 139.725 22.7782C140.514 22.2705 141.326 22.0487 142.163 22.1129C143.021 22.1789 143.772 22.6229 144.413 23.4451C145.079 24.2465 145.389 24.9523 145.342 25.5625C145.325 25.7885 145.175 25.9588 144.893 26.0736C144.614 26.1658 144.304 26.1989 143.965 26.1728C143.649 26.1485 143.41 26.0052 143.248 25.7427C143.086 25.4802 142.983 25.1994 142.938 24.9004C142.894 24.5788 142.769 24.285 142.562 24.0191C142.355 23.7531 142.059 23.6054 141.675 23.5759C140.658 23.4978 139.718 24.3463 138.854 26.1214C137.537 28.771 136.746 31.8134 136.482 35.2486ZM156.338 15.5971C156.647 15.1207 157.164 14.9103 157.887 14.9658C158.045 14.978 158.201 15.0127 158.356 15.0701C158.309 16.2713 158.075 19.6179 157.653 25.1097C157.678 25.0889 157.787 24.995 157.982 24.828C158.199 24.6629 158.332 24.5594 158.381 24.5177C158.43 24.4759 158.55 24.3829 158.743 24.2386C158.938 24.0717 159.082 23.9691 159.176 23.9308C159.294 23.8717 159.448 23.7926 159.638 23.6935C159.829 23.5718 159.994 23.4935 160.133 23.4587C160.274 23.4013 160.437 23.3457 160.623 23.2918C160.971 23.2048 161.371 23.1787 161.823 23.2134C163.495 23.3418 164.786 24.1457 165.696 25.625C166.607 27.0817 166.996 28.6688 166.865 30.3864C166.733 32.104 166.347 33.7226 165.707 35.2421C165.07 36.739 164.164 38.0221 162.991 39.0914C161.817 40.1607 160.508 40.6398 159.061 40.5287C157.637 40.4194 156.48 39.7963 155.59 38.6595C154.722 37.5244 154.341 36.2789 154.445 34.9229C154.551 33.5442 154.824 31.0191 155.265 27.3474C155.708 23.6532 155.991 21.0037 156.114 19.3991C156.239 17.7719 156.314 16.5046 156.338 15.5971ZM159.426 38.8859C160.307 38.9535 161.13 38.5962 161.895 37.8138C163.446 36.2733 164.337 33.9888 164.57 30.9604C164.695 29.3332 164.489 27.8738 163.951 26.5822C163.416 25.268 162.571 24.5667 161.419 24.4782C160.763 24.4278 160.162 24.7113 159.614 25.3285C159.069 25.9231 158.619 26.7411 158.267 27.7825C157.592 29.754 157.161 31.9715 156.972 34.4349C156.812 36.5141 157.143 37.824 157.966 38.3645C158.332 38.62 158.819 38.7938 159.426 38.8859ZM180.85 32.1764L180.381 36.0619C180.23 38.0281 180.354 39.3676 180.754 40.0803C180.991 40.5531 181.346 40.8077 181.821 40.8442C181.956 40.8546 182.151 40.8355 182.405 40.7867C182.89 40.6876 183.28 40.7858 183.576 41.0813C183.357 41.8601 182.535 42.1949 181.112 42.0855C180.14 42.0109 179.527 41.5547 179.273 40.7168C179.071 40.0875 178.949 39.3165 178.905 38.4038C178.863 37.4685 178.821 36.8288 178.78 36.4846C177.095 39.1742 175.541 40.7712 174.115 41.2755C173.39 41.5381 172.565 41.6338 171.638 41.5627C170.711 41.4915 170.022 40.9953 169.57 40.074C169.142 39.1318 168.994 37.8019 169.126 36.0843C169.258 34.3667 169.678 32.5917 170.387 30.7592C171.098 28.9042 172.045 27.3742 173.229 26.1693C174.415 24.9418 175.651 24.3775 176.94 24.4764C178.793 24.6187 179.966 25.4817 180.458 27.0654C180.877 28.4161 181.007 30.1198 180.85 32.1764ZM172.627 30.4538C172.217 31.6499 171.891 32.7956 171.647 33.8909C171.406 34.9635 171.252 35.9293 171.186 36.7881C171.122 37.6243 171.236 38.3605 171.528 38.9967C171.843 39.6347 172.283 39.9754 172.848 40.0188C174.068 40.1125 175.332 39.0501 176.639 36.8317C177.946 34.6132 178.676 32.5096 178.828 30.5208C178.927 29.2326 178.67 28.1443 178.056 27.2561C177.646 26.679 177.068 26.3618 176.322 26.3045C175.599 26.249 174.899 26.6272 174.223 27.4391C173.571 28.2302 173.039 29.2351 172.627 30.4538ZM198.622 42.4071C198.182 42.8053 197.702 42.9844 197.183 42.9445C196.211 42.8698 195.527 42.2945 195.133 41.2185C194.738 40.1424 194.553 38.8551 194.577 37.3566C194.623 35.8597 194.693 34.3647 194.785 32.8713C194.877 31.378 194.85 30.1028 194.703 29.0459C194.58 27.9906 194.224 27.4405 193.637 27.3953C192.846 27.3346 192.113 27.9945 191.439 29.3749C190.787 30.757 190.281 32.3095 189.922 34.0324C188.916 38.8428 188.096 41.5193 187.464 42.0618C187.041 42.2339 186.683 42.3087 186.389 42.2862C186.095 42.2636 185.849 42.2106 185.651 42.1272C185.336 40.0116 185.306 36.406 185.561 31.3106C185.71 28.7759 185.791 27.1339 185.803 26.3846C186.302 26.1047 186.721 25.9777 187.06 26.0037C187.399 26.0298 187.667 26.0845 187.866 26.1679C187.904 27.1484 187.808 29.1415 187.577 32.1474C187.369 35.1549 187.259 36.8856 187.247 37.3393C187.396 36.8734 187.591 36.1154 187.83 35.0653C188.093 34.017 188.318 33.159 188.505 32.4915C188.695 31.8013 188.972 31.0041 189.337 30.1001C189.702 29.1961 190.086 28.4867 190.489 27.9721C190.894 27.4348 191.428 26.9984 192.09 26.6628C192.754 26.3046 193.482 26.1559 194.273 26.2166C195.335 26.2982 196.066 26.8431 196.466 27.8513C196.89 28.8387 197.07 30.046 197.006 31.4733C196.942 32.9006 196.854 34.3487 196.741 35.8177C196.651 37.2885 196.728 38.6471 196.974 39.8935C197.241 41.1417 197.791 41.9795 198.622 42.4071ZM215.57 17.3491C214.114 25.0576 213.259 30.573 213.004 33.8952C212.75 37.1948 212.802 40.5179 213.159 43.8643C212.672 44.2816 212.259 44.4773 211.92 44.4512C211.581 44.4252 211.302 44.3583 211.083 44.2506C210.737 42.5417 210.594 40.7007 210.655 38.7276C210.046 39.5447 209.593 40.1237 209.294 40.4645C209.018 40.807 208.536 41.3042 207.849 41.9562C206.593 43.2237 205.173 43.7968 203.591 43.6753C202.394 43.5833 201.566 42.9628 201.109 41.8137C200.676 40.6438 200.526 39.1887 200.659 37.4485C200.795 35.6857 201.115 34.0281 201.621 32.4756C202.151 30.9022 202.946 29.5765 204.006 28.4985C205.069 27.3979 206.311 26.9023 207.735 27.0116C208.594 27.0776 209.371 27.3191 210.067 27.7363C210.762 28.1534 211.222 28.6775 211.446 29.3085C211.538 28.7018 211.656 27.7673 211.798 26.5052C211.94 25.2431 212.071 24.1278 212.191 23.1595C212.335 22.1703 212.514 21.1724 212.728 20.1658C213.143 18.0153 213.78 16.973 214.639 17.0389C214.933 17.0615 215.243 17.1649 215.57 17.3491ZM210.573 30.469C210.34 29.951 209.995 29.5608 209.537 29.2983C209.082 29.0133 208.459 28.8404 207.668 28.7797C206.899 28.7207 206.142 29.1058 205.397 29.9352C203.93 31.573 203.069 34.0417 202.816 37.3413C202.734 38.4035 202.822 39.4788 203.08 40.567C203.339 41.6326 203.796 42.1906 204.452 42.2409C205.401 42.3138 206.375 41.7635 207.375 40.5899C208.374 39.4163 209.184 38.0463 209.804 36.4798C210.427 34.8908 210.787 33.4522 210.886 32.164C210.933 31.5538 210.829 30.9888 210.573 30.469ZM228.224 35.8141L227.755 39.6996C227.604 41.6658 227.728 43.0053 228.128 43.718C228.365 44.1908 228.72 44.4455 229.195 44.4819C229.331 44.4923 229.525 44.4732 229.779 44.4245C230.264 44.3253 230.654 44.4235 230.95 44.719C230.731 45.4978 229.91 45.8326 228.486 45.7233C227.514 45.6486 226.901 45.1924 226.647 44.3545C226.446 43.7252 226.323 42.9542 226.279 42.0415C226.237 41.1062 226.196 40.4665 226.154 40.1223C224.47 42.8119 222.915 44.4089 221.489 44.9132C220.764 45.1758 219.939 45.2715 219.012 45.2004C218.086 45.1292 217.396 44.633 216.944 43.7117C216.516 42.7695 216.368 41.4396 216.5 39.722C216.632 38.0044 217.053 36.2294 217.762 34.3969C218.472 32.5419 219.42 31.0119 220.603 29.807C221.789 28.5795 223.026 28.0152 224.314 28.1142C226.167 28.2565 227.34 29.1194 227.832 30.7031C228.251 32.0538 228.382 33.7575 228.224 35.8141ZM220.002 34.0915C219.591 35.2877 219.265 36.4333 219.022 37.5286C218.78 38.6013 218.626 39.567 218.56 40.4258C218.496 41.262 218.61 41.9982 218.902 42.6345C219.217 43.2724 219.657 43.6131 220.222 43.6565C221.442 43.7502 222.706 42.6878 224.013 40.4694C225.32 38.2509 226.05 36.1473 226.203 34.1585C226.302 32.8703 226.044 31.7821 225.43 30.8938C225.02 30.3167 224.442 29.9995 223.696 29.9422C222.973 29.8867 222.273 30.2649 221.597 31.0768C220.945 31.8679 220.413 32.8728 220.002 34.0915ZM245.996 46.0448C245.556 46.443 245.077 46.6221 244.557 46.5822C243.585 46.5076 242.902 45.9322 242.507 44.8562C242.112 43.7801 241.927 42.4928 241.951 40.9943C241.998 39.4975 242.067 38.0024 242.159 36.509C242.251 35.0157 242.224 33.7405 242.078 32.6836C241.954 31.6284 241.598 31.0782 241.011 31.0331C240.22 30.9723 239.487 31.6322 238.813 33.0126C238.161 34.3948 237.655 35.9473 237.296 37.6701C236.29 42.4806 235.471 45.157 234.838 45.6995C234.415 45.8717 234.057 45.9465 233.763 45.9239C233.47 45.9013 233.224 45.8484 233.025 45.7649C232.711 43.6493 232.68 40.0437 232.935 34.9483C233.085 32.4136 233.165 30.7716 233.177 30.0223C233.676 29.7424 234.095 29.6154 234.434 29.6415C234.773 29.6675 235.042 29.7222 235.24 29.8056C235.278 30.7861 235.182 32.7793 234.951 35.7851C234.743 38.7926 234.633 40.5233 234.621 40.977C234.77 40.5111 234.965 39.7531 235.205 38.703C235.467 37.6547 235.692 36.7968 235.88 36.1292C236.069 35.439 236.346 34.6419 236.711 33.7378C237.076 32.8338 237.46 32.1244 237.863 31.6098C238.268 31.0726 238.802 30.6361 239.464 30.3005C240.128 29.9423 240.856 29.7936 241.647 29.8543C242.709 29.9359 243.44 30.4808 243.84 31.489C244.265 32.4764 244.445 33.6837 244.38 35.111C244.316 36.5383 244.228 37.9864 244.115 39.4555C244.025 40.9262 244.102 42.2848 244.348 43.5312C244.616 44.7794 245.165 45.6173 245.996 46.0448ZM259.575 38.2215L259.106 42.107C258.955 44.0732 259.08 45.4126 259.479 46.1254C259.716 46.5982 260.071 46.8528 260.546 46.8893C260.682 46.8997 260.876 46.8805 261.13 46.8318C261.615 46.7327 262.006 46.8308 262.301 47.1263C262.082 47.9052 261.261 48.2399 259.837 48.1306C258.865 48.056 258.252 47.5997 257.998 46.7618C257.797 46.1325 257.674 45.3615 257.63 44.4489C257.589 43.5136 257.547 42.8738 257.505 42.5296C255.821 45.2192 254.266 46.8162 252.84 47.3206C252.116 47.5832 251.29 47.6789 250.363 47.6077C249.437 47.5366 248.747 47.0404 248.295 46.119C247.867 45.1769 247.719 43.847 247.851 42.1294C247.983 40.4117 248.404 38.6367 249.113 36.8043C249.823 34.9493 250.771 33.4193 251.954 32.2144C253.14 30.9869 254.377 30.4226 255.665 30.5215C257.518 30.6638 258.691 31.5268 259.183 33.1105C259.602 34.4612 259.733 36.1648 259.575 38.2215ZM251.353 36.4989C250.942 37.695 250.616 38.8407 250.373 39.9359C250.131 41.0086 249.977 41.9743 249.911 42.8331C249.847 43.6693 249.961 44.4056 250.253 45.0418C250.568 45.6798 251.008 46.0205 251.573 46.0638C252.793 46.1575 254.057 45.0952 255.364 42.8767C256.671 40.6583 257.401 38.5547 257.554 36.5659C257.653 35.2776 257.395 34.1894 256.781 33.3011C256.371 32.724 255.793 32.4068 255.047 32.3496C254.324 32.294 253.624 32.6722 252.948 33.4842C252.296 34.2753 251.764 35.2802 251.353 36.4989ZM272.891 35.4248C272.728 34.8894 272.375 34.4531 271.833 34.1159C271.29 33.7787 270.601 33.578 269.765 33.5138C268.928 33.4496 268.118 33.6374 267.334 34.0774C266.573 34.519 266.16 35.158 266.096 35.9942C266.032 36.8304 266.32 37.5231 266.959 38.0724C267.624 38.6008 268.432 39.0266 269.385 39.3498C270.36 39.6748 271.334 40.0223 272.305 40.3925C273.279 40.7401 274.08 41.2676 274.707 41.975C275.359 42.6616 275.645 43.5247 275.566 44.5643C275.449 46.0786 274.728 47.1826 273.402 47.8764C272.098 48.572 270.565 48.8521 268.802 48.7167C267.762 48.6369 266.417 48.2494 264.765 47.5542C263.136 46.8608 262.352 46.1186 262.413 45.3276C262.458 44.74 262.977 44.4843 263.972 44.5607C264.266 44.5833 264.636 44.7936 265.083 45.1916C266.448 46.3649 267.887 47.0097 269.401 47.1259C270.215 47.1884 270.926 47.1066 271.534 46.8805C272.659 46.444 273.266 45.6495 273.354 44.4968C273.408 43.7962 273.101 43.2043 272.434 42.7211C271.789 42.2397 270.978 41.8365 270.003 41.5115C269.05 41.1883 268.088 40.8416 267.116 40.4714C266.144 40.1013 265.334 39.5503 264.686 38.8185C264.061 38.0658 263.79 37.1584 263.872 36.0962C263.977 34.7176 264.685 33.6466 265.994 32.8832C267.303 32.1199 268.873 31.8085 270.703 31.949C271.946 32.0445 273.04 32.4581 273.984 33.1899C274.952 33.9008 275.39 34.8664 275.296 36.0868C275.233 36.9004 274.739 37.2716 273.812 37.2005C273.428 37.171 273.173 37.0832 273.048 36.9372C272.946 36.7929 272.896 36.5504 272.899 36.2097C272.927 35.8481 272.925 35.5865 272.891 35.4248Z" fill="#191919"/>
<path d="M266.598 177.367C264.615 175.118 262.632 172.869 260.286 170.191C261.513 169.893 262.34 169.649 263.263 169.567C282.456 167.156 296.482 153.676 301.105 133.27C304 120.141 302.15 107.748 297.883 95.469C293.081 81.7421 284.281 71.648 273.135 63.7872C267.391 59.7499 260.89 58.0759 254.087 57.5298C252.298 57.427 250.557 57.4046 248.503 57.9465C249.436 58.4272 250.389 59.1224 251.359 59.12C275.097 59.9985 296.487 86.7514 298.417 115.647C299.199 126.969 296.765 137.602 290.8 147.197C283.772 158.458 269.981 165.605 257.877 164.133C260.438 160.262 265.61 158.424 265.913 152.386C261.144 155.994 256.783 159.198 252.546 162.429C251.15 163.533 250.487 165.145 251.726 166.322C255.901 170.444 260.18 174.378 264.487 178.177C264.754 178.445 265.534 178.121 266.057 178.093C266.257 178.065 266.465 177.689 266.598 177.367Z" fill="#191919"/>
</svg>
