<svg width="272" height="201" viewBox="0 0 272 201" fill="none" xmlns="http://www.w3.org/2000/svg">
<path d="M19.7414 190.304L19.4429 169.224C19.795 168.851 20.175 168.659 20.5828 168.647C20.9906 168.635 21.3098 168.694 21.5402 168.824C21.7853 171.833 21.9358 174.311 21.9916 176.26L22.1711 192.003C22.1841 192.456 22.1965 192.887 22.2082 193.295C21.4521 193.815 20.8249 194.083 20.3264 194.097L19.9166 194.041C19.6868 193.934 19.5029 193.848 19.3651 193.784C19.2505 193.742 19.0873 193.588 18.8756 193.322C18.6645 193.079 18.5234 192.901 18.4522 192.79C18.3809 192.679 18.2152 192.434 17.9549 192.056C17.7173 191.677 17.5512 191.421 17.4567 191.288C17.3615 191.132 16.6862 190.12 15.4308 188.251C14.1973 186.359 13.4152 185.179 13.0844 184.713C12.7535 184.246 12.0449 183.257 10.9584 181.746C9.89465 180.235 9.0575 179.114 8.44696 178.383C6.63865 176.213 4.97863 174.469 3.46691 173.152C3.66534 176.117 3.81297 179.287 3.90981 182.663C4.00665 186.039 4.04202 189.643 4.01591 193.476C3.75572 193.892 3.00255 194.118 1.7564 194.153C1.38918 181.352 1.11769 173.469 0.941924 170.503C1.36071 170.083 1.77403 169.867 2.18186 169.855C2.58969 169.843 2.98944 169.945 3.38112 170.161C3.98061 170.507 4.65327 171.031 5.3991 171.736C7.86967 174.068 10.2137 176.734 12.4313 179.731C14.6714 182.728 17.1082 186.253 19.7414 190.304ZM27.7219 178.612C28.8268 176.812 30.4667 175.881 32.6418 175.818C34.8169 175.756 36.5756 176.59 37.9177 178.32C39.2826 180.05 39.9975 182.047 40.0625 184.313C40.1268 186.556 39.4677 188.48 38.0851 190.084C36.7026 191.688 34.9124 192.522 32.7146 192.585C30.5169 192.648 28.902 192.082 27.87 190.887C26.8373 189.67 26.2888 187.939 26.2244 185.696C26.1406 182.774 26.6398 180.412 27.7219 178.612ZM29.269 180.371C28.9998 181.263 28.7986 182.153 28.6653 183.041C28.5547 183.929 28.5105 184.758 28.5326 185.528C28.554 186.276 28.6305 186.965 28.762 187.596C28.8928 188.205 29.1029 188.811 29.3924 189.415C29.6811 189.996 30.1026 190.46 30.6568 190.807C31.2103 191.132 31.8609 191.283 32.6086 191.262C34.1267 191.218 35.3776 190.559 36.3614 189.283C37.3679 188.007 37.8458 186.485 37.7951 184.718C37.7444 182.951 37.2196 181.254 36.2205 179.627C35.2435 177.977 34.0752 177.172 32.7158 177.211C31.9001 177.234 31.1945 177.538 30.599 178.122C30.0035 178.706 29.5602 179.455 29.269 180.371ZM59.4394 178.213C59.2205 177.698 58.8237 177.301 58.2488 177.022C57.6739 176.744 56.9673 176.617 56.129 176.641C55.2907 176.665 54.5048 176.937 53.7714 177.457C53.0607 177.976 52.7173 178.655 52.7414 179.493C52.7654 180.332 53.1244 180.99 53.8185 181.469C54.5345 181.925 55.3832 182.263 56.3646 182.485C57.3687 182.705 58.3734 182.949 59.3788 183.215C60.3835 183.458 61.2352 183.898 61.9337 184.536C62.6543 185.15 63.0295 185.978 63.0594 187.021C63.103 188.539 62.5017 189.712 61.2557 190.542C60.0323 191.371 58.5369 191.81 56.7696 191.861C55.7274 191.891 54.3485 191.647 52.633 191.129C50.9401 190.611 50.0823 189.955 50.0595 189.162C50.0426 188.573 50.5326 188.264 51.5295 188.236C51.8241 188.227 52.2145 188.398 52.7007 188.746C54.1813 189.77 55.6806 190.26 57.1987 190.216C58.0143 190.193 58.7128 190.037 59.2941 189.748C60.3667 189.195 60.8864 188.342 60.8533 187.186C60.8331 186.484 60.4657 185.927 59.751 185.517C59.0589 185.106 58.2108 184.79 57.2068 184.569C56.2253 184.348 55.2319 184.105 54.2266 183.839C53.2212 183.573 52.3576 183.11 51.6357 182.45C50.9358 181.767 50.5706 180.894 50.5401 179.829C50.5004 178.447 51.0913 177.307 52.3128 176.41C53.5342 175.514 55.0626 175.039 56.8978 174.986C58.144 174.951 59.275 175.247 60.2907 175.875C61.3285 176.481 61.865 177.395 61.9 178.618C61.9234 179.434 61.4707 179.855 60.5417 179.882C60.1565 179.893 59.894 179.832 59.7542 179.7C59.637 179.568 59.5622 179.332 59.5298 178.993C59.5194 178.63 59.4893 178.37 59.4394 178.213ZM68.431 175.608C67.8738 176.735 67.6267 178.397 67.6897 180.595C67.7846 183.903 68.4834 186.525 69.7861 188.46C70.5443 189.595 71.4218 190.148 72.4187 190.12C73.4383 190.09 74.2387 189.534 74.8199 188.452C75.5073 187.117 75.8178 185.294 75.7515 182.983C75.6683 180.083 75.199 177.954 74.3437 176.595C73.9624 175.948 73.7335 175.479 73.6571 175.186C73.6033 174.893 73.6764 174.675 73.8764 174.533C74.0764 174.392 74.4144 174.314 74.8902 174.3C76.2723 174.261 77.2195 175.662 77.7319 178.504C77.8906 179.294 77.9813 180.085 78.004 180.878C78.0632 182.939 77.7145 185.013 76.958 187.098C75.8837 189.963 74.1004 191.432 71.6081 191.503C70.294 191.541 69.1584 191.086 68.2015 190.139C66.4036 188.331 65.4511 185.557 65.3438 181.819C65.297 180.188 65.3746 178.938 65.5764 178.071C65.7783 177.203 65.955 176.643 66.1064 176.389C66.2572 176.112 66.4427 175.858 66.6628 175.625C66.8828 175.392 67.1295 175.294 67.4026 175.331C67.6985 175.368 68.0413 175.46 68.431 175.608ZM95.6082 189.829C95.2127 190.271 94.7544 190.499 94.2333 190.514C93.259 190.542 92.519 190.042 92.0133 189.013C91.5076 187.985 91.188 186.724 91.0545 185.231C90.9436 183.738 90.8554 182.244 90.7899 180.749C90.7243 179.254 90.5633 177.989 90.3068 176.953C90.073 175.917 89.6616 175.407 89.0725 175.424C88.2795 175.447 87.6202 176.18 87.0947 177.624C86.5919 179.067 86.2522 180.664 86.0757 182.415C85.581 187.304 85.0476 190.052 84.4754 190.658C84.0734 190.874 83.7252 190.986 83.4306 190.994C83.1361 191.003 82.8859 190.976 82.68 190.914C82.1444 188.843 81.7355 185.26 81.4533 180.166C81.3352 177.63 81.2428 175.989 81.176 175.242C81.6427 174.912 82.046 174.741 82.3859 174.731C82.7257 174.722 82.9986 174.748 83.2045 174.81C83.3457 175.781 83.4595 177.773 83.546 180.787C83.6551 183.799 83.7275 185.532 83.7631 185.985C83.8627 185.506 83.9766 184.731 84.1046 183.662C84.2554 182.592 84.3889 181.715 84.5054 181.031C84.6212 180.325 84.813 179.503 85.0809 178.566C85.3488 177.628 85.6562 176.883 86.0032 176.328C86.3494 175.752 86.8342 175.261 87.4576 174.858C88.0803 174.432 88.7882 174.208 89.5812 174.185C90.6461 174.154 91.4304 174.619 91.9341 175.58C92.4599 176.517 92.7659 177.699 92.8522 179.125C92.9384 180.551 93.0027 182.001 93.0449 183.473C93.1098 184.945 93.3298 186.288 93.7047 187.502C94.1023 188.715 94.7368 189.491 95.6082 189.829ZM111.771 189.365C111.376 189.807 110.918 190.036 110.397 190.051C109.422 190.079 108.682 189.578 108.177 188.55C107.671 187.521 107.351 186.26 107.218 184.768C107.107 183.274 107.019 181.78 106.953 180.285C106.888 178.791 106.727 177.525 106.47 176.49C106.236 175.453 105.825 174.943 105.236 174.96C104.443 174.983 103.784 175.716 103.258 177.16C102.755 178.603 102.416 180.2 102.239 181.951C101.744 186.841 101.211 189.588 100.639 190.194C100.237 190.41 99.8884 190.522 99.5939 190.531C99.2993 190.539 99.0491 190.512 98.8433 190.45C98.3077 188.379 97.8988 184.797 97.6166 179.703C97.4985 177.166 97.4061 175.525 97.3393 174.779C97.806 174.448 98.2093 174.278 98.5491 174.268C98.889 174.258 99.1619 174.284 99.3677 174.346C99.509 175.317 99.6228 177.31 99.7092 180.323C99.8183 183.336 99.8907 185.068 99.9264 185.521C100.026 185.042 100.14 184.268 100.268 183.198C100.419 182.128 100.552 181.251 100.669 180.568C100.784 179.861 100.976 179.04 101.244 178.102C101.512 177.165 101.82 176.419 102.166 175.865C102.513 175.288 102.998 174.798 103.621 174.394C104.244 173.968 104.951 173.744 105.744 173.721C106.809 173.691 107.594 174.156 108.097 175.116C108.623 176.054 108.929 177.235 109.015 178.662C109.102 180.088 109.166 181.537 109.208 183.01C109.273 184.482 109.493 185.825 109.868 187.039C110.266 188.252 110.9 189.027 111.771 189.365ZM115.689 165.171C115.682 165.692 115.687 166.27 115.705 166.905C115.723 167.539 115.776 168.195 115.864 168.873C115.557 169.245 115.131 169.438 114.588 169.454C113.908 169.473 113.552 168.939 113.521 167.852C113.52 167.807 113.515 167.637 113.507 167.342C113.498 167.048 113.491 166.787 113.484 166.56C113.5 166.311 113.537 166.026 113.596 165.707C113.739 165.159 114.082 164.877 114.626 164.861C115.17 164.845 115.524 164.949 115.689 165.171ZM113.992 181.886C113.864 177.445 114.018 174.879 114.451 174.186C114.603 173.932 114.792 173.802 115.018 173.795C115.245 173.789 115.622 173.903 116.151 174.137C116.093 176.066 116.096 178.164 116.161 180.429C116.161 180.429 116.255 182.932 116.444 187.938C116.465 188.641 116.32 189.144 116.011 189.447C115.725 189.728 115.445 189.872 115.174 189.88C114.924 189.887 114.662 189.826 114.386 189.698C114.188 186.756 114.057 184.152 113.992 181.886ZM122.333 183.109C122.301 183.564 122.287 183.87 122.291 184.029C122.33 185.388 122.768 186.43 123.606 187.155C124.465 187.878 125.462 188.224 126.594 188.191C127.727 188.159 128.64 187.974 129.334 187.637C130.05 187.299 130.561 186.944 130.868 186.572C131.654 185.529 132.387 184.998 133.067 184.978C133.316 184.971 133.613 185.031 133.957 185.157C133.762 186.274 132.93 187.318 131.461 188.29C130.015 189.238 128.17 189.745 125.927 189.809C124.341 189.855 122.956 189.396 121.771 188.432C120.609 187.445 120.003 186.079 119.953 184.334C119.903 182.59 120.195 180.892 120.827 179.241C121.482 177.567 122.439 176.134 123.697 174.941C124.978 173.725 126.286 173.098 127.623 173.06C128.982 173.021 130.078 173.273 130.91 173.816C131.764 174.335 132.206 175.128 132.237 176.193C132.293 178.164 131.456 179.821 129.726 181.163C128.018 182.482 126.178 183.169 124.207 183.226C123.686 183.241 123.061 183.202 122.333 183.109ZM124.884 181.914C125.949 181.883 126.891 181.516 127.709 180.812C128.528 180.109 129.097 179.378 129.415 178.621C129.756 177.862 129.918 177.178 129.9 176.566C129.883 175.954 129.63 175.428 129.141 174.989C128.652 174.527 128.09 174.305 127.455 174.323C126.322 174.355 125.291 175.167 124.362 176.759C123.455 178.349 122.822 179.989 122.462 181.677C123.465 181.853 124.272 181.931 124.884 181.914ZM145.002 175.758C144.783 175.243 144.386 174.846 143.811 174.568C143.236 174.29 142.53 174.163 141.691 174.187C140.853 174.211 140.067 174.483 139.334 175.003C138.623 175.522 138.28 176.201 138.304 177.039C138.328 177.877 138.687 178.536 139.381 179.015C140.097 179.471 140.946 179.809 141.927 180.03C142.931 180.251 143.936 180.494 144.941 180.76C145.946 181.004 146.798 181.444 147.496 182.082C148.217 182.696 148.592 183.524 148.622 184.566C148.665 186.084 148.064 187.258 146.818 188.087C145.595 188.916 144.099 189.356 142.332 189.407C141.29 189.437 139.911 189.193 138.195 188.675C136.503 188.157 135.645 187.501 135.622 186.708C135.605 186.119 136.095 185.81 137.092 185.781C137.387 185.773 137.777 185.943 138.263 186.292C139.744 187.315 141.243 187.805 142.761 187.762C143.577 187.738 144.275 187.582 144.857 187.293C145.929 186.741 146.449 185.887 146.416 184.732C146.396 184.029 146.028 183.473 145.313 183.063C144.621 182.652 143.773 182.336 142.769 182.115C141.788 181.894 140.794 181.65 139.789 181.384C138.784 181.118 137.92 180.656 137.198 179.996C136.498 179.313 136.133 178.439 136.103 177.374C136.063 175.992 136.654 174.853 137.875 173.956C139.097 173.059 140.625 172.585 142.46 172.532C143.706 172.496 144.837 172.793 145.853 173.421C146.891 174.026 147.427 174.941 147.463 176.164C147.486 176.98 147.033 177.401 146.104 177.428C145.719 177.439 145.456 177.378 145.317 177.246C145.199 177.113 145.125 176.877 145.092 176.538C145.082 176.176 145.052 175.916 145.002 175.758ZM160.082 174.816C161.186 173.015 162.826 172.084 165.001 172.021C167.177 171.959 168.935 172.793 170.277 174.523C171.642 176.253 172.357 178.25 172.422 180.516C172.486 182.759 171.827 184.683 170.445 186.287C169.062 187.892 167.272 188.725 165.074 188.788C162.876 188.851 161.262 188.285 160.23 187.09C159.197 185.873 158.648 184.143 158.584 181.9C158.5 178.977 158.999 176.615 160.082 174.816ZM161.629 176.574C161.359 177.466 161.158 178.356 161.025 179.244C160.914 180.132 160.87 180.961 160.892 181.731C160.914 182.479 160.99 183.168 161.122 183.8C161.252 184.408 161.463 185.014 161.752 185.618C162.041 186.2 162.462 186.664 163.016 187.011C163.57 187.335 164.221 187.486 164.968 187.465C166.486 187.421 167.737 186.762 168.721 185.486C169.728 184.21 170.205 182.689 170.155 180.921C170.104 179.154 169.579 177.457 168.58 175.83C167.603 174.18 166.435 173.375 165.075 173.414C164.26 173.437 163.554 173.741 162.959 174.325C162.363 174.909 161.92 175.659 161.629 176.574ZM179.227 185.049L179.384 186.983C179.399 187.482 179.261 187.837 178.973 188.049C178.706 188.239 178.425 188.337 178.131 188.346C177.859 188.354 177.574 188.316 177.277 188.234C176.703 185.62 176.224 182.357 175.84 178.445C175.478 174.533 175.267 172.317 175.207 171.797C175.538 171.47 175.885 171.301 176.247 171.291C176.632 171.28 176.973 171.315 177.271 171.397C177.38 172.052 177.49 173.5 177.599 175.742C177.709 177.984 177.806 179.387 177.89 179.951C178.153 178.039 178.668 176.244 179.436 174.567C179.863 173.625 180.431 172.871 181.14 172.307C181.872 171.719 182.657 171.413 183.495 171.389C184.356 171.364 185.149 171.727 185.873 172.477C186.62 173.204 187.002 173.873 187.019 174.485C187.026 174.712 186.895 174.897 186.627 175.041C186.358 175.162 186.054 175.227 185.714 175.237C185.397 175.246 185.144 175.129 184.956 174.884C184.767 174.64 184.635 174.372 184.558 174.08C184.481 173.764 184.326 173.485 184.092 173.243C183.859 173 183.549 172.884 183.164 172.895C182.144 172.924 181.298 173.867 180.626 175.723C179.594 178.496 179.128 181.605 179.227 185.049ZM199.141 186.757C199.261 188.59 199.562 191.178 200.044 194.52C199.626 194.963 199.122 195.193 198.533 195.21C198.42 195.213 198.295 195.205 198.158 195.186C198.11 194.303 197.883 192.303 197.476 189.185C197.091 186.067 196.876 183.681 196.828 182.027C196.78 180.35 196.84 178.897 197.009 177.668C197.178 176.439 197.496 175.284 197.964 174.205C198.921 171.978 200.77 170.825 203.512 170.747C205.211 170.698 206.631 171.587 207.772 173.414C208.913 175.24 209.518 177.389 209.589 179.858C209.645 181.807 209.06 183.536 207.833 185.045C206.607 186.554 204.872 187.341 202.629 187.405C201.247 187.445 200.084 187.228 199.141 186.757ZM203.292 172.59C201.366 172.645 200.115 173.679 199.538 175.691C199.043 177.406 198.838 179.758 198.924 182.749C198.955 183.837 198.989 184.641 199.027 185.161C201.056 185.534 202.433 185.71 203.158 185.689C204.472 185.651 205.499 185.1 206.24 184.036C206.979 182.949 207.328 181.646 207.284 180.128C207.22 177.885 206.827 176.06 206.107 174.652C205.409 173.243 204.47 172.556 203.292 172.59ZM216.432 183.982L216.59 185.916C216.604 186.414 216.467 186.77 216.178 186.982C215.911 187.171 215.631 187.27 215.336 187.278C215.064 187.286 214.78 187.249 214.483 187.167C213.909 184.553 213.43 181.29 213.045 177.378C212.684 173.466 212.473 171.249 212.413 170.73C212.743 170.403 213.09 170.234 213.452 170.223C213.838 170.212 214.179 170.248 214.476 170.33C214.585 170.985 214.695 172.433 214.805 174.675C214.914 176.916 215.011 178.319 215.095 178.884C215.358 176.972 215.874 175.177 216.642 173.499C217.068 172.557 217.636 171.804 218.346 171.24C219.077 170.652 219.862 170.346 220.7 170.322C221.561 170.297 222.354 170.66 223.078 171.41C223.825 172.137 224.207 172.806 224.225 173.418C224.231 173.644 224.1 173.83 223.832 173.973C223.564 174.094 223.259 174.16 222.92 174.17C222.602 174.179 222.35 174.061 222.161 173.817C221.973 173.573 221.84 173.305 221.764 173.012C221.687 172.697 221.531 172.418 221.298 172.175C221.064 171.933 220.755 171.817 220.369 171.828C219.35 171.857 218.504 172.8 217.831 174.656C216.8 177.429 216.333 180.538 216.432 183.982ZM227.357 172.886C228.461 171.085 230.101 170.154 232.277 170.092C234.452 170.029 236.21 170.863 237.552 172.593C238.917 174.323 239.632 176.321 239.697 178.586C239.761 180.829 239.102 182.753 237.72 184.357C236.337 185.962 234.547 186.795 232.349 186.858C230.152 186.922 228.537 186.356 227.505 185.161C226.472 183.943 225.923 182.213 225.859 179.97C225.775 177.047 226.274 174.686 227.357 172.886ZM228.904 174.644C228.634 175.536 228.433 176.426 228.3 177.315C228.189 178.202 228.145 179.031 228.167 179.801C228.189 180.549 228.265 181.239 228.397 181.87C228.527 182.478 228.738 183.084 229.027 183.688C229.316 184.27 229.737 184.734 230.291 185.081C230.845 185.405 231.496 185.556 232.243 185.535C233.761 185.491 235.012 184.832 235.996 183.557C237.003 182.281 237.481 180.759 237.43 178.992C237.379 177.224 236.854 175.527 235.855 173.901C234.878 172.251 233.71 171.445 232.35 171.484C231.535 171.508 230.829 171.811 230.234 172.395C229.638 172.979 229.195 173.729 228.904 174.644ZM245.208 185.435C245.328 187.268 245.629 189.856 246.111 193.199C245.693 193.641 245.189 193.871 244.6 193.888C244.487 193.891 244.362 193.884 244.225 193.865C244.177 192.982 243.95 190.982 243.543 187.864C243.158 184.746 242.943 182.36 242.895 180.706C242.847 179.029 242.907 177.576 243.076 176.347C243.245 175.117 243.563 173.963 244.031 172.884C244.988 170.657 246.837 169.504 249.578 169.425C251.278 169.377 252.698 170.266 253.839 172.092C254.98 173.919 255.585 176.067 255.656 178.537C255.712 180.485 255.127 182.214 253.9 183.723C252.674 185.232 250.939 186.019 248.696 186.083C247.314 186.123 246.151 185.907 245.208 185.435ZM249.359 171.268C247.433 171.324 246.182 172.357 245.605 174.369C245.11 176.084 244.905 178.437 244.991 181.428C245.022 182.515 245.056 183.319 245.094 183.84C247.123 184.212 248.5 184.388 249.225 184.368C250.539 184.33 251.566 183.779 252.307 182.715C253.046 181.628 253.395 180.325 253.351 178.807C253.287 176.564 252.894 174.738 252.174 173.33C251.476 171.922 250.537 171.235 249.359 171.268ZM267.405 172.247C267.186 171.732 266.789 171.335 266.214 171.057C265.639 170.779 264.933 170.652 264.094 170.676C263.256 170.7 262.47 170.972 261.737 171.492C261.026 172.011 260.683 172.69 260.707 173.528C260.731 174.366 261.09 175.025 261.784 175.504C262.5 175.959 263.348 176.298 264.33 176.519C265.334 176.74 266.339 176.983 267.344 177.249C268.349 177.492 269.2 177.933 269.899 178.57C270.62 179.185 270.995 180.013 271.025 181.055C271.068 182.573 270.467 183.747 269.221 184.576C267.997 185.405 266.502 185.845 264.735 185.895C263.693 185.925 262.314 185.681 260.598 185.164C258.905 184.645 258.047 183.99 258.025 183.197C258.008 182.608 258.498 182.299 259.495 182.27C259.789 182.262 260.18 182.432 260.666 182.781C262.147 183.804 263.646 184.294 265.164 184.251C265.98 184.227 266.678 184.071 267.259 183.782C268.332 183.23 268.852 182.376 268.819 181.22C268.798 180.518 268.431 179.962 267.716 179.551C267.024 179.14 266.176 178.825 265.172 178.604C264.191 178.383 263.197 178.139 262.192 177.873C261.186 177.607 260.323 177.144 259.601 176.485C258.901 175.802 258.536 174.928 258.505 173.863C258.466 172.481 259.057 171.342 260.278 170.445C261.499 169.548 263.028 169.074 264.863 169.021C266.109 168.985 267.24 169.281 268.256 169.91C269.294 170.515 269.83 171.429 269.865 172.653C269.889 173.469 269.436 173.89 268.507 173.916C268.122 173.927 267.859 173.867 267.719 173.735C267.602 173.602 267.527 173.366 267.495 173.027C267.485 172.665 267.455 172.405 267.405 172.247Z" fill="#191919"/>
<path d="M131.041 8.52352C127.131 9.85148 123.313 11.0658 119.002 12.538C119.043 9.81757 120.532 8.1029 122.317 7.299C127.675 4.88727 133.145 2.56884 138.769 0.757505C141.982 -0.292326 143.962 1.91419 143.254 5.22311C142.145 10.7657 140.719 16.2353 139.405 21.7982C139.333 22.1187 139.271 22.5427 139.076 22.6666C138.409 23.2551 137.619 23.6468 136.839 24.1421C136.459 23.4484 135.669 22.7954 135.71 22.1645C135.802 19.9614 136.11 17.8414 136.316 15.7316C136.408 14.5732 136.614 13.5081 135.936 11.9037C134.817 13.1638 133.596 14.4341 132.477 15.6942C110.492 42.7388 125.25 104.523 144.81 133.507C147.355 137.225 150.28 140.592 153.02 144.186C153.975 145.449 154.826 146.723 155.781 147.986C155.606 148.317 155.319 148.554 155.144 148.885C154.19 148.666 152.948 148.685 152.26 148.022C149.88 145.96 147.499 143.897 145.395 141.494C124.377 117.668 103.892 57.706 118.806 28.3329C121.67 22.7208 125.519 17.6379 128.937 12.3887C129.655 11.2728 130.497 10.3535 131.328 9.33082C131.41 9.11373 131.277 8.81353 131.041 8.52352Z" fill="#191919"/>
</svg>
