<svg width="80" height="81" viewBox="0 0 80 81" fill="none" xmlns="http://www.w3.org/2000/svg">
<path d="M40 80.5833C62.0914 80.5833 80 62.5738 80 40.358C80 18.1423 62.0914 0.132812 40 0.132812C17.9086 0.132812 0 18.1423 0 40.358C0 62.5738 17.9086 80.5833 40 80.5833Z" fill="url(#paint0_linear_553_16582)"/>
<path d="M70.8333 37.6721V63.1613C70.8333 74.2329 64.2329 80.8333 53.1613 80.8333H27.6721C16.6004 80.8333 10 74.2329 10 63.1613V37.6721C10 36.1208 10.1217 34.6304 10.3954 33.2617C11.9467 24.8971 18.1213 20.0304 27.5504 20H53.2829C62.7121 20.0304 68.8867 24.8971 70.4379 33.2617C70.7117 34.6304 70.8333 36.1208 70.8333 37.6721Z" fill="white"/>
<path d="M70.9173 37.6721V37.8242H10.084V37.6721C10.084 36.1208 10.2057 34.6304 10.4794 33.2617H27.6344V20H32.1969V33.2617H48.8044V20H53.3669V33.2617H70.5219C70.7957 34.6304 70.9173 36.1208 70.9173 37.6721Z" fill="#DFEAFB"/>
<path d="M41.0004 44.0703C37.1819 44.0703 34.0776 47.0052 34.0776 50.6153C34.0776 54.1566 37.007 57.0226 40.8255 57.1466C40.9421 57.1328 41.0587 57.1328 41.1461 57.1466C41.1753 57.1466 41.1898 57.1466 41.219 57.1466C41.2336 57.1466 41.2336 57.1466 41.2481 57.1466C44.9791 57.0226 47.9085 54.1566 47.9231 50.6153C47.9231 47.0052 44.8188 44.0703 41.0004 44.0703Z" fill="#4285F4"/>
<path d="M48.216 60.6587C44.2532 58.0278 37.7904 58.0278 33.7991 60.6587C31.9952 61.8609 31.001 63.4875 31.001 65.2272C31.001 66.967 31.9952 68.5794 33.7849 69.7675C35.7735 71.0971 38.387 71.7618 41.0005 71.7618C43.614 71.7618 46.2275 71.0971 48.216 69.7675C50.0057 68.5652 51 66.9528 51 65.1989C50.9858 63.4592 50.0057 61.8468 48.216 60.6587Z" fill="#4285F4"/>
<defs>
<linearGradient id="paint0_linear_553_16582" x1="40" y1="0.132812" x2="40" y2="80.5833" gradientUnits="userSpaceOnUse">
<stop stop-color="#E3ECFA"/>
<stop offset="1" stop-color="#DAE7FF"/>
</linearGradient>
</defs>
</svg>
