<svg width="72" height="99" viewBox="0 0 72 99" fill="none" xmlns="http://www.w3.org/2000/svg">
<path d="M69.9548 60.0092L65.3486 52.1413C64.3813 50.3877 63.5061 47.0699 63.5061 45.1266V33.1352C63.5061 21.9969 57.1495 12.3754 47.9831 7.87268C45.5879 3.51217 41.1659 0.810547 36.0991 0.810547C31.0783 0.810547 26.5642 3.60696 24.169 8.01487C15.1868 12.6124 8.96843 22.1391 8.96843 33.1352V45.1266C8.96843 47.0699 8.09325 50.3877 7.12594 52.0939L2.47366 60.0092C0.631168 63.1848 0.216607 66.6922 1.36816 69.9152C2.47366 73.0908 5.0992 75.5554 8.50781 76.7403C17.4439 79.8685 26.8406 81.3852 36.2373 81.3852C45.6339 81.3852 55.0306 79.8685 63.9667 76.7877C67.1911 75.6976 69.6784 73.1855 70.876 69.9152C72.0737 66.6448 71.7512 63.0426 69.9548 60.0092Z" fill="#191919"/>
<path d="M47.9667 87.195C46.2109 93.8712 41.5704 98.6481 36.1357 98.6481C32.8331 98.6481 29.5722 96.8064 27.2729 93.5259C25.9351 91.7993 24.9318 89.4972 24.3465 87.1375C24.89 87.2526 25.4335 87.3101 26.0188 87.4252C26.9803 87.5979 27.9836 87.7706 28.987 87.8857C31.3699 88.1734 33.7946 88.3461 36.2193 88.3461C38.6022 88.3461 40.9852 88.1734 43.3263 87.8857C44.2042 87.7706 45.0821 87.713 45.9182 87.5404C46.5871 87.4252 47.256 87.3101 47.9667 87.195Z" fill="#191919"/>
</svg>
