<svg width="21" height="17" viewBox="0 0 21 17" fill="none" xmlns="http://www.w3.org/2000/svg">
<path d="M4.93 7.55002C4.19026 7.55252 3.46362 7.74537 2.82 8.11002C3.72615 5.76453 5.22906 3.6963 7.18 2.11002C7.29162 2.01809 7.38405 1.90508 7.452 1.77744C7.51994 1.64979 7.56209 1.51002 7.57602 1.36609C7.58994 1.22216 7.57539 1.07689 7.53318 0.938585C7.49096 0.80028 7.42193 0.671644 7.33 0.56002C7.23808 0.448397 7.12506 0.355971 6.99742 0.288023C6.86978 0.220075 6.73 0.177933 6.58607 0.164004C6.44213 0.150076 6.29687 0.164633 6.15857 0.206844C6.02026 0.249056 5.89162 0.318095 5.78 0.41002C1.78 3.66002 0 8.16002 0 10.95C0.00689204 11.9365 0.30087 12.8997 0.84604 13.7218C1.39121 14.544 2.16398 15.1897 3.07 15.58C3.65636 15.8641 4.29849 16.0144 4.95 16.02C5.52346 16.0479 6.09661 15.959 6.63469 15.7588C7.17278 15.5585 7.66458 15.2511 8.0803 14.8551C8.49601 14.4591 8.82697 13.9828 9.05311 13.455C9.27925 12.9273 9.39585 12.3592 9.39585 11.785C9.39585 11.2109 9.27925 10.6427 9.05311 10.115C8.82697 9.58727 8.49601 9.11097 8.0803 8.71497C7.66458 8.31897 7.17278 8.01153 6.63469 7.81128C6.09661 7.61103 5.52346 7.52214 4.95 7.55002H4.93Z" fill="#191919"/>
<path d="M16.07 7.55002C15.3301 7.55162 14.6033 7.74453 13.96 8.11002C14.8658 5.76698 16.3647 3.69945 18.31 2.11002C18.4318 2.02226 18.5343 1.91051 18.6112 1.78165C18.6882 1.65278 18.7379 1.50954 18.7574 1.36073C18.777 1.21191 18.7658 1.06068 18.7247 0.916331C18.6836 0.771984 18.6134 0.637579 18.5184 0.521387C18.4234 0.405194 18.3056 0.309673 18.1723 0.240701C18.039 0.17173 17.893 0.130769 17.7432 0.120336C17.5935 0.109904 17.4432 0.130222 17.3017 0.180041C17.1601 0.22986 17.0302 0.308125 16.92 0.41002C12.92 3.66002 11.14 8.16002 11.14 10.95C11.1447 11.9253 11.4301 12.8787 11.9621 13.6962C12.4941 14.5136 13.2502 15.1607 14.14 15.56C14.7412 15.8524 15.4015 16.0029 16.07 16C16.6435 16.0279 17.2166 15.939 17.7547 15.7388C18.2928 15.5385 18.7846 15.2311 19.2003 14.8351C19.616 14.4391 19.947 13.9628 20.1731 13.435C20.3992 12.9073 20.5159 12.3392 20.5159 11.765C20.5159 11.1909 20.3992 10.6227 20.1731 10.095C19.947 9.56727 19.616 9.09097 19.2003 8.69497C18.7846 8.29897 18.2928 7.99153 17.7547 7.79128C17.2166 7.59103 16.6435 7.50215 16.07 7.53002V7.55002Z" fill="#191919"/>
</svg>
