<svg width="30" height="30" viewBox="0 0 30 30" fill="none" xmlns="http://www.w3.org/2000/svg">
<path opacity="0.4" d="M23.75 11.25C23.75 13.0625 23.2125 14.725 22.2875 16.1125C20.9375 18.1125 18.8 19.525 16.3125 19.8875C15.8875 19.9625 15.45 20 15 20C14.55 20 14.1125 19.9625 13.6875 19.8875C11.2 19.525 9.0625 18.1125 7.7125 16.1125C6.7875 14.725 6.25 13.0625 6.25 11.25C6.25 6.4125 10.1625 2.5 15 2.5C19.8375 2.5 23.75 6.4125 23.75 11.25Z" fill="#0070F4"/>
<path d="M26.5648 23.0875L24.5023 23.575C24.0398 23.6875 23.6773 24.0375 23.5773 24.5L23.1398 26.3375C22.9023 27.3375 21.6273 27.6375 20.9648 26.85L15.0023 20L9.0398 26.8625C8.3773 27.65 7.1023 27.35 6.8648 26.35L6.4273 24.5125C6.3148 24.05 5.9523 23.6875 5.5023 23.5875L3.4398 23.1C2.4898 22.875 2.1523 21.6875 2.8398 21L7.7148 16.125C9.0648 18.125 11.2023 19.5375 13.6898 19.9C14.1148 19.975 14.5523 20.0125 15.0023 20.0125C15.4523 20.0125 15.8898 19.975 16.3148 19.9C18.8023 19.5375 20.9398 18.125 22.2898 16.125L27.1648 21C27.8523 21.675 27.5148 22.8625 26.5648 23.0875Z" fill="#0070F4"/>
<path d="M15.7235 7.475L16.461 8.94999C16.561 9.14999 16.8235 9.35 17.061 9.3875L18.3985 9.61249C19.2485 9.74999 19.4485 10.375 18.836 10.9875L17.7985 12.025C17.6235 12.2 17.5235 12.5375 17.586 12.7875L17.886 14.075C18.1235 15.0875 17.586 15.4875 16.686 14.95L15.436 14.2125C15.211 14.075 14.836 14.075 14.611 14.2125L13.361 14.95C12.461 15.475 11.9235 15.0875 12.161 14.075L12.461 12.7875C12.511 12.55 12.4235 12.2 12.2485 12.025L11.211 10.9875C10.5985 10.375 10.7985 9.76249 11.6485 9.61249L12.986 9.3875C13.211 9.35 13.4735 9.14999 13.5735 8.94999L14.311 7.475C14.6735 6.675 15.3235 6.675 15.7235 7.475Z" fill="#0070F4"/>
</svg>
