<svg width="86" height="86" viewBox="0 0 86 86" fill="none" xmlns="http://www.w3.org/2000/svg">
<path d="M75.5389 30.7454V55.2553C75.5389 59.2687 73.3889 62.9955 69.913 65.038L48.628 77.3288C45.1522 79.3354 40.8522 79.3354 37.3405 77.3288L16.0555 65.038C12.5797 63.0313 10.4297 59.3045 10.4297 55.2553V30.7454C10.4297 26.7321 12.5797 23.0053 16.0555 20.9628L37.3405 8.67199C40.8164 6.66533 45.1164 6.66533 48.628 8.67199L69.913 20.9628C73.3889 23.0053 75.5389 26.6963 75.5389 30.7454Z" stroke="#292D32" stroke-width="4" stroke-linecap="round" stroke-linejoin="round"/>
<path d="M43.0054 39.416C47.6165 39.416 51.3546 35.6779 51.3546 31.0668C51.3546 26.4557 47.6165 22.7178 43.0054 22.7178C38.3943 22.7178 34.6562 26.4557 34.6562 31.0668C34.6562 35.6779 38.3943 39.416 43.0054 39.416Z" stroke="#0070F4" stroke-width="4" stroke-linecap="round" stroke-linejoin="round"/>
<path d="M57.3346 59.6991C57.3346 53.2491 50.9205 48.0176 43.0013 48.0176C35.0821 48.0176 28.668 53.2491 28.668 59.6991" stroke="#0070F4" stroke-width="4" stroke-linecap="round" stroke-linejoin="round"/>
</svg>
