<svg xmlns="http://www.w3.org/2000/svg" width="35.999" height="31.499" viewBox="0 0 35.999 31.499">
  <g id="images" transform="translate(0 -2.25)">
    <path id="Path_405" data-name="Path 405" d="M31.661,7.875H9.984a4.348,4.348,0,0,0-4.359,4.312v17.25a4.349,4.349,0,0,0,4.359,4.312H31.64A4.27,4.27,0,0,0,36,29.53V12.187A4.33,4.33,0,0,0,31.66,7.875Zm-5.425,4.313a3.234,3.234,0,1,1-3.254,3.234,3.234,3.234,0,0,1,3.254-3.234ZM9.955,31.594a2.107,2.107,0,0,1-2.1-2.156V24.88l6.36-5.681a3.272,3.272,0,0,1,4.461.129l4.4,4.367-7.945,7.9Zm23.8-2.156a2.156,2.156,0,0,1-2.159,2.156H18.211l8.232-8.18a3.251,3.251,0,0,1,4.179-.011l3.128,2.654Z" fill="#2c8bed"/>
    <path id="Path_406" data-name="Path 406" d="M27,2.25H4.5A4.5,4.5,0,0,0,0,6.75v18a4.508,4.508,0,0,0,3.375,4.359V10.688A5.063,5.063,0,0,1,8.438,5.625H31.36A4.508,4.508,0,0,0,27,2.25Z" fill="#2c8bed"/>
  </g>
</svg>
