<svg xmlns="http://www.w3.org/2000/svg" width="32.5" height="32.5" viewBox="0 0 32.5 32.5">
  <g id="Group_1881" data-name="Group 1881" transform="translate(-957.843 -3854.5)">
    <path id="facebook-with-circle" d="M16.97.72A16.25,16.25,0,1,0,33.22,16.97,16.249,16.249,0,0,0,16.97.72Z" transform="translate(957.123 3853.78)" fill="#fff"/>
  </g>
  <path id="logo-pinterest" d="M9.93,2.25A7.625,7.625,0,0,0,7.153,16.956a7.211,7.211,0,0,1,0-2.179l.9-3.813a2.75,2.75,0,0,1-.207-1.089c0-1.057.615-1.852,1.378-1.852a.959.959,0,0,1,.964,1.089,15.025,15.025,0,0,1-.632,2.538,1.089,1.089,0,0,0,1.133,1.378c1.351,0,2.4-1.433,2.4-3.491A3.012,3.012,0,0,0,9.9,6.433,3.3,3.3,0,0,0,6.455,9.744,2.952,2.952,0,0,0,7,11.482a.24.24,0,0,1,.055.218c-.06.24-.191.763-.213.866s-.114.169-.256.1A3.421,3.421,0,0,1,5.039,9.712c0-2.4,1.748-4.613,5.038-4.613a4.477,4.477,0,0,1,4.7,4.406c0,2.626-1.634,4.738-3.96,4.738a2.048,2.048,0,0,1-1.748-.871L8.6,15.185a8.47,8.47,0,0,1-.948,2A7.718,7.718,0,0,0,9.93,17.5a7.625,7.625,0,0,0,0-15.251" transform="translate(6.294 6.374)"/>
</svg>
