<svg width="60" height="60" viewBox="0 0 60 60" fill="none" xmlns="http://www.w3.org/2000/svg">
<path d="M5 28.65V41.15C5 46.875 9.625 51.5 15.35 51.5H44.625C50.35 51.5 55 46.85 55 41.125V28.65C55 26.975 53.65 25.625 51.975 25.625H8.025C6.35 25.625 5 26.975 5 28.65ZM20 43.125H15C13.975 43.125 13.125 42.275 13.125 41.25C13.125 40.225 13.975 39.375 15 39.375H20C21.025 39.375 21.875 40.225 21.875 41.25C21.875 42.275 21.025 43.125 20 43.125ZM36.25 43.125H26.25C25.225 43.125 24.375 42.275 24.375 41.25C24.375 40.225 25.225 39.375 26.25 39.375H36.25C37.275 39.375 38.125 40.225 38.125 41.25C38.125 42.275 37.275 43.125 36.25 43.125Z" fill="#0070F4"/>
<path d="M33.75 11.5254V18.8504C33.75 20.5254 32.4 21.8754 30.725 21.8754H8.025C6.325 21.8754 5 20.4754 5 18.8004C5.025 15.9754 6.15 13.4004 8.025 11.5254C9.9 9.65043 12.5 8.50043 15.35 8.50043H30.725C32.4 8.50043 33.75 9.85043 33.75 11.5254Z" fill="#0070F4"/>
<path d="M49.925 5H42.575C39.4 5 37.5 6.9 37.5 10.075V17.425C37.5 20.6 39.4 22.5 42.575 22.5H49.925C53.1 22.5 55 20.6 55 17.425V10.075C55 6.9 53.1 5 49.925 5ZM51.575 11.125L45.65 18.05C45.425 18.325 45.075 18.5 44.725 18.5C44.7 18.5 44.7 18.5 44.675 18.5C44.325 18.5 44 18.375 43.75 18.125L41 15.425C40.5 14.925 40.5 14.1 41 13.6C41.5 13.1 42.325 13.075 42.825 13.6L44.575 15.325L49.575 9.475C50.05 8.925 50.85 8.875 51.4 9.325C51.975 9.775 52.025 10.6 51.575 11.125Z" fill="#0070F4"/>
</svg>
