<svg width="50" height="50" viewBox="0 0 50 50" fill="none" xmlns="http://www.w3.org/2000/svg">
<path opacity="0.4" d="M45.1267 21.7515L43.085 30.4599C41.335 37.9807 37.8767 41.0224 31.3767 40.3974C30.335 40.314 29.21 40.1265 28.0017 39.8349L24.5017 39.0015C15.8142 36.939 13.1267 32.6474 15.1683 23.939L17.21 15.2099C17.6267 13.439 18.1267 11.8974 18.7517 10.6265C21.1892 5.58486 25.335 4.23069 32.2933 5.87652L35.7725 6.68902C44.5017 8.73069 47.1683 13.0432 45.1267 21.7515Z" fill="#FF8E3B"/>
<path d="M31.3742 40.3958C30.0826 41.2708 28.4576 42 26.4784 42.6458L23.1867 43.7292C14.9159 46.3958 10.5617 44.1667 7.87425 35.8958L5.20758 27.6667C2.54091 19.3958 4.74925 15.0208 13.0201 12.3542L16.3117 11.2708C17.1659 11 17.9784 10.7708 18.7492 10.625C18.1242 11.8958 17.6242 13.4375 17.2076 15.2083L15.1659 23.9375C13.1242 32.6458 15.8117 36.9375 24.4992 39L27.9992 39.8333C29.2076 40.125 30.3326 40.3125 31.3742 40.3958Z" fill="#FF8E3B"/>
<path d="M36.4378 21.8949C36.3128 21.8949 36.1878 21.874 36.042 21.8532L25.9378 19.2907C25.1045 19.0824 24.6045 18.2282 24.8128 17.3949C25.0212 16.5615 25.8753 16.0615 26.7087 16.2699L36.8128 18.8324C37.6462 19.0407 38.1462 19.8949 37.9378 20.7282C37.7712 21.4157 37.1253 21.8949 36.4378 21.8949Z" fill="#FF8E3B"/>
<path d="M30.3337 28.9385C30.2087 28.9385 30.0837 28.9177 29.9378 28.8968L23.8753 27.3552C23.042 27.1468 22.542 26.2927 22.7503 25.4593C22.9587 24.626 23.8128 24.126 24.6462 24.3343L30.7087 25.876C31.542 26.0843 32.042 26.9385 31.8337 27.7718C31.667 28.4802 31.042 28.9385 30.3337 28.9385Z" fill="#FF8E3B"/>
</svg>
