<svg width="50" height="50" viewBox="0 0 50 50" fill="none" xmlns="http://www.w3.org/2000/svg">
<path d="M1.52588e-05 25C1.52588e-05 11.1929 11.1929 1.52588e-05 25 1.52588e-05C38.8071 1.52588e-05 50 11.1929 50 25C50 38.8071 38.8071 50 25 50C11.1929 50 1.52588e-05 38.8071 1.52588e-05 25ZM46.2594 25C46.2594 13.2588 36.7412 3.74064 25 3.74064C13.2588 3.74064 3.74064 13.2588 3.74064 25C3.74064 36.7412 13.2588 46.2594 25 46.2594C36.7412 46.2594 46.2594 36.7412 46.2594 25Z" fill="#E5E7EB"/>
<path d="M25 1.87166C25 0.837974 25.8392 -0.00728241 26.87 0.0700293C30.3562 0.331503 33.7493 1.32146 36.8292 2.97566C37.7398 3.46477 37.9928 4.62867 37.4369 5.50018V5.50018C36.8811 6.3717 35.7272 6.61951 34.8102 6.14245C32.3406 4.85768 29.6423 4.07044 26.8693 3.82565C25.8396 3.73475 25 2.90534 25 1.87166V1.87166Z" fill="#0070F4"/>
</svg>
