<svg width="6" height="10" viewBox="0 0 6 10" fill="none" xmlns="http://www.w3.org/2000/svg">
<path fill-rule="evenodd" clip-rule="evenodd" d="M0.292787 9.70643C0.105316 9.5189 0 9.2646 0 8.99943C0 8.73427 0.105316 8.47996 0.292787 8.29243L3.58579 4.99943L0.292787 1.70643C0.110629 1.51783 0.00983372 1.26523 0.0121121 1.00303C0.0143906 0.740833 0.11956 0.49002 0.304968 0.304612C0.490376 0.119204 0.741189 0.014035 1.00339 0.0117566C1.26558 0.00947813 1.51818 0.110273 1.70679 0.292431L5.70679 4.29243C5.89426 4.47996 5.99957 4.73427 5.99957 4.99943C5.99957 5.2646 5.89426 5.5189 5.70679 5.70643L1.70679 9.70643C1.51926 9.8939 1.26495 9.99922 0.999786 9.99922C0.734622 9.99922 0.480314 9.8939 0.292787 9.70643Z" fill="#A1A1AA"/>
</svg>
