<svg xmlns="http://www.w3.org/2000/svg" width="72" height="72" viewBox="0 0 72 72">
  <g id="Group_2562" data-name="Group 2562" transform="translate(-189 -335)">
    <rect id="Rectangle_2059" data-name="Rectangle 2059" width="72" height="72" rx="36" transform="translate(189 335)" fill="#2c8bed"/>
    <g id="camera-reels" transform="translate(204.898 350.25)">
      <path id="Path_377" data-name="Path 377" d="M6.746,16.094a3.025,3.025,0,0,0-3.027,3.027v14.7a3.026,3.026,0,0,0,3.027,3.027H24.035a3.026,3.026,0,0,0,3.027-3.027v-14.7a3.026,3.026,0,0,0-3.027-3.027ZM1.125,19.121A5.62,5.62,0,0,1,6.746,13.5H24.035a5.621,5.621,0,0,1,5.621,5.621v14.7a5.621,5.621,0,0,1-5.621,5.621H6.746a5.621,5.621,0,0,1-5.621-5.621Z" transform="translate(0.172 2.063)" fill="#fff" fill-rule="evenodd"/>
      <path id="Path_378" data-name="Path 378" d="M29.18,23.733l7.18-4.163a.825.825,0,0,1,1.251.682V36.812a.826.826,0,0,1-1.251.685l-7.177-4.163-1.3,2.243,7.177,4.163A3.419,3.419,0,0,0,40.2,36.812V20.252a3.419,3.419,0,0,0-5.146-2.926l-7.175,4.163,1.3,2.243ZM7.781,12.969A5.188,5.188,0,1,0,2.594,7.781,5.188,5.188,0,0,0,7.781,12.969Zm0,2.594A7.781,7.781,0,1,0,0,7.781a7.781,7.781,0,0,0,7.781,7.781Z" transform="translate(0 0)" fill="#fff" fill-rule="evenodd"/>
      <path id="Path_379" data-name="Path 379" d="M21.281,12.969a5.188,5.188,0,1,0-5.187-5.187A5.188,5.188,0,0,0,21.281,12.969Zm0,2.594A7.781,7.781,0,1,0,13.5,7.781,7.781,7.781,0,0,0,21.281,15.563Z" transform="translate(2.063 0)" fill="#fff" fill-rule="evenodd"/>
    </g>
  </g>
</svg>
