<svg width="11" height="11" viewBox="0 0 11 11" fill="none" xmlns="http://www.w3.org/2000/svg">
<path d="M8.21594 10.9999C7.9049 10.9999 7.64697 10.7419 7.64697 10.4309V7.47228C7.64697 7.16125 7.9049 6.90332 8.21594 6.90332C8.52697 6.90332 8.7849 7.16125 8.7849 7.47228V10.4309C8.7849 10.7419 8.52697 10.9999 8.21594 10.9999Z" fill="#191919"/>
<path d="M8.21594 2.61723C7.9049 2.61723 7.64697 2.3593 7.64697 2.04827V0.568964C7.64697 0.25793 7.9049 0 8.21594 0C8.52697 0 8.7849 0.25793 8.7849 0.568964V2.04827C8.7849 2.3593 8.52697 2.61723 8.21594 2.61723Z" fill="#191919"/>
<path d="M2.7843 11C2.47326 11 2.21533 10.7421 2.21533 10.4311V8.95178C2.21533 8.64074 2.47326 8.38281 2.7843 8.38281C3.09533 8.38281 3.35326 8.64074 3.35326 8.95178V10.4311C3.35326 10.7421 3.10292 11 2.7843 11Z" fill="#191919"/>
<path d="M2.7843 4.09654C2.47326 4.09654 2.21533 3.83861 2.21533 3.52758V0.568964C2.21533 0.25793 2.47326 0 2.7843 0C3.09533 0 3.35326 0.25793 3.35326 0.568964V3.52758C3.35326 3.83861 3.10292 4.09654 2.7843 4.09654Z" fill="#191919"/>
<path d="M8.21556 1.95703C7.07763 1.95703 6.14453 2.88255 6.14453 4.02047C6.14453 5.1584 7.07005 6.0915 8.21556 6.0915C9.35349 6.0915 10.279 5.16599 10.279 4.02047C10.279 2.87496 9.35349 1.95703 8.21556 1.95703Z" fill="#191919"/>
<path d="M2.78415 4.91602C1.64622 4.91602 0.720703 5.84153 0.720703 6.98704C0.720703 8.13256 1.64622 9.05049 2.78415 9.05049C3.92207 9.05049 4.85517 8.12497 4.85517 6.98704C4.85517 5.84912 3.92966 4.91602 2.78415 4.91602Z" fill="#191919"/>
</svg>
