<svg width="50" height="50" viewBox="0 0 50 50" fill="none" xmlns="http://www.w3.org/2000/svg">
<path opacity="0.4" d="M45.8346 16.2702V33.7285C45.8346 41.3119 41.3138 45.8327 33.7305 45.8327H16.2721C8.6888 45.8327 4.16797 41.3119 4.16797 33.7285V16.2702C4.16797 15.2077 4.2513 14.1868 4.4388 13.2493C5.5013 7.52018 9.73047 4.18685 16.1888 4.16602H33.8138C40.2721 4.18685 44.5013 7.52018 45.5638 13.2493C45.7513 14.1868 45.8346 15.2077 45.8346 16.2702Z" fill="#FF7676"/>
<path d="M45.8346 16.2702V16.3744H4.16797V16.2702C4.16797 15.2077 4.2513 14.1868 4.4388 13.2493H16.1888V4.16602H19.3138V13.2493H30.6888V4.16602H33.8138V13.2493H45.5638C45.7513 14.1868 45.8346 15.2077 45.8346 16.2702Z" fill="#EB3737"/>
<path d="M30.082 26.501L25.7487 24.001C24.1445 23.0844 22.6029 22.9594 21.3945 23.6469C20.1862 24.3344 19.5195 25.751 19.5195 27.5844V32.5844C19.5195 34.4177 20.1862 35.8344 21.3945 36.5219C21.9154 36.8135 22.4987 36.9594 23.1029 36.9594C23.9362 36.9594 24.832 36.6885 25.7487 36.1677L30.082 33.6677C31.6862 32.751 32.5612 31.4594 32.5612 30.0635C32.5612 28.6677 31.6654 27.4385 30.082 26.501Z" fill="#EB3737"/>
</svg>
