<svg width="30" height="30" viewBox="0 0 30 30" fill="none" xmlns="http://www.w3.org/2000/svg">
<path d="M19.4867 2.1875C15.7742 2.1875 12.7617 5.20001 12.7617 8.91251C12.7617 12.625 15.7742 15.6375 19.4867 15.6375C23.1992 15.6375 26.2117 12.625 26.2117 8.91251C26.2117 5.20001 23.1992 2.1875 19.4867 2.1875Z" fill="#0070F4"/>
<path d="M7.95155 16.2871C5.66405 16.2871 3.78906 18.1496 3.78906 20.4496C3.78906 22.7496 5.65155 24.6121 7.95155 24.6121C10.239 24.6121 12.1141 22.7496 12.1141 20.4496C12.1141 18.1496 10.239 16.2871 7.95155 16.2871Z" fill="#E53D3E"/>
<path d="M20.7742 20.7734C18.8367 20.7734 17.2617 22.3484 17.2617 24.2859C17.2617 26.2234 18.8367 27.7985 20.7742 27.7985C22.7117 27.7985 24.2867 26.2234 24.2867 24.2859C24.2867 22.3484 22.7117 20.7734 20.7742 20.7734Z" fill="#37C96A"/>
</svg>
