<svg width="50" height="50" viewBox="0 0 50 50" fill="none" xmlns="http://www.w3.org/2000/svg">
<path opacity="0.4" d="M31.25 4.16602H18.75C15.2917 4.16602 12.5 6.95768 12.5 10.416V39.5827C12.5 43.041 15.2917 45.8327 18.75 45.8327H31.25C34.7083 45.8327 37.5 43.041 37.5 39.5827V10.416C37.5 6.95768 34.7083 4.16602 31.25 4.16602Z" fill="#5125FF"/>
<path d="M38.8984 11.1035H38.1901C37.9401 11.1035 37.7109 11.1035 37.4609 11.1243C37.4818 11.2285 37.5026 11.3327 37.5026 11.4577V14.5827V35.416V38.541C37.5026 38.666 37.4818 38.7702 37.4609 38.8743C37.6901 38.8952 37.9193 38.8952 38.1901 38.8952H38.8984C44.4401 38.8952 45.8359 37.4993 45.8359 31.9368V18.0618C45.8359 12.4993 44.4401 11.1035 38.8984 11.1035Z" fill="#5125FF"/>
<path d="M12.5013 38.541V35.416V14.5827V11.4577C12.5013 11.3327 12.5221 11.2285 12.543 11.1243C12.293 11.1035 12.0638 11.1035 11.8138 11.1035H11.1055C5.5638 11.1035 4.16797 12.4993 4.16797 18.0618V31.9368C4.16797 37.4993 5.5638 38.8952 11.1055 38.8952H11.8138C12.0638 38.8952 12.293 38.8952 12.543 38.8743C12.5221 38.7702 12.5013 38.666 12.5013 38.541Z" fill="#5125FF"/>
</svg>
