<svg xmlns="http://www.w3.org/2000/svg" width="20.922" height="20" viewBox="0 0 20.922 20">
  <path id="star" d="M19.922,7.363a.865.865,0,0,1-.312.574l-4.346,4.238,1.03,5.986a1.779,1.779,0,0,1,.012.24.706.706,0,0,1-.126.425.423.423,0,0,1-.366.174.967.967,0,0,1-.479-.144L9.961,16.031,4.585,18.856A1.016,1.016,0,0,1,4.107,19a.435.435,0,0,1-.377-.174A.709.709,0,0,1,3.6,18.4a1.957,1.957,0,0,1,.024-.24l1.03-5.986L.3,7.938A.912.912,0,0,1,0,7.363q0-.443.671-.551l6.01-.874L9.374.491Q9.6,0,9.961,0t.587.491l2.694,5.448,6.01.874q.671.108.671.551Z" transform="translate(0.5 0.5)" fill="#ebba15" stroke="#ebba15" stroke-width="1"/>
</svg>
