<svg width="50" height="50" viewBox="0 0 50 50" fill="none" xmlns="http://www.w3.org/2000/svg">
<path opacity="0.4" d="M45.8346 16.2702V28.9577L42.4388 26.041C40.8138 24.6452 38.1888 24.6452 36.5638 26.041L27.8971 33.4785C26.2721 34.8743 23.6471 34.8743 22.0221 33.4785L21.3138 32.8952C19.8346 31.6035 17.4805 31.4785 15.8138 32.6035L5.5638 39.4785L5.33464 39.6452C4.5638 37.9785 4.16797 35.9993 4.16797 33.7285V16.2702C4.16797 8.68685 8.6888 4.16602 16.2721 4.16602H33.7305C41.3138 4.16602 45.8346 8.68685 45.8346 16.2702Z" fill="#37C96A"/>
<path d="M18.7513 21.6237C21.4897 21.6237 23.7096 19.4038 23.7096 16.6654C23.7096 13.927 21.4897 11.707 18.7513 11.707C16.0129 11.707 13.793 13.927 13.793 16.6654C13.793 19.4038 16.0129 21.6237 18.7513 21.6237Z" fill="#37C96A"/>
<path d="M45.832 28.9596V33.7305C45.832 41.3138 41.3112 45.8346 33.7279 45.8346H16.2695C10.957 45.8346 7.1237 43.6055 5.33203 39.6471L5.5612 39.4805L15.8112 32.6055C17.4779 31.4805 19.832 31.6055 21.3112 32.8971L22.0195 33.4805C23.6445 34.8763 26.2695 34.8763 27.8945 33.4805L36.5612 26.043C38.1862 24.6471 40.8112 24.6471 42.4362 26.043L45.832 28.9596Z" fill="#37C96A"/>
</svg>
