<svg width="60" height="60" viewBox="0 0 60 60" fill="none" xmlns="http://www.w3.org/2000/svg">
<path d="M60 30C60 46.5685 46.5685 60 30 60C13.4315 60 0 46.5685 0 30C0 13.4315 13.4315 0 30 0C46.5685 0 60 13.4315 60 30Z" fill="#0070F4"/>
<path d="M41.875 28.625V20.125C41.875 18.25 41.075 17.5 39.0875 17.5H34.0375C32.05 17.5 31.25 18.25 31.25 20.125V28.625C31.25 30.5 32.05 31.25 34.0375 31.25H39.0875C41.075 31.25 41.875 30.5 41.875 28.625Z" fill="white"/>
<path d="M28.75 31.375V39.875C28.75 41.75 27.95 42.5 25.9625 42.5H20.9125C18.925 42.5 18.125 41.75 18.125 39.875V31.375C18.125 29.5 18.925 28.75 20.9125 28.75H25.9625C27.95 28.75 28.75 29.5 28.75 31.375Z" fill="white"/>
<path d="M41.875 39.875V36.375C41.875 34.5 41.075 33.75 39.0875 33.75H34.0375C32.05 33.75 31.25 34.5 31.25 36.375V39.875C31.25 41.75 32.05 42.5 34.0375 42.5H39.0875C41.075 42.5 41.875 41.75 41.875 39.875Z" fill="white"/>
<path d="M28.75 23.625V20.125C28.75 18.25 27.95 17.5 25.9625 17.5H20.9125C18.925 17.5 18.125 18.25 18.125 20.125V23.625C18.125 25.5 18.925 26.25 20.9125 26.25H25.9625C27.95 26.25 28.75 25.5 28.75 23.625Z" fill="white"/>
</svg>
