<svg width="13" height="13" viewBox="0 0 13 13" fill="none" xmlns="http://www.w3.org/2000/svg">
<path d="M9.75 0H3.25C1.456 0 0 1.45023 0 3.23862V7.12756V7.77789C0 9.56628 1.456 11.0165 3.25 11.0165H4.225C4.4005 11.0165 4.6345 11.1336 4.745 11.2766L5.72 12.5708C6.149 13.1431 6.851 13.1431 7.28 12.5708L8.255 11.2766C8.3785 11.1141 8.5735 11.0165 8.775 11.0165H9.75C11.544 11.0165 13 9.56628 13 7.77789V3.23862C13 1.45023 11.544 0 9.75 0ZM7.15 7.64132H3.25C2.9835 7.64132 2.7625 7.42021 2.7625 7.15358C2.7625 6.88694 2.9835 6.66583 3.25 6.66583H7.15C7.4165 6.66583 7.6375 6.88694 7.6375 7.15358C7.6375 7.42021 7.4165 7.64132 7.15 7.64132ZM9.75 4.3897H3.25C2.9835 4.3897 2.7625 4.16858 2.7625 3.90195C2.7625 3.63532 2.9835 3.41421 3.25 3.41421H9.75C10.0165 3.41421 10.2375 3.63532 10.2375 3.90195C10.2375 4.16858 10.0165 4.3897 9.75 4.3897Z" fill="#191919"/>
</svg>
