<svg width="46" height="43" viewBox="0 0 46 43" fill="none" xmlns="http://www.w3.org/2000/svg">
<path d="M40.0505 36.0894C40.1466 35.9659 40.2427 35.8424 40.3319 35.712C40.4211 35.5816 40.6407 35.2591 40.7848 35.0258L40.9975 34.6827C41.2034 34.3327 41.4024 33.9964 41.5739 33.6053L43.9414 28.7126C43.763 29.0831 43.5708 29.4399 43.3581 29.7899C43.2963 29.9066 43.214 30.0164 43.1454 30.133C43.0013 30.3595 42.8571 30.5928 42.6993 30.8192L42.4111 31.1967C42.2601 31.3957 42.1092 31.5947 41.9513 31.7868L41.622 32.1711C41.4573 32.3495 41.2926 32.5348 41.121 32.7064L40.7642 33.07C40.5858 33.2416 40.4005 33.4063 40.2152 33.571L39.8309 33.9004C39.6342 34.0651 39.4283 34.2229 39.2133 34.3739C39.0898 34.4699 38.9663 34.5729 38.8359 34.6621C38.5889 34.8336 38.3418 34.9915 38.0879 35.1493C37.985 35.2179 37.882 35.2934 37.7723 35.3552C37.4086 35.5747 37.0312 35.7806 36.6469 35.9796L36.4479 36.0688C36.1253 36.2267 35.7616 36.3845 35.4597 36.5217L35.0274 36.6933L34.2176 36.9952L33.7099 37.153C33.4491 37.2354 33.1815 37.3177 32.9138 37.3864L32.3648 37.5236C32.1041 37.5854 31.8296 37.6471 31.562 37.6952L30.9924 37.805L30.1484 37.9216L29.5719 37.9971L28.6593 38.0657H28.124C27.7878 38.0657 27.4378 38.0657 27.1153 38.0657H26.6075C26.0997 38.0657 25.585 38.0245 25.0704 37.9765C13.1988 36.9197 3.0427 27.5734 2.42511 17.1017C2.24241 14.4537 2.74089 11.8031 3.87303 9.40234L1.51243 14.3019C0.360598 16.709 -0.147714 19.3736 0.0370651 22.0356C0.682111 32.5073 10.8313 41.8536 22.6823 42.9104C23.2038 42.9585 23.7185 42.9859 24.2263 42.9996H25.736H26.2781L27.1908 42.931L27.7603 42.8624C28.0485 42.8212 28.3299 42.7869 28.6044 42.7389L29.1739 42.6359L29.9837 42.4575L30.5326 42.3203C30.8003 42.2517 31.061 42.1693 31.3218 42.0938L31.8296 41.9291C32.1109 41.8331 32.3786 41.7301 32.6462 41.6272L33.0785 41.4625C33.4148 41.3184 33.7647 41.1674 34.0667 41.0027L34.2657 40.9135C34.65 40.7214 35.0205 40.5087 35.3911 40.2891C35.494 40.2273 35.597 40.1518 35.7067 40.0901C35.9538 39.9254 36.2077 39.7675 36.4479 39.596L36.8321 39.3146C37.038 39.1568 37.2507 38.999 37.4497 38.8343L37.8272 38.5049C38.0193 38.3402 38.1977 38.1755 38.3761 38.004C38.5546 37.8324 38.6232 37.7638 38.7398 37.6403C38.8565 37.5167 39.0761 37.2903 39.2408 37.105L39.5701 36.7276C39.7486 36.4943 39.8995 36.2953 40.0505 36.0894Z" fill="url(#paint0_linear_2239_38182)"/>
<path d="M45.4095 20.9726C44.7713 10.5077 34.6153 1.15455 22.7643 0.0977697C10.9133 -0.959008 1.7797 6.67175 2.42475 17.1435C3.0698 27.6152 13.219 36.9615 25.07 38.0182C36.921 39.075 46.0546 31.4511 45.4095 20.9726Z" fill="#0070F4"/>
<path style="mix-blend-mode:overlay" opacity="0.7" d="M45.4095 20.9726C44.7713 10.5077 34.6153 1.15455 22.7643 0.0977697C10.9133 -0.959008 1.7797 6.67175 2.42475 17.1435C3.0698 27.6152 13.219 36.9615 25.07 38.0182C36.921 39.075 46.0546 31.4511 45.4095 20.9726ZM41.1618 32.3707C37.8062 35.939 32.8654 37.9016 27.2522 37.9016C26.5659 37.9016 25.8111 37.9016 25.0837 37.8055C13.3288 36.7556 3.24821 27.5122 2.61689 17.1297C2.46709 15.0564 2.74826 12.9745 3.44271 11.0152C4.13715 9.05586 5.22981 7.26158 6.65186 5.74536C10.0075 2.17702 14.9483 0.214428 20.5615 0.214428C21.2477 0.214428 21.9957 0.214428 22.7231 0.310499C34.4781 1.36041 44.5655 10.6038 45.1968 20.9863C45.347 23.0597 45.066 25.1417 44.3716 27.101C43.6771 29.0604 42.5842 30.8547 41.1618 32.3707Z" fill="url(#paint1_linear_2239_38182)"/>
<path d="M30.5122 12.7656L21.5021 20.3209L16.726 15.9222L13.041 19.0102L21.9207 27.1968L34.6226 16.5467L30.5122 12.7656Z" fill="url(#paint2_linear_2239_38182)"/>
<defs>
<linearGradient id="paint0_linear_2239_38182" x1="1.5" y1="14" x2="41.5" y2="35.5" gradientUnits="userSpaceOnUse">
<stop stop-color="#67A9F5"/>
<stop offset="0.183123" stop-color="#005BC7"/>
<stop offset="0.511704" stop-color="#0070F4"/>
<stop offset="0.799368" stop-color="#005BC7"/>
<stop offset="1" stop-color="#67A9F5"/>
</linearGradient>
<linearGradient id="paint1_linear_2239_38182" x1="27.9521" y1="-2.06382" x2="19.889" y2="40.0151" gradientUnits="userSpaceOnUse">
<stop offset="0.08" stop-color="#D9FFFF"/>
<stop offset="1" stop-color="#D9FFFF" stop-opacity="0"/>
</linearGradient>
<linearGradient id="paint2_linear_2239_38182" x1="25.5576" y1="9.25904" x2="17.872" y2="47.1795" gradientUnits="userSpaceOnUse">
<stop stop-color="#CCFFFF"/>
<stop offset="1" stop-color="#A8E7FF"/>
</linearGradient>
</defs>
</svg>
