<svg xmlns="http://www.w3.org/2000/svg" width="32.5" height="32.5" viewBox="0 0 32.5 32.5">
  <g id="twitter" transform="translate(-957.843 -3854.5)">
    <path id="facebook-with-circle" d="M16.97.72A16.25,16.25,0,1,0,33.22,16.97,16.249,16.249,0,0,0,16.97.72Z" transform="translate(957.123 3853.78)" fill="#fff"/>
    <path id="logo-twitter" d="M10.029,19.323A8.12,8.12,0,0,0,18.2,11.152v-.376a5.982,5.982,0,0,0,1.425-1.482,5.925,5.925,0,0,1-1.648.452,2.9,2.9,0,0,0,1.273-1.591,5.657,5.657,0,0,1-1.82.7,2.876,2.876,0,0,0-4.9,2.616,8.139,8.139,0,0,1-5.918-3A2.87,2.87,0,0,0,7.5,12.291a2.845,2.845,0,0,1-1.273-.356v.032A2.883,2.883,0,0,0,8.489,14.8a2.883,2.883,0,0,1-1.273.051,2.87,2.87,0,0,0,2.66,1.966,5.759,5.759,0,0,1-3.57,1.273,6.218,6.218,0,0,1-.681-.057,8.126,8.126,0,0,0,4.4,1.273" transform="translate(961.468 3857.115)"/>
  </g>
</svg>
