<svg xmlns="http://www.w3.org/2000/svg" width="69.254" height="57.711" viewBox="0 0 69.254 57.711">
  <g id="_5319346991639205417" data-name="5319346991639205417" transform="translate(0 -2)">
    <path id="Path_685" data-name="Path 685" d="M28.871,11A15.871,15.871,0,1,0,44.741,26.871,15.889,15.889,0,0,0,28.871,11Zm6.791,14.005a1.442,1.442,0,0,1-2.04,0L30.313,21.7V35.527a1.443,1.443,0,0,1-2.886,0V21.7L24.12,25.005a1.443,1.443,0,0,1-2.04-2.04l5.771-5.771a1.442,1.442,0,0,1,2.04,0l5.771,5.771A1.442,1.442,0,0,1,35.662,25.005Z" transform="translate(24.512 16.97)" fill="#2c8bed"/>
    <circle id="Ellipse_264" data-name="Ellipse 264" cx="5.771" cy="5.771" r="5.771" transform="translate(17.313 7.823)" fill="#2c8bed"/>
    <path id="Path_686" data-name="Path 686" d="M53.383,25.085a18.755,18.755,0,0,1,2.681.216,1.428,1.428,0,0,0,1.15-.338,1.446,1.446,0,0,0,.5-1.091V7.771A5.777,5.777,0,0,0,51.94,2H5.771A5.777,5.777,0,0,0,0,7.771V39.512a5.777,5.777,0,0,0,5.771,5.771H33.184a1.442,1.442,0,0,0,1.443-1.443A18.778,18.778,0,0,1,53.383,25.085ZM5.771,4.886H51.94a2.889,2.889,0,0,1,2.886,2.886V22.257c-.5-.039-.976-.058-1.443-.058a21.52,21.52,0,0,0-8.013,1.542L37.09,15.46a1.442,1.442,0,0,0-1.02-.423,1.135,1.135,0,0,0-1.026.428l-9.578,9.675a1.442,1.442,0,0,0,.006,2.035l3.506,3.506a1.442,1.442,0,0,1,0,2.04,1.48,1.48,0,0,1-2.04,0l-8.6-8.6a1.442,1.442,0,0,0-2.04,0L2.886,37.524V7.771A2.889,2.889,0,0,1,5.771,4.886Z" transform="translate(0 0)" fill="#2c8bed"/>
  </g>
</svg>
