<svg width="60" height="60" viewBox="0 0 60 60" fill="none" xmlns="http://www.w3.org/2000/svg">
<path opacity="0.4" d="M22.5 5C15.95 5 10.625 10.325 10.625 16.875C10.625 23.3 15.65 28.5 22.2 28.725C22.4 28.7 22.6 28.7 22.75 28.725C22.8 28.725 22.825 28.725 22.875 28.725C22.9 28.725 22.9 28.725 22.925 28.725C29.325 28.5 34.35 23.3 34.375 16.875C34.375 10.325 29.05 5 22.5 5Z" fill="#0CCD85"/>
<path d="M35.2004 35.3703C28.2254 30.7203 16.8504 30.7203 9.82539 35.3703C6.65039 37.4953 4.90039 40.3703 4.90039 43.4453C4.90039 46.5203 6.65039 49.3703 9.80039 51.4703C13.3004 53.8203 17.9004 54.9953 22.5004 54.9953C27.1004 54.9953 31.7004 53.8203 35.2004 51.4703C38.3504 49.3453 40.1004 46.4953 40.1004 43.3953C40.0754 40.3203 38.3504 37.4703 35.2004 35.3703Z" fill="#0CCD85"/>
<path opacity="0.4" d="M49.9744 18.3454C50.3744 23.1954 46.9244 27.4454 42.1494 28.0204C42.1244 28.0204 42.1244 28.0204 42.0994 28.0204H42.0244C41.8744 28.0204 41.7244 28.0204 41.5994 28.0704C39.1744 28.1954 36.9494 27.4204 35.2744 25.9954C37.8494 23.6954 39.3244 20.2454 39.0244 16.4954C38.8494 14.4704 38.1494 12.6204 37.0994 11.0454C38.0494 10.5704 39.1494 10.2704 40.2744 10.1704C45.1744 9.74537 49.5494 13.3954 49.9744 18.3454Z" fill="#0CCD85"/>
<path d="M54.9756 41.476C54.7756 43.901 53.2256 46.001 50.6256 47.426C48.1256 48.801 44.9756 49.451 41.8506 49.376C43.6506 47.751 44.7006 45.726 44.9006 43.576C45.1506 40.476 43.6756 37.501 40.7256 35.126C39.0506 33.801 37.1006 32.751 34.9756 31.976C40.5006 30.376 47.4506 31.451 51.7256 34.901C54.0256 36.751 55.2006 39.076 54.9756 41.476Z" fill="#0CCD85"/>
</svg>
