<svg id="user-role" xmlns="http://www.w3.org/2000/svg" width="17.188" height="17.5" viewBox="0 0 17.188 17.5">
  <path id="Path_223" data-name="Path 223" d="M28.544,17.625l-3.794-3.75,3.794-3.75.894.881-2.9,2.869,2.9,2.869Z" transform="translate(-12.25 -5.75)" fill="#959595"/>
  <path id="Path_224" data-name="Path 224" d="M14.75,27.75H13.5V24.625A3.125,3.125,0,0,0,10.375,21.5H6.625A3.125,3.125,0,0,0,3.5,24.625V27.75H2.25V24.625A4.375,4.375,0,0,1,6.625,20.25h3.75a4.375,4.375,0,0,1,4.375,4.375Z" transform="translate(-2.25 -10.25)" fill="#959595"/>
  <path id="Path_225" data-name="Path 225" d="M10,3.5A3.125,3.125,0,1,1,6.875,6.625,3.125,3.125,0,0,1,10,3.5m0-1.25a4.375,4.375,0,1,0,4.375,4.375A4.375,4.375,0,0,0,10,2.25Z" transform="translate(-3.75 -2.25)" fill="#959595"/>
</svg>
