<svg xmlns="http://www.w3.org/2000/svg" width="18.407" height="19" viewBox="0 0 18.407 19">
  <g id="camera-reels" transform="translate(0)">
    <path id="Path_237" data-name="Path 237" d="M3.7,14.687a1.385,1.385,0,0,0-1.386,1.386V22.8A1.385,1.385,0,0,0,3.7,24.187h7.916A1.385,1.385,0,0,0,13,22.8V16.073a1.385,1.385,0,0,0-1.386-1.386ZM1.125,16.073A2.573,2.573,0,0,1,3.7,13.5h7.916a2.573,2.573,0,0,1,2.573,2.573V22.8a2.573,2.573,0,0,1-2.573,2.573H3.7A2.573,2.573,0,0,1,1.125,22.8Z" transform="translate(-0.531 -6.375)" fill="#2c8bed" fill-rule="evenodd"/>
    <path id="Path_238" data-name="Path 238" d="M13.36,10.866,16.647,8.96a.378.378,0,0,1,.573.312v7.581a.378.378,0,0,1-.573.313l-3.286-1.906-.6,1.027,3.286,1.906a1.565,1.565,0,0,0,2.356-1.341V9.272a1.565,1.565,0,0,0-2.356-1.339L12.766,9.838l.6,1.027Zm-9.8-4.928A2.375,2.375,0,1,0,1.187,3.562,2.375,2.375,0,0,0,3.563,5.937Zm0,1.187A3.562,3.562,0,1,0,0,3.562,3.562,3.562,0,0,0,3.563,7.125Z" transform="translate(0 0)" fill="#2c8bed" fill-rule="evenodd"/>
    <path id="Path_239" data-name="Path 239" d="M17.063,5.937a2.375,2.375,0,1,0-2.375-2.375A2.375,2.375,0,0,0,17.063,5.937Zm0,1.187A3.562,3.562,0,1,0,13.5,3.562,3.562,3.562,0,0,0,17.063,7.125Z" transform="translate(-6.375 0)" fill="#2c8bed" fill-rule="evenodd"/>
  </g>
</svg>
