<svg width="80" height="80" viewBox="0 0 80 80" fill="none" xmlns="http://www.w3.org/2000/svg">
<path d="M73.3327 49.9993V29.9993C73.3327 13.3327 66.666 6.66602 49.9993 6.66602H29.9993C13.3327 6.66602 6.66602 13.3327 6.66602 29.9993V49.9993C6.66602 66.666 13.3327 73.3327 29.9993 73.3327H49.9993C66.666 73.3327 73.3327 66.666 73.3327 49.9993Z" stroke="#292D32" stroke-width="3" stroke-linecap="round" stroke-linejoin="round"/>
<path d="M8.40039 23.6992H71.6004" stroke="#292D32" stroke-width="3" stroke-linecap="round" stroke-linejoin="round"/>
<path d="M28.4004 7.0332V23.2332" stroke="#292D32" stroke-width="3" stroke-linecap="round" stroke-linejoin="round"/>
<path d="M51.5996 7.0332V21.7332" stroke="#292D32" stroke-width="3" stroke-linecap="round" stroke-linejoin="round"/>
<path d="M32.5 48.1664V44.1664C32.5 39.0331 36.1333 36.9331 40.5667 39.4997L44.0333 41.4997L47.5 43.4997C51.9333 46.0664 51.9333 50.2664 47.5 52.8331L44.0333 54.8331L40.5667 56.8331C36.1333 59.3997 32.5 57.2997 32.5 52.1664V48.1664V48.1664Z" stroke="#0070F4" stroke-width="3" stroke-miterlimit="10" stroke-linecap="round" stroke-linejoin="round"/>
</svg>
