<svg width="50" height="50" viewBox="0 0 50 50" fill="none" xmlns="http://www.w3.org/2000/svg">
<g opacity="0.4">
<path d="M46.0236 16.5122V34.4315C46.0236 42.2618 41.3556 46.9299 33.5253 46.9299H15.4984C7.66806 46.9299 3 42.2618 3 34.4315V16.4046C3 15.3075 3.08605 14.2534 3.27965 13.2854C4.37676 7.36965 8.74365 3.92776 15.4123 3.90625H15.4719V13.2854H3.33922C3.14562 14.2534 3.05957 15.3075 3.05957 16.4046V16.5122H46.0236Z" fill="#0070F4"/>
<path d="M18.6987 3.90625V13.2854H30.4441V3.90625H18.6987Z" fill="#0070F4"/>
<path d="M33.6709 3.90653V13.2854L45.744 13.2854C44.6501 7.38728 40.306 3.9483 33.6709 3.90653Z" fill="#0070F4"/>
</g>
<path d="M24.9234 20.9297C22.2228 20.9297 20.0273 23.0054 20.0273 25.5586C20.0273 28.0631 22.0991 30.09 24.7997 30.1777C24.8821 30.168 24.9646 30.168 25.0264 30.1777C25.0471 30.1777 25.0574 30.1777 25.078 30.1777C25.0883 30.1777 25.0883 30.1777 25.0986 30.1777C27.7373 30.09 29.8091 28.0631 29.8194 25.5586C29.8194 23.0054 27.6239 20.9297 24.9234 20.9297Z" fill="#0070F4"/>
<path d="M30.0267 32.6611C27.224 30.8005 22.6533 30.8005 19.8305 32.6611C18.5547 33.5114 17.8516 34.6617 17.8516 35.8921C17.8516 37.1225 18.5547 38.2629 19.8205 39.1032C21.2268 40.0435 23.0752 40.5137 24.9236 40.5137C26.772 40.5137 28.6203 40.0435 30.0267 39.1032C31.2924 38.2529 31.9956 37.1125 31.9956 35.8721C31.9856 34.6417 31.2924 33.5014 30.0267 32.6611Z" fill="#0070F4"/>
</svg>
