<svg xmlns="http://www.w3.org/2000/svg" width="55.634" height="47.939" viewBox="0 0 55.634 47.939">
  <g id="layer1" transform="translate(-0.803 -291.746)">
    <path id="path1278" d="M23.03,1.1a5.919,5.919,0,0,0-3.9,1.4A5.482,5.482,0,0,0,17.2,6.627c0,.071.022.136.024.206H2.99A2.064,2.064,0,0,0,.869,8.839v7l21.4,8.1a5.668,5.668,0,0,1,4.907-3.084.325.325,0,0,1,.1-.024H29.8c.042,0,.08.024.121.024a5.667,5.667,0,0,1,4.9,3.1l21.6-8.548V8.954a2.089,2.089,0,0,0-2.169-2.12H40.024c0-.07.024-.135.024-.206A5.484,5.484,0,0,0,38.122,2.5a5.925,5.925,0,0,0-3.9-1.4Zm0,4.192H34.22a2.869,2.869,0,0,1,1.818.624c.374.318.424.533.424.715a1.183,1.183,0,0,1-.042.206c1.074,0,1.7,0,3.151,0a4.45,4.45,0,0,1-1.424,1.5A7.157,7.157,0,0,1,34.22,9.384H23.03A7.146,7.146,0,0,1,19.1,8.33a4.446,4.446,0,0,1-1.424-1.5h3.15a1.207,1.207,0,0,1-.042-.206c0-.182.051-.4.424-.715A2.867,2.867,0,0,1,23.03,5.288Zm33.406,13.88-20.95,8.3v1.806A5.749,5.749,0,0,1,29.8,35.023H27.283A5.744,5.744,0,0,1,21.6,29.273V27.456L.8,19.568V46.806a2.3,2.3,0,0,0,2.181,2.23H54.255a2.3,2.3,0,0,0,2.181-2.23Zm-29.153,5.18v.006a2.65,2.65,0,0,0-.545.1,1.23,1.23,0,0,0-.3.055,2.111,2.111,0,0,0-1.308,1.89,1.775,1.775,0,0,1-.061.333v2.557a2.13,2.13,0,0,0,2.211,2.229H29.8a2.13,2.13,0,0,0,2.211-2.229V26.735a1.775,1.775,0,0,1-.055-.315,2.1,2.1,0,0,0-1.3-1.914,2.438,2.438,0,0,0-.848-.158Z" transform="translate(0 290.65)" fill="#262626"/>
  </g>
</svg>
