<svg width="80" height="80" viewBox="0 0 80 80" fill="none" xmlns="http://www.w3.org/2000/svg">
<path d="M53.3327 6.66602H26.666C13.3327 6.66602 6.66602 13.3327 6.66602 26.666V69.9993C6.66602 71.8327 8.16602 73.3327 9.99935 73.3327H53.3327C66.666 73.3327 73.3327 66.666 73.3327 53.3327V26.666C73.3327 13.3327 66.666 6.66602 53.3327 6.66602Z" stroke="#292D32" stroke-width="3" stroke-linecap="round" stroke-linejoin="round"/>
<path d="M43.0333 26.1338L25.7333 43.4338C25.0666 44.1005 24.4333 45.4005 24.3 46.3338L23.3666 52.9338C23.0333 55.3338 24.7 57.0005 27.1 56.6672L33.6999 55.7338C34.6332 55.6005 35.9333 54.9672 36.6 54.3005L53.9 37.0005C56.8667 34.0338 58.3 30.5672 53.9 26.1672C49.5 21.7338 46.0333 23.1338 43.0333 26.1338Z" stroke="#0070F4" stroke-width="3" stroke-miterlimit="10" stroke-linecap="round" stroke-linejoin="round"/>
<path d="M40.5664 28.5996C42.0331 33.8329 46.1331 37.9663 51.3997 39.4329" stroke="#0070F4" stroke-width="3" stroke-miterlimit="10" stroke-linecap="round" stroke-linejoin="round"/>
</svg>
