<svg width="57" height="44" viewBox="0 0 57 44" fill="none" xmlns="http://www.w3.org/2000/svg">
<path d="M2.63906 28.1693L2.60523 28.1524L2.55787 28.1253L2.41918 28.0374L2.30417 27.9494L2.27373 27.9223L2.25681 27.9054L2.20269 27.8581L2.11135 27.7634L2.03355 27.6686L2.00987 27.6314L1.97604 27.5807C1.95324 27.5473 1.9329 27.5122 1.91516 27.4758C1.89483 27.4391 1.87785 27.4006 1.86442 27.3608L1.84411 27.3135L0.0986328 22.5776C0.140266 22.6902 0.195955 22.797 0.264383 22.8956V22.9125C0.336461 23.0126 0.41927 23.1045 0.511326 23.1865H0.528236C0.632162 23.2754 0.74561 23.3526 0.866509 23.4166L0.900338 23.4335C1.03688 23.5075 1.17946 23.5697 1.32655 23.6195L12.6688 27.3405L14.4143 32.0763L3.07204 28.3553L2.9435 28.308C2.87078 28.2816 2.79963 28.2511 2.7304 28.2167L2.63906 28.1693Z" fill="url(#paint0_linear_59_4918)"/>
<path d="M46.3379 16.0728L53.8036 6.05655C54.0338 5.76375 54.1945 5.42255 54.2738 5.05864C54.3341 4.77917 54.3142 4.48834 54.2163 4.21973L55.9618 8.95555C56.0595 9.2242 56.0794 9.51498 56.0193 9.79446C55.94 10.1584 55.7793 10.4996 55.5491 10.7924L48.0834 20.8086L46.3379 16.0728Z" fill="url(#paint1_linear_59_4918)"/>
<path d="M16.914 42.8671L16.7076 42.7792L16.6028 42.725H16.5825L16.5419 42.7047L16.4032 42.6168L16.2882 42.5288L16.1833 42.4341L16.119 42.3665V42.3496C16.0913 42.3184 16.0653 42.2856 16.0412 42.2515C16.0157 42.2202 15.9919 42.1874 15.9702 42.1534L15.9093 42.0451C15.8904 42.0077 15.8734 41.9693 15.8586 41.9301L15.8383 41.8827L14.0928 37.1469C14.1599 37.3269 14.2609 37.4922 14.3905 37.634C14.5255 37.7768 14.6818 37.8977 14.8539 37.9926H14.8742C15.0633 38.0957 15.2644 38.1753 15.4729 38.2294C15.7023 38.2887 15.9367 38.3261 16.1732 38.341C16.251 38.341 16.3322 38.341 16.41 38.341C16.5947 38.3527 16.78 38.3527 16.9647 38.341H17.029C17.2938 38.3105 17.5561 38.2607 17.8138 38.1922H17.8341C18.1153 38.1169 18.3902 38.0197 18.6561 37.9013C18.9355 37.7772 19.2047 37.6313 19.4612 37.4649L31.6796 29.502L33.4251 34.2378L21.2067 42.2041L21.1728 42.2244L20.9969 42.3326C20.936 42.3699 20.8785 42.4037 20.8176 42.4341L20.6451 42.5255L20.4692 42.61L20.4016 42.6371H20.3847L20.2899 42.6777L20.1107 42.7487L19.9178 42.8198L19.7183 42.8806L19.5627 42.9246H19.5457H19.5051L19.2616 42.9821C19.1714 43.0024 19.0801 43.0193 18.9876 43.0329L18.7576 43.0599H18.6899H18.6223C18.4565 43.0599 18.284 43.0599 18.1351 43.0599C18.0607 43.0599 17.9795 43.0599 17.9017 43.0599C17.6675 43.0475 17.4352 43.0112 17.2083 42.9517C17.0955 42.9291 16.9974 42.9009 16.914 42.8671Z" fill="url(#paint2_linear_59_4918)"/>
<path d="M31.6865 29.4582L45.9143 28.5855C46.177 28.5682 46.4382 28.532 46.6957 28.4773C46.9459 28.4237 47.1922 28.3537 47.4331 28.2675H47.4568C47.6886 28.1859 47.9146 28.0887 48.1334 27.9766H48.1536C48.3656 27.8673 48.5701 27.7441 48.7659 27.6079C48.9487 27.4798 49.1227 27.3396 49.2869 27.1884L49.3106 27.1648C49.4223 27.0586 49.5274 26.9456 49.6251 26.8265C49.725 26.7054 49.8165 26.5777 49.8991 26.4442C49.9364 26.3833 49.9803 26.3258 50.0108 26.2649C50.1083 26.0829 50.18 25.8883 50.2239 25.6865C50.2848 25.4048 50.2649 25.1117 50.1664 24.8408L51.9119 29.5766C52.0102 29.8475 52.0301 30.1406 51.9694 30.4223C51.9261 30.6243 51.8543 30.819 51.7563 31.0008C51.7258 31.0617 51.6818 31.1192 51.6446 31.1801C51.5628 31.3141 51.4713 31.4418 51.3706 31.5623C51.3469 31.5927 51.3334 31.6232 51.3064 31.6536C51.2793 31.6841 51.1609 31.8092 51.0797 31.887L51.056 31.9107L51.0324 31.931C50.9816 31.9784 50.9342 32.0223 50.8801 32.0663L50.6941 32.2186L50.5114 32.3505L50.3457 32.4655L50.1731 32.5704L50.0006 32.6685L49.8991 32.7192H49.8789L49.8281 32.7463L49.6556 32.8308L49.4797 32.9086L49.297 32.9797L49.2057 33.0135H49.182L49.1042 33.0406L48.908 33.1048C48.837 33.1285 48.7625 33.1454 48.6881 33.1657L48.4479 33.2232C48.3566 33.2435 48.2619 33.2604 48.1706 33.274C48.0792 33.2875 47.9202 33.3112 47.7951 33.3213H47.6632L33.4557 34.1941L31.6865 29.4582Z" fill="url(#paint3_linear_59_4918)"/>
<path d="M13.9949 36.8122L12.6655 27.3406L1.32316 23.6196C0.281279 23.2813 -0.124648 22.5269 0.0343401 21.7083C0.193328 20.8897 0.923994 20.0169 2.15531 19.3911L15.5543 12.6561L20.7603 2.36587C21.7176 0.481686 24.9887 -0.61432 26.7511 0.366672L36.3581 5.68094L50.9275 3.06271C53.106 2.67031 54.5436 3.68174 54.273 5.05852C54.1938 5.42243 54.033 5.76363 53.8028 6.05642L46.3371 16.0727L50.1326 24.7291C50.2605 25.0217 50.2924 25.3474 50.2239 25.6593C49.9566 27.0361 48.0386 28.4501 45.9143 28.5854L31.6865 29.4581L19.4681 37.4211C17.2254 38.8824 14.2384 38.5509 13.9949 36.8122Z" fill="url(#paint4_linear_59_4918)"/>
<path style="mix-blend-mode:overlay" opacity="0.7" d="M19.4682 37.4211L31.6866 29.4581L45.9144 28.5854C48.0387 28.4501 49.9567 27.0361 50.224 25.6593C50.2925 25.3474 50.2606 25.0217 50.1326 24.7291L46.3372 16.0727L53.8029 6.05642C54.0331 5.76362 54.1938 5.42243 54.2731 5.05852C54.5437 3.68174 53.1061 2.67031 50.9276 3.06271L36.3582 5.68094L26.7512 0.366672C24.9888 -0.61432 21.7177 0.481686 20.7604 2.36587L15.551 12.6392L2.15538 19.3742C0.92407 19.9899 0.196787 20.8728 0.0344155 21.6914C-0.127955 22.51 0.281354 23.2576 1.32323 23.6026L12.6655 27.3236L13.9949 36.7953C14.2385 38.5509 17.2254 38.8824 19.4682 37.4211ZM15.1281 37.8101C14.9077 37.7259 14.7126 37.5865 14.5616 37.4053C14.4105 37.224 14.3086 37.007 14.2655 36.775L12.9125 27.1207L1.41118 23.3388C0.565496 23.0614 0.162955 22.4796 0.30503 21.7455C0.33406 21.6058 0.378304 21.4697 0.436961 21.3396C0.838698 20.5754 1.48729 19.9697 2.27716 19.6212L15.7607 12.8557L21.0107 2.50117C21.4437 1.65211 22.4687 0.890999 23.6898 0.518899C24.8027 0.180626 25.8988 0.217828 26.6193 0.616991L36.3209 5.97186L50.9885 3.33332C52.1386 3.12698 53.1466 3.33333 53.6777 3.8678C53.826 4.01291 53.9349 4.19342 53.9941 4.39228C54.0533 4.59115 54.0608 4.8018 54.016 5.00439C53.9896 5.14003 53.9465 5.27185 53.8875 5.39679C53.809 5.57233 53.7102 5.73809 53.5932 5.89067L46.0328 16.0389L49.8925 24.834C49.997 25.0746 50.0231 25.3421 49.9669 25.5984C49.9402 25.7336 49.8982 25.8652 49.8417 25.9908C49.3817 27.0057 47.8459 28.1795 45.911 28.3013L31.5851 29.1841L19.3058 37.1877C17.8174 38.1653 16.0753 38.2397 15.1281 37.8101Z" fill="url(#paint5_linear_59_4918)"/>
<defs>
<linearGradient id="paint0_linear_59_4918" x1="33.7359" y1="26.4945" x2="0.994955" y2="35.6618" gradientUnits="userSpaceOnUse">
<stop stop-color="#FFFF54"/>
<stop offset="0.01" stop-color="#F7EE50"/>
<stop offset="0.04" stop-color="#E6C748"/>
<stop offset="0.07" stop-color="#D7A641"/>
<stop offset="0.1" stop-color="#CB8C3B"/>
<stop offset="0.13" stop-color="#C27737"/>
<stop offset="0.17" stop-color="#BB6833"/>
<stop offset="0.21" stop-color="#B76032"/>
<stop offset="0.28" stop-color="#B75F31"/>
<stop offset="0.29" stop-color="#C87E39"/>
<stop offset="0.31" stop-color="#D7993F"/>
<stop offset="0.32" stop-color="#E3AF44"/>
<stop offset="0.33" stop-color="#EDC048"/>
<stop offset="0.35" stop-color="#F3CB4B"/>
<stop offset="0.38" stop-color="#F7D24D"/>
<stop offset="0.46" stop-color="#F8D44D"/>
<stop offset="0.48" stop-color="#EEC149"/>
<stop offset="0.52" stop-color="#DA9D40"/>
<stop offset="0.56" stop-color="#CA8139"/>
<stop offset="0.6" stop-color="#BF6D35"/>
<stop offset="0.64" stop-color="#B86132"/>
<stop offset="0.69" stop-color="#B65D31"/>
<stop offset="0.7" stop-color="#B86132"/>
<stop offset="0.72" stop-color="#BC6733"/>
<stop offset="0.77" stop-color="#C97A38"/>
<stop offset="0.82" stop-color="#D48C3C"/>
<stop offset="0.89" stop-color="#DB963F"/>
<stop offset="0.96" stop-color="#DD9940"/>
<stop offset="0.98" stop-color="#E6AC44"/>
<stop offset="1" stop-color="#F8D44D"/>
</linearGradient>
<linearGradient id="paint1_linear_59_4918" x1="56.7314" y1="15.9617" x2="4.44435" y2="44.1666" gradientUnits="userSpaceOnUse">
<stop offset="0.01" stop-color="#FFFF54"/>
<stop offset="0.02" stop-color="#F5E24E"/>
<stop offset="0.03" stop-color="#ECC749"/>
<stop offset="0.04" stop-color="#E6B345"/>
<stop offset="0.06" stop-color="#E1A442"/>
<stop offset="0.07" stop-color="#DE9C41"/>
<stop offset="0.1" stop-color="#DD9940"/>
<stop offset="0.14" stop-color="#D0863B"/>
<stop offset="0.21" stop-color="#B65D31"/>
<stop offset="0.28" stop-color="#B65D31"/>
<stop offset="0.69" stop-color="#B65D31"/>
<stop offset="0.7" stop-color="#B86132"/>
<stop offset="0.72" stop-color="#BC6733"/>
<stop offset="0.75" stop-color="#C97E39"/>
<stop offset="0.79" stop-color="#DA9D40"/>
<stop offset="0.84" stop-color="#E7B546"/>
<stop offset="0.89" stop-color="#F1C74A"/>
<stop offset="0.94" stop-color="#F6D14C"/>
<stop offset="1" stop-color="#F8D44D"/>
</linearGradient>
<linearGradient id="paint2_linear_59_4918" x1="65.9972" y1="26.2653" x2="8.18789" y2="49.7787" gradientUnits="userSpaceOnUse">
<stop stop-color="#FFFF54"/>
<stop offset="0.01" stop-color="#F7EE50"/>
<stop offset="0.04" stop-color="#E6C748"/>
<stop offset="0.07" stop-color="#D7A641"/>
<stop offset="0.1" stop-color="#CB8C3B"/>
<stop offset="0.13" stop-color="#C27737"/>
<stop offset="0.17" stop-color="#BB6833"/>
<stop offset="0.21" stop-color="#B76032"/>
<stop offset="0.28" stop-color="#B65D31"/>
<stop offset="0.33" stop-color="#B65D31"/>
<stop offset="0.62" stop-color="#B65D31"/>
<stop offset="0.68" stop-color="#B86132"/>
<stop offset="0.82" stop-color="#BC6733"/>
<stop offset="0.96" stop-color="#DD9940"/>
<stop offset="0.98" stop-color="#E6AC44"/>
<stop offset="1" stop-color="#F8D44D"/>
</linearGradient>
<linearGradient id="paint3_linear_59_4918" x1="53.1768" y1="32.8578" x2="-21.0105" y2="61.4977" gradientUnits="userSpaceOnUse">
<stop stop-color="#FDFB53"/>
<stop offset="0.05" stop-color="#EAD14A"/>
<stop offset="0.1" stop-color="#DBAE42"/>
<stop offset="0.16" stop-color="#CE933D"/>
<stop offset="0.21" stop-color="#C68038"/>
<stop offset="0.26" stop-color="#C17536"/>
<stop offset="0.32" stop-color="#BF7135"/>
<stop offset="0.33" stop-color="#C98239"/>
<stop offset="0.37" stop-color="#DDA542"/>
<stop offset="0.4" stop-color="#ECBF48"/>
<stop offset="0.43" stop-color="#F5CF4C"/>
<stop offset="0.46" stop-color="#F8D44D"/>
<stop offset="0.48" stop-color="#EEC149"/>
<stop offset="0.52" stop-color="#DA9D40"/>
<stop offset="0.56" stop-color="#CA8139"/>
<stop offset="0.6" stop-color="#BF6D35"/>
<stop offset="0.64" stop-color="#B86132"/>
<stop offset="0.69" stop-color="#B65D31"/>
<stop offset="0.7" stop-color="#B86132"/>
<stop offset="0.72" stop-color="#BC6733"/>
<stop offset="0.77" stop-color="#C97A38"/>
<stop offset="0.82" stop-color="#D48C3C"/>
<stop offset="0.89" stop-color="#DB963F"/>
<stop offset="0.96" stop-color="#DD9940"/>
<stop offset="0.98" stop-color="#E6AC44"/>
<stop offset="1" stop-color="#F8D44D"/>
</linearGradient>
<linearGradient id="paint4_linear_59_4918" x1="18.2749" y1="7.95254" x2="41.0484" y2="43.6835" gradientUnits="userSpaceOnUse">
<stop stop-color="#FFFF7C"/>
<stop offset="1" stop-color="#F1B747"/>
</linearGradient>
<linearGradient id="paint5_linear_59_4918" x1="7811.1" y1="9752.88" x2="10700.6" y2="14624.2" gradientUnits="userSpaceOnUse">
<stop offset="0.08" stop-color="white"/>
<stop offset="1" stop-color="white" stop-opacity="0"/>
</linearGradient>
</defs>
</svg>
