<svg xmlns="http://www.w3.org/2000/svg" width="32.5" height="32.5" viewBox="0 0 32.5 32.5">
  <g id="youtube" transform="translate(-957.843 -3854.5)">
    <path id="facebook-with-circle" d="M16.97.72A16.25,16.25,0,1,0,33.22,16.97,16.249,16.249,0,0,0,16.97.72Z" transform="translate(957.123 3853.78)" fill="#fff"/>
    <path id="logo-youtube" d="M17.668,8.7a1.969,1.969,0,0,0-1.39-1.39,46.647,46.647,0,0,0-6.154-.332,46.647,46.647,0,0,0-6.154.332A1.969,1.969,0,0,0,2.582,8.7a20.323,20.323,0,0,0-.332,3.791,20.323,20.323,0,0,0,.332,3.792,1.969,1.969,0,0,0,1.39,1.39A46.651,46.651,0,0,0,10.125,18a46.647,46.647,0,0,0,6.154-.332,1.969,1.969,0,0,0,1.39-1.39A20.323,20.323,0,0,0,18,12.488,20.323,20.323,0,0,0,17.668,8.7ZM8.55,14.85V10.125l4.09,2.363Z" transform="translate(963.968 3858.262)"/>
  </g>
</svg>
