<svg width="184" height="35" viewBox="0 0 184 35" fill="none" xmlns="http://www.w3.org/2000/svg">
<path d="M9.23122 25.9954C8.03939 25.9954 6.93054 25.7767 5.90466 25.3392C4.89386 24.9016 4.0113 24.2982 3.25698 23.5288C2.51774 22.7443 1.93691 21.824 1.51449 20.7679C1.09207 19.7119 0.880859 18.5502 0.880859 17.283C0.880859 16.0308 1.08453 14.8767 1.49186 13.8206C1.91428 12.7495 2.50266 11.8292 3.25698 11.0598C4.0113 10.2753 4.89386 9.67185 5.90466 9.24942C6.91545 8.81192 8.02431 8.59316 9.23122 8.59316C10.4231 8.59316 11.4867 8.79683 12.422 9.20417C13.3725 9.6115 14.172 10.1471 14.8208 10.8109C15.4695 11.4596 15.9372 12.1687 16.2238 12.9381L13.8251 14.0696C13.463 13.1644 12.8822 12.4327 12.0826 11.8745C11.2981 11.3012 10.3476 11.0145 9.23122 11.0145C8.11482 11.0145 7.12666 11.2786 6.26673 11.8066C5.4068 12.3346 4.73545 13.0663 4.25269 14.0017C3.78501 14.937 3.55117 16.0308 3.55117 17.283C3.55117 18.5352 3.78501 19.6365 4.25269 20.5869C4.73545 21.5223 5.4068 22.254 6.26673 22.782C7.12666 23.2949 8.11482 23.5514 9.23122 23.5514C10.3476 23.5514 11.2981 23.2723 12.0826 22.7141C12.8822 22.1559 13.463 21.4242 13.8251 20.519L16.2238 21.6505C15.9372 22.4048 15.4695 23.1139 14.8208 23.7777C14.172 24.4415 13.3725 24.9771 12.422 25.3844C11.4867 25.7917 10.4231 25.9954 9.23122 25.9954Z" fill="#F4F2F2"/>
<path d="M23.5689 25.9954C22.3469 25.9954 21.2607 25.7163 20.3102 25.1581C19.3749 24.5848 18.6432 23.8154 18.1152 22.8499C17.5871 21.8693 17.3231 20.7755 17.3231 19.5686C17.3231 18.3315 17.5871 17.2377 18.1152 16.2873C18.6583 15.3368 19.3824 14.59 20.2876 14.0469C21.1928 13.4887 22.2187 13.2096 23.3652 13.2096C24.2855 13.2096 25.1077 13.368 25.8319 13.6848C26.556 14.0017 27.167 14.4392 27.6649 14.9974C28.1627 15.5405 28.5399 16.1666 28.7964 16.8756C29.0679 17.5847 29.2037 18.339 29.2037 19.1386C29.2037 19.3347 29.1962 19.5384 29.1811 19.7496C29.166 19.9608 29.1358 20.1569 29.0906 20.338H19.3372V18.3013H27.6423L26.4203 19.2291C26.5711 18.4899 26.5183 17.8336 26.2619 17.2603C26.0205 16.672 25.6433 16.2118 25.1304 15.8799C24.6325 15.5329 24.0441 15.3594 23.3652 15.3594C22.6864 15.3594 22.0829 15.5329 21.5549 15.8799C21.0268 16.2118 20.6195 16.6946 20.3329 17.3282C20.0462 17.9468 19.9331 18.7011 19.9934 19.5912C19.918 20.421 20.0311 21.1451 20.3329 21.7637C20.6497 22.3822 21.0872 22.865 21.6454 23.212C22.2187 23.5589 22.8674 23.7324 23.5915 23.7324C24.3308 23.7324 24.9569 23.5665 25.4698 23.2346C25.9978 22.9027 26.4127 22.4727 26.7144 21.9447L28.7964 22.963C28.555 23.5363 28.1778 24.0568 27.6649 24.5245C27.167 24.9771 26.5636 25.3392 25.8545 25.6107C25.1605 25.8672 24.3987 25.9954 23.5689 25.9954Z" fill="#F4F2F2"/>
<path d="M37.5604 25.9954C36.61 25.9954 35.7425 25.7993 34.958 25.407C34.1886 25.0148 33.5927 24.4491 33.1703 23.7098L33.4645 23.2346V25.7239H31.0205V8.59316H33.5776V16.0157L33.1703 15.4273C33.6229 14.7334 34.2263 14.1902 34.9807 13.798C35.735 13.4057 36.5949 13.2096 37.5604 13.2096C38.7221 13.2096 39.7631 13.4887 40.6833 14.0469C41.6187 14.6051 42.3504 15.367 42.8784 16.3325C43.4215 17.2981 43.6931 18.3843 43.6931 19.5912C43.6931 20.7981 43.4215 21.8843 42.8784 22.8499C42.3504 23.8154 41.6262 24.5848 40.706 25.1581C39.7857 25.7163 38.7372 25.9954 37.5604 25.9954ZM37.3115 23.6193C38.0357 23.6193 38.6768 23.4458 39.235 23.0988C39.7932 22.7518 40.2308 22.2766 40.5476 21.6731C40.8795 21.0546 41.0454 20.3606 41.0454 19.5912C41.0454 18.8218 40.8795 18.1354 40.5476 17.5319C40.2308 16.9284 39.7932 16.4532 39.235 16.1062C38.6768 15.7592 38.0357 15.5857 37.3115 15.5857C36.6025 15.5857 35.9613 15.7592 35.388 16.1062C34.8298 16.4532 34.3847 16.9284 34.0528 17.5319C33.736 18.1354 33.5776 18.8218 33.5776 19.5912C33.5776 20.3606 33.736 21.0546 34.0528 21.6731C34.3847 22.2766 34.8298 22.7518 35.388 23.0988C35.9613 23.4458 36.6025 23.6193 37.3115 23.6193Z" fill="#F4F2F2"/>
<path d="M49.8692 25.9954C48.949 25.9954 48.1418 25.7917 47.4479 25.3844C46.7539 24.962 46.2108 24.3812 45.8185 23.6419C45.4414 22.8876 45.2528 22.0201 45.2528 21.0395V13.4812H47.8099V20.8132C47.8099 21.3714 47.9231 21.8617 48.1494 22.2841C48.3757 22.7066 48.6925 23.0385 49.0998 23.2798C49.5072 23.5061 49.9748 23.6193 50.5029 23.6193C51.046 23.6193 51.5212 23.4986 51.9285 23.2572C52.3359 23.0158 52.6527 22.6764 52.879 22.2389C53.1204 21.8014 53.2411 21.2884 53.2411 20.7001V13.4812H55.7756V25.7239H53.3542V23.3251L53.6258 23.6419C53.3391 24.3962 52.8639 24.9771 52.2001 25.3844C51.5363 25.7917 50.7593 25.9954 49.8692 25.9954Z" fill="#F4F2F2"/>
<path d="M59.0343 25.7239V8.86471H61.5236L67.8599 17.645H66.6153L72.8385 8.86471H75.3277V25.7239H72.6801V12.0102L73.6758 12.2818L67.3168 20.9716H67.0453L60.8221 12.2818L61.7046 12.0102V25.7239H59.0343Z" fill="#BF2632"/>
<path d="M83.7918 25.9954C82.615 25.9954 81.5363 25.7163 80.5557 25.1581C79.5902 24.5999 78.8208 23.838 78.2475 22.8725C77.6742 21.907 77.3876 20.8132 77.3876 19.5912C77.3876 18.3541 77.6742 17.2603 78.2475 16.3099C78.8208 15.3444 79.5902 14.59 80.5557 14.0469C81.5213 13.4887 82.5999 13.2096 83.7918 13.2096C84.9987 13.2096 86.0774 13.4887 87.0278 14.0469C87.9934 14.59 88.7552 15.3444 89.3134 16.3099C89.8867 17.2603 90.1734 18.3541 90.1734 19.5912C90.1734 20.8283 89.8867 21.9296 89.3134 22.8951C88.7401 23.8607 87.9707 24.6225 87.0052 25.1807C86.0397 25.7239 84.9685 25.9954 83.7918 25.9954ZM83.7918 23.6193C84.5159 23.6193 85.1571 23.4458 85.7153 23.0988C86.2735 22.7518 86.711 22.2766 87.0278 21.6731C87.3597 21.0546 87.5257 20.3606 87.5257 19.5912C87.5257 18.8218 87.3597 18.1354 87.0278 17.5319C86.711 16.9284 86.2735 16.4532 85.7153 16.1062C85.1571 15.7592 84.5159 15.5857 83.7918 15.5857C83.0827 15.5857 82.4415 15.7592 81.8682 16.1062C81.31 16.4532 80.865 16.9284 80.5331 17.5319C80.2163 18.1354 80.0579 18.8218 80.0579 19.5912C80.0579 20.3606 80.2163 21.0546 80.5331 21.6731C80.865 22.2766 81.31 22.7518 81.8682 23.0988C82.4415 23.4458 83.0827 23.6193 83.7918 23.6193Z" fill="#BF2632"/>
<path d="M97.6484 25.9954C96.4717 25.9954 95.4156 25.7163 94.4802 25.1581C93.56 24.5848 92.8283 23.8154 92.2852 22.8499C91.7571 21.8843 91.4931 20.7981 91.4931 19.5912C91.4931 18.3843 91.7647 17.2981 92.3078 16.3325C92.8509 15.367 93.5826 14.6051 94.5029 14.0469C95.4232 13.4887 96.4641 13.2096 97.6258 13.2096C98.6064 13.2096 99.4739 13.4057 100.228 13.798C100.983 14.1902 101.578 14.7334 102.016 15.4273L101.631 16.0157V8.59316H104.166V25.7239H101.744V23.2346L102.039 23.7098C101.616 24.449 101.013 25.0148 100.228 25.407C99.4437 25.7993 98.5838 25.9954 97.6484 25.9954ZM97.8973 23.6193C98.6064 23.6193 99.24 23.4458 99.7982 23.0988C100.372 22.7518 100.817 22.2766 101.133 21.6731C101.465 21.0546 101.631 20.3606 101.631 19.5912C101.631 18.8218 101.465 18.1354 101.133 17.5319C100.817 16.9284 100.372 16.4532 99.7982 16.1062C99.24 15.7592 98.6064 15.5857 97.8973 15.5857C97.1883 15.5857 96.5471 15.7592 95.9738 16.1062C95.4005 16.4532 94.9555 16.9284 94.6387 17.5319C94.3218 18.1354 94.1634 18.8218 94.1634 19.5912C94.1634 20.3606 94.3218 21.0546 94.6387 21.6731C94.9555 22.2766 95.393 22.7518 95.9512 23.0988C96.5245 23.4458 97.1732 23.6193 97.8973 23.6193Z" fill="#BF2632"/>
<path d="M112.22 25.9954C110.998 25.9954 109.912 25.7163 108.961 25.1581C108.026 24.5848 107.294 23.8154 106.766 22.8499C106.238 21.8693 105.974 20.7755 105.974 19.5686C105.974 18.3315 106.238 17.2377 106.766 16.2873C107.31 15.3368 108.034 14.59 108.939 14.0469C109.844 13.4887 110.87 13.2096 112.017 13.2096C112.937 13.2096 113.759 13.368 114.483 13.6848C115.207 14.0017 115.818 14.4392 116.316 14.9974C116.814 15.5405 117.191 16.1666 117.448 16.8756C117.719 17.5847 117.855 18.339 117.855 19.1386C117.855 19.3347 117.847 19.5384 117.832 19.7496C117.817 19.9608 117.787 20.1569 117.742 20.338H107.988V18.3013H116.294L115.072 19.2291C115.222 18.4899 115.17 17.8336 114.913 17.2603C114.672 16.672 114.295 16.2118 113.782 15.8799C113.284 15.5329 112.695 15.3594 112.017 15.3594C111.338 15.3594 110.734 15.5329 110.206 15.8799C109.678 16.2118 109.271 16.6946 108.984 17.3282C108.697 17.9468 108.584 18.7011 108.645 19.5912C108.569 20.421 108.682 21.1451 108.984 21.7637C109.301 22.3822 109.738 22.865 110.297 23.212C110.87 23.5589 111.519 23.7324 112.243 23.7324C112.982 23.7324 113.608 23.5665 114.121 23.2346C114.649 22.9027 115.064 22.4727 115.366 21.9447L117.448 22.963C117.206 23.5363 116.829 24.0568 116.316 24.5245C115.818 24.9771 115.215 25.3391 114.506 25.6107C113.812 25.8672 113.05 25.9954 112.22 25.9954Z" fill="#BF2632"/>
<path d="M119.672 25.7239V8.59316H122.229V25.7239H119.672Z" fill="#BF2632"/>
<path d="M124.54 25.7239V13.4812H127.097V25.7239H124.54ZM124.54 11.8066V8.86471H127.097V11.8066H124.54Z" fill="#BF2632"/>
<path d="M129.408 25.7239V13.4812H131.852V15.8799L131.558 15.5631C131.859 14.7937 132.342 14.2129 133.006 13.8206C133.67 13.4133 134.439 13.2096 135.314 13.2096C136.219 13.2096 137.019 13.4057 137.713 13.798C138.407 14.1902 138.95 14.7334 139.342 15.4273C139.734 16.1213 139.931 16.9209 139.931 17.8261V25.7239H137.396V18.505C137.396 17.8864 137.283 17.3659 137.057 16.9435C136.83 16.506 136.506 16.1741 136.084 15.9478C135.676 15.7064 135.209 15.5857 134.681 15.5857C134.152 15.5857 133.677 15.7064 133.255 15.9478C132.848 16.1741 132.531 16.506 132.304 16.9435C132.078 17.381 131.965 17.9015 131.965 18.505V25.7239H129.408Z" fill="#BF2632"/>
<path d="M147.895 30.7024C147.005 30.7024 146.183 30.5591 145.428 30.2724C144.674 29.9858 144.025 29.586 143.482 29.073C142.939 28.5752 142.532 27.9868 142.26 27.3079L144.614 26.3349C144.825 26.9081 145.209 27.3834 145.768 27.7605C146.341 28.1377 147.042 28.3263 147.872 28.3263C148.521 28.3263 149.102 28.198 149.615 27.9416C150.128 27.7002 150.535 27.3381 150.837 26.8553C151.138 26.3877 151.289 25.8219 151.289 25.1581V22.3973L151.742 22.9178C151.319 23.7023 150.731 24.2982 149.977 24.7055C149.238 25.1128 148.4 25.3165 147.465 25.3165C146.333 25.3165 145.315 25.0525 144.41 24.5245C143.505 23.9964 142.788 23.2723 142.26 22.352C141.747 21.4317 141.491 20.3983 141.491 19.2518C141.491 18.0901 141.747 17.0567 142.26 16.1515C142.788 15.2463 143.497 14.5297 144.387 14.0017C145.277 13.4736 146.296 13.2096 147.442 13.2096C148.378 13.2096 149.207 13.4133 149.932 13.8206C150.921 14.7036 153.224 16.7202 153.824 17.2506V25.1581C153.824 26.2142 153.567 27.1571 153.054 27.9868C152.557 28.8317 151.863 29.4955 150.973 29.9782C150.082 30.461 149.057 30.7024 147.895 30.7024ZM147.759 22.9404C148.438 22.9404 149.041 22.782 149.569 22.4652C150.097 22.1333 150.512 21.6958 150.814 21.1526C151.131 20.5944 151.289 19.9684 151.289 19.2744C151.289 18.5804 151.131 17.9543 150.814 17.3961C150.497 16.8379 150.075 16.4004 149.547 16.0836C149.019 15.7517 148.423 15.5857 147.759 15.5857C147.065 15.5857 146.447 15.7517 145.903 16.0836C145.36 16.4004 144.93 16.8379 144.614 17.3961C144.312 17.9392 144.161 18.5653 144.161 19.2744C144.161 19.9533 144.312 20.5718 144.614 21.13C144.93 21.6882 145.36 22.1333 145.903 22.4652C146.447 22.782 147.065 22.9404 147.759 22.9404Z" fill="#BF2632"/>
<path d="M109.454 34.8397V33.37H110.523V34.8397H109.454Z" fill="#FCFCFC"/>
<path d="M116.203 35C115.499 35 114.88 34.8352 114.345 34.5057C113.811 34.1761 113.392 33.7308 113.09 33.1696C112.787 32.5996 112.635 31.9583 112.635 31.2457C112.635 30.5332 112.787 29.8963 113.09 29.3352C113.392 28.774 113.811 28.3331 114.345 28.0125C114.88 27.6829 115.499 27.5181 116.203 27.5181C116.648 27.5181 117.067 27.5983 117.458 27.7586C117.85 27.919 118.198 28.1372 118.501 28.4133C118.803 28.6805 119.031 28.9922 119.182 29.3485L118.273 29.8161C118.095 29.4331 117.824 29.1214 117.458 28.8809C117.093 28.6404 116.675 28.5202 116.203 28.5202C115.731 28.5202 115.303 28.6404 114.92 28.8809C114.546 29.1125 114.247 29.4376 114.025 29.8562C113.811 30.2659 113.704 30.7336 113.704 31.2591C113.704 31.7757 113.811 32.2433 114.025 32.6619C114.247 33.0716 114.546 33.3967 114.92 33.6372C115.303 33.8777 115.731 33.998 116.203 33.998C116.675 33.998 117.089 33.8777 117.445 33.6372C117.81 33.3967 118.086 33.0761 118.273 32.6753L119.182 33.1696C119.031 33.517 118.803 33.8287 118.501 34.1049C118.198 34.381 117.85 34.5992 117.458 34.7595C117.067 34.9198 116.648 35 116.203 35Z" fill="#FCFCFC"/>
<path d="M124.294 35C123.617 35 123.002 34.8397 122.45 34.519C121.898 34.1895 121.457 33.7441 121.127 33.183C120.807 32.6129 120.646 31.9672 120.646 31.2457C120.646 30.5332 120.807 29.8963 121.127 29.3352C121.448 28.774 121.88 28.3331 122.423 28.0125C122.976 27.6829 123.599 27.5181 124.294 27.5181C124.989 27.5181 125.608 27.6785 126.151 27.9991C126.703 28.3198 127.135 28.7607 127.447 29.3218C127.768 29.8829 127.928 30.5242 127.928 31.2457C127.928 31.9761 127.763 32.6263 127.434 33.1963C127.104 33.7575 126.663 34.1984 126.111 34.519C125.568 34.8397 124.962 35 124.294 35ZM124.294 33.998C124.775 33.998 125.207 33.8777 125.59 33.6372C125.982 33.3967 126.289 33.0672 126.512 32.6486C126.743 32.2299 126.859 31.7623 126.859 31.2457C126.859 30.7291 126.743 30.2659 126.512 29.8562C126.289 29.4465 125.982 29.1214 125.59 28.8809C125.207 28.6404 124.775 28.5202 124.294 28.5202C123.813 28.5202 123.376 28.6404 122.984 28.8809C122.601 29.1214 122.294 29.4465 122.063 29.8562C121.831 30.2659 121.715 30.7291 121.715 31.2457C121.715 31.7623 121.831 32.2299 122.063 32.6486C122.294 33.0672 122.601 33.3967 122.984 33.6372C123.376 33.8777 123.813 33.998 124.294 33.998Z" fill="#FCFCFC"/>
<path d="M129.695 34.8397V27.6785H130.697V29.0412L130.537 28.8408C130.733 28.4222 131.022 28.0971 131.405 27.8655C131.797 27.6339 132.225 27.5181 132.688 27.5181C133.24 27.5181 133.739 27.674 134.184 27.9858C134.63 28.2975 134.946 28.7028 135.133 29.2016L134.852 29.2149C135.03 28.6627 135.338 28.2441 135.774 27.959C136.219 27.6651 136.709 27.5181 137.244 27.5181C137.725 27.5181 138.166 27.6339 138.566 27.8655C138.976 28.0971 139.301 28.4177 139.542 28.8275C139.791 29.2283 139.916 29.6825 139.916 30.1902V34.8397H138.914V30.5777C138.914 30.1412 138.834 29.7716 138.673 29.4688C138.522 29.1659 138.313 28.9343 138.045 28.774C137.778 28.6048 137.471 28.5202 137.124 28.5202C136.785 28.5202 136.478 28.6048 136.202 28.774C135.926 28.9343 135.707 29.1704 135.547 29.4821C135.387 29.785 135.306 30.1502 135.306 30.5777V34.8397H134.304V30.5777C134.304 30.1412 134.224 29.7716 134.064 29.4688C133.913 29.1659 133.703 28.9343 133.436 28.774C133.169 28.6048 132.862 28.5202 132.514 28.5202C132.167 28.5202 131.855 28.6048 131.579 28.774C131.312 28.9343 131.098 29.1704 130.938 29.4821C130.777 29.785 130.697 30.1502 130.697 30.5777V34.8397H129.695Z" fill="#FCFCFC"/>
<path d="M170.78 18.8326L181.743 11.5189H170.04L168.256 0.00878906L162.238 11.5189H150.535L158.826 18.8029L152.859 30.7024L163.982 23.3359L172.372 30.7024L170.78 18.8326Z" fill="#BF2632"/>
</svg>
