<svg width="184" height="35" viewBox="0 0 184 35" fill="none" xmlns="http://www.w3.org/2000/svg">
<path d="M9.23122 25.9954C8.03939 25.9954 6.93054 25.7767 5.90466 25.3392C4.89386 24.9017 4.0113 24.2982 3.25698 23.5288C2.51774 22.7443 1.93691 21.824 1.51449 20.768C1.09207 19.7119 0.880859 18.5502 0.880859 17.283C0.880859 16.0308 1.08453 14.8767 1.49186 13.8206C1.91428 12.7495 2.50266 11.8292 3.25698 11.0598C4.0113 10.2753 4.89386 9.67185 5.90466 9.24943C6.91545 8.81192 8.02431 8.59317 9.23122 8.59317C10.4231 8.59317 11.4867 8.79684 12.422 9.20417C13.3725 9.61151 14.172 10.1471 14.8208 10.8109C15.4695 11.4596 15.9372 12.1687 16.2238 12.9381L13.8251 14.0696C13.463 13.1644 12.8822 12.4327 12.0826 11.8745C11.2981 11.3012 10.3476 11.0145 9.23122 11.0145C8.11482 11.0145 7.12666 11.2786 6.26673 11.8066C5.4068 12.3346 4.73545 13.0663 4.25269 14.0017C3.78501 14.937 3.55117 16.0308 3.55117 17.283C3.55117 18.5352 3.78501 19.6365 4.25269 20.5869C4.73545 21.5223 5.4068 22.254 6.26673 22.782C7.12666 23.2949 8.11482 23.5514 9.23122 23.5514C10.3476 23.5514 11.2981 23.2723 12.0826 22.7141C12.8822 22.1559 13.463 21.4242 13.8251 20.519L16.2238 21.6505C15.9372 22.4048 15.4695 23.1139 14.8208 23.7777C14.172 24.4415 13.3725 24.9771 12.422 25.3844C11.4867 25.7918 10.4231 25.9954 9.23122 25.9954Z" fill="#0A0A0A"/>
<path d="M23.5689 25.9954C22.3469 25.9954 21.2607 25.7163 20.3102 25.1581C19.3749 24.5848 18.6432 23.8154 18.1152 22.8499C17.5871 21.8693 17.3231 20.7755 17.3231 19.5686C17.3231 18.3315 17.5871 17.2377 18.1152 16.2873C18.6583 15.3368 19.3824 14.59 20.2876 14.0469C21.1928 13.4887 22.2187 13.2096 23.3652 13.2096C24.2855 13.2096 25.1077 13.368 25.8319 13.6849C26.556 14.0017 27.167 14.4392 27.6649 14.9974C28.1627 15.5405 28.5399 16.1666 28.7964 16.8756C29.0679 17.5847 29.2037 18.339 29.2037 19.1386C29.2037 19.3347 29.1962 19.5384 29.1811 19.7496C29.166 19.9608 29.1358 20.157 29.0906 20.338H19.3372V18.3013H27.6423L26.4203 19.2291C26.5711 18.4899 26.5183 17.8336 26.2619 17.2604C26.0205 16.672 25.6433 16.2118 25.1304 15.8799C24.6325 15.5329 24.0441 15.3595 23.3652 15.3595C22.6864 15.3595 22.0829 15.5329 21.5549 15.8799C21.0268 16.2118 20.6195 16.6946 20.3329 17.3282C20.0462 17.9468 19.9331 18.7011 19.9934 19.5912C19.918 20.421 20.0311 21.1451 20.3329 21.7637C20.6497 22.3822 21.0872 22.865 21.6454 23.212C22.2187 23.559 22.8674 23.7325 23.5915 23.7325C24.3308 23.7325 24.9569 23.5665 25.4698 23.2346C25.9978 22.9027 26.4127 22.4727 26.7144 21.9447L28.7964 22.963C28.555 23.5363 28.1778 24.0568 27.6649 24.5245C27.167 24.9771 26.5636 25.3392 25.8545 25.6107C25.1605 25.8672 24.3987 25.9954 23.5689 25.9954Z" fill="#0A0A0A"/>
<path d="M37.5604 25.9954C36.61 25.9954 35.7425 25.7993 34.958 25.407C34.1886 25.0148 33.5927 24.4491 33.1703 23.7098L33.4645 23.2346V25.7239H31.0205V8.59317H33.5776V16.0157L33.1703 15.4273C33.6229 14.7334 34.2263 14.1903 34.9807 13.798C35.735 13.4058 36.5949 13.2096 37.5604 13.2096C38.7221 13.2096 39.7631 13.4887 40.6833 14.0469C41.6187 14.6051 42.3504 15.367 42.8784 16.3325C43.4215 17.2981 43.6931 18.3843 43.6931 19.5912C43.6931 20.7981 43.4215 21.8844 42.8784 22.8499C42.3504 23.8154 41.6262 24.5848 40.706 25.1581C39.7857 25.7163 38.7372 25.9954 37.5604 25.9954ZM37.3115 23.6193C38.0357 23.6193 38.6768 23.4458 39.235 23.0988C39.7932 22.7518 40.2308 22.2766 40.5476 21.6731C40.8795 21.0546 41.0454 20.3606 41.0454 19.5912C41.0454 18.8218 40.8795 18.1354 40.5476 17.5319C40.2308 16.9284 39.7932 16.4532 39.235 16.1062C38.6768 15.7592 38.0357 15.5858 37.3115 15.5858C36.6025 15.5858 35.9613 15.7592 35.388 16.1062C34.8298 16.4532 34.3847 16.9284 34.0528 17.5319C33.736 18.1354 33.5776 18.8218 33.5776 19.5912C33.5776 20.3606 33.736 21.0546 34.0528 21.6731C34.3847 22.2766 34.8298 22.7518 35.388 23.0988C35.9613 23.4458 36.6025 23.6193 37.3115 23.6193Z" fill="#0A0A0A"/>
<path d="M49.8692 25.9954C48.949 25.9954 48.1418 25.7918 47.4479 25.3844C46.7539 24.962 46.2108 24.3812 45.8185 23.6419C45.4414 22.8876 45.2528 22.0201 45.2528 21.0395V13.4812H47.8099V20.8132C47.8099 21.3714 47.9231 21.8617 48.1494 22.2841C48.3757 22.7066 48.6925 23.0385 49.0998 23.2799C49.5072 23.5062 49.9748 23.6193 50.5029 23.6193C51.046 23.6193 51.5212 23.4986 51.9285 23.2572C52.3359 23.0158 52.6527 22.6764 52.879 22.2389C53.1204 21.8014 53.2411 21.2884 53.2411 20.7001V13.4812H55.7756V25.7239H53.3542V23.3251L53.6258 23.6419C53.3391 24.3963 52.8639 24.9771 52.2001 25.3844C51.5363 25.7918 50.7593 25.9954 49.8692 25.9954Z" fill="#0A0A0A"/>
<path d="M59.0352 25.7239V8.86473H61.5244L67.8607 17.6451H66.6161L72.8393 8.86473H75.3286V25.7239H72.6809V12.0103L73.6766 12.2818L67.3176 20.9716H67.0461L60.8229 12.2818L61.7055 12.0103V25.7239H59.0352Z" fill="#BF2632"/>
<path d="M83.7926 25.9954C82.6159 25.9954 81.5372 25.7163 80.5565 25.1581C79.591 24.5999 78.8216 23.8381 78.2483 22.8725C77.675 21.907 77.3884 20.8132 77.3884 19.5912C77.3884 18.3541 77.675 17.2604 78.2483 16.3099C78.8216 15.3444 79.591 14.59 80.5565 14.0469C81.5221 13.4887 82.6008 13.2096 83.7926 13.2096C84.9995 13.2096 86.0782 13.4887 87.0286 14.0469C87.9942 14.59 88.756 15.3444 89.3142 16.3099C89.8875 17.2604 90.1742 18.3541 90.1742 19.5912C90.1742 20.8283 89.8875 21.9296 89.3142 22.8951C88.741 23.8607 87.9715 24.6226 87.006 25.1807C86.0405 25.7239 84.9693 25.9954 83.7926 25.9954ZM83.7926 23.6193C84.5167 23.6193 85.1579 23.4458 85.7161 23.0988C86.2743 22.7518 86.7118 22.2766 87.0286 21.6731C87.3605 21.0546 87.5265 20.3606 87.5265 19.5912C87.5265 18.8218 87.3605 18.1354 87.0286 17.5319C86.7118 16.9284 86.2743 16.4532 85.7161 16.1062C85.1579 15.7592 84.5167 15.5858 83.7926 15.5858C83.0835 15.5858 82.4424 15.7592 81.8691 16.1062C81.3109 16.4532 80.8658 16.9284 80.5339 17.5319C80.2171 18.1354 80.0587 18.8218 80.0587 19.5912C80.0587 20.3606 80.2171 21.0546 80.5339 21.6731C80.8658 22.2766 81.3109 22.7518 81.8691 23.0988C82.4424 23.4458 83.0835 23.6193 83.7926 23.6193Z" fill="#BF2632"/>
<path d="M97.6492 25.9954C96.4725 25.9954 95.4164 25.7163 94.4811 25.1581C93.5608 24.5848 92.8291 23.8154 92.286 22.8499C91.758 21.8844 91.4939 20.7981 91.4939 19.5912C91.4939 18.3843 91.7655 17.2981 92.3086 16.3325C92.8517 15.367 93.5834 14.6051 94.5037 14.0469C95.424 13.4887 96.4649 13.2096 97.6266 13.2096C98.6072 13.2096 99.4747 13.4058 100.229 13.798C100.983 14.1903 101.579 14.7334 102.017 15.4273L101.632 16.0157V8.59317H104.167V25.7239H101.745V23.2346L102.039 23.7098C101.617 24.4491 101.014 25.0148 100.229 25.407C99.4445 25.7993 98.5846 25.9954 97.6492 25.9954ZM97.8982 23.6193C98.6072 23.6193 99.2409 23.4458 99.7991 23.0988C100.372 22.7518 100.817 22.2766 101.134 21.6731C101.466 21.0546 101.632 20.3606 101.632 19.5912C101.632 18.8218 101.466 18.1354 101.134 17.5319C100.817 16.9284 100.372 16.4532 99.7991 16.1062C99.2409 15.7592 98.6072 15.5858 97.8982 15.5858C97.1891 15.5858 96.5479 15.7592 95.9746 16.1062C95.4013 16.4532 94.9563 16.9284 94.6395 17.5319C94.3227 18.1354 94.1643 18.8218 94.1643 19.5912C94.1643 20.3606 94.3227 21.0546 94.6395 21.6731C94.9563 22.2766 95.3938 22.7518 95.952 23.0988C96.5253 23.4458 97.174 23.6193 97.8982 23.6193Z" fill="#BF2632"/>
<path d="M112.221 25.9954C110.999 25.9954 109.913 25.7163 108.962 25.1581C108.027 24.5848 107.295 23.8154 106.767 22.8499C106.239 21.8693 105.975 20.7755 105.975 19.5686C105.975 18.3315 106.239 17.2377 106.767 16.2873C107.31 15.3368 108.035 14.59 108.94 14.0469C109.845 13.4887 110.871 13.2096 112.017 13.2096C112.938 13.2096 113.76 13.368 114.484 13.6849C115.208 14.0017 115.819 14.4392 116.317 14.9974C116.815 15.5405 117.192 16.1666 117.448 16.8756C117.72 17.5847 117.856 18.339 117.856 19.1386C117.856 19.3347 117.848 19.5384 117.833 19.7496C117.818 19.9608 117.788 20.157 117.743 20.338H107.989V18.3013H116.294L115.072 19.2291C115.223 18.4899 115.17 17.8336 114.914 17.2604C114.673 16.672 114.295 16.2118 113.782 15.8799C113.285 15.5329 112.696 15.3595 112.017 15.3595C111.338 15.3595 110.735 15.5329 110.207 15.8799C109.679 16.2118 109.272 16.6946 108.985 17.3282C108.698 17.9468 108.585 18.7011 108.646 19.5912C108.57 20.421 108.683 21.1451 108.985 21.7637C109.302 22.3822 109.739 22.865 110.297 23.212C110.871 23.559 111.519 23.7324 112.244 23.7324C112.983 23.7324 113.609 23.5665 114.122 23.2346C114.65 22.9027 115.065 22.4727 115.367 21.9447L117.448 22.963C117.207 23.5363 116.83 24.0568 116.317 24.5245C115.819 24.9771 115.216 25.3392 114.507 25.6107C113.813 25.8672 113.051 25.9954 112.221 25.9954Z" fill="#BF2632"/>
<path d="M119.673 25.7239V8.59317H122.23V25.7239H119.673Z" fill="#BF2632"/>
<path d="M124.541 25.7239V13.4812H127.098V25.7239H124.541ZM124.541 11.8066V8.86473H127.098V11.8066H124.541Z" fill="#BF2632"/>
<path d="M129.409 25.7239V13.4812H131.853V15.8799L131.558 15.5631C131.86 14.7937 132.343 14.2129 133.007 13.8206C133.671 13.4133 134.44 13.2096 135.315 13.2096C136.22 13.2096 137.02 13.4058 137.714 13.798C138.408 14.1903 138.951 14.7334 139.343 15.4273C139.735 16.1213 139.931 16.9209 139.931 17.8261V25.7239H137.397V18.505C137.397 17.8864 137.284 17.366 137.057 16.9435C136.831 16.506 136.507 16.1741 136.084 15.9478C135.677 15.7064 135.209 15.5858 134.681 15.5858C134.153 15.5858 133.678 15.7064 133.256 15.9478C132.848 16.1741 132.532 16.506 132.305 16.9435C132.079 17.381 131.966 17.9015 131.966 18.505V25.7239H129.409Z" fill="#BF2632"/>
<path d="M147.896 30.7024C147.006 30.7024 146.183 30.5591 145.429 30.2724C144.675 29.9858 144.026 29.586 143.483 29.0731C142.94 28.5752 142.532 27.9868 142.261 27.3079L144.614 26.3349C144.826 26.9082 145.21 27.3834 145.768 27.7605C146.342 28.1377 147.043 28.3263 147.873 28.3263C148.522 28.3263 149.103 28.198 149.616 27.9416C150.128 27.7002 150.536 27.3381 150.838 26.8553C151.139 26.3877 151.29 25.8219 151.29 25.1581V22.3973L151.743 22.9178C151.32 23.7023 150.732 24.2982 149.978 24.7055C149.238 25.1129 148.401 25.3165 147.466 25.3165C146.334 25.3165 145.316 25.0525 144.411 24.5245C143.506 23.9965 142.789 23.2723 142.261 22.352C141.748 21.4318 141.491 20.3983 141.491 19.2518C141.491 18.0901 141.748 17.0567 142.261 16.1515C142.789 15.2463 143.498 14.5297 144.388 14.0017C145.278 13.4736 146.297 13.2096 147.443 13.2096C148.378 13.2096 149.208 13.4133 149.932 13.8206C150.921 14.7036 153.225 16.7202 153.825 17.2506V25.1581C153.825 26.2142 153.568 27.1571 153.055 27.9868C152.557 28.8317 151.863 29.4955 150.973 29.9783C150.083 30.461 149.057 30.7024 147.896 30.7024ZM147.76 22.9404C148.439 22.9404 149.042 22.782 149.57 22.4652C150.098 22.1333 150.513 21.6958 150.815 21.1527C151.132 20.5945 151.29 19.9684 151.29 19.2744C151.29 18.5804 151.132 17.9543 150.815 17.3961C150.498 16.8379 150.076 16.4004 149.548 16.0836C149.02 15.7517 148.424 15.5858 147.76 15.5858C147.066 15.5858 146.447 15.7517 145.904 16.0836C145.361 16.4004 144.931 16.8379 144.614 17.3961C144.313 17.9392 144.162 18.5653 144.162 19.2744C144.162 19.9533 144.313 20.5718 144.614 21.13C144.931 21.6882 145.361 22.1333 145.904 22.4652C146.447 22.782 147.066 22.9404 147.76 22.9404Z" fill="#BF2632"/>
<path d="M109.453 34.8397V33.37H110.522V34.8397H109.453Z" fill="#0A0A0A"/>
<path d="M116.202 35C115.498 35 114.879 34.8352 114.345 34.5057C113.81 34.1761 113.392 33.7308 113.089 33.1696C112.786 32.5996 112.635 31.9583 112.635 31.2457C112.635 30.5332 112.786 29.8963 113.089 29.3352C113.392 28.774 113.81 28.3331 114.345 28.0125C114.879 27.6829 115.498 27.5182 116.202 27.5182C116.647 27.5182 117.066 27.5983 117.458 27.7586C117.85 27.919 118.197 28.1372 118.5 28.4133C118.803 28.6805 119.03 28.9923 119.181 29.3485L118.273 29.8162C118.095 29.4332 117.823 29.1214 117.458 28.8809C117.093 28.6404 116.674 28.5202 116.202 28.5202C115.73 28.5202 115.302 28.6404 114.919 28.8809C114.545 29.1125 114.247 29.4376 114.024 29.8562C113.81 30.266 113.704 30.7336 113.704 31.2591C113.704 31.7757 113.81 32.2433 114.024 32.6619C114.247 33.0717 114.545 33.3968 114.919 33.6373C115.302 33.8777 115.73 33.998 116.202 33.998C116.674 33.998 117.088 33.8777 117.444 33.6373C117.81 33.3968 118.086 33.0761 118.273 32.6753L119.181 33.1696C119.03 33.517 118.803 33.8288 118.5 34.1049C118.197 34.381 117.85 34.5992 117.458 34.7595C117.066 34.9199 116.647 35 116.202 35Z" fill="#0A0A0A"/>
<path d="M124.293 35C123.616 35 123.002 34.8397 122.449 34.519C121.897 34.1895 121.456 33.7441 121.127 33.183C120.806 32.613 120.646 31.9672 120.646 31.2457C120.646 30.5332 120.806 29.8963 121.127 29.3352C121.447 28.774 121.879 28.3331 122.423 28.0125C122.975 27.6829 123.598 27.5182 124.293 27.5182C124.988 27.5182 125.607 27.6785 126.15 27.9991C126.703 28.3198 127.135 28.7607 127.446 29.3218C127.767 29.883 127.927 30.5243 127.927 31.2457C127.927 31.9761 127.762 32.6263 127.433 33.1964C127.103 33.7575 126.662 34.1984 126.11 34.519C125.567 34.8397 124.961 35 124.293 35ZM124.293 33.998C124.774 33.998 125.206 33.8777 125.589 33.6373C125.981 33.3968 126.288 33.0672 126.511 32.6486C126.743 32.23 126.858 31.7623 126.858 31.2457C126.858 30.7291 126.743 30.266 126.511 29.8562C126.288 29.4465 125.981 29.1214 125.589 28.8809C125.206 28.6404 124.774 28.5202 124.293 28.5202C123.812 28.5202 123.376 28.6404 122.984 28.8809C122.601 29.1214 122.294 29.4465 122.062 29.8562C121.83 30.266 121.715 30.7291 121.715 31.2457C121.715 31.7623 121.83 32.23 122.062 32.6486C122.294 33.0672 122.601 33.3968 122.984 33.6373C123.376 33.8777 123.812 33.998 124.293 33.998Z" fill="#0A0A0A"/>
<path d="M129.694 34.8397V27.6785H130.696V29.0413L130.536 28.8408C130.732 28.4222 131.022 28.0971 131.405 27.8655C131.797 27.6339 132.224 27.5182 132.687 27.5182C133.239 27.5182 133.738 27.674 134.184 27.9858C134.629 28.2975 134.945 28.7028 135.132 29.2016L134.852 29.2149C135.03 28.6627 135.337 28.2441 135.773 27.9591C136.219 27.6651 136.709 27.5182 137.243 27.5182C137.724 27.5182 138.165 27.6339 138.566 27.8655C138.976 28.0971 139.301 28.4178 139.541 28.8275C139.791 29.2283 139.915 29.6826 139.915 30.1903V34.8397H138.913V30.5777C138.913 30.1413 138.833 29.7716 138.673 29.4688C138.521 29.166 138.312 28.9344 138.045 28.774C137.778 28.6048 137.47 28.5202 137.123 28.5202C136.784 28.5202 136.477 28.6048 136.201 28.774C135.925 28.9344 135.707 29.1704 135.546 29.4821C135.386 29.785 135.306 30.1502 135.306 30.5777V34.8397H134.304V30.5777C134.304 30.1413 134.224 29.7716 134.063 29.4688C133.912 29.166 133.703 28.9344 133.435 28.774C133.168 28.6048 132.861 28.5202 132.514 28.5202C132.166 28.5202 131.854 28.6048 131.578 28.774C131.311 28.9344 131.097 29.1704 130.937 29.4821C130.777 29.785 130.696 30.1502 130.696 30.5777V34.8397H129.694Z" fill="#0A0A0A"/>
<path d="M170.78 18.8326L181.744 11.5189H170.041L168.256 0.00878906L162.239 11.5189H150.536L158.827 18.8029L152.859 30.7024L163.982 23.3359L172.372 30.7024L170.78 18.8326Z" fill="#BF2632"/>
</svg>
