<svg width="30" height="30" viewBox="0 0 30 30" fill="none" xmlns="http://www.w3.org/2000/svg">
<path d="M14.9999 12.8499C13.7249 12.8499 12.4499 12.6249 11.2374 12.1874C10.7499 12.0124 10.4999 11.4749 10.6749 10.9874C10.8624 10.4999 11.3999 10.2499 11.8874 10.4249C13.8999 11.1499 16.1124 11.1499 18.1249 10.4249C18.6124 10.2499 19.1499 10.4999 19.3249 10.9874C19.4999 11.4749 19.2499 12.0124 18.7624 12.1874C17.5499 12.6249 16.2749 12.8499 14.9999 12.8499Z" fill="#3C3C43" fill-opacity="0.7"/>
<path d="M23.8379 28.4375C23.2004 28.4375 22.5004 28.25 21.8254 27.8625L15.7254 24.475C15.3629 24.275 14.6504 24.275 14.2879 24.475L8.18789 27.8625C6.95039 28.55 5.68789 28.625 4.72539 28.05C3.76289 27.4875 3.21289 26.35 3.21289 24.9375V7.325C3.21289 4.15 5.80039 1.5625 8.97539 1.5625H21.0379C24.2129 1.5625 26.8004 4.15 26.8004 7.325V24.9375C26.8004 26.35 26.2504 27.4875 25.2879 28.05C24.8504 28.3125 24.3504 28.4375 23.8379 28.4375ZM15.0004 22.45C15.5879 22.45 16.1629 22.575 16.6254 22.8375L22.7254 26.225C23.3629 26.5875 23.9504 26.6625 24.3254 26.4375C24.7004 26.2125 24.9129 25.675 24.9129 24.9375V7.325C24.9129 5.1875 23.1629 3.4375 21.0254 3.4375H8.97539C6.83789 3.4375 5.08789 5.1875 5.08789 7.325V24.9375C5.08789 25.675 5.30039 26.225 5.67539 26.4375C6.05039 26.65 6.62539 26.5875 7.27539 26.225L13.3754 22.8375C13.8379 22.575 14.4129 22.45 15.0004 22.45Z" fill="#3C3C43" fill-opacity="0.7"/>
<path d="M23.8379 28.4375C23.2004 28.4375 22.5004 28.25 21.8254 27.8625L15.7254 24.475C15.3629 24.275 14.6504 24.275 14.2879 24.475L8.18789 27.8625C6.95039 28.55 5.68789 28.625 4.72539 28.05C3.76289 27.4875 3.21289 26.35 3.21289 24.9375V7.325C3.21289 4.15 5.80039 1.5625 8.97539 1.5625H21.0379C24.2129 1.5625 26.8004 4.15 26.8004 7.325V24.9375C26.8004 26.35 26.2504 27.4875 25.2879 28.05C24.8504 28.3125 24.3504 28.4375 23.8379 28.4375ZM15.0004 22.45C15.5879 22.45 16.1629 22.575 16.6254 22.8375L22.7254 26.225C23.3629 26.5875 23.9504 26.6625 24.3254 26.4375C24.7004 26.2125 24.9129 25.675 24.9129 24.9375V7.325C24.9129 5.1875 23.1629 3.4375 21.0254 3.4375H8.97539C6.83789 3.4375 5.08789 5.1875 5.08789 7.325V24.9375C5.08789 25.675 5.30039 26.225 5.67539 26.4375C6.05039 26.65 6.62539 26.5875 7.27539 26.225L13.3754 22.8375C13.8379 22.575 14.4129 22.45 15.0004 22.45Z" fill="#3C3C43" fill-opacity="0.7"/>
</svg>
