<svg width="30" height="30" viewBox="0 0 30 30" fill="none" xmlns="http://www.w3.org/2000/svg">
<path d="M20 28.4375H10C2.8125 28.4375 2.8125 24.625 2.8125 21.25V20C2.8125 17.2125 2.8125 14.0625 8.75 14.0625C10.2375 14.0625 10.7875 14.425 11.5625 15C11.6 15.0375 11.65 15.0625 11.6875 15.1125L12.9625 16.4625C14.0375 17.6 15.9875 17.6 17.0625 16.4625L18.3375 15.1125C18.375 15.075 18.4125 15.0375 18.4625 15C19.2375 14.4125 19.7875 14.0625 21.275 14.0625C27.2125 14.0625 27.2125 17.2125 27.2125 20V21.25C27.1875 26.025 24.775 28.4375 20 28.4375ZM8.75 15.9375C4.6875 15.9375 4.6875 17.2125 4.6875 20V21.25C4.6875 24.675 4.6875 26.5625 10 26.5625H20C23.725 26.5625 25.3125 24.975 25.3125 21.25V20C25.3125 17.2125 25.3125 15.9375 21.25 15.9375C20.35 15.9375 20.1625 16.05 19.625 16.45L18.4125 17.7375C17.5125 18.6875 16.3 19.2125 15 19.2125C13.7 19.2125 12.4875 18.6875 11.5875 17.7375L10.375 16.45C9.8375 16.05 9.65 15.9375 8.75 15.9375Z" fill="#3C3C43" fill-opacity="0.7"/>
<path d="M23.75 15.9375C23.2375 15.9375 22.8125 15.5125 22.8125 15V7.5C22.8125 4.7125 22.8125 3.4375 18.75 3.4375H11.25C7.1875 3.4375 7.1875 4.7125 7.1875 7.5V15C7.1875 15.5125 6.7625 15.9375 6.25 15.9375C5.7375 15.9375 5.3125 15.5125 5.3125 15V7.5C5.3125 4.7125 5.3125 1.5625 11.25 1.5625H18.75C24.6875 1.5625 24.6875 4.7125 24.6875 7.5V15C24.6875 15.5125 24.2625 15.9375 23.75 15.9375Z" fill="#3C3C43" fill-opacity="0.7"/>
<path d="M17.35 12.4746H13.1875C12.675 12.4746 12.25 12.0496 12.25 11.5371C12.25 11.0246 12.675 10.5996 13.1875 10.5996H17.35C17.8625 10.5996 18.2875 11.0246 18.2875 11.5371C18.2875 12.0496 17.875 12.4746 17.35 12.4746Z" fill="#3C3C43" fill-opacity="0.7"/>
<path d="M18.4004 8.72461H12.1504C11.6379 8.72461 11.2129 8.29961 11.2129 7.78711C11.2129 7.27461 11.6379 6.84961 12.1504 6.84961H18.4004C18.9129 6.84961 19.3379 7.27461 19.3379 7.78711C19.3379 8.29961 18.9254 8.72461 18.4004 8.72461Z" fill="#3C3C43" fill-opacity="0.7"/>
</svg>
