<svg width="30" height="30" viewBox="0 0 30 30" fill="none" xmlns="http://www.w3.org/2000/svg">
<path d="M22.175 28.4367H9.53751C9.13751 28.4367 8.7875 28.1867 8.65 27.8242C8.5125 27.4492 8.625 27.0367 8.925 26.7867C9.225 26.5367 9.49999 26.2117 9.69999 25.8617C10.1 25.2242 10.3 24.4992 10.3 23.7617C10.3 21.5242 8.47501 19.6992 6.23751 19.6992C5.31251 19.6992 4.43751 20.0117 3.70001 20.5992C3.42501 20.8242 3.0375 20.8617 2.7125 20.7117C2.3875 20.5617 2.1875 20.2242 2.1875 19.8617V14.3992C2.1875 11.2867 4.71249 8.76172 7.82499 8.76172H22.175C25.2875 8.76172 27.8125 11.2867 27.8125 14.3992V16.1992C27.8125 16.7117 27.3875 17.1367 26.875 17.1367H24.35C23.9125 17.1367 23.5125 17.2992 23.225 17.5992L23.2125 17.6117C22.8625 17.9492 22.7 18.4117 22.7375 18.8867C22.8125 19.7117 23.6 20.3742 24.5 20.3742H26.875C27.3875 20.3742 27.8125 20.7992 27.8125 21.3117V22.7992C27.8125 25.9117 25.2875 28.4367 22.175 28.4367ZM11.475 26.5617H22.175C24.25 26.5617 25.9375 24.8742 25.9375 22.7992V22.2492H24.5C22.6125 22.2492 21.0125 20.8492 20.8625 19.0492C20.7625 18.0242 21.1375 17.0117 21.8875 16.2742C22.5375 15.6117 23.4125 15.2492 24.35 15.2492H25.9375V14.3867C25.9375 12.3117 24.25 10.6242 22.175 10.6242H7.82499C5.74999 10.6242 4.0625 12.3117 4.0625 14.3867V18.2367C4.7625 17.9617 5.5 17.8117 6.25 17.8117C9.525 17.8117 12.1875 20.4742 12.1875 23.7492C12.1875 24.7367 11.9375 25.7117 11.475 26.5617Z" fill="#77777C"/>
<path d="M3.125 16.45C2.6125 16.45 2.1875 16.025 2.1875 15.5125V9.80008C2.1875 7.93758 3.3625 6.25001 5.1 5.58751L15.025 1.83751C16.05 1.45001 17.1875 1.58757 18.075 2.21257C18.975 2.83757 19.5 3.85006 19.5 4.93756V9.68754C19.5 10.2 19.075 10.625 18.5625 10.625C18.05 10.625 17.625 10.2 17.625 9.68754V4.93756C17.625 4.46256 17.4 4.02504 17 3.75004C16.6 3.47504 16.125 3.41254 15.675 3.58754L5.75001 7.33754C4.73751 7.72504 4.05001 8.71258 4.05001 9.80008V15.5125C4.06251 16.0375 3.6375 16.45 3.125 16.45Z" fill="#77777C"/>
<path d="M24.5001 22.25C22.6126 22.25 21.0126 20.85 20.8626 19.05C20.7626 18.0125 21.1376 17 21.8876 16.2625C22.5251 15.6125 23.4001 15.25 24.3376 15.25H26.9376C28.1751 15.2875 29.1251 16.2624 29.1251 17.4624V20.0375C29.1251 21.2375 28.1751 22.2125 26.9751 22.25H24.5001ZM26.9126 17.125H24.3501C23.9126 17.125 23.5126 17.2875 23.2251 17.5875C22.8626 17.9375 22.6876 18.4125 22.7376 18.8875C22.8126 19.7125 23.6001 20.375 24.5001 20.375H26.9501C27.1126 20.375 27.2626 20.225 27.2626 20.0375V17.4624C27.2626 17.2749 27.1126 17.1375 26.9126 17.125Z" fill="#77777C"/>
<path d="M17.5 15.9375H8.75C8.2375 15.9375 7.8125 15.5125 7.8125 15C7.8125 14.4875 8.2375 14.0625 8.75 14.0625H17.5C18.0125 14.0625 18.4375 14.4875 18.4375 15C18.4375 15.5125 18.0125 15.9375 17.5 15.9375Z" fill="#77777C"/>
<path d="M6.25 29.6875C4.175 29.6875 2.225 28.5875 1.175 26.8C0.612503 25.9 0.3125 24.8375 0.3125 23.75C0.3125 21.925 1.125 20.2375 2.5375 19.1125C3.5875 18.275 4.9125 17.8125 6.25 17.8125C9.525 17.8125 12.1875 20.475 12.1875 23.75C12.1875 24.8375 11.8875 25.9 11.325 26.8125C11.025 27.3375 10.6125 27.8125 10.1375 28.2125C9.1 29.1625 7.7125 29.6875 6.25 29.6875ZM6.25 19.6875C5.325 19.6875 4.45 20 3.7125 20.5875C2.75 21.35 2.1875 22.5125 2.1875 23.75C2.1875 24.4875 2.3875 25.2125 2.775 25.8375C3.5125 27.0875 4.8125 27.8125 6.25 27.8125C7.2375 27.8125 8.18751 27.45 8.91251 26.8C9.23751 26.525 9.51251 26.2 9.71251 25.85C10.1125 25.2125 10.3125 24.4875 10.3125 23.75C10.3125 21.5125 8.4875 19.6875 6.25 19.6875Z" fill="#77777C"/>
<path d="M5.5371 25.9249C5.2996 25.9249 5.0621 25.8375 4.8746 25.65L3.63711 24.4125C3.27461 24.05 3.27461 23.4499 3.63711 23.0874C3.99961 22.7249 4.59961 22.7249 4.96211 23.0874L5.5621 23.6875L7.56211 21.8374C7.93711 21.4874 8.53711 21.5125 8.88711 21.8875C9.23711 22.2625 9.21211 22.8625 8.83711 23.2125L6.17461 25.6749C5.98711 25.8374 5.7621 25.9249 5.5371 25.9249Z" fill="#77777C"/>
</svg>
