<svg width="30" height="30" viewBox="0 0 30 30" fill="none" xmlns="http://www.w3.org/2000/svg">
<path d="M15.8471 24.9467C16.1905 25.0266 16.2219 25.4764 15.8874 25.5879V25.5879L13.9124 26.2379C8.94994 27.8379 6.33744 26.5004 4.72494 21.5379L3.12494 16.6004C1.52494 11.6379 2.84994 9.01289 7.81244 7.41289L8.72143 7.11186C9.1243 6.97844 9.51286 7.38117 9.39216 7.78802C9.29426 8.11805 9.20193 8.468 9.11244 8.83789L7.88744 14.0754C6.51244 19.9629 8.52494 23.2129 14.4124 24.6129L15.8471 24.9467Z" fill="#3C3C43" fill-opacity="0.7"/>
<path d="M21.4627 4.01263L19.3752 3.52513C15.2002 2.53763 12.7127 3.35013 11.2502 6.37513C10.8752 7.13763 10.5752 8.06263 10.3252 9.12513L9.10022 14.3626C7.87522 19.5876 9.48772 22.1626 14.7002 23.4001L16.8002 23.9001C17.5252 24.0751 18.2002 24.1876 18.8252 24.2376C22.7252 24.6126 24.8002 22.7876 25.8502 18.2751L27.0752 13.0501C28.3002 7.82513 26.7002 5.23763 21.4627 4.01263ZM19.1127 16.6626C19.0002 17.0876 18.6252 17.3626 18.2002 17.3626C18.1252 17.3626 18.0502 17.3501 17.9627 17.3376L14.3252 16.4126C13.8252 16.2876 13.5252 15.7751 13.6502 15.2751C13.7752 14.7751 14.2877 14.4751 14.7877 14.6001L18.4252 15.5251C18.9377 15.6501 19.2377 16.1626 19.1127 16.6626ZM22.7752 12.4376C22.6627 12.8626 22.2877 13.1376 21.8627 13.1376C21.7877 13.1376 21.7127 13.1251 21.6252 13.1126L15.5627 11.5751C15.0627 11.4501 14.7627 10.9376 14.8877 10.4376C15.0127 9.93763 15.5252 9.63763 16.0252 9.76263L22.0877 11.3001C22.6002 11.4126 22.9002 11.9251 22.7752 12.4376Z" fill="#3C3C43" fill-opacity="0.7"/>
</svg>
