<svg width="30" height="30" viewBox="0 0 30 30" fill="none" xmlns="http://www.w3.org/2000/svg">
<path d="M18.1875 28.025C17.775 28.025 17.3875 27.75 17.275 27.325C17.1375 26.825 17.4375 26.3125 17.95 26.175C23.025 24.8375 26.5625 20.2375 26.5625 14.9875C26.5625 8.6125 21.375 3.425 15 3.425C9.5875 3.425 6.0375 6.5875 4.375 8.5H8.05C8.5625 8.5 8.9875 8.925 8.9875 9.4375C8.9875 9.95 8.575 10.3875 8.05 10.3875H2.5125C2.45 10.3875 2.3375 10.375 2.25 10.35C2.1375 10.3125 2.0375 10.2625 1.95 10.2C1.8375 10.125 1.75 10.025 1.6875 9.9125C1.625 9.8 1.575 9.6625 1.5625 9.525C1.5625 9.4875 1.5625 9.4625 1.5625 9.425V3.75C1.5625 3.2375 1.9875 2.8125 2.5 2.8125C3.0125 2.8125 3.4375 3.2375 3.4375 3.75V6.7375C5.475 4.55 9.3125 1.5625 15 1.5625C22.4125 1.5625 28.4375 7.5875 28.4375 15C28.4375 21.1 24.325 26.45 18.425 28C18.35 28.0125 18.2625 28.025 18.1875 28.025Z" fill="#77777C"/>
<path d="M14.1125 28.4125C14.0875 28.4125 14.0625 28.4 14.05 28.4C12.7 28.3125 11.375 28.0125 10.125 27.525C9.7625 27.3875 9.5125 27.025 9.525 26.6375C9.525 26.525 9.55 26.4125 9.5875 26.3125C9.775 25.8375 10.3375 25.6 10.8 25.775C11.8875 26.2 13.025 26.45 14.175 26.5375C14.6625 26.5625 15.05 26.9875 15.05 27.4875L15.0375 27.5375C15.0125 28.025 14.6 28.4125 14.1125 28.4125ZM7.225 25.725C7.0125 25.725 6.8125 25.65 6.6375 25.525C5.5875 24.675 4.6625 23.6875 3.9125 22.5875C3.8 22.425 3.7375 22.25 3.7375 22.0625C3.7375 21.75 3.8875 21.4625 4.15 21.2875C4.5625 21 5.1625 21.1125 5.45 21.5125C5.45 21.525 5.45 21.525 5.45 21.525C5.4625 21.5375 5.475 21.5625 5.4875 21.575C6.1375 22.5125 6.925 23.35 7.8125 24.05C8.025 24.225 8.1625 24.4875 8.1625 24.775C8.1625 24.9875 8.1 25.2 7.9625 25.375C7.775 25.6 7.5125 25.725 7.225 25.725ZM3.05 19.625C2.6375 19.625 2.275 19.3625 2.1625 18.975C1.7625 17.6875 1.5625 16.35 1.5625 15V14.9875C1.575 14.475 1.9875 14.0625 2.5 14.0625C3.0125 14.0625 3.4375 14.4875 3.4375 15C3.4375 16.175 3.6125 17.325 3.95 18.4125C3.975 18.5125 3.9875 18.6 3.9875 18.7C3.9875 19.1 3.725 19.4625 3.325 19.5875C3.2375 19.6125 3.15 19.625 3.05 19.625Z" fill="#77777C"/>
</svg>
