<svg width="30" height="30" viewBox="0 0 30 30" fill="none" xmlns="http://www.w3.org/2000/svg">
<path d="M22.0254 12.0254H15.4629C14.9504 12.0254 14.5254 11.6004 14.5254 11.0879C14.5254 10.5754 14.9504 10.1504 15.4629 10.1504H22.0254C22.5379 10.1504 22.9629 10.5754 22.9629 11.0879C22.9629 11.6004 22.5504 12.0254 22.0254 12.0254Z" fill="#77777C"/>
<path d="M8.9002 12.9754C8.6627 12.9754 8.4252 12.8879 8.2377 12.7004L7.3002 11.7629C6.9377 11.4004 6.9377 10.8004 7.3002 10.4379C7.6627 10.0754 8.2627 10.0754 8.6252 10.4379L8.9002 10.7129L11.0502 8.56289C11.4127 8.20039 12.0127 8.20039 12.3752 8.56289C12.7377 8.92539 12.7377 9.52539 12.3752 9.88789L9.5627 12.7004C9.3877 12.8754 9.1502 12.9754 8.9002 12.9754Z" fill="#77777C"/>
<path d="M22.0254 20.7754H15.4629C14.9504 20.7754 14.5254 20.3504 14.5254 19.8379C14.5254 19.3254 14.9504 18.9004 15.4629 18.9004H22.0254C22.5379 18.9004 22.9629 19.3254 22.9629 19.8379C22.9629 20.3504 22.5504 20.7754 22.0254 20.7754Z" fill="#77777C"/>
<path d="M8.9002 21.7254C8.6627 21.7254 8.4252 21.6379 8.2377 21.4504L7.3002 20.5129C6.9377 20.1504 6.9377 19.5504 7.3002 19.1879C7.6627 18.8254 8.2627 18.8254 8.6252 19.1879L8.9002 19.4629L11.0502 17.3129C11.4127 16.9504 12.0127 16.9504 12.3752 17.3129C12.7377 17.6754 12.7377 18.2754 12.3752 18.6379L9.5627 21.4504C9.3877 21.6254 9.1502 21.7254 8.9002 21.7254Z" fill="#77777C"/>
<path d="M18.75 28.4375H11.25C4.4625 28.4375 1.5625 25.5375 1.5625 18.75V11.25C1.5625 4.4625 4.4625 1.5625 11.25 1.5625H18.75C25.5375 1.5625 28.4375 4.4625 28.4375 11.25V18.75C28.4375 25.5375 25.5375 28.4375 18.75 28.4375ZM11.25 3.4375C5.4875 3.4375 3.4375 5.4875 3.4375 11.25V18.75C3.4375 24.5125 5.4875 26.5625 11.25 26.5625H18.75C24.5125 26.5625 26.5625 24.5125 26.5625 18.75V11.25C26.5625 5.4875 24.5125 3.4375 18.75 3.4375H11.25Z" fill="#77777C"/>
</svg>
